<svg width="376" height="195" viewBox="0 0 376 195" fill="none" xmlns="http://www.w3.org/2000/svg">
<rect x="0.398926" y="0.601074" width="375.585" height="193.518" fill="white"/>
<rect x="0.398926" y="0.601074" width="375.585" height="48.0933" fill="#FE7747"/>
<path d="M31.3159 23.6762C34.1786 25.0642 35.61 27.1462 36.6835 29.2281C38.1148 25.7582 42.7667 19.1653 48.4921 17.7773" stroke="white" stroke-width="1.5" stroke-linecap="round" stroke-linejoin="round"/>
<path d="M61.8292 28.6323H60.352L64.6247 16.996H66.0792L70.352 28.6323H68.8747L65.3974 18.8369H65.3065L61.8292 28.6323ZM62.3747 24.0869H68.3292V25.3369H62.3747V24.0869ZM74.0536 16.996V28.6323H72.6445V16.996H74.0536ZM82.177 23.0187V24.2687H77.0861V23.0187H82.177ZM85.0164 31.9051V19.9051H86.3118V21.2914H86.4709C86.5694 21.1399 86.7058 20.9467 86.88 20.7119C87.0581 20.4732 87.3118 20.2611 87.6414 20.0755C87.9747 19.8861 88.4255 19.7914 88.9937 19.7914C89.7285 19.7914 90.3762 19.9751 90.9368 20.3426C91.4975 20.71 91.935 21.2308 92.2493 21.9051C92.5637 22.5793 92.7209 23.3747 92.7209 24.2914C92.7209 25.2157 92.5637 26.0168 92.2493 26.6948C91.935 27.3691 91.4993 27.8918 90.9425 28.263C90.3857 28.6304 89.7437 28.8141 89.0164 28.8141C88.4558 28.8141 88.0069 28.7213 87.6698 28.5357C87.3327 28.3463 87.0732 28.1323 86.8914 27.8937C86.7096 27.6513 86.5694 27.4505 86.4709 27.2914H86.3573V31.9051H85.0164ZM86.3346 24.2687C86.3346 24.9278 86.4312 25.5092 86.6243 26.013C86.8175 26.513 87.0997 26.9051 87.4709 27.1891C87.8422 27.4694 88.2967 27.6096 88.8346 27.6096C89.3952 27.6096 89.863 27.4619 90.238 27.1664C90.6168 26.8672 90.9009 26.4657 91.0903 25.9619C91.2834 25.4543 91.38 24.8899 91.38 24.2687C91.38 23.6551 91.2853 23.102 91.0959 22.6096C90.9103 22.1134 90.6281 21.7213 90.2493 21.4335C89.8743 21.1418 89.4028 20.996 88.8346 20.996C88.2891 20.996 87.8308 21.1342 87.4596 21.4107C87.0884 21.6835 86.8081 22.066 86.6187 22.5585C86.4293 23.0471 86.3346 23.6172 86.3346 24.2687ZM98.7918 28.8141C98.004 28.8141 97.3127 28.6266 96.718 28.2516C96.1271 27.8766 95.665 27.352 95.3316 26.6778C95.0021 26.0035 94.8373 25.2157 94.8373 24.3141C94.8373 23.4051 95.0021 22.6115 95.3316 21.9335C95.665 21.2554 96.1271 20.7289 96.718 20.3539C97.3127 19.9789 98.004 19.7914 98.7918 19.7914C99.5797 19.7914 100.269 19.9789 100.86 20.3539C101.455 20.7289 101.917 21.2554 102.246 21.9335C102.58 22.6115 102.746 23.4051 102.746 24.3141C102.746 25.2157 102.58 26.0035 102.246 26.6778C101.917 27.352 101.455 27.8766 100.86 28.2516C100.269 28.6266 99.5797 28.8141 98.7918 28.8141ZM98.7918 27.6096C99.3903 27.6096 99.8828 27.4562 100.269 27.1494C100.655 26.8426 100.941 26.4391 101.127 25.9391C101.313 25.4391 101.405 24.8975 101.405 24.3141C101.405 23.7308 101.313 23.1872 101.127 22.6835C100.941 22.1797 100.655 21.7725 100.269 21.4619C99.8828 21.1513 99.3903 20.996 98.7918 20.996C98.1934 20.996 97.7009 21.1513 97.3146 21.4619C96.9282 21.7725 96.6422 22.1797 96.4566 22.6835C96.271 23.1872 96.1782 23.7308 96.1782 24.3141C96.1782 24.8975 96.271 25.4391 96.4566 25.9391C96.6422 26.4391 96.9282 26.8426 97.3146 27.1494C97.7009 27.4562 98.1934 27.6096 98.7918 27.6096ZM106.954 28.6323L104.295 19.9051H105.704L107.59 26.5869H107.681L109.545 19.9051H110.976L112.817 26.5641H112.908L114.795 19.9051H116.204L113.545 28.6323H112.226L110.317 21.9278H110.181L108.272 28.6323H106.954ZM121.819 28.8141C120.978 28.8141 120.252 28.6285 119.642 28.2573C119.036 27.8823 118.569 27.3596 118.239 26.6891C117.913 26.0149 117.75 25.2308 117.75 24.3369C117.75 23.4429 117.913 22.6551 118.239 21.9732C118.569 21.2876 119.027 20.7535 119.614 20.371C120.205 19.9846 120.894 19.7914 121.682 19.7914C122.137 19.7914 122.586 19.8672 123.029 20.0187C123.472 20.1702 123.875 20.4164 124.239 20.7573C124.603 21.0944 124.892 21.5414 125.108 22.0982C125.324 22.6551 125.432 23.3407 125.432 24.1551V24.7232H118.705V23.5641H124.069C124.069 23.0717 123.97 22.6323 123.773 22.246C123.58 21.8596 123.303 21.5547 122.944 21.3312C122.588 21.1077 122.167 20.996 121.682 20.996C121.148 20.996 120.686 21.1285 120.296 21.3937C119.91 21.6551 119.612 21.996 119.404 22.4164C119.196 22.8369 119.091 23.2876 119.091 23.7687V24.5414C119.091 25.2005 119.205 25.7592 119.432 26.2176C119.663 26.6721 119.983 27.0187 120.392 27.2573C120.802 27.4922 121.277 27.6096 121.819 27.6096C122.171 27.6096 122.489 27.5604 122.773 27.4619C123.061 27.3596 123.309 27.2081 123.517 27.0073C123.726 26.8028 123.887 26.549 124 26.246L125.296 26.6096C125.16 27.049 124.93 27.4354 124.608 27.7687C124.286 28.0982 123.889 28.3558 123.415 28.5414C122.942 28.7232 122.41 28.8141 121.819 28.8141ZM127.952 28.6323V19.9051H129.247V21.2232H129.338C129.497 20.7914 129.785 20.441 130.202 20.1721C130.619 19.9032 131.088 19.7687 131.611 19.7687C131.71 19.7687 131.833 19.7706 131.98 19.7744C132.128 19.7782 132.24 19.7838 132.316 19.7914V21.1551C132.27 21.1437 132.166 21.1266 132.003 21.1039C131.844 21.0774 131.676 21.0641 131.497 21.0641C131.073 21.0641 130.694 21.1532 130.361 21.3312C130.032 21.5054 129.77 21.7479 129.577 22.0585C129.388 22.3653 129.293 22.7157 129.293 23.1096V28.6323H127.952ZM137.779 28.8141C136.938 28.8141 136.212 28.6285 135.602 28.2573C134.996 27.8823 134.529 27.3596 134.199 26.6891C133.873 26.0149 133.71 25.2308 133.71 24.3369C133.71 23.4429 133.873 22.6551 134.199 21.9732C134.529 21.2876 134.987 20.7535 135.574 20.371C136.165 19.9846 136.854 19.7914 137.642 19.7914C138.097 19.7914 138.546 19.8672 138.989 20.0187C139.432 20.1702 139.835 20.4164 140.199 20.7573C140.563 21.0944 140.852 21.5414 141.068 22.0982C141.284 22.6551 141.392 23.3407 141.392 24.1551V24.7232H134.665V23.5641H140.029C140.029 23.0717 139.93 22.6323 139.733 22.246C139.54 21.8596 139.263 21.5547 138.904 21.3312C138.548 21.1077 138.127 20.996 137.642 20.996C137.108 20.996 136.646 21.1285 136.256 21.3937C135.87 21.6551 135.572 21.996 135.364 22.4164C135.156 22.8369 135.051 23.2876 135.051 23.7687V24.5414C135.051 25.2005 135.165 25.7592 135.392 26.2176C135.623 26.6721 135.943 27.0187 136.352 27.2573C136.762 27.4922 137.237 27.6096 137.779 27.6096C138.131 27.6096 138.449 27.5604 138.733 27.4619C139.021 27.3596 139.269 27.2081 139.477 27.0073C139.686 26.8028 139.847 26.549 139.96 26.246L141.256 26.6096C141.12 27.049 140.89 27.4354 140.568 27.7687C140.246 28.0982 139.849 28.3558 139.375 28.5414C138.902 28.7232 138.37 28.8141 137.779 28.8141ZM147.207 28.8141C146.48 28.8141 145.838 28.6304 145.281 28.263C144.725 27.8918 144.289 27.3691 143.975 26.6948C143.66 26.0168 143.503 25.2157 143.503 24.2914C143.503 23.3747 143.66 22.5793 143.975 21.9051C144.289 21.2308 144.726 20.71 145.287 20.3426C145.848 19.9751 146.495 19.7914 147.23 19.7914C147.798 19.7914 148.247 19.8861 148.577 20.0755C148.91 20.2611 149.164 20.4732 149.338 20.7119C149.516 20.9467 149.654 21.1399 149.753 21.2914H149.867V16.996H151.207V28.6323H149.912V27.2914H149.753C149.654 27.4505 149.514 27.6513 149.332 27.8937C149.151 28.1323 148.891 28.3463 148.554 28.5357C148.217 28.7213 147.768 28.8141 147.207 28.8141ZM147.389 27.6096C147.927 27.6096 148.382 27.4694 148.753 27.1891C149.124 26.9051 149.406 26.513 149.6 26.013C149.793 25.5092 149.889 24.9278 149.889 24.2687C149.889 23.6172 149.795 23.0471 149.605 22.5585C149.416 22.066 149.136 21.6835 148.764 21.4107C148.393 21.1342 147.935 20.996 147.389 20.996C146.821 20.996 146.348 21.1418 145.969 21.4335C145.594 21.7213 145.312 22.1134 145.122 22.6096C144.937 23.102 144.844 23.6551 144.844 24.2687C144.844 24.8899 144.939 25.4543 145.128 25.9619C145.321 26.4657 145.605 26.8672 145.98 27.1664C146.359 27.4619 146.829 27.6096 147.389 27.6096Z" fill="white"/>
<path opacity="0.6" d="M27.2414 128.674H25.9488L29.6874 118.492H30.9601L34.6988 128.674H33.4062L30.3635 120.103H30.284L27.2414 128.674ZM27.7187 124.697H32.9289V125.79H27.7187V124.697ZM36.1256 128.674V121.037H37.2591V122.191H37.3387C37.4779 121.813 37.7298 121.506 38.0944 121.271C38.459 121.036 38.8699 120.918 39.3273 120.918C39.4135 120.918 39.5212 120.92 39.6505 120.923C39.7797 120.926 39.8775 120.931 39.9438 120.938V122.131C39.904 122.121 39.8129 122.106 39.6704 122.086C39.5312 122.063 39.3837 122.052 39.2279 122.052C38.8567 122.052 38.5252 122.13 38.2336 122.285C37.9452 122.438 37.7165 122.65 37.5475 122.922C37.3818 123.19 37.2989 123.497 37.2989 123.841V128.674H36.1256ZM45.1341 121.037V122.032H41.1768V121.037H45.1341ZM42.3302 119.208H43.5035V126.486C43.5035 126.818 43.5515 127.066 43.6476 127.232C43.7471 127.394 43.873 127.504 44.0255 127.56C44.1813 127.613 44.3453 127.64 44.5177 127.64C44.6469 127.64 44.753 127.633 44.8358 127.62C44.9187 127.603 44.985 127.59 45.0347 127.58L45.2733 128.634C45.1938 128.664 45.0828 128.694 44.9403 128.724C44.7977 128.757 44.6171 128.773 44.3983 128.773C44.0669 128.773 43.7421 128.702 43.4239 128.559C43.109 128.417 42.8472 128.2 42.6384 127.908C42.4329 127.617 42.3302 127.249 42.3302 126.805V119.208ZM46.8991 128.674V121.037H48.0724V128.674H46.8991ZM47.4956 119.765C47.267 119.765 47.0698 119.687 46.904 119.531C46.7416 119.375 46.6604 119.188 46.6604 118.969C46.6604 118.751 46.7416 118.563 46.904 118.407C47.0698 118.252 47.267 118.174 47.4956 118.174C47.7243 118.174 47.9199 118.252 48.0823 118.407C48.248 118.563 48.3309 118.751 48.3309 118.969C48.3309 119.188 48.248 119.375 48.0823 119.531C47.9199 119.687 47.7243 119.765 47.4956 119.765ZM53.6219 121.037V122.032H49.5054V121.037H53.6219ZM50.7384 128.674V119.983C50.7384 119.546 50.8411 119.181 51.0466 118.89C51.2521 118.598 51.5189 118.379 51.847 118.233C52.1752 118.088 52.5215 118.015 52.8861 118.015C53.1744 118.015 53.4098 118.038 53.5921 118.084C53.7744 118.131 53.9102 118.174 53.9997 118.214L53.6617 119.228C53.602 119.208 53.5191 119.183 53.4131 119.153C53.3103 119.123 53.1744 119.108 53.0054 119.108C52.6176 119.108 52.3376 119.206 52.1652 119.402C51.9962 119.597 51.9117 119.884 51.9117 120.262V128.674H50.7384ZM55.2662 128.674V121.037H56.4395V128.674H55.2662ZM55.8628 119.765C55.6341 119.765 55.4369 119.687 55.2712 119.531C55.1088 119.375 55.0276 119.188 55.0276 118.969C55.0276 118.751 55.1088 118.563 55.2712 118.407C55.4369 118.252 55.6341 118.174 55.8628 118.174C56.0915 118.174 56.2871 118.252 56.4495 118.407C56.6152 118.563 56.6981 118.751 56.6981 118.969C56.6981 119.188 56.6152 119.375 56.4495 119.531C56.2871 119.687 56.0915 119.765 55.8628 119.765ZM61.6908 128.833C60.9749 128.833 60.3584 128.664 59.8414 128.326C59.3243 127.988 58.9266 127.522 58.6482 126.929C58.3698 126.336 58.2306 125.658 58.2306 124.895C58.2306 124.12 58.3731 123.435 58.6581 122.842C58.9465 122.246 59.3475 121.78 59.8612 121.445C60.3783 121.107 60.9815 120.938 61.6709 120.938C62.2078 120.938 62.6917 121.037 63.1226 121.236C63.5535 121.435 63.9065 121.714 64.1816 122.072C64.4566 122.43 64.6273 122.847 64.6936 123.324H63.5203C63.4308 122.976 63.232 122.668 62.9237 122.4C62.6188 122.128 62.2078 121.992 61.6908 121.992C61.2334 121.992 60.8324 122.111 60.4877 122.35C60.1463 122.585 59.8795 122.918 59.6872 123.349C59.4983 123.777 59.4039 124.279 59.4039 124.856C59.4039 125.446 59.4967 125.959 59.6823 126.397C59.8712 126.834 60.1363 127.174 60.4777 127.416C60.8224 127.658 61.2268 127.779 61.6908 127.779C61.9957 127.779 62.2725 127.726 62.521 127.62C62.7696 127.514 62.9801 127.361 63.1524 127.162C63.3248 126.964 63.4474 126.725 63.5203 126.447H64.6936C64.6273 126.897 64.4633 127.303 64.2014 127.665C63.9429 128.023 63.5999 128.308 63.1723 128.52C62.7481 128.729 62.2542 128.833 61.6908 128.833ZM66.4088 128.674V121.037H67.5821V128.674H66.4088ZM67.0054 119.765C66.7767 119.765 66.5795 119.687 66.4138 119.531C66.2514 119.375 66.1702 119.188 66.1702 118.969C66.1702 118.751 66.2514 118.563 66.4138 118.407C66.5795 118.252 66.7767 118.174 67.0054 118.174C67.2341 118.174 67.4297 118.252 67.5921 118.407C67.7578 118.563 67.8406 118.751 67.8406 118.969C67.8406 119.188 67.7578 119.375 67.5921 119.531C67.4297 119.687 67.2341 119.765 67.0054 119.765ZM71.9782 128.853C71.4943 128.853 71.0552 128.762 70.6608 128.579C70.2664 128.394 69.9532 128.127 69.7211 127.779C69.4891 127.428 69.3731 127.003 69.3731 126.506C69.3731 126.069 69.4593 125.714 69.6317 125.442C69.804 125.167 70.0344 124.952 70.3227 124.796C70.6111 124.64 70.9292 124.524 71.2773 124.448C71.6286 124.368 71.9816 124.305 72.3362 124.259C72.8002 124.199 73.1764 124.155 73.4648 124.125C73.7564 124.092 73.9685 124.037 74.1011 123.961C74.237 123.885 74.305 123.752 74.305 123.563V123.523C74.305 123.033 74.1707 122.652 73.9023 122.38C73.6371 122.108 73.2344 121.972 72.6942 121.972C72.134 121.972 71.6949 122.095 71.3767 122.34C71.0585 122.585 70.8348 122.847 70.7055 123.126L69.5919 122.728C69.7907 122.264 70.0559 121.903 70.3873 121.644C70.7221 121.382 71.0867 121.2 71.4811 121.097C71.8788 120.991 72.2699 120.938 72.6544 120.938C72.8997 120.938 73.1814 120.968 73.4996 121.028C73.8211 121.084 74.1309 121.202 74.4292 121.381C74.7309 121.559 74.9811 121.83 75.18 122.191C75.3788 122.552 75.4782 123.036 75.4782 123.643V128.674H74.305V127.64H74.2453C74.1657 127.805 74.0332 127.983 73.8476 128.172C73.662 128.361 73.415 128.521 73.1068 128.654C72.7986 128.787 72.4224 128.853 71.9782 128.853ZM72.1572 127.799C72.6212 127.799 73.0123 127.708 73.3305 127.525C73.652 127.343 73.894 127.108 74.0564 126.819C74.2221 126.531 74.305 126.228 74.305 125.91V124.836C74.2552 124.895 74.1459 124.95 73.9768 125C73.8111 125.046 73.6189 125.088 73.4001 125.124C73.1847 125.157 72.9742 125.187 72.7687 125.214C72.5666 125.237 72.4025 125.257 72.2765 125.273C71.9716 125.313 71.6866 125.378 71.4214 125.467C71.1596 125.553 70.9475 125.684 70.7851 125.86C70.626 126.032 70.5464 126.268 70.5464 126.566C70.5464 126.974 70.6972 127.282 70.9988 127.491C71.3038 127.696 71.6899 127.799 72.1572 127.799ZM78.7931 118.492V128.674H77.6198V118.492H78.7931ZM86.2716 118.492V128.674H85.0386V118.492H86.2716ZM89.7579 124.08V128.674H88.5846V121.037H89.7181V122.231H89.8176C89.9965 121.843 90.2683 121.531 90.6329 121.296C90.9975 121.057 91.4681 120.938 92.0448 120.938C92.5619 120.938 93.0143 121.044 93.4021 121.256C93.7899 121.465 94.0915 121.783 94.3069 122.211C94.5223 122.635 94.6301 123.172 94.6301 123.822V128.674H93.4568V123.901C93.4568 123.301 93.301 122.834 92.9894 122.499C92.6779 122.161 92.2503 121.992 91.7068 121.992C91.3322 121.992 90.9975 122.073 90.7025 122.236C90.4108 122.398 90.1805 122.635 90.0115 122.947C89.8424 123.258 89.7579 123.636 89.7579 124.08ZM100.095 121.037V122.032H96.1377V121.037H100.095ZM97.2911 119.208H98.4644V126.486C98.4644 126.818 98.5125 127.066 98.6086 127.232C98.708 127.394 98.834 127.504 98.9864 127.56C99.1422 127.613 99.3063 127.64 99.4786 127.64C99.6079 127.64 99.7139 127.633 99.7968 127.62C99.8796 127.603 99.9459 127.59 99.9956 127.58L100.234 128.634C100.155 128.664 100.044 128.694 99.9012 128.724C99.7587 128.757 99.578 128.773 99.3593 128.773C99.0278 128.773 98.703 128.702 98.3849 128.559C98.07 128.417 97.8081 128.2 97.5993 127.908C97.3939 127.617 97.2911 127.249 97.2911 126.805V119.208ZM104.98 128.833C104.244 128.833 103.609 128.671 103.076 128.346C102.545 128.018 102.136 127.56 101.848 126.974C101.563 126.384 101.42 125.698 101.42 124.915C101.42 124.133 101.563 123.444 101.848 122.847C102.136 122.247 102.537 121.78 103.051 121.445C103.568 121.107 104.171 120.938 104.86 120.938C105.258 120.938 105.651 121.004 106.039 121.137C106.426 121.269 106.779 121.485 107.098 121.783C107.416 122.078 107.669 122.469 107.858 122.956C108.047 123.444 108.142 124.044 108.142 124.756V125.253H102.255V124.239H106.948C106.948 123.808 106.862 123.424 106.69 123.086C106.521 122.748 106.279 122.481 105.964 122.285C105.652 122.09 105.285 121.992 104.86 121.992C104.393 121.992 103.989 122.108 103.647 122.34C103.309 122.569 103.049 122.867 102.867 123.235C102.684 123.603 102.593 123.997 102.593 124.418V125.094C102.593 125.671 102.693 126.16 102.892 126.561C103.094 126.959 103.374 127.262 103.732 127.471C104.09 127.676 104.506 127.779 104.98 127.779C105.288 127.779 105.566 127.736 105.815 127.65C106.067 127.56 106.284 127.428 106.466 127.252C106.648 127.073 106.789 126.851 106.889 126.586L108.022 126.904C107.903 127.288 107.702 127.626 107.421 127.918C107.139 128.206 106.791 128.432 106.377 128.594C105.962 128.753 105.497 128.833 104.98 128.833ZM111.1 118.492V128.674H109.926V118.492H111.1ZM114.422 118.492V128.674H113.249V118.492H114.422ZM116.571 128.674V121.037H117.744V128.674H116.571ZM117.168 119.765C116.939 119.765 116.742 119.687 116.576 119.531C116.414 119.375 116.332 119.188 116.332 118.969C116.332 118.751 116.414 118.563 116.576 118.407C116.742 118.252 116.939 118.174 117.168 118.174C117.396 118.174 117.592 118.252 117.754 118.407C117.92 118.563 118.003 118.751 118.003 118.969C118.003 119.188 117.92 119.375 117.754 119.531C117.592 119.687 117.396 119.765 117.168 119.765ZM122.976 131.697C122.409 131.697 121.922 131.624 121.514 131.478C121.106 131.335 120.767 131.146 120.495 130.911C120.226 130.679 120.013 130.43 119.853 130.165L120.788 129.509C120.894 129.648 121.028 129.807 121.191 129.986C121.353 130.169 121.575 130.326 121.857 130.459C122.142 130.595 122.515 130.662 122.976 130.662C123.592 130.662 124.101 130.513 124.502 130.215C124.903 129.917 125.103 129.449 125.103 128.813V127.262H125.004C124.918 127.401 124.795 127.573 124.636 127.779C124.48 127.981 124.255 128.162 123.96 128.321C123.668 128.477 123.274 128.555 122.777 128.555C122.16 128.555 121.607 128.409 121.116 128.117C120.629 127.825 120.243 127.401 119.958 126.844C119.676 126.287 119.535 125.611 119.535 124.816C119.535 124.034 119.673 123.353 119.948 122.773C120.223 122.189 120.606 121.738 121.096 121.42C121.587 121.099 122.154 120.938 122.797 120.938C123.294 120.938 123.688 121.021 123.98 121.187C124.275 121.349 124.5 121.535 124.656 121.743C124.815 121.949 124.938 122.118 125.024 122.251H125.143V121.037H126.277V128.893C126.277 129.549 126.128 130.082 125.829 130.493C125.534 130.908 125.137 131.211 124.636 131.403C124.139 131.599 123.585 131.697 122.976 131.697ZM122.936 127.501C123.406 127.501 123.804 127.393 124.129 127.177C124.454 126.962 124.701 126.652 124.87 126.248C125.039 125.843 125.123 125.359 125.123 124.796C125.123 124.246 125.04 123.76 124.875 123.339C124.709 122.918 124.464 122.589 124.139 122.35C123.814 122.111 123.413 121.992 122.936 121.992C122.439 121.992 122.024 122.118 121.693 122.37C121.365 122.622 121.118 122.96 120.952 123.384C120.79 123.808 120.709 124.279 120.709 124.796C120.709 125.326 120.791 125.795 120.957 126.203C121.126 126.607 121.375 126.925 121.703 127.157C122.034 127.386 122.445 127.501 122.936 127.501ZM131.626 128.833C130.89 128.833 130.256 128.671 129.722 128.346C129.192 128.018 128.782 127.56 128.494 126.974C128.209 126.384 128.066 125.698 128.066 124.915C128.066 124.133 128.209 123.444 128.494 122.847C128.782 122.247 129.183 121.78 129.697 121.445C130.214 121.107 130.817 120.938 131.507 120.938C131.905 120.938 132.297 121.004 132.685 121.137C133.073 121.269 133.426 121.485 133.744 121.783C134.062 122.078 134.316 122.469 134.505 122.956C134.694 123.444 134.788 124.044 134.788 124.756V125.253H128.902V124.239H133.595C133.595 123.808 133.509 123.424 133.336 123.086C133.167 122.748 132.925 122.481 132.611 122.285C132.299 122.09 131.931 121.992 131.507 121.992C131.04 121.992 130.635 122.108 130.294 122.34C129.956 122.569 129.696 122.867 129.513 123.235C129.331 123.603 129.24 123.997 129.24 124.418V125.094C129.24 125.671 129.339 126.16 129.538 126.561C129.74 126.959 130.02 127.262 130.378 127.471C130.736 127.676 131.152 127.779 131.626 127.779C131.934 127.779 132.213 127.736 132.461 127.65C132.713 127.56 132.93 127.428 133.113 127.252C133.295 127.073 133.436 126.851 133.535 126.586L134.669 126.904C134.549 127.288 134.349 127.626 134.067 127.918C133.785 128.206 133.437 128.432 133.023 128.594C132.609 128.753 132.143 128.833 131.626 128.833ZM137.746 124.08V128.674H136.573V121.037H137.706V122.231H137.806C137.985 121.843 138.257 121.531 138.621 121.296C138.986 121.057 139.456 120.938 140.033 120.938C140.55 120.938 141.003 121.044 141.39 121.256C141.778 121.465 142.08 121.783 142.295 122.211C142.511 122.635 142.618 123.172 142.618 123.822V128.674H141.445V123.901C141.445 123.301 141.289 122.834 140.978 122.499C140.666 122.161 140.239 121.992 139.695 121.992C139.321 121.992 138.986 122.073 138.691 122.236C138.399 122.398 138.169 122.635 138 122.947C137.831 123.258 137.746 123.636 137.746 124.08ZM147.865 128.833C147.149 128.833 146.532 128.664 146.015 128.326C145.498 127.988 145.1 127.522 144.822 126.929C144.544 126.336 144.404 125.658 144.404 124.895C144.404 124.12 144.547 123.435 144.832 122.842C145.12 122.246 145.521 121.78 146.035 121.445C146.552 121.107 147.155 120.938 147.845 120.938C148.382 120.938 148.866 121.037 149.296 121.236C149.727 121.435 150.08 121.714 150.355 122.072C150.63 122.43 150.801 122.847 150.867 123.324H149.694C149.605 122.976 149.406 122.668 149.098 122.4C148.793 122.128 148.382 121.992 147.865 121.992C147.407 121.992 147.006 122.111 146.661 122.35C146.32 122.585 146.053 122.918 145.861 123.349C145.672 123.777 145.578 124.279 145.578 124.856C145.578 125.446 145.67 125.959 145.856 126.397C146.045 126.834 146.31 127.174 146.652 127.416C146.996 127.658 147.401 127.779 147.865 127.779C148.17 127.779 148.446 127.726 148.695 127.62C148.943 127.514 149.154 127.361 149.326 127.162C149.499 126.964 149.621 126.725 149.694 126.447H150.867C150.801 126.897 150.637 127.303 150.375 127.665C150.117 128.023 149.774 128.308 149.346 128.52C148.922 128.729 148.428 128.833 147.865 128.833ZM155.784 128.833C155.049 128.833 154.414 128.671 153.88 128.346C153.35 128.018 152.941 127.56 152.652 126.974C152.367 126.384 152.225 125.698 152.225 124.915C152.225 124.133 152.367 123.444 152.652 122.847C152.941 122.247 153.342 121.78 153.855 121.445C154.372 121.107 154.976 120.938 155.665 120.938C156.063 120.938 156.456 121.004 156.843 121.137C157.231 121.269 157.584 121.485 157.902 121.783C158.22 122.078 158.474 122.469 158.663 122.956C158.852 123.444 158.946 124.044 158.946 124.756V125.253H153.06V124.239H157.753C157.753 123.808 157.667 123.424 157.495 123.086C157.326 122.748 157.084 122.481 156.769 122.285C156.457 122.09 156.089 121.992 155.665 121.992C155.198 121.992 154.793 122.108 154.452 122.34C154.114 122.569 153.854 122.867 153.671 123.235C153.489 123.603 153.398 123.997 153.398 124.418V125.094C153.398 125.671 153.497 126.16 153.696 126.561C153.898 126.959 154.179 127.262 154.536 127.471C154.894 127.676 155.31 127.779 155.784 127.779C156.093 127.779 156.371 127.736 156.62 127.65C156.871 127.56 157.089 127.428 157.271 127.252C157.453 127.073 157.594 126.851 157.693 126.586L158.827 126.904C158.708 127.288 158.507 127.626 158.225 127.918C157.944 128.206 157.596 128.432 157.181 128.594C156.767 128.753 156.301 128.833 155.784 128.833ZM167.99 121.037V122.032H164.032V121.037H167.99ZM165.186 119.208H166.359V126.486C166.359 126.818 166.407 127.066 166.503 127.232C166.603 127.394 166.728 127.504 166.881 127.56C167.037 127.613 167.201 127.64 167.373 127.64C167.502 127.64 167.608 127.633 167.691 127.62C167.774 127.603 167.84 127.59 167.89 127.58L168.129 128.634C168.049 128.664 167.938 128.694 167.796 128.724C167.653 128.757 167.473 128.773 167.254 128.773C166.922 128.773 166.598 128.702 166.279 128.559C165.965 128.417 165.703 128.2 165.494 127.908C165.288 127.617 165.186 127.249 165.186 126.805V119.208ZM172.775 128.833C172.085 128.833 171.48 128.669 170.96 128.341C170.443 128.013 170.039 127.554 169.747 126.964C169.459 126.374 169.315 125.684 169.315 124.895C169.315 124.1 169.459 123.406 169.747 122.812C170.039 122.219 170.443 121.758 170.96 121.43C171.48 121.102 172.085 120.938 172.775 120.938C173.464 120.938 174.067 121.102 174.584 121.43C175.105 121.758 175.509 122.219 175.797 122.812C176.089 123.406 176.235 124.1 176.235 124.895C176.235 125.684 176.089 126.374 175.797 126.964C175.509 127.554 175.105 128.013 174.584 128.341C174.067 128.669 173.464 128.833 172.775 128.833ZM172.775 127.779C173.298 127.779 173.729 127.645 174.067 127.376C174.405 127.108 174.656 126.755 174.818 126.317C174.98 125.88 175.062 125.406 175.062 124.895C175.062 124.385 174.98 123.909 174.818 123.469C174.656 123.028 174.405 122.671 174.067 122.4C173.729 122.128 173.298 121.992 172.775 121.992C172.251 121.992 171.82 122.128 171.482 122.4C171.144 122.671 170.894 123.028 170.731 123.469C170.569 123.909 170.488 124.385 170.488 124.895C170.488 125.406 170.569 125.88 170.731 126.317C170.894 126.755 171.144 127.108 171.482 127.376C171.82 127.645 172.251 127.779 172.775 127.779ZM185.046 131.697C184.479 131.697 183.992 131.624 183.584 131.478C183.177 131.335 182.837 131.146 182.565 130.911C182.297 130.679 182.083 130.43 181.924 130.165L182.858 129.509C182.964 129.648 183.099 129.807 183.261 129.986C183.424 130.169 183.646 130.326 183.927 130.459C184.212 130.595 184.585 130.662 185.046 130.662C185.662 130.662 186.171 130.513 186.572 130.215C186.973 129.917 187.174 129.449 187.174 128.813V127.262H187.074C186.988 127.401 186.866 127.573 186.706 127.779C186.551 127.981 186.325 128.162 186.03 128.321C185.739 128.477 185.344 128.555 184.847 128.555C184.231 128.555 183.677 128.409 183.187 128.117C182.699 127.825 182.313 127.401 182.028 126.844C181.746 126.287 181.606 125.611 181.606 124.816C181.606 124.034 181.743 123.353 182.018 122.773C182.293 122.189 182.676 121.738 183.167 121.42C183.657 121.099 184.224 120.938 184.867 120.938C185.364 120.938 185.758 121.021 186.05 121.187C186.345 121.349 186.571 121.535 186.726 121.743C186.885 121.949 187.008 122.118 187.094 122.251H187.214V121.037H188.347V128.893C188.347 129.549 188.198 130.082 187.9 130.493C187.605 130.908 187.207 131.211 186.706 131.403C186.209 131.599 185.656 131.697 185.046 131.697ZM185.006 127.501C185.477 127.501 185.874 127.393 186.199 127.177C186.524 126.962 186.771 126.652 186.94 126.248C187.109 125.843 187.194 125.359 187.194 124.796C187.194 124.246 187.111 123.76 186.945 123.339C186.779 122.918 186.534 122.589 186.209 122.35C185.884 122.111 185.483 121.992 185.006 121.992C184.509 121.992 184.095 122.118 183.763 122.37C183.435 122.622 183.188 122.96 183.022 123.384C182.86 123.808 182.779 124.279 182.779 124.796C182.779 125.326 182.862 125.795 183.027 126.203C183.196 126.607 183.445 126.925 183.773 127.157C184.105 127.386 184.516 127.501 185.006 127.501ZM193.696 128.833C192.961 128.833 192.326 128.671 191.792 128.346C191.262 128.018 190.853 127.56 190.564 126.974C190.279 126.384 190.137 125.698 190.137 124.915C190.137 124.133 190.279 123.444 190.564 122.847C190.853 122.247 191.254 121.78 191.767 121.445C192.285 121.107 192.888 120.938 193.577 120.938C193.975 120.938 194.368 121.004 194.755 121.137C195.143 121.269 195.496 121.485 195.814 121.783C196.133 122.078 196.386 122.469 196.575 122.956C196.764 123.444 196.858 124.044 196.858 124.756V125.253H190.972V124.239H195.665C195.665 123.808 195.579 123.424 195.407 123.086C195.238 122.748 194.996 122.481 194.681 122.285C194.369 122.09 194.001 121.992 193.577 121.992C193.11 121.992 192.705 122.108 192.364 122.34C192.026 122.569 191.766 122.867 191.584 123.235C191.401 123.603 191.31 123.997 191.31 124.418V125.094C191.31 125.671 191.41 126.16 191.608 126.561C191.811 126.959 192.091 127.262 192.449 127.471C192.807 127.676 193.223 127.779 193.696 127.779C194.005 127.779 194.283 127.736 194.532 127.65C194.784 127.56 195.001 127.428 195.183 127.252C195.365 127.073 195.506 126.851 195.606 126.586L196.739 126.904C196.62 127.288 196.419 127.626 196.138 127.918C195.856 128.206 195.508 128.432 195.093 128.594C194.679 128.753 194.214 128.833 193.696 128.833ZM199.816 124.08V128.674H198.643V121.037H199.777V122.231H199.876C200.055 121.843 200.327 121.531 200.691 121.296C201.056 121.057 201.527 120.938 202.103 120.938C202.62 120.938 203.073 121.044 203.461 121.256C203.848 121.465 204.15 121.783 204.366 122.211C204.581 122.635 204.689 123.172 204.689 123.822V128.674H203.515V123.901C203.515 123.301 203.36 122.834 203.048 122.499C202.736 122.161 202.309 121.992 201.765 121.992C201.391 121.992 201.056 122.073 200.761 122.236C200.469 122.398 200.239 122.635 200.07 122.947C199.901 123.258 199.816 123.636 199.816 124.08ZM210.034 128.833C209.299 128.833 208.664 128.671 208.13 128.346C207.6 128.018 207.191 127.56 206.902 126.974C206.617 126.384 206.475 125.698 206.475 124.915C206.475 124.133 206.617 123.444 206.902 122.847C207.191 122.247 207.592 121.78 208.105 121.445C208.622 121.107 209.226 120.938 209.915 120.938C210.313 120.938 210.706 121.004 211.093 121.137C211.481 121.269 211.834 121.485 212.152 121.783C212.47 122.078 212.724 122.469 212.913 122.956C213.102 123.444 213.196 124.044 213.196 124.756V125.253H207.31V124.239H212.003C212.003 123.808 211.917 123.424 211.745 123.086C211.576 122.748 211.334 122.481 211.019 122.285C210.707 122.09 210.339 121.992 209.915 121.992C209.448 121.992 209.043 122.108 208.702 122.34C208.364 122.569 208.104 122.867 207.921 123.235C207.739 123.603 207.648 123.997 207.648 124.418V125.094C207.648 125.671 207.747 126.16 207.946 126.561C208.148 126.959 208.429 127.262 208.786 127.471C209.144 127.676 209.56 127.779 210.034 127.779C210.343 127.779 210.621 127.736 210.87 127.65C211.121 127.56 211.339 127.428 211.521 127.252C211.703 127.073 211.844 126.851 211.943 126.586L213.077 126.904C212.958 127.288 212.757 127.626 212.475 127.918C212.194 128.206 211.846 128.432 211.431 128.594C211.017 128.753 210.551 128.833 210.034 128.833ZM214.981 128.674V121.037H216.115V122.191H216.194C216.333 121.813 216.585 121.506 216.95 121.271C217.314 121.036 217.725 120.918 218.183 120.918C218.269 120.918 218.377 120.92 218.506 120.923C218.635 120.926 218.733 120.931 218.799 120.938V122.131C218.759 122.121 218.668 122.106 218.526 122.086C218.387 122.063 218.239 122.052 218.083 122.052C217.712 122.052 217.381 122.13 217.089 122.285C216.801 122.438 216.572 122.65 216.403 122.922C216.237 123.19 216.154 123.497 216.154 123.841V128.674H214.981ZM222.437 128.853C221.953 128.853 221.514 128.762 221.12 128.579C220.725 128.394 220.412 128.127 220.18 127.779C219.948 127.428 219.832 127.003 219.832 126.506C219.832 126.069 219.918 125.714 220.091 125.442C220.263 125.167 220.493 124.952 220.782 124.796C221.07 124.64 221.388 124.524 221.736 124.448C222.088 124.368 222.441 124.305 222.795 124.259C223.259 124.199 223.635 124.155 223.924 124.125C224.215 124.092 224.428 124.037 224.56 123.961C224.696 123.885 224.764 123.752 224.764 123.563V123.523C224.764 123.033 224.63 122.652 224.361 122.38C224.096 122.108 223.693 121.972 223.153 121.972C222.593 121.972 222.154 122.095 221.836 122.34C221.517 122.585 221.294 122.847 221.165 123.126L220.051 122.728C220.25 122.264 220.515 121.903 220.846 121.644C221.181 121.382 221.546 121.2 221.94 121.097C222.338 120.991 222.729 120.938 223.113 120.938C223.359 120.938 223.64 120.968 223.959 121.028C224.28 121.084 224.59 121.202 224.888 121.381C225.19 121.559 225.44 121.83 225.639 122.191C225.838 122.552 225.937 123.036 225.937 123.643V128.674H224.764V127.64H224.704C224.625 127.805 224.492 127.983 224.307 128.172C224.121 128.361 223.874 128.521 223.566 128.654C223.258 128.787 222.881 128.853 222.437 128.853ZM222.616 127.799C223.08 127.799 223.471 127.708 223.79 127.525C224.111 127.343 224.353 127.108 224.515 126.819C224.681 126.531 224.764 126.228 224.764 125.91V124.836C224.714 124.895 224.605 124.95 224.436 125C224.27 125.046 224.078 125.088 223.859 125.124C223.644 125.157 223.433 125.187 223.228 125.214C223.026 125.237 222.861 125.257 222.736 125.273C222.431 125.313 222.146 125.378 221.88 125.467C221.619 125.553 221.406 125.684 221.244 125.86C221.085 126.032 221.005 126.268 221.005 126.566C221.005 126.974 221.156 127.282 221.458 127.491C221.763 127.696 222.149 127.799 222.616 127.799ZM231.4 121.037V122.032H227.442V121.037H231.4ZM228.596 119.208H229.769V126.486C229.769 126.818 229.817 127.066 229.913 127.232C230.013 127.394 230.139 127.504 230.291 127.56C230.447 127.613 230.611 127.64 230.783 127.64C230.913 127.64 231.019 127.633 231.101 127.62C231.184 127.603 231.251 127.59 231.3 127.58L231.539 128.634C231.459 128.664 231.348 128.694 231.206 128.724C231.063 128.757 230.883 128.773 230.664 128.773C230.333 128.773 230.008 128.702 229.69 128.559C229.375 128.417 229.113 128.2 228.904 127.908C228.699 127.617 228.596 127.249 228.596 126.805V119.208ZM236.284 128.833C235.549 128.833 234.914 128.671 234.38 128.346C233.85 128.018 233.441 127.56 233.152 126.974C232.867 126.384 232.725 125.698 232.725 124.915C232.725 124.133 232.867 123.444 233.152 122.847C233.441 122.247 233.842 121.78 234.355 121.445C234.872 121.107 235.476 120.938 236.165 120.938C236.563 120.938 236.956 121.004 237.343 121.137C237.731 121.269 238.084 121.485 238.402 121.783C238.72 122.078 238.974 122.469 239.163 122.956C239.352 123.444 239.446 124.044 239.446 124.756V125.253H233.56V124.239H238.253C238.253 123.808 238.167 123.424 237.995 123.086C237.826 122.748 237.584 122.481 237.269 122.285C236.957 122.09 236.589 121.992 236.165 121.992C235.698 121.992 235.293 122.108 234.952 122.34C234.614 122.569 234.354 122.867 234.171 123.235C233.989 123.603 233.898 123.997 233.898 124.418V125.094C233.898 125.671 233.997 126.16 234.196 126.561C234.398 126.959 234.679 127.262 235.036 127.471C235.394 127.676 235.81 127.779 236.284 127.779C236.593 127.779 236.871 127.736 237.12 127.65C237.371 127.56 237.589 127.428 237.771 127.252C237.953 127.073 238.094 126.851 238.193 126.586L239.327 126.904C239.208 127.288 239.007 127.626 238.725 127.918C238.444 128.206 238.096 128.432 237.681 128.594C237.267 128.753 236.801 128.833 236.284 128.833ZM249.981 125.552V121.037H251.154V128.674H249.981V127.381H249.902C249.723 127.769 249.444 128.099 249.066 128.371C248.688 128.639 248.211 128.773 247.634 128.773C247.157 128.773 246.733 128.669 246.362 128.46C245.991 128.248 245.699 127.93 245.487 127.506C245.275 127.078 245.169 126.539 245.169 125.89V121.037H246.342V125.81C246.342 126.367 246.498 126.811 246.809 127.143C247.124 127.474 247.525 127.64 248.012 127.64C248.304 127.64 248.601 127.565 248.902 127.416C249.207 127.267 249.462 127.038 249.668 126.73C249.877 126.422 249.981 126.029 249.981 125.552ZM254.477 124.08V128.674H253.303V121.037H254.437V122.231H254.536C254.715 121.843 254.987 121.531 255.352 121.296C255.716 121.057 256.187 120.938 256.764 120.938C257.281 120.938 257.733 121.044 258.121 121.256C258.509 121.465 258.81 121.783 259.026 122.211C259.241 122.635 259.349 123.172 259.349 123.822V128.674H258.176V123.901C258.176 123.301 258.02 122.834 257.708 122.499C257.397 122.161 256.969 121.992 256.426 121.992C256.051 121.992 255.716 122.073 255.421 122.236C255.13 122.398 254.899 122.635 254.73 122.947C254.561 123.258 254.477 123.636 254.477 124.08ZM261.493 128.674V121.037H262.666V128.674H261.493ZM262.089 119.765C261.861 119.765 261.664 119.687 261.498 119.531C261.335 119.375 261.254 119.188 261.254 118.969C261.254 118.751 261.335 118.563 261.498 118.407C261.664 118.252 261.861 118.174 262.089 118.174C262.318 118.174 262.514 118.252 262.676 118.407C262.842 118.563 262.925 118.751 262.925 118.969C262.925 119.188 262.842 119.375 262.676 119.531C262.514 119.687 262.318 119.765 262.089 119.765ZM270.025 131.537V127.501H269.926C269.84 127.64 269.717 127.815 269.558 128.028C269.399 128.236 269.172 128.424 268.877 128.589C268.582 128.752 268.189 128.833 267.699 128.833C267.062 128.833 266.5 128.672 266.013 128.351C265.526 128.026 265.145 127.568 264.87 126.979C264.595 126.385 264.457 125.684 264.457 124.876C264.457 124.073 264.595 123.377 264.87 122.787C265.145 122.198 265.528 121.742 266.018 121.42C266.509 121.099 267.075 120.938 267.718 120.938C268.216 120.938 268.608 121.021 268.897 121.187C269.188 121.349 269.41 121.535 269.563 121.743C269.719 121.949 269.84 122.118 269.926 122.251H270.065V121.037H271.199V131.537H270.025ZM267.858 127.779C268.328 127.779 268.726 127.656 269.051 127.411C269.376 127.162 269.623 126.819 269.792 126.382C269.961 125.941 270.045 125.432 270.045 124.856C270.045 124.286 269.962 123.787 269.797 123.359C269.631 122.928 269.386 122.594 269.061 122.355C268.736 122.113 268.335 121.992 267.858 121.992C267.361 121.992 266.946 122.12 266.615 122.375C266.287 122.627 266.04 122.97 265.874 123.404C265.712 123.835 265.63 124.319 265.63 124.856C265.63 125.399 265.713 125.893 265.879 126.337C266.048 126.778 266.297 127.129 266.625 127.391C266.956 127.65 267.367 127.779 267.858 127.779ZM278.159 125.552V121.037H279.332V128.674H278.159V127.381H278.079C277.9 127.769 277.622 128.099 277.244 128.371C276.866 128.639 276.389 128.773 275.812 128.773C275.335 128.773 274.911 128.669 274.54 128.46C274.168 128.248 273.877 127.93 273.665 127.506C273.452 127.078 273.346 126.539 273.346 125.89V121.037H274.52V125.81C274.52 126.367 274.675 126.811 274.987 127.143C275.302 127.474 275.703 127.64 276.19 127.64C276.482 127.64 276.778 127.565 277.08 127.416C277.385 127.267 277.64 127.038 277.846 126.73C278.054 126.422 278.159 126.029 278.159 125.552ZM284.683 128.833C283.947 128.833 283.312 128.671 282.779 128.346C282.248 128.018 281.839 127.56 281.551 126.974C281.266 126.384 281.123 125.698 281.123 124.915C281.123 124.133 281.266 123.444 281.551 122.847C281.839 122.247 282.24 121.78 282.754 121.445C283.271 121.107 283.874 120.938 284.563 120.938C284.961 120.938 285.354 121.004 285.742 121.137C286.13 121.269 286.483 121.485 286.801 121.783C287.119 122.078 287.372 122.469 287.561 122.956C287.75 123.444 287.845 124.044 287.845 124.756V125.253H281.958V124.239H286.652C286.652 123.808 286.565 123.424 286.393 123.086C286.224 122.748 285.982 122.481 285.667 122.285C285.356 122.09 284.988 121.992 284.563 121.992C284.096 121.992 283.692 122.108 283.35 122.34C283.012 122.569 282.752 122.867 282.57 123.235C282.388 123.603 282.296 123.997 282.296 124.418V125.094C282.296 125.671 282.396 126.16 282.595 126.561C282.797 126.959 283.077 127.262 283.435 127.471C283.793 127.676 284.209 127.779 284.683 127.779C284.991 127.779 285.269 127.736 285.518 127.65C285.77 127.56 285.987 127.428 286.169 127.252C286.352 127.073 286.492 126.851 286.592 126.586L287.725 126.904C287.606 127.288 287.406 127.626 287.124 127.918C286.842 128.206 286.494 128.432 286.08 128.594C285.666 128.753 285.2 128.833 284.683 128.833ZM29.767 152.833C29.051 152.833 28.4346 152.664 27.9175 152.326C27.4005 151.988 27.0028 151.522 26.7243 150.929C26.4459 150.336 26.3067 149.658 26.3067 148.895C26.3067 148.12 26.4492 147.435 26.7343 146.842C27.0226 146.246 27.4237 145.78 27.9374 145.445C28.4545 145.107 29.0577 144.938 29.7471 144.938C30.284 144.938 30.7679 145.037 31.1988 145.236C31.6296 145.435 31.9826 145.714 32.2577 146.072C32.5328 146.43 32.7035 146.847 32.7698 147.324H31.5965C31.507 146.976 31.3082 146.668 30.9999 146.4C30.695 146.128 30.284 145.992 29.767 145.992C29.3096 145.992 28.9085 146.111 28.5638 146.35C28.2224 146.585 27.9556 146.918 27.7634 147.349C27.5745 147.777 27.48 148.279 27.48 148.856C27.48 149.446 27.5728 149.959 27.7584 150.397C27.9474 150.834 28.2125 151.174 28.5539 151.416C28.8986 151.658 29.3029 151.779 29.767 151.779C30.0719 151.779 30.3486 151.726 30.5972 151.62C30.8458 151.514 31.0563 151.361 31.2286 151.162C31.401 150.964 31.5236 150.725 31.5965 150.447H32.7698C32.7035 150.897 32.5394 151.303 32.2776 151.665C32.0191 152.023 31.676 152.308 31.2485 152.52C30.8242 152.729 30.3304 152.833 29.767 152.833ZM37.5873 152.833C36.8979 152.833 36.293 152.669 35.7726 152.341C35.2556 152.013 34.8512 151.554 34.5596 150.964C34.2712 150.374 34.127 149.684 34.127 148.895C34.127 148.1 34.2712 147.406 34.5596 146.812C34.8512 146.219 35.2556 145.758 35.7726 145.43C36.293 145.102 36.8979 144.938 37.5873 144.938C38.2767 144.938 38.8799 145.102 39.3969 145.43C39.9173 145.758 40.3216 146.219 40.61 146.812C40.9017 147.406 41.0475 148.1 41.0475 148.895C41.0475 149.684 40.9017 150.374 40.61 150.964C40.3216 151.554 39.9173 152.013 39.3969 152.341C38.8799 152.669 38.2767 152.833 37.5873 152.833ZM37.5873 151.779C38.1109 151.779 38.5418 151.645 38.8799 151.376C39.218 151.108 39.4682 150.755 39.6306 150.317C39.793 149.88 39.8742 149.406 39.8742 148.895C39.8742 148.385 39.793 147.909 39.6306 147.469C39.4682 147.028 39.218 146.671 38.8799 146.4C38.5418 146.128 38.1109 145.992 37.5873 145.992C37.0636 145.992 36.6327 146.128 36.2947 146.4C35.9566 146.671 35.7064 147.028 35.5439 147.469C35.3815 147.909 35.3003 148.385 35.3003 148.895C35.3003 149.406 35.3815 149.88 35.5439 150.317C35.7064 150.755 35.9566 151.108 36.2947 151.376C36.6327 151.645 37.0636 151.779 37.5873 151.779ZM44.0118 148.08V152.674H42.8385V145.037H43.972V146.231H44.0715C44.2504 145.843 44.5222 145.531 44.8868 145.296C45.2514 145.057 45.722 144.938 46.2987 144.938C46.8158 144.938 47.2682 145.044 47.656 145.256C48.0438 145.465 48.3454 145.783 48.5608 146.211C48.7762 146.635 48.884 147.172 48.884 147.822V152.674H47.7107V147.901C47.7107 147.301 47.5549 146.834 47.2433 146.499C46.9318 146.161 46.5042 145.992 45.9607 145.992C45.5861 145.992 45.2514 146.073 44.9564 146.236C44.6647 146.398 44.4344 146.635 44.2654 146.947C44.0963 147.258 44.0118 147.636 44.0118 148.08ZM54.349 145.037V146.032H50.3916V145.037H54.349ZM51.545 143.208H52.7183V150.486C52.7183 150.818 52.7664 151.066 52.8625 151.232C52.9619 151.394 53.0879 151.504 53.2403 151.56C53.3961 151.613 53.5602 151.64 53.7325 151.64C53.8618 151.64 53.9678 151.633 54.0507 151.62C54.1336 151.603 54.1998 151.59 54.2496 151.58L54.4882 152.634C54.4086 152.664 54.2976 152.694 54.1551 152.724C54.0126 152.757 53.8319 152.773 53.6132 152.773C53.2818 152.773 52.9569 152.702 52.6388 152.559C52.3239 152.417 52.0621 152.2 51.8532 151.908C51.6478 151.617 51.545 151.249 51.545 150.805V143.208ZM59.2336 152.833C58.4978 152.833 57.8631 152.671 57.3295 152.346C56.7992 152.018 56.3898 151.56 56.1015 150.974C55.8164 150.384 55.6739 149.698 55.6739 148.915C55.6739 148.133 55.8164 147.444 56.1015 146.847C56.3898 146.247 56.7909 145.78 57.3046 145.445C57.8216 145.107 58.4249 144.938 59.1143 144.938C59.512 144.938 59.9047 145.004 60.2925 145.137C60.6803 145.269 61.0333 145.485 61.3515 145.783C61.6697 146.078 61.9232 146.469 62.1121 146.956C62.301 147.444 62.3955 148.044 62.3955 148.756V149.253H56.5091V148.239H61.2023C61.2023 147.808 61.1162 147.424 60.9438 147.086C60.7748 146.748 60.5328 146.481 60.218 146.285C59.9064 146.09 59.5385 145.992 59.1143 145.992C58.6469 145.992 58.2426 146.108 57.9012 146.34C57.5631 146.569 57.3029 146.867 57.1206 147.235C56.9384 147.603 56.8472 147.997 56.8472 148.418V149.094C56.8472 149.671 56.9466 150.16 57.1455 150.561C57.3477 150.959 57.6278 151.262 57.9857 151.471C58.3437 151.676 58.7596 151.779 59.2336 151.779C59.5418 151.779 59.8202 151.736 60.0688 151.65C60.3207 151.56 60.5378 151.428 60.7201 151.252C60.9024 151.073 61.0432 150.851 61.1427 150.586L62.2762 150.904C62.1569 151.288 61.9564 151.626 61.6746 151.918C61.3929 152.206 61.0449 152.432 60.6306 152.594C60.2163 152.753 59.7506 152.833 59.2336 152.833ZM65.3536 148.08V152.674H64.1803V145.037H65.3138V146.231H65.4133C65.5922 145.843 65.864 145.531 66.2286 145.296C66.5932 145.057 67.0638 144.938 67.6405 144.938C68.1576 144.938 68.61 145.044 68.9978 145.256C69.3856 145.465 69.6872 145.783 69.9026 146.211C70.118 146.635 70.2258 147.172 70.2258 147.822V152.674H69.0525V147.901C69.0525 147.301 68.8967 146.834 68.5851 146.499C68.2736 146.161 67.846 145.992 67.3025 145.992C66.9279 145.992 66.5932 146.073 66.2982 146.236C66.0065 146.398 65.7762 146.635 65.6072 146.947C65.4381 147.258 65.3536 147.636 65.3536 148.08ZM75.6908 145.037V146.032H71.7334V145.037H75.6908ZM72.8868 143.208H74.0601V150.486C74.0601 150.818 74.1082 151.066 74.2043 151.232C74.3037 151.394 74.4297 151.504 74.5821 151.56C74.7379 151.613 74.902 151.64 75.0743 151.64C75.2036 151.64 75.3096 151.633 75.3925 151.62C75.4753 151.603 75.5416 151.59 75.5914 151.58L75.83 152.634C75.7504 152.664 75.6394 152.694 75.4969 152.724C75.3544 152.757 75.1737 152.773 74.955 152.773C74.6236 152.773 74.2987 152.702 73.9806 152.559C73.6657 152.417 73.4039 152.2 73.195 151.908C72.9896 151.617 72.8868 151.249 72.8868 150.805V143.208ZM84.7938 145.037V146.032H80.6773V145.037H84.7938ZM81.9102 152.674V143.983C81.9102 143.546 82.013 143.181 82.2185 142.89C82.424 142.598 82.6908 142.379 83.0189 142.233C83.347 142.088 83.6934 142.015 84.058 142.015C84.3463 142.015 84.5816 142.038 84.7639 142.084C84.9462 142.131 85.0821 142.174 85.1716 142.214L84.8335 143.228C84.7739 143.208 84.691 143.183 84.585 143.153C84.4822 143.123 84.3463 143.108 84.1773 143.108C83.7895 143.108 83.5094 143.206 83.3371 143.402C83.1681 143.597 83.0835 143.884 83.0835 144.262V152.674H81.9102ZM89.2259 152.833C88.5365 152.833 87.9317 152.669 87.4113 152.341C86.8943 152.013 86.4899 151.554 86.1982 150.964C85.9099 150.374 85.7657 149.684 85.7657 148.895C85.7657 148.1 85.9099 147.406 86.1982 146.812C86.4899 146.219 86.8943 145.758 87.4113 145.43C87.9317 145.102 88.5365 144.938 89.2259 144.938C89.9153 144.938 90.5186 145.102 91.0356 145.43C91.556 145.758 91.9603 146.219 92.2487 146.812C92.5403 147.406 92.6862 148.1 92.6862 148.895C92.6862 149.684 92.5403 150.374 92.2487 150.964C91.9603 151.554 91.556 152.013 91.0356 152.341C90.5186 152.669 89.9153 152.833 89.2259 152.833ZM89.2259 151.779C89.7496 151.779 90.1805 151.645 90.5186 151.376C90.8566 151.108 91.1069 150.755 91.2693 150.317C91.4317 149.88 91.5129 149.406 91.5129 148.895C91.5129 148.385 91.4317 147.909 91.2693 147.469C91.1069 147.028 90.8566 146.671 90.5186 146.4C90.1805 146.128 89.7496 145.992 89.2259 145.992C88.7023 145.992 88.2714 146.128 87.9333 146.4C87.5953 146.671 87.345 147.028 87.1826 147.469C87.0202 147.909 86.939 148.385 86.939 148.895C86.939 149.406 87.0202 149.88 87.1826 150.317C87.345 150.755 87.5953 151.108 87.9333 151.376C88.2714 151.645 88.7023 151.779 89.2259 151.779ZM94.4772 152.674V145.037H95.6107V146.191H95.6903C95.8295 145.813 96.0814 145.506 96.4459 145.271C96.8105 145.036 97.2215 144.918 97.6789 144.918C97.7651 144.918 97.8728 144.92 98.002 144.923C98.1313 144.926 98.2291 144.931 98.2954 144.938V146.131C98.2556 146.121 98.1644 146.106 98.0219 146.086C97.8827 146.063 97.7352 146.052 97.5795 146.052C97.2082 146.052 96.8768 146.13 96.5851 146.285C96.2968 146.438 96.0681 146.65 95.8991 146.922C95.7333 147.19 95.6505 147.497 95.6505 147.841V152.674H94.4772ZM104.379 155.537C104.18 155.537 104.003 155.521 103.847 155.488C103.692 155.458 103.584 155.428 103.524 155.398L103.823 154.364C104.108 154.437 104.359 154.464 104.578 154.444C104.797 154.424 104.991 154.326 105.16 154.15C105.332 153.978 105.49 153.698 105.632 153.31L105.851 152.714L103.027 145.037H104.3L106.408 151.123H106.487L108.595 145.037H109.868L106.627 153.787C106.481 154.182 106.3 154.508 106.085 154.767C105.869 155.029 105.619 155.223 105.334 155.349C105.052 155.474 104.734 155.537 104.379 155.537ZM114.245 152.833C113.556 152.833 112.951 152.669 112.431 152.341C111.914 152.013 111.509 151.554 111.218 150.964C110.929 150.374 110.785 149.684 110.785 148.895C110.785 148.1 110.929 147.406 111.218 146.812C111.509 146.219 111.914 145.758 112.431 145.43C112.951 145.102 113.556 144.938 114.245 144.938C114.935 144.938 115.538 145.102 116.055 145.43C116.575 145.758 116.98 146.219 117.268 146.812C117.56 147.406 117.706 148.1 117.706 148.895C117.706 149.684 117.56 150.374 117.268 150.964C116.98 151.554 116.575 152.013 116.055 152.341C115.538 152.669 114.935 152.833 114.245 152.833ZM114.245 151.779C114.769 151.779 115.2 151.645 115.538 151.376C115.876 151.108 116.126 150.755 116.289 150.317C116.451 149.88 116.532 149.406 116.532 148.895C116.532 148.385 116.451 147.909 116.289 147.469C116.126 147.028 115.876 146.671 115.538 146.4C115.2 146.128 114.769 145.992 114.245 145.992C113.722 145.992 113.291 146.128 112.953 146.4C112.615 146.671 112.365 147.028 112.202 147.469C112.04 147.909 111.959 148.385 111.959 148.895C111.959 149.406 112.04 149.88 112.202 150.317C112.365 150.755 112.615 151.108 112.953 151.376C113.291 151.645 113.722 151.779 114.245 151.779ZM124.309 149.552V145.037H125.483V152.674H124.309V151.381H124.23C124.051 151.769 123.772 152.099 123.394 152.371C123.017 152.639 122.539 152.773 121.963 152.773C121.485 152.773 121.061 152.669 120.69 152.46C120.319 152.248 120.027 151.93 119.815 151.506C119.603 151.078 119.497 150.539 119.497 149.89V145.037H120.67V149.81C120.67 150.367 120.826 150.811 121.137 151.143C121.452 151.474 121.853 151.64 122.34 151.64C122.632 151.64 122.929 151.565 123.23 151.416C123.535 151.267 123.791 151.038 123.996 150.73C124.205 150.422 124.309 150.029 124.309 149.552ZM127.631 152.674V145.037H128.765V146.191H128.845C128.984 145.813 129.236 145.506 129.6 145.271C129.965 145.036 130.376 144.918 130.833 144.918C130.919 144.918 131.027 144.92 131.156 144.923C131.286 144.926 131.383 144.931 131.45 144.938V146.131C131.41 146.121 131.319 146.106 131.176 146.086C131.037 146.063 130.89 146.052 130.734 146.052C130.363 146.052 130.031 146.13 129.739 146.285C129.451 146.438 129.222 146.65 129.053 146.922C128.888 147.19 128.805 147.497 128.805 147.841V152.674H127.631ZM138.508 152.674L136.181 145.037H137.414L139.065 150.884H139.144L140.775 145.037H142.028L143.639 150.864H143.718L145.369 145.037H146.602L144.275 152.674H143.122L141.451 146.807H141.332L139.661 152.674H138.508ZM151.095 152.833C150.359 152.833 149.724 152.671 149.191 152.346C148.66 152.018 148.251 151.56 147.963 150.974C147.678 150.384 147.535 149.698 147.535 148.915C147.535 148.133 147.678 147.444 147.963 146.847C148.251 146.247 148.652 145.78 149.166 145.445C149.683 145.107 150.286 144.938 150.976 144.938C151.373 144.938 151.766 145.004 152.154 145.137C152.542 145.269 152.895 145.485 153.213 145.783C153.531 146.078 153.785 146.469 153.973 146.956C154.162 147.444 154.257 148.044 154.257 148.756V149.253H148.37V148.239H153.064C153.064 147.808 152.977 147.424 152.805 147.086C152.636 146.748 152.394 146.481 152.079 146.285C151.768 146.09 151.4 145.992 150.976 145.992C150.508 145.992 150.104 146.108 149.763 146.34C149.424 146.569 149.164 146.867 148.982 147.235C148.8 147.603 148.709 147.997 148.709 148.418V149.094C148.709 149.671 148.808 150.16 149.007 150.561C149.209 150.959 149.489 151.262 149.847 151.471C150.205 151.676 150.621 151.779 151.095 151.779C151.403 151.779 151.682 151.736 151.93 151.65C152.182 151.56 152.399 151.428 152.581 151.252C152.764 151.073 152.905 150.851 153.004 150.586L154.138 150.904C154.018 151.288 153.818 151.626 153.536 151.918C153.254 152.206 152.906 152.432 152.492 152.594C152.078 152.753 151.612 152.833 151.095 152.833ZM156.201 152.674V142.492H157.374V146.251H157.473C157.56 146.118 157.679 145.949 157.831 145.743C157.987 145.535 158.209 145.349 158.498 145.187C158.789 145.021 159.184 144.938 159.681 144.938C160.324 144.938 160.891 145.099 161.381 145.42C161.872 145.742 162.254 146.198 162.53 146.787C162.805 147.377 162.942 148.073 162.942 148.876C162.942 149.684 162.805 150.385 162.53 150.979C162.254 151.568 161.873 152.026 161.386 152.351C160.899 152.672 160.337 152.833 159.701 152.833C159.21 152.833 158.817 152.752 158.522 152.589C158.227 152.424 158 152.236 157.841 152.028C157.682 151.815 157.56 151.64 157.473 151.501H157.334V152.674H156.201ZM157.354 148.856C157.354 149.432 157.439 149.941 157.608 150.382C157.777 150.819 158.024 151.162 158.348 151.411C158.673 151.656 159.071 151.779 159.542 151.779C160.032 151.779 160.441 151.65 160.77 151.391C161.101 151.129 161.35 150.778 161.515 150.337C161.684 149.893 161.769 149.399 161.769 148.856C161.769 148.319 161.686 147.835 161.52 147.404C161.358 146.97 161.111 146.627 160.78 146.375C160.451 146.12 160.039 145.992 159.542 145.992C159.064 145.992 158.663 146.113 158.339 146.355C158.014 146.594 157.768 146.928 157.603 147.359C157.437 147.787 157.354 148.286 157.354 148.856ZM170.146 146.748L169.092 147.046C169.026 146.87 168.928 146.7 168.799 146.534C168.673 146.365 168.5 146.226 168.282 146.116C168.063 146.007 167.783 145.952 167.441 145.952C166.974 145.952 166.585 146.06 166.273 146.275C165.965 146.488 165.811 146.758 165.811 147.086C165.811 147.377 165.917 147.608 166.129 147.777C166.341 147.946 166.673 148.087 167.123 148.199L168.257 148.478C168.94 148.644 169.448 148.897 169.783 149.238C170.118 149.577 170.285 150.012 170.285 150.546C170.285 150.983 170.159 151.375 169.907 151.719C169.659 152.064 169.311 152.336 168.863 152.535C168.416 152.733 167.896 152.833 167.302 152.833C166.523 152.833 165.879 152.664 165.368 152.326C164.858 151.988 164.535 151.494 164.399 150.844L165.513 150.566C165.619 150.977 165.819 151.285 166.114 151.491C166.412 151.696 166.802 151.799 167.282 151.799C167.829 151.799 168.263 151.683 168.585 151.451C168.91 151.215 169.072 150.934 169.072 150.606C169.072 150.34 168.979 150.118 168.794 149.939C168.608 149.757 168.323 149.621 167.939 149.532L166.666 149.233C165.967 149.068 165.453 148.811 165.125 148.463C164.8 148.112 164.638 147.672 164.638 147.145C164.638 146.715 164.758 146.333 165 146.002C165.246 145.671 165.579 145.41 166 145.221C166.424 145.032 166.905 144.938 167.441 144.938C168.197 144.938 168.79 145.104 169.221 145.435C169.656 145.767 169.964 146.204 170.146 146.748ZM172.051 152.674V145.037H173.225V152.674H172.051ZM172.648 143.765C172.419 143.765 172.222 143.687 172.056 143.531C171.894 143.375 171.813 143.188 171.813 142.969C171.813 142.751 171.894 142.563 172.056 142.407C172.222 142.252 172.419 142.174 172.648 142.174C172.877 142.174 173.072 142.252 173.235 142.407C173.4 142.563 173.483 142.751 173.483 142.969C173.483 143.188 173.4 143.375 173.235 143.531C173.072 143.687 172.877 143.765 172.648 143.765ZM178.695 145.037V146.032H174.737V145.037H178.695ZM175.891 143.208H177.064V150.486C177.064 150.818 177.112 151.066 177.208 151.232C177.308 151.394 177.434 151.504 177.586 151.56C177.742 151.613 177.906 151.64 178.078 151.64C178.207 151.64 178.314 151.633 178.396 151.62C178.479 151.603 178.546 151.59 178.595 151.58L178.834 152.634C178.754 152.664 178.643 152.694 178.501 152.724C178.358 152.757 178.178 152.773 177.959 152.773C177.627 152.773 177.303 152.702 176.984 152.559C176.67 152.417 176.408 152.2 176.199 151.908C175.993 151.617 175.891 151.249 175.891 150.805V143.208ZM183.579 152.833C182.843 152.833 182.209 152.671 181.675 152.346C181.145 152.018 180.736 151.56 180.447 150.974C180.162 150.384 180.02 149.698 180.02 148.915C180.02 148.133 180.162 147.444 180.447 146.847C180.736 146.247 181.137 145.78 181.65 145.445C182.167 145.107 182.771 144.938 183.46 144.938C183.858 144.938 184.25 145.004 184.638 145.137C185.026 145.269 185.379 145.485 185.697 145.783C186.015 146.078 186.269 146.469 186.458 146.956C186.647 147.444 186.741 148.044 186.741 148.756V149.253H180.855V148.239H185.548C185.548 147.808 185.462 147.424 185.29 147.086C185.12 146.748 184.879 146.481 184.564 146.285C184.252 146.09 183.884 145.992 183.46 145.992C182.993 145.992 182.588 146.108 182.247 146.34C181.909 146.569 181.649 146.867 181.466 147.235C181.284 147.603 181.193 147.997 181.193 148.418V149.094C181.193 149.671 181.292 150.16 181.491 150.561C181.693 150.959 181.973 151.262 182.331 151.471C182.689 151.676 183.105 151.779 183.579 151.779C183.888 151.779 184.166 151.736 184.415 151.65C184.666 151.56 184.883 151.428 185.066 151.252C185.248 151.073 185.389 150.851 185.488 150.586L186.622 150.904C186.503 151.288 186.302 151.626 186.02 151.918C185.739 152.206 185.391 152.432 184.976 152.594C184.562 152.753 184.096 152.833 183.579 152.833Z" fill="#222A2F"/>
<path d="M28.5631 84.1606H26.0319L30.6405 71.0697H33.5681L38.1832 84.1606H35.6519L32.1555 73.7544H32.0532L28.5631 84.1606ZM28.6462 79.0278H35.5496V80.9327H28.6462V79.0278ZM42.1191 71.0697V84.1606H39.8051V71.0697H42.1191ZM51.8206 84.1606L48.126 71.0697H50.6764L53.0351 80.6898H53.1565L55.675 71.0697H57.9953L60.5202 80.6962H60.6352L62.9939 71.0697H65.5443L61.8497 84.1606H59.5102L56.8895 74.9753H56.7872L54.1601 84.1606H51.8206ZM66.4711 84.1606V74.3425H68.7148V75.9788H68.817C68.996 75.4121 69.3028 74.9753 69.7375 74.6685C70.1764 74.3574 70.6771 74.2018 71.2396 74.2018C71.3675 74.2018 71.5102 74.2082 71.6679 74.221C71.8298 74.2295 71.964 74.2445 72.0706 74.2658V76.3943C71.9726 76.3602 71.817 76.3304 71.604 76.3048C71.3952 76.275 71.1927 76.2601 70.9967 76.2601C70.5748 76.2601 70.1956 76.3517 69.8589 76.5349C69.5265 76.7139 69.2645 76.9632 69.0727 77.2828C68.8809 77.6024 68.7851 77.971 68.7851 78.3886V84.1606H66.4711ZM73.6079 84.1606V74.3425H75.9218V84.1606H73.6079ZM74.7712 72.949C74.4047 72.949 74.0894 72.8275 73.8252 72.5846C73.561 72.3375 73.4289 72.0413 73.4289 71.6962C73.4289 71.3467 73.561 71.0506 73.8252 70.8077C74.0894 70.5605 74.4047 70.4369 74.7712 70.4369C75.142 70.4369 75.4573 70.5605 75.7172 70.8077C75.9814 71.0506 76.1135 71.3467 76.1135 71.6962C76.1135 72.0413 75.9814 72.3375 75.7172 72.5846C75.4573 72.8275 75.142 72.949 74.7712 72.949ZM83.2039 74.3425V76.1322H77.5597V74.3425H83.2039ZM78.9532 71.9902H81.2671V81.2075C81.2671 81.5186 81.314 81.7572 81.4078 81.9234C81.5058 82.0854 81.6336 82.1962 81.7913 82.2558C81.949 82.3155 82.1237 82.3453 82.3154 82.3453C82.4603 82.3453 82.5924 82.3347 82.7117 82.3133C82.8353 82.292 82.9291 82.2729 82.993 82.2558L83.3829 84.0648C83.2593 84.1074 83.0825 84.1543 82.8524 84.2054C82.6265 84.2565 82.3495 84.2864 82.0214 84.2949C81.4419 84.3119 80.9198 84.2246 80.4553 84.0328C79.9909 83.8368 79.6222 83.5342 79.3495 83.1251C79.0811 82.716 78.949 82.2047 78.9532 81.591V71.9902ZM89.3802 84.3524C88.3959 84.3524 87.5457 84.1479 86.8298 83.7388C86.1182 83.3254 85.5706 82.7416 85.1871 81.9873C84.8035 81.2288 84.6118 80.3361 84.6118 79.3091C84.6118 78.2991 84.8035 77.4128 85.1871 76.65C85.5748 75.8829 86.116 75.2864 86.8106 74.8602C87.5052 74.4298 88.3213 74.2146 89.2588 74.2146C89.8639 74.2146 90.4349 74.3126 90.9719 74.5087C91.5131 74.7004 91.9903 74.9987 92.4037 75.4035C92.8213 75.8084 93.1494 76.324 93.3881 76.9504C93.6267 77.5726 93.746 78.3141 93.746 79.1748V79.8844H85.6984V78.3247H91.528C91.5237 77.8815 91.4278 77.4873 91.2403 77.1422C91.0528 76.7927 90.7907 76.5179 90.4541 76.3176C90.1217 76.1173 89.7339 76.0172 89.2907 76.0172C88.8177 76.0172 88.4023 76.1322 88.0443 76.3623C87.6863 76.5882 87.4072 76.8865 87.2069 77.2572C87.0109 77.6237 86.9108 78.0264 86.9065 78.4653V79.8268C86.9065 80.3979 87.0109 80.8879 87.2197 81.297C87.4285 81.7018 87.7204 82.0129 88.0954 82.2302C88.4704 82.4433 88.9094 82.5498 89.4122 82.5498C89.7488 82.5498 90.0535 82.503 90.3263 82.4092C90.599 82.3112 90.8355 82.1685 91.0358 81.981C91.2361 81.7935 91.3873 81.5612 91.4896 81.2842L93.6501 81.5271C93.5138 82.0981 93.2538 82.5967 92.8703 83.0229C92.491 83.4447 92.0052 83.7729 91.4129 84.0072C90.8206 84.2373 90.143 84.3524 89.3802 84.3524Z" fill="#FE7747"/>
<rect x="318.336" y="65.4751" width="25.9819" height="25.9819" rx="3.25" stroke="#FE7747" stroke-width="1.5"/>
<path d="M337.446 74.7808L328.929 83.2973L324.671 79.039" stroke="#FE7747" stroke-width="1.5" stroke-linecap="round" stroke-linejoin="round"/>
</svg>
