<svg width="454" height="273" viewBox="0 0 454 273" fill="none" xmlns="http://www.w3.org/2000/svg">
<g filter="url(#filter0_d_73_737)">
<rect x="39.3989" y="19.6011" width="375.585" height="193.518" fill="white"/>
</g>
<rect x="39.3989" y="19.6011" width="375.585" height="48.0933" fill="#FE7747"/>
<path d="M70.3159 42.6762C73.1786 44.0642 74.61 46.1462 75.6835 48.2281C77.1148 44.7582 81.7667 38.1653 87.4921 36.7773" stroke="white" stroke-width="1.5" stroke-linecap="round" stroke-linejoin="round"/>
<path d="M100.829 47.6323H99.352L103.625 35.996H105.079L109.352 47.6323H107.875L104.397 37.8369H104.307L100.829 47.6323ZM101.375 43.0869H107.329V44.3369H101.375V43.0869ZM113.054 35.996V47.6323H111.644V35.996H113.054ZM121.177 42.0187V43.2687H116.086V42.0187H121.177ZM124.016 50.9051V38.9051H125.312V40.2914H125.471C125.569 40.1399 125.706 39.9467 125.88 39.7119C126.058 39.4732 126.312 39.2611 126.641 39.0755C126.975 38.8861 127.425 38.7914 127.994 38.7914C128.729 38.7914 129.376 38.9751 129.937 39.3426C130.497 39.71 130.935 40.2308 131.249 40.9051C131.564 41.5793 131.721 42.3747 131.721 43.2914C131.721 44.2157 131.564 45.0168 131.249 45.6948C130.935 46.3691 130.499 46.8918 129.943 47.263C129.386 47.6304 128.744 47.8141 128.016 47.8141C127.456 47.8141 127.007 47.7213 126.67 47.5357C126.333 47.3463 126.073 47.1323 125.891 46.8937C125.71 46.6513 125.569 46.4505 125.471 46.2914H125.357V50.9051H124.016ZM125.335 43.2687C125.335 43.9278 125.431 44.5092 125.624 45.013C125.818 45.513 126.1 45.9051 126.471 46.1891C126.842 46.4694 127.297 46.6096 127.835 46.6096C128.395 46.6096 128.863 46.4619 129.238 46.1664C129.617 45.8672 129.901 45.4657 130.09 44.9619C130.283 44.4543 130.38 43.8899 130.38 43.2687C130.38 42.6551 130.285 42.102 130.096 41.6096C129.91 41.1134 129.628 40.7213 129.249 40.4335C128.874 40.1418 128.403 39.996 127.835 39.996C127.289 39.996 126.831 40.1342 126.46 40.4107C126.088 40.6835 125.808 41.066 125.619 41.5585C125.429 42.0471 125.335 42.6172 125.335 43.2687ZM137.792 47.8141C137.004 47.8141 136.313 47.6266 135.718 47.2516C135.127 46.8766 134.665 46.352 134.332 45.6778C134.002 45.0035 133.837 44.2157 133.837 43.3141C133.837 42.4051 134.002 41.6115 134.332 40.9335C134.665 40.2554 135.127 39.7289 135.718 39.3539C136.313 38.9789 137.004 38.7914 137.792 38.7914C138.58 38.7914 139.269 38.9789 139.86 39.3539C140.455 39.7289 140.917 40.2554 141.246 40.9335C141.58 41.6115 141.746 42.4051 141.746 43.3141C141.746 44.2157 141.58 45.0035 141.246 45.6778C140.917 46.352 140.455 46.8766 139.86 47.2516C139.269 47.6266 138.58 47.8141 137.792 47.8141ZM137.792 46.6096C138.39 46.6096 138.883 46.4562 139.269 46.1494C139.655 45.8426 139.941 45.4391 140.127 44.9391C140.313 44.4391 140.405 43.8975 140.405 43.3141C140.405 42.7308 140.313 42.1872 140.127 41.6835C139.941 41.1797 139.655 40.7725 139.269 40.4619C138.883 40.1513 138.39 39.996 137.792 39.996C137.193 39.996 136.701 40.1513 136.315 40.4619C135.928 40.7725 135.642 41.1797 135.457 41.6835C135.271 42.1872 135.178 42.7308 135.178 43.3141C135.178 43.8975 135.271 44.4391 135.457 44.9391C135.642 45.4391 135.928 45.8426 136.315 46.1494C136.701 46.4562 137.193 46.6096 137.792 46.6096ZM145.954 47.6323L143.295 38.9051H144.704L146.59 45.5869H146.681L148.545 38.9051H149.976L151.817 45.5641H151.908L153.795 38.9051H155.204L152.545 47.6323H151.226L149.317 40.9278H149.181L147.272 47.6323H145.954ZM160.819 47.8141C159.978 47.8141 159.252 47.6285 158.642 47.2573C158.036 46.8823 157.569 46.3596 157.239 45.6891C156.913 45.0149 156.75 44.2308 156.75 43.3369C156.75 42.4429 156.913 41.6551 157.239 40.9732C157.569 40.2876 158.027 39.7535 158.614 39.371C159.205 38.9846 159.894 38.7914 160.682 38.7914C161.137 38.7914 161.586 38.8672 162.029 39.0187C162.472 39.1702 162.875 39.4164 163.239 39.7573C163.603 40.0944 163.892 40.5414 164.108 41.0982C164.324 41.6551 164.432 42.3407 164.432 43.1551V43.7232H157.705V42.5641H163.069C163.069 42.0717 162.97 41.6323 162.773 41.246C162.58 40.8596 162.303 40.5547 161.944 40.3312C161.588 40.1077 161.167 39.996 160.682 39.996C160.148 39.996 159.686 40.1285 159.296 40.3937C158.91 40.6551 158.612 40.996 158.404 41.4164C158.196 41.8369 158.091 42.2876 158.091 42.7687V43.5414C158.091 44.2005 158.205 44.7592 158.432 45.2176C158.663 45.6721 158.983 46.0187 159.392 46.2573C159.802 46.4922 160.277 46.6096 160.819 46.6096C161.171 46.6096 161.489 46.5604 161.773 46.4619C162.061 46.3596 162.309 46.2081 162.517 46.0073C162.726 45.8028 162.887 45.549 163 45.246L164.296 45.6096C164.16 46.049 163.93 46.4354 163.608 46.7687C163.286 47.0982 162.889 47.3558 162.415 47.5414C161.942 47.7232 161.41 47.8141 160.819 47.8141ZM166.952 47.6323V38.9051H168.247V40.2232H168.338C168.497 39.7914 168.785 39.441 169.202 39.1721C169.619 38.9032 170.088 38.7687 170.611 38.7687C170.71 38.7687 170.833 38.7706 170.98 38.7744C171.128 38.7782 171.24 38.7838 171.316 38.7914V40.1551C171.27 40.1437 171.166 40.1266 171.003 40.1039C170.844 40.0774 170.676 40.0641 170.497 40.0641C170.073 40.0641 169.694 40.1532 169.361 40.3312C169.032 40.5054 168.77 40.7479 168.577 41.0585C168.388 41.3653 168.293 41.7157 168.293 42.1096V47.6323H166.952ZM176.779 47.8141C175.938 47.8141 175.212 47.6285 174.602 47.2573C173.996 46.8823 173.529 46.3596 173.199 45.6891C172.873 45.0149 172.71 44.2308 172.71 43.3369C172.71 42.4429 172.873 41.6551 173.199 40.9732C173.529 40.2876 173.987 39.7535 174.574 39.371C175.165 38.9846 175.854 38.7914 176.642 38.7914C177.097 38.7914 177.546 38.8672 177.989 39.0187C178.432 39.1702 178.835 39.4164 179.199 39.7573C179.563 40.0944 179.852 40.5414 180.068 41.0982C180.284 41.6551 180.392 42.3407 180.392 43.1551V43.7232H173.665V42.5641H179.029C179.029 42.0717 178.93 41.6323 178.733 41.246C178.54 40.8596 178.263 40.5547 177.904 40.3312C177.548 40.1077 177.127 39.996 176.642 39.996C176.108 39.996 175.646 40.1285 175.256 40.3937C174.87 40.6551 174.572 40.996 174.364 41.4164C174.156 41.8369 174.051 42.2876 174.051 42.7687V43.5414C174.051 44.2005 174.165 44.7592 174.392 45.2176C174.623 45.6721 174.943 46.0187 175.352 46.2573C175.762 46.4922 176.237 46.6096 176.779 46.6096C177.131 46.6096 177.449 46.5604 177.733 46.4619C178.021 46.3596 178.269 46.2081 178.477 46.0073C178.686 45.8028 178.847 45.549 178.96 45.246L180.256 45.6096C180.12 46.049 179.89 46.4354 179.568 46.7687C179.246 47.0982 178.849 47.3558 178.375 47.5414C177.902 47.7232 177.37 47.8141 176.779 47.8141ZM186.207 47.8141C185.48 47.8141 184.838 47.6304 184.281 47.263C183.725 46.8918 183.289 46.3691 182.975 45.6948C182.66 45.0168 182.503 44.2157 182.503 43.2914C182.503 42.3747 182.66 41.5793 182.975 40.9051C183.289 40.2308 183.726 39.71 184.287 39.3426C184.848 38.9751 185.495 38.7914 186.23 38.7914C186.798 38.7914 187.247 38.8861 187.577 39.0755C187.91 39.2611 188.164 39.4732 188.338 39.7119C188.516 39.9467 188.654 40.1399 188.753 40.2914H188.867V35.996H190.207V47.6323H188.912V46.2914H188.753C188.654 46.4505 188.514 46.6513 188.332 46.8937C188.151 47.1323 187.891 47.3463 187.554 47.5357C187.217 47.7213 186.768 47.8141 186.207 47.8141ZM186.389 46.6096C186.927 46.6096 187.382 46.4694 187.753 46.1891C188.124 45.9051 188.406 45.513 188.6 45.013C188.793 44.5092 188.889 43.9278 188.889 43.2687C188.889 42.6172 188.795 42.0471 188.605 41.5585C188.416 41.066 188.136 40.6835 187.764 40.4107C187.393 40.1342 186.935 39.996 186.389 39.996C185.821 39.996 185.348 40.1418 184.969 40.4335C184.594 40.7213 184.312 41.1134 184.122 41.6096C183.937 42.102 183.844 42.6551 183.844 43.2687C183.844 43.8899 183.939 44.4543 184.128 44.9619C184.321 45.4657 184.605 45.8672 184.98 46.1664C185.359 46.4619 185.829 46.6096 186.389 46.6096Z" fill="white"/>
<path opacity="0.6" d="M66.2414 147.674H64.9488L68.6874 137.492H69.9601L73.6988 147.674H72.4062L69.3635 139.103H69.284L66.2414 147.674ZM66.7187 143.697H71.9289V144.79H66.7187V143.697ZM75.1256 147.674V140.037H76.2591V141.191H76.3387C76.4779 140.813 76.7298 140.506 77.0944 140.271C77.459 140.036 77.8699 139.918 78.3273 139.918C78.4135 139.918 78.5212 139.92 78.6505 139.923C78.7797 139.926 78.8775 139.931 78.9438 139.938V141.131C78.904 141.121 78.8129 141.106 78.6704 141.086C78.5312 141.063 78.3837 141.052 78.2279 141.052C77.8567 141.052 77.5252 141.13 77.2336 141.285C76.9452 141.438 76.7165 141.65 76.5475 141.922C76.3818 142.19 76.2989 142.497 76.2989 142.841V147.674H75.1256ZM84.1341 140.037V141.032H80.1768V140.037H84.1341ZM81.3302 138.208H82.5035V145.486C82.5035 145.818 82.5515 146.066 82.6476 146.232C82.7471 146.394 82.873 146.504 83.0255 146.56C83.1813 146.613 83.3453 146.64 83.5177 146.64C83.6469 146.64 83.753 146.633 83.8358 146.62C83.9187 146.603 83.985 146.59 84.0347 146.58L84.2733 147.634C84.1938 147.664 84.0828 147.694 83.9403 147.724C83.7977 147.757 83.6171 147.773 83.3983 147.773C83.0669 147.773 82.7421 147.702 82.4239 147.559C82.109 147.417 81.8472 147.2 81.6384 146.908C81.4329 146.617 81.3302 146.249 81.3302 145.805V138.208ZM85.8991 147.674V140.037H87.0724V147.674H85.8991ZM86.4956 138.765C86.267 138.765 86.0698 138.687 85.904 138.531C85.7416 138.375 85.6604 138.188 85.6604 137.969C85.6604 137.751 85.7416 137.563 85.904 137.407C86.0698 137.252 86.267 137.174 86.4956 137.174C86.7243 137.174 86.9199 137.252 87.0823 137.407C87.248 137.563 87.3309 137.751 87.3309 137.969C87.3309 138.188 87.248 138.375 87.0823 138.531C86.9199 138.687 86.7243 138.765 86.4956 138.765ZM92.6219 140.037V141.032H88.5054V140.037H92.6219ZM89.7384 147.674V138.983C89.7384 138.546 89.8411 138.181 90.0466 137.89C90.2521 137.598 90.5189 137.379 90.847 137.233C91.1752 137.088 91.5215 137.015 91.8861 137.015C92.1744 137.015 92.4098 137.038 92.5921 137.084C92.7744 137.131 92.9102 137.174 92.9997 137.214L92.6617 138.228C92.602 138.208 92.5191 138.183 92.4131 138.153C92.3103 138.123 92.1744 138.108 92.0054 138.108C91.6176 138.108 91.3376 138.206 91.1652 138.402C90.9962 138.597 90.9117 138.884 90.9117 139.262V147.674H89.7384ZM94.2662 147.674V140.037H95.4395V147.674H94.2662ZM94.8628 138.765C94.6341 138.765 94.4369 138.687 94.2712 138.531C94.1088 138.375 94.0276 138.188 94.0276 137.969C94.0276 137.751 94.1088 137.563 94.2712 137.407C94.4369 137.252 94.6341 137.174 94.8628 137.174C95.0915 137.174 95.2871 137.252 95.4495 137.407C95.6152 137.563 95.6981 137.751 95.6981 137.969C95.6981 138.188 95.6152 138.375 95.4495 138.531C95.2871 138.687 95.0915 138.765 94.8628 138.765ZM100.691 147.833C99.9749 147.833 99.3584 147.664 98.8414 147.326C98.3243 146.988 97.9266 146.522 97.6482 145.929C97.3698 145.336 97.2306 144.658 97.2306 143.895C97.2306 143.12 97.3731 142.435 97.6581 141.842C97.9465 141.246 98.3475 140.78 98.8612 140.445C99.3783 140.107 99.9815 139.938 100.671 139.938C101.208 139.938 101.692 140.037 102.123 140.236C102.553 140.435 102.906 140.714 103.182 141.072C103.457 141.43 103.627 141.847 103.694 142.324H102.52C102.431 141.976 102.232 141.668 101.924 141.4C101.619 141.128 101.208 140.992 100.691 140.992C100.233 140.992 99.8324 141.111 99.4877 141.35C99.1463 141.585 98.8795 141.918 98.6872 142.349C98.4983 142.777 98.4039 143.279 98.4039 143.856C98.4039 144.446 98.4967 144.959 98.6823 145.397C98.8712 145.834 99.1363 146.174 99.4777 146.416C99.8224 146.658 100.227 146.779 100.691 146.779C100.996 146.779 101.272 146.726 101.521 146.62C101.77 146.514 101.98 146.361 102.152 146.162C102.325 145.964 102.447 145.725 102.52 145.447H103.694C103.627 145.897 103.463 146.303 103.201 146.665C102.943 147.023 102.6 147.308 102.172 147.52C101.748 147.729 101.254 147.833 100.691 147.833ZM105.409 147.674V140.037H106.582V147.674H105.409ZM106.005 138.765C105.777 138.765 105.58 138.687 105.414 138.531C105.251 138.375 105.17 138.188 105.17 137.969C105.17 137.751 105.251 137.563 105.414 137.407C105.58 137.252 105.777 137.174 106.005 137.174C106.234 137.174 106.43 137.252 106.592 137.407C106.758 137.563 106.841 137.751 106.841 137.969C106.841 138.188 106.758 138.375 106.592 138.531C106.43 138.687 106.234 138.765 106.005 138.765ZM110.978 147.853C110.494 147.853 110.055 147.762 109.661 147.579C109.266 147.394 108.953 147.127 108.721 146.779C108.489 146.428 108.373 146.003 108.373 145.506C108.373 145.069 108.459 144.714 108.632 144.442C108.804 144.167 109.034 143.952 109.323 143.796C109.611 143.64 109.929 143.524 110.277 143.448C110.629 143.368 110.982 143.305 111.336 143.259C111.8 143.199 112.176 143.155 112.465 143.125C112.756 143.092 112.969 143.037 113.101 142.961C113.237 142.885 113.305 142.752 113.305 142.563V142.523C113.305 142.033 113.171 141.652 112.902 141.38C112.637 141.108 112.234 140.972 111.694 140.972C111.134 140.972 110.695 141.095 110.377 141.34C110.059 141.585 109.835 141.847 109.706 142.126L108.592 141.728C108.791 141.264 109.056 140.903 109.387 140.644C109.722 140.382 110.087 140.2 110.481 140.097C110.879 139.991 111.27 139.938 111.654 139.938C111.9 139.938 112.181 139.968 112.5 140.028C112.821 140.084 113.131 140.202 113.429 140.381C113.731 140.559 113.981 140.83 114.18 141.191C114.379 141.552 114.478 142.036 114.478 142.643V147.674H113.305V146.64H113.245C113.166 146.805 113.033 146.983 112.848 147.172C112.662 147.361 112.415 147.521 112.107 147.654C111.799 147.787 111.422 147.853 110.978 147.853ZM111.157 146.799C111.621 146.799 112.012 146.708 112.331 146.525C112.652 146.343 112.894 146.108 113.056 145.819C113.222 145.531 113.305 145.228 113.305 144.91V143.836C113.255 143.895 113.146 143.95 112.977 144C112.811 144.046 112.619 144.088 112.4 144.124C112.185 144.157 111.974 144.187 111.769 144.214C111.567 144.237 111.402 144.257 111.277 144.273C110.972 144.313 110.687 144.378 110.421 144.467C110.16 144.553 109.947 144.684 109.785 144.86C109.626 145.032 109.546 145.268 109.546 145.566C109.546 145.974 109.697 146.282 109.999 146.491C110.304 146.696 110.69 146.799 111.157 146.799ZM117.793 137.492V147.674H116.62V137.492H117.793ZM125.272 137.492V147.674H124.039V137.492H125.272ZM128.758 143.08V147.674H127.585V140.037H128.718V141.231H128.818C128.997 140.843 129.268 140.531 129.633 140.296C129.997 140.057 130.468 139.938 131.045 139.938C131.562 139.938 132.014 140.044 132.402 140.256C132.79 140.465 133.091 140.783 133.307 141.211C133.522 141.635 133.63 142.172 133.63 142.822V147.674H132.457V142.901C132.457 142.301 132.301 141.834 131.989 141.499C131.678 141.161 131.25 140.992 130.707 140.992C130.332 140.992 129.997 141.073 129.703 141.236C129.411 141.398 129.18 141.635 129.011 141.947C128.842 142.258 128.758 142.636 128.758 143.08ZM139.095 140.037V141.032H135.138V140.037H139.095ZM136.291 138.208H137.464V145.486C137.464 145.818 137.512 146.066 137.609 146.232C137.708 146.394 137.834 146.504 137.986 146.56C138.142 146.613 138.306 146.64 138.479 146.64C138.608 146.64 138.714 146.633 138.797 146.62C138.88 146.603 138.946 146.59 138.996 146.58L139.234 147.634C139.155 147.664 139.044 147.694 138.901 147.724C138.759 147.757 138.578 147.773 138.359 147.773C138.028 147.773 137.703 147.702 137.385 147.559C137.07 147.417 136.808 147.2 136.599 146.908C136.394 146.617 136.291 146.249 136.291 145.805V138.208ZM143.98 147.833C143.244 147.833 142.609 147.671 142.076 147.346C141.545 147.018 141.136 146.56 140.848 145.974C140.563 145.384 140.42 144.698 140.42 143.915C140.42 143.133 140.563 142.444 140.848 141.847C141.136 141.247 141.537 140.78 142.051 140.445C142.568 140.107 143.171 139.938 143.86 139.938C144.258 139.938 144.651 140.004 145.039 140.137C145.426 140.269 145.779 140.485 146.098 140.783C146.416 141.078 146.669 141.469 146.858 141.956C147.047 142.444 147.142 143.044 147.142 143.756V144.253H141.255V143.239H145.948C145.948 142.808 145.862 142.424 145.69 142.086C145.521 141.748 145.279 141.481 144.964 141.285C144.652 141.09 144.285 140.992 143.86 140.992C143.393 140.992 142.989 141.108 142.647 141.34C142.309 141.569 142.049 141.867 141.867 142.235C141.684 142.603 141.593 142.997 141.593 143.418V144.094C141.593 144.671 141.693 145.16 141.892 145.561C142.094 145.959 142.374 146.262 142.732 146.471C143.09 146.676 143.506 146.779 143.98 146.779C144.288 146.779 144.566 146.736 144.815 146.65C145.067 146.56 145.284 146.428 145.466 146.252C145.648 146.073 145.789 145.851 145.889 145.586L147.022 145.904C146.903 146.288 146.702 146.626 146.421 146.918C146.139 147.206 145.791 147.432 145.377 147.594C144.962 147.753 144.497 147.833 143.98 147.833ZM150.1 137.492V147.674H148.926V137.492H150.1ZM153.422 137.492V147.674H152.249V137.492H153.422ZM155.571 147.674V140.037H156.744V147.674H155.571ZM156.168 138.765C155.939 138.765 155.742 138.687 155.576 138.531C155.414 138.375 155.332 138.188 155.332 137.969C155.332 137.751 155.414 137.563 155.576 137.407C155.742 137.252 155.939 137.174 156.168 137.174C156.396 137.174 156.592 137.252 156.754 137.407C156.92 137.563 157.003 137.751 157.003 137.969C157.003 138.188 156.92 138.375 156.754 138.531C156.592 138.687 156.396 138.765 156.168 138.765ZM161.976 150.697C161.409 150.697 160.922 150.624 160.514 150.478C160.106 150.335 159.767 150.146 159.495 149.911C159.226 149.679 159.013 149.43 158.853 149.165L159.788 148.509C159.894 148.648 160.028 148.807 160.191 148.986C160.353 149.169 160.575 149.326 160.857 149.459C161.142 149.595 161.515 149.662 161.976 149.662C162.592 149.662 163.101 149.513 163.502 149.215C163.903 148.917 164.103 148.449 164.103 147.813V146.262H164.004C163.918 146.401 163.795 146.573 163.636 146.779C163.48 146.981 163.255 147.162 162.96 147.321C162.668 147.477 162.274 147.555 161.777 147.555C161.16 147.555 160.607 147.409 160.116 147.117C159.629 146.825 159.243 146.401 158.958 145.844C158.676 145.287 158.535 144.611 158.535 143.816C158.535 143.034 158.673 142.353 158.948 141.773C159.223 141.189 159.606 140.738 160.096 140.42C160.587 140.099 161.154 139.938 161.797 139.938C162.294 139.938 162.688 140.021 162.98 140.187C163.275 140.349 163.5 140.535 163.656 140.743C163.815 140.949 163.938 141.118 164.024 141.251H164.143V140.037H165.277V147.893C165.277 148.549 165.128 149.082 164.829 149.493C164.534 149.908 164.137 150.211 163.636 150.403C163.139 150.599 162.585 150.697 161.976 150.697ZM161.936 146.501C162.406 146.501 162.804 146.393 163.129 146.177C163.454 145.962 163.701 145.652 163.87 145.248C164.039 144.843 164.123 144.359 164.123 143.796C164.123 143.246 164.04 142.76 163.875 142.339C163.709 141.918 163.464 141.589 163.139 141.35C162.814 141.111 162.413 140.992 161.936 140.992C161.439 140.992 161.024 141.118 160.693 141.37C160.365 141.622 160.118 141.96 159.952 142.384C159.79 142.808 159.709 143.279 159.709 143.796C159.709 144.326 159.791 144.795 159.957 145.203C160.126 145.607 160.375 145.925 160.703 146.157C161.034 146.386 161.445 146.501 161.936 146.501ZM170.626 147.833C169.89 147.833 169.256 147.671 168.722 147.346C168.192 147.018 167.782 146.56 167.494 145.974C167.209 145.384 167.066 144.698 167.066 143.915C167.066 143.133 167.209 142.444 167.494 141.847C167.782 141.247 168.183 140.78 168.697 140.445C169.214 140.107 169.817 139.938 170.507 139.938C170.905 139.938 171.297 140.004 171.685 140.137C172.073 140.269 172.426 140.485 172.744 140.783C173.062 141.078 173.316 141.469 173.505 141.956C173.694 142.444 173.788 143.044 173.788 143.756V144.253H167.902V143.239H172.595C172.595 142.808 172.509 142.424 172.336 142.086C172.167 141.748 171.925 141.481 171.611 141.285C171.299 141.09 170.931 140.992 170.507 140.992C170.04 140.992 169.635 141.108 169.294 141.34C168.956 141.569 168.696 141.867 168.513 142.235C168.331 142.603 168.24 142.997 168.24 143.418V144.094C168.24 144.671 168.339 145.16 168.538 145.561C168.74 145.959 169.02 146.262 169.378 146.471C169.736 146.676 170.152 146.779 170.626 146.779C170.934 146.779 171.213 146.736 171.461 146.65C171.713 146.56 171.93 146.428 172.113 146.252C172.295 146.073 172.436 145.851 172.535 145.586L173.669 145.904C173.549 146.288 173.349 146.626 173.067 146.918C172.785 147.206 172.437 147.432 172.023 147.594C171.609 147.753 171.143 147.833 170.626 147.833ZM176.746 143.08V147.674H175.573V140.037H176.706V141.231H176.806C176.985 140.843 177.257 140.531 177.621 140.296C177.986 140.057 178.456 139.938 179.033 139.938C179.55 139.938 180.003 140.044 180.39 140.256C180.778 140.465 181.08 140.783 181.295 141.211C181.511 141.635 181.618 142.172 181.618 142.822V147.674H180.445V142.901C180.445 142.301 180.289 141.834 179.978 141.499C179.666 141.161 179.239 140.992 178.695 140.992C178.321 140.992 177.986 141.073 177.691 141.236C177.399 141.398 177.169 141.635 177 141.947C176.831 142.258 176.746 142.636 176.746 143.08ZM186.865 147.833C186.149 147.833 185.532 147.664 185.015 147.326C184.498 146.988 184.1 146.522 183.822 145.929C183.544 145.336 183.404 144.658 183.404 143.895C183.404 143.12 183.547 142.435 183.832 141.842C184.12 141.246 184.521 140.78 185.035 140.445C185.552 140.107 186.155 139.938 186.845 139.938C187.382 139.938 187.866 140.037 188.296 140.236C188.727 140.435 189.08 140.714 189.355 141.072C189.63 141.43 189.801 141.847 189.867 142.324H188.694C188.605 141.976 188.406 141.668 188.098 141.4C187.793 141.128 187.382 140.992 186.865 140.992C186.407 140.992 186.006 141.111 185.661 141.35C185.32 141.585 185.053 141.918 184.861 142.349C184.672 142.777 184.578 143.279 184.578 143.856C184.578 144.446 184.67 144.959 184.856 145.397C185.045 145.834 185.31 146.174 185.652 146.416C185.996 146.658 186.401 146.779 186.865 146.779C187.17 146.779 187.446 146.726 187.695 146.62C187.943 146.514 188.154 146.361 188.326 146.162C188.499 145.964 188.621 145.725 188.694 145.447H189.867C189.801 145.897 189.637 146.303 189.375 146.665C189.117 147.023 188.774 147.308 188.346 147.52C187.922 147.729 187.428 147.833 186.865 147.833ZM194.784 147.833C194.049 147.833 193.414 147.671 192.88 147.346C192.35 147.018 191.941 146.56 191.652 145.974C191.367 145.384 191.225 144.698 191.225 143.915C191.225 143.133 191.367 142.444 191.652 141.847C191.941 141.247 192.342 140.78 192.855 140.445C193.372 140.107 193.976 139.938 194.665 139.938C195.063 139.938 195.456 140.004 195.843 140.137C196.231 140.269 196.584 140.485 196.902 140.783C197.22 141.078 197.474 141.469 197.663 141.956C197.852 142.444 197.946 143.044 197.946 143.756V144.253H192.06V143.239H196.753C196.753 142.808 196.667 142.424 196.495 142.086C196.326 141.748 196.084 141.481 195.769 141.285C195.457 141.09 195.089 140.992 194.665 140.992C194.198 140.992 193.793 141.108 193.452 141.34C193.114 141.569 192.854 141.867 192.671 142.235C192.489 142.603 192.398 142.997 192.398 143.418V144.094C192.398 144.671 192.497 145.16 192.696 145.561C192.898 145.959 193.179 146.262 193.536 146.471C193.894 146.676 194.31 146.779 194.784 146.779C195.093 146.779 195.371 146.736 195.62 146.65C195.871 146.56 196.089 146.428 196.271 146.252C196.453 146.073 196.594 145.851 196.693 145.586L197.827 145.904C197.708 146.288 197.507 146.626 197.225 146.918C196.944 147.206 196.596 147.432 196.181 147.594C195.767 147.753 195.301 147.833 194.784 147.833ZM206.99 140.037V141.032H203.032V140.037H206.99ZM204.186 138.208H205.359V145.486C205.359 145.818 205.407 146.066 205.503 146.232C205.603 146.394 205.728 146.504 205.881 146.56C206.037 146.613 206.201 146.64 206.373 146.64C206.502 146.64 206.608 146.633 206.691 146.62C206.774 146.603 206.84 146.59 206.89 146.58L207.129 147.634C207.049 147.664 206.938 147.694 206.796 147.724C206.653 147.757 206.473 147.773 206.254 147.773C205.922 147.773 205.598 147.702 205.279 147.559C204.965 147.417 204.703 147.2 204.494 146.908C204.288 146.617 204.186 146.249 204.186 145.805V138.208ZM211.775 147.833C211.085 147.833 210.48 147.669 209.96 147.341C209.443 147.013 209.039 146.554 208.747 145.964C208.459 145.374 208.315 144.684 208.315 143.895C208.315 143.1 208.459 142.406 208.747 141.812C209.039 141.219 209.443 140.758 209.96 140.43C210.48 140.102 211.085 139.938 211.775 139.938C212.464 139.938 213.067 140.102 213.584 140.43C214.105 140.758 214.509 141.219 214.797 141.812C215.089 142.406 215.235 143.1 215.235 143.895C215.235 144.684 215.089 145.374 214.797 145.964C214.509 146.554 214.105 147.013 213.584 147.341C213.067 147.669 212.464 147.833 211.775 147.833ZM211.775 146.779C212.298 146.779 212.729 146.645 213.067 146.376C213.405 146.108 213.656 145.755 213.818 145.317C213.98 144.88 214.062 144.406 214.062 143.895C214.062 143.385 213.98 142.909 213.818 142.469C213.656 142.028 213.405 141.671 213.067 141.4C212.729 141.128 212.298 140.992 211.775 140.992C211.251 140.992 210.82 141.128 210.482 141.4C210.144 141.671 209.894 142.028 209.731 142.469C209.569 142.909 209.488 143.385 209.488 143.895C209.488 144.406 209.569 144.88 209.731 145.317C209.894 145.755 210.144 146.108 210.482 146.376C210.82 146.645 211.251 146.779 211.775 146.779ZM224.046 150.697C223.479 150.697 222.992 150.624 222.584 150.478C222.177 150.335 221.837 150.146 221.565 149.911C221.297 149.679 221.083 149.43 220.924 149.165L221.858 148.509C221.964 148.648 222.099 148.807 222.261 148.986C222.424 149.169 222.646 149.326 222.927 149.459C223.212 149.595 223.585 149.662 224.046 149.662C224.662 149.662 225.171 149.513 225.572 149.215C225.973 148.917 226.174 148.449 226.174 147.813V146.262H226.074C225.988 146.401 225.866 146.573 225.706 146.779C225.551 146.981 225.325 147.162 225.03 147.321C224.739 147.477 224.344 147.555 223.847 147.555C223.231 147.555 222.677 147.409 222.187 147.117C221.699 146.825 221.313 146.401 221.028 145.844C220.746 145.287 220.606 144.611 220.606 143.816C220.606 143.034 220.743 142.353 221.018 141.773C221.293 141.189 221.676 140.738 222.167 140.42C222.657 140.099 223.224 139.938 223.867 139.938C224.364 139.938 224.758 140.021 225.05 140.187C225.345 140.349 225.571 140.535 225.726 140.743C225.885 140.949 226.008 141.118 226.094 141.251H226.214V140.037H227.347V147.893C227.347 148.549 227.198 149.082 226.9 149.493C226.605 149.908 226.207 150.211 225.706 150.403C225.209 150.599 224.656 150.697 224.046 150.697ZM224.006 146.501C224.477 146.501 224.874 146.393 225.199 146.177C225.524 145.962 225.771 145.652 225.94 145.248C226.109 144.843 226.194 144.359 226.194 143.796C226.194 143.246 226.111 142.76 225.945 142.339C225.779 141.918 225.534 141.589 225.209 141.35C224.884 141.111 224.483 140.992 224.006 140.992C223.509 140.992 223.095 141.118 222.763 141.37C222.435 141.622 222.188 141.96 222.022 142.384C221.86 142.808 221.779 143.279 221.779 143.796C221.779 144.326 221.862 144.795 222.027 145.203C222.196 145.607 222.445 145.925 222.773 146.157C223.105 146.386 223.516 146.501 224.006 146.501ZM232.696 147.833C231.961 147.833 231.326 147.671 230.792 147.346C230.262 147.018 229.853 146.56 229.564 145.974C229.279 145.384 229.137 144.698 229.137 143.915C229.137 143.133 229.279 142.444 229.564 141.847C229.853 141.247 230.254 140.78 230.767 140.445C231.285 140.107 231.888 139.938 232.577 139.938C232.975 139.938 233.368 140.004 233.755 140.137C234.143 140.269 234.496 140.485 234.814 140.783C235.133 141.078 235.386 141.469 235.575 141.956C235.764 142.444 235.858 143.044 235.858 143.756V144.253H229.972V143.239H234.665C234.665 142.808 234.579 142.424 234.407 142.086C234.238 141.748 233.996 141.481 233.681 141.285C233.369 141.09 233.001 140.992 232.577 140.992C232.11 140.992 231.705 141.108 231.364 141.34C231.026 141.569 230.766 141.867 230.584 142.235C230.401 142.603 230.31 142.997 230.31 143.418V144.094C230.31 144.671 230.41 145.16 230.608 145.561C230.811 145.959 231.091 146.262 231.449 146.471C231.807 146.676 232.223 146.779 232.696 146.779C233.005 146.779 233.283 146.736 233.532 146.65C233.784 146.56 234.001 146.428 234.183 146.252C234.365 146.073 234.506 145.851 234.606 145.586L235.739 145.904C235.62 146.288 235.419 146.626 235.138 146.918C234.856 147.206 234.508 147.432 234.093 147.594C233.679 147.753 233.214 147.833 232.696 147.833ZM238.816 143.08V147.674H237.643V140.037H238.777V141.231H238.876C239.055 140.843 239.327 140.531 239.691 140.296C240.056 140.057 240.527 139.938 241.103 139.938C241.62 139.938 242.073 140.044 242.461 140.256C242.848 140.465 243.15 140.783 243.366 141.211C243.581 141.635 243.689 142.172 243.689 142.822V147.674H242.515V142.901C242.515 142.301 242.36 141.834 242.048 141.499C241.736 141.161 241.309 140.992 240.765 140.992C240.391 140.992 240.056 141.073 239.761 141.236C239.469 141.398 239.239 141.635 239.07 141.947C238.901 142.258 238.816 142.636 238.816 143.08ZM249.034 147.833C248.299 147.833 247.664 147.671 247.13 147.346C246.6 147.018 246.191 146.56 245.902 145.974C245.617 145.384 245.475 144.698 245.475 143.915C245.475 143.133 245.617 142.444 245.902 141.847C246.191 141.247 246.592 140.78 247.105 140.445C247.622 140.107 248.226 139.938 248.915 139.938C249.313 139.938 249.706 140.004 250.093 140.137C250.481 140.269 250.834 140.485 251.152 140.783C251.47 141.078 251.724 141.469 251.913 141.956C252.102 142.444 252.196 143.044 252.196 143.756V144.253H246.31V143.239H251.003C251.003 142.808 250.917 142.424 250.745 142.086C250.576 141.748 250.334 141.481 250.019 141.285C249.707 141.09 249.339 140.992 248.915 140.992C248.448 140.992 248.043 141.108 247.702 141.34C247.364 141.569 247.104 141.867 246.921 142.235C246.739 142.603 246.648 142.997 246.648 143.418V144.094C246.648 144.671 246.747 145.16 246.946 145.561C247.148 145.959 247.429 146.262 247.786 146.471C248.144 146.676 248.56 146.779 249.034 146.779C249.343 146.779 249.621 146.736 249.87 146.65C250.121 146.56 250.339 146.428 250.521 146.252C250.703 146.073 250.844 145.851 250.943 145.586L252.077 145.904C251.958 146.288 251.757 146.626 251.475 146.918C251.194 147.206 250.846 147.432 250.431 147.594C250.017 147.753 249.551 147.833 249.034 147.833ZM253.981 147.674V140.037H255.115V141.191H255.194C255.333 140.813 255.585 140.506 255.95 140.271C256.314 140.036 256.725 139.918 257.183 139.918C257.269 139.918 257.377 139.92 257.506 139.923C257.635 139.926 257.733 139.931 257.799 139.938V141.131C257.759 141.121 257.668 141.106 257.526 141.086C257.387 141.063 257.239 141.052 257.083 141.052C256.712 141.052 256.381 141.13 256.089 141.285C255.801 141.438 255.572 141.65 255.403 141.922C255.237 142.19 255.154 142.497 255.154 142.841V147.674H253.981ZM261.437 147.853C260.953 147.853 260.514 147.762 260.12 147.579C259.725 147.394 259.412 147.127 259.18 146.779C258.948 146.428 258.832 146.003 258.832 145.506C258.832 145.069 258.918 144.714 259.091 144.442C259.263 144.167 259.493 143.952 259.782 143.796C260.07 143.64 260.388 143.524 260.736 143.448C261.088 143.368 261.441 143.305 261.795 143.259C262.259 143.199 262.635 143.155 262.924 143.125C263.215 143.092 263.428 143.037 263.56 142.961C263.696 142.885 263.764 142.752 263.764 142.563V142.523C263.764 142.033 263.63 141.652 263.361 141.38C263.096 141.108 262.693 140.972 262.153 140.972C261.593 140.972 261.154 141.095 260.836 141.34C260.517 141.585 260.294 141.847 260.165 142.126L259.051 141.728C259.25 141.264 259.515 140.903 259.846 140.644C260.181 140.382 260.546 140.2 260.94 140.097C261.338 139.991 261.729 139.938 262.113 139.938C262.359 139.938 262.64 139.968 262.959 140.028C263.28 140.084 263.59 140.202 263.888 140.381C264.19 140.559 264.44 140.83 264.639 141.191C264.838 141.552 264.937 142.036 264.937 142.643V147.674H263.764V146.64H263.704C263.625 146.805 263.492 146.983 263.307 147.172C263.121 147.361 262.874 147.521 262.566 147.654C262.258 147.787 261.881 147.853 261.437 147.853ZM261.616 146.799C262.08 146.799 262.471 146.708 262.79 146.525C263.111 146.343 263.353 146.108 263.515 145.819C263.681 145.531 263.764 145.228 263.764 144.91V143.836C263.714 143.895 263.605 143.95 263.436 144C263.27 144.046 263.078 144.088 262.859 144.124C262.644 144.157 262.433 144.187 262.228 144.214C262.026 144.237 261.861 144.257 261.736 144.273C261.431 144.313 261.146 144.378 260.88 144.467C260.619 144.553 260.406 144.684 260.244 144.86C260.085 145.032 260.005 145.268 260.005 145.566C260.005 145.974 260.156 146.282 260.458 146.491C260.763 146.696 261.149 146.799 261.616 146.799ZM270.4 140.037V141.032H266.442V140.037H270.4ZM267.596 138.208H268.769V145.486C268.769 145.818 268.817 146.066 268.913 146.232C269.013 146.394 269.139 146.504 269.291 146.56C269.447 146.613 269.611 146.64 269.783 146.64C269.913 146.64 270.019 146.633 270.101 146.62C270.184 146.603 270.251 146.59 270.3 146.58L270.539 147.634C270.459 147.664 270.348 147.694 270.206 147.724C270.063 147.757 269.883 147.773 269.664 147.773C269.333 147.773 269.008 147.702 268.69 147.559C268.375 147.417 268.113 147.2 267.904 146.908C267.699 146.617 267.596 146.249 267.596 145.805V138.208ZM275.284 147.833C274.549 147.833 273.914 147.671 273.38 147.346C272.85 147.018 272.441 146.56 272.152 145.974C271.867 145.384 271.725 144.698 271.725 143.915C271.725 143.133 271.867 142.444 272.152 141.847C272.441 141.247 272.842 140.78 273.355 140.445C273.872 140.107 274.476 139.938 275.165 139.938C275.563 139.938 275.956 140.004 276.343 140.137C276.731 140.269 277.084 140.485 277.402 140.783C277.72 141.078 277.974 141.469 278.163 141.956C278.352 142.444 278.446 143.044 278.446 143.756V144.253H272.56V143.239H277.253C277.253 142.808 277.167 142.424 276.995 142.086C276.826 141.748 276.584 141.481 276.269 141.285C275.957 141.09 275.589 140.992 275.165 140.992C274.698 140.992 274.293 141.108 273.952 141.34C273.614 141.569 273.354 141.867 273.171 142.235C272.989 142.603 272.898 142.997 272.898 143.418V144.094C272.898 144.671 272.997 145.16 273.196 145.561C273.398 145.959 273.679 146.262 274.036 146.471C274.394 146.676 274.81 146.779 275.284 146.779C275.593 146.779 275.871 146.736 276.12 146.65C276.371 146.56 276.589 146.428 276.771 146.252C276.953 146.073 277.094 145.851 277.193 145.586L278.327 145.904C278.208 146.288 278.007 146.626 277.725 146.918C277.444 147.206 277.096 147.432 276.681 147.594C276.267 147.753 275.801 147.833 275.284 147.833ZM288.981 144.552V140.037H290.154V147.674H288.981V146.381H288.902C288.723 146.769 288.444 147.099 288.066 147.371C287.688 147.639 287.211 147.773 286.634 147.773C286.157 147.773 285.733 147.669 285.362 147.46C284.991 147.248 284.699 146.93 284.487 146.506C284.275 146.078 284.169 145.539 284.169 144.89V140.037H285.342V144.81C285.342 145.367 285.498 145.811 285.809 146.143C286.124 146.474 286.525 146.64 287.012 146.64C287.304 146.64 287.601 146.565 287.902 146.416C288.207 146.267 288.462 146.038 288.668 145.73C288.877 145.422 288.981 145.029 288.981 144.552ZM293.477 143.08V147.674H292.303V140.037H293.437V141.231H293.536C293.715 140.843 293.987 140.531 294.352 140.296C294.716 140.057 295.187 139.938 295.764 139.938C296.281 139.938 296.733 140.044 297.121 140.256C297.509 140.465 297.81 140.783 298.026 141.211C298.241 141.635 298.349 142.172 298.349 142.822V147.674H297.176V142.901C297.176 142.301 297.02 141.834 296.708 141.499C296.397 141.161 295.969 140.992 295.426 140.992C295.051 140.992 294.716 141.073 294.421 141.236C294.13 141.398 293.899 141.635 293.73 141.947C293.561 142.258 293.477 142.636 293.477 143.08ZM300.493 147.674V140.037H301.666V147.674H300.493ZM301.089 138.765C300.861 138.765 300.664 138.687 300.498 138.531C300.335 138.375 300.254 138.188 300.254 137.969C300.254 137.751 300.335 137.563 300.498 137.407C300.664 137.252 300.861 137.174 301.089 137.174C301.318 137.174 301.514 137.252 301.676 137.407C301.842 137.563 301.925 137.751 301.925 137.969C301.925 138.188 301.842 138.375 301.676 138.531C301.514 138.687 301.318 138.765 301.089 138.765ZM309.025 150.537V146.501H308.926C308.84 146.64 308.717 146.815 308.558 147.028C308.399 147.236 308.172 147.424 307.877 147.589C307.582 147.752 307.189 147.833 306.699 147.833C306.062 147.833 305.5 147.672 305.013 147.351C304.526 147.026 304.145 146.568 303.87 145.979C303.595 145.385 303.457 144.684 303.457 143.876C303.457 143.073 303.595 142.377 303.87 141.787C304.145 141.198 304.528 140.742 305.018 140.42C305.509 140.099 306.075 139.938 306.718 139.938C307.216 139.938 307.608 140.021 307.897 140.187C308.188 140.349 308.41 140.535 308.563 140.743C308.719 140.949 308.84 141.118 308.926 141.251H309.065V140.037H310.199V150.537H309.025ZM306.858 146.779C307.328 146.779 307.726 146.656 308.051 146.411C308.376 146.162 308.623 145.819 308.792 145.382C308.961 144.941 309.045 144.432 309.045 143.856C309.045 143.286 308.962 142.787 308.797 142.359C308.631 141.928 308.386 141.594 308.061 141.355C307.736 141.113 307.335 140.992 306.858 140.992C306.361 140.992 305.946 141.12 305.615 141.375C305.287 141.627 305.04 141.97 304.874 142.404C304.712 142.835 304.63 143.319 304.63 143.856C304.63 144.399 304.713 144.893 304.879 145.337C305.048 145.778 305.297 146.129 305.625 146.391C305.956 146.65 306.367 146.779 306.858 146.779ZM317.159 144.552V140.037H318.332V147.674H317.159V146.381H317.079C316.9 146.769 316.622 147.099 316.244 147.371C315.866 147.639 315.389 147.773 314.812 147.773C314.335 147.773 313.911 147.669 313.54 147.46C313.168 147.248 312.877 146.93 312.665 146.506C312.452 146.078 312.346 145.539 312.346 144.89V140.037H313.52V144.81C313.52 145.367 313.675 145.811 313.987 146.143C314.302 146.474 314.703 146.64 315.19 146.64C315.482 146.64 315.778 146.565 316.08 146.416C316.385 146.267 316.64 146.038 316.846 145.73C317.054 145.422 317.159 145.029 317.159 144.552ZM323.683 147.833C322.947 147.833 322.312 147.671 321.779 147.346C321.248 147.018 320.839 146.56 320.551 145.974C320.266 145.384 320.123 144.698 320.123 143.915C320.123 143.133 320.266 142.444 320.551 141.847C320.839 141.247 321.24 140.78 321.754 140.445C322.271 140.107 322.874 139.938 323.563 139.938C323.961 139.938 324.354 140.004 324.742 140.137C325.13 140.269 325.483 140.485 325.801 140.783C326.119 141.078 326.372 141.469 326.561 141.956C326.75 142.444 326.845 143.044 326.845 143.756V144.253H320.958V143.239H325.652C325.652 142.808 325.565 142.424 325.393 142.086C325.224 141.748 324.982 141.481 324.667 141.285C324.356 141.09 323.988 140.992 323.563 140.992C323.096 140.992 322.692 141.108 322.35 141.34C322.012 141.569 321.752 141.867 321.57 142.235C321.388 142.603 321.296 142.997 321.296 143.418V144.094C321.296 144.671 321.396 145.16 321.595 145.561C321.797 145.959 322.077 146.262 322.435 146.471C322.793 146.676 323.209 146.779 323.683 146.779C323.991 146.779 324.269 146.736 324.518 146.65C324.77 146.56 324.987 146.428 325.169 146.252C325.352 146.073 325.492 145.851 325.592 145.586L326.725 145.904C326.606 146.288 326.406 146.626 326.124 146.918C325.842 147.206 325.494 147.432 325.08 147.594C324.666 147.753 324.2 147.833 323.683 147.833ZM68.767 171.833C68.051 171.833 67.4346 171.664 66.9175 171.326C66.4005 170.988 66.0028 170.522 65.7243 169.929C65.4459 169.336 65.3067 168.658 65.3067 167.895C65.3067 167.12 65.4492 166.435 65.7343 165.842C66.0226 165.246 66.4237 164.78 66.9374 164.445C67.4545 164.107 68.0577 163.938 68.7471 163.938C69.284 163.938 69.7679 164.037 70.1988 164.236C70.6296 164.435 70.9826 164.714 71.2577 165.072C71.5328 165.43 71.7035 165.847 71.7698 166.324H70.5965C70.507 165.976 70.3082 165.668 69.9999 165.4C69.695 165.128 69.284 164.992 68.767 164.992C68.3096 164.992 67.9085 165.111 67.5638 165.35C67.2224 165.585 66.9556 165.918 66.7634 166.349C66.5745 166.777 66.48 167.279 66.48 167.856C66.48 168.446 66.5728 168.959 66.7584 169.397C66.9474 169.834 67.2125 170.174 67.5539 170.416C67.8986 170.658 68.3029 170.779 68.767 170.779C69.0719 170.779 69.3486 170.726 69.5972 170.62C69.8458 170.514 70.0563 170.361 70.2286 170.162C70.401 169.964 70.5236 169.725 70.5965 169.447H71.7698C71.7035 169.897 71.5394 170.303 71.2776 170.665C71.0191 171.023 70.676 171.308 70.2485 171.52C69.8242 171.729 69.3304 171.833 68.767 171.833ZM76.5873 171.833C75.8979 171.833 75.293 171.669 74.7726 171.341C74.2556 171.013 73.8512 170.554 73.5596 169.964C73.2712 169.374 73.127 168.684 73.127 167.895C73.127 167.1 73.2712 166.406 73.5596 165.812C73.8512 165.219 74.2556 164.758 74.7726 164.43C75.293 164.102 75.8979 163.938 76.5873 163.938C77.2767 163.938 77.8799 164.102 78.3969 164.43C78.9173 164.758 79.3216 165.219 79.61 165.812C79.9017 166.406 80.0475 167.1 80.0475 167.895C80.0475 168.684 79.9017 169.374 79.61 169.964C79.3216 170.554 78.9173 171.013 78.3969 171.341C77.8799 171.669 77.2767 171.833 76.5873 171.833ZM76.5873 170.779C77.1109 170.779 77.5418 170.645 77.8799 170.376C78.218 170.108 78.4682 169.755 78.6306 169.317C78.793 168.88 78.8742 168.406 78.8742 167.895C78.8742 167.385 78.793 166.909 78.6306 166.469C78.4682 166.028 78.218 165.671 77.8799 165.4C77.5418 165.128 77.1109 164.992 76.5873 164.992C76.0636 164.992 75.6327 165.128 75.2947 165.4C74.9566 165.671 74.7064 166.028 74.5439 166.469C74.3815 166.909 74.3003 167.385 74.3003 167.895C74.3003 168.406 74.3815 168.88 74.5439 169.317C74.7064 169.755 74.9566 170.108 75.2947 170.376C75.6327 170.645 76.0636 170.779 76.5873 170.779ZM83.0118 167.08V171.674H81.8385V164.037H82.972V165.231H83.0715C83.2504 164.843 83.5222 164.531 83.8868 164.296C84.2514 164.057 84.722 163.938 85.2987 163.938C85.8158 163.938 86.2682 164.044 86.656 164.256C87.0438 164.465 87.3454 164.783 87.5608 165.211C87.7762 165.635 87.884 166.172 87.884 166.822V171.674H86.7107V166.901C86.7107 166.301 86.5549 165.834 86.2433 165.499C85.9318 165.161 85.5042 164.992 84.9607 164.992C84.5861 164.992 84.2514 165.073 83.9564 165.236C83.6647 165.398 83.4344 165.635 83.2654 165.947C83.0963 166.258 83.0118 166.636 83.0118 167.08ZM93.349 164.037V165.032H89.3916V164.037H93.349ZM90.545 162.208H91.7183V169.486C91.7183 169.818 91.7664 170.066 91.8625 170.232C91.9619 170.394 92.0879 170.504 92.2403 170.56C92.3961 170.613 92.5602 170.64 92.7325 170.64C92.8618 170.64 92.9678 170.633 93.0507 170.62C93.1336 170.603 93.1998 170.59 93.2496 170.58L93.4882 171.634C93.4086 171.664 93.2976 171.694 93.1551 171.724C93.0126 171.757 92.8319 171.773 92.6132 171.773C92.2818 171.773 91.9569 171.702 91.6388 171.559C91.3239 171.417 91.0621 171.2 90.8532 170.908C90.6478 170.617 90.545 170.249 90.545 169.805V162.208ZM98.2336 171.833C97.4978 171.833 96.8631 171.671 96.3295 171.346C95.7992 171.018 95.3898 170.56 95.1015 169.974C94.8164 169.384 94.6739 168.698 94.6739 167.915C94.6739 167.133 94.8164 166.444 95.1015 165.847C95.3898 165.247 95.7909 164.78 96.3046 164.445C96.8216 164.107 97.4249 163.938 98.1143 163.938C98.512 163.938 98.9047 164.004 99.2925 164.137C99.6803 164.269 100.033 164.485 100.351 164.783C100.67 165.078 100.923 165.469 101.112 165.956C101.301 166.444 101.396 167.044 101.396 167.756V168.253H95.5091V167.239H100.202C100.202 166.808 100.116 166.424 99.9438 166.086C99.7748 165.748 99.5328 165.481 99.218 165.285C98.9064 165.09 98.5385 164.992 98.1143 164.992C97.6469 164.992 97.2426 165.108 96.9012 165.34C96.5631 165.569 96.3029 165.867 96.1206 166.235C95.9384 166.603 95.8472 166.997 95.8472 167.418V168.094C95.8472 168.671 95.9466 169.16 96.1455 169.561C96.3477 169.959 96.6278 170.262 96.9857 170.471C97.3437 170.676 97.7596 170.779 98.2336 170.779C98.5418 170.779 98.8202 170.736 99.0688 170.65C99.3207 170.56 99.5378 170.428 99.7201 170.252C99.9024 170.073 100.043 169.851 100.143 169.586L101.276 169.904C101.157 170.288 100.956 170.626 100.675 170.918C100.393 171.206 100.045 171.432 99.6306 171.594C99.2163 171.753 98.7506 171.833 98.2336 171.833ZM104.354 167.08V171.674H103.18V164.037H104.314V165.231H104.413C104.592 164.843 104.864 164.531 105.229 164.296C105.593 164.057 106.064 163.938 106.641 163.938C107.158 163.938 107.61 164.044 107.998 164.256C108.386 164.465 108.687 164.783 108.903 165.211C109.118 165.635 109.226 166.172 109.226 166.822V171.674H108.052V166.901C108.052 166.301 107.897 165.834 107.585 165.499C107.274 165.161 106.846 164.992 106.302 164.992C105.928 164.992 105.593 165.073 105.298 165.236C105.007 165.398 104.776 165.635 104.607 165.947C104.438 166.258 104.354 166.636 104.354 167.08ZM114.691 164.037V165.032H110.733V164.037H114.691ZM111.887 162.208H113.06V169.486C113.06 169.818 113.108 170.066 113.204 170.232C113.304 170.394 113.43 170.504 113.582 170.56C113.738 170.613 113.902 170.64 114.074 170.64C114.204 170.64 114.31 170.633 114.392 170.62C114.475 170.603 114.542 170.59 114.591 170.58L114.83 171.634C114.75 171.664 114.639 171.694 114.497 171.724C114.354 171.757 114.174 171.773 113.955 171.773C113.624 171.773 113.299 171.702 112.981 171.559C112.666 171.417 112.404 171.2 112.195 170.908C111.99 170.617 111.887 170.249 111.887 169.805V162.208ZM123.794 164.037V165.032H119.677V164.037H123.794ZM120.91 171.674V162.983C120.91 162.546 121.013 162.181 121.218 161.89C121.424 161.598 121.691 161.379 122.019 161.233C122.347 161.088 122.693 161.015 123.058 161.015C123.346 161.015 123.582 161.038 123.764 161.084C123.946 161.131 124.082 161.174 124.172 161.214L123.834 162.228C123.774 162.208 123.691 162.183 123.585 162.153C123.482 162.123 123.346 162.108 123.177 162.108C122.79 162.108 122.509 162.206 122.337 162.402C122.168 162.597 122.084 162.884 122.084 163.262V171.674H120.91ZM128.226 171.833C127.537 171.833 126.932 171.669 126.411 171.341C125.894 171.013 125.49 170.554 125.198 169.964C124.91 169.374 124.766 168.684 124.766 167.895C124.766 167.1 124.91 166.406 125.198 165.812C125.49 165.219 125.894 164.758 126.411 164.43C126.932 164.102 127.537 163.938 128.226 163.938C128.915 163.938 129.519 164.102 130.036 164.43C130.556 164.758 130.96 165.219 131.249 165.812C131.54 166.406 131.686 167.1 131.686 167.895C131.686 168.684 131.54 169.374 131.249 169.964C130.96 170.554 130.556 171.013 130.036 171.341C129.519 171.669 128.915 171.833 128.226 171.833ZM128.226 170.779C128.75 170.779 129.18 170.645 129.519 170.376C129.857 170.108 130.107 169.755 130.269 169.317C130.432 168.88 130.513 168.406 130.513 167.895C130.513 167.385 130.432 166.909 130.269 166.469C130.107 166.028 129.857 165.671 129.519 165.4C129.18 165.128 128.75 164.992 128.226 164.992C127.702 164.992 127.271 165.128 126.933 165.4C126.595 165.671 126.345 166.028 126.183 166.469C126.02 166.909 125.939 167.385 125.939 167.895C125.939 168.406 126.02 168.88 126.183 169.317C126.345 169.755 126.595 170.108 126.933 170.376C127.271 170.645 127.702 170.779 128.226 170.779ZM133.477 171.674V164.037H134.611V165.191H134.69C134.829 164.813 135.081 164.506 135.446 164.271C135.811 164.036 136.222 163.918 136.679 163.918C136.765 163.918 136.873 163.92 137.002 163.923C137.131 163.926 137.229 163.931 137.295 163.938V165.131C137.256 165.121 137.164 165.106 137.022 165.086C136.883 165.063 136.735 165.052 136.579 165.052C136.208 165.052 135.877 165.13 135.585 165.285C135.297 165.438 135.068 165.65 134.899 165.922C134.733 166.19 134.65 166.497 134.65 166.841V171.674H133.477ZM143.379 174.537C143.18 174.537 143.003 174.521 142.847 174.488C142.692 174.458 142.584 174.428 142.524 174.398L142.823 173.364C143.108 173.437 143.359 173.464 143.578 173.444C143.797 173.424 143.991 173.326 144.16 173.15C144.332 172.978 144.49 172.698 144.632 172.31L144.851 171.714L142.027 164.037H143.3L145.408 170.123H145.487L147.595 164.037H148.868L145.627 172.787C145.481 173.182 145.3 173.508 145.085 173.767C144.869 174.029 144.619 174.223 144.334 174.349C144.052 174.474 143.734 174.537 143.379 174.537ZM153.245 171.833C152.556 171.833 151.951 171.669 151.431 171.341C150.914 171.013 150.509 170.554 150.218 169.964C149.929 169.374 149.785 168.684 149.785 167.895C149.785 167.1 149.929 166.406 150.218 165.812C150.509 165.219 150.914 164.758 151.431 164.43C151.951 164.102 152.556 163.938 153.245 163.938C153.935 163.938 154.538 164.102 155.055 164.43C155.575 164.758 155.98 165.219 156.268 165.812C156.56 166.406 156.706 167.1 156.706 167.895C156.706 168.684 156.56 169.374 156.268 169.964C155.98 170.554 155.575 171.013 155.055 171.341C154.538 171.669 153.935 171.833 153.245 171.833ZM153.245 170.779C153.769 170.779 154.2 170.645 154.538 170.376C154.876 170.108 155.126 169.755 155.289 169.317C155.451 168.88 155.532 168.406 155.532 167.895C155.532 167.385 155.451 166.909 155.289 166.469C155.126 166.028 154.876 165.671 154.538 165.4C154.2 165.128 153.769 164.992 153.245 164.992C152.722 164.992 152.291 165.128 151.953 165.4C151.615 165.671 151.365 166.028 151.202 166.469C151.04 166.909 150.959 167.385 150.959 167.895C150.959 168.406 151.04 168.88 151.202 169.317C151.365 169.755 151.615 170.108 151.953 170.376C152.291 170.645 152.722 170.779 153.245 170.779ZM163.309 168.552V164.037H164.483V171.674H163.309V170.381H163.23C163.051 170.769 162.772 171.099 162.394 171.371C162.017 171.639 161.539 171.773 160.963 171.773C160.485 171.773 160.061 171.669 159.69 171.46C159.319 171.248 159.027 170.93 158.815 170.506C158.603 170.078 158.497 169.539 158.497 168.89V164.037H159.67V168.81C159.67 169.367 159.826 169.811 160.137 170.143C160.452 170.474 160.853 170.64 161.34 170.64C161.632 170.64 161.929 170.565 162.23 170.416C162.535 170.267 162.791 170.038 162.996 169.73C163.205 169.422 163.309 169.029 163.309 168.552ZM166.631 171.674V164.037H167.765V165.191H167.845C167.984 164.813 168.236 164.506 168.6 164.271C168.965 164.036 169.376 163.918 169.833 163.918C169.919 163.918 170.027 163.92 170.156 163.923C170.286 163.926 170.383 163.931 170.45 163.938V165.131C170.41 165.121 170.319 165.106 170.176 165.086C170.037 165.063 169.89 165.052 169.734 165.052C169.363 165.052 169.031 165.13 168.739 165.285C168.451 165.438 168.222 165.65 168.053 165.922C167.888 166.19 167.805 166.497 167.805 166.841V171.674H166.631ZM177.508 171.674L175.181 164.037H176.414L178.065 169.884H178.144L179.775 164.037H181.028L182.639 169.864H182.718L184.369 164.037H185.602L183.275 171.674H182.122L180.451 165.807H180.332L178.661 171.674H177.508ZM190.095 171.833C189.359 171.833 188.724 171.671 188.191 171.346C187.66 171.018 187.251 170.56 186.963 169.974C186.678 169.384 186.535 168.698 186.535 167.915C186.535 167.133 186.678 166.444 186.963 165.847C187.251 165.247 187.652 164.78 188.166 164.445C188.683 164.107 189.286 163.938 189.976 163.938C190.373 163.938 190.766 164.004 191.154 164.137C191.542 164.269 191.895 164.485 192.213 164.783C192.531 165.078 192.785 165.469 192.973 165.956C193.162 166.444 193.257 167.044 193.257 167.756V168.253H187.37V167.239H192.064C192.064 166.808 191.977 166.424 191.805 166.086C191.636 165.748 191.394 165.481 191.079 165.285C190.768 165.09 190.4 164.992 189.976 164.992C189.508 164.992 189.104 165.108 188.763 165.34C188.424 165.569 188.164 165.867 187.982 166.235C187.8 166.603 187.709 166.997 187.709 167.418V168.094C187.709 168.671 187.808 169.16 188.007 169.561C188.209 169.959 188.489 170.262 188.847 170.471C189.205 170.676 189.621 170.779 190.095 170.779C190.403 170.779 190.682 170.736 190.93 170.65C191.182 170.56 191.399 170.428 191.581 170.252C191.764 170.073 191.905 169.851 192.004 169.586L193.138 169.904C193.018 170.288 192.818 170.626 192.536 170.918C192.254 171.206 191.906 171.432 191.492 171.594C191.078 171.753 190.612 171.833 190.095 171.833ZM195.201 171.674V161.492H196.374V165.251H196.473C196.56 165.118 196.679 164.949 196.831 164.743C196.987 164.535 197.209 164.349 197.498 164.187C197.789 164.021 198.184 163.938 198.681 163.938C199.324 163.938 199.891 164.099 200.381 164.42C200.872 164.742 201.254 165.198 201.53 165.787C201.805 166.377 201.942 167.073 201.942 167.876C201.942 168.684 201.805 169.385 201.53 169.979C201.254 170.568 200.873 171.026 200.386 171.351C199.899 171.672 199.337 171.833 198.701 171.833C198.21 171.833 197.817 171.752 197.522 171.589C197.227 171.424 197 171.236 196.841 171.028C196.682 170.815 196.56 170.64 196.473 170.501H196.334V171.674H195.201ZM196.354 167.856C196.354 168.432 196.439 168.941 196.608 169.382C196.777 169.819 197.024 170.162 197.348 170.411C197.673 170.656 198.071 170.779 198.542 170.779C199.032 170.779 199.441 170.65 199.77 170.391C200.101 170.129 200.35 169.778 200.515 169.337C200.684 168.893 200.769 168.399 200.769 167.856C200.769 167.319 200.686 166.835 200.52 166.404C200.358 165.97 200.111 165.627 199.78 165.375C199.451 165.12 199.039 164.992 198.542 164.992C198.064 164.992 197.663 165.113 197.339 165.355C197.014 165.594 196.768 165.928 196.603 166.359C196.437 166.787 196.354 167.286 196.354 167.856ZM209.146 165.748L208.092 166.046C208.026 165.87 207.928 165.7 207.799 165.534C207.673 165.365 207.5 165.226 207.282 165.116C207.063 165.007 206.783 164.952 206.441 164.952C205.974 164.952 205.585 165.06 205.273 165.275C204.965 165.488 204.811 165.758 204.811 166.086C204.811 166.377 204.917 166.608 205.129 166.777C205.341 166.946 205.673 167.087 206.123 167.199L207.257 167.478C207.94 167.644 208.448 167.897 208.783 168.238C209.118 168.577 209.285 169.012 209.285 169.546C209.285 169.983 209.159 170.375 208.907 170.719C208.659 171.064 208.311 171.336 207.863 171.535C207.416 171.733 206.896 171.833 206.302 171.833C205.523 171.833 204.879 171.664 204.368 171.326C203.858 170.988 203.535 170.494 203.399 169.844L204.513 169.566C204.619 169.977 204.819 170.285 205.114 170.491C205.412 170.696 205.802 170.799 206.282 170.799C206.829 170.799 207.263 170.683 207.585 170.451C207.91 170.215 208.072 169.934 208.072 169.606C208.072 169.34 207.979 169.118 207.794 168.939C207.608 168.757 207.323 168.621 206.939 168.532L205.666 168.233C204.967 168.068 204.453 167.811 204.125 167.463C203.8 167.112 203.638 166.672 203.638 166.145C203.638 165.715 203.758 165.333 204 165.002C204.246 164.671 204.579 164.41 205 164.221C205.424 164.032 205.905 163.938 206.441 163.938C207.197 163.938 207.79 164.104 208.221 164.435C208.656 164.767 208.964 165.204 209.146 165.748ZM211.051 171.674V164.037H212.225V171.674H211.051ZM211.648 162.765C211.419 162.765 211.222 162.687 211.056 162.531C210.894 162.375 210.813 162.188 210.813 161.969C210.813 161.751 210.894 161.563 211.056 161.407C211.222 161.252 211.419 161.174 211.648 161.174C211.877 161.174 212.072 161.252 212.235 161.407C212.4 161.563 212.483 161.751 212.483 161.969C212.483 162.188 212.4 162.375 212.235 162.531C212.072 162.687 211.877 162.765 211.648 162.765ZM217.695 164.037V165.032H213.737V164.037H217.695ZM214.891 162.208H216.064V169.486C216.064 169.818 216.112 170.066 216.208 170.232C216.308 170.394 216.434 170.504 216.586 170.56C216.742 170.613 216.906 170.64 217.078 170.64C217.207 170.64 217.314 170.633 217.396 170.62C217.479 170.603 217.546 170.59 217.595 170.58L217.834 171.634C217.754 171.664 217.643 171.694 217.501 171.724C217.358 171.757 217.178 171.773 216.959 171.773C216.627 171.773 216.303 171.702 215.984 171.559C215.67 171.417 215.408 171.2 215.199 170.908C214.993 170.617 214.891 170.249 214.891 169.805V162.208ZM222.579 171.833C221.843 171.833 221.209 171.671 220.675 171.346C220.145 171.018 219.736 170.56 219.447 169.974C219.162 169.384 219.02 168.698 219.02 167.915C219.02 167.133 219.162 166.444 219.447 165.847C219.736 165.247 220.137 164.78 220.65 164.445C221.167 164.107 221.771 163.938 222.46 163.938C222.858 163.938 223.25 164.004 223.638 164.137C224.026 164.269 224.379 164.485 224.697 164.783C225.015 165.078 225.269 165.469 225.458 165.956C225.647 166.444 225.741 167.044 225.741 167.756V168.253H219.855V167.239H224.548C224.548 166.808 224.462 166.424 224.29 166.086C224.12 165.748 223.879 165.481 223.564 165.285C223.252 165.09 222.884 164.992 222.46 164.992C221.993 164.992 221.588 165.108 221.247 165.34C220.909 165.569 220.649 165.867 220.466 166.235C220.284 166.603 220.193 166.997 220.193 167.418V168.094C220.193 168.671 220.292 169.16 220.491 169.561C220.693 169.959 220.973 170.262 221.331 170.471C221.689 170.676 222.105 170.779 222.579 170.779C222.888 170.779 223.166 170.736 223.415 170.65C223.666 170.56 223.883 170.428 224.066 170.252C224.248 170.073 224.389 169.851 224.488 169.586L225.622 169.904C225.503 170.288 225.302 170.626 225.02 170.918C224.739 171.206 224.391 171.432 223.976 171.594C223.562 171.753 223.096 171.833 222.579 171.833Z" fill="#222A2F"/>
<path d="M67.5631 103.161H65.0319L69.6405 90.0697H72.5681L77.1832 103.161H74.6519L71.1555 92.7544H71.0532L67.5631 103.161ZM67.6462 98.0278H74.5496V99.9327H67.6462V98.0278ZM81.1191 90.0697V103.161H78.8051V90.0697H81.1191ZM90.8206 103.161L87.126 90.0697H89.6764L92.0351 99.6898H92.1565L94.675 90.0697H96.9953L99.5202 99.6962H99.6352L101.994 90.0697H104.544L100.85 103.161H98.5102L95.8895 93.9753H95.7872L93.1601 103.161H90.8206ZM105.471 103.161V93.3425H107.715V94.9788H107.817C107.996 94.4121 108.303 93.9753 108.737 93.6685C109.176 93.3574 109.677 93.2018 110.24 93.2018C110.367 93.2018 110.51 93.2082 110.668 93.221C110.83 93.2295 110.964 93.2445 111.071 93.2658V95.3943C110.973 95.3602 110.817 95.3304 110.604 95.3048C110.395 95.275 110.193 95.2601 109.997 95.2601C109.575 95.2601 109.196 95.3517 108.859 95.5349C108.527 95.7139 108.264 95.9632 108.073 96.2828C107.881 96.6024 107.785 96.971 107.785 97.3886V103.161H105.471ZM112.608 103.161V93.3425H114.922V103.161H112.608ZM113.771 91.949C113.405 91.949 113.089 91.8275 112.825 91.5846C112.561 91.3375 112.429 91.0413 112.429 90.6962C112.429 90.3467 112.561 90.0506 112.825 89.8077C113.089 89.5605 113.405 89.4369 113.771 89.4369C114.142 89.4369 114.457 89.5605 114.717 89.8077C114.981 90.0506 115.114 90.3467 115.114 90.6962C115.114 91.0413 114.981 91.3375 114.717 91.5846C114.457 91.8275 114.142 91.949 113.771 91.949ZM122.204 93.3425V95.1322H116.56V93.3425H122.204ZM117.953 90.9902H120.267V100.208C120.267 100.519 120.314 100.757 120.408 100.923C120.506 101.085 120.634 101.196 120.791 101.256C120.949 101.315 121.124 101.345 121.315 101.345C121.46 101.345 121.592 101.335 121.712 101.313C121.835 101.292 121.929 101.273 121.993 101.256L122.383 103.065C122.259 103.107 122.082 103.154 121.852 103.205C121.627 103.257 121.35 103.286 121.021 103.295C120.442 103.312 119.92 103.225 119.455 103.033C118.991 102.837 118.622 102.534 118.35 102.125C118.081 101.716 117.949 101.205 117.953 100.591V90.9902ZM128.38 103.352C127.396 103.352 126.546 103.148 125.83 102.739C125.118 102.325 124.571 101.742 124.187 100.987C123.804 100.229 123.612 99.3361 123.612 98.3091C123.612 97.2991 123.804 96.4128 124.187 95.65C124.575 94.8829 125.116 94.2864 125.811 93.8602C126.505 93.4298 127.321 93.2146 128.259 93.2146C128.864 93.2146 129.435 93.3126 129.972 93.5087C130.513 93.7004 130.99 93.9987 131.404 94.4035C131.821 94.8084 132.149 95.324 132.388 95.9504C132.627 96.5726 132.746 97.3141 132.746 98.1748V98.8844H124.698V97.3247H130.528C130.524 96.8815 130.428 96.4873 130.24 96.1422C130.053 95.7927 129.791 95.5179 129.454 95.3176C129.122 95.1173 128.734 95.0172 128.291 95.0172C127.818 95.0172 127.402 95.1322 127.044 95.3623C126.686 95.5882 126.407 95.8865 126.207 96.2572C126.011 96.6237 125.911 97.0264 125.907 97.4653V98.8268C125.907 99.3979 126.011 99.8879 126.22 100.297C126.429 100.702 126.72 101.013 127.095 101.23C127.47 101.443 127.909 101.55 128.412 101.55C128.749 101.55 129.054 101.503 129.326 101.409C129.599 101.311 129.835 101.168 130.036 100.981C130.236 100.793 130.387 100.561 130.49 100.284L132.65 100.527C132.514 101.098 132.254 101.597 131.87 102.023C131.491 102.445 131.005 102.773 130.413 103.007C129.821 103.237 129.143 103.352 128.38 103.352Z" fill="#FE7747"/>
<rect x="357.336" y="84.4751" width="25.9819" height="25.9819" rx="3.25" stroke="#FE7747" stroke-width="1.5"/>
<path d="M376.446 93.7808L367.929 102.297L363.671 98.039" stroke="#FE7747" stroke-width="1.5" stroke-linecap="round" stroke-linejoin="round"/>
<defs>
<filter id="filter0_d_73_737" x="0.398926" y="0.601074" width="453.585" height="271.518" filterUnits="userSpaceOnUse" color-interpolation-filters="sRGB">
<feFlood flood-opacity="0" result="BackgroundImageFix"/>
<feColorMatrix in="SourceAlpha" type="matrix" values="0 0 0 0 0 0 0 0 0 0 0 0 0 0 0 0 0 0 127 0" result="hardAlpha"/>
<feMorphology radius="4" operator="erode" in="SourceAlpha" result="effect1_dropShadow_73_737"/>
<feOffset dy="20"/>
<feGaussianBlur stdDeviation="21.5"/>
<feComposite in2="hardAlpha" operator="out"/>
<feColorMatrix type="matrix" values="0 0 0 0 0.0156863 0 0 0 0 0.105882 0 0 0 0 0.160784 0 0 0 0.08 0"/>
<feBlend mode="normal" in2="BackgroundImageFix" result="effect1_dropShadow_73_737"/>
<feBlend mode="normal" in="SourceGraphic" in2="effect1_dropShadow_73_737" result="shape"/>
</filter>
</defs>
</svg>
