<svg width="376" height="195" viewBox="0 0 376 195" fill="none" xmlns="http://www.w3.org/2000/svg">
<rect y="0.601074" width="375.585" height="193.518" fill="white"/>
<rect y="1" width="375.585" height="48.0933" fill="#FE7747"/>
<path d="M336.601 25.6762C339.464 27.0642 340.895 29.1462 341.969 31.2281C343.4 27.7582 348.052 21.1653 353.777 19.7773" stroke="white" stroke-width="1.5" stroke-linecap="round" stroke-linejoin="round"/>
<path d="M146.93 26.008C146.429 25.368 146.178 24.5253 146.178 23.48C146.178 22.328 146.477 21.4373 147.074 20.808C147.597 20.2427 148.29 19.96 149.154 19.96C150.04 19.96 150.722 20.2373 151.202 20.792C151.618 21.272 151.826 21.912 151.826 22.712V24.344C151.826 25.1547 151.586 25.8 151.106 26.28C150.626 26.7493 149.97 26.9893 149.138 27H147.106C145.933 27 145.346 27.608 145.346 28.824V31.48L144.274 32.04V28.792C144.274 27.9067 144.536 27.2133 145.058 26.712C145.528 26.2533 146.152 26.0187 146.93 26.008ZM150.754 24.248V22.808C150.754 21.56 150.221 20.936 149.154 20.936C148.546 20.936 148.072 21.16 147.73 21.608C147.4 22.056 147.234 22.6747 147.234 23.464C147.234 24.264 147.394 24.888 147.714 25.336C148.034 25.784 148.477 26.008 149.042 26.008C150.184 26.008 150.754 25.4213 150.754 24.248ZM153.75 27L154.262 26.008H157.27C157.761 26.008 158.102 25.8853 158.294 25.64C158.497 25.3947 158.598 24.968 158.598 24.36C158.598 22.792 157.91 21.624 156.534 20.856L157.062 19.976C158.758 20.9573 159.622 22.3387 159.654 24.12C159.665 25.3787 160.278 26.008 161.494 26.008H161.99V27H161.382C160.454 27 159.745 26.6907 159.254 26.072C158.892 26.6907 158.289 27 157.446 27H153.75ZM170.337 26.008V27H162.145V26.008H164.833C164.161 25.3253 163.825 24.4187 163.825 23.288C163.825 22.2107 164.193 21.3573 164.929 20.728C165.515 20.2267 166.203 19.9707 166.993 19.96C168.091 19.96 168.95 20.392 169.569 21.256V22.312C168.929 21.3947 168.107 20.936 167.105 20.936H167.057C166.417 20.936 165.894 21.1547 165.489 21.592C165.094 22.0293 164.897 22.6053 164.897 23.32C164.897 24.1413 165.142 24.7973 165.633 25.288C166.102 25.768 166.731 26.008 167.521 26.008H170.337ZM180.077 26.008V27H178.381C178.37 27.704 178.141 28.3227 177.693 28.856C177.256 29.4 176.685 29.7573 175.981 29.928C175.725 30.0027 175.448 30.04 175.149 30.04C174.53 30.04 173.928 29.8907 173.341 29.592V28.648C173.896 28.9467 174.445 29.096 174.989 29.096C175.426 29.096 175.81 29 176.141 28.808C176.472 28.6373 176.749 28.376 176.973 28.024C177.197 27.6827 177.309 27.3413 177.309 27L175.949 26.952C174.765 26.8987 173.88 26.5253 173.293 25.832C172.813 25.2453 172.573 24.4613 172.573 23.48C172.573 22.328 172.872 21.4373 173.469 20.808C174.002 20.2427 174.717 19.96 175.613 19.96C176.541 19.96 177.25 20.2373 177.741 20.792C178.168 21.272 178.381 21.912 178.381 22.712V26.008H180.077ZM177.309 22.824C177.309 21.5653 176.744 20.936 175.613 20.936C174.984 20.936 174.493 21.16 174.141 21.608C173.8 22.0453 173.629 22.664 173.629 23.464C173.629 25.0533 174.413 25.8853 175.981 25.96C176.45 25.992 176.893 26.008 177.309 26.008V22.824ZM182.55 22.712C182.55 21.8053 182.822 21.1013 183.366 20.6C183.835 20.1733 184.454 19.96 185.222 19.96C186.214 19.96 186.976 20.3227 187.51 21.048C187.968 21.6667 188.198 22.4773 188.198 23.48C188.198 24.6213 187.904 25.512 187.318 26.152C186.806 26.7173 186.139 27 185.318 27C184.315 27 183.568 26.68 183.078 26.04C182.598 26.68 181.878 27 180.918 27H180.23V26.008H180.79C181.963 26.008 182.55 25.4 182.55 24.184V22.712ZM183.622 24.248C183.622 25.4213 184.198 26.008 185.35 26.008C185.904 26.008 186.342 25.784 186.662 25.336C186.982 24.888 187.142 24.264 187.142 23.464C187.142 22.6747 186.971 22.056 186.63 21.608C186.299 21.16 185.83 20.936 185.222 20.936C184.155 20.936 183.622 21.56 183.622 22.808V24.248ZM198.241 27C197.452 27 196.823 26.7547 196.353 26.264C195.884 25.7627 195.649 25.0907 195.649 24.248V22.152L196.721 21.592V24.12C196.721 25.3787 197.308 26.008 198.481 26.008H203.841C205.015 26.008 205.601 25.3787 205.601 24.12V20.712L206.673 20.152V24.248C206.673 25.1547 206.396 25.8587 205.841 26.36C205.361 26.7867 204.732 27 203.953 27H198.241ZM200.849 29.992C200.412 29.992 200.193 29.768 200.193 29.32C200.193 28.8933 200.412 28.68 200.849 28.68C201.265 28.68 201.473 28.8933 201.473 29.32C201.473 29.768 201.265 29.992 200.849 29.992ZM215.875 17.24L216.931 16.68V24.136C216.931 25.0427 216.665 25.7573 216.131 26.28C215.641 26.76 214.985 27 214.163 27H208.915L209.427 26.008H211.875V19.32L212.931 18.76V26.008H214.051C215.267 26.008 215.875 25.3787 215.875 24.12V17.24ZM222.393 18.04C221.955 18.04 221.737 17.816 221.737 17.368C221.737 16.9413 221.955 16.728 222.393 16.728C222.809 16.728 223.017 16.9413 223.017 17.368C223.017 17.816 222.809 18.04 222.393 18.04ZM219.017 27L219.529 26.008H222.537C223.027 26.008 223.369 25.8853 223.561 25.64C223.763 25.3947 223.865 24.968 223.865 24.36C223.865 22.792 223.177 21.624 221.801 20.856L222.329 19.976C224.025 20.9573 224.889 22.3387 224.921 24.12C224.931 25.3787 225.545 26.008 226.761 26.008H227.257V27H226.649C225.721 27 225.011 26.6907 224.521 26.072C224.158 26.6907 223.555 27 222.713 27H219.017ZM229.939 20.392C230.046 20.3813 230.158 20.376 230.275 20.376C231.235 20.376 232.056 20.6107 232.739 21.08C233.678 21.752 234.147 22.712 234.147 23.96V24.264C234.147 25.16 233.87 25.8587 233.315 26.36C232.835 26.7867 232.211 27 231.443 27H227.411V26.008H231.331C232.494 26.008 233.075 25.384 233.075 24.136V23.976C233.075 23.112 232.766 22.4667 232.147 22.04C231.635 21.656 230.984 21.464 230.195 21.464C229.619 21.464 229.048 21.5653 228.483 21.768V20.712L232.115 16.68H233.219L229.939 20.392ZM237.022 27V17.24L238.094 16.68V27H237.022ZM240.575 27.864V26.84C240.97 26.5413 241.53 26.3333 242.255 26.216C241.711 25.4693 241.439 24.648 241.439 23.752C241.439 22.888 241.647 22.1733 242.063 21.608C242.49 21.032 243.066 20.68 243.791 20.552C243.951 20.52 244.111 20.504 244.271 20.504C245.199 20.504 245.962 20.8827 246.559 21.64V22.712C245.898 21.8907 245.151 21.48 244.319 21.48C244.191 21.48 244.069 21.4907 243.951 21.512C242.991 21.704 242.511 22.4293 242.511 23.688C242.511 24.6693 242.847 25.4587 243.519 26.056C243.658 26.0453 243.85 26.04 244.095 26.04C245.493 26.0187 246.602 25.7147 247.423 25.128V26.12C246.527 26.7067 245.359 27 243.919 27C242.511 27 241.397 27.288 240.575 27.864ZM260.302 17.24L261.358 16.68V24.136C261.358 25.0427 261.092 25.7573 260.558 26.28C260.068 26.76 259.412 27 258.59 27H253.342L253.854 26.008H256.302V19.32L257.358 18.76V26.008H258.478C259.694 26.008 260.302 25.3787 260.302 24.12V17.24ZM267.428 27C266.521 27 265.822 26.7067 265.332 26.12C264.926 25.6187 264.724 24.984 264.724 24.216V17.24L265.796 16.68V24.184C265.796 25.4 266.382 26.008 267.556 26.008H268.116V27H267.428ZM284.275 26.008H284.835V27H284.147C283.187 27 282.467 26.6747 281.987 26.024C281.507 26.6747 280.782 27 279.811 27H273.299C272.339 27 271.619 26.6747 271.139 26.024C270.638 26.6747 269.913 27 268.963 27H268.275V26.008H268.835C270.009 26.008 270.595 25.4 270.595 24.184V21.88L271.667 21.32V24.184C271.667 25.1867 272.057 25.7733 272.835 25.944C273.23 24.3013 273.918 22.9253 274.899 21.816C275.998 20.5787 277.289 19.96 278.771 19.96C279.966 19.96 280.915 20.3707 281.619 21.192C282.217 21.896 282.515 22.7653 282.515 23.8V24.216C282.515 25.4107 283.102 26.008 284.275 26.008ZM279.731 26.008C280.873 26.008 281.443 25.3787 281.443 24.12V23.8C281.443 22.904 281.161 22.184 280.595 21.64C280.115 21.1707 279.513 20.936 278.787 20.936C277.539 20.936 276.43 21.5227 275.459 22.696C274.723 23.592 274.169 24.696 273.795 26.008H279.731ZM299.71 26.008V27H299.022C298.126 27 297.432 26.712 296.942 26.136C296.558 26.712 295.939 27 295.086 27H284.99V26.008H287.694V17.24L288.686 16.68V23.4C289.934 21.1067 291.587 19.96 293.646 19.96C294.84 19.96 295.79 20.3707 296.494 21.192C297.091 21.896 297.39 22.7653 297.39 23.8V24.216C297.39 25.4107 297.982 26.008 299.166 26.008H299.71ZM296.318 23.8C296.318 22.904 296.035 22.184 295.47 21.64C294.99 21.1707 294.387 20.936 293.662 20.936C292.414 20.936 291.304 21.5387 290.334 22.744C289.598 23.6507 289.054 24.7387 288.702 26.008H294.974C295.486 26.008 295.838 25.8907 296.03 25.656C296.222 25.4107 296.318 24.968 296.318 24.328V23.8ZM302.66 18.04C302.223 18.04 302.004 17.816 302.004 17.368C302.004 16.9413 302.223 16.728 302.66 16.728C303.076 16.728 303.284 16.9413 303.284 17.368C303.284 17.816 303.076 18.04 302.66 18.04ZM299.876 27V26.008H300.436C301.609 26.008 302.196 25.4 302.196 24.184V20.712L303.268 20.152V24.216C303.268 25.112 303.007 25.8107 302.484 26.312C302.004 26.7707 301.364 27 300.564 27H299.876ZM309.332 27C308.425 27 307.727 26.7067 307.236 26.12C306.831 25.6187 306.628 24.984 306.628 24.216V17.24L307.7 16.68V24.184C307.7 25.4 308.287 26.008 309.46 26.008H310.02V27H309.332ZM321.604 27H317.652C317.076 27 316.489 26.8773 315.892 26.632C315.284 26.8773 314.692 27 314.116 27H310.18V26.008H314.052C314.265 26.008 314.484 25.992 314.708 25.96C313.865 25.352 312.948 24.3493 311.956 22.952V22.296C313.065 20.7387 314.372 19.96 315.876 19.96C317.369 19.96 318.681 20.7493 319.812 22.328V22.952C318.82 24.3493 317.908 25.352 317.076 25.96C317.289 25.992 317.502 26.008 317.716 26.008H321.588L321.604 27ZM312.884 22.632C314.004 24.1253 315.001 25.096 315.876 25.544C316.74 25.096 317.742 24.12 318.884 22.616C318.03 21.496 317.028 20.936 315.876 20.936H315.828C314.74 20.936 313.758 21.5013 312.884 22.632ZM321.769 27V26.008H322.329C323.503 26.008 324.089 25.4 324.089 24.184V20.712L325.161 20.152V24.216C325.161 25.112 324.9 25.8107 324.377 26.312C323.897 26.7707 323.257 27 322.457 27H321.769ZM322.297 29.992C321.86 29.992 321.641 29.768 321.641 29.32C321.641 28.8933 321.86 28.68 322.297 28.68C322.713 28.68 322.921 28.8933 322.921 29.32C322.921 29.768 322.713 29.992 322.297 29.992ZM324.121 29.992C323.684 29.992 323.465 29.768 323.465 29.32C323.465 28.8933 323.684 28.68 324.121 28.68C324.537 28.68 324.745 28.8933 324.745 29.32C324.745 29.768 324.537 29.992 324.121 29.992Z" fill="white"/>
<path opacity="0.6" d="M170.735 117.46L171.659 116.97V123.494C171.659 124.287 171.425 124.913 170.959 125.37C170.529 125.79 169.955 126 169.237 126H164.645L165.093 125.132H167.235V119.28L168.159 118.79V125.132H169.139C170.203 125.132 170.735 124.581 170.735 123.48V117.46ZM176.017 118.16C175.635 118.16 175.443 117.964 175.443 117.572C175.443 117.199 175.635 117.012 176.017 117.012C176.381 117.012 176.563 117.199 176.563 117.572C176.563 117.964 176.381 118.16 176.017 118.16ZM173.063 126L173.511 125.132H176.143C176.573 125.132 176.871 125.025 177.039 124.81C177.217 124.595 177.305 124.222 177.305 123.69C177.305 122.318 176.703 121.296 175.499 120.624L175.961 119.854C177.445 120.713 178.201 121.921 178.229 123.48C178.239 124.581 178.775 125.132 179.839 125.132H180.273V126H179.741C178.929 126 178.309 125.729 177.879 125.188C177.562 125.729 177.035 126 176.297 126H173.063ZM182.2 120.218C182.294 120.209 182.392 120.204 182.494 120.204C183.334 120.204 184.053 120.409 184.65 120.82C185.472 121.408 185.882 122.248 185.882 123.34V123.606C185.882 124.39 185.64 125.001 185.154 125.44C184.734 125.813 184.188 126 183.516 126H179.988V125.132H183.418C184.436 125.132 184.944 124.586 184.944 123.494V123.354C184.944 122.598 184.674 122.033 184.132 121.66C183.684 121.324 183.115 121.156 182.424 121.156C181.92 121.156 181.421 121.245 180.926 121.422V120.498L184.104 116.97H185.07L182.2 120.218ZM187.978 126V117.46L188.916 116.97V126H187.978ZM190.667 126.756V125.86C191.013 125.599 191.503 125.417 192.137 125.314C191.661 124.661 191.423 123.942 191.423 123.158C191.423 122.402 191.605 121.777 191.969 121.282C192.343 120.778 192.847 120.47 193.481 120.358C193.621 120.33 193.761 120.316 193.901 120.316C194.713 120.316 195.381 120.647 195.903 121.31V122.248C195.325 121.529 194.671 121.17 193.943 121.17C193.831 121.17 193.724 121.179 193.621 121.198C192.781 121.366 192.361 122.001 192.361 123.102C192.361 123.961 192.655 124.651 193.243 125.174C193.365 125.165 193.533 125.16 193.747 125.16C194.97 125.141 195.941 124.875 196.659 124.362V125.23C195.875 125.743 194.853 126 193.593 126C192.361 126 191.386 126.252 190.667 126.756ZM207.088 117.46L208.012 116.97V123.494C208.012 124.287 207.779 124.913 207.312 125.37C206.883 125.79 206.309 126 205.59 126H200.998L201.446 125.132H203.588V119.28L204.512 118.79V125.132H205.492C206.556 125.132 207.088 124.581 207.088 123.48V117.46ZM212.903 126C212.11 126 211.498 125.743 211.069 125.23C210.714 124.791 210.537 124.236 210.537 123.564V117.46L211.475 116.97V123.536C211.475 124.6 211.988 125.132 213.015 125.132H213.505V126H212.903ZM227.225 125.132H227.715V126H227.113C226.273 126 225.643 125.715 225.223 125.146C224.803 125.715 224.168 126 223.319 126H217.621C216.781 126 216.151 125.715 215.731 125.146C215.292 125.715 214.657 126 213.827 126H213.225V125.132H213.715C214.741 125.132 215.255 124.6 215.255 123.536V121.52L216.193 121.03V123.536C216.193 124.413 216.533 124.927 217.215 125.076C217.56 123.639 218.162 122.435 219.021 121.464C219.982 120.381 221.111 119.84 222.409 119.84C223.454 119.84 224.285 120.199 224.901 120.918C225.423 121.534 225.685 122.295 225.685 123.2V123.564C225.685 124.609 226.198 125.132 227.225 125.132ZM223.249 125.132C224.247 125.132 224.747 124.581 224.747 123.48V123.2C224.747 122.416 224.499 121.786 224.005 121.31C223.585 120.899 223.057 120.694 222.423 120.694C221.331 120.694 220.36 121.207 219.511 122.234C218.867 123.018 218.381 123.984 218.055 125.132H223.249ZM240.31 125.132V126H239.708C238.924 126 238.317 125.748 237.888 125.244C237.552 125.748 237.01 126 236.264 126H227.43V125.132H229.796V117.46L230.664 116.97V122.85C231.756 120.843 233.202 119.84 235.004 119.84C236.049 119.84 236.88 120.199 237.496 120.918C238.018 121.534 238.28 122.295 238.28 123.2V123.564C238.28 124.609 238.798 125.132 239.834 125.132H240.31ZM237.342 123.2C237.342 122.416 237.094 121.786 236.6 121.31C236.18 120.899 235.652 120.694 235.018 120.694C233.926 120.694 232.955 121.221 232.106 122.276C231.462 123.069 230.986 124.021 230.678 125.132H236.166C236.614 125.132 236.922 125.029 237.09 124.824C237.258 124.609 237.342 124.222 237.342 123.662V123.2ZM242.471 118.16C242.089 118.16 241.897 117.964 241.897 117.572C241.897 117.199 242.089 117.012 242.471 117.012C242.835 117.012 243.017 117.199 243.017 117.572C243.017 117.964 242.835 118.16 242.471 118.16ZM240.035 126V125.132H240.525C241.552 125.132 242.065 124.6 242.065 123.536V120.498L243.003 120.008V123.564C243.003 124.348 242.775 124.959 242.317 125.398C241.897 125.799 241.337 126 240.637 126H240.035ZM247.889 126C247.096 126 246.485 125.743 246.055 125.23C245.701 124.791 245.523 124.236 245.523 123.564V117.46L246.461 116.97V123.536C246.461 124.6 246.975 125.132 248.001 125.132H248.491V126H247.889ZM258.207 126H254.749C254.245 126 253.732 125.893 253.209 125.678C252.677 125.893 252.159 126 251.655 126H248.211V125.132H251.599C251.786 125.132 251.977 125.118 252.173 125.09C251.436 124.558 250.633 123.681 249.765 122.458V121.884C250.736 120.521 251.879 119.84 253.195 119.84C254.502 119.84 255.65 120.531 256.639 121.912V122.458C255.771 123.681 254.973 124.558 254.245 125.09C254.432 125.118 254.618 125.132 254.805 125.132H258.193L258.207 126ZM250.577 122.178C251.557 123.485 252.43 124.334 253.195 124.726C253.951 124.334 254.828 123.48 255.827 122.164C255.08 121.184 254.203 120.694 253.195 120.694H253.153C252.201 120.694 251.342 121.189 250.577 122.178ZM257.932 126V125.132H258.422C259.448 125.132 259.962 124.6 259.962 123.536V120.498L260.9 120.008V123.564C260.9 124.348 260.671 124.959 260.214 125.398C259.794 125.799 259.234 126 258.534 126H257.932ZM258.394 128.618C258.011 128.618 257.82 128.422 257.82 128.03C257.82 127.657 258.011 127.47 258.394 127.47C258.758 127.47 258.94 127.657 258.94 128.03C258.94 128.422 258.758 128.618 258.394 128.618ZM259.99 128.618C259.607 128.618 259.416 128.422 259.416 128.03C259.416 127.657 259.607 127.47 259.99 127.47C260.354 127.47 260.536 127.657 260.536 128.03C260.536 128.422 260.354 128.618 259.99 128.618ZM273.713 125.244C273.713 126.327 273.344 127.185 272.607 127.82C271.944 128.38 271.1 128.66 270.073 128.66C268.86 128.66 267.926 128.245 267.273 127.414C266.76 126.77 266.503 126 266.503 125.104C266.503 124.292 266.708 123.606 267.119 123.046L268.043 122.836C267.586 123.508 267.357 124.245 267.357 125.048C267.357 125.869 267.623 126.541 268.155 127.064C268.659 127.559 269.298 127.806 270.073 127.806C270.969 127.806 271.664 127.535 272.159 126.994C272.579 126.546 272.789 125.963 272.789 125.244V117.46L273.713 116.97V125.244ZM278.596 126C277.803 126 277.192 125.743 276.762 125.23C276.408 124.791 276.23 124.236 276.23 123.564V117.46L277.168 116.97V123.536C277.168 124.6 277.682 125.132 278.708 125.132H279.198V126H278.596ZM276.118 129.304L276.384 128.8H276.748C276.655 128.632 276.608 128.464 276.608 128.296C276.608 128.035 276.706 127.806 276.902 127.61C277.098 127.423 277.332 127.33 277.602 127.33C277.808 127.33 278.008 127.391 278.204 127.512V128.044C278.018 127.904 277.836 127.834 277.658 127.834C277.509 127.834 277.383 127.881 277.28 127.974C277.178 128.077 277.126 128.193 277.126 128.324C277.126 128.483 277.192 128.641 277.322 128.8H278.554L278.288 129.304H276.118ZM281.256 118.16C280.873 118.16 280.682 117.964 280.682 117.572C280.682 117.199 280.873 117.012 281.256 117.012C281.62 117.012 281.802 117.199 281.802 117.572C281.802 117.964 281.62 118.16 281.256 118.16ZM283.426 125.132H283.916V126H283.314C282.474 126 281.844 125.715 281.424 125.146C280.985 125.715 280.351 126 279.52 126H278.918V125.132H279.408C280.435 125.132 280.948 124.6 280.948 123.536V120.498L281.886 120.008V123.536C281.886 124.6 282.399 125.132 283.426 125.132ZM291.041 117.166C290.705 117.166 290.537 116.989 290.537 116.634C290.537 116.298 290.705 116.13 291.041 116.13C291.377 116.13 291.545 116.298 291.545 116.634C291.545 116.989 291.377 117.166 291.041 117.166ZM290.257 118.622C289.874 118.622 289.683 118.431 289.683 118.048C289.683 117.665 289.874 117.474 290.257 117.474C290.621 117.474 290.803 117.665 290.803 118.048C290.803 118.431 290.621 118.622 290.257 118.622ZM291.853 118.622C291.48 118.622 291.293 118.431 291.293 118.048C291.293 117.665 291.48 117.474 291.853 117.474C292.226 117.474 292.413 117.665 292.413 118.048C292.413 118.431 292.226 118.622 291.853 118.622ZM283.635 126V125.132H284.489C285.525 125.132 286.043 124.6 286.043 123.536V121.52L286.981 121.03V123.536C286.981 124.6 287.494 125.132 288.521 125.132H289.039C290.066 125.132 290.579 124.6 290.579 123.536V121.016L291.517 120.512V123.536C291.517 124.6 292.035 125.132 293.071 125.132H293.575C294.611 125.132 295.129 124.6 295.129 123.536V120.498L296.067 120.008V123.564C296.067 124.339 295.838 124.945 295.381 125.384C294.97 125.785 294.415 125.991 293.715 126H292.945C292.077 126 291.447 125.692 291.055 125.076C290.654 125.692 290.028 126 289.179 126H288.409C287.541 126 286.906 125.692 286.505 125.076C286.113 125.692 285.483 126 284.615 126H283.635ZM298.584 126V117.46L299.522 116.97V126H298.584ZM301.273 126.756V125.86C301.618 125.599 302.108 125.417 302.743 125.314C302.267 124.661 302.029 123.942 302.029 123.158C302.029 122.402 302.211 121.777 302.575 121.282C302.948 120.778 303.452 120.47 304.087 120.358C304.227 120.33 304.367 120.316 304.507 120.316C305.319 120.316 305.986 120.647 306.509 121.31V122.248C305.93 121.529 305.277 121.17 304.549 121.17C304.437 121.17 304.329 121.179 304.227 121.198C303.387 121.366 302.967 122.001 302.967 123.102C302.967 123.961 303.261 124.651 303.849 125.174C303.97 125.165 304.138 125.16 304.353 125.16C305.575 125.141 306.546 124.875 307.265 124.362V125.23C306.481 125.743 305.459 126 304.199 126C302.967 126 301.991 126.252 301.273 126.756ZM319.766 125.132H320.242V126H319.64C318.809 126 318.184 125.72 317.764 125.16C317.334 125.711 316.7 125.991 315.86 126H314.082C313.055 126 312.542 126.532 312.542 127.596V129.92L311.604 130.41V127.568C311.604 126.793 311.832 126.187 312.29 125.748C312.7 125.347 313.246 125.141 313.928 125.132C313.489 124.572 313.27 123.835 313.27 122.92C313.27 121.912 313.531 121.133 314.054 120.582C314.511 120.087 315.118 119.84 315.874 119.84C316.648 119.84 317.246 120.083 317.666 120.568C318.03 120.988 318.212 121.548 318.212 122.248V123.536C318.212 124.6 318.73 125.132 319.766 125.132ZM317.274 123.592V122.332C317.274 121.24 316.807 120.694 315.874 120.694C315.342 120.694 314.926 120.89 314.628 121.282C314.338 121.674 314.194 122.215 314.194 122.906C314.194 123.606 314.334 124.152 314.614 124.544C314.894 124.936 315.281 125.132 315.776 125.132C316.774 125.132 317.274 124.619 317.274 123.592ZM328.809 125.132H329.299V126H328.795C328.02 126 327.4 125.911 326.933 125.734C326.476 125.557 326.051 125.244 325.659 124.796C324.464 125.599 323.083 126 321.515 126H319.961V125.132H321.529C323.564 125.132 325.15 124.441 326.289 123.06C325.458 121.473 324.455 120.68 323.279 120.68C322.476 120.68 321.692 121.086 320.927 121.898V120.974C321.692 120.218 322.49 119.84 323.321 119.84H323.349C324.814 119.84 326.084 120.829 327.157 122.808V123.382C326.868 123.755 326.56 124.077 326.233 124.348C326.532 124.637 326.868 124.843 327.241 124.964C327.624 125.076 328.146 125.132 328.809 125.132ZM329.866 118.16C329.483 118.16 329.292 117.964 329.292 117.572C329.292 117.199 329.483 117.012 329.866 117.012C330.23 117.012 330.412 117.199 330.412 117.572C330.412 117.964 330.23 118.16 329.866 118.16ZM331.462 118.16C331.079 118.16 330.888 117.964 330.888 117.572C330.888 117.199 331.079 117.012 331.462 117.012C331.826 117.012 332.008 117.199 332.008 117.572C332.008 117.964 331.826 118.16 331.462 118.16ZM329.026 126V125.132H329.516C330.542 125.132 331.056 124.6 331.056 123.536V120.498L331.994 120.008V123.564C331.994 124.348 331.765 124.959 331.308 125.398C330.888 125.799 330.328 126 329.628 126H329.026ZM340.659 125.132V126H339.175C339.166 126.616 338.965 127.157 338.573 127.624C338.191 128.1 337.691 128.413 337.075 128.562C336.851 128.627 336.609 128.66 336.347 128.66C335.806 128.66 335.279 128.529 334.765 128.268V127.442C335.251 127.703 335.731 127.834 336.207 127.834C336.59 127.834 336.926 127.75 337.215 127.582C337.505 127.433 337.747 127.204 337.943 126.896C338.139 126.597 338.237 126.299 338.237 126L337.047 125.958C336.011 125.911 335.237 125.585 334.723 124.978C334.303 124.465 334.093 123.779 334.093 122.92C334.093 121.912 334.355 121.133 334.877 120.582C335.344 120.087 335.969 119.84 336.753 119.84C337.565 119.84 338.186 120.083 338.615 120.568C338.989 120.988 339.175 121.548 339.175 122.248V125.132H340.659ZM338.237 122.346C338.237 121.245 337.743 120.694 336.753 120.694C336.203 120.694 335.773 120.89 335.465 121.282C335.167 121.665 335.017 122.206 335.017 122.906C335.017 124.297 335.703 125.025 337.075 125.09C337.486 125.118 337.873 125.132 338.237 125.132V122.346ZM340.373 126V125.132H340.863C341.89 125.132 342.403 124.6 342.403 123.536V120.498L343.341 120.008V123.564C343.341 124.348 343.113 124.959 342.655 125.398C342.235 125.799 341.675 126 340.975 126H340.373ZM223.737 142.202C223.355 142.202 223.163 142.006 223.163 141.614C223.163 141.241 223.355 141.054 223.737 141.054C224.101 141.054 224.283 141.241 224.283 141.614C224.283 142.006 224.101 142.202 223.737 142.202ZM217.605 150C216.849 150 216.257 149.748 215.827 149.244C215.454 148.796 215.267 148.222 215.267 147.522V145.688L216.205 145.198V147.41C216.205 148.558 216.737 149.132 217.801 149.132H221.805C221.292 148.637 221.035 147.9 221.035 146.92C221.035 145.912 221.297 145.133 221.819 144.582C222.277 144.087 222.883 143.84 223.639 143.84C224.414 143.84 225.011 144.083 225.431 144.568C225.795 144.988 225.977 145.548 225.977 146.248V147.592C225.977 148.367 225.739 148.973 225.263 149.412C224.843 149.804 224.288 150 223.597 150H217.605ZM225.039 146.332C225.039 145.24 224.573 144.694 223.639 144.694C223.107 144.694 222.692 144.89 222.393 145.282C222.104 145.674 221.959 146.215 221.959 146.906C221.959 147.578 222.104 148.119 222.393 148.53C222.683 148.931 223.065 149.132 223.541 149.132C224.54 149.132 225.039 148.591 225.039 147.508V146.332ZM231.739 149.132H232.229V150H231.627C231.049 150 230.568 149.86 230.185 149.58C230.111 151.129 229.485 152.109 228.309 152.52C228.011 152.623 227.693 152.674 227.357 152.674C226.816 152.674 226.293 152.543 225.789 152.282V151.456C226.265 151.717 226.751 151.848 227.245 151.848C227.637 151.848 227.983 151.759 228.281 151.582C228.935 151.19 229.261 150.457 229.261 149.384V144.498L230.185 144.008V144.022L230.199 144.008V147.536C230.199 148.6 230.713 149.132 231.739 149.132ZM231.955 150V149.132H232.445C233.472 149.132 233.985 148.6 233.985 147.536V144.498L234.923 144.008V147.564C234.923 148.348 234.695 148.959 234.237 149.398C233.817 149.799 233.257 150 232.557 150H231.955ZM232.417 152.618C232.035 152.618 231.843 152.422 231.843 152.03C231.843 151.657 232.035 151.47 232.417 151.47C232.781 151.47 232.963 151.657 232.963 152.03C232.963 152.422 232.781 152.618 232.417 152.618ZM234.013 152.618C233.631 152.618 233.439 152.422 233.439 152.03C233.439 151.657 233.631 151.47 234.013 151.47C234.377 151.47 234.559 151.657 234.559 152.03C234.559 152.422 234.377 152.618 234.013 152.618ZM236.323 150L236.771 149.132H239.403C239.832 149.132 240.131 149.025 240.299 148.81C240.476 148.595 240.565 148.222 240.565 147.69C240.565 146.327 239.968 145.305 238.773 144.624L239.221 143.854C240.742 144.741 241.503 146.024 241.503 147.704C241.503 149.235 240.854 150 239.557 150H236.323ZM255.621 149.132H256.111V150H255.509C254.912 150 254.413 149.851 254.011 149.552C253.937 150.541 253.54 151.321 252.821 151.89C252.177 152.403 251.365 152.66 250.385 152.66C249.172 152.66 248.239 152.245 247.585 151.414C247.072 150.77 246.815 150 246.815 149.104C246.815 148.292 247.021 147.606 247.431 147.046L248.355 146.836C247.898 147.508 247.669 148.245 247.669 149.048C247.669 149.869 247.935 150.541 248.467 151.064C248.971 151.559 249.611 151.806 250.385 151.806C251.281 151.806 251.977 151.535 252.471 150.994C252.891 150.546 253.101 149.963 253.101 149.244V141.46L254.025 140.97V147.55V147.578C254.025 148.614 254.557 149.132 255.621 149.132ZM257.856 146.248C257.856 145.455 258.094 144.839 258.57 144.4C258.981 144.027 259.522 143.84 260.194 143.84C261.062 143.84 261.73 144.157 262.196 144.792C262.598 145.333 262.798 146.043 262.798 146.92C262.798 147.919 262.542 148.698 262.028 149.258C261.58 149.753 260.997 150 260.278 150C259.401 150 258.748 149.72 258.318 149.16C257.898 149.72 257.268 150 256.428 150H255.826V149.132H256.316C257.343 149.132 257.856 148.6 257.856 147.536V146.248ZM258.794 147.592C258.794 148.619 259.298 149.132 260.306 149.132C260.792 149.132 261.174 148.936 261.454 148.544C261.734 148.152 261.874 147.606 261.874 146.906C261.874 146.215 261.725 145.674 261.426 145.282C261.137 144.89 260.726 144.694 260.194 144.694C259.261 144.694 258.794 145.24 258.794 146.332V147.592ZM271.261 149.132V150H269.777C269.768 150.616 269.567 151.157 269.175 151.624C268.792 152.1 268.293 152.413 267.677 152.562C267.453 152.627 267.21 152.66 266.949 152.66C266.408 152.66 265.88 152.529 265.367 152.268V151.442C265.852 151.703 266.333 151.834 266.809 151.834C267.192 151.834 267.528 151.75 267.817 151.582C268.106 151.433 268.349 151.204 268.545 150.896C268.741 150.597 268.839 150.299 268.839 150L267.649 149.958C266.613 149.911 265.838 149.585 265.325 148.978C264.905 148.465 264.695 147.779 264.695 146.92C264.695 145.912 264.956 145.133 265.479 144.582C265.946 144.087 266.571 143.84 267.355 143.84C268.167 143.84 268.788 144.083 269.217 144.568C269.59 144.988 269.777 145.548 269.777 146.248V149.132H271.261ZM268.839 146.346C268.839 145.245 268.344 144.694 267.355 144.694C266.804 144.694 266.375 144.89 266.067 145.282C265.768 145.665 265.619 146.206 265.619 146.906C265.619 148.297 266.305 149.025 267.677 149.09C268.088 149.118 268.475 149.132 268.839 149.132V146.346ZM274.223 142.202C273.84 142.202 273.649 142.006 273.649 141.614C273.649 141.241 273.84 141.054 274.223 141.054C274.587 141.054 274.769 141.241 274.769 141.614C274.769 142.006 274.587 142.202 274.223 142.202ZM275.819 142.202C275.436 142.202 275.245 142.006 275.245 141.614C275.245 141.241 275.436 141.054 275.819 141.054C276.183 141.054 276.365 141.241 276.365 141.614C276.365 142.006 276.183 142.202 275.819 142.202ZM276.477 149.132H279.039V150H275.875C275.557 150 275.268 149.967 275.007 149.902C274.745 149.967 274.456 150 274.139 150H270.975V149.132H273.551C272.813 148.451 272.445 147.643 272.445 146.71C272.445 145.805 272.697 145.086 273.201 144.554C273.658 144.078 274.26 143.84 275.007 143.84C275.856 143.84 276.514 144.148 276.981 144.764C277.373 145.277 277.569 145.926 277.569 146.71C277.569 147.653 277.205 148.46 276.477 149.132ZM275.063 149.006C275.539 148.838 275.926 148.539 276.225 148.11C276.533 147.671 276.687 147.2 276.687 146.696C276.687 146.08 276.533 145.595 276.225 145.24C275.926 144.876 275.52 144.694 275.007 144.694C274.493 144.694 274.087 144.876 273.789 145.24C273.49 145.595 273.341 146.075 273.341 146.682C273.341 147.195 273.49 147.671 273.789 148.11C274.087 148.539 274.475 148.838 274.951 149.006L275.007 149.02L275.035 149.006H275.063ZM288.75 150H285.292C284.788 150 284.275 149.893 283.752 149.678C283.22 149.893 282.702 150 282.198 150H278.754V149.132H282.142C282.329 149.132 282.52 149.118 282.716 149.09C281.979 148.558 281.176 147.681 280.308 146.458V145.884C281.279 144.521 282.422 143.84 283.738 143.84C285.045 143.84 286.193 144.531 287.182 145.912V146.458C286.314 147.681 285.516 148.558 284.788 149.09C284.975 149.118 285.161 149.132 285.348 149.132H288.736L288.75 150ZM281.12 146.178C282.1 147.485 282.973 148.334 283.738 148.726C284.494 148.334 285.371 147.48 286.37 146.164C285.623 145.184 284.746 144.694 283.738 144.694H283.696C282.744 144.694 281.885 145.189 281.12 146.178ZM290.687 144.218C290.78 144.209 290.878 144.204 290.981 144.204C291.821 144.204 292.539 144.409 293.137 144.82C293.958 145.408 294.369 146.248 294.369 147.34V147.606C294.369 148.39 294.126 149.001 293.641 149.44C293.221 149.813 292.675 150 292.003 150H288.475V149.132H291.905C292.922 149.132 293.431 148.586 293.431 147.494V147.354C293.431 146.598 293.16 146.033 292.619 145.66C292.171 145.324 291.601 145.156 290.911 145.156C290.407 145.156 289.907 145.245 289.413 145.422V144.498L292.591 140.97H293.557L290.687 144.218ZM302.95 149.65C302.857 149.706 302.703 149.795 302.488 149.916L302.46 149.93C301.695 150.359 301.181 150.728 300.92 151.036C300.668 151.344 300.542 151.755 300.542 152.268C300.542 152.884 300.752 153.388 301.172 153.78C301.601 154.181 302.152 154.382 302.824 154.382H302.852C303.916 154.382 304.77 154.144 305.414 153.668V154.522C304.649 155.007 303.785 155.25 302.824 155.25C301.816 155.25 301.013 154.919 300.416 154.256C299.921 153.696 299.674 153.024 299.674 152.24C299.674 151.577 299.837 151.045 300.164 150.644C300.491 150.243 301.149 149.767 302.138 149.216C301.326 148.665 300.467 147.746 299.562 146.458V145.884C300.533 144.521 301.676 143.84 302.992 143.84C303.608 143.84 304.219 144.022 304.826 144.386C305.433 144.75 305.969 145.259 306.436 145.912V146.458C305.792 147.345 304.929 148.208 303.846 149.048C304.089 149.104 304.341 149.132 304.602 149.132H307.99V150H304.546C303.995 150 303.463 149.883 302.95 149.65ZM300.374 146.192C301.354 147.48 302.217 148.32 302.964 148.712C303.925 148.04 304.812 147.191 305.624 146.164C304.877 145.184 304 144.694 302.992 144.694H302.95C301.989 144.694 301.13 145.193 300.374 146.192ZM312.177 149.132H312.667V150H312.065C311.206 150 310.567 149.706 310.147 149.118C309.708 149.706 309.06 150 308.201 150H307.711V149.132H308.103C309.167 149.132 309.699 148.581 309.699 147.48V141.46L310.637 140.97V147.536C310.637 148.6 311.15 149.132 312.177 149.132ZM312.387 150V149.132H312.877C313.904 149.132 314.417 148.6 314.417 147.536V144.498L315.355 144.008V147.564C315.355 148.348 315.126 148.959 314.669 149.398C314.249 149.799 313.689 150 312.989 150H312.387ZM326.348 141.46L327.272 140.97V147.494C327.272 148.287 327.039 148.913 326.572 149.37C326.143 149.79 325.569 150 324.85 150H320.258L320.706 149.132H322.848V143.28L323.772 142.79V149.132H324.752C325.816 149.132 326.348 148.581 326.348 147.48V141.46ZM335.943 149.132V150H334.459C334.449 150.616 334.249 151.157 333.857 151.624C333.474 152.1 332.975 152.413 332.359 152.562C332.135 152.627 331.892 152.66 331.631 152.66C331.089 152.66 330.562 152.529 330.049 152.268V151.442C330.534 151.703 331.015 151.834 331.491 151.834C331.873 151.834 332.209 151.75 332.499 151.582C332.788 151.433 333.031 151.204 333.227 150.896C333.423 150.597 333.521 150.299 333.521 150L332.331 149.958C331.295 149.911 330.52 149.585 330.007 148.978C329.587 148.465 329.377 147.779 329.377 146.92C329.377 145.912 329.638 145.133 330.161 144.582C330.627 144.087 331.253 143.84 332.037 143.84C332.849 143.84 333.469 144.083 333.899 144.568C334.272 144.988 334.459 145.548 334.459 146.248V149.132H335.943ZM333.521 146.346C333.521 145.245 333.026 144.694 332.037 144.694C331.486 144.694 331.057 144.89 330.749 145.282C330.45 145.665 330.301 146.206 330.301 146.906C330.301 148.297 330.987 149.025 332.359 149.09C332.769 149.118 333.157 149.132 333.521 149.132V146.346ZM340.164 149.132H340.654V150H340.052C339.212 150 338.582 149.715 338.162 149.146C337.724 149.715 337.089 150 336.258 150H335.656V149.132H336.146C337.173 149.132 337.686 148.6 337.686 147.536V144.498L338.624 144.008V147.536C338.624 148.6 339.138 149.132 340.164 149.132ZM336.986 151.47C337.36 151.47 337.546 151.661 337.546 152.044C337.546 152.427 337.36 152.618 336.986 152.618C336.613 152.618 336.426 152.427 336.426 152.044C336.426 151.661 336.613 151.47 336.986 151.47ZM338.582 151.47C338.956 151.47 339.142 151.661 339.142 152.044C339.142 152.427 338.956 152.618 338.582 152.618C338.209 152.618 338.022 152.427 338.022 152.044C338.022 151.661 338.209 151.47 338.582 151.47ZM340.373 150V149.132H340.863C341.89 149.132 342.403 148.6 342.403 147.536V144.498L343.341 144.008V147.564C343.341 148.348 343.113 148.959 342.655 149.398C342.235 149.799 341.675 150 340.975 150H340.373ZM342.235 152.618C341.853 152.618 341.661 152.422 341.661 152.03C341.661 151.657 341.853 151.47 342.235 151.47C342.599 151.47 342.781 151.657 342.781 152.03C342.781 152.422 342.599 152.618 342.235 152.618Z" fill="#222A2F"/>
<path d="M284.928 69.7566L287.196 68.5506V76.4166C287.196 77.5806 286.842 78.5106 286.134 79.2066C285.474 79.8426 284.604 80.1606 283.524 80.1606H276.738L277.872 77.9826H280.248V72.0966L282.516 70.8906V77.9826H283.398C283.95 77.9826 284.34 77.8626 284.568 77.6226C284.808 77.3826 284.928 76.9746 284.928 76.3986V69.7566ZM305.208 77.9826H306.828V80.1606H304.992C304.056 80.1606 303.294 79.8966 302.706 79.3686C302.046 79.8966 301.236 80.1606 300.276 80.1606H293.49L294.624 77.9826H297V72.0966L299.268 70.8906V77.9826H300.15C300.702 77.9826 301.092 77.8626 301.32 77.6226C301.56 77.3826 301.68 76.9746 301.68 76.3986V69.7566L303.948 68.5506V76.6866C303.948 77.1546 304.044 77.4906 304.236 77.6946C304.428 77.8866 304.752 77.9826 305.208 77.9826ZM315.476 77.9826H316.898V80.1606H315.242C314.366 80.1606 313.646 79.9266 313.082 79.4586C312.506 79.9266 311.78 80.1606 310.904 80.1606H305.756V77.9826H310.67C311.51 77.9826 311.93 77.5686 311.93 76.7406V76.6326C311.93 75.9726 311.684 75.4446 311.192 75.0486C310.7 74.6406 310.052 74.4366 309.248 74.4366C308.636 74.4366 307.994 74.5566 307.322 74.7966V72.6186L310.976 68.5506H313.262L309.986 72.2226C310.934 72.3186 311.738 72.6006 312.398 73.0686C313.598 73.8846 314.198 75.0666 314.198 76.6146V76.6866C314.198 77.1546 314.294 77.4906 314.486 77.6946C314.69 77.8866 315.02 77.9826 315.476 77.9826ZM317.106 70.3506C316.746 70.3506 316.458 70.2426 316.242 70.0266C316.026 69.8106 315.918 69.5166 315.918 69.1446C315.918 68.3646 316.314 67.9746 317.106 67.9746C317.466 67.9746 317.748 68.0826 317.952 68.2986C318.168 68.5026 318.276 68.7846 318.276 69.1446C318.276 69.9486 317.886 70.3506 317.106 70.3506ZM319.878 70.3506C319.518 70.3506 319.23 70.2426 319.014 70.0266C318.798 69.8106 318.69 69.5166 318.69 69.1446C318.69 68.3646 319.086 67.9746 319.878 67.9746C320.238 67.9746 320.52 68.0826 320.724 68.2986C320.94 68.5026 321.048 68.7846 321.048 69.1446C321.048 69.9486 320.658 70.3506 319.878 70.3506ZM315.81 80.1606V77.9826H317.43C317.886 77.9826 318.21 77.8866 318.402 77.6946C318.594 77.4906 318.69 77.1546 318.69 76.6866V73.3566L320.958 72.1686V76.7946C320.958 77.8866 320.622 78.7386 319.95 79.3506C319.362 79.8906 318.594 80.1606 317.646 80.1606H315.81ZM327.505 80.1606C326.413 80.1606 325.567 79.8126 324.967 79.1166C324.451 78.5166 324.193 77.7426 324.193 76.7946V69.7386L326.461 68.5506V76.6866C326.461 77.1546 326.557 77.4906 326.749 77.6946C326.941 77.8866 327.265 77.9826 327.721 77.9826H329.341V80.1606H327.505ZM328.256 80.1606V77.9826H329.876C330.332 77.9826 330.656 77.8866 330.848 77.6946C331.04 77.4906 331.136 77.1546 331.136 76.6866V73.3566L333.404 72.1686V76.7946C333.404 77.8866 333.068 78.7386 332.396 79.3506C331.808 79.8906 331.04 80.1606 330.092 80.1606H328.256ZM332.072 84.1746C331.712 84.1746 331.424 84.0666 331.208 83.8506C330.992 83.6346 330.884 83.3406 330.884 82.9686C330.884 82.6206 330.992 82.3386 331.208 82.1226C331.424 81.9066 331.712 81.7986 332.072 81.7986C332.432 81.7986 332.714 81.9006 332.918 82.1046C333.134 82.3206 333.242 82.6086 333.242 82.9686C333.242 83.7726 332.852 84.1746 332.072 84.1746ZM338.528 69.9906C338.168 69.9906 337.88 69.8826 337.664 69.6666C337.448 69.4506 337.34 69.1566 337.34 68.7846C337.34 68.0046 337.736 67.6146 338.528 67.6146C338.888 67.6146 339.17 67.7226 339.374 67.9386C339.59 68.1426 339.698 68.4246 339.698 68.7846C339.698 69.5886 339.308 69.9906 338.528 69.9906ZM341.282 69.9906C340.922 69.9906 340.634 69.8826 340.418 69.6666C340.202 69.4386 340.094 69.1446 340.094 68.7846C340.094 68.4366 340.202 68.1546 340.418 67.9386C340.634 67.7226 340.922 67.6146 341.282 67.6146C341.642 67.6146 341.924 67.7226 342.128 67.9386C342.344 68.1426 342.452 68.4246 342.452 68.7846C342.452 69.5886 342.062 69.9906 341.282 69.9906ZM339.914 80.1606C338.774 80.1606 337.88 79.7766 337.232 79.0086C336.68 78.3486 336.404 77.5026 336.404 76.4706C336.404 75.3906 336.716 74.4486 337.34 73.6446C337.964 72.8406 338.852 72.2466 340.004 71.8626C341.228 72.2706 342.152 72.9126 342.776 73.7886C343.34 74.5566 343.622 75.4506 343.622 76.4706C343.622 77.6586 343.262 78.5886 342.542 79.2606C341.918 79.8606 341.102 80.1606 340.094 80.1606H339.914ZM339.896 77.9826H340.13C340.97 77.9826 341.39 77.4846 341.39 76.4886C341.39 75.3486 340.928 74.5146 340.004 73.9866C339.092 74.5146 338.636 75.3366 338.636 76.4526C338.636 77.4726 339.056 77.9826 339.896 77.9826Z" fill="#FE7747"/>
<rect x="26.3511" y="65.4751" width="25.9819" height="25.9819" rx="3.25" stroke="#FE7747" stroke-width="1.5"/>
<path d="M45.4608 74.7808L36.9443 83.2973L32.686 79.039" stroke="#FE7747" stroke-width="1.5" stroke-linecap="round" stroke-linejoin="round"/>
</svg>
