<?xml version="1.0" encoding="utf-8"?>
<!-- Generator: Adobe Illustrator 25.0.0, SVG Export Plug-In . SVG Version: 6.00 Build 0)  -->
<svg version="1.1" id="Layer_1" xmlns="http://www.w3.org/2000/svg" xmlns:xlink="http://www.w3.org/1999/xlink" x="0px" y="0px"
	 viewBox="0 0 700 658" style="enable-background:new 0 0 700 658;" xml:space="preserve">
<style type="text/css">
	.st0{fill:#EBF4EF;}
	.st1{fill:#53BD95;fill-opacity:0.3;}
	.st2{fill-rule:evenodd;clip-rule:evenodd;fill:#53BD95;fill-opacity:0.3;}
</style>
<rect class="st0" width="700" height="658"/>
<path class="st1" d="M251,1h-3.5c-8.4,3.6-16.7,7.5-24.9,11.6c-31.5,15.8-62.9,35.3-99.5,58.5c-4.6,2.9-9.3,5.9-14.1,9
	C77.7,100,42.4,122.4,0,147.5v1.7c43-25.4,78.7-48.1,110.3-68.2l0,0c4.8-3,9.5-6,14.1-8.9c36.6-23.2,67.9-42.6,99.3-58.4
	C232.7,9.1,241.8,4.9,251,1z"/>
<path class="st2" d="M0,216.1c75.6-38,134.2-61.1,188.2-76.2c71.4-20,134.7-26,218.3-33.9l0,0c6.5-0.6,13.1-1.2,19.8-1.9
	c47-4.5,78.7,4.3,94.7,20.2c1.9,1.9,3.5,3.8,5,5.8c43.1-27.3,69-59.5,74.1-88.4c2.6-14.9-0.3-28.8-9.2-40.7h2.1
	c8.7,12,11.5,26,8.9,40.9c-5.1,29.3-31.4,62-75.1,89.5c10,15.2,8.5,34.7-4.3,54.4c-15.1,23.3-46.1,46.9-92.5,63.9
	c19,9.3,43.5,17.5,71.4,23.6c6.5,1.4,13.3,2.7,20.2,3.9c10.3-35.1,32.2-72.1,67.4-106.8c33.9-33.5,72.6-59.2,110.6-77v1.5
	c-37.5,17.7-75.6,43.2-109.1,76.2c-35.1,34.7-56.9,71.4-67.1,106.4c54.2,8.9,117.6,9.5,176.2-4.6v1.4
	c-58.8,14.1-122.3,13.5-176.6,4.5c-7.6,26.8-8.5,52.4-3.2,75.3c28.1-5.7,54.4-10.1,78.5-13.2c32.6-4.2,61.1-5.9,84.2-5.2
	c6.1,0.2,11.8,0.5,17.1,1.1v1.3c-5.3-0.5-11.1-0.9-17.2-1.1c-22.9-0.7-51.2,1-83.8,5.2c-24.1,3.1-50.4,7.5-78.5,13.2
	c2.7,11.1,6.7,21.4,12.2,30.9c15.7,27.5,42.7,47.4,78.8,54.9c13.5,2.8,28.3,3.9,44.2,2.9c17.5-10,32.2-19.3,44.3-28v1.8
	c-11.4,8-25.1,16.7-41.1,25.9c12.9-1,26.6-3.2,41.1-6.9v1.4c-15.3,3.9-29.9,6.2-43.6,7c-31.4,18-71.5,38.3-121.4,60.8
	c5.5,0.6,11,1.3,16.6,2c65.1,8.4,115.1,22.4,148.4,38.6v1.6c-33-16.3-83.1-30.5-148.8-38.9c-6.2-0.8-12.4-1.6-18.6-2.3
	c-21.1,9.5-43.9,19.4-68.5,29.7c-100.4,42.1-195.4,52.8-283.1,42.2c-64.5-7.8-125-27-180.7-53.7v-1.6c55.9,26.9,116.4,46.3,181,54
	c87.2,10.5,181.8-0.1,281.9-42c23.9-10,46.1-19.7,66.7-28.9c-106-12-200.6-11-283.9-10c-21.2,0.2-41.7,0.5-61.5,0.5
	c-70.9,0-132.4-2.9-184.3-18.9v-1.4c51.6,16.1,113,19,184.3,19c19.7,0,40.2-0.2,61.3-0.5h0c83.8-0.9,179.3-2,286.3,10.3
	c49.6-22.4,89.6-42.5,120.9-60.3c-15.2,0.7-29.3-0.4-42.3-3.1c-36.8-7.6-64.1-27.9-80-55.6c-5.5-9.5-9.6-19.9-12.2-31
	c-47.5,9.7-100.1,23.2-155.2,40.3c-142,44.1-250,33-327.3,1.2C23,391.8,11.1,385.9,0,379.7V378c11.4,6.5,23.6,12.5,36.7,17.9
	c76.7,31.6,184.1,42.7,325.6-1.2c55.3-17.2,108-30.7,155.7-40.4c-5.3-23-4.5-48.9,3.2-75.9c-6.9-1.2-13.7-2.5-20.3-3.9
	c-28.4-6.1-53.4-14.5-72.7-24.1c-44.5,16-103.1,25.9-175.3,24C147.3,271.5,61.4,281.8,0,300.1v-1.4c61.7-18.3,147.6-28.5,252.9-25.6
	c71.6,1.9,129.5-7.8,173.6-23.6c-14.7-7.5-25.9-15.7-32.5-24.1c-7.7-9.8-9.2-19.9-2.5-29.5c6.7-9.5,21.4-18.4,45.6-25.9
	c34-10.5,63.4-24,87.5-39c-1.5-2.1-3.1-4.1-5.1-6c-15.5-15.4-46.3-24.2-93-19.7c-6.7,0.6-13.3,1.3-19.8,1.9l0,0
	c-83.6,7.9-146.7,13.9-217.9,33.8C134.8,156.2,76,179.4,0,217.6V216.1z M520.9,185.2c-15,23.2-45.9,46.7-92.5,63.6
	c-14.9-7.5-26.1-15.7-32.7-24c-7.5-9.5-8.8-19.2-2.4-28.3c6.4-9.2,20.6-17.9,44.7-25.3c34-10.5,63.4-23.9,87.5-39
	C534.9,147,533.4,165.9,520.9,185.2z"/>
<path class="st1" d="M0,653.8v1.3c33.7-7,76.6-11.7,128.3-13.7c72.9-2.7,163.5,0.1,271.2,9.9c107.8,9.8,189,8.1,245.8-0.6
	c21.6-3.3,39.6-7.6,54.3-12.7v-1.4c-14.6,5.1-32.8,9.5-54.7,12.9c-56.5,8.6-137.5,10.3-245.2,0.6c-107.8-9.8-198.5-12.6-271.5-9.9
	C76.7,642.1,33.8,646.8,0,653.8z"/>
<path class="st1" d="M0,31.8v1.5c4.2-1.8,8.5-3.6,12.7-5.4c10-4.2,20.1-8.4,30-12.5c11.9-5,23.5-9.8,34.2-14.3h-3.5
	c-10,4.2-20.6,8.7-31.6,13.2l0,0c-9.9,4.1-20,8.3-30,12.6C7.8,28.4,3.9,30.1,0,31.8z"/>
</svg>
