<svg width="30" height="30" viewBox="0 0 30 30" fill="none" xmlns="http://www.w3.org/2000/svg">
<path fill-rule="evenodd" clip-rule="evenodd" d="M11.125 2.5H18.8375C22.225 2.5 24.9625 3.8375 25 7.2375V26.2125C25 26.425 24.95 26.6375 24.85 26.825C24.6875 27.125 24.4125 27.35 24.075 27.45C23.75 27.55 23.3875 27.5 23.0875 27.325L14.9875 23.275L6.875 27.325C6.68875 27.4237 6.475 27.4875 6.2625 27.4875C5.5625 27.4875 5 26.9125 5 26.2125V7.2375C5 3.8375 7.75 2.5 11.125 2.5ZM10.2758 12.025H19.6883C20.2258 12.025 20.6633 11.5863 20.6633 11.0375C20.6633 10.4875 20.2258 10.05 19.6883 10.05H10.2758C9.73828 10.05 9.30078 10.4875 9.30078 11.0375C9.30078 11.5863 9.73828 12.025 10.2758 12.025Z" fill="white"/>
</svg>
