<svg width="236" height="246" viewBox="0 0 236 246" fill="none" xmlns="http://www.w3.org/2000/svg">
<rect opacity="0.8" x="0.250977" y="0.862305" width="235.512" height="244.276" rx="15" fill="white"/>
<rect x="19.9683" y="44" width="154.452" height="32.8622" rx="6" fill="#F7F3F0"/>
<path d="M153.724 58.604H152.584V57.332H153.724C154.044 57.332 154.264 57.288 154.384 57.2C154.568 57.064 154.66 56.82 154.66 56.468C154.66 56.196 154.58 55.98 154.42 55.82C154.26 55.652 154.044 55.568 153.772 55.568C153.284 55.568 152.776 55.792 152.248 56.24L151.672 55.232C152.336 54.584 153.088 54.26 153.928 54.26C154.632 54.26 155.208 54.456 155.656 54.848C156.088 55.232 156.304 55.728 156.304 56.336C156.304 57.088 155.992 57.592 155.368 57.848C156.176 58.16 156.58 58.76 156.58 59.648C156.58 60.584 156.26 61.264 155.62 61.688C155.172 61.984 154.612 62.132 153.94 62.132C153.572 62.132 153.152 62.036 152.68 61.844C152.216 61.644 151.836 61.404 151.54 61.124L152.176 60.176C152.608 60.568 153.16 60.764 153.832 60.764C154.176 60.764 154.448 60.668 154.648 60.476C154.848 60.276 154.948 60.008 154.948 59.672C154.948 58.96 154.54 58.604 153.724 58.604ZM157.419 59.264C158.499 57.616 159.563 55.996 160.611 54.404H162.159V59.264H163.407V60.524H162.159V62H160.599V60.524H157.419V59.264ZM158.775 59.264H160.599V56.42L158.775 59.264Z" fill="#2D2D2D" fill-opacity="0.9"/>
<path d="M92.5554 60.38H92.8954V61H92.4654C91.8721 61 91.4254 60.8 91.1254 60.4C90.8187 60.7933 90.3654 60.9933 89.7654 61H88.4954C87.7621 61 87.3954 61.38 87.3954 62.14V63.8L86.7254 64.15V62.12C86.7254 61.5667 86.8887 61.1333 87.2154 60.82C87.5087 60.5333 87.8987 60.3867 88.3854 60.38C88.0721 59.98 87.9154 59.4533 87.9154 58.8C87.9154 58.08 88.1021 57.5233 88.4754 57.13C88.8021 56.7767 89.2354 56.6 89.7754 56.6C90.3287 56.6 90.7554 56.7733 91.0554 57.12C91.3154 57.42 91.4454 57.82 91.4454 58.32V59.24C91.4454 60 91.8154 60.38 92.5554 60.38ZM90.7754 59.28V58.38C90.7754 57.6 90.4421 57.21 89.7754 57.21C89.3954 57.21 89.0987 57.35 88.8854 57.63C88.6787 57.91 88.5754 58.2967 88.5754 58.79C88.5754 59.29 88.6754 59.68 88.8754 59.96C89.0754 60.24 89.3521 60.38 89.7054 60.38C90.4187 60.38 90.7754 60.0133 90.7754 59.28ZM97.9849 54.69C97.7449 54.69 97.6249 54.5633 97.6249 54.31C97.6249 54.07 97.7449 53.95 97.9849 53.95C98.2249 53.95 98.3449 54.07 98.3449 54.31C98.3449 54.5633 98.2249 54.69 97.9849 54.69ZM97.4249 55.73C97.1516 55.73 97.0149 55.5933 97.0149 55.32C97.0149 55.0467 97.1516 54.91 97.4249 54.91C97.6849 54.91 97.8149 55.0467 97.8149 55.32C97.8149 55.5933 97.6849 55.73 97.4249 55.73ZM98.5649 55.73C98.2983 55.73 98.1649 55.5933 98.1649 55.32C98.1649 55.0467 98.2983 54.91 98.5649 54.91C98.8316 54.91 98.9649 55.0467 98.9649 55.32C98.9649 55.5933 98.8316 55.73 98.5649 55.73ZM92.6949 61V60.38H93.3049C94.0449 60.38 94.4149 60 94.4149 59.24V57.8L95.0849 57.45V59.24C95.0849 60 95.4516 60.38 96.1849 60.38H96.5549C97.2883 60.38 97.6549 60 97.6549 59.24V57.44L98.3249 57.08V59.24C98.3249 60 98.6949 60.38 99.4349 60.38H99.7949C100.535 60.38 100.905 60 100.905 59.24V57.07L101.575 56.72V59.26C101.575 59.8133 101.412 60.2467 101.085 60.56C100.792 60.8467 100.395 60.9933 99.8949 61H99.3449C98.7249 61 98.2749 60.78 97.9949 60.34C97.7083 60.78 97.2616 61 96.6549 61H96.1049C95.4849 61 95.0316 60.78 94.7449 60.34C94.4649 60.78 94.0149 61 93.3949 61H92.6949ZM104.683 60.52C104.683 61.7333 104.236 62.4933 103.343 62.8C103.129 62.8733 102.903 62.91 102.663 62.91C102.276 62.91 101.903 62.8167 101.543 62.63V62.04C101.883 62.2267 102.229 62.32 102.583 62.32C102.863 62.32 103.109 62.2567 103.323 62.13C103.789 61.85 104.023 61.3267 104.023 60.56V57.07L104.683 56.72V60.52ZM110.868 60.38V61H109.808C109.801 61.44 109.658 61.8267 109.378 62.16C109.105 62.5 108.748 62.7233 108.308 62.83C108.148 62.8767 107.975 62.9 107.788 62.9C107.401 62.9 107.025 62.8067 106.658 62.62V62.03C107.005 62.2167 107.348 62.31 107.688 62.31C107.961 62.31 108.201 62.25 108.408 62.13C108.615 62.0233 108.788 61.86 108.928 61.64C109.068 61.4267 109.138 61.2133 109.138 61L108.288 60.97C107.548 60.9367 106.995 60.7033 106.628 60.27C106.328 59.9033 106.178 59.4133 106.178 58.8C106.178 58.08 106.365 57.5233 106.738 57.13C107.071 56.7767 107.518 56.6 108.078 56.6C108.658 56.6 109.101 56.7733 109.408 57.12C109.675 57.42 109.808 57.82 109.808 58.32V60.38H110.868ZM109.138 58.39C109.138 57.6033 108.785 57.21 108.078 57.21C107.685 57.21 107.378 57.35 107.158 57.63C106.945 57.9033 106.838 58.29 106.838 58.79C106.838 59.7833 107.328 60.3033 108.308 60.35C108.601 60.37 108.878 60.38 109.138 60.38V58.39ZM115.784 60.38V61H110.664V60.38H112.344C111.924 59.9533 111.714 59.3867 111.714 58.68C111.714 58.0067 111.944 57.4733 112.404 57.08C112.77 56.7667 113.2 56.6067 113.694 56.6C114.38 56.6 114.917 56.87 115.304 57.41V58.07C114.904 57.4967 114.39 57.21 113.764 57.21H113.734C113.334 57.21 113.007 57.3467 112.754 57.62C112.507 57.8933 112.384 58.2533 112.384 58.7C112.384 59.2133 112.537 59.6233 112.844 59.93C113.137 60.23 113.53 60.38 114.024 60.38H115.784ZM124.714 60.38H125.054V61H124.624C124.03 61 123.584 60.8 123.284 60.4C122.977 60.7933 122.524 60.9933 121.924 61H120.654C119.92 61 119.554 61.38 119.554 62.14V63.8L118.884 64.15V62.12C118.884 61.5667 119.047 61.1333 119.374 60.82C119.667 60.5333 120.057 60.3867 120.544 60.38C120.23 59.98 120.074 59.4533 120.074 58.8C120.074 58.08 120.26 57.5233 120.634 57.13C120.96 56.7767 121.394 56.6 121.934 56.6C122.487 56.6 122.914 56.7733 123.214 57.12C123.474 57.42 123.604 57.82 123.604 58.32V59.24C123.604 60 123.974 60.38 124.714 60.38ZM122.934 59.28V58.38C122.934 57.6 122.6 57.21 121.934 57.21C121.554 57.21 121.257 57.35 121.044 57.63C120.837 57.91 120.734 58.2967 120.734 58.79C120.734 59.29 120.834 59.68 121.034 59.96C121.234 60.24 121.51 60.38 121.864 60.38C122.577 60.38 122.934 60.0133 122.934 59.28ZM130.163 60.38H130.413V61H130.083C129.483 61 129.033 60.7967 128.733 60.39C128.433 60.7967 127.98 61 127.373 61H124.853V60.38H127.303C128.03 60.38 128.393 59.99 128.393 59.21V59.11C128.393 58.5633 128.193 58.1533 127.793 57.88C127.473 57.6533 127.073 57.54 126.593 57.54C126.233 57.54 125.876 57.6033 125.523 57.73V57.07L127.793 54.55H128.483L126.433 56.87C126.5 56.8633 126.57 56.86 126.643 56.86C127.283 56.86 127.816 57.0233 128.243 57.35C128.79 57.77 129.063 58.3533 129.063 59.1V59.24C129.063 60 129.43 60.38 130.163 60.38ZM131.224 55.43C130.958 55.43 130.824 55.2933 130.824 55.02C130.824 54.7467 130.958 54.61 131.224 54.61C131.491 54.61 131.624 54.7467 131.624 55.02C131.624 55.2933 131.491 55.43 131.224 55.43ZM132.364 55.43C132.098 55.43 131.964 55.2933 131.964 55.02C131.964 54.7467 132.098 54.61 132.364 54.61C132.631 54.61 132.764 54.7467 132.764 55.02C132.764 55.2933 132.631 55.43 132.364 55.43ZM133.434 60.38H133.784V61H133.354C132.754 61 132.304 60.7967 132.004 60.39C131.691 60.7967 131.238 61 130.644 61H130.214V60.38H130.564C131.298 60.38 131.664 60 131.664 59.24V57.07L132.334 56.72V59.24C132.334 60 132.701 60.38 133.434 60.38ZM139.874 60.38H140.214V61H139.784C139.177 61 138.724 60.79 138.424 60.37C138.09 60.9233 137.584 61.2 136.904 61.2C136.217 61.2 135.71 60.9267 135.384 60.38C135.077 60.7933 134.62 61 134.014 61H133.584V60.38H133.934C134.667 60.38 135.034 60 135.034 59.24V58.9C135.034 58.1333 135.22 57.5467 135.594 57.14C135.92 56.78 136.357 56.6 136.904 56.6C137.53 56.6 138.007 56.8333 138.334 57.3C138.62 57.7 138.764 58.2333 138.764 58.9V59.24C138.764 60 139.134 60.38 139.874 60.38ZM136.904 60.58C137.27 60.58 137.56 60.43 137.774 60.13C137.987 59.8233 138.094 59.41 138.094 58.89C138.094 57.77 137.697 57.21 136.904 57.21C136.104 57.21 135.704 57.77 135.704 58.89C135.704 60.0167 136.104 60.58 136.904 60.58ZM140.009 61V60.38H140.289C141.049 60.38 141.429 59.9867 141.429 59.2V54.9L142.099 54.55V59.21C142.099 59.7767 141.933 60.2233 141.599 60.55C141.286 60.85 140.873 61 140.359 61H140.009Z" fill="#2D2D2D" fill-opacity="0.7"/>
<circle cx="35.9296" cy="58.371" r="3.83392" fill="#F7DCC9"/>
<circle cx="34.8339" cy="59.4662" r="3.83392" fill="white"/>
<rect x="60.498" y="98" width="155.548" height="30.6714" rx="6" fill="#F7F3F0"/>
<path d="M196.36 107.26C197.288 107.26 198.032 107.704 198.592 108.592C199.064 109.328 199.3 110.204 199.3 111.22C199.3 112.444 199 113.424 198.4 114.16C197.872 114.816 197.192 115.144 196.36 115.144C195.408 115.144 194.664 114.72 194.128 113.872C193.68 113.168 193.456 112.284 193.456 111.22C193.456 110.036 193.752 109.064 194.344 108.304C194.88 107.608 195.552 107.26 196.36 107.26ZM196.384 108.604C195.52 108.604 195.088 109.452 195.088 111.148C195.088 112.004 195.212 112.676 195.46 113.164C195.684 113.604 195.98 113.824 196.348 113.824C196.756 113.824 197.076 113.588 197.308 113.116C197.548 112.636 197.668 111.98 197.668 111.148C197.668 109.452 197.24 108.604 196.384 108.604ZM200.242 115V113.668C200.434 113.452 200.69 113.16 201.01 112.792C201.514 112.232 201.886 111.808 202.126 111.52C202.662 110.88 202.998 110.444 203.134 110.212C203.27 109.972 203.338 109.708 203.338 109.42C203.338 109.18 203.25 108.98 203.074 108.82C202.898 108.66 202.674 108.58 202.402 108.58C201.93 108.58 201.41 108.772 200.842 109.156L200.182 108.196C200.982 107.564 201.818 107.248 202.69 107.248C203.386 107.248 203.942 107.436 204.358 107.812C204.766 108.18 204.97 108.688 204.97 109.336C204.97 109.816 204.81 110.32 204.49 110.848C204.178 111.368 203.566 112.144 202.654 113.176C202.43 113.432 202.266 113.62 202.162 113.74H204.886V115H200.242Z" fill="#2D2D2D" fill-opacity="0.9"/>
<path d="M124.347 109.38H124.697V110H124.267C123.654 110 123.197 109.79 122.897 109.37C122.584 109.79 122.121 110 121.507 110H118.227L118.547 109.38H120.077V105.2L120.737 104.85V109.38H121.437C122.197 109.38 122.577 108.987 122.577 108.2V103.9L123.237 103.55V105.73L123.247 105.72V108.24C123.247 109 123.614 109.38 124.347 109.38ZM127.41 104.43C127.136 104.43 127 104.29 127 104.01C127 103.743 127.136 103.61 127.41 103.61C127.67 103.61 127.8 103.743 127.8 104.01C127.8 104.29 127.67 104.43 127.41 104.43ZM128.43 109.38H130.26V110H128C127.773 110 127.566 109.977 127.38 109.93C127.193 109.977 126.986 110 126.76 110H124.5V109.38H126.34C125.813 108.893 125.55 108.317 125.55 107.65C125.55 107.003 125.73 106.49 126.09 106.11C126.416 105.77 126.846 105.6 127.38 105.6C127.986 105.6 128.456 105.82 128.79 106.26C129.07 106.627 129.21 107.09 129.21 107.65C129.21 108.323 128.95 108.9 128.43 109.38ZM127.42 109.29C127.76 109.17 128.036 108.957 128.25 108.65C128.47 108.337 128.58 108 128.58 107.64C128.58 107.2 128.47 106.853 128.25 106.6C128.036 106.34 127.746 106.21 127.38 106.21C127.013 106.21 126.723 106.34 126.51 106.6C126.296 106.853 126.19 107.197 126.19 107.63C126.19 107.997 126.296 108.337 126.51 108.65C126.723 108.957 127 109.17 127.34 109.29L127.38 109.3L127.4 109.29H127.42ZM133.276 109.38H133.626V110H133.196C132.596 110 132.146 109.797 131.846 109.39C131.533 109.797 131.08 110 130.486 110H130.056V109.38H130.406C131.14 109.38 131.506 109 131.506 108.24V106.07L132.176 105.72V108.24C132.176 109 132.543 109.38 133.276 109.38ZM131.006 111.05C131.273 111.05 131.406 111.187 131.406 111.46C131.406 111.733 131.273 111.87 131.006 111.87C130.74 111.87 130.606 111.733 130.606 111.46C130.606 111.187 130.74 111.05 131.006 111.05ZM132.146 111.05C132.413 111.05 132.546 111.187 132.546 111.46C132.546 111.733 132.413 111.87 132.146 111.87C131.88 111.87 131.746 111.733 131.746 111.46C131.746 111.187 131.88 111.05 132.146 111.05ZM133.425 110V109.38H134.035C134.775 109.38 135.145 109 135.145 108.24V106.8L135.815 106.45V108.24C135.815 109 136.182 109.38 136.915 109.38H137.285C138.019 109.38 138.385 109 138.385 108.24V106.44L139.055 106.08V108.24C139.055 109 139.425 109.38 140.165 109.38H140.525C141.265 109.38 141.635 109 141.635 108.24V106.07L142.305 105.72V108.2C142.305 108.987 142.685 109.38 143.445 109.38H144.025V110H143.375C142.742 110 142.279 109.777 141.985 109.33C141.692 109.777 141.239 110 140.625 110H140.075C139.455 110 139.005 109.78 138.725 109.34C138.439 109.78 137.992 110 137.385 110H136.835C136.215 110 135.762 109.78 135.475 109.34C135.195 109.78 134.745 110 134.125 110H133.425ZM143.826 110V109.38H144.176C144.909 109.38 145.276 109 145.276 108.24V106.07L145.946 105.72V108.26C145.946 108.82 145.782 109.257 145.456 109.57C145.156 109.857 144.756 110 144.256 110H143.826ZM145.156 111.87C144.882 111.87 144.746 111.73 144.746 111.45C144.746 111.183 144.882 111.05 145.156 111.05C145.416 111.05 145.546 111.183 145.546 111.45C145.546 111.73 145.416 111.87 145.156 111.87ZM152.136 109.38V110H151.076C151.069 110.44 150.926 110.827 150.646 111.16C150.372 111.5 150.016 111.723 149.576 111.83C149.416 111.877 149.242 111.9 149.056 111.9C148.669 111.9 148.292 111.807 147.926 111.62V111.03C148.272 111.217 148.616 111.31 148.956 111.31C149.229 111.31 149.469 111.25 149.676 111.13C149.882 111.023 150.056 110.86 150.196 110.64C150.336 110.427 150.406 110.213 150.406 110L149.556 109.97C148.816 109.937 148.262 109.703 147.896 109.27C147.596 108.903 147.446 108.413 147.446 107.8C147.446 107.08 147.632 106.523 148.006 106.13C148.339 105.777 148.786 105.6 149.346 105.6C149.926 105.6 150.369 105.773 150.676 106.12C150.942 106.42 151.076 106.82 151.076 107.32V109.38H152.136ZM150.406 107.39C150.406 106.603 150.052 106.21 149.346 106.21C148.952 106.21 148.646 106.35 148.426 106.63C148.212 106.903 148.106 107.29 148.106 107.79C148.106 108.783 148.596 109.303 149.576 109.35C149.869 109.37 150.146 109.38 150.406 109.38V107.39ZM153.511 105.87C153.578 105.863 153.648 105.86 153.721 105.86C154.321 105.86 154.835 106.007 155.261 106.3C155.848 106.72 156.141 107.32 156.141 108.1V108.29C156.141 108.85 155.968 109.287 155.621 109.6C155.321 109.867 154.931 110 154.451 110H151.931V109.38H154.381C155.108 109.38 155.471 108.99 155.471 108.21V108.11C155.471 107.57 155.278 107.167 154.891 106.9C154.571 106.66 154.165 106.54 153.671 106.54C153.311 106.54 152.955 106.603 152.601 106.73V106.07L154.871 103.55H155.561L153.511 105.87ZM161.731 110C161.164 110 160.727 109.817 160.421 109.45C160.167 109.137 160.041 108.74 160.041 108.26V103.9L160.711 103.55V108.24C160.711 109 161.077 109.38 161.811 109.38H162.161V110H161.731ZM159.961 112.36L160.151 112H160.411C160.344 111.88 160.311 111.76 160.311 111.64C160.311 111.453 160.381 111.29 160.521 111.15C160.661 111.017 160.827 110.95 161.021 110.95C161.167 110.95 161.311 110.993 161.451 111.08V111.46C161.317 111.36 161.187 111.31 161.061 111.31C160.954 111.31 160.864 111.343 160.791 111.41C160.717 111.483 160.681 111.567 160.681 111.66C160.681 111.773 160.727 111.887 160.821 112H161.701L161.511 112.36H159.961ZM168.671 104.4C168.397 104.4 168.261 104.26 168.261 103.98C168.261 103.713 168.397 103.58 168.671 103.58C168.931 103.58 169.061 103.713 169.061 103.98C169.061 104.26 168.931 104.4 168.671 104.4ZM164.811 109.34C165.057 108.313 165.487 107.453 166.101 106.76C166.787 105.987 167.594 105.6 168.521 105.6C169.267 105.6 169.861 105.857 170.301 106.37C170.674 106.81 170.861 107.353 170.861 108V108.28C170.861 108.847 170.687 109.287 170.341 109.6C170.047 109.867 169.657 110 169.171 110H165.101C164.501 110 164.051 109.797 163.751 109.39C163.437 109.797 162.984 110 162.391 110H161.961V109.38H162.311C163.044 109.38 163.411 109 163.411 108.24V106.8L164.081 106.45V108.24C164.081 108.867 164.324 109.233 164.811 109.34ZM170.191 108.2V108C170.191 107.44 170.014 106.99 169.661 106.65C169.361 106.357 168.984 106.21 168.531 106.21C167.751 106.21 167.057 106.577 166.451 107.31C165.991 107.87 165.644 108.56 165.411 109.38H169.121C169.834 109.38 170.191 108.987 170.191 108.2ZM174.172 110C173.605 110 173.169 109.817 172.862 109.45C172.609 109.137 172.482 108.74 172.482 108.26V103.9L173.152 103.55V108.24C173.152 109 173.519 109.38 174.252 109.38H174.602V110H174.172ZM177.442 104.42C177.169 104.42 177.032 104.28 177.032 104C177.032 103.733 177.169 103.6 177.442 103.6C177.702 103.6 177.832 103.733 177.832 104C177.832 104.28 177.702 104.42 177.442 104.42ZM174.402 110V109.38H176.102C175.735 109.013 175.552 108.487 175.552 107.8C175.552 107.08 175.739 106.523 176.112 106.13C176.439 105.777 176.872 105.6 177.412 105.6C177.965 105.6 178.392 105.773 178.692 106.12C178.952 106.42 179.082 106.82 179.082 107.32V108.29C179.075 108.83 178.912 109.253 178.592 109.56C178.299 109.853 177.899 110 177.392 110H174.402ZM178.422 107.38C178.422 106.6 178.085 106.21 177.412 106.21C177.039 106.21 176.745 106.35 176.532 106.63C176.325 106.903 176.222 107.29 176.222 107.79C176.222 108.277 176.322 108.663 176.522 108.95C176.729 109.237 177.002 109.38 177.342 109.38C178.062 109.38 178.422 109.007 178.422 108.26V107.38ZM181.823 104.35C181.556 104.35 181.423 104.21 181.423 103.93C181.423 103.663 181.556 103.53 181.823 103.53C182.089 103.53 182.223 103.663 182.223 103.93C182.223 104.21 182.089 104.35 181.823 104.35ZM182.963 104.35C182.696 104.35 182.563 104.21 182.563 103.93C182.563 103.663 182.696 103.53 182.963 103.53C183.229 103.53 183.363 103.663 183.363 103.93C183.363 104.21 183.229 104.35 182.963 104.35ZM182.413 110C181.819 110 181.356 109.803 181.023 109.41C180.743 109.07 180.603 108.63 180.603 108.09C180.603 106.857 181.223 106.027 182.463 105.6C183.703 106.027 184.323 106.857 184.323 108.09C184.323 108.71 184.139 109.193 183.773 109.54C183.453 109.847 183.033 110 182.513 110H182.413ZM182.383 109.38H182.543C182.889 109.38 183.163 109.267 183.363 109.04C183.563 108.807 183.663 108.49 183.663 108.09C183.663 107.203 183.263 106.577 182.463 106.21C181.663 106.577 181.263 107.203 181.263 108.09C181.263 108.483 181.363 108.797 181.563 109.03C181.763 109.263 182.036 109.38 182.383 109.38ZM164.113 119.38H164.463V120H164.033C163.42 120 162.963 119.79 162.663 119.37C162.35 119.79 161.886 120 161.273 120H157.993L158.313 119.38H159.843V115.2L160.503 114.85V119.38H161.203C161.963 119.38 162.343 118.987 162.343 118.2V113.9L163.003 113.55V115.73L163.013 115.72V118.24C163.013 119 163.38 119.38 164.113 119.38ZM171.405 120H168.935C168.575 120 168.209 119.923 167.835 119.77C167.455 119.923 167.085 120 166.725 120H164.265V119.38H166.685C166.819 119.38 166.955 119.37 167.095 119.35C166.569 118.97 165.995 118.343 165.375 117.47V117.06C166.069 116.087 166.885 115.6 167.825 115.6C168.759 115.6 169.579 116.093 170.285 117.08V117.47C169.665 118.343 169.095 118.97 168.575 119.35C168.709 119.37 168.842 119.38 168.975 119.38H171.395L171.405 120ZM165.955 117.27C166.655 118.203 167.279 118.81 167.825 119.09C168.365 118.81 168.992 118.2 169.705 117.26C169.172 116.56 168.545 116.21 167.825 116.21H167.795C167.115 116.21 166.502 116.563 165.955 117.27ZM172.949 114.4C172.675 114.4 172.539 114.26 172.539 113.98C172.539 113.713 172.675 113.58 172.949 113.58C173.209 113.58 173.339 113.713 173.339 113.98C173.339 114.26 173.209 114.4 172.949 114.4ZM171.209 120V119.38H171.559C172.292 119.38 172.659 119 172.659 118.24V116.07L173.329 115.72V118.26C173.329 118.82 173.165 119.257 172.839 119.57C172.539 119.857 172.139 120 171.639 120H171.209ZM177.689 119.63C177.409 119.79 177.049 119.87 176.609 119.87C176.029 119.87 175.575 119.647 175.249 119.2C174.969 118.82 174.829 118.34 174.829 117.76C174.829 117.06 175.015 116.513 175.389 116.12C175.715 115.773 176.149 115.6 176.689 115.6C177.242 115.6 177.669 115.773 177.969 116.12C178.229 116.42 178.359 116.82 178.359 117.32V119.52C178.359 120.14 178.229 120.65 177.969 121.05C177.709 121.457 177.339 121.717 176.859 121.83C176.699 121.877 176.525 121.9 176.339 121.9C175.952 121.9 175.575 121.807 175.209 121.62V121.03C175.555 121.217 175.899 121.31 176.239 121.31C176.512 121.31 176.752 121.25 176.959 121.13C177.425 120.897 177.669 120.397 177.689 119.63ZM177.689 117.38C177.689 116.6 177.355 116.21 176.689 116.21C176.315 116.21 176.019 116.347 175.799 116.62C175.585 116.893 175.479 117.27 175.479 117.75C175.479 118.217 175.582 118.59 175.789 118.87C175.995 119.143 176.275 119.28 176.629 119.28C177.155 119.28 177.509 119.133 177.689 118.84V117.38ZM181.75 120C181.183 120 180.747 119.817 180.44 119.45C180.187 119.137 180.06 118.74 180.06 118.26V113.9L180.73 113.55V118.24C180.73 119 181.097 119.38 181.83 119.38H182.18V120H181.75ZM183.72 114.4C183.447 114.4 183.31 114.26 183.31 113.98C183.31 113.713 183.447 113.58 183.72 113.58C183.98 113.58 184.11 113.713 184.11 113.98C184.11 114.26 183.98 114.4 183.72 114.4ZM181.98 120V119.38H182.33C183.063 119.38 183.43 119 183.43 118.24V116.07L184.1 115.72V118.26C184.1 118.82 183.937 119.257 183.61 119.57C183.31 119.857 182.91 120 182.41 120H181.98Z" fill="#2D2D2D" fill-opacity="0.7"/>
<circle cx="76.9286" cy="113.142" r="3.83392" fill="#F7DCC9"/>
<circle cx="75.8339" cy="114.237" r="3.83392" fill="white"/>
<rect x="19.9683" y="148" width="151.166" height="30.6714" rx="6" fill="#F7F3F0"/>
<path d="M153.468 157.404V165H151.896V159.192C151.784 159.264 151.62 159.364 151.404 159.492C151.092 159.676 150.868 159.816 150.732 159.912C150.628 159.736 150.452 159.444 150.204 159.036L150.132 158.928C150.076 158.824 150.032 158.748 150 158.7C150.256 158.516 150.66 158.24 151.212 157.872C151.5 157.68 151.728 157.524 151.896 157.404H153.468ZM158.738 161.136C159.786 161.416 160.31 162.064 160.31 163.08C160.31 163.776 160.014 164.312 159.422 164.688C158.934 164.992 158.33 165.144 157.61 165.144C156.77 165.144 156.098 164.944 155.594 164.544C155.122 164.176 154.886 163.684 154.886 163.068C154.886 162.492 155.09 162.012 155.498 161.628C155.802 161.34 156.142 161.172 156.518 161.124C155.646 160.86 155.21 160.304 155.21 159.456C155.21 158.736 155.49 158.172 156.05 157.764C156.498 157.428 157.046 157.26 157.694 157.26C158.43 157.26 159.034 157.484 159.506 157.932C159.946 158.356 160.166 158.892 160.166 159.54C160.166 159.916 160.03 160.252 159.758 160.548C159.494 160.844 159.154 161.04 158.738 161.136ZM157.67 160.584C157.942 160.504 158.166 160.356 158.342 160.14C158.518 159.916 158.606 159.68 158.606 159.432C158.606 159.144 158.522 158.912 158.354 158.736C158.194 158.56 157.986 158.472 157.73 158.472C157.434 158.472 157.194 158.564 157.01 158.748C156.834 158.924 156.746 159.16 156.746 159.456C156.746 160 157.054 160.376 157.67 160.584ZM157.706 161.664C157.346 161.752 157.058 161.916 156.842 162.156C156.626 162.388 156.518 162.656 156.518 162.96C156.518 163.24 156.622 163.472 156.83 163.656C157.038 163.832 157.302 163.92 157.622 163.92C157.926 163.92 158.174 163.836 158.366 163.668C158.566 163.492 158.666 163.268 158.666 162.996C158.666 162.692 158.574 162.416 158.39 162.168C158.214 161.92 157.986 161.752 157.706 161.664Z" fill="#2D2D2D" fill-opacity="0.9"/>
<path d="M82.03 163.38H82.37V164H81.94C81.3467 164 80.9 163.8 80.6 163.4C80.2933 163.793 79.84 163.993 79.24 164H77.97C77.2367 164 76.87 164.38 76.87 165.14V166.8L76.2 167.15V165.12C76.2 164.567 76.3633 164.133 76.69 163.82C76.9833 163.533 77.3733 163.387 77.86 163.38C77.5467 162.98 77.39 162.453 77.39 161.8C77.39 161.08 77.5767 160.523 77.95 160.13C78.2767 159.777 78.71 159.6 79.25 159.6C79.8033 159.6 80.23 159.773 80.53 160.12C80.79 160.42 80.92 160.82 80.92 161.32V162.24C80.92 163 81.29 163.38 82.03 163.38ZM80.25 162.28V161.38C80.25 160.6 79.9167 160.21 79.25 160.21C78.87 160.21 78.5733 160.35 78.36 160.63C78.1533 160.91 78.05 161.297 78.05 161.79C78.05 162.29 78.15 162.68 78.35 162.96C78.55 163.24 78.8267 163.38 79.18 163.38C79.8933 163.38 80.25 163.013 80.25 162.28ZM87.4595 157.69C87.2195 157.69 87.0995 157.563 87.0995 157.31C87.0995 157.07 87.2195 156.95 87.4595 156.95C87.6995 156.95 87.8195 157.07 87.8195 157.31C87.8195 157.563 87.6995 157.69 87.4595 157.69ZM86.8995 158.73C86.6262 158.73 86.4895 158.593 86.4895 158.32C86.4895 158.047 86.6262 157.91 86.8995 157.91C87.1595 157.91 87.2895 158.047 87.2895 158.32C87.2895 158.593 87.1595 158.73 86.8995 158.73ZM88.0395 158.73C87.7729 158.73 87.6395 158.593 87.6395 158.32C87.6395 158.047 87.7729 157.91 88.0395 157.91C88.3062 157.91 88.4395 158.047 88.4395 158.32C88.4395 158.593 88.3062 158.73 88.0395 158.73ZM82.1695 164V163.38H82.7795C83.5195 163.38 83.8895 163 83.8895 162.24V160.8L84.5595 160.45V162.24C84.5595 163 84.9262 163.38 85.6595 163.38H86.0295C86.7629 163.38 87.1295 163 87.1295 162.24V160.44L87.7995 160.08V162.24C87.7995 163 88.1695 163.38 88.9095 163.38H89.2695C90.0095 163.38 90.3795 163 90.3795 162.24V160.07L91.0495 159.72V162.26C91.0495 162.813 90.8862 163.247 90.5595 163.56C90.2662 163.847 89.8695 163.993 89.3695 164H88.8195C88.1995 164 87.7495 163.78 87.4695 163.34C87.1829 163.78 86.7362 164 86.1295 164H85.5795C84.9595 164 84.5062 163.78 84.2195 163.34C83.9395 163.78 83.4895 164 82.8695 164H82.1695ZM92.8473 164V157.9L93.5173 157.55V164H92.8473ZM98.3923 163.38H98.7423V164H98.3123C97.8989 164 97.5556 163.9 97.2823 163.7C97.2289 164.807 96.7823 165.507 95.9423 165.8C95.7289 165.873 95.5023 165.91 95.2623 165.91C94.8756 165.91 94.5023 165.817 94.1423 165.63V165.04C94.4823 165.227 94.8289 165.32 95.1823 165.32C95.4623 165.32 95.7089 165.257 95.9223 165.13C96.3889 164.85 96.6223 164.327 96.6223 163.56V160.07L97.2823 159.72V159.73L97.2923 159.72V162.24C97.2923 163 97.6589 163.38 98.3923 163.38ZM101.766 163.38H102.116V164H101.686C101.086 164 100.636 163.797 100.336 163.39C100.023 163.797 99.5698 164 98.9765 164H98.5465V163.38H98.8965C99.6298 163.38 99.9965 163 99.9965 162.24V160.07L100.666 159.72V162.24C100.666 163 101.033 163.38 101.766 163.38ZM99.4965 165.05C99.7632 165.05 99.8965 165.187 99.8965 165.46C99.8965 165.733 99.7632 165.87 99.4965 165.87C99.2298 165.87 99.0965 165.733 99.0965 165.46C99.0965 165.187 99.2298 165.05 99.4965 165.05ZM100.636 165.05C100.903 165.05 101.036 165.187 101.036 165.46C101.036 165.733 100.903 165.87 100.636 165.87C100.37 165.87 100.236 165.733 100.236 165.46C100.236 165.187 100.37 165.05 100.636 165.05ZM107.036 163.38V164H101.916V163.38H103.596C103.176 162.953 102.966 162.387 102.966 161.68C102.966 161.007 103.196 160.473 103.656 160.08C104.022 159.767 104.452 159.607 104.946 159.6C105.632 159.6 106.169 159.87 106.556 160.41V161.07C106.156 160.497 105.642 160.21 105.016 160.21H104.986C104.586 160.21 104.259 160.347 104.006 160.62C103.759 160.893 103.636 161.253 103.636 161.7C103.636 162.213 103.789 162.623 104.096 162.93C104.389 163.23 104.782 163.38 105.276 163.38H107.036ZM113.126 159.42C112.852 159.42 112.716 159.28 112.716 159C112.716 158.733 112.852 158.6 113.126 158.6C113.386 158.6 113.516 158.733 113.516 159C113.516 159.28 113.386 159.42 113.126 159.42ZM116.826 163.38H117.176V164H116.746C116.332 164 115.989 163.903 115.716 163.71C115.669 164.41 115.389 164.96 114.876 165.36C114.422 165.72 113.849 165.9 113.156 165.9C112.309 165.9 111.652 165.6 111.186 165C110.819 164.54 110.636 163.99 110.636 163.35C110.636 162.777 110.782 162.283 111.076 161.87L111.726 161.74C111.406 162.227 111.246 162.747 111.246 163.3C111.246 163.887 111.436 164.37 111.816 164.75C112.169 165.103 112.616 165.28 113.156 165.28C113.789 165.28 114.279 165.093 114.626 164.72C114.912 164.413 115.056 164.01 115.056 163.51V160.07L115.726 159.72V162.24C115.726 163 116.092 163.38 116.826 163.38ZM122.264 157.69C122.024 157.69 121.904 157.563 121.904 157.31C121.904 157.07 122.024 156.95 122.264 156.95C122.504 156.95 122.624 157.07 122.624 157.31C122.624 157.563 122.504 157.69 122.264 157.69ZM121.704 158.73C121.431 158.73 121.294 158.593 121.294 158.32C121.294 158.047 121.431 157.91 121.704 157.91C121.964 157.91 122.094 158.047 122.094 158.32C122.094 158.593 121.964 158.73 121.704 158.73ZM122.844 158.73C122.578 158.73 122.444 158.593 122.444 158.32C122.444 158.047 122.578 157.91 122.844 157.91C123.111 157.91 123.244 158.047 123.244 158.32C123.244 158.593 123.111 158.73 122.844 158.73ZM116.974 164V163.38H117.584C118.324 163.38 118.694 163 118.694 162.24V160.8L119.364 160.45V162.24C119.364 163 119.731 163.38 120.464 163.38H120.834C121.568 163.38 121.934 163 121.934 162.24V160.44L122.604 160.08V162.24C122.604 163 122.974 163.38 123.714 163.38H124.074C124.814 163.38 125.184 163 125.184 162.24V160.07L125.854 159.72V162.2C125.854 162.987 126.234 163.38 126.994 163.38H127.574V164H126.924C126.291 164 125.828 163.777 125.534 163.33C125.241 163.777 124.788 164 124.174 164H123.624C123.004 164 122.554 163.78 122.274 163.34C121.988 163.78 121.541 164 120.934 164H120.384C119.764 164 119.311 163.78 119.024 163.34C118.744 163.78 118.294 164 117.674 164H116.974ZM129.685 161.75C130.465 160.317 131.498 159.6 132.785 159.6C133.531 159.6 134.125 159.857 134.565 160.37C134.938 160.81 135.125 161.353 135.125 162V162.35C135.125 163.45 134.645 164 133.685 164H127.375V163.38H129.065V157.9L129.685 157.55V161.75ZM134.455 162C134.455 161.44 134.278 160.99 133.925 160.65C133.625 160.357 133.248 160.21 132.795 160.21C132.015 160.21 131.321 160.587 130.715 161.34C130.255 161.907 129.915 162.587 129.695 163.38H133.615C133.935 163.38 134.155 163.307 134.275 163.16C134.395 163.007 134.455 162.73 134.455 162.33V162ZM137.784 158.35C137.517 158.35 137.384 158.21 137.384 157.93C137.384 157.663 137.517 157.53 137.784 157.53C138.05 157.53 138.184 157.663 138.184 157.93C138.184 158.21 138.05 158.35 137.784 158.35ZM138.924 158.35C138.657 158.35 138.524 158.21 138.524 157.93C138.524 157.663 138.657 157.53 138.924 157.53C139.19 157.53 139.324 157.663 139.324 157.93C139.324 158.21 139.19 158.35 138.924 158.35ZM138.374 164C137.78 164 137.317 163.803 136.984 163.41C136.704 163.07 136.564 162.63 136.564 162.09C136.564 160.857 137.184 160.027 138.424 159.6C139.664 160.027 140.284 160.857 140.284 162.09C140.284 162.71 140.1 163.193 139.734 163.54C139.414 163.847 138.994 164 138.474 164H138.374ZM138.344 163.38H138.504C138.85 163.38 139.124 163.267 139.324 163.04C139.524 162.807 139.624 162.49 139.624 162.09C139.624 161.203 139.224 160.577 138.424 160.21C137.624 160.577 137.224 161.203 137.224 162.09C137.224 162.483 137.324 162.797 137.524 163.03C137.724 163.263 137.997 163.38 138.344 163.38Z" fill="#2D2D2D" fill-opacity="0.7"/>
<circle cx="35.9286" cy="162.435" r="3.83392" fill="#F7DCC9"/>
<circle cx="34.8339" cy="163.53" r="3.83392" fill="white"/>
<circle cx="199.615" cy="60.0141" r="16.4311" fill="#D6EADE"/>
<circle cx="199.616" cy="60.0141" r="7.0419" fill="#FCFCFA"/>
<path d="M201.85 58.8032L198.256 62.3975L196.459 60.6004" stroke="#051B2A" stroke-linecap="round" stroke-linejoin="round"/>
<circle cx="35.8517" cy="114.237" r="15.8834" fill="#F3B545"/>
<path d="M35.8535 107.785C36.9742 107.785 38.0755 108.076 39.0491 108.631C40.0227 109.186 40.8351 109.985 41.4061 110.949C41.9771 111.914 42.2872 113.01 42.3058 114.13C42.3243 115.251 42.0508 116.357 41.512 117.34L42.0394 119.195C42.089 119.365 42.0921 119.546 42.0485 119.719C42.0049 119.891 41.916 120.048 41.7912 120.175C41.6663 120.3 41.5099 120.39 41.3384 120.433C41.1669 120.477 40.9867 120.474 40.8171 120.423L38.9557 119.896C38.0932 120.369 37.1339 120.638 36.1513 120.683C35.1686 120.728 34.1887 120.548 33.2863 120.157C32.3839 119.765 31.5829 119.173 30.9447 118.424C30.3064 117.676 29.8477 116.791 29.6036 115.838C29.3595 114.886 29.3365 113.889 29.5364 112.926C29.7362 111.963 30.1536 111.058 30.7567 110.281C31.3598 109.504 32.1325 108.875 33.0159 108.443C33.8993 108.01 34.8699 107.785 35.8535 107.785ZM33.8681 115.726H37.8389C37.9706 115.726 38.0968 115.674 38.1899 115.581C38.283 115.488 38.3353 115.362 38.3353 115.23C38.3353 115.098 38.283 114.972 38.1899 114.879C38.0968 114.786 37.9706 114.734 37.8389 114.734H33.8681C33.7365 114.734 33.6102 114.786 33.5171 114.879C33.424 114.972 33.3717 115.098 33.3717 115.23C33.3717 115.362 33.424 115.488 33.5171 115.581C33.6102 115.674 33.7365 115.726 33.8681 115.726ZM33.8681 113.741H37.8389C37.9706 113.741 38.0968 113.689 38.1899 113.596C38.283 113.502 38.3353 113.376 38.3353 113.245C38.3353 113.113 38.283 112.987 38.1899 112.894C38.0968 112.801 37.9706 112.748 37.8389 112.748H33.8681C33.7365 112.748 33.6102 112.801 33.5171 112.894C33.424 112.987 33.3717 113.113 33.3717 113.245C33.3717 113.376 33.424 113.502 33.5171 113.596C33.6102 113.689 33.7365 113.741 33.8681 113.741Z" fill="#9B7301"/>
<circle cx="200.711" cy="164.078" r="15.3357" fill="#F7DCC9"/>
<g opacity="0.5">
<path d="M205.971 163.491C205.954 163.414 205.917 163.342 205.865 163.282C205.812 163.223 205.746 163.177 205.672 163.149L202.221 161.855L203.096 157.464C203.116 157.363 203.103 157.257 203.059 157.163C203.015 157.07 202.942 156.992 202.85 156.943C202.758 156.894 202.652 156.877 202.55 156.894C202.447 156.912 202.352 156.962 202.281 157.039L195.572 164.228C195.517 164.285 195.477 164.355 195.456 164.431C195.435 164.507 195.434 164.588 195.452 164.665C195.471 164.742 195.508 164.813 195.56 164.872C195.612 164.932 195.678 164.978 195.752 165.006L199.202 166.3L198.328 170.691C198.307 170.793 198.32 170.899 198.365 170.992C198.409 171.086 198.482 171.163 198.573 171.213C198.642 171.247 198.718 171.266 198.795 171.266C198.86 171.267 198.924 171.254 198.984 171.228C199.044 171.202 199.098 171.164 199.142 171.117L205.852 163.928C205.907 163.871 205.946 163.801 205.967 163.725C205.988 163.648 205.99 163.568 205.971 163.491Z" fill="#051B2A"/>
</g>
</svg>
