<svg width="479" height="272" viewBox="0 0 479 272" fill="none" xmlns="http://www.w3.org/2000/svg">
<rect width="404.028" height="271.736" rx="18" fill="white"/>
<rect x="0.5" y="0.5" width="403.028" height="270.736" rx="17.5" stroke="#F3B546" stroke-opacity="0.5"/>
<circle cx="36.9454" cy="30.9874" r="5.95912" fill="#FE7747"/>
<circle cx="56.0153" cy="30.9874" r="5.95912" fill="#FE7747"/>
<circle cx="75.0831" cy="30.9874" r="5.95912" fill="#FE7747"/>
<rect x="106.073" y="19.0693" width="137.06" height="23.8365" rx="10" fill="#F0E7E0"/>
<rect x="248" y="76.5093" width="126.864" height="11.6389" rx="5.81945" fill="#F0E7E0"/>
<rect x="281" y="142.852" width="94.2751" height="9.31112" rx="4.65556" fill="#F0E7E0"/>
<rect x="311" y="204.538" width="64.014" height="10.475" rx="5.23751" fill="#F0E7E0"/>
<rect x="122" y="92.8037" width="252.667" height="11.9182" rx="5.95912" fill="#F7F3F0"/>
<rect x="122" y="157.321" width="252.667" height="9.53459" rx="4.7673" fill="#F7F3F0"/>
<rect x="183" y="219.668" width="192.042" height="9.31112" rx="4.65556" fill="#F7F3F0"/>
<rect x="351.588" y="19.0688" width="23.8365" height="23.8365" rx="10" fill="#F7F3F0"/>
<g filter="url(#filter0_d_187_744)">
<circle cx="400.992" cy="95.9922" r="39.9922" fill="#FE7747"/>
</g>
<path d="M400.991 109.323V82.6616" stroke="white" stroke-width="2" stroke-linecap="round" stroke-linejoin="round"/>
<path d="M390.086 93.5686L400.993 82.6616L411.9 93.5686" stroke="white" stroke-width="2" stroke-linecap="round" stroke-linejoin="round"/>
<defs>
<filter id="filter0_d_187_744" x="323" y="32" width="155.984" height="155.984" filterUnits="userSpaceOnUse" color-interpolation-filters="sRGB">
<feFlood flood-opacity="0" result="BackgroundImageFix"/>
<feColorMatrix in="SourceAlpha" type="matrix" values="0 0 0 0 0 0 0 0 0 0 0 0 0 0 0 0 0 0 127 0" result="hardAlpha"/>
<feMorphology radius="5" operator="erode" in="SourceAlpha" result="effect1_dropShadow_187_744"/>
<feOffset dy="14"/>
<feGaussianBlur stdDeviation="21.5"/>
<feComposite in2="hardAlpha" operator="out"/>
<feColorMatrix type="matrix" values="0 0 0 0 0.0745098 0 0 0 0 0.0588235 0 0 0 0 0.14902 0 0 0 0.45 0"/>
<feBlend mode="normal" in2="BackgroundImageFix" result="effect1_dropShadow_187_744"/>
<feBlend mode="normal" in="SourceGraphic" in2="effect1_dropShadow_187_744" result="shape"/>
</filter>
</defs>
</svg>
