<svg width="206" height="311" viewBox="0 0 206 311" fill="none" xmlns="http://www.w3.org/2000/svg">
<rect width="206" height="311" rx="10" fill="white"/>
<path d="M83.8825 58.8076V60H81.8439C81.8311 60.8462 81.5554 61.5898 81.0169 62.2309C80.4913 62.8848 79.8053 63.3143 78.9591 63.5194C78.6514 63.6092 78.3181 63.654 77.9591 63.654C77.2155 63.654 76.4911 63.4745 75.7859 63.1155V61.9809C76.4526 62.3399 77.1129 62.5194 77.7668 62.5194C78.2924 62.5194 78.754 62.404 79.1515 62.1732C79.5489 61.9681 79.8823 61.6539 80.1515 61.2308C80.4208 60.8206 80.5554 60.4103 80.5554 60L78.9207 59.9423C77.4975 59.8782 76.4334 59.4295 75.7282 58.5961C75.1512 57.8909 74.8628 56.9486 74.8628 55.769C74.8628 54.3843 75.2218 53.3137 75.9397 52.5573C76.5808 51.8778 77.4398 51.538 78.5168 51.538C79.6323 51.538 80.4849 51.8714 81.0746 52.5381C81.5875 53.115 81.8439 53.8843 81.8439 54.8459V58.8076H83.8825ZM80.5554 54.9805C80.5554 53.4676 79.8759 52.7112 78.5168 52.7112C77.7604 52.7112 77.1706 52.9804 76.7475 53.5189C76.3372 54.0446 76.1321 54.7882 76.1321 55.7498C76.1321 57.6601 77.0744 58.6602 78.9591 58.7499C79.5233 58.7884 80.0554 58.8076 80.5554 58.8076V54.9805ZM102.721 58.8076H103.394V60H102.567C101.413 60 100.548 59.609 99.9709 58.8269C99.394 59.609 98.5221 60 97.3554 60H89.5281C88.3742 60 87.5087 59.609 86.9318 58.8269C86.3292 59.609 85.4573 60 84.3162 60H83.4893V58.8076H84.1624C85.5727 58.8076 86.2779 58.0768 86.2779 56.6152V53.8458L87.5664 53.1727V56.6152C87.5664 57.8204 88.0344 58.5256 88.9703 58.7307C89.4447 56.7562 90.2717 55.1023 91.4512 53.7689C92.7718 52.2816 94.3232 51.538 96.1053 51.538C97.5413 51.538 98.6824 52.0316 99.5286 53.0189C100.247 53.8651 100.606 54.91 100.606 56.1536V56.6537C100.606 58.0896 101.311 58.8076 102.721 58.8076ZM97.2592 58.8076C98.6311 58.8076 99.317 58.0512 99.317 56.5383V56.1536C99.317 55.0767 98.9773 54.2112 98.2978 53.5574C97.7208 52.9932 96.9964 52.7112 96.1246 52.7112C94.6245 52.7112 93.2911 53.4163 92.1244 54.8266C91.2397 55.9036 90.573 57.2306 90.1242 58.8076H97.2592ZM108.849 49.2687C108.324 49.2687 108.061 48.9994 108.061 48.4609C108.061 47.9481 108.324 47.6917 108.849 47.6917C109.349 47.6917 109.599 47.9481 109.599 48.4609C109.599 48.9994 109.349 49.2687 108.849 49.2687ZM103.003 60V58.8076H106.272C105.567 58.1025 105.214 57.0896 105.214 55.769C105.214 54.3843 105.573 53.3137 106.291 52.5573C106.92 51.8778 107.753 51.538 108.792 51.538C109.856 51.538 110.676 51.8714 111.253 52.5381C111.753 53.115 112.003 53.8843 112.003 54.8459V56.7114C111.99 57.7499 111.676 58.564 111.061 59.1538C110.497 59.7179 109.727 60 108.753 60H103.003ZM110.734 54.9613C110.734 53.4612 110.086 52.7112 108.792 52.7112C108.074 52.7112 107.509 52.9804 107.099 53.5189C106.702 54.0446 106.503 54.7882 106.503 55.7498C106.503 56.6857 106.695 57.4294 107.08 57.9807C107.477 58.532 108.003 58.8076 108.657 58.8076C110.042 58.8076 110.734 58.0896 110.734 56.6537V54.9613ZM130.318 58.8076H130.991V60H130.164C128.985 60 128.106 59.5961 127.529 58.7884C126.927 59.5961 126.036 60 124.856 60H118.548L119.164 58.8076H122.106V50.7687L123.375 50.0956V58.8076H124.722C126.183 58.8076 126.914 58.0512 126.914 56.5383V48.2686L128.183 47.5955V51.788L128.203 51.7688V56.6152C128.203 58.0768 128.908 58.8076 130.318 58.8076ZM142.708 58.8076H143.362V60H142.535C141.368 60 140.496 59.5961 139.919 58.7884C139.278 59.8526 138.304 60.3846 136.996 60.3846C135.675 60.3846 134.701 59.859 134.073 58.8076C133.483 59.6025 132.605 60 131.438 60H130.611V58.8076H131.284C132.694 58.8076 133.4 58.0768 133.4 56.6152V55.9613C133.4 54.4869 133.759 53.3586 134.477 52.5765C135.105 51.8842 135.945 51.538 136.996 51.538C138.201 51.538 139.118 51.9868 139.746 52.8842C140.297 53.6535 140.573 54.6792 140.573 55.9613V56.6152C140.573 58.0768 141.285 58.8076 142.708 58.8076ZM136.996 59.1923C137.701 59.1923 138.259 58.9038 138.669 58.3268C139.079 57.7371 139.284 56.9421 139.284 55.9421C139.284 53.7881 138.522 52.7112 136.996 52.7112C135.457 52.7112 134.688 53.7881 134.688 55.9421C134.688 58.1089 135.457 59.1923 136.996 59.1923ZM146.181 49.2302C145.655 49.2302 145.392 48.961 145.392 48.4225C145.392 47.9096 145.655 47.6532 146.181 47.6532C146.681 47.6532 146.931 47.9096 146.931 48.4225C146.931 48.961 146.681 49.2302 146.181 49.2302ZM149.161 58.8076H149.835V60H149.008C147.854 60 146.988 59.609 146.411 58.8269C145.809 59.609 144.937 60 143.796 60H142.969V58.8076H143.642C145.052 58.8076 145.757 58.0768 145.757 56.6152V52.4419L147.046 51.7688V56.6152C147.046 58.0768 147.751 58.8076 149.161 58.8076ZM151.391 49.2879C150.878 49.2879 150.621 49.0251 150.621 48.4994C150.621 47.9737 150.878 47.7109 151.391 47.7109C151.904 47.7109 152.16 47.9737 152.16 48.4994C152.16 49.0251 151.904 49.2879 151.391 49.2879ZM153.583 49.2879C153.07 49.2879 152.814 49.0251 152.814 48.4994C152.814 47.9737 153.07 47.7109 153.583 47.7109C154.096 47.7109 154.352 47.9737 154.352 48.4994C154.352 49.0251 154.096 49.2879 153.583 49.2879ZM155.641 58.8076H156.314V60H155.487C154.333 60 153.468 59.609 152.891 58.8269C152.288 59.609 151.416 60 150.275 60H149.448V58.8076H150.121C151.532 58.8076 152.237 58.0768 152.237 56.6152V52.4419L153.525 51.7688V56.6152C153.525 58.0768 154.231 58.8076 155.641 58.8076ZM155.928 60V58.8076H158.082C160.877 58.8076 163.056 57.8589 164.621 55.9613C163.479 53.7817 162.101 52.6919 160.486 52.6919C159.383 52.6919 158.306 53.2496 157.255 54.3651V53.0958C158.306 52.0573 159.402 51.538 160.543 51.538H160.582C162.595 51.538 164.338 52.8971 165.813 55.6152V56.4037C163.941 58.8012 161.358 60 158.062 60H155.928ZM161.005 63.5963C160.479 63.5963 160.216 63.3271 160.216 62.7886C160.216 62.2758 160.479 62.0193 161.005 62.0193C161.505 62.0193 161.755 62.2758 161.755 62.7886C161.755 63.3271 161.505 63.5963 161.005 63.5963ZM171.75 60C170.66 60 169.82 59.6474 169.231 58.9423C168.743 58.3397 168.5 57.5768 168.5 56.6537V48.2686L169.788 47.5955V56.6152C169.788 58.0768 170.493 58.8076 171.904 58.8076H172.577V60H171.75ZM173.346 49.2302C172.82 49.2302 172.558 48.961 172.558 48.4225C172.558 47.9096 172.82 47.6532 173.346 47.6532C173.846 47.6532 174.096 47.9096 174.096 48.4225C174.096 48.961 173.846 49.2302 173.346 49.2302ZM175.538 49.2302C175.013 49.2302 174.75 48.961 174.75 48.4225C174.75 47.9096 175.013 47.6532 175.538 47.6532C176.039 47.6532 176.289 47.9096 176.289 48.4225C176.289 48.961 176.039 49.2302 175.538 49.2302ZM172.192 60V58.8076H172.865C174.276 58.8076 174.981 58.0768 174.981 56.6152V52.4419L176.269 51.7688V56.6537C176.269 57.7306 175.955 58.5704 175.327 59.173C174.75 59.7243 173.981 60 173.019 60H172.192Z" fill="#FE7747"/>
<rect x="28" y="120" width="150.358" height="5.24503" fill="#F7F3F0"/>
<rect x="28" y="146.245" width="150.358" height="5.24503" fill="#F7F3F0"/>
<rect x="28" y="172.49" width="150.358" height="5.24503" fill="#F7F3F0"/>
<rect x="28" y="198.735" width="150.358" height="5.24503" fill="#F7F3F0"/>
<rect x="28" y="224.98" width="150.358" height="5.24503" fill="#F7F3F0"/>
<rect x="69" y="251.226" width="109.272" height="5.24503" fill="#F7F3F0"/>
</svg>
