<svg width="319" height="450" viewBox="0 0 319 450" fill="none" xmlns="http://www.w3.org/2000/svg">
<rect width="230" height="450" rx="8" fill="white"/>
<rect x="14.9092" y="21" width="200" height="34" rx="17" fill="white"/>
<path opacity="0.8" d="M35.0214 43L32.1975 32.8182H33.8133L35.797 40.7031H35.8914L37.9546 32.8182H39.5555L41.6187 40.7081H41.7132L43.6919 32.8182H45.3126L42.4838 43H40.9376L38.7948 35.3736H38.7153L36.5725 43H35.0214ZM49.0587 43.1541C48.3428 43.1541 47.718 42.9901 47.1844 42.6619C46.6508 42.3338 46.2365 41.8748 45.9415 41.2848C45.6465 40.6948 45.499 40.0054 45.499 39.2166C45.499 38.4245 45.6465 37.7318 45.9415 37.1385C46.2365 36.5452 46.6508 36.0845 47.1844 35.7564C47.718 35.4283 48.3428 35.2642 49.0587 35.2642C49.7746 35.2642 50.3994 35.4283 50.933 35.7564C51.4666 36.0845 51.8809 36.5452 52.1759 37.1385C52.4709 37.7318 52.6183 38.4245 52.6183 39.2166C52.6183 40.0054 52.4709 40.6948 52.1759 41.2848C51.8809 41.8748 51.4666 42.3338 50.933 42.6619C50.3994 42.9901 49.7746 43.1541 49.0587 43.1541ZM49.0637 41.9062C49.5277 41.9062 49.9121 41.7836 50.2171 41.5384C50.522 41.2931 50.7474 40.9666 50.8932 40.5589C51.0423 40.1513 51.1169 39.7022 51.1169 39.2116C51.1169 38.7244 51.0423 38.277 50.8932 37.8693C50.7474 37.4583 50.522 37.1286 50.2171 36.88C49.9121 36.6314 49.5277 36.5071 49.0637 36.5071C48.5963 36.5071 48.2085 36.6314 47.9003 36.88C47.5954 37.1286 47.3683 37.4583 47.2192 37.8693C47.0734 38.277 47.0004 38.7244 47.0004 39.2116C47.0004 39.7022 47.0734 40.1513 47.2192 40.5589C47.3683 40.9666 47.5954 41.2931 47.9003 41.5384C48.2085 41.7836 48.5963 41.9062 49.0637 41.9062ZM54.2776 43V35.3636H55.7144V36.5767H55.7939C55.9331 36.1657 56.1784 35.8426 56.5297 35.6072C56.8844 35.3686 57.2854 35.2493 57.7329 35.2493C57.8257 35.2493 57.935 35.2526 58.061 35.2592C58.1903 35.2659 58.2913 35.2741 58.3643 35.2841V36.706C58.3046 36.6894 58.1985 36.6712 58.0461 36.6513C57.8936 36.6281 57.7412 36.6165 57.5887 36.6165C57.2374 36.6165 56.9242 36.6911 56.6491 36.8402C56.3773 36.986 56.1618 37.1899 56.0028 37.4517C55.8437 37.7102 55.7641 38.0052 55.7641 38.3366V43H54.2776ZM61.0178 40.4098L61.0079 38.5952H61.2664L64.309 35.3636H66.0889L62.6187 39.0426H62.385L61.0178 40.4098ZM59.6507 43V32.8182H61.1372V43H59.6507ZM64.4731 43L61.7387 39.3707L62.7629 38.3317L66.2977 43H64.4731ZM73.1659 37.228L71.8186 37.4666C71.7623 37.2943 71.6728 37.1302 71.5502 36.9744C71.4308 36.8187 71.2684 36.6911 71.0629 36.5916C70.8575 36.4922 70.6006 36.4425 70.2923 36.4425C69.8714 36.4425 69.5201 36.5369 69.2384 36.7259C68.9566 36.9115 68.8158 37.1518 68.8158 37.4467C68.8158 37.7019 68.9102 37.9074 69.0992 38.0632C69.2881 38.219 69.593 38.3466 70.0139 38.446L71.227 38.7244C71.9297 38.8868 72.4533 39.1371 72.798 39.4751C73.1427 39.8132 73.3151 40.2524 73.3151 40.7926C73.3151 41.25 73.1825 41.6577 72.9173 42.0156C72.6555 42.3703 72.2893 42.6487 71.8186 42.8509C71.3513 43.053 70.8094 43.1541 70.1929 43.1541C69.3378 43.1541 68.6401 42.9718 68.0999 42.6072C67.5596 42.2393 67.2282 41.7173 67.1056 41.0412L68.5423 40.8224C68.6318 41.197 68.8158 41.4804 69.0942 41.6726C69.3726 41.8615 69.7355 41.956 70.183 41.956C70.6702 41.956 71.0596 41.8549 71.3513 41.6527C71.643 41.4472 71.7888 41.197 71.7888 40.902C71.7888 40.6634 71.6993 40.4628 71.5203 40.3004C71.3447 40.138 71.0745 40.0154 70.71 39.9325L69.4173 39.6491C68.7048 39.4867 68.1778 39.2282 67.8364 38.8736C67.4983 38.5189 67.3293 38.0698 67.3293 37.5263C67.3293 37.0755 67.4552 36.6811 67.7071 36.343C67.959 36.005 68.307 35.7415 68.7512 35.5526C69.1953 35.3603 69.704 35.2642 70.2774 35.2642C71.1027 35.2642 71.7523 35.4432 72.2263 35.8011C72.7003 36.1558 73.0135 36.6314 73.1659 37.228ZM74.9495 45.8636V35.3636H76.4012V36.6016H76.5255C76.6117 36.4425 76.7359 36.2585 76.8983 36.0497C77.0608 35.8409 77.2861 35.6586 77.5745 35.5028C77.8628 35.3438 78.244 35.2642 78.718 35.2642C79.3344 35.2642 79.8846 35.42 80.3685 35.7315C80.8524 36.0431 81.2319 36.4922 81.507 37.0788C81.7854 37.6655 81.9246 38.3714 81.9246 39.1967C81.9246 40.022 81.7871 40.7296 81.512 41.3196C81.2369 41.9062 80.859 42.3587 80.3785 42.6768C79.8979 42.9917 79.3493 43.1491 78.7329 43.1491C78.2689 43.1491 77.8894 43.0713 77.5944 42.9155C77.3027 42.7597 77.074 42.5774 76.9083 42.3686C76.7426 42.1598 76.615 41.9742 76.5255 41.8118H76.436V45.8636H74.9495ZM76.4062 39.1818C76.4062 39.7187 76.484 40.1894 76.6398 40.5938C76.7956 40.9981 77.021 41.3146 77.316 41.5433C77.6109 41.7687 77.9722 41.8814 78.3998 41.8814C78.8439 41.8814 79.2151 41.7637 79.5134 41.5284C79.8117 41.2898 80.0371 40.9666 80.1895 40.5589C80.3453 40.1513 80.4232 39.6922 80.4232 39.1818C80.4232 38.678 80.347 38.2256 80.1945 37.8246C80.0454 37.4235 79.82 37.107 79.5184 36.875C79.2201 36.643 78.8472 36.527 78.3998 36.527C77.9689 36.527 77.6043 36.638 77.306 36.8601C77.011 37.0821 76.7873 37.392 76.6349 37.7898C76.4824 38.1875 76.4062 38.6515 76.4062 39.1818ZM85.8124 43.169C85.3285 43.169 84.891 43.0795 84.4999 42.9006C84.1088 42.7183 83.7989 42.4548 83.5702 42.1101C83.3448 41.7654 83.2322 41.3428 83.2322 40.8423C83.2322 40.4115 83.315 40.0568 83.4807 39.7784C83.6465 39.5 83.8702 39.2796 84.1519 39.1172C84.4336 38.9548 84.7485 38.8321 85.0965 38.7493C85.4445 38.6664 85.7992 38.6035 86.1604 38.5604C86.6178 38.5073 86.989 38.4643 87.2741 38.4311C87.5591 38.3946 87.7662 38.3366 87.8955 38.2571C88.0248 38.1776 88.0894 38.0483 88.0894 37.8693V37.8345C88.0894 37.4003 87.9668 37.0639 87.7215 36.8253C87.4796 36.5866 87.1183 36.4673 86.6377 36.4673C86.1372 36.4673 85.7428 36.5784 85.4545 36.8004C85.1694 37.0192 84.9722 37.2628 84.8628 37.5312L83.4658 37.2131C83.6315 36.7491 83.8735 36.3745 84.1917 36.0895C84.5132 35.8011 84.8827 35.5923 85.3003 35.4631C85.718 35.3305 86.1571 35.2642 86.6178 35.2642C86.9227 35.2642 87.2459 35.3007 87.5873 35.3736C87.932 35.4432 88.2535 35.5724 88.5518 35.7614C88.8534 35.9503 89.1003 36.2204 89.2925 36.5717C89.4848 36.9197 89.5809 37.3722 89.5809 37.929V43H88.1292V41.956H88.0695C87.9734 42.1482 87.8292 42.3371 87.637 42.5227C87.4448 42.7083 87.1978 42.8625 86.8962 42.9851C86.5946 43.1077 86.2333 43.169 85.8124 43.169ZM86.1356 41.9759C86.5465 41.9759 86.8979 41.8946 87.1895 41.7322C87.4845 41.5698 87.7082 41.3577 87.8607 41.0959C88.0165 40.8307 88.0944 40.5473 88.0944 40.2457V39.2614C88.0413 39.3144 87.9386 39.3641 87.7861 39.4105C87.637 39.4536 87.4663 39.4917 87.2741 39.5249C87.0818 39.5547 86.8946 39.5829 86.7123 39.6094C86.53 39.6326 86.3775 39.6525 86.2549 39.669C85.9665 39.7055 85.703 39.7668 85.4644 39.853C85.2291 39.9392 85.0402 40.0634 84.8976 40.2259C84.7584 40.3849 84.6888 40.5971 84.6888 40.8622C84.6888 41.2301 84.8247 41.5085 85.0965 41.6974C85.3683 41.883 85.7146 41.9759 86.1356 41.9759ZM94.7774 43.1541C94.0383 43.1541 93.402 42.9867 92.8683 42.652C92.338 42.3139 91.9304 41.8482 91.6453 41.255C91.3603 40.6617 91.2178 39.9822 91.2178 39.2166C91.2178 38.4411 91.3636 37.7566 91.6553 37.1634C91.9469 36.5668 92.3579 36.1011 92.8882 35.7663C93.4185 35.4316 94.0433 35.2642 94.7625 35.2642C95.3425 35.2642 95.8596 35.3719 96.3137 35.5874C96.7677 35.7995 97.134 36.0978 97.4124 36.4822C97.6941 36.8667 97.8615 37.3158 97.9145 37.8295H96.4678C96.3882 37.4716 96.2059 37.1634 95.9209 36.9048C95.6392 36.6463 95.2613 36.517 94.7874 36.517C94.3731 36.517 94.0102 36.6264 93.6986 36.8452C93.3904 37.0606 93.1501 37.3688 92.9777 37.7699C92.8054 38.1676 92.7192 38.6383 92.7192 39.1818C92.7192 39.7386 92.8037 40.2192 92.9727 40.6236C93.1418 41.0279 93.3804 41.3411 93.6887 41.5632C94.0002 41.7853 94.3664 41.8963 94.7874 41.8963C95.0691 41.8963 95.3243 41.8449 95.553 41.7422C95.785 41.6361 95.9789 41.4853 96.1347 41.2898C96.2938 41.0942 96.4048 40.8589 96.4678 40.5838H97.9145C97.8615 41.0777 97.7007 41.5185 97.4323 41.9062C97.1638 42.294 96.8042 42.599 96.3534 42.821C95.906 43.0431 95.3807 43.1541 94.7774 43.1541ZM102.795 43.1541C102.043 43.1541 101.395 42.9934 100.851 42.6719C100.311 42.3471 99.8936 41.8913 99.5986 41.3047C99.307 40.7147 99.1611 40.0237 99.1611 39.2315C99.1611 38.4493 99.307 37.7599 99.5986 37.1634C99.8936 36.5668 100.305 36.1011 100.832 35.7663C101.362 35.4316 101.982 35.2642 102.691 35.2642C103.122 35.2642 103.539 35.3355 103.944 35.478C104.348 35.6205 104.711 35.8442 105.033 36.1491C105.354 36.4541 105.608 36.8501 105.793 37.3374C105.979 37.8213 106.072 38.4096 106.072 39.1023V39.6293H100.001V38.5156H104.615C104.615 38.1245 104.535 37.7782 104.376 37.4766C104.217 37.1716 103.994 36.9313 103.705 36.7557C103.42 36.58 103.085 36.4922 102.701 36.4922C102.283 36.4922 101.919 36.5949 101.607 36.8004C101.299 37.0026 101.06 37.2678 100.891 37.5959C100.726 37.9207 100.643 38.2737 100.643 38.6548V39.5249C100.643 40.0353 100.732 40.4695 100.911 40.8274C101.093 41.1854 101.347 41.4588 101.672 41.6477C101.997 41.8333 102.376 41.9261 102.81 41.9261C103.092 41.9261 103.349 41.8864 103.581 41.8068C103.813 41.724 104.013 41.6013 104.182 41.4389C104.351 41.2765 104.481 41.076 104.57 40.8374L105.977 41.0909C105.864 41.5052 105.662 41.8681 105.371 42.1797C105.082 42.4879 104.719 42.7282 104.282 42.9006C103.848 43.0696 103.352 43.1541 102.795 43.1541ZM113.443 37.228L112.096 37.4666C112.04 37.2943 111.95 37.1302 111.828 36.9744C111.708 36.8187 111.546 36.6911 111.34 36.5916C111.135 36.4922 110.878 36.4425 110.57 36.4425C110.149 36.4425 109.797 36.5369 109.516 36.7259C109.234 36.9115 109.093 37.1518 109.093 37.4467C109.093 37.7019 109.188 37.9074 109.377 38.0632C109.565 38.219 109.87 38.3466 110.291 38.446L111.504 38.7244C112.207 38.8868 112.731 39.1371 113.075 39.4751C113.42 39.8132 113.592 40.2524 113.592 40.7926C113.592 41.25 113.46 41.6577 113.195 42.0156C112.933 42.3703 112.567 42.6487 112.096 42.8509C111.629 43.053 111.087 43.1541 110.47 43.1541C109.615 43.1541 108.917 42.9718 108.377 42.6072C107.837 42.2393 107.506 41.7173 107.383 41.0412L108.82 40.8224C108.909 41.197 109.093 41.4804 109.372 41.6726C109.65 41.8615 110.013 41.956 110.46 41.956C110.948 41.956 111.337 41.8549 111.629 41.6527C111.92 41.4472 112.066 41.197 112.066 40.902C112.066 40.6634 111.977 40.4628 111.798 40.3004C111.622 40.138 111.352 40.0154 110.987 39.9325L109.695 39.6491C108.982 39.4867 108.455 39.2282 108.114 38.8736C107.776 38.5189 107.607 38.0698 107.607 37.5263C107.607 37.0755 107.733 36.6811 107.984 36.343C108.236 36.005 108.584 35.7415 109.028 35.5526C109.473 35.3603 109.981 35.2642 110.555 35.2642C111.38 35.2642 112.03 35.4432 112.504 35.8011C112.978 36.1558 113.291 36.6314 113.443 37.228Z" fill="#2D2D2D" fill-opacity="0.9"/>
<g opacity="0.7">
<path d="M189.612 42.2812C192.693 42.2812 195.19 39.7838 195.19 36.7031C195.19 33.6224 192.693 31.125 189.612 31.125C186.532 31.125 184.034 33.6224 184.034 36.7031C184.034 39.7838 186.532 42.2812 189.612 42.2812Z" stroke="#777777" stroke-width="1.5" stroke-linecap="round" stroke-linejoin="round"/>
<path d="M193.558 40.6475L196.785 43.8748" stroke="#777777" stroke-width="1.5" stroke-linecap="round" stroke-linejoin="round"/>
</g>
<rect x="14.9092" y="75" width="92" height="8" rx="4" fill="#D6CFDD"/>
<rect x="14.9092" y="193" width="135" height="8" rx="4" fill="#D6CFDD"/>
<rect x="14.9092" y="281" width="135" height="8" rx="4" fill="#D6CFDD"/>
<rect x="14.9092" y="369" width="135" height="8" rx="4" fill="#D6CFDD"/>
<rect x="14.9092" y="230" width="100" height="8" rx="4" fill="#D6CFDD"/>
<rect x="14.9092" y="318" width="100" height="8" rx="4" fill="#D6CFDD"/>
<rect x="14.9092" y="406" width="100" height="8" rx="4" fill="#D6CFDD"/>
<rect x="14.9092" y="89" width="48" height="6" rx="3" fill="#CCC5D3"/>
<rect x="14.9092" y="207" width="70" height="6" rx="3" fill="#CCC5D3"/>
<rect x="14.9092" y="295" width="70" height="6" rx="3" fill="#CCC5D3"/>
<rect x="14.9092" y="383" width="70" height="6" rx="3" fill="#CCC5D3"/>
<rect x="14.9092" y="244" width="70" height="6" rx="3" fill="#CCC5D3"/>
<rect x="14.9092" y="332" width="70" height="6" rx="3" fill="#CCC5D3"/>
<rect x="14.9092" y="420" width="70" height="6" rx="3" fill="#CCC5D3"/>
<g filter="url(#filter0_d_73_786)">
<rect x="31.9092" y="111.723" width="255.091" height="64.5536" rx="10" fill="white"/>
</g>
<path d="M51.7072 139.341V130.614H52.764V134.5H57.4174V130.614H58.4743V139.341H57.4174V135.437H52.764V139.341H51.7072ZM62.4998 139.494C62.085 139.494 61.7086 139.416 61.3705 139.26C61.0325 139.101 60.764 138.872 60.5651 138.574C60.3663 138.273 60.2668 137.909 60.2668 137.483C60.2668 137.108 60.3407 136.804 60.4884 136.571C60.6362 136.335 60.8336 136.15 61.0808 136.017C61.3279 135.883 61.6006 135.784 61.8989 135.719C62.2001 135.65 62.5026 135.597 62.8066 135.557C63.2043 135.506 63.5268 135.467 63.7739 135.442C64.0239 135.413 64.2058 135.366 64.3194 135.301C64.4359 135.236 64.4941 135.122 64.4941 134.96V134.926C64.4941 134.506 64.3791 134.179 64.1489 133.946C63.9217 133.713 63.5765 133.597 63.1134 133.597C62.6333 133.597 62.2569 133.702 61.9842 133.912C61.7114 134.122 61.5197 134.347 61.4089 134.585L60.4543 134.244C60.6248 133.847 60.8521 133.537 61.1362 133.315C61.4231 133.091 61.7356 132.935 62.0737 132.847C62.4146 132.756 62.7498 132.71 63.0793 132.71C63.2896 132.71 63.531 132.736 63.8038 132.787C64.0793 132.835 64.345 132.936 64.6006 133.089C64.8592 133.243 65.0737 133.474 65.2441 133.784C65.4146 134.094 65.4998 134.508 65.4998 135.028V139.341H64.4941V138.454H64.443C64.3748 138.597 64.2612 138.748 64.1021 138.91C63.943 139.072 63.7313 139.21 63.4671 139.324C63.2029 139.437 62.8805 139.494 62.4998 139.494ZM62.6532 138.591C63.0509 138.591 63.3862 138.513 63.6589 138.356C63.9345 138.2 64.1418 137.998 64.281 137.751C64.4231 137.504 64.4941 137.244 64.4941 136.972V136.051C64.4515 136.102 64.3577 136.149 64.2129 136.192C64.0708 136.231 63.906 136.267 63.7185 136.298C63.5339 136.327 63.3535 136.352 63.1774 136.375C63.0041 136.395 62.8634 136.412 62.7555 136.426C62.4941 136.46 62.2498 136.516 62.0225 136.592C61.7981 136.666 61.6163 136.778 61.4771 136.929C61.3407 137.077 61.2725 137.278 61.2725 137.534C61.2725 137.883 61.4018 138.148 61.6603 138.327C61.9217 138.503 62.2526 138.591 62.6532 138.591ZM72.5733 132.795L70.1528 139.341H69.1301L66.7096 132.795H67.8005L69.6074 138.011H69.6755L71.4824 132.795H72.5733ZM76.5306 139.477C75.9 139.477 75.3559 139.338 74.8985 139.06C74.444 138.778 74.0931 138.386 73.846 137.883C73.6017 137.378 73.4795 136.79 73.4795 136.119C73.4795 135.449 73.6017 134.858 73.846 134.347C74.0931 133.832 74.4369 133.432 74.8772 133.145C75.3204 132.855 75.8375 132.71 76.4284 132.71C76.7693 132.71 77.1059 132.767 77.4383 132.881C77.7707 132.994 78.0732 133.179 78.346 133.435C78.6187 133.687 78.836 134.023 78.998 134.44C79.1599 134.858 79.2409 135.372 79.2409 135.983V136.409H74.1954V135.54H78.2181C78.2181 135.17 78.1443 134.841 77.9965 134.551C77.8517 134.261 77.6443 134.033 77.3744 133.865C77.1073 133.697 76.792 133.614 76.4284 133.614C76.0278 133.614 75.6812 133.713 75.3886 133.912C75.0988 134.108 74.8758 134.364 74.7196 134.679C74.5633 134.994 74.4852 135.332 74.4852 135.693V136.273C74.4852 136.767 74.5704 137.186 74.7409 137.53C74.9142 137.871 75.1542 138.131 75.461 138.31C75.7678 138.486 76.1244 138.574 76.5306 138.574C76.7948 138.574 77.0335 138.537 77.2465 138.463C77.4625 138.386 77.6485 138.273 77.8048 138.122C77.961 137.969 78.0818 137.778 78.167 137.551L79.1386 137.824C79.0363 138.153 78.8644 138.443 78.623 138.693C78.3815 138.94 78.0832 139.133 77.7281 139.273C77.373 139.409 76.9738 139.477 76.5306 139.477ZM86.8573 139.477C86.3118 139.477 85.8303 139.339 85.4127 139.064C84.9951 138.785 84.6684 138.393 84.4326 137.888C84.1968 137.379 84.0789 136.778 84.0789 136.085C84.0789 135.398 84.1968 134.801 84.4326 134.295C84.6684 133.79 84.9965 133.399 85.4169 133.123C85.8374 132.848 86.3232 132.71 86.8743 132.71C87.3005 132.71 87.6371 132.781 87.8843 132.923C88.1343 133.062 88.3246 133.222 88.4553 133.4C88.5888 133.577 88.6925 133.722 88.7664 133.835H88.8516V130.614H89.8573V139.341H88.8857V138.335H88.7664C88.6925 138.454 88.5874 138.605 88.451 138.787C88.3147 138.966 88.1201 139.126 87.8672 139.268C87.6144 139.408 87.2777 139.477 86.8573 139.477ZM86.9936 138.574C87.3971 138.574 87.738 138.469 88.0164 138.258C88.2948 138.045 88.5064 137.751 88.6513 137.376C88.7962 136.998 88.8686 136.562 88.8686 136.068C88.8686 135.579 88.7976 135.152 88.6556 134.785C88.5135 134.416 88.3033 134.129 88.0249 133.925C87.7465 133.717 87.4027 133.614 86.9936 133.614C86.5675 133.614 86.2124 133.723 85.9283 133.942C85.6471 134.158 85.4354 134.452 85.2934 134.824C85.1542 135.193 85.0846 135.608 85.0846 136.068C85.0846 136.534 85.1556 136.957 85.2976 137.338C85.4425 137.716 85.6556 138.017 85.9368 138.241C86.2209 138.463 86.5732 138.574 86.9936 138.574ZM91.9588 139.341V132.795H92.9645V139.341H91.9588ZM92.4702 131.704C92.2742 131.704 92.1051 131.638 91.9631 131.504C91.8239 131.371 91.7543 131.21 91.7543 131.023C91.7543 130.835 91.8239 130.675 91.9631 130.541C92.1051 130.408 92.2742 130.341 92.4702 130.341C92.6662 130.341 92.8338 130.408 92.973 130.541C93.1151 130.675 93.1861 130.835 93.1861 131.023C93.1861 131.21 93.1151 131.371 92.973 131.504C92.8338 131.638 92.6662 131.704 92.4702 131.704ZM97.8412 132.795V133.648H94.3128V132.795H97.8412ZM95.3697 139.341V131.892C95.3697 131.517 95.4577 131.204 95.6339 130.954C95.81 130.704 96.0387 130.517 96.3199 130.392C96.6012 130.267 96.8981 130.204 97.2106 130.204C97.4577 130.204 97.6594 130.224 97.8157 130.264C97.9719 130.304 98.0884 130.341 98.1651 130.375L97.8753 131.244C97.8242 131.227 97.7532 131.206 97.6623 131.18C97.5742 131.155 97.4577 131.142 97.3128 131.142C96.9804 131.142 96.7404 131.226 96.5927 131.393C96.4478 131.561 96.3753 131.807 96.3753 132.131V139.341H95.3697ZM102.285 132.795V133.648H98.7571V132.795H102.285ZM99.8139 139.341V131.892C99.8139 131.517 99.9019 131.204 100.078 130.954C100.254 130.704 100.483 130.517 100.764 130.392C101.045 130.267 101.342 130.204 101.655 130.204C101.902 130.204 102.104 130.224 102.26 130.264C102.416 130.304 102.533 130.341 102.609 130.375L102.32 131.244C102.268 131.227 102.197 131.206 102.106 131.18C102.018 131.155 101.902 131.142 101.757 131.142C101.425 131.142 101.185 131.226 101.037 131.393C100.892 131.561 100.82 131.807 100.82 132.131V139.341H99.8139ZM106.29 139.477C105.659 139.477 105.115 139.338 104.658 139.06C104.203 138.778 103.852 138.386 103.605 137.883C103.361 137.378 103.239 136.79 103.239 136.119C103.239 135.449 103.361 134.858 103.605 134.347C103.852 133.832 104.196 133.432 104.636 133.145C105.079 132.855 105.597 132.71 106.187 132.71C106.528 132.71 106.865 132.767 107.197 132.881C107.53 132.994 107.832 133.179 108.105 133.435C108.378 133.687 108.595 134.023 108.757 134.44C108.919 134.858 109 135.372 109 135.983V136.409H103.954V135.54H107.977C107.977 135.17 107.903 134.841 107.756 134.551C107.611 134.261 107.403 134.033 107.133 133.865C106.866 133.697 106.551 133.614 106.187 133.614C105.787 133.614 105.44 133.713 105.148 133.912C104.858 134.108 104.635 134.364 104.479 134.679C104.322 134.994 104.244 135.332 104.244 135.693V136.273C104.244 136.767 104.329 137.186 104.5 137.53C104.673 137.871 104.913 138.131 105.22 138.31C105.527 138.486 105.883 138.574 106.29 138.574C106.554 138.574 106.793 138.537 107.006 138.463C107.222 138.386 107.408 138.273 107.564 138.122C107.72 137.969 107.841 137.778 107.926 137.551L108.898 137.824C108.795 138.153 108.624 138.443 108.382 138.693C108.141 138.94 107.842 139.133 107.487 139.273C107.132 139.409 106.733 139.477 106.29 139.477ZM110.65 139.341V132.795H111.621V133.784H111.69C111.809 133.46 112.025 133.197 112.337 132.996C112.65 132.794 113.002 132.693 113.394 132.693C113.468 132.693 113.56 132.695 113.671 132.697C113.782 132.7 113.866 132.704 113.922 132.71V133.733C113.888 133.724 113.81 133.712 113.688 133.695C113.569 133.675 113.442 133.665 113.309 133.665C112.991 133.665 112.707 133.731 112.457 133.865C112.209 133.996 112.013 134.177 111.869 134.41C111.726 134.641 111.655 134.903 111.655 135.199V139.341H110.65ZM117.78 139.477C117.149 139.477 116.605 139.338 116.148 139.06C115.693 138.778 115.342 138.386 115.095 137.883C114.851 137.378 114.729 136.79 114.729 136.119C114.729 135.449 114.851 134.858 115.095 134.347C115.342 133.832 115.686 133.432 116.126 133.145C116.569 132.855 117.087 132.71 117.677 132.71C118.018 132.71 118.355 132.767 118.687 132.881C119.02 132.994 119.322 133.179 119.595 133.435C119.868 133.687 120.085 134.023 120.247 134.44C120.409 134.858 120.49 135.372 120.49 135.983V136.409H115.444V135.54H119.467C119.467 135.17 119.393 134.841 119.246 134.551C119.101 134.261 118.893 134.033 118.623 133.865C118.356 133.697 118.041 133.614 117.677 133.614C117.277 133.614 116.93 133.713 116.638 133.912C116.348 134.108 116.125 134.364 115.969 134.679C115.812 134.994 115.734 135.332 115.734 135.693V136.273C115.734 136.767 115.819 137.186 115.99 137.53C116.163 137.871 116.403 138.131 116.71 138.31C117.017 138.486 117.373 138.574 117.78 138.574C118.044 138.574 118.283 138.537 118.496 138.463C118.712 138.386 118.898 138.273 119.054 138.122C119.21 137.969 119.331 137.778 119.416 137.551L120.388 137.824C120.285 138.153 120.114 138.443 119.872 138.693C119.631 138.94 119.332 139.133 118.977 139.273C118.622 139.409 118.223 139.477 117.78 139.477ZM123.145 135.403V139.341H122.14V132.795H123.111V133.818H123.197C123.35 133.486 123.583 133.219 123.895 133.017C124.208 132.812 124.611 132.71 125.106 132.71C125.549 132.71 125.937 132.801 126.269 132.983C126.601 133.162 126.86 133.435 127.045 133.801C127.229 134.165 127.322 134.625 127.322 135.182V139.341H126.316V135.25C126.316 134.736 126.182 134.335 125.915 134.048C125.648 133.758 125.282 133.614 124.816 133.614C124.495 133.614 124.208 133.683 123.955 133.822C123.705 133.962 123.508 134.165 123.363 134.432C123.218 134.699 123.145 135.023 123.145 135.403ZM132.126 132.795V133.648H128.734V132.795H132.126ZM129.722 131.227H130.728V137.466C130.728 137.75 130.769 137.963 130.852 138.105C130.937 138.244 131.045 138.338 131.176 138.386C131.309 138.432 131.45 138.454 131.597 138.454C131.708 138.454 131.799 138.449 131.87 138.437C131.941 138.423 131.998 138.412 132.041 138.403L132.245 139.307C132.177 139.332 132.082 139.358 131.96 139.383C131.838 139.412 131.683 139.426 131.495 139.426C131.211 139.426 130.933 139.365 130.66 139.243C130.39 139.121 130.166 138.935 129.987 138.685C129.811 138.435 129.722 138.119 129.722 137.739V131.227ZM138.737 139.341L136.742 132.795H137.799L139.214 137.807H139.282L140.68 132.795H141.754L143.134 137.79H143.203L144.617 132.795H145.674L143.68 139.341H142.691L141.259 134.312H141.157L139.725 139.341H138.737ZM149.56 139.477C148.969 139.477 148.451 139.337 148.005 139.055C147.562 138.774 147.215 138.381 146.965 137.875C146.718 137.369 146.594 136.778 146.594 136.102C146.594 135.42 146.718 134.825 146.965 134.317C147.215 133.808 147.562 133.413 148.005 133.132C148.451 132.851 148.969 132.71 149.56 132.71C150.151 132.71 150.668 132.851 151.111 133.132C151.557 133.413 151.904 133.808 152.151 134.317C152.401 134.825 152.526 135.42 152.526 136.102C152.526 136.778 152.401 137.369 152.151 137.875C151.904 138.381 151.557 138.774 151.111 139.055C150.668 139.337 150.151 139.477 149.56 139.477ZM149.56 138.574C150.009 138.574 150.378 138.459 150.668 138.229C150.958 137.998 151.172 137.696 151.312 137.321C151.451 136.946 151.52 136.54 151.52 136.102C151.52 135.665 151.451 135.257 151.312 134.879C151.172 134.501 150.958 134.196 150.668 133.963C150.378 133.73 150.009 133.614 149.56 133.614C149.111 133.614 148.742 133.73 148.452 133.963C148.162 134.196 147.948 134.501 147.809 134.879C147.669 135.257 147.6 135.665 147.6 136.102C147.6 136.54 147.669 136.946 147.809 137.321C147.948 137.696 148.162 137.998 148.452 138.229C148.742 138.459 149.111 138.574 149.56 138.574ZM154.181 139.341V132.795H155.153V133.784H155.221C155.34 133.46 155.556 133.197 155.869 132.996C156.181 132.794 156.533 132.693 156.925 132.693C156.999 132.693 157.092 132.695 157.202 132.697C157.313 132.7 157.397 132.704 157.454 132.71V133.733C157.42 133.724 157.342 133.712 157.22 133.695C157.1 133.675 156.974 133.665 156.84 133.665C156.522 133.665 156.238 133.731 155.988 133.865C155.741 133.996 155.545 134.177 155.4 134.41C155.258 134.641 155.187 134.903 155.187 135.199V139.341H154.181ZM159.704 136.954L159.686 135.71H159.891L162.755 132.795H163.999L160.948 135.881H160.863L159.704 136.954ZM158.766 139.341V130.614H159.772V139.341H158.766ZM162.925 139.341L160.368 136.102L161.084 135.403L164.204 139.341H162.925ZM170.05 134.261L169.146 134.517C169.089 134.366 169.006 134.22 168.895 134.078C168.787 133.933 168.639 133.814 168.452 133.72C168.264 133.626 168.024 133.579 167.732 133.579C167.331 133.579 166.997 133.672 166.73 133.856C166.466 134.038 166.334 134.27 166.334 134.551C166.334 134.801 166.425 134.998 166.607 135.143C166.788 135.288 167.072 135.409 167.459 135.506L168.43 135.744C169.016 135.886 169.452 136.104 169.739 136.396C170.026 136.686 170.169 137.06 170.169 137.517C170.169 137.892 170.061 138.227 169.845 138.523C169.632 138.818 169.334 139.051 168.95 139.222C168.567 139.392 168.121 139.477 167.612 139.477C166.945 139.477 166.392 139.332 165.955 139.043C165.517 138.753 165.24 138.329 165.124 137.773L166.078 137.534C166.169 137.886 166.341 138.15 166.594 138.327C166.849 138.503 167.183 138.591 167.595 138.591C168.064 138.591 168.436 138.491 168.712 138.293C168.99 138.091 169.129 137.849 169.129 137.568C169.129 137.341 169.05 137.15 168.891 136.997C168.732 136.841 168.487 136.724 168.158 136.648L167.067 136.392C166.467 136.25 166.027 136.03 165.746 135.731C165.467 135.43 165.328 135.054 165.328 134.602C165.328 134.233 165.432 133.906 165.639 133.622C165.849 133.338 166.135 133.115 166.496 132.953C166.859 132.791 167.271 132.71 167.732 132.71C168.379 132.71 168.888 132.852 169.257 133.136C169.629 133.42 169.893 133.795 170.05 134.261ZM171.803 141.795V132.795H172.774V133.835H172.894C172.968 133.722 173.07 133.577 173.201 133.4C173.334 133.222 173.524 133.062 173.772 132.923C174.022 132.781 174.36 132.71 174.786 132.71C175.337 132.71 175.823 132.848 176.243 133.123C176.664 133.399 176.992 133.79 177.228 134.295C177.463 134.801 177.581 135.398 177.581 136.085C177.581 136.778 177.463 137.379 177.228 137.888C176.992 138.393 176.665 138.785 176.247 139.064C175.83 139.339 175.348 139.477 174.803 139.477C174.382 139.477 174.046 139.408 173.793 139.268C173.54 139.126 173.345 138.966 173.209 138.787C173.073 138.605 172.968 138.454 172.894 138.335H172.809V141.795H171.803ZM172.792 136.068C172.792 136.562 172.864 136.998 173.009 137.376C173.154 137.751 173.365 138.045 173.644 138.258C173.922 138.469 174.263 138.574 174.667 138.574C175.087 138.574 175.438 138.463 175.719 138.241C176.003 138.017 176.216 137.716 176.358 137.338C176.503 136.957 176.576 136.534 176.576 136.068C176.576 135.608 176.505 135.193 176.363 134.824C176.223 134.452 176.012 134.158 175.728 133.942C175.446 133.723 175.093 133.614 174.667 133.614C174.257 133.614 173.914 133.717 173.635 133.925C173.357 134.129 173.147 134.416 173.005 134.785C172.863 135.152 172.792 135.579 172.792 136.068ZM181.162 139.494C180.747 139.494 180.37 139.416 180.032 139.26C179.694 139.101 179.426 138.872 179.227 138.574C179.028 138.273 178.929 137.909 178.929 137.483C178.929 137.108 179.002 136.804 179.15 136.571C179.298 136.335 179.495 136.15 179.742 136.017C179.99 135.883 180.262 135.784 180.561 135.719C180.862 135.65 181.164 135.597 181.468 135.557C181.866 135.506 182.188 135.467 182.436 135.442C182.686 135.413 182.867 135.366 182.981 135.301C183.098 135.236 183.156 135.122 183.156 134.96V134.926C183.156 134.506 183.041 134.179 182.811 133.946C182.583 133.713 182.238 133.597 181.775 133.597C181.295 133.597 180.919 133.702 180.646 133.912C180.373 134.122 180.181 134.347 180.071 134.585L179.116 134.244C179.287 133.847 179.514 133.537 179.798 133.315C180.085 133.091 180.397 132.935 180.735 132.847C181.076 132.756 181.412 132.71 181.741 132.71C181.951 132.71 182.193 132.736 182.465 132.787C182.741 132.835 183.007 132.936 183.262 133.089C183.521 133.243 183.735 133.474 183.906 133.784C184.076 134.094 184.162 134.508 184.162 135.028V139.341H183.156V138.454H183.105C183.037 138.597 182.923 138.748 182.764 138.91C182.605 139.072 182.393 139.21 182.129 139.324C181.865 139.437 181.542 139.494 181.162 139.494ZM181.315 138.591C181.713 138.591 182.048 138.513 182.321 138.356C182.596 138.2 182.804 137.998 182.943 137.751C183.085 137.504 183.156 137.244 183.156 136.972V136.051C183.113 136.102 183.019 136.149 182.875 136.192C182.733 136.231 182.568 136.267 182.38 136.298C182.196 136.327 182.015 136.352 181.839 136.375C181.666 136.395 181.525 136.412 181.417 136.426C181.156 136.46 180.912 136.516 180.684 136.592C180.46 136.666 180.278 136.778 180.139 136.929C180.002 137.077 179.934 137.278 179.934 137.534C179.934 137.883 180.063 138.148 180.322 138.327C180.583 138.503 180.914 138.591 181.315 138.591ZM188.776 139.477C188.163 139.477 187.634 139.332 187.191 139.043C186.748 138.753 186.407 138.354 186.168 137.845C185.93 137.337 185.81 136.756 185.81 136.102C185.81 135.437 185.932 134.851 186.177 134.342C186.424 133.831 186.768 133.432 187.208 133.145C187.651 132.855 188.168 132.71 188.759 132.71C189.219 132.71 189.634 132.795 190.003 132.966C190.373 133.136 190.675 133.375 190.911 133.682C191.147 133.989 191.293 134.347 191.35 134.756H190.344C190.268 134.457 190.097 134.193 189.833 133.963C189.572 133.73 189.219 133.614 188.776 133.614C188.384 133.614 188.04 133.716 187.745 133.92C187.452 134.122 187.224 134.408 187.059 134.777C186.897 135.143 186.816 135.574 186.816 136.068C186.816 136.574 186.896 137.014 187.055 137.389C187.217 137.764 187.444 138.055 187.736 138.263C188.032 138.47 188.378 138.574 188.776 138.574C189.038 138.574 189.275 138.528 189.488 138.437C189.701 138.347 189.881 138.216 190.029 138.045C190.177 137.875 190.282 137.67 190.344 137.432H191.35C191.293 137.818 191.153 138.166 190.928 138.476C190.707 138.783 190.413 139.027 190.046 139.209C189.682 139.388 189.259 139.477 188.776 139.477ZM195.685 139.477C195.054 139.477 194.51 139.338 194.052 139.06C193.598 138.778 193.247 138.386 193 137.883C192.756 137.378 192.633 136.79 192.633 136.119C192.633 135.449 192.756 134.858 193 134.347C193.247 133.832 193.591 133.432 194.031 133.145C194.474 132.855 194.991 132.71 195.582 132.71C195.923 132.71 196.26 132.767 196.592 132.881C196.925 132.994 197.227 133.179 197.5 133.435C197.773 133.687 197.99 134.023 198.152 134.44C198.314 134.858 198.395 135.372 198.395 135.983V136.409H193.349V135.54H197.372C197.372 135.17 197.298 134.841 197.15 134.551C197.006 134.261 196.798 134.033 196.528 133.865C196.261 133.697 195.946 133.614 195.582 133.614C195.182 133.614 194.835 133.713 194.542 133.912C194.253 134.108 194.03 134.364 193.873 134.679C193.717 134.994 193.639 135.332 193.639 135.693V136.273C193.639 136.767 193.724 137.186 193.895 137.53C194.068 137.871 194.308 138.131 194.615 138.31C194.922 138.486 195.278 138.574 195.685 138.574C195.949 138.574 196.187 138.537 196.4 138.463C196.616 138.386 196.802 138.273 196.959 138.122C197.115 137.969 197.236 137.778 197.321 137.551L198.292 137.824C198.19 138.153 198.018 138.443 197.777 138.693C197.535 138.94 197.237 139.133 196.882 139.273C196.527 139.409 196.128 139.477 195.685 139.477ZM204.681 134.261L203.778 134.517C203.721 134.366 203.637 134.22 203.526 134.078C203.418 133.933 203.27 133.814 203.083 133.72C202.895 133.626 202.655 133.579 202.363 133.579C201.962 133.579 201.628 133.672 201.361 133.856C201.097 134.038 200.965 134.27 200.965 134.551C200.965 134.801 201.056 134.998 201.238 135.143C201.42 135.288 201.704 135.409 202.09 135.506L203.062 135.744C203.647 135.886 204.083 136.104 204.37 136.396C204.657 136.686 204.8 137.06 204.8 137.517C204.8 137.892 204.692 138.227 204.476 138.523C204.263 138.818 203.965 139.051 203.582 139.222C203.198 139.392 202.752 139.477 202.243 139.477C201.576 139.477 201.023 139.332 200.586 139.043C200.148 138.753 199.871 138.329 199.755 137.773L200.709 137.534C200.8 137.886 200.972 138.15 201.225 138.327C201.481 138.503 201.814 138.591 202.226 138.591C202.695 138.591 203.067 138.491 203.343 138.293C203.621 138.091 203.761 137.849 203.761 137.568C203.761 137.341 203.681 137.15 203.522 136.997C203.363 136.841 203.118 136.724 202.789 136.648L201.698 136.392C201.099 136.25 200.658 136.03 200.377 135.731C200.099 135.43 199.959 135.054 199.959 134.602C199.959 134.233 200.063 133.906 200.27 133.622C200.481 133.338 200.766 133.115 201.127 132.953C201.491 132.791 201.903 132.71 202.363 132.71C203.011 132.71 203.519 132.852 203.888 133.136C204.261 133.42 204.525 133.795 204.681 134.261ZM212.776 132.795V133.648H209.384V132.795H212.776ZM210.372 131.227H211.378V137.466C211.378 137.75 211.419 137.963 211.502 138.105C211.587 138.244 211.695 138.338 211.825 138.386C211.959 138.432 212.1 138.454 212.247 138.454C212.358 138.454 212.449 138.449 212.52 138.437C212.591 138.423 212.648 138.412 212.69 138.403L212.895 139.307C212.827 139.332 212.732 139.358 212.61 139.383C212.487 139.412 212.333 139.426 212.145 139.426C211.861 139.426 211.583 139.365 211.31 139.243C211.04 139.121 210.815 138.935 210.637 138.685C210.46 138.435 210.372 138.119 210.372 137.739V131.227ZM216.997 139.477C216.406 139.477 215.888 139.337 215.442 139.055C214.999 138.774 214.652 138.381 214.402 137.875C214.155 137.369 214.031 136.778 214.031 136.102C214.031 135.42 214.155 134.825 214.402 134.317C214.652 133.808 214.999 133.413 215.442 133.132C215.888 132.851 216.406 132.71 216.997 132.71C217.588 132.71 218.105 132.851 218.548 133.132C218.994 133.413 219.341 133.808 219.588 134.317C219.838 134.825 219.963 135.42 219.963 136.102C219.963 136.778 219.838 137.369 219.588 137.875C219.341 138.381 218.994 138.774 218.548 139.055C218.105 139.337 217.588 139.477 216.997 139.477ZM216.997 138.574C217.446 138.574 217.815 138.459 218.105 138.229C218.395 137.998 218.61 137.696 218.749 137.321C218.888 136.946 218.958 136.54 218.958 136.102C218.958 135.665 218.888 135.257 218.749 134.879C218.61 134.501 218.395 134.196 218.105 133.963C217.815 133.73 217.446 133.614 216.997 133.614C216.548 133.614 216.179 133.73 215.889 133.963C215.6 134.196 215.385 134.501 215.246 134.879C215.107 135.257 215.037 135.665 215.037 136.102C215.037 136.54 215.107 136.946 215.246 137.321C215.385 137.696 215.6 137.998 215.889 138.229C216.179 138.459 216.548 138.574 216.997 138.574ZM229.75 134.261L228.846 134.517C228.789 134.366 228.706 134.22 228.595 134.078C228.487 133.933 228.339 133.814 228.152 133.72C227.964 133.626 227.724 133.579 227.432 133.579C227.031 133.579 226.697 133.672 226.43 133.856C226.166 134.038 226.034 134.27 226.034 134.551C226.034 134.801 226.125 134.998 226.307 135.143C226.488 135.288 226.772 135.409 227.159 135.506L228.13 135.744C228.716 135.886 229.152 136.104 229.439 136.396C229.726 136.686 229.869 137.06 229.869 137.517C229.869 137.892 229.761 138.227 229.545 138.523C229.332 138.818 229.034 139.051 228.65 139.222C228.267 139.392 227.821 139.477 227.312 139.477C226.645 139.477 226.092 139.332 225.655 139.043C225.217 138.753 224.94 138.329 224.824 137.773L225.778 137.534C225.869 137.886 226.041 138.15 226.294 138.327C226.549 138.503 226.883 138.591 227.295 138.591C227.764 138.591 228.136 138.491 228.412 138.293C228.69 138.091 228.829 137.849 228.829 137.568C228.829 137.341 228.75 137.15 228.591 136.997C228.432 136.841 228.187 136.724 227.858 136.648L226.767 136.392C226.167 136.25 225.727 136.03 225.446 135.731C225.167 135.43 225.028 135.054 225.028 134.602C225.028 134.233 225.132 133.906 225.339 133.622C225.549 133.338 225.835 133.115 226.196 132.953C226.559 132.791 226.971 132.71 227.432 132.71C228.079 132.71 228.588 132.852 228.957 133.136C229.329 133.42 229.593 133.795 229.75 134.261ZM234.247 139.477C233.617 139.477 233.072 139.338 232.615 139.06C232.161 138.778 231.81 138.386 231.563 137.883C231.318 137.378 231.196 136.79 231.196 136.119C231.196 135.449 231.318 134.858 231.563 134.347C231.81 133.832 232.153 133.432 232.594 133.145C233.037 132.855 233.554 132.71 234.145 132.71C234.486 132.71 234.822 132.767 235.155 132.881C235.487 132.994 235.79 133.179 236.063 133.435C236.335 133.687 236.553 134.023 236.715 134.44C236.876 134.858 236.957 135.372 236.957 135.983V136.409H231.912V135.54H235.935C235.935 135.17 235.861 134.841 235.713 134.551C235.568 134.261 235.361 134.033 235.091 133.865C234.824 133.697 234.509 133.614 234.145 133.614C233.744 133.614 233.398 133.713 233.105 133.912C232.815 134.108 232.592 134.364 232.436 134.679C232.28 134.994 232.202 135.332 232.202 135.693V136.273C232.202 136.767 232.287 137.186 232.457 137.53C232.631 137.871 232.871 138.131 233.178 138.31C233.484 138.486 233.841 138.574 234.247 138.574C234.511 138.574 234.75 138.537 234.963 138.463C235.179 138.386 235.365 138.273 235.521 138.122C235.678 137.969 235.798 137.778 235.884 137.551L236.855 137.824C236.753 138.153 236.581 138.443 236.34 138.693C236.098 138.94 235.8 139.133 235.445 139.273C235.09 139.409 234.69 139.477 234.247 139.477ZM238.607 141.795V132.795H239.579V133.835H239.698C239.772 133.722 239.874 133.577 240.005 133.4C240.139 133.222 240.329 133.062 240.576 132.923C240.826 132.781 241.164 132.71 241.59 132.71C242.141 132.71 242.627 132.848 243.048 133.123C243.468 133.399 243.796 133.79 244.032 134.295C244.268 134.801 244.386 135.398 244.386 136.085C244.386 136.778 244.268 137.379 244.032 137.888C243.796 138.393 243.469 138.785 243.052 139.064C242.634 139.339 242.153 139.477 241.607 139.477C241.187 139.477 240.85 139.408 240.597 139.268C240.344 139.126 240.15 138.966 240.014 138.787C239.877 138.605 239.772 138.454 239.698 138.335H239.613V141.795H238.607ZM239.596 136.068C239.596 136.562 239.668 136.998 239.813 137.376C239.958 137.751 240.17 138.045 240.448 138.258C240.727 138.469 241.067 138.574 241.471 138.574C241.891 138.574 242.242 138.463 242.523 138.241C242.808 138.017 243.021 137.716 243.163 137.338C243.308 136.957 243.38 136.534 243.38 136.068C243.38 135.608 243.309 135.193 243.167 134.824C243.028 134.452 242.816 134.158 242.532 133.942C242.251 133.723 241.897 133.614 241.471 133.614C241.062 133.614 240.718 133.717 240.44 133.925C240.161 134.129 239.951 134.416 239.809 134.785C239.667 135.152 239.596 135.579 239.596 136.068ZM247.966 139.494C247.551 139.494 247.175 139.416 246.837 139.26C246.499 139.101 246.23 138.872 246.031 138.574C245.832 138.273 245.733 137.909 245.733 137.483C245.733 137.108 245.807 136.804 245.955 136.571C246.102 136.335 246.3 136.15 246.547 136.017C246.794 135.883 247.067 135.784 247.365 135.719C247.666 135.65 247.969 135.597 248.273 135.557C248.67 135.506 248.993 135.467 249.24 135.442C249.49 135.413 249.672 135.366 249.785 135.301C249.902 135.236 249.96 135.122 249.96 134.96V134.926C249.96 134.506 249.845 134.179 249.615 133.946C249.388 133.713 249.043 133.597 248.58 133.597C248.099 133.597 247.723 133.702 247.45 133.912C247.178 134.122 246.986 134.347 246.875 134.585L245.92 134.244C246.091 133.847 246.318 133.537 246.602 133.315C246.889 133.091 247.202 132.935 247.54 132.847C247.881 132.756 248.216 132.71 248.545 132.71C248.756 132.71 248.997 132.736 249.27 132.787C249.545 132.835 249.811 132.936 250.067 133.089C250.325 133.243 250.54 133.474 250.71 133.784C250.881 134.094 250.966 134.508 250.966 135.028V139.341H249.96V138.454H249.909C249.841 138.597 249.727 138.748 249.568 138.91C249.409 139.072 249.197 139.21 248.933 139.324C248.669 139.437 248.347 139.494 247.966 139.494ZM248.119 138.591C248.517 138.591 248.852 138.513 249.125 138.356C249.401 138.2 249.608 137.998 249.747 137.751C249.889 137.504 249.96 137.244 249.96 136.972V136.051C249.918 136.102 249.824 136.149 249.679 136.192C249.537 136.231 249.372 136.267 249.185 136.298C249 136.327 248.82 136.352 248.643 136.375C248.47 136.395 248.33 136.412 248.222 136.426C247.96 136.46 247.716 136.516 247.489 136.592C247.264 136.666 247.082 136.778 246.943 136.929C246.807 137.077 246.739 137.278 246.739 137.534C246.739 137.883 246.868 138.148 247.126 138.327C247.388 138.503 247.719 138.591 248.119 138.591ZM51.5708 155.341V148.795H52.5424V149.784H52.6106C52.7299 149.46 52.9458 149.197 53.2583 148.996C53.5708 148.794 53.9231 148.693 54.3152 148.693C54.389 148.693 54.4814 148.695 54.5922 148.697C54.7029 148.7 54.7868 148.704 54.8436 148.71V149.733C54.8095 149.724 54.7314 149.712 54.6092 149.695C54.4899 149.675 54.3635 149.665 54.2299 149.665C53.9118 149.665 53.6277 149.731 53.3777 149.865C53.1305 149.996 52.9345 150.177 52.7896 150.41C52.6475 150.641 52.5765 150.903 52.5765 151.199V155.341H51.5708ZM58.0818 155.494C57.6671 155.494 57.2906 155.416 56.9526 155.26C56.6145 155.101 56.346 154.872 56.1472 154.574C55.9483 154.273 55.8489 153.909 55.8489 153.483C55.8489 153.108 55.9227 152.804 56.0705 152.571C56.2182 152.335 56.4156 152.15 56.6628 152.017C56.91 151.883 57.1827 151.784 57.481 151.719C57.7821 151.65 58.0847 151.597 58.3886 151.557C58.7864 151.506 59.1088 151.467 59.356 151.442C59.606 151.413 59.7878 151.366 59.9014 151.301C60.0179 151.236 60.0761 151.122 60.0761 150.96V150.926C60.0761 150.506 59.9611 150.179 59.731 149.946C59.5037 149.713 59.1585 149.597 58.6955 149.597C58.2153 149.597 57.8389 149.702 57.5662 149.912C57.2935 150.122 57.1017 150.347 56.9909 150.585L56.0364 150.244C56.2068 149.847 56.4341 149.537 56.7182 149.315C57.0051 149.091 57.3176 148.935 57.6557 148.847C57.9966 148.756 58.3318 148.71 58.6614 148.71C58.8716 148.71 59.1131 148.736 59.3858 148.787C59.6614 148.835 59.927 148.936 60.1827 149.089C60.4412 149.243 60.6557 149.474 60.8261 149.784C60.9966 150.094 61.0818 150.508 61.0818 151.028V155.341H60.0761V154.454H60.025C59.9568 154.597 59.8432 154.748 59.6841 154.91C59.525 155.072 59.3134 155.21 59.0492 155.324C58.785 155.437 58.4625 155.494 58.0818 155.494ZM58.2352 154.591C58.633 154.591 58.9682 154.513 59.2409 154.356C59.5165 154.2 59.7239 153.998 59.8631 153.751C60.0051 153.504 60.0761 153.244 60.0761 152.972V152.051C60.0335 152.102 59.9398 152.149 59.7949 152.192C59.6528 152.231 59.4881 152.267 59.3006 152.298C59.1159 152.327 58.9355 152.352 58.7594 152.375C58.5861 152.395 58.4455 152.412 58.3375 152.426C58.0761 152.46 57.8318 152.516 57.6046 152.592C57.3801 152.666 57.1983 152.778 57.0591 152.929C56.9227 153.077 56.8546 153.278 56.8546 153.534C56.8546 153.883 56.9838 154.148 57.2423 154.327C57.5037 154.503 57.8347 154.591 58.2352 154.591ZM65.884 148.795V149.648H62.492V148.795H65.884ZM63.4806 147.227H64.4863V153.466C64.4863 153.75 64.5275 153.963 64.6099 154.105C64.6951 154.244 64.803 154.338 64.9337 154.386C65.0672 154.432 65.2079 154.454 65.3556 154.454C65.4664 154.454 65.5573 154.449 65.6283 154.437C65.6993 154.423 65.7562 154.412 65.7988 154.403L66.0033 155.307C65.9351 155.332 65.84 155.358 65.7178 155.383C65.5956 155.412 65.4408 155.426 65.2533 155.426C64.9692 155.426 64.6908 155.365 64.4181 155.243C64.1482 155.121 63.9238 154.935 63.7448 154.685C63.5687 154.435 63.4806 154.119 63.4806 153.739V147.227ZM70.1908 155.477C69.5601 155.477 69.0161 155.338 68.5587 155.06C68.1041 154.778 67.7533 154.386 67.5061 153.883C67.2618 153.378 67.1397 152.79 67.1397 152.119C67.1397 151.449 67.2618 150.858 67.5061 150.347C67.7533 149.832 68.097 149.432 68.5374 149.145C68.9806 148.855 69.4976 148.71 70.0885 148.71C70.4294 148.71 70.7661 148.767 71.0985 148.881C71.4308 148.994 71.7334 149.179 72.0061 149.435C72.2789 149.687 72.4962 150.023 72.6581 150.44C72.82 150.858 72.901 151.372 72.901 151.983V152.409H67.8556V151.54H71.8783C71.8783 151.17 71.8044 150.841 71.6567 150.551C71.5118 150.261 71.3044 150.033 71.0345 149.865C70.7675 149.697 70.4522 149.614 70.0885 149.614C69.6879 149.614 69.3414 149.713 69.0487 149.912C68.759 150.108 68.536 150.364 68.3797 150.679C68.2235 150.994 68.1453 151.332 68.1453 151.693V152.273C68.1453 152.767 68.2306 153.186 68.401 153.53C68.5743 153.871 68.8144 154.131 69.1212 154.31C69.428 154.486 69.7845 154.574 70.1908 154.574C70.455 154.574 70.6936 154.537 70.9067 154.463C71.1226 154.386 71.3087 154.273 71.4649 154.122C71.6212 153.969 71.7419 153.778 71.8272 153.551L72.7987 153.824C72.6965 154.153 72.5246 154.443 72.2831 154.693C72.0416 154.94 71.7433 155.133 71.3882 155.273C71.0331 155.409 70.634 155.477 70.1908 155.477ZM78.0458 157.795V148.795H79.0174V149.835H79.1368C79.2106 149.722 79.3129 149.577 79.4436 149.4C79.5771 149.222 79.7674 149.062 80.0146 148.923C80.2646 148.781 80.6027 148.71 81.0288 148.71C81.5799 148.71 82.0657 148.848 82.4862 149.123C82.9066 149.399 83.2348 149.79 83.4706 150.295C83.7064 150.801 83.8243 151.398 83.8243 152.085C83.8243 152.778 83.7064 153.379 83.4706 153.888C83.2348 154.393 82.9081 154.785 82.4904 155.064C82.0728 155.339 81.5913 155.477 81.0458 155.477C80.6254 155.477 80.2887 155.408 80.0359 155.268C79.7831 155.126 79.5885 154.966 79.4521 154.787C79.3157 154.605 79.2106 154.454 79.1368 154.335H79.0515V157.795H78.0458ZM79.0345 152.068C79.0345 152.562 79.1069 152.998 79.2518 153.376C79.3967 153.751 79.6083 154.045 79.8868 154.258C80.1652 154.469 80.5061 154.574 80.9095 154.574C81.3299 154.574 81.6808 154.463 81.962 154.241C82.2461 154.017 82.4592 153.716 82.6012 153.338C82.7461 152.957 82.8186 152.534 82.8186 152.068C82.8186 151.608 82.7476 151.193 82.6055 150.824C82.4663 150.452 82.2547 150.158 81.9706 149.942C81.6893 149.723 81.3356 149.614 80.9095 149.614C80.5004 149.614 80.1566 149.717 79.8782 149.925C79.5998 150.129 79.3896 150.416 79.2476 150.785C79.1055 151.152 79.0345 151.579 79.0345 152.068ZM85.4783 155.341V148.795H86.4499V149.784H86.5181C86.6374 149.46 86.8533 149.197 87.1658 148.996C87.4783 148.794 87.8306 148.693 88.2227 148.693C88.2965 148.693 88.3889 148.695 88.4997 148.697C88.6104 148.7 88.6943 148.704 88.7511 148.71V149.733C88.717 149.724 88.6389 149.712 88.5167 149.695C88.3974 149.675 88.271 149.665 88.1374 149.665C87.8193 149.665 87.5352 149.731 87.2852 149.865C87.038 149.996 86.842 150.177 86.6971 150.41C86.5551 150.641 86.484 150.903 86.484 151.199V155.341H85.4783ZM92.5231 155.477C91.9322 155.477 91.4137 155.337 90.9677 155.055C90.5245 154.774 90.1779 154.381 89.9279 153.875C89.6807 153.369 89.5572 152.778 89.5572 152.102C89.5572 151.42 89.6807 150.825 89.9279 150.317C90.1779 149.808 90.5245 149.413 90.9677 149.132C91.4137 148.851 91.9322 148.71 92.5231 148.71C93.114 148.71 93.631 148.851 94.0742 149.132C94.5202 149.413 94.8668 149.808 95.114 150.317C95.364 150.825 95.489 151.42 95.489 152.102C95.489 152.778 95.364 153.369 95.114 153.875C94.8668 154.381 94.5202 154.774 94.0742 155.055C93.631 155.337 93.114 155.477 92.5231 155.477ZM92.5231 154.574C92.9719 154.574 93.3412 154.459 93.631 154.229C93.9208 153.998 94.1353 153.696 94.2745 153.321C94.4137 152.946 94.4833 152.54 94.4833 152.102C94.4833 151.665 94.4137 151.257 94.2745 150.879C94.1353 150.501 93.9208 150.196 93.631 149.963C93.3412 149.73 92.9719 149.614 92.5231 149.614C92.0742 149.614 91.7049 149.73 91.4151 149.963C91.1253 150.196 90.9108 150.501 90.7716 150.879C90.6324 151.257 90.5628 151.665 90.5628 152.102C90.5628 152.54 90.6324 152.946 90.7716 153.321C90.9108 153.696 91.1253 153.998 91.4151 154.229C91.7049 154.459 92.0742 154.574 92.5231 154.574ZM97.1441 148.795H98.1498V155.818C98.1498 156.222 98.0802 156.571 97.941 156.866C97.8046 157.162 97.5973 157.391 97.3188 157.552C97.0433 157.714 96.6953 157.795 96.2748 157.795C96.2407 157.795 96.2066 157.795 96.1725 157.795C96.1384 157.795 96.1044 157.795 96.0703 157.795V156.858C96.1044 156.858 96.1356 156.858 96.164 156.858C96.1924 156.858 96.2237 156.858 96.2578 156.858C96.5646 156.858 96.789 156.767 96.9311 156.585C97.0731 156.406 97.1441 156.15 97.1441 155.818V148.795ZM97.6384 147.704C97.4424 147.704 97.2734 147.638 97.1313 147.504C96.9921 147.371 96.9225 147.21 96.9225 147.023C96.9225 146.835 96.9921 146.675 97.1313 146.541C97.2734 146.408 97.4424 146.341 97.6384 146.341C97.8345 146.341 98.0021 146.408 98.1413 146.541C98.2833 146.675 98.3544 146.835 98.3544 147.023C98.3544 147.21 98.2833 147.371 98.1413 147.504C98.0021 147.638 97.8345 147.704 97.6384 147.704ZM102.856 155.477C102.225 155.477 101.681 155.338 101.224 155.06C100.769 154.778 100.419 154.386 100.171 153.883C99.9271 153.378 99.805 152.79 99.805 152.119C99.805 151.449 99.9271 150.858 100.171 150.347C100.419 149.832 100.762 149.432 101.203 149.145C101.646 148.855 102.163 148.71 102.754 148.71C103.095 148.71 103.431 148.767 103.764 148.881C104.096 148.994 104.399 149.179 104.671 149.435C104.944 149.687 105.162 150.023 105.323 150.44C105.485 150.858 105.566 151.372 105.566 151.983V152.409H100.521V151.54H104.544C104.544 151.17 104.47 150.841 104.322 150.551C104.177 150.261 103.97 150.033 103.7 149.865C103.433 149.697 103.117 149.614 102.754 149.614C102.353 149.614 102.007 149.713 101.714 149.912C101.424 150.108 101.201 150.364 101.045 150.679C100.889 150.994 100.811 151.332 100.811 151.693V152.273C100.811 152.767 100.896 153.186 101.066 153.53C101.24 153.871 101.48 154.131 101.787 154.31C102.093 154.486 102.45 154.574 102.856 154.574C103.12 154.574 103.359 154.537 103.572 154.463C103.788 154.386 103.974 154.273 104.13 154.122C104.287 153.969 104.407 153.778 104.492 153.551L105.464 153.824C105.362 154.153 105.19 154.443 104.948 154.693C104.707 154.94 104.409 155.133 104.054 155.273C103.698 155.409 103.299 155.477 102.856 155.477ZM109.875 155.477C109.262 155.477 108.733 155.332 108.29 155.043C107.847 154.753 107.506 154.354 107.267 153.845C107.029 153.337 106.909 152.756 106.909 152.102C106.909 151.437 107.031 150.851 107.276 150.342C107.523 149.831 107.867 149.432 108.307 149.145C108.75 148.855 109.267 148.71 109.858 148.71C110.318 148.71 110.733 148.795 111.103 148.966C111.472 149.136 111.774 149.375 112.01 149.682C112.246 149.989 112.392 150.347 112.449 150.756H111.443C111.367 150.457 111.196 150.193 110.932 149.963C110.671 149.73 110.318 149.614 109.875 149.614C109.483 149.614 109.139 149.716 108.844 149.92C108.551 150.122 108.323 150.408 108.158 150.777C107.996 151.143 107.915 151.574 107.915 152.068C107.915 152.574 107.995 153.014 108.154 153.389C108.316 153.764 108.543 154.055 108.835 154.263C109.131 154.47 109.478 154.574 109.875 154.574C110.137 154.574 110.374 154.528 110.587 154.437C110.8 154.347 110.98 154.216 111.128 154.045C111.276 153.875 111.381 153.67 111.443 153.432H112.449C112.392 153.818 112.252 154.166 112.027 154.476C111.806 154.783 111.512 155.027 111.145 155.209C110.781 155.388 110.358 155.477 109.875 155.477ZM116.886 148.795V149.648H113.494V148.795H116.886ZM114.482 147.227H115.488V153.466C115.488 153.75 115.529 153.963 115.612 154.105C115.697 154.244 115.805 154.338 115.936 154.386C116.069 154.432 116.21 154.454 116.357 154.454C116.468 154.454 116.559 154.449 116.63 154.437C116.701 154.423 116.758 154.412 116.801 154.403L117.005 155.307C116.937 155.332 116.842 155.358 116.72 155.383C116.598 155.412 116.443 155.426 116.255 155.426C115.971 155.426 115.693 155.365 115.42 155.243C115.15 155.121 114.926 154.935 114.747 154.685C114.571 154.435 114.482 154.119 114.482 153.739V147.227ZM123.038 150.261L122.134 150.517C122.078 150.366 121.994 150.22 121.883 150.078C121.775 149.933 121.627 149.814 121.44 149.72C121.252 149.626 121.012 149.579 120.72 149.579C120.319 149.579 119.985 149.672 119.718 149.856C119.454 150.038 119.322 150.27 119.322 150.551C119.322 150.801 119.413 150.998 119.595 151.143C119.776 151.288 120.061 151.409 120.447 151.506L121.419 151.744C122.004 151.886 122.44 152.104 122.727 152.396C123.014 152.686 123.157 153.06 123.157 153.517C123.157 153.892 123.049 154.227 122.833 154.523C122.62 154.818 122.322 155.051 121.938 155.222C121.555 155.392 121.109 155.477 120.6 155.477C119.933 155.477 119.38 155.332 118.943 155.043C118.505 154.753 118.228 154.329 118.112 153.773L119.066 153.534C119.157 153.886 119.329 154.15 119.582 154.327C119.838 154.503 120.171 154.591 120.583 154.591C121.052 154.591 121.424 154.491 121.7 154.293C121.978 154.091 122.117 153.849 122.117 153.568C122.117 153.341 122.038 153.15 121.879 152.997C121.72 152.841 121.475 152.724 121.146 152.648L120.055 152.392C119.455 152.25 119.015 152.03 118.734 151.731C118.455 151.43 118.316 151.054 118.316 150.602C118.316 150.233 118.42 149.906 118.627 149.622C118.838 149.338 119.123 149.115 119.484 148.953C119.847 148.791 120.259 148.71 120.72 148.71C121.367 148.71 121.876 148.852 122.245 149.136C122.617 149.42 122.882 149.795 123.038 150.261ZM125.524 155.409C125.314 155.409 125.133 155.334 124.983 155.183C124.832 155.033 124.757 154.852 124.757 154.642C124.757 154.432 124.832 154.251 124.983 154.101C125.133 153.95 125.314 153.875 125.524 153.875C125.734 153.875 125.915 153.95 126.065 154.101C126.216 154.251 126.291 154.432 126.291 154.642C126.291 154.781 126.255 154.909 126.184 155.025C126.116 155.142 126.024 155.236 125.907 155.307C125.794 155.375 125.666 155.409 125.524 155.409Z" fill="#2D2D2D" fill-opacity="0.7"/>
<defs>
<filter id="filter0_d_73_786" x="9.90918" y="97.7231" width="309.091" height="118.554" filterUnits="userSpaceOnUse" color-interpolation-filters="sRGB">
<feFlood flood-opacity="0" result="BackgroundImageFix"/>
<feColorMatrix in="SourceAlpha" type="matrix" values="0 0 0 0 0 0 0 0 0 0 0 0 0 0 0 0 0 0 127 0" result="hardAlpha"/>
<feMorphology radius="6" operator="erode" in="SourceAlpha" result="effect1_dropShadow_73_786"/>
<feOffset dx="5" dy="13"/>
<feGaussianBlur stdDeviation="16.5"/>
<feComposite in2="hardAlpha" operator="out"/>
<feColorMatrix type="matrix" values="0 0 0 0 0.149816 0 0 0 0 0.128915 0 0 0 0 0.170718 0 0 0 0.11 0"/>
<feBlend mode="normal" in2="BackgroundImageFix" result="effect1_dropShadow_73_786"/>
<feBlend mode="normal" in="SourceGraphic" in2="effect1_dropShadow_73_786" result="shape"/>
</filter>
</defs>
</svg>
