<svg width="388" height="310" viewBox="0 0 388 310" fill="none" xmlns="http://www.w3.org/2000/svg">
<rect x="47.9092" width="292" height="310" rx="10" fill="white"/>
<path d="M79.3467 201.5C79.2607 201.237 79.1475 201.001 79.0068 200.793C78.8688 200.582 78.7035 200.402 78.5107 200.254C78.3206 200.105 78.1045 199.992 77.8623 199.914C77.6201 199.836 77.3545 199.797 77.0654 199.797C76.5915 199.797 76.1605 199.919 75.7725 200.164C75.3844 200.409 75.0758 200.77 74.8467 201.246C74.6175 201.723 74.5029 202.307 74.5029 203C74.5029 203.693 74.6188 204.277 74.8506 204.754C75.0824 205.23 75.3962 205.591 75.792 205.836C76.1878 206.081 76.6331 206.203 77.1279 206.203C77.5863 206.203 77.9899 206.105 78.3389 205.91C78.6904 205.712 78.9639 205.434 79.1592 205.074C79.3571 204.712 79.4561 204.286 79.4561 203.797L79.7529 203.859H77.3467V203H80.3936V203.859C80.3936 204.518 80.2529 205.091 79.9717 205.578C79.693 206.065 79.3076 206.443 78.8154 206.711C78.3258 206.977 77.7633 207.109 77.1279 207.109C76.4196 207.109 75.7972 206.943 75.2607 206.609C74.7269 206.276 74.3102 205.802 74.0107 205.187C73.7139 204.573 73.5654 203.844 73.5654 203C73.5654 202.367 73.6501 201.798 73.8193 201.293C73.9912 200.785 74.2334 200.353 74.5459 199.996C74.8584 199.639 75.2282 199.366 75.6553 199.176C76.0824 198.986 76.5524 198.891 77.0654 198.891C77.4873 198.891 77.8805 198.954 78.2451 199.082C78.6123 199.207 78.9391 199.385 79.2256 199.617C79.5146 199.846 79.7555 200.121 79.9482 200.441C80.141 200.759 80.2738 201.112 80.3467 201.5H79.3467ZM84.5534 207.125C83.9752 207.125 83.4765 206.997 83.0573 206.742C82.6406 206.484 82.319 206.125 82.0924 205.664C81.8685 205.201 81.7565 204.661 81.7565 204.047C81.7565 203.432 81.8685 202.891 82.0924 202.422C82.319 201.951 82.6341 201.583 83.0377 201.32C83.444 201.055 83.9179 200.922 84.4596 200.922C84.7721 200.922 85.0807 200.974 85.3854 201.078C85.6901 201.182 85.9674 201.352 86.2174 201.586C86.4674 201.818 86.6666 202.125 86.8151 202.508C86.9635 202.891 87.0377 203.362 87.0377 203.922V204.312H82.4127V203.516H86.1002C86.1002 203.177 86.0325 202.875 85.8971 202.609C85.7643 202.344 85.5742 202.134 85.3268 201.98C85.082 201.827 84.7929 201.75 84.4596 201.75C84.0924 201.75 83.7747 201.841 83.5065 202.023C83.2409 202.203 83.0364 202.437 82.8932 202.727C82.75 203.016 82.6784 203.326 82.6784 203.656V204.188C82.6784 204.641 82.7565 205.025 82.9127 205.34C83.0716 205.652 83.2916 205.891 83.5729 206.055C83.8541 206.216 84.181 206.297 84.5534 206.297C84.7955 206.297 85.0143 206.263 85.2096 206.195C85.4075 206.125 85.5781 206.021 85.7213 205.883C85.8646 205.742 85.9752 205.568 86.0534 205.359L86.944 205.609C86.8502 205.911 86.6927 206.177 86.4713 206.406C86.25 206.633 85.9765 206.81 85.651 206.937C85.3255 207.063 84.9596 207.125 84.5534 207.125ZM89.472 203.391V207H88.5501V201H89.4407V201.937H89.5188C89.6595 201.633 89.873 201.388 90.1595 201.203C90.4459 201.016 90.8157 200.922 91.2688 200.922C91.6751 200.922 92.0305 201.005 92.3352 201.172C92.6399 201.336 92.8769 201.586 93.0462 201.922C93.2154 202.255 93.3001 202.677 93.3001 203.188V207H92.3782V203.25C92.3782 202.779 92.2558 202.411 92.011 202.148C91.7662 201.883 91.4303 201.75 91.0032 201.75C90.7089 201.75 90.4459 201.814 90.2141 201.941C89.985 202.069 89.804 202.255 89.6712 202.5C89.5384 202.745 89.472 203.042 89.472 203.391ZM97.6103 207.125C97.0321 207.125 96.5335 206.997 96.1142 206.742C95.6975 206.484 95.3759 206.125 95.1493 205.664C94.9254 205.201 94.8134 204.661 94.8134 204.047C94.8134 203.432 94.9254 202.891 95.1493 202.422C95.3759 201.951 95.691 201.583 96.0946 201.32C96.5009 201.055 96.9749 200.922 97.5165 200.922C97.829 200.922 98.1376 200.974 98.4423 201.078C98.747 201.182 99.0243 201.352 99.2743 201.586C99.5243 201.818 99.7236 202.125 99.872 202.508C100.02 202.891 100.095 203.362 100.095 203.922V204.312H95.4696V203.516H99.1571C99.1571 203.177 99.0894 202.875 98.954 202.609C98.8212 202.344 98.6311 202.134 98.3837 201.98C98.1389 201.827 97.8499 201.75 97.5165 201.75C97.1493 201.75 96.8316 201.841 96.5634 202.023C96.2978 202.203 96.0933 202.437 95.9501 202.727C95.8069 203.016 95.7353 203.326 95.7353 203.656V204.188C95.7353 204.641 95.8134 205.025 95.9696 205.34C96.1285 205.652 96.3486 205.891 96.6298 206.055C96.9111 206.216 97.2379 206.297 97.6103 206.297C97.8525 206.297 98.0712 206.263 98.2665 206.195C98.4644 206.125 98.635 206.021 98.7782 205.883C98.9215 205.742 99.0321 205.568 99.1103 205.359L100.001 205.609C99.9071 205.911 99.7496 206.177 99.5282 206.406C99.3069 206.633 99.0335 206.81 98.7079 206.937C98.3824 207.063 98.0165 207.125 97.6103 207.125ZM101.607 207V201H102.498V201.906H102.56C102.669 201.609 102.867 201.368 103.154 201.184C103.44 200.999 103.763 200.906 104.123 200.906C104.19 200.906 104.275 200.908 104.377 200.91C104.478 200.913 104.555 200.917 104.607 200.922V201.859C104.576 201.852 104.504 201.84 104.392 201.824C104.283 201.806 104.167 201.797 104.044 201.797C103.753 201.797 103.492 201.858 103.263 201.98C103.037 202.1 102.857 202.267 102.724 202.48C102.594 202.691 102.529 202.932 102.529 203.203V207H101.607ZM107.575 207.141C107.195 207.141 106.85 207.069 106.54 206.926C106.23 206.78 105.984 206.57 105.802 206.297C105.62 206.021 105.529 205.687 105.529 205.297C105.529 204.953 105.596 204.674 105.732 204.461C105.867 204.245 106.048 204.076 106.275 203.953C106.501 203.831 106.751 203.74 107.025 203.68C107.301 203.617 107.578 203.568 107.857 203.531C108.221 203.484 108.517 203.449 108.743 203.426C108.973 203.4 109.139 203.357 109.243 203.297C109.35 203.237 109.404 203.133 109.404 202.984V202.953C109.404 202.568 109.298 202.268 109.087 202.055C108.879 201.841 108.562 201.734 108.138 201.734C107.698 201.734 107.353 201.831 107.103 202.023C106.853 202.216 106.677 202.422 106.575 202.641L105.7 202.328C105.857 201.964 106.065 201.68 106.325 201.477C106.588 201.271 106.875 201.128 107.185 201.047C107.497 200.964 107.805 200.922 108.107 200.922C108.299 200.922 108.521 200.945 108.771 200.992C109.023 201.036 109.267 201.129 109.501 201.27C109.738 201.41 109.935 201.622 110.091 201.906C110.247 202.19 110.325 202.57 110.325 203.047V207H109.404V206.187H109.357C109.294 206.318 109.19 206.457 109.044 206.605C108.898 206.754 108.704 206.88 108.462 206.984C108.22 207.089 107.924 207.141 107.575 207.141ZM107.716 206.312C108.081 206.312 108.388 206.241 108.638 206.098C108.89 205.954 109.081 205.77 109.208 205.543C109.338 205.316 109.404 205.078 109.404 204.828V203.984C109.364 204.031 109.279 204.074 109.146 204.113C109.015 204.15 108.864 204.182 108.693 204.211C108.523 204.237 108.358 204.26 108.196 204.281C108.038 204.299 107.909 204.315 107.81 204.328C107.57 204.359 107.346 204.41 107.138 204.48C106.932 204.548 106.765 204.651 106.638 204.789C106.513 204.924 106.45 205.109 106.45 205.344C106.45 205.664 106.569 205.906 106.806 206.07C107.045 206.232 107.349 206.312 107.716 206.312ZM114.727 201V201.781H111.618V201H114.727ZM112.524 199.562H113.446V205.281C113.446 205.542 113.484 205.737 113.559 205.867C113.638 205.995 113.736 206.081 113.856 206.125C113.979 206.167 114.108 206.187 114.243 206.187C114.345 206.187 114.428 206.182 114.493 206.172C114.558 206.159 114.61 206.148 114.649 206.141L114.837 206.969C114.774 206.992 114.687 207.016 114.575 207.039C114.463 207.065 114.321 207.078 114.149 207.078C113.889 207.078 113.634 207.022 113.384 206.91C113.136 206.798 112.931 206.628 112.766 206.398C112.605 206.169 112.524 205.88 112.524 205.531V199.562ZM118.675 207.125C118.097 207.125 117.598 206.997 117.179 206.742C116.763 206.484 116.441 206.125 116.214 205.664C115.99 205.201 115.878 204.661 115.878 204.047C115.878 203.432 115.99 202.891 116.214 202.422C116.441 201.951 116.756 201.583 117.16 201.32C117.566 201.055 118.04 200.922 118.582 200.922C118.894 200.922 119.203 200.974 119.507 201.078C119.812 201.182 120.089 201.352 120.339 201.586C120.589 201.818 120.789 202.125 120.937 202.508C121.085 202.891 121.16 203.362 121.16 203.922V204.312H116.535V203.516H120.222C120.222 203.177 120.154 202.875 120.019 202.609C119.886 202.344 119.696 202.134 119.449 201.98C119.204 201.827 118.915 201.75 118.582 201.75C118.214 201.75 117.897 201.841 117.628 202.023C117.363 202.203 117.158 202.437 117.015 202.727C116.872 203.016 116.8 203.326 116.8 203.656V204.188C116.8 204.641 116.878 205.025 117.035 205.34C117.194 205.652 117.414 205.891 117.695 206.055C117.976 206.216 118.303 206.297 118.675 206.297C118.917 206.297 119.136 206.263 119.332 206.195C119.529 206.125 119.7 206.021 119.843 205.883C119.986 205.742 120.097 205.568 120.175 205.359L121.066 205.609C120.972 205.911 120.815 206.177 120.593 206.406C120.372 206.633 120.098 206.81 119.773 206.937C119.447 207.063 119.082 207.125 118.675 207.125ZM126.798 203.391V207H125.876V199H126.798V201.937H126.876C127.016 201.628 127.227 201.382 127.509 201.199C127.792 201.014 128.17 200.922 128.641 200.922C129.05 200.922 129.408 201.004 129.716 201.168C130.023 201.329 130.261 201.578 130.43 201.914C130.602 202.247 130.688 202.672 130.688 203.188V207H129.766V203.25C129.766 202.773 129.643 202.405 129.395 202.145C129.15 201.882 128.811 201.75 128.376 201.75C128.074 201.75 127.803 201.814 127.563 201.941C127.326 202.069 127.139 202.255 127.001 202.5C126.865 202.745 126.798 203.042 126.798 203.391ZM132.485 207V201H133.407V207H132.485ZM132.954 200C132.774 200 132.619 199.939 132.489 199.816C132.361 199.694 132.297 199.547 132.297 199.375C132.297 199.203 132.361 199.056 132.489 198.934C132.619 198.811 132.774 198.75 132.954 198.75C133.133 198.75 133.287 198.811 133.414 198.934C133.545 199.056 133.61 199.203 133.61 199.375C133.61 199.547 133.545 199.694 133.414 199.816C133.287 199.939 133.133 200 132.954 200ZM137.627 209.375C137.182 209.375 136.799 209.318 136.479 209.203C136.158 209.091 135.891 208.943 135.678 208.758C135.467 208.576 135.299 208.38 135.174 208.172L135.908 207.656C135.992 207.766 136.097 207.891 136.225 208.031C136.352 208.174 136.527 208.298 136.748 208.402C136.972 208.509 137.265 208.562 137.627 208.562C138.111 208.562 138.511 208.445 138.826 208.211C139.141 207.977 139.299 207.609 139.299 207.109V205.891H139.221C139.153 206 139.057 206.135 138.932 206.297C138.809 206.456 138.632 206.598 138.4 206.723C138.171 206.845 137.861 206.906 137.471 206.906C136.986 206.906 136.551 206.792 136.166 206.563C135.783 206.333 135.48 206 135.256 205.562C135.035 205.125 134.924 204.594 134.924 203.969C134.924 203.354 135.032 202.819 135.248 202.363C135.464 201.905 135.765 201.551 136.15 201.301C136.536 201.048 136.981 200.922 137.486 200.922C137.877 200.922 138.187 200.987 138.416 201.117C138.648 201.245 138.825 201.391 138.947 201.555C139.072 201.716 139.169 201.849 139.236 201.953H139.33V201H140.221V207.172C140.221 207.688 140.104 208.107 139.869 208.43C139.637 208.755 139.325 208.993 138.932 209.145C138.541 209.298 138.106 209.375 137.627 209.375ZM137.596 206.078C137.966 206.078 138.278 205.993 138.533 205.824C138.788 205.655 138.982 205.411 139.115 205.094C139.248 204.776 139.314 204.396 139.314 203.953C139.314 203.521 139.249 203.139 139.119 202.809C138.989 202.478 138.796 202.219 138.541 202.031C138.286 201.844 137.971 201.75 137.596 201.75C137.205 201.75 136.88 201.849 136.619 202.047C136.361 202.245 136.167 202.51 136.037 202.844C135.91 203.177 135.846 203.547 135.846 203.953C135.846 204.37 135.911 204.738 136.041 205.059C136.174 205.376 136.369 205.626 136.627 205.809C136.887 205.988 137.21 206.078 137.596 206.078ZM142.94 203.391V207H142.018V199H142.94V201.937H143.018C143.159 201.628 143.37 201.382 143.651 201.199C143.935 201.014 144.313 200.922 144.784 200.922C145.193 200.922 145.551 201.004 145.858 201.168C146.165 201.329 146.404 201.578 146.573 201.914C146.745 202.247 146.831 202.672 146.831 203.188V207H145.909V203.25C145.909 202.773 145.785 202.405 145.538 202.145C145.293 201.882 144.953 201.75 144.518 201.75C144.216 201.75 143.945 201.814 143.706 201.941C143.469 202.069 143.281 202.255 143.143 202.5C143.008 202.745 142.94 203.042 142.94 203.391ZM149.549 199V207H148.627V199H149.549ZM151.941 209.25C151.785 209.25 151.646 209.237 151.523 209.211C151.401 209.188 151.316 209.164 151.269 209.141L151.504 208.328C151.728 208.385 151.926 208.406 152.098 208.391C152.269 208.375 152.422 208.298 152.555 208.16C152.69 208.025 152.814 207.805 152.926 207.5L153.098 207.031L150.879 201H151.879L153.535 205.781H153.598L155.254 201H156.254L153.707 207.875C153.592 208.185 153.45 208.441 153.281 208.645C153.112 208.85 152.915 209.003 152.691 209.102C152.47 209.201 152.22 209.25 151.941 209.25ZM163.3 207.125C162.722 207.125 162.223 206.997 161.804 206.742C161.387 206.484 161.066 206.125 160.839 205.664C160.615 205.201 160.503 204.661 160.503 204.047C160.503 203.432 160.615 202.891 160.839 202.422C161.066 201.951 161.381 201.583 161.784 201.32C162.191 201.055 162.665 200.922 163.206 200.922C163.519 200.922 163.827 200.974 164.132 201.078C164.437 201.182 164.714 201.352 164.964 201.586C165.214 201.818 165.413 202.125 165.562 202.508C165.71 202.891 165.784 203.362 165.784 203.922V204.312H161.159V203.516H164.847C164.847 203.177 164.779 202.875 164.644 202.609C164.511 202.344 164.321 202.134 164.073 201.98C163.829 201.827 163.54 201.75 163.206 201.75C162.839 201.75 162.521 201.841 162.253 202.023C161.988 202.203 161.783 202.437 161.64 202.727C161.497 203.016 161.425 203.326 161.425 203.656V204.188C161.425 204.641 161.503 205.025 161.659 205.34C161.818 205.652 162.038 205.891 162.32 206.055C162.601 206.216 162.928 206.297 163.3 206.297C163.542 206.297 163.761 206.263 163.956 206.195C164.154 206.125 164.325 206.021 164.468 205.883C164.611 205.742 164.722 205.568 164.8 205.359L165.691 205.609C165.597 205.911 165.439 206.177 165.218 206.406C164.997 206.633 164.723 206.81 164.398 206.937C164.072 207.063 163.706 207.125 163.3 207.125ZM169.969 201V201.781H166.734V201H169.969ZM167.703 207V200.172C167.703 199.828 167.784 199.542 167.945 199.312C168.107 199.083 168.316 198.911 168.574 198.797C168.832 198.682 169.104 198.625 169.391 198.625C169.617 198.625 169.802 198.643 169.945 198.68C170.088 198.716 170.195 198.75 170.266 198.781L170 199.578C169.953 199.562 169.888 199.543 169.805 199.52C169.724 199.496 169.617 199.484 169.484 199.484C169.18 199.484 168.96 199.561 168.824 199.715C168.691 199.868 168.625 200.094 168.625 200.391V207H167.703ZM174.043 201V201.781H170.808V201H174.043ZM171.777 207V200.172C171.777 199.828 171.858 199.542 172.019 199.312C172.181 199.083 172.39 198.911 172.648 198.797C172.906 198.682 173.178 198.625 173.464 198.625C173.691 198.625 173.876 198.643 174.019 198.68C174.162 198.716 174.269 198.75 174.339 198.781L174.074 199.578C174.027 199.562 173.962 199.543 173.878 199.52C173.798 199.496 173.691 199.484 173.558 199.484C173.253 199.484 173.033 199.561 172.898 199.715C172.765 199.868 172.699 200.094 172.699 200.391V207H171.777ZM177.713 207.125C177.135 207.125 176.636 206.997 176.217 206.742C175.8 206.484 175.479 206.125 175.252 205.664C175.028 205.201 174.916 204.661 174.916 204.047C174.916 203.432 175.028 202.891 175.252 202.422C175.479 201.951 175.794 201.583 176.197 201.32C176.604 201.055 177.078 200.922 177.619 200.922C177.932 200.922 178.24 200.974 178.545 201.078C178.85 201.182 179.127 201.352 179.377 201.586C179.627 201.818 179.826 202.125 179.975 202.508C180.123 202.891 180.197 203.362 180.197 203.922V204.312H175.572V203.516H179.26C179.26 203.177 179.192 202.875 179.057 202.609C178.924 202.344 178.734 202.134 178.486 201.98C178.242 201.827 177.953 201.75 177.619 201.75C177.252 201.75 176.934 201.841 176.666 202.023C176.401 202.203 176.196 202.437 176.053 202.727C175.91 203.016 175.838 203.326 175.838 203.656V204.188C175.838 204.641 175.916 205.025 176.072 205.34C176.231 205.652 176.451 205.891 176.733 206.055C177.014 206.216 177.341 206.297 177.713 206.297C177.955 206.297 178.174 206.263 178.369 206.195C178.567 206.125 178.738 206.021 178.881 205.883C179.024 205.742 179.135 205.568 179.213 205.359L180.104 205.609C180.01 205.911 179.852 206.177 179.631 206.406C179.41 206.633 179.136 206.81 178.811 206.937C178.485 207.063 178.119 207.125 177.713 207.125ZM184.147 207.125C183.585 207.125 183.1 206.992 182.694 206.727C182.288 206.461 181.975 206.095 181.757 205.629C181.538 205.163 181.429 204.63 181.429 204.031C181.429 203.422 181.54 202.884 181.764 202.418C181.991 201.949 182.306 201.583 182.71 201.32C183.116 201.055 183.59 200.922 184.132 200.922C184.554 200.922 184.934 201 185.272 201.156C185.611 201.312 185.888 201.531 186.104 201.812C186.32 202.094 186.455 202.422 186.507 202.797H185.585C185.514 202.523 185.358 202.281 185.116 202.07C184.876 201.857 184.554 201.75 184.147 201.75C183.788 201.75 183.473 201.844 183.202 202.031C182.934 202.216 182.724 202.478 182.573 202.816C182.425 203.152 182.35 203.547 182.35 204C182.35 204.464 182.423 204.867 182.569 205.211C182.718 205.555 182.926 205.822 183.194 206.012C183.465 206.202 183.783 206.297 184.147 206.297C184.387 206.297 184.604 206.255 184.8 206.172C184.995 206.089 185.16 205.969 185.296 205.812C185.431 205.656 185.527 205.469 185.585 205.25H186.507C186.455 205.604 186.326 205.923 186.12 206.207C185.917 206.488 185.647 206.712 185.311 206.879C184.978 207.043 184.59 207.125 184.147 207.125ZM190.574 201V201.781H187.464V201H190.574ZM188.371 199.562H189.292V205.281C189.292 205.542 189.33 205.737 189.406 205.867C189.484 205.995 189.583 206.081 189.703 206.125C189.825 206.167 189.954 206.187 190.089 206.187C190.191 206.187 190.274 206.182 190.339 206.172C190.404 206.159 190.456 206.148 190.496 206.141L190.683 206.969C190.621 206.992 190.533 207.016 190.421 207.039C190.309 207.065 190.167 207.078 189.996 207.078C189.735 207.078 189.48 207.022 189.23 206.91C188.983 206.798 188.777 206.628 188.613 206.398C188.451 206.169 188.371 205.88 188.371 205.531V199.562ZM192.07 207V201H192.992V207H192.07ZM192.539 200C192.359 200 192.205 199.939 192.074 199.816C191.947 199.694 191.883 199.547 191.883 199.375C191.883 199.203 191.947 199.056 192.074 198.934C192.205 198.811 192.359 198.75 192.539 198.75C192.719 198.75 192.872 198.811 193 198.934C193.13 199.056 193.195 199.203 193.195 199.375C193.195 199.547 193.13 199.694 193 199.816C192.872 199.939 192.719 200 192.539 200ZM199.697 201L197.478 207H196.541L194.322 201H195.322L196.978 205.781H197.041L198.697 201H199.697ZM203.325 207.125C202.746 207.125 202.248 206.997 201.828 206.742C201.412 206.484 201.09 206.125 200.864 205.664C200.64 205.201 200.528 204.661 200.528 204.047C200.528 203.432 200.64 202.891 200.864 202.422C201.09 201.951 201.405 201.583 201.809 201.32C202.215 201.055 202.689 200.922 203.231 200.922C203.543 200.922 203.852 200.974 204.157 201.078C204.461 201.182 204.739 201.352 204.989 201.586C205.239 201.818 205.438 202.125 205.586 202.508C205.735 202.891 205.809 203.362 205.809 203.922V204.312H201.184V203.516H204.871C204.871 203.177 204.804 202.875 204.668 202.609C204.536 202.344 204.345 202.134 204.098 201.98C203.853 201.827 203.564 201.75 203.231 201.75C202.864 201.75 202.546 201.841 202.278 202.023C202.012 202.203 201.808 202.437 201.664 202.727C201.521 203.016 201.45 203.326 201.45 203.656V204.188C201.45 204.641 201.528 205.025 201.684 205.34C201.843 205.652 202.063 205.891 202.344 206.055C202.625 206.216 202.952 206.297 203.325 206.297C203.567 206.297 203.786 206.263 203.981 206.195C204.179 206.125 204.349 206.021 204.493 205.883C204.636 205.742 204.746 205.568 204.825 205.359L205.715 205.609C205.621 205.911 205.464 206.177 205.243 206.406C205.021 206.633 204.748 206.81 204.422 206.937C204.097 207.063 203.731 207.125 203.325 207.125ZM212.291 207.141C211.91 207.141 211.565 207.069 211.256 206.926C210.946 206.78 210.7 206.57 210.517 206.297C210.335 206.021 210.244 205.687 210.244 205.297C210.244 204.953 210.311 204.674 210.447 204.461C210.582 204.245 210.763 204.076 210.99 203.953C211.216 203.831 211.466 203.74 211.74 203.68C212.016 203.617 212.293 203.568 212.572 203.531C212.936 203.484 213.232 203.449 213.459 203.426C213.688 203.4 213.854 203.357 213.959 203.297C214.065 203.237 214.119 203.133 214.119 202.984V202.953C214.119 202.568 214.013 202.268 213.802 202.055C213.594 201.841 213.278 201.734 212.853 201.734C212.413 201.734 212.068 201.831 211.818 202.023C211.568 202.216 211.392 202.422 211.291 202.641L210.416 202.328C210.572 201.964 210.78 201.68 211.041 201.477C211.304 201.271 211.59 201.128 211.9 201.047C212.213 200.964 212.52 200.922 212.822 200.922C213.015 200.922 213.236 200.945 213.486 200.992C213.739 201.036 213.982 201.129 214.216 201.27C214.453 201.41 214.65 201.622 214.806 201.906C214.963 202.19 215.041 202.57 215.041 203.047V207H214.119V206.187H214.072C214.009 206.318 213.905 206.457 213.759 206.605C213.614 206.754 213.42 206.88 213.177 206.984C212.935 207.089 212.64 207.141 212.291 207.141ZM212.431 206.312C212.796 206.312 213.103 206.241 213.353 206.098C213.606 205.954 213.796 205.77 213.923 205.543C214.054 205.316 214.119 205.078 214.119 204.828V203.984C214.08 204.031 213.994 204.074 213.861 204.113C213.731 204.15 213.58 204.182 213.408 204.211C213.239 204.237 213.073 204.26 212.912 204.281C212.753 204.299 212.624 204.315 212.525 204.328C212.285 204.359 212.061 204.41 211.853 204.48C211.647 204.548 211.481 204.651 211.353 204.789C211.228 204.924 211.166 205.109 211.166 205.344C211.166 205.664 211.284 205.906 211.521 206.07C211.761 206.232 212.064 206.312 212.431 206.312ZM219.099 207.125C218.599 207.125 218.158 206.999 217.775 206.746C217.392 206.491 217.092 206.132 216.876 205.668C216.66 205.202 216.552 204.651 216.552 204.016C216.552 203.385 216.66 202.839 216.876 202.375C217.092 201.911 217.393 201.553 217.779 201.301C218.164 201.048 218.609 200.922 219.115 200.922C219.505 200.922 219.814 200.987 220.04 201.117C220.269 201.245 220.444 201.391 220.564 201.555C220.686 201.716 220.781 201.849 220.849 201.953H220.927V199H221.849V207H220.958V206.078H220.849C220.781 206.187 220.685 206.326 220.56 206.492C220.435 206.656 220.256 206.803 220.025 206.934C219.793 207.061 219.484 207.125 219.099 207.125ZM219.224 206.297C219.594 206.297 219.906 206.201 220.161 206.008C220.417 205.812 220.611 205.543 220.743 205.199C220.876 204.853 220.943 204.453 220.943 204C220.943 203.552 220.878 203.16 220.747 202.824C220.617 202.486 220.424 202.223 220.169 202.035C219.914 201.845 219.599 201.75 219.224 201.75C218.833 201.75 218.508 201.85 218.247 202.051C217.99 202.249 217.796 202.518 217.665 202.859C217.538 203.198 217.474 203.578 217.474 204C217.474 204.427 217.539 204.815 217.669 205.164C217.802 205.51 217.997 205.786 218.255 205.992C218.516 206.195 218.838 206.297 219.224 206.297ZM229.417 207.125C228.854 207.125 228.37 206.992 227.963 206.727C227.557 206.461 227.245 206.095 227.026 205.629C226.807 205.163 226.698 204.63 226.698 204.031C226.698 203.422 226.81 202.884 227.034 202.418C227.26 201.949 227.575 201.583 227.979 201.32C228.385 201.055 228.859 200.922 229.401 200.922C229.823 200.922 230.203 201 230.542 201.156C230.88 201.312 231.157 201.531 231.374 201.812C231.59 202.094 231.724 202.422 231.776 202.797H230.854C230.784 202.523 230.628 202.281 230.385 202.07C230.146 201.857 229.823 201.75 229.417 201.75C229.057 201.75 228.742 201.844 228.471 202.031C228.203 202.216 227.993 202.478 227.842 202.816C227.694 203.152 227.62 203.547 227.62 204C227.62 204.464 227.693 204.867 227.838 205.211C227.987 205.555 228.195 205.822 228.463 206.012C228.734 206.202 229.052 206.297 229.417 206.297C229.656 206.297 229.874 206.255 230.069 206.172C230.264 206.089 230.43 205.969 230.565 205.812C230.7 205.656 230.797 205.469 230.854 205.25H231.776C231.724 205.604 231.595 205.923 231.389 206.207C231.186 206.488 230.917 206.712 230.581 206.879C230.247 207.043 229.859 207.125 229.417 207.125ZM235.671 207.125C235.129 207.125 234.654 206.996 234.245 206.738C233.839 206.48 233.521 206.12 233.292 205.656C233.066 205.193 232.952 204.651 232.952 204.031C232.952 203.406 233.066 202.861 233.292 202.395C233.521 201.928 233.839 201.566 234.245 201.309C234.654 201.051 235.129 200.922 235.671 200.922C236.213 200.922 236.687 201.051 237.093 201.309C237.502 201.566 237.82 201.928 238.046 202.395C238.275 202.861 238.39 203.406 238.39 204.031C238.39 204.651 238.275 205.193 238.046 205.656C237.82 206.12 237.502 206.48 237.093 206.738C236.687 206.996 236.213 207.125 235.671 207.125ZM235.671 206.297C236.083 206.297 236.421 206.191 236.687 205.98C236.952 205.77 237.149 205.492 237.277 205.148C237.404 204.805 237.468 204.432 237.468 204.031C237.468 203.63 237.404 203.257 237.277 202.91C237.149 202.564 236.952 202.284 236.687 202.07C236.421 201.857 236.083 201.75 235.671 201.75C235.26 201.75 234.921 201.857 234.655 202.07C234.39 202.284 234.193 202.564 234.066 202.91C233.938 203.257 233.874 203.63 233.874 204.031C233.874 204.432 233.938 204.805 234.066 205.148C234.193 205.492 234.39 205.77 234.655 205.98C234.921 206.191 235.26 206.297 235.671 206.297ZM239.907 209.25V201H240.798V201.953H240.907C240.975 201.849 241.069 201.716 241.188 201.555C241.311 201.391 241.485 201.245 241.712 201.117C241.941 200.987 242.251 200.922 242.641 200.922C243.147 200.922 243.592 201.048 243.977 201.301C244.363 201.553 244.664 201.911 244.88 202.375C245.096 202.839 245.204 203.385 245.204 204.016C245.204 204.651 245.096 205.202 244.88 205.668C244.664 206.132 244.364 206.491 243.981 206.746C243.598 206.999 243.157 207.125 242.657 207.125C242.272 207.125 241.963 207.061 241.731 206.934C241.5 206.803 241.321 206.656 241.196 206.492C241.071 206.326 240.975 206.187 240.907 206.078H240.829V209.25H239.907ZM240.813 204C240.813 204.453 240.88 204.853 241.013 205.199C241.145 205.543 241.339 205.812 241.595 206.008C241.85 206.201 242.162 206.297 242.532 206.297C242.917 206.297 243.239 206.195 243.497 205.992C243.757 205.786 243.953 205.51 244.083 205.164C244.216 204.815 244.282 204.427 244.282 204C244.282 203.578 244.217 203.198 244.087 202.859C243.959 202.518 243.765 202.249 243.505 202.051C243.247 201.85 242.923 201.75 242.532 201.75C242.157 201.75 241.842 201.845 241.587 202.035C241.332 202.223 241.139 202.486 241.009 202.824C240.878 203.16 240.813 203.552 240.813 204ZM247.099 209.25C246.943 209.25 246.804 209.237 246.681 209.211C246.559 209.188 246.474 209.164 246.427 209.141L246.662 208.328C246.886 208.385 247.083 208.406 247.255 208.391C247.427 208.375 247.58 208.298 247.712 208.16C247.848 208.025 247.972 207.805 248.083 207.5L248.255 207.031L246.037 201H247.037L248.693 205.781H248.755L250.412 201H251.412L248.865 207.875C248.75 208.185 248.608 208.441 248.439 208.645C248.27 208.85 248.073 209.003 247.849 209.102C247.628 209.201 247.378 209.25 247.099 209.25Z" fill="#2D2D2D" fill-opacity="0.7"/>
<path d="M88.8779 239V231H89.8467V234.562H94.1123V231H95.0811V239H94.1123V235.422H89.8467V239H88.8779ZM99.5211 239.125C98.943 239.125 98.4443 238.997 98.025 238.742C97.6084 238.484 97.2868 238.125 97.0602 237.664C96.8362 237.201 96.7243 236.661 96.7243 236.047C96.7243 235.432 96.8362 234.891 97.0602 234.422C97.2868 233.951 97.6019 233.583 98.0055 233.32C98.4118 233.055 98.8857 232.922 99.4274 232.922C99.7399 232.922 100.048 232.974 100.353 233.078C100.658 233.182 100.935 233.352 101.185 233.586C101.435 233.818 101.634 234.125 101.783 234.508C101.931 234.891 102.006 235.362 102.006 235.922V236.312H97.3805V235.516H101.068C101.068 235.177 101 234.875 100.865 234.609C100.732 234.344 100.542 234.134 100.295 233.98C100.05 233.827 99.7607 233.75 99.4274 233.75C99.0602 233.75 98.7425 233.841 98.4743 234.023C98.2086 234.203 98.0042 234.437 97.861 234.727C97.7177 235.016 97.6461 235.326 97.6461 235.656V236.188C97.6461 236.641 97.7243 237.025 97.8805 237.34C98.0394 237.652 98.2594 237.891 98.5407 238.055C98.8219 238.216 99.1487 238.297 99.5211 238.297C99.7633 238.297 99.9821 238.263 100.177 238.195C100.375 238.125 100.546 238.021 100.689 237.883C100.832 237.742 100.943 237.568 101.021 237.359L101.912 237.609C101.818 237.911 101.66 238.177 101.439 238.406C101.218 238.633 100.944 238.81 100.619 238.937C100.293 239.063 99.9274 239.125 99.5211 239.125ZM105.283 239.141C104.903 239.141 104.558 239.069 104.248 238.926C103.938 238.78 103.692 238.57 103.51 238.297C103.328 238.021 103.237 237.687 103.237 237.297C103.237 236.953 103.304 236.674 103.44 236.461C103.575 236.245 103.756 236.076 103.983 235.953C104.209 235.831 104.459 235.74 104.733 235.68C105.009 235.617 105.286 235.568 105.565 235.531C105.929 235.484 106.225 235.449 106.451 235.426C106.681 235.4 106.847 235.357 106.951 235.297C107.058 235.237 107.112 235.133 107.112 234.984V234.953C107.112 234.568 107.006 234.268 106.795 234.055C106.587 233.841 106.27 233.734 105.846 233.734C105.406 233.734 105.061 233.831 104.811 234.023C104.561 234.216 104.385 234.422 104.283 234.641L103.408 234.328C103.565 233.964 103.773 233.68 104.033 233.477C104.296 233.271 104.583 233.128 104.893 233.047C105.205 232.964 105.513 232.922 105.815 232.922C106.007 232.922 106.229 232.945 106.479 232.992C106.731 233.036 106.975 233.129 107.209 233.27C107.446 233.41 107.643 233.622 107.799 233.906C107.955 234.19 108.033 234.57 108.033 235.047V239H107.112V238.187H107.065C107.002 238.318 106.898 238.457 106.752 238.605C106.606 238.754 106.412 238.88 106.17 238.984C105.928 239.089 105.632 239.141 105.283 239.141ZM105.424 238.312C105.789 238.312 106.096 238.241 106.346 238.098C106.599 237.954 106.789 237.77 106.916 237.543C107.046 237.316 107.112 237.078 107.112 236.828V235.984C107.073 236.031 106.987 236.074 106.854 236.113C106.724 236.15 106.573 236.182 106.401 236.211C106.231 236.237 106.066 236.26 105.905 236.281C105.746 236.299 105.617 236.315 105.518 236.328C105.278 236.359 105.054 236.41 104.846 236.48C104.64 236.548 104.474 236.651 104.346 236.789C104.221 236.924 104.158 237.109 104.158 237.344C104.158 237.664 104.277 237.906 104.514 238.07C104.754 238.232 105.057 238.312 105.424 238.312ZM112.092 239.125C111.592 239.125 111.15 238.999 110.767 238.746C110.385 238.491 110.085 238.132 109.869 237.668C109.653 237.202 109.545 236.651 109.545 236.016C109.545 235.385 109.653 234.839 109.869 234.375C110.085 233.911 110.386 233.553 110.771 233.301C111.157 233.048 111.602 232.922 112.107 232.922C112.498 232.922 112.807 232.987 113.033 233.117C113.262 233.245 113.437 233.391 113.557 233.555C113.679 233.716 113.774 233.849 113.842 233.953H113.92V231H114.842V239H113.951V238.078H113.842C113.774 238.187 113.678 238.326 113.553 238.492C113.428 238.656 113.249 238.803 113.018 238.934C112.786 239.061 112.477 239.125 112.092 239.125ZM112.217 238.297C112.587 238.297 112.899 238.201 113.154 238.008C113.409 237.812 113.603 237.543 113.736 237.199C113.869 236.853 113.935 236.453 113.935 236C113.935 235.552 113.87 235.16 113.74 234.824C113.61 234.486 113.417 234.223 113.162 234.035C112.907 233.845 112.592 233.75 112.217 233.75C111.826 233.75 111.501 233.85 111.24 234.051C110.982 234.249 110.788 234.518 110.658 234.859C110.531 235.198 110.467 235.578 110.467 236C110.467 236.427 110.532 236.815 110.662 237.164C110.795 237.51 110.99 237.786 111.248 237.992C111.508 238.195 111.831 238.297 112.217 238.297ZM117.69 231V239H116.768V231H117.69ZM119.488 239V233H120.41V239H119.488ZM119.957 232C119.778 232 119.623 231.939 119.492 231.816C119.365 231.694 119.301 231.547 119.301 231.375C119.301 231.203 119.365 231.056 119.492 230.934C119.623 230.811 119.778 230.75 119.957 230.75C120.137 230.75 120.291 230.811 120.418 230.934C120.548 231.056 120.613 231.203 120.613 231.375C120.613 231.547 120.548 231.694 120.418 231.816C120.291 231.939 120.137 232 119.957 232ZM123.131 235.391V239H122.209V233H123.099V233.937H123.178C123.318 233.633 123.532 233.388 123.818 233.203C124.105 233.016 124.474 232.922 124.928 232.922C125.334 232.922 125.689 233.005 125.994 233.172C126.299 233.336 126.536 233.586 126.705 233.922C126.874 234.255 126.959 234.677 126.959 235.188V239H126.037V235.25C126.037 234.779 125.915 234.411 125.67 234.148C125.425 233.883 125.089 233.75 124.662 233.75C124.368 233.75 124.105 233.814 123.873 233.941C123.644 234.069 123.463 234.255 123.33 234.5C123.197 234.745 123.131 235.042 123.131 235.391ZM131.269 239.125C130.691 239.125 130.192 238.997 129.773 238.742C129.356 238.484 129.035 238.125 128.808 237.664C128.584 237.201 128.472 236.661 128.472 236.047C128.472 235.432 128.584 234.891 128.808 234.422C129.035 233.951 129.35 233.583 129.753 233.32C130.16 233.055 130.634 232.922 131.175 232.922C131.488 232.922 131.796 232.974 132.101 233.078C132.406 233.182 132.683 233.352 132.933 233.586C133.183 233.818 133.382 234.125 133.531 234.508C133.679 234.891 133.753 235.362 133.753 235.922V236.312H129.128V235.516H132.816C132.816 235.177 132.748 234.875 132.613 234.609C132.48 234.344 132.29 234.134 132.042 233.98C131.798 233.827 131.509 233.75 131.175 233.75C130.808 233.75 130.49 233.841 130.222 234.023C129.957 234.203 129.752 234.437 129.609 234.727C129.466 235.016 129.394 235.326 129.394 235.656V236.188C129.394 236.641 129.472 237.025 129.628 237.34C129.787 237.652 130.007 237.891 130.289 238.055C130.57 238.216 130.897 238.297 131.269 238.297C131.511 238.297 131.73 238.263 131.925 238.195C132.123 238.125 132.294 238.021 132.437 237.883C132.58 237.742 132.691 237.568 132.769 237.359L133.66 237.609C133.566 237.911 133.408 238.177 133.187 238.406C132.966 238.633 132.692 238.81 132.367 238.937C132.041 239.063 131.675 239.125 131.269 239.125ZM139.516 234.344L138.688 234.578C138.636 234.44 138.559 234.306 138.457 234.176C138.358 234.043 138.223 233.934 138.051 233.848C137.879 233.762 137.659 233.719 137.391 233.719C137.024 233.719 136.718 233.803 136.473 233.973C136.231 234.139 136.109 234.352 136.109 234.609C136.109 234.839 136.193 235.02 136.359 235.152C136.526 235.285 136.787 235.396 137.141 235.484L138.031 235.703C138.568 235.833 138.968 236.033 139.231 236.301C139.494 236.566 139.625 236.909 139.625 237.328C139.625 237.672 139.526 237.979 139.328 238.25C139.133 238.521 138.859 238.734 138.508 238.891C138.156 239.047 137.748 239.125 137.281 239.125C136.669 239.125 136.163 238.992 135.762 238.727C135.361 238.461 135.107 238.073 135 237.562L135.875 237.344C135.958 237.667 136.116 237.909 136.348 238.07C136.582 238.232 136.888 238.312 137.266 238.312C137.695 238.312 138.037 238.221 138.289 238.039C138.544 237.854 138.672 237.633 138.672 237.375C138.672 237.167 138.599 236.992 138.453 236.852C138.307 236.708 138.083 236.602 137.781 236.531L136.781 236.297C136.232 236.167 135.828 235.965 135.57 235.691C135.315 235.415 135.188 235.07 135.188 234.656C135.188 234.318 135.283 234.018 135.473 233.758C135.665 233.497 135.927 233.293 136.258 233.145C136.591 232.996 136.969 232.922 137.391 232.922C137.984 232.922 138.451 233.052 138.789 233.312C139.13 233.573 139.373 233.917 139.516 234.344Z" fill="#2D2D2D" fill-opacity="0.7"/>
<path d="M219.347 239H216.878V231H219.456C220.232 231 220.896 231.16 221.448 231.48C222 231.798 222.424 232.255 222.718 232.852C223.012 233.445 223.159 234.156 223.159 234.984C223.159 235.818 223.011 236.535 222.714 237.137C222.417 237.736 221.985 238.197 221.417 238.52C220.849 238.84 220.159 239 219.347 239ZM217.847 238.141H219.284C219.946 238.141 220.494 238.013 220.929 237.758C221.364 237.503 221.688 237.139 221.901 236.668C222.115 236.197 222.222 235.635 222.222 234.984C222.222 234.339 222.116 233.783 221.905 233.316C221.694 232.848 221.379 232.488 220.96 232.238C220.541 231.986 220.019 231.859 219.394 231.859H217.847V238.141ZM227.285 239.125C226.707 239.125 226.208 238.997 225.789 238.742C225.372 238.484 225.05 238.125 224.824 237.664C224.6 237.201 224.488 236.661 224.488 236.047C224.488 235.432 224.6 234.891 224.824 234.422C225.05 233.951 225.366 233.583 225.769 233.32C226.175 233.055 226.649 232.922 227.191 232.922C227.504 232.922 227.812 232.974 228.117 233.078C228.422 233.182 228.699 233.352 228.949 233.586C229.199 233.818 229.398 234.125 229.547 234.508C229.695 234.891 229.769 235.362 229.769 235.922V236.312H225.144V235.516H228.832C228.832 235.177 228.764 234.875 228.629 234.609C228.496 234.344 228.306 234.134 228.058 233.98C227.813 233.827 227.524 233.75 227.191 233.75C226.824 233.75 226.506 233.841 226.238 234.023C225.972 234.203 225.768 234.437 225.625 234.727C225.481 235.016 225.41 235.326 225.41 235.656V236.188C225.41 236.641 225.488 237.025 225.644 237.34C225.803 237.652 226.023 237.891 226.304 238.055C226.586 238.216 226.912 238.297 227.285 238.297C227.527 238.297 227.746 238.263 227.941 238.195C228.139 238.125 228.31 238.021 228.453 237.883C228.596 237.742 228.707 237.568 228.785 237.359L229.675 237.609C229.582 237.911 229.424 238.177 229.203 238.406C228.981 238.633 228.708 238.81 228.382 238.937C228.057 239.063 227.691 239.125 227.285 239.125ZM235.532 234.344L234.703 234.578C234.651 234.44 234.574 234.306 234.473 234.176C234.374 234.043 234.239 233.934 234.067 233.848C233.895 233.762 233.675 233.719 233.407 233.719C233.039 233.719 232.733 233.803 232.489 233.973C232.246 234.139 232.125 234.352 232.125 234.609C232.125 234.839 232.209 235.02 232.375 235.152C232.542 235.285 232.802 235.396 233.157 235.484L234.047 235.703C234.584 235.833 234.983 236.033 235.246 236.301C235.509 236.566 235.641 236.909 235.641 237.328C235.641 237.672 235.542 237.979 235.344 238.25C235.149 238.521 234.875 238.734 234.524 238.891C234.172 239.047 233.763 239.125 233.297 239.125C232.685 239.125 232.179 238.992 231.778 238.727C231.377 238.461 231.123 238.073 231.016 237.562L231.891 237.344C231.974 237.667 232.132 237.909 232.364 238.07C232.598 238.232 232.904 238.312 233.282 238.312C233.711 238.312 234.052 238.221 234.305 238.039C234.56 237.854 234.688 237.633 234.688 237.375C234.688 237.167 234.615 236.992 234.469 236.852C234.323 236.708 234.099 236.602 233.797 236.531L232.797 236.297C232.248 236.167 231.844 235.965 231.586 235.691C231.331 235.415 231.203 235.07 231.203 234.656C231.203 234.318 231.298 234.018 231.489 233.758C231.681 233.497 231.943 233.293 232.274 233.145C232.607 232.996 232.985 232.922 233.407 232.922C234 232.922 234.466 233.052 234.805 233.312C235.146 233.573 235.388 233.917 235.532 234.344ZM239.576 239.125C239.014 239.125 238.529 238.992 238.123 238.727C237.717 238.461 237.404 238.095 237.185 237.629C236.967 237.163 236.857 236.63 236.857 236.031C236.857 235.422 236.969 234.884 237.193 234.418C237.42 233.949 237.735 233.583 238.139 233.32C238.545 233.055 239.019 232.922 239.56 232.922C239.982 232.922 240.363 233 240.701 233.156C241.04 233.312 241.317 233.531 241.533 233.812C241.749 234.094 241.883 234.422 241.935 234.797H241.014C240.943 234.523 240.787 234.281 240.545 234.07C240.305 233.857 239.982 233.75 239.576 233.75C239.217 233.75 238.902 233.844 238.631 234.031C238.363 234.216 238.153 234.478 238.002 234.816C237.853 235.152 237.779 235.547 237.779 236C237.779 236.464 237.852 236.867 237.998 237.211C238.146 237.555 238.355 237.822 238.623 238.012C238.894 238.202 239.212 238.297 239.576 238.297C239.816 238.297 240.033 238.255 240.228 238.172C240.424 238.089 240.589 237.969 240.725 237.812C240.86 237.656 240.956 237.469 241.014 237.25H241.935C241.883 237.604 241.754 237.923 241.549 238.207C241.346 238.488 241.076 238.712 240.74 238.879C240.407 239.043 240.019 239.125 239.576 239.125ZM243.393 239V233H244.284V233.906H244.346C244.456 233.609 244.654 233.368 244.94 233.184C245.226 232.999 245.549 232.906 245.909 232.906C245.976 232.906 246.061 232.908 246.163 232.91C246.264 232.913 246.341 232.917 246.393 232.922V233.859C246.362 233.852 246.29 233.84 246.178 233.824C246.069 233.806 245.953 233.797 245.831 233.797C245.539 233.797 245.279 233.858 245.049 233.98C244.823 234.1 244.643 234.267 244.51 234.48C244.38 234.691 244.315 234.932 244.315 235.203V239H243.393ZM247.596 239V233H248.518V239H247.596ZM248.065 232C247.885 232 247.73 231.939 247.6 231.816C247.472 231.694 247.408 231.547 247.408 231.375C247.408 231.203 247.472 231.056 247.6 230.934C247.73 230.811 247.885 230.75 248.065 230.75C248.244 230.75 248.398 230.811 248.526 230.934C248.656 231.056 248.721 231.203 248.721 231.375C248.721 231.547 248.656 231.694 248.526 231.816C248.398 231.939 248.244 232 248.065 232ZM250.316 241.25V233H251.207V233.953H251.316C251.384 233.849 251.478 233.716 251.597 233.555C251.72 233.391 251.894 233.245 252.121 233.117C252.35 232.987 252.66 232.922 253.051 232.922C253.556 232.922 254.001 233.048 254.387 233.301C254.772 233.553 255.073 233.911 255.289 234.375C255.505 234.839 255.613 235.385 255.613 236.016C255.613 236.651 255.505 237.202 255.289 237.668C255.073 238.132 254.773 238.491 254.39 238.746C254.008 238.999 253.566 239.125 253.066 239.125C252.681 239.125 252.372 239.061 252.14 238.934C251.909 238.803 251.73 238.656 251.605 238.492C251.48 238.326 251.384 238.187 251.316 238.078H251.238V241.25H250.316ZM251.222 236C251.222 236.453 251.289 236.853 251.422 237.199C251.555 237.543 251.749 237.812 252.004 238.008C252.259 238.201 252.571 238.297 252.941 238.297C253.327 238.297 253.648 238.195 253.906 237.992C254.167 237.786 254.362 237.51 254.492 237.164C254.625 236.815 254.691 236.427 254.691 236C254.691 235.578 254.626 235.198 254.496 234.859C254.368 234.518 254.174 234.249 253.914 234.051C253.656 233.85 253.332 233.75 252.941 233.75C252.566 233.75 252.251 233.845 251.996 234.035C251.741 234.223 251.548 234.486 251.418 234.824C251.288 235.16 251.222 235.552 251.222 236ZM259.739 233V233.781H256.629V233H259.739ZM257.536 231.562H258.458V237.281C258.458 237.542 258.495 237.737 258.571 237.867C258.649 237.995 258.748 238.081 258.868 238.125C258.99 238.167 259.119 238.187 259.254 238.187C259.356 238.187 259.439 238.182 259.504 238.172C259.569 238.159 259.622 238.148 259.661 238.141L259.848 238.969C259.786 238.992 259.698 239.016 259.586 239.039C259.474 239.065 259.333 239.078 259.161 239.078C258.9 239.078 258.645 239.022 258.395 238.91C258.148 238.798 257.942 238.628 257.778 238.398C257.616 238.169 257.536 237.88 257.536 237.531V231.562ZM261.235 239V233H262.157V239H261.235ZM261.704 232C261.525 232 261.37 231.939 261.239 231.816C261.112 231.694 261.048 231.547 261.048 231.375C261.048 231.203 261.112 231.056 261.239 230.934C261.37 230.811 261.525 230.75 261.704 230.75C261.884 230.75 262.038 230.811 262.165 230.934C262.295 231.056 262.36 231.203 262.36 231.375C262.36 231.547 262.295 231.694 262.165 231.816C262.038 231.939 261.884 232 261.704 232ZM266.393 239.125C265.852 239.125 265.376 238.996 264.968 238.738C264.561 238.48 264.244 238.12 264.014 237.656C263.788 237.193 263.675 236.651 263.675 236.031C263.675 235.406 263.788 234.861 264.014 234.395C264.244 233.928 264.561 233.566 264.968 233.309C265.376 233.051 265.852 232.922 266.393 232.922C266.935 232.922 267.409 233.051 267.815 233.309C268.224 233.566 268.542 233.928 268.768 234.395C268.997 234.861 269.112 235.406 269.112 236.031C269.112 236.651 268.997 237.193 268.768 237.656C268.542 238.12 268.224 238.48 267.815 238.738C267.409 238.996 266.935 239.125 266.393 239.125ZM266.393 238.297C266.805 238.297 267.143 238.191 267.409 237.98C267.675 237.77 267.871 237.492 267.999 237.148C268.126 236.805 268.19 236.432 268.19 236.031C268.19 235.63 268.126 235.257 267.999 234.91C267.871 234.564 267.675 234.284 267.409 234.07C267.143 233.857 266.805 233.75 266.393 233.75C265.982 233.75 265.643 233.857 265.378 234.07C265.112 234.284 264.915 234.564 264.788 234.91C264.66 235.257 264.596 235.63 264.596 236.031C264.596 236.432 264.66 236.805 264.788 237.148C264.915 237.492 265.112 237.77 265.378 237.98C265.643 238.191 265.982 238.297 266.393 238.297ZM271.551 235.391V239H270.629V233H271.52V233.937H271.598C271.739 233.633 271.952 233.388 272.239 233.203C272.525 233.016 272.895 232.922 273.348 232.922C273.754 232.922 274.11 233.005 274.414 233.172C274.719 233.336 274.956 233.586 275.125 233.922C275.295 234.255 275.379 234.677 275.379 235.188V239H274.457V235.25C274.457 234.779 274.335 234.411 274.09 234.148C273.845 233.883 273.51 233.75 273.082 233.75C272.788 233.75 272.525 233.814 272.293 233.941C272.064 234.069 271.883 234.255 271.75 234.5C271.618 234.745 271.551 235.042 271.551 235.391ZM281.424 234.344L280.596 234.578C280.544 234.44 280.467 234.306 280.365 234.176C280.266 234.043 280.131 233.934 279.959 233.848C279.787 233.762 279.567 233.719 279.299 233.719C278.932 233.719 278.626 233.803 278.381 233.973C278.139 234.139 278.018 234.352 278.018 234.609C278.018 234.839 278.101 235.02 278.268 235.152C278.434 235.285 278.695 235.396 279.049 235.484L279.939 235.703C280.476 235.833 280.876 236.033 281.139 236.301C281.402 236.566 281.533 236.909 281.533 237.328C281.533 237.672 281.434 237.979 281.236 238.25C281.041 238.521 280.768 238.734 280.416 238.891C280.064 239.047 279.656 239.125 279.189 239.125C278.578 239.125 278.071 238.992 277.67 238.727C277.269 238.461 277.015 238.073 276.908 237.562L277.783 237.344C277.867 237.667 278.024 237.909 278.256 238.07C278.49 238.232 278.796 238.312 279.174 238.312C279.604 238.312 279.945 238.221 280.197 238.039C280.453 237.854 280.58 237.633 280.58 237.375C280.58 237.167 280.507 236.992 280.361 236.852C280.216 236.708 279.992 236.602 279.689 236.531L278.689 236.297C278.14 236.167 277.736 235.965 277.479 235.691C277.223 235.415 277.096 235.07 277.096 234.656C277.096 234.318 277.191 234.018 277.381 233.758C277.574 233.497 277.835 233.293 278.166 233.145C278.499 232.996 278.877 232.922 279.299 232.922C279.893 232.922 280.359 233.052 280.697 233.312C281.038 233.573 281.281 233.917 281.424 234.344Z" fill="#2D2D2D" fill-opacity="0.7"/>
<path d="M88.8779 267V259H91.5811C92.2087 259 92.7217 259.113 93.1201 259.34C93.5212 259.564 93.818 259.867 94.0107 260.25C94.2035 260.633 94.2998 261.06 94.2998 261.531C94.2998 262.003 94.2035 262.431 94.0107 262.816C93.8206 263.202 93.5264 263.509 93.1279 263.738C92.7295 263.965 92.2191 264.078 91.5967 264.078H89.6592V263.219H91.5654C91.9951 263.219 92.3402 263.145 92.6006 262.996C92.861 262.848 93.0498 262.647 93.167 262.395C93.2868 262.139 93.3467 261.852 93.3467 261.531C93.3467 261.211 93.2868 260.924 93.167 260.672C93.0498 260.419 92.8597 260.221 92.5967 260.078C92.3337 259.932 91.9847 259.859 91.5498 259.859H89.8467V267H88.8779ZM95.8454 267V261H96.736V261.906H96.7985C96.9079 261.609 97.1058 261.368 97.3922 261.184C97.6787 260.999 98.0016 260.906 98.361 260.906C98.4287 260.906 98.5133 260.908 98.6149 260.91C98.7164 260.913 98.7933 260.917 98.8454 260.922V261.859C98.8141 261.852 98.7425 261.84 98.6305 261.824C98.5211 261.806 98.4052 261.797 98.2829 261.797C97.9912 261.797 97.7308 261.858 97.5016 261.98C97.275 262.1 97.0954 262.267 96.9625 262.48C96.8323 262.691 96.7672 262.932 96.7672 263.203V267H95.8454ZM100.048 267V261H100.97V267H100.048ZM100.517 260C100.337 260 100.182 259.939 100.052 259.816C99.9244 259.694 99.8606 259.547 99.8606 259.375C99.8606 259.203 99.9244 259.056 100.052 258.934C100.182 258.811 100.337 258.75 100.517 258.75C100.697 258.75 100.85 258.811 100.978 258.934C101.108 259.056 101.173 259.203 101.173 259.375C101.173 259.547 101.108 259.694 100.978 259.816C100.85 259.939 100.697 260 100.517 260ZM102.768 267V261H103.659V261.937H103.737C103.862 261.617 104.064 261.368 104.343 261.191C104.621 261.012 104.956 260.922 105.347 260.922C105.742 260.922 106.072 261.012 106.335 261.191C106.601 261.368 106.808 261.617 106.956 261.937H107.018C107.172 261.628 107.403 261.382 107.71 261.199C108.017 261.014 108.386 260.922 108.815 260.922C109.352 260.922 109.791 261.09 110.132 261.426C110.473 261.759 110.643 262.279 110.643 262.984V267H109.722V262.984C109.722 262.542 109.601 262.225 109.358 262.035C109.116 261.845 108.831 261.75 108.503 261.75C108.081 261.75 107.754 261.878 107.522 262.133C107.291 262.385 107.175 262.706 107.175 263.094V267H106.237V262.891C106.237 262.549 106.127 262.275 105.905 262.066C105.684 261.855 105.399 261.75 105.05 261.75C104.81 261.75 104.586 261.814 104.378 261.941C104.172 262.069 104.005 262.246 103.878 262.473C103.753 262.697 103.69 262.956 103.69 263.25V267H102.768ZM114.205 267.141C113.824 267.141 113.479 267.069 113.169 266.926C112.86 266.78 112.614 266.57 112.431 266.297C112.249 266.021 112.158 265.687 112.158 265.297C112.158 264.953 112.225 264.674 112.361 264.461C112.496 264.245 112.677 264.076 112.904 263.953C113.13 263.831 113.38 263.74 113.654 263.68C113.93 263.617 114.207 263.568 114.486 263.531C114.85 263.484 115.146 263.449 115.373 263.426C115.602 263.4 115.768 263.357 115.873 263.297C115.979 263.237 116.033 263.133 116.033 262.984V262.953C116.033 262.568 115.927 262.268 115.716 262.055C115.508 261.841 115.192 261.734 114.767 261.734C114.327 261.734 113.982 261.831 113.732 262.023C113.482 262.216 113.306 262.422 113.205 262.641L112.33 262.328C112.486 261.964 112.694 261.68 112.955 261.477C113.218 261.271 113.504 261.128 113.814 261.047C114.127 260.964 114.434 260.922 114.736 260.922C114.929 260.922 115.15 260.945 115.4 260.992C115.653 261.036 115.896 261.129 116.13 261.27C116.367 261.41 116.564 261.622 116.72 261.906C116.877 262.19 116.955 262.57 116.955 263.047V267H116.033V266.187H115.986C115.923 266.318 115.819 266.457 115.673 266.605C115.528 266.754 115.334 266.88 115.091 266.984C114.849 267.089 114.554 267.141 114.205 267.141ZM114.345 266.312C114.71 266.312 115.017 266.241 115.267 266.098C115.52 265.954 115.71 265.77 115.837 265.543C115.968 265.316 116.033 265.078 116.033 264.828V263.984C115.994 264.031 115.908 264.074 115.775 264.113C115.645 264.15 115.494 264.182 115.322 264.211C115.153 264.237 114.987 264.26 114.826 264.281C114.667 264.299 114.538 264.315 114.439 264.328C114.199 264.359 113.975 264.41 113.767 264.48C113.561 264.548 113.395 264.651 113.267 264.789C113.142 264.924 113.08 265.109 113.08 265.344C113.08 265.664 113.198 265.906 113.435 266.07C113.675 266.232 113.978 266.312 114.345 266.312ZM118.747 267V261H119.638V261.906H119.7C119.81 261.609 120.008 261.368 120.294 261.184C120.581 260.999 120.904 260.906 121.263 260.906C121.331 260.906 121.415 260.908 121.517 260.91C121.618 260.913 121.695 260.917 121.747 260.922V261.859C121.716 261.852 121.644 261.84 121.532 261.824C121.423 261.806 121.307 261.797 121.185 261.797C120.893 261.797 120.633 261.858 120.404 261.98C120.177 262.1 119.997 262.267 119.864 262.48C119.734 262.691 119.669 262.932 119.669 263.203V267H118.747ZM123.726 269.25C123.57 269.25 123.431 269.237 123.308 269.211C123.186 269.188 123.101 269.164 123.055 269.141L123.289 268.328C123.513 268.385 123.711 268.406 123.883 268.391C124.055 268.375 124.207 268.298 124.34 268.16C124.475 268.025 124.599 267.805 124.711 267.5L124.883 267.031L122.664 261H123.664L125.32 265.781H125.383L127.039 261H128.039L125.492 267.875C125.377 268.185 125.236 268.441 125.066 268.645C124.897 268.85 124.7 269.003 124.476 269.102C124.255 269.201 124.005 269.25 123.726 269.25ZM132.257 259.859V259H138.257V259.859H135.741V267H134.773V259.859H132.257ZM141.383 267.125C140.804 267.125 140.306 266.997 139.886 266.742C139.47 266.484 139.148 266.125 138.922 265.664C138.698 265.201 138.586 264.661 138.586 264.047C138.586 263.432 138.698 262.891 138.922 262.422C139.148 261.951 139.463 261.583 139.867 261.32C140.273 261.055 140.747 260.922 141.289 260.922C141.601 260.922 141.91 260.974 142.215 261.078C142.519 261.182 142.797 261.352 143.047 261.586C143.297 261.818 143.496 262.125 143.644 262.508C143.793 262.891 143.867 263.362 143.867 263.922V264.312H139.242V263.516H142.929C142.929 263.177 142.862 262.875 142.726 262.609C142.594 262.344 142.403 262.134 142.156 261.98C141.911 261.827 141.622 261.75 141.289 261.75C140.922 261.75 140.604 261.841 140.336 262.023C140.07 262.203 139.866 262.437 139.722 262.727C139.579 263.016 139.508 263.326 139.508 263.656V264.188C139.508 264.641 139.586 265.025 139.742 265.34C139.901 265.652 140.121 265.891 140.402 266.055C140.683 266.216 141.01 266.297 141.383 266.297C141.625 266.297 141.844 266.263 142.039 266.195C142.237 266.125 142.407 266.021 142.551 265.883C142.694 265.742 142.804 265.568 142.883 265.359L143.773 265.609C143.679 265.911 143.522 266.177 143.301 266.406C143.079 266.633 142.806 266.81 142.48 266.937C142.155 267.063 141.789 267.125 141.383 267.125ZM145.906 261L147.343 263.453L148.781 261H149.843L147.906 264L149.843 267H148.781L147.343 264.672L145.906 267H144.843L146.749 264L144.843 261H145.906ZM153.878 261V261.781H150.769V261H153.878ZM151.675 259.562H152.597V265.281C152.597 265.542 152.634 265.737 152.71 265.867C152.788 265.995 152.887 266.081 153.007 266.125C153.129 266.167 153.258 266.187 153.394 266.187C153.495 266.187 153.578 266.182 153.644 266.172C153.709 266.159 153.761 266.148 153.8 266.141L153.987 266.969C153.925 266.992 153.838 267.016 153.726 267.039C153.614 267.065 153.472 267.078 153.3 267.078C153.039 267.078 152.784 267.022 152.534 266.91C152.287 266.798 152.081 266.628 151.917 266.398C151.756 266.169 151.675 265.88 151.675 265.531V259.562ZM159.517 262.344L158.689 262.578C158.637 262.44 158.56 262.306 158.459 262.176C158.36 262.043 158.224 261.934 158.052 261.848C157.881 261.762 157.66 261.719 157.392 261.719C157.025 261.719 156.719 261.803 156.474 261.973C156.232 262.139 156.111 262.352 156.111 262.609C156.111 262.839 156.194 263.02 156.361 263.152C156.528 263.285 156.788 263.396 157.142 263.484L158.033 263.703C158.569 263.833 158.969 264.033 159.232 264.301C159.495 264.566 159.627 264.909 159.627 265.328C159.627 265.672 159.528 265.979 159.33 266.25C159.134 266.521 158.861 266.734 158.509 266.891C158.158 267.047 157.749 267.125 157.283 267.125C156.671 267.125 156.164 266.992 155.763 266.727C155.362 266.461 155.108 266.073 155.002 265.562L155.877 265.344C155.96 265.667 156.118 265.909 156.349 266.07C156.584 266.232 156.89 266.312 157.267 266.312C157.697 266.312 158.038 266.221 158.291 266.039C158.546 265.854 158.674 265.633 158.674 265.375C158.674 265.167 158.601 264.992 158.455 264.852C158.309 264.708 158.085 264.602 157.783 264.531L156.783 264.297C156.233 264.167 155.83 263.965 155.572 263.691C155.317 263.415 155.189 263.07 155.189 262.656C155.189 262.318 155.284 262.018 155.474 261.758C155.667 261.497 155.929 261.293 156.259 261.145C156.593 260.996 156.97 260.922 157.392 260.922C157.986 260.922 158.452 261.052 158.791 261.312C159.132 261.573 159.374 261.917 159.517 262.344Z" fill="#2D2D2D" fill-opacity="0.7"/>
<path d="M223.315 261.5H222.347C222.289 261.221 222.189 260.977 222.046 260.766C221.905 260.555 221.733 260.378 221.53 260.234C221.33 260.089 221.107 259.979 220.862 259.906C220.618 259.833 220.362 259.797 220.097 259.797C219.612 259.797 219.174 259.919 218.78 260.164C218.39 260.409 218.078 260.77 217.847 261.246C217.618 261.723 217.503 262.307 217.503 263C217.503 263.693 217.618 264.277 217.847 264.754C218.078 265.23 218.39 265.591 218.78 265.836C219.174 266.081 219.612 266.203 220.097 266.203C220.362 266.203 220.618 266.167 220.862 266.094C221.107 266.021 221.33 265.913 221.53 265.77C221.733 265.624 221.905 265.445 222.046 265.234C222.189 265.021 222.289 264.776 222.347 264.5H223.315C223.243 264.909 223.11 265.275 222.917 265.598C222.724 265.921 222.485 266.195 222.198 266.422C221.912 266.646 221.59 266.816 221.233 266.934C220.879 267.051 220.5 267.109 220.097 267.109C219.414 267.109 218.808 266.943 218.276 266.609C217.745 266.276 217.327 265.802 217.022 265.187C216.718 264.573 216.565 263.844 216.565 263C216.565 262.156 216.718 261.427 217.022 260.812C217.327 260.198 217.745 259.724 218.276 259.391C218.808 259.057 219.414 258.891 220.097 258.891C220.5 258.891 220.879 258.949 221.233 259.066C221.59 259.184 221.912 259.355 222.198 259.582C222.485 259.806 222.724 260.079 222.917 260.402C223.11 260.723 223.243 261.089 223.315 261.5ZM226.631 267.141C226.251 267.141 225.906 267.069 225.596 266.926C225.286 266.78 225.04 266.57 224.858 266.297C224.676 266.021 224.585 265.687 224.585 265.297C224.585 264.953 224.652 264.674 224.788 264.461C224.923 264.245 225.104 264.076 225.331 263.953C225.557 263.831 225.807 263.74 226.081 263.68C226.357 263.617 226.634 263.568 226.913 263.531C227.277 263.484 227.573 263.449 227.799 263.426C228.029 263.4 228.195 263.357 228.299 263.297C228.406 263.237 228.46 263.133 228.46 262.984V262.953C228.46 262.568 228.354 262.268 228.143 262.055C227.935 261.841 227.618 261.734 227.194 261.734C226.754 261.734 226.409 261.831 226.159 262.023C225.909 262.216 225.733 262.422 225.631 262.641L224.756 262.328C224.913 261.964 225.121 261.68 225.381 261.477C225.645 261.271 225.931 261.128 226.241 261.047C226.553 260.964 226.861 260.922 227.163 260.922C227.355 260.922 227.577 260.945 227.827 260.992C228.079 261.036 228.323 261.129 228.557 261.27C228.794 261.41 228.991 261.622 229.147 261.906C229.303 262.19 229.381 262.57 229.381 263.047V267H228.46V266.187H228.413C228.35 266.318 228.246 266.457 228.1 266.605C227.954 266.754 227.76 266.88 227.518 266.984C227.276 267.089 226.98 267.141 226.631 267.141ZM226.772 266.312C227.137 266.312 227.444 266.241 227.694 266.098C227.947 265.954 228.137 265.77 228.264 265.543C228.395 265.316 228.46 265.078 228.46 264.828V263.984C228.421 264.031 228.335 264.074 228.202 264.113C228.072 264.15 227.921 264.182 227.749 264.211C227.579 264.237 227.414 264.26 227.253 264.281C227.094 264.299 226.965 264.315 226.866 264.328C226.626 264.359 226.402 264.41 226.194 264.48C225.988 264.548 225.822 264.651 225.694 264.789C225.569 264.924 225.506 265.109 225.506 265.344C225.506 265.664 225.625 265.906 225.862 266.07C226.102 266.232 226.405 266.312 226.772 266.312ZM231.174 269.25V261H232.065V261.953H232.174C232.242 261.849 232.336 261.716 232.455 261.555C232.578 261.391 232.752 261.245 232.979 261.117C233.208 260.987 233.518 260.922 233.908 260.922C234.414 260.922 234.859 261.048 235.244 261.301C235.63 261.553 235.931 261.911 236.147 262.375C236.363 262.839 236.471 263.385 236.471 264.016C236.471 264.651 236.363 265.202 236.147 265.668C235.931 266.132 235.631 266.491 235.248 266.746C234.866 266.999 234.424 267.125 233.924 267.125C233.539 267.125 233.23 267.061 232.998 266.934C232.767 266.803 232.588 266.656 232.463 266.492C232.338 266.326 232.242 266.187 232.174 266.078H232.096V269.25H231.174ZM232.08 264C232.08 264.453 232.147 264.853 232.28 265.199C232.412 265.543 232.606 265.812 232.862 266.008C233.117 266.201 233.429 266.297 233.799 266.297C234.185 266.297 234.506 266.195 234.764 265.992C235.024 265.786 235.22 265.51 235.35 265.164C235.483 264.815 235.549 264.427 235.549 264C235.549 263.578 235.484 263.198 235.354 262.859C235.226 262.518 235.032 262.249 234.772 262.051C234.514 261.85 234.19 261.75 233.799 261.75C233.424 261.75 233.109 261.845 232.854 262.035C232.599 262.223 232.406 262.486 232.276 262.824C232.145 263.16 232.08 263.552 232.08 264ZM240.597 261V261.781H237.487V261H240.597ZM238.393 259.562H239.315V265.281C239.315 265.542 239.353 265.737 239.429 265.867C239.507 265.995 239.606 266.081 239.726 266.125C239.848 266.167 239.977 266.187 240.112 266.187C240.214 266.187 240.297 266.182 240.362 266.172C240.427 266.159 240.479 266.148 240.518 266.141L240.706 266.969C240.643 266.992 240.556 267.016 240.444 267.039C240.332 267.065 240.19 267.078 240.018 267.078C239.758 267.078 239.503 267.022 239.253 266.91C239.005 266.798 238.8 266.628 238.636 266.398C238.474 266.169 238.393 265.88 238.393 265.531V259.562ZM242.093 267V261H243.015V267H242.093ZM242.562 260C242.382 260 242.227 259.939 242.097 259.816C241.97 259.694 241.906 259.547 241.906 259.375C241.906 259.203 241.97 259.056 242.097 258.934C242.227 258.811 242.382 258.75 242.562 258.75C242.742 258.75 242.895 258.811 243.023 258.934C243.153 259.056 243.218 259.203 243.218 259.375C243.218 259.547 243.153 259.694 243.023 259.816C242.895 259.939 242.742 260 242.562 260ZM247.251 267.125C246.71 267.125 246.234 266.996 245.825 266.738C245.419 266.48 245.101 266.12 244.872 265.656C244.646 265.193 244.532 264.651 244.532 264.031C244.532 263.406 244.646 262.861 244.872 262.395C245.101 261.928 245.419 261.566 245.825 261.309C246.234 261.051 246.71 260.922 247.251 260.922C247.793 260.922 248.267 261.051 248.673 261.309C249.082 261.566 249.4 261.928 249.626 262.395C249.855 262.861 249.97 263.406 249.97 264.031C249.97 264.651 249.855 265.193 249.626 265.656C249.4 266.12 249.082 266.48 248.673 266.738C248.267 266.996 247.793 267.125 247.251 267.125ZM247.251 266.297C247.663 266.297 248.001 266.191 248.267 265.98C248.532 265.77 248.729 265.492 248.857 265.148C248.984 264.805 249.048 264.432 249.048 264.031C249.048 263.63 248.984 263.257 248.857 262.91C248.729 262.564 248.532 262.284 248.267 262.07C248.001 261.857 247.663 261.75 247.251 261.75C246.84 261.75 246.501 261.857 246.236 262.07C245.97 262.284 245.773 262.564 245.646 262.91C245.518 263.257 245.454 263.63 245.454 264.031C245.454 264.432 245.518 264.805 245.646 265.148C245.773 265.492 245.97 265.77 246.236 265.98C246.501 266.191 246.84 266.297 247.251 266.297ZM252.409 263.391V267H251.487V261H252.378V261.937H252.456C252.597 261.633 252.81 261.388 253.097 261.203C253.383 261.016 253.753 260.922 254.206 260.922C254.612 260.922 254.968 261.005 255.272 261.172C255.577 261.336 255.814 261.586 255.983 261.922C256.153 262.255 256.237 262.677 256.237 263.188V267H255.315V263.25C255.315 262.779 255.193 262.411 254.948 262.148C254.703 261.883 254.367 261.75 253.94 261.75C253.646 261.75 253.383 261.814 253.151 261.941C252.922 262.069 252.741 262.255 252.608 262.5C252.475 262.745 252.409 263.042 252.409 263.391ZM262.282 262.344L261.454 262.578C261.402 262.44 261.325 262.306 261.223 262.176C261.124 262.043 260.989 261.934 260.817 261.848C260.645 261.762 260.425 261.719 260.157 261.719C259.79 261.719 259.484 261.803 259.239 261.973C258.997 262.139 258.875 262.352 258.875 262.609C258.875 262.839 258.959 263.02 259.125 263.152C259.292 263.285 259.553 263.396 259.907 263.484L260.797 263.703C261.334 263.833 261.734 264.033 261.997 264.301C262.26 264.566 262.391 264.909 262.391 265.328C262.391 265.672 262.292 265.979 262.094 266.25C261.899 266.521 261.625 266.734 261.274 266.891C260.922 267.047 260.513 267.125 260.047 267.125C259.435 267.125 258.929 266.992 258.528 266.727C258.127 266.461 257.873 266.073 257.766 265.562L258.641 265.344C258.724 265.667 258.882 265.909 259.114 266.07C259.348 266.232 259.654 266.312 260.032 266.312C260.461 266.312 260.803 266.221 261.055 266.039C261.31 265.854 261.438 265.633 261.438 265.375C261.438 265.167 261.365 264.992 261.219 264.852C261.073 264.708 260.849 264.602 260.547 264.531L259.547 264.297C258.998 264.167 258.594 263.965 258.336 263.691C258.081 263.415 257.954 263.07 257.954 262.656C257.954 262.318 258.049 262.018 258.239 261.758C258.431 261.497 258.693 261.293 259.024 261.145C259.357 260.996 259.735 260.922 260.157 260.922C260.75 260.922 261.217 261.052 261.555 261.312C261.896 261.573 262.138 261.917 262.282 262.344Z" fill="#2D2D2D" fill-opacity="0.7"/>
<path d="M77.9092 241.25C80.8087 241.25 83.1592 238.899 83.1592 236C83.1592 233.101 80.8087 230.75 77.9092 230.75C75.0097 230.75 72.6592 233.101 72.6592 236C72.6592 238.899 75.0097 241.25 77.9092 241.25Z" stroke="#53BD95" stroke-width="0.8" stroke-linecap="round" stroke-linejoin="round"/>
<path d="M80.3154 234.688L77.1053 237.75L75.5029 236.219" stroke="#53BD95" stroke-width="0.8" stroke-linecap="round" stroke-linejoin="round"/>
<path d="M205.909 241.25C208.809 241.25 211.159 238.899 211.159 236C211.159 233.101 208.809 230.75 205.909 230.75C203.01 230.75 200.659 233.101 200.659 236C200.659 238.899 203.01 241.25 205.909 241.25Z" stroke="#53BD95" stroke-width="0.8" stroke-linecap="round" stroke-linejoin="round"/>
<path d="M208.315 234.688L205.105 237.75L203.503 236.219" stroke="#53BD95" stroke-width="0.8" stroke-linecap="round" stroke-linejoin="round"/>
<path d="M77.9092 269.25C80.8087 269.25 83.1592 266.899 83.1592 264C83.1592 261.101 80.8087 258.75 77.9092 258.75C75.0097 258.75 72.6592 261.101 72.6592 264C72.6592 266.899 75.0097 269.25 77.9092 269.25Z" stroke="#53BD95" stroke-width="0.8" stroke-linecap="round" stroke-linejoin="round"/>
<path d="M80.3154 262.688L77.1053 265.75L75.5029 264.219" stroke="#53BD95" stroke-width="0.8" stroke-linecap="round" stroke-linejoin="round"/>
<path d="M205.909 269.25C208.809 269.25 211.159 266.899 211.159 264C211.159 261.101 208.809 258.75 205.909 258.75C203.01 258.75 200.659 261.101 200.659 264C200.659 266.899 203.01 269.25 205.909 269.25Z" stroke="#53BD95" stroke-width="0.8" stroke-linecap="round" stroke-linejoin="round"/>
<path d="M208.315 262.688L205.105 265.75L203.503 264.219" stroke="#53BD95" stroke-width="0.8" stroke-linecap="round" stroke-linejoin="round"/>
<path d="M100.891 48H99.2032L102.276 39.2727H104.227L107.304 48H105.617L103.286 41.0625H103.217L100.891 48ZM100.946 44.5781H105.548V45.848H100.946V44.5781ZM110.615 48.1151C110.101 48.1151 109.641 47.983 109.234 47.7188C108.828 47.4545 108.507 47.071 108.271 46.5682C108.036 46.0653 107.918 45.4545 107.918 44.7358C107.918 44.0085 108.037 43.3949 108.276 42.8949C108.517 42.392 108.842 42.0128 109.252 41.7571C109.661 41.4986 110.117 41.3693 110.619 41.3693C111.003 41.3693 111.318 41.4347 111.565 41.5653C111.813 41.6932 112.009 41.848 112.153 42.0298C112.298 42.2088 112.411 42.3778 112.49 42.5369H112.554V39.2727H114.101V48H112.584V46.9688H112.49C112.411 47.1278 112.296 47.2969 112.145 47.4759C111.994 47.652 111.796 47.8026 111.548 47.9276C111.301 48.0526 110.99 48.1151 110.615 48.1151ZM111.046 46.8494C111.372 46.8494 111.651 46.7614 111.881 46.5852C112.111 46.4062 112.286 46.1577 112.405 45.8395C112.524 45.5213 112.584 45.1506 112.584 44.7273C112.584 44.304 112.524 43.9361 112.405 43.6236C112.288 43.3111 112.115 43.0682 111.885 42.8949C111.658 42.7216 111.378 42.6349 111.046 42.6349C110.702 42.6349 110.415 42.7244 110.185 42.9034C109.955 43.0824 109.781 43.3295 109.665 43.6449C109.548 43.9602 109.49 44.321 109.49 44.7273C109.49 45.1364 109.548 45.5014 109.665 45.8224C109.784 46.1406 109.959 46.392 110.189 46.5767C110.422 46.7585 110.707 46.8494 111.046 46.8494Z" fill="#2D2D2D" fill-opacity="0.9"/>
<rect x="73.4092" y="35.5" width="7" height="7" rx="1.5" stroke="#53BD95"/>
<rect x="73.4092" y="45.5" width="7" height="7" rx="1.5" stroke="#53BD95"/>
<rect x="83.4092" y="35.5" width="7" height="7" rx="1.5" stroke="#53BD95"/>
<rect x="83.4092" y="45.5" width="7" height="7" rx="1.5" stroke="#53BD95"/>
<line opacity="0.3" x1="72.9092" y1="69.5" x2="314.909" y2="69.5" stroke="#53BD95"/>
<g filter="url(#filter0_d_73_812)">
<rect x="27" y="99.7363" width="333.818" height="60.5275" rx="10" fill="white"/>
</g>
<g clip-path="url(#clip0_73_812)">
<path d="M305.793 130C305.793 137.047 310.21 143.064 316.427 145.431C316.275 144.142 316.114 142.017 316.461 140.526C316.759 139.244 318.388 132.357 318.388 132.357C318.388 132.357 317.897 131.374 317.897 129.917C317.897 127.634 319.22 125.928 320.87 125.928C322.273 125.928 322.95 126.98 322.95 128.242C322.95 129.652 322.051 131.759 321.588 133.714C321.201 135.349 322.409 136.684 324.021 136.684C326.942 136.684 329.188 133.604 329.188 129.158C329.188 125.222 326.36 122.472 322.322 122.472C317.648 122.472 314.904 125.979 314.904 129.603C314.904 131.016 315.447 132.529 316.127 133.353C316.185 133.416 316.226 133.492 316.246 133.574C316.266 133.657 316.264 133.743 316.241 133.825C316.116 134.345 315.838 135.461 315.784 135.689C315.711 135.989 315.546 136.054 315.234 135.908C313.181 134.953 311.899 131.953 311.899 129.543C311.899 124.358 315.664 119.599 322.756 119.599C328.456 119.599 332.887 123.661 332.887 129.089C332.887 134.752 329.318 139.311 324.36 139.311C322.694 139.311 321.13 138.445 320.593 137.423C320.593 137.423 319.769 140.562 319.57 141.329C319.182 142.82 318.106 144.708 317.439 145.779C318.977 146.253 320.608 146.507 322.3 146.507C331.417 146.507 338.808 139.116 338.808 130C338.808 120.883 331.417 113.492 322.3 113.492C313.184 113.492 305.793 120.883 305.793 130Z" fill="#53BD95"/>
</g>
<path d="M258.105 143.756C250.508 143.756 244.349 137.597 244.349 129.999C244.349 122.402 250.508 116.243 258.105 116.243C265.703 116.243 271.862 122.402 271.862 129.999C271.853 137.593 265.699 143.747 258.105 143.756ZM250.962 127.995C250.504 127.995 250.059 128.152 249.703 128.44C249.346 128.727 249.098 129.128 249.001 129.575C248.903 130.023 248.961 130.491 249.166 130.9C249.37 131.31 249.709 131.638 250.125 131.829C250.108 132.03 250.108 132.232 250.125 132.433C250.125 135.514 253.723 138.021 258.144 138.021C262.565 138.021 266.164 135.514 266.164 132.433C266.18 132.232 266.18 132.03 266.164 131.829C266.569 131.632 266.895 131.303 267.088 130.896C267.282 130.489 267.33 130.028 267.226 129.589C267.123 129.151 266.872 128.761 266.517 128.483C266.162 128.206 265.723 128.058 265.272 128.064H265.199C264.707 128.082 264.238 128.281 263.883 128.624C262.318 127.56 260.479 126.972 258.587 126.932L259.481 122.64L262.422 123.259C262.462 123.621 262.643 123.954 262.928 124.182C263.212 124.411 263.575 124.517 263.938 124.478C264.289 124.442 264.613 124.274 264.844 124.006C265.074 123.738 265.192 123.393 265.175 123.04C265.157 122.688 265.004 122.355 264.749 122.112C264.493 121.869 264.153 121.733 263.8 121.733C263.748 121.733 263.696 121.739 263.645 121.746C263.43 121.768 263.223 121.842 263.042 121.959C262.861 122.077 262.71 122.236 262.601 122.422L259.233 121.746C259.123 121.723 259.009 121.744 258.915 121.805C258.82 121.866 258.754 121.962 258.73 122.072L257.701 126.849C255.786 126.876 253.921 127.464 252.336 128.54C251.965 128.189 251.473 127.994 250.962 127.995ZM258.353 136.223H257.888C256.746 136.218 255.637 135.845 254.724 135.159C254.663 135.089 254.63 134.997 254.633 134.904C254.636 134.81 254.675 134.721 254.741 134.655C254.807 134.589 254.896 134.55 254.99 134.546C255.083 134.543 255.175 134.575 255.245 134.637C256.016 135.201 256.948 135.505 257.905 135.502H258.35C259.294 135.503 260.214 135.208 260.98 134.657C261.016 134.621 261.059 134.592 261.106 134.572C261.154 134.552 261.204 134.542 261.256 134.542C261.307 134.542 261.358 134.552 261.405 134.572C261.452 134.592 261.495 134.621 261.531 134.657C261.602 134.731 261.642 134.831 261.641 134.934C261.639 135.037 261.597 135.135 261.524 135.208V135.152C260.611 135.843 259.498 136.218 258.353 136.221V136.223ZM261.279 132.861H261.257L261.268 132.807C260.974 132.787 260.696 132.667 260.48 132.468C260.264 132.268 260.122 132 260.078 131.709C260.035 131.418 260.092 131.121 260.241 130.867C260.389 130.612 260.62 130.417 260.895 130.312C261.17 130.207 261.473 130.199 261.753 130.289C262.033 130.38 262.274 130.563 262.436 130.809C262.597 131.055 262.67 131.349 262.642 131.642C262.613 131.935 262.486 132.21 262.28 132.421C262.158 132.554 262.011 132.661 261.847 132.737C261.683 132.812 261.506 132.854 261.326 132.861H261.278H261.279ZM254.9 132.751C254.535 132.751 254.185 132.606 253.927 132.348C253.669 132.09 253.525 131.74 253.525 131.375C253.525 131.01 253.669 130.66 253.927 130.402C254.185 130.144 254.535 129.999 254.9 129.999C255.265 129.999 255.615 130.144 255.873 130.402C256.131 130.66 256.276 131.01 256.276 131.375C256.276 131.74 256.131 132.09 255.873 132.348C255.615 132.606 255.265 132.751 254.9 132.751Z" fill="#53BD95"/>
<path d="M209.926 120.283C208.777 120.792 207.543 121.136 206.246 121.292C207.585 120.491 208.586 119.23 209.063 117.745C207.806 118.492 206.429 119.018 204.994 119.3C204.029 118.269 202.751 117.586 201.358 117.357C199.964 117.127 198.534 117.364 197.29 118.031C196.045 118.697 195.055 119.756 194.474 121.042C193.892 122.329 193.752 123.772 194.075 125.146C191.526 125.018 189.034 124.356 186.758 123.202C184.483 122.049 182.475 120.429 180.866 118.45C180.316 119.399 179.999 120.499 179.999 121.671C179.999 122.727 180.258 123.765 180.756 124.696C181.253 125.627 181.972 126.42 182.849 127.006C181.832 126.974 180.837 126.699 179.947 126.204V126.287C179.947 127.766 180.459 129.201 181.396 130.346C182.333 131.491 183.637 132.277 185.088 132.571C184.144 132.826 183.154 132.864 182.193 132.681C182.603 133.954 183.4 135.067 184.473 135.865C185.547 136.663 186.843 137.105 188.18 137.129C185.91 138.911 183.107 139.878 180.221 139.874C179.709 139.874 179.199 139.844 178.691 139.784C181.62 141.668 185.03 142.667 188.513 142.663C200.302 142.663 206.747 132.899 206.747 124.431C206.747 124.156 206.74 123.878 206.728 123.603C207.981 122.696 209.063 121.574 209.923 120.288L209.926 120.283Z" fill="#53BD95"/>
<path fill-rule="evenodd" clip-rule="evenodd" d="M114.582 117.397C114.582 116.726 114.848 116.083 115.323 115.609C115.797 115.135 116.44 114.868 117.11 114.868H142.315C142.647 114.868 142.976 114.933 143.283 115.059C143.59 115.186 143.87 115.372 144.105 115.607C144.34 115.842 144.526 116.121 144.653 116.428C144.781 116.735 144.846 117.064 144.846 117.397V142.601C144.846 142.933 144.781 143.262 144.654 143.569C144.527 143.877 144.341 144.156 144.106 144.391C143.871 144.626 143.592 144.812 143.285 144.94C142.978 145.067 142.648 145.132 142.316 145.132H117.11C116.778 145.132 116.449 145.066 116.143 144.939C115.836 144.812 115.557 144.626 115.322 144.391C115.087 144.156 114.901 143.877 114.774 143.57C114.647 143.263 114.582 142.934 114.582 142.602V117.397ZM126.561 126.407H130.659V128.465C131.25 127.282 132.764 126.217 135.038 126.217C139.397 126.217 140.43 128.574 140.43 132.897V140.906H136.018V133.882C136.018 131.42 135.427 130.03 133.925 130.03C131.841 130.03 130.974 131.528 130.974 133.882V140.906H126.561V126.407ZM118.995 140.718H123.408V126.217H118.995V140.716V140.718ZM124.039 121.488C124.048 121.866 123.981 122.241 123.842 122.593C123.703 122.944 123.495 123.264 123.231 123.535C122.967 123.805 122.651 124.019 122.303 124.166C121.954 124.313 121.58 124.388 121.202 124.388C120.824 124.388 120.45 124.313 120.102 124.166C119.753 124.019 119.438 123.805 119.174 123.535C118.909 123.264 118.702 122.944 118.563 122.593C118.424 122.241 118.357 121.866 118.365 121.488C118.381 120.746 118.687 120.04 119.218 119.521C119.748 119.003 120.46 118.712 121.202 118.712C121.944 118.712 122.656 119.003 123.187 119.521C123.717 120.04 124.023 120.746 124.039 121.488Z" fill="#53BD95"/>
<path d="M65.5195 116.246C57.9233 116.246 51.7646 122.405 51.7646 130.001C51.7646 136.865 56.7939 142.555 63.3708 143.591V133.978H59.8767V130.001H63.3708V126.97C63.3708 123.52 65.4246 121.618 68.5651 121.618C70.0701 121.618 71.6465 121.886 71.6465 121.886V125.269H69.9078C68.202 125.269 67.6682 126.331 67.6682 127.419V129.998H71.4801L70.8707 133.975H67.6682V143.588C74.2451 142.558 79.2744 136.867 79.2744 130.001C79.2744 122.405 73.1157 116.246 65.5195 116.246Z" fill="#53BD95"/>
<defs>
<filter id="filter0_d_73_812" x="0" y="85.7363" width="387.818" height="114.527" filterUnits="userSpaceOnUse" color-interpolation-filters="sRGB">
<feFlood flood-opacity="0" result="BackgroundImageFix"/>
<feColorMatrix in="SourceAlpha" type="matrix" values="0 0 0 0 0 0 0 0 0 0 0 0 0 0 0 0 0 0 127 0" result="hardAlpha"/>
<feMorphology radius="6" operator="erode" in="SourceAlpha" result="effect1_dropShadow_73_812"/>
<feOffset dy="13"/>
<feGaussianBlur stdDeviation="16.5"/>
<feComposite in2="hardAlpha" operator="out"/>
<feColorMatrix type="matrix" values="0 0 0 0 0.820718 0 0 0 0 0.623348 0 0 0 0 0.475321 0 0 0 0.25 0"/>
<feBlend mode="normal" in2="BackgroundImageFix" result="effect1_dropShadow_73_812"/>
<feBlend mode="normal" in="SourceGraphic" in2="effect1_dropShadow_73_812" result="shape"/>
</filter>
<clipPath id="clip0_73_812">
<rect width="33.015" height="33.015" fill="white" transform="translate(305.793 113.492)"/>
</clipPath>
</defs>
</svg>
