<svg width="206" height="311" viewBox="0 0 206 311" fill="none" xmlns="http://www.w3.org/2000/svg">
<rect width="206" height="311" rx="10" fill="white"/>
<path d="M29.6937 56V42.0132H34.4197C35.517 42.0132 36.4139 42.2113 37.1105 42.6074C37.8117 42.999 38.3307 43.5294 38.6676 44.1987C39.0046 44.868 39.173 45.6147 39.173 46.4387C39.173 47.2628 39.0046 48.0118 38.6676 48.6856C38.3353 49.3595 37.8208 49.8967 37.1242 50.2974C36.4276 50.6935 35.5352 50.8916 34.447 50.8916H31.0596V49.3891H34.3924C35.1436 49.3891 35.7469 49.2593 36.2022 48.9998C36.6575 48.7403 36.9876 48.3897 37.1925 47.9481C37.4019 47.5019 37.5066 46.9988 37.5066 46.4387C37.5066 45.8787 37.4019 45.3779 37.1925 44.9363C36.9876 44.4946 36.6552 44.1486 36.1954 43.8982C35.7355 43.6432 35.1254 43.5157 34.3651 43.5157H31.3874V56H29.6937ZM41.6828 56V45.5099H43.24V47.0944H43.3492C43.5405 46.5753 43.8865 46.1542 44.3873 45.8309C44.8881 45.5077 45.4527 45.346 46.081 45.346C46.1994 45.346 46.3474 45.3483 46.5249 45.3529C46.7025 45.3574 46.8368 45.3642 46.9279 45.3733V47.0124C46.8732 46.9988 46.748 46.9783 46.5523 46.951C46.361 46.9191 46.1584 46.9031 45.9444 46.9031C45.4345 46.9031 44.9792 47.0101 44.5785 47.2241C44.1824 47.4336 43.8683 47.725 43.6361 48.0983C43.4084 48.4671 43.2946 48.8882 43.2946 49.3618V56H41.6828ZM52.7807 56.2185C51.8337 56.2185 51.0028 55.9932 50.288 55.5424C49.5777 55.0917 49.0222 54.4611 48.6216 53.6507C48.2255 52.8402 48.0274 51.8932 48.0274 50.8096C48.0274 49.7169 48.2255 48.763 48.6216 47.9481C49.0222 47.1331 49.5777 46.5002 50.288 46.0495C51.0028 45.5987 51.8337 45.3733 52.7807 45.3733C53.7278 45.3733 54.5564 45.5987 55.2667 46.0495C55.9815 46.5002 56.5369 47.1331 56.9331 47.9481C57.3337 48.763 57.534 49.7169 57.534 50.8096C57.534 51.8932 57.3337 52.8402 56.9331 53.6507C56.5369 54.4611 55.9815 55.0917 55.2667 55.5424C54.5564 55.9932 53.7278 56.2185 52.7807 56.2185ZM52.7807 54.7707C53.5001 54.7707 54.092 54.5863 54.5564 54.2175C55.0208 53.8487 55.3646 53.3638 55.5876 52.7628C55.8107 52.1618 55.9223 51.5108 55.9223 50.8096C55.9223 50.1084 55.8107 49.4551 55.5876 48.8495C55.3646 48.244 55.0208 47.7546 54.5564 47.3812C54.092 47.0079 53.5001 46.8212 52.7807 46.8212C52.0614 46.8212 51.4695 47.0079 51.0051 47.3812C50.5407 47.7546 50.1969 48.244 49.9738 48.8495C49.7507 49.4551 49.6392 50.1084 49.6392 50.8096C49.6392 51.5108 49.7507 52.1618 49.9738 52.7628C50.1969 53.3638 50.5407 53.8487 51.0051 54.2175C51.4695 54.5863 52.0614 54.7707 52.7807 54.7707ZM63.9555 56.2185C63.0813 56.2185 62.3096 55.9977 61.6403 55.5561C60.971 55.1099 60.4474 54.4816 60.0695 53.6712C59.6916 52.8562 59.5026 51.8932 59.5026 50.7823C59.5026 49.6805 59.6916 48.7243 60.0695 47.9139C60.4474 47.1035 60.9733 46.4774 61.6471 46.0358C62.3209 45.5942 63.0995 45.3733 63.9828 45.3733C64.6657 45.3733 65.2052 45.4872 65.6014 45.7148C66.002 45.9379 66.3071 46.1929 66.5165 46.4797C66.7305 46.762 66.8967 46.9942 67.0151 47.1763H67.1516V42.0132H68.7634V56H67.2063V54.3882H67.0151C66.8967 54.5795 66.7282 54.8208 66.5097 55.1122C66.2911 55.399 65.9793 55.6562 65.574 55.8839C65.1688 56.107 64.6293 56.2185 63.9555 56.2185ZM64.174 54.7707C64.8205 54.7707 65.3669 54.6022 65.8131 54.2653C66.2593 53.9238 66.5985 53.4526 66.8307 52.8516C67.0629 52.2461 67.179 51.5472 67.179 50.755C67.179 49.9719 67.0651 49.2866 66.8375 48.6993C66.6098 48.1074 66.2729 47.6476 65.8267 47.3197C65.3805 46.9874 64.8296 46.8212 64.174 46.8212C63.4911 46.8212 62.9219 46.9965 62.4666 47.3471C62.0159 47.6931 61.6767 48.1643 61.449 48.7608C61.2259 49.3526 61.1144 50.0174 61.1144 50.755C61.1144 51.5017 61.2282 52.18 61.4559 52.7901C61.6881 53.3957 62.0295 53.8783 62.4803 54.238C62.9356 54.5931 63.5002 54.7707 64.174 54.7707ZM78.55 51.7111V45.5099H80.1618V56H78.55V54.2243H78.4408C78.1949 54.757 77.8124 55.2101 77.2934 55.5834C76.7744 55.9522 76.1187 56.1366 75.3265 56.1366C74.6709 56.1366 74.0881 55.9932 73.5782 55.7063C73.0682 55.4149 72.6676 54.9779 72.3762 54.3951C72.0848 53.8077 71.9391 53.0679 71.9391 52.1755V45.5099H73.5509V52.0662C73.5509 52.8311 73.7649 53.4412 74.1928 53.8965C74.6254 54.3518 75.1763 54.5795 75.8456 54.5795C76.2462 54.5795 76.6537 54.477 77.068 54.2721C77.4869 54.0673 77.8375 53.7531 78.1198 53.3297C78.4066 52.9062 78.55 52.3667 78.55 51.7111ZM87.3754 56.2185C86.392 56.2185 85.5451 55.9863 84.8349 55.5219C84.1246 55.0575 83.5782 54.4178 83.1958 53.6029C82.8133 52.7879 82.6221 51.8568 82.6221 50.8096C82.6221 49.7442 82.8179 48.804 83.2094 47.989C83.6055 47.1695 84.1565 46.5298 84.8622 46.0699C85.5724 45.6055 86.4011 45.3733 87.3481 45.3733C88.0857 45.3733 88.7504 45.5099 89.3423 45.7831C89.9342 46.0563 90.4191 46.4387 90.797 46.9305C91.1749 47.4222 91.4094 47.9959 91.5004 48.6515H89.8887C89.7657 48.1734 89.4926 47.75 89.0691 47.3812C88.6503 47.0079 88.0857 46.8212 87.3754 46.8212C86.7471 46.8212 86.1962 46.9851 85.7227 47.3129C85.2537 47.6362 84.8872 48.0937 84.6231 48.6856C84.3636 49.273 84.2339 49.9627 84.2339 50.755C84.2339 51.5654 84.3613 52.2711 84.6163 52.8721C84.8758 53.4731 85.2401 53.9398 85.709 54.2721C86.1825 54.6045 86.738 54.7707 87.3754 54.7707C87.7943 54.7707 88.1745 54.6978 88.5159 54.5522C88.8574 54.4065 89.1465 54.197 89.3833 53.9238C89.62 53.6507 89.7885 53.3228 89.8887 52.9404H91.5004C91.4094 53.5596 91.184 54.1173 90.8243 54.6136C90.4692 55.1053 89.9979 55.4969 89.4106 55.7883C88.8278 56.0751 88.1494 56.2185 87.3754 56.2185ZM98.4187 45.5099V46.8758H92.9824V45.5099H98.4187ZM94.5668 42.9967H96.1786V52.995C96.1786 53.4503 96.2446 53.7918 96.3767 54.0195C96.5132 54.2425 96.6863 54.3928 96.8957 54.4702C97.1097 54.543 97.3351 54.5795 97.5718 54.5795C97.7494 54.5795 97.8951 54.5704 98.0089 54.5522C98.1227 54.5294 98.2138 54.5112 98.2821 54.4975L98.6099 55.9454C98.5006 55.9863 98.3481 56.0273 98.1523 56.0683C97.9565 56.1138 97.7084 56.1366 97.4079 56.1366C96.9526 56.1366 96.5064 56.0387 96.0693 55.8429C95.6368 55.6471 95.2771 55.3489 94.9903 54.9483C94.708 54.5476 94.5668 54.0422 94.5668 53.4321V42.9967ZM108.086 47.8593L106.638 48.269C106.547 48.0277 106.413 47.7933 106.235 47.5656C106.062 47.3334 105.825 47.1422 105.525 46.9919C105.224 46.8417 104.84 46.7666 104.371 46.7666C103.729 46.7666 103.194 46.9145 102.766 47.2105C102.342 47.5019 102.13 47.8729 102.13 48.3237C102.13 48.7243 102.276 49.0408 102.568 49.273C102.859 49.5052 103.314 49.6987 103.933 49.8535L105.491 50.2359C106.428 50.4636 107.127 50.8119 107.587 51.2808C108.047 51.7452 108.277 52.344 108.277 53.077C108.277 53.678 108.104 54.2152 107.758 54.6887C107.416 55.1623 106.938 55.5356 106.324 55.8088C105.709 56.082 104.994 56.2185 104.179 56.2185C103.109 56.2185 102.224 55.9863 101.523 55.5219C100.822 55.0575 100.378 54.3791 100.191 53.4868L101.721 53.1043C101.866 53.6689 102.142 54.0923 102.547 54.3746C102.957 54.6569 103.492 54.798 104.152 54.798C104.903 54.798 105.5 54.6387 105.941 54.32C106.388 53.9967 106.611 53.6097 106.611 53.1589C106.611 52.7947 106.483 52.4897 106.228 52.2438C105.973 51.9934 105.582 51.8067 105.053 51.6838L103.305 51.274C102.344 51.0464 101.639 50.6935 101.188 50.2154C100.742 49.7328 100.519 49.1296 100.519 48.4056C100.519 47.8137 100.685 47.2901 101.017 46.8349C101.354 46.3796 101.812 46.0221 102.39 45.7626C102.973 45.5031 103.633 45.3733 104.371 45.3733C105.409 45.3733 106.224 45.601 106.816 46.0563C107.412 46.5116 107.835 47.1126 108.086 47.8593ZM34.0099 81H29.6937V67.0132H34.2012C35.5579 67.0132 36.719 67.2933 37.6842 67.8533C38.6494 68.4087 39.3893 69.2078 39.9038 70.2504C40.4183 71.2885 40.6755 72.5315 40.6755 73.9793C40.6755 75.4363 40.416 76.6906 39.8969 77.7423C39.3779 78.7895 38.6221 79.5954 37.6296 80.16C36.637 80.72 35.4305 81 34.0099 81ZM31.3874 79.4975H33.9007C35.0571 79.4975 36.0155 79.2744 36.7759 78.8282C37.5362 78.382 38.1031 77.7469 38.4764 76.9228C38.8498 76.0987 39.0364 75.1175 39.0364 73.9793C39.0364 72.8502 38.852 71.8781 38.4832 71.0631C38.1144 70.2436 37.5635 69.6153 36.8305 69.1782C36.0975 68.7365 35.1846 68.5157 34.0919 68.5157H31.3874V79.4975ZM47.6962 81.2185C46.6854 81.2185 45.8135 80.9954 45.0805 80.5493C44.352 80.0985 43.7897 79.4702 43.3936 78.6643C43.0021 77.8539 42.8063 76.9114 42.8063 75.8369C42.8063 74.7624 43.0021 73.8154 43.3936 72.9959C43.7897 72.1718 44.3406 71.5298 45.0464 71.0699C45.7566 70.6055 46.5853 70.3733 47.5323 70.3733C48.0786 70.3733 48.6182 70.4644 49.1509 70.6465C49.6836 70.8286 50.1685 71.1246 50.6055 71.5344C51.0426 71.9396 51.3909 72.4768 51.6505 73.1461C51.91 73.8154 52.0397 74.6395 52.0397 75.6184V76.3013H43.9536V74.9081H50.4007C50.4007 74.3162 50.2823 73.7881 50.0455 73.3237C49.8133 72.8593 49.481 72.4928 49.0484 72.2241C48.6204 71.9555 48.1151 71.8212 47.5323 71.8212C46.8903 71.8212 46.3349 71.9805 45.8659 72.2993C45.4015 72.6134 45.0441 73.0232 44.7937 73.5286C44.5433 74.0339 44.418 74.5757 44.418 75.154V76.0828C44.418 76.875 44.5546 77.5466 44.8278 78.0975C45.1055 78.6438 45.4903 79.0604 45.982 79.3473C46.4737 79.6296 47.0451 79.7707 47.6962 79.7707C48.1196 79.7707 48.5021 79.7115 48.8435 79.5931C49.1896 79.4702 49.4878 79.2881 49.7382 79.0468C49.9886 78.8009 50.1821 78.4959 50.3187 78.1316L51.8758 78.5687C51.7119 79.0969 51.4365 79.5613 51.0495 79.9619C50.6625 80.358 50.1844 80.6676 49.6153 80.8907C49.0462 81.1093 48.4065 81.2185 47.6962 81.2185ZM61.922 72.8593L60.4741 73.269C60.3831 73.0277 60.2488 72.7933 60.0712 72.5656C59.8982 72.3334 59.6614 72.1422 59.3609 71.9919C59.0604 71.8417 58.6757 71.7666 58.2067 71.7666C57.5648 71.7666 57.0298 71.9145 56.6018 72.2105C56.1784 72.5019 55.9667 72.8729 55.9667 73.3237C55.9667 73.7243 56.1124 74.0408 56.4038 74.273C56.6952 74.5052 57.1505 74.6987 57.7697 74.8535L59.3268 75.2359C60.2647 75.4636 60.9636 75.8119 61.4234 76.2808C61.8833 76.7452 62.1132 77.344 62.1132 78.077C62.1132 78.678 61.9402 79.2152 61.5942 79.6887C61.2527 80.1623 60.7746 80.5356 60.16 80.8088C59.5453 81.082 58.8305 81.2185 58.0155 81.2185C56.9456 81.2185 56.06 80.9863 55.3589 80.5219C54.6577 80.0575 54.2138 79.3791 54.0271 78.4868L55.5569 78.1043C55.7026 78.6689 55.9781 79.0923 56.3833 79.3746C56.793 79.6569 57.328 79.798 57.9882 79.798C58.7394 79.798 59.3359 79.6387 59.7775 79.32C60.2237 78.9967 60.4468 78.6097 60.4468 78.1589C60.4468 77.7947 60.3193 77.4897 60.0644 77.2438C59.8094 76.9934 59.4178 76.8067 58.8897 76.6838L57.1413 76.274C56.1807 76.0464 55.475 75.6935 55.0242 75.2154C54.578 74.7328 54.3549 74.1296 54.3549 73.4056C54.3549 72.8137 54.5211 72.2901 54.8535 71.8349C55.1904 71.3796 55.648 71.0221 56.2262 70.7626C56.809 70.5031 57.4692 70.3733 58.2067 70.3733C59.2448 70.3733 60.0598 70.601 60.6517 71.0563C61.2481 71.5116 61.6716 72.1126 61.922 72.8593ZM68.801 81.2185C67.8175 81.2185 66.9707 80.9863 66.2604 80.5219C65.5501 80.0575 65.0038 79.4178 64.6213 78.6029C64.2389 77.7879 64.0477 76.8568 64.0477 75.8096C64.0477 74.7442 64.2434 73.804 64.635 72.989C65.0311 72.1695 65.582 71.5298 66.2877 71.0699C66.998 70.6055 67.8266 70.3733 68.7736 70.3733C69.5112 70.3733 70.176 70.5099 70.7679 70.7831C71.3597 71.0563 71.8446 71.4387 72.2225 71.9305C72.6004 72.4222 72.8349 72.9959 72.926 73.6515H71.3142C71.1913 73.1734 70.9181 72.75 70.4947 72.3812C70.0758 72.0079 69.5112 71.8212 68.801 71.8212C68.1727 71.8212 67.6217 71.9851 67.1482 72.3129C66.6793 72.6362 66.3128 73.0937 66.0487 73.6856C65.7892 74.273 65.6594 74.9627 65.6594 75.755C65.6594 76.5654 65.7869 77.2711 66.0419 77.8721C66.3014 78.4731 66.6656 78.9398 67.1346 79.2721C67.6081 79.6045 68.1635 79.7707 68.801 79.7707C69.2198 79.7707 69.6 79.6978 69.9415 79.5522C70.283 79.4065 70.5721 79.197 70.8088 78.9238C71.0456 78.6507 71.214 78.3228 71.3142 77.9404H72.926C72.8349 78.5596 72.6095 79.1173 72.2498 79.6136C71.8947 80.1053 71.4235 80.4969 70.8361 80.7883C70.2534 81.0751 69.575 81.2185 68.801 81.2185ZM75.2821 81V70.5099H76.8392V72.0944H76.9485C77.1397 71.5753 77.4858 71.1542 77.9866 70.8309C78.4874 70.5077 79.052 70.346 79.6803 70.346C79.7987 70.346 79.9467 70.3483 80.1242 70.3529C80.3018 70.3574 80.4361 70.3642 80.5272 70.3733V72.0124C80.4725 71.9988 80.3473 71.9783 80.1515 71.951C79.9603 71.9191 79.7577 71.9031 79.5437 71.9031C79.0338 71.9031 78.5785 72.0101 78.1778 72.2241C77.7817 72.4336 77.4676 72.725 77.2354 73.0983C77.0077 73.4671 76.8939 73.8882 76.8939 74.3618V81H75.2821ZM82.4377 81V70.5099H84.0495V81H82.4377ZM83.2572 68.7616C82.9431 68.7616 82.6722 68.6546 82.4445 68.4406C82.2214 68.2266 82.1099 67.9694 82.1099 67.6689C82.1099 67.3684 82.2214 67.1111 82.4445 66.8971C82.6722 66.6832 82.9431 66.5762 83.2572 66.5762C83.5714 66.5762 83.84 66.6832 84.0631 66.8971C84.2908 67.1111 84.4046 67.3684 84.4046 67.6689C84.4046 67.9694 84.2908 68.2266 84.0631 68.4406C83.84 68.6546 83.5714 68.7616 83.2572 68.7616ZM87.0015 84.9338V70.5099H88.5586V72.1763H88.7498C88.8682 71.9942 89.0321 71.762 89.2416 71.4797C89.4556 71.1929 89.7606 70.9379 90.1567 70.7148C90.5574 70.4872 91.0992 70.3733 91.7821 70.3733C92.6654 70.3733 93.444 70.5942 94.1178 71.0358C94.7917 71.4774 95.3175 72.1035 95.6954 72.9139C96.0733 73.7243 96.2623 74.6805 96.2623 75.7823C96.2623 76.8932 96.0733 77.8562 95.6954 78.6712C95.3175 79.4816 94.7939 80.1099 94.1246 80.5561C93.4554 80.9977 92.6836 81.2185 91.8094 81.2185C91.1356 81.2185 90.5961 81.107 90.1909 80.8839C89.7856 80.6562 89.4738 80.399 89.2552 80.1122C89.0367 79.8208 88.8682 79.5795 88.7498 79.3882H88.6133V84.9338H87.0015ZM88.5859 75.755C88.5859 76.5472 88.702 77.2461 88.9342 77.8516C89.1664 78.4526 89.5056 78.9238 89.9518 79.2653C90.398 79.6022 90.9444 79.7707 91.5909 79.7707C92.2647 79.7707 92.827 79.5931 93.2778 79.238C93.7331 78.8783 94.0746 78.3957 94.3022 77.7901C94.5344 77.18 94.6505 76.5017 94.6505 75.755C94.6505 75.0174 94.5367 74.3526 94.309 73.7608C94.0859 73.1643 93.7467 72.6931 93.2914 72.3471C92.8407 71.9965 92.2739 71.8212 91.5909 71.8212C90.9353 71.8212 90.3844 71.9874 89.9382 72.3197C89.492 72.6476 89.1551 73.1074 88.9274 73.6993C88.6998 74.2866 88.5859 74.9719 88.5859 75.755ZM103.283 70.5099V71.8758H97.8467V70.5099H103.283ZM99.4311 67.9967H101.043V77.995C101.043 78.4503 101.109 78.7918 101.241 79.0195C101.378 79.2425 101.551 79.3928 101.76 79.4702C101.974 79.543 102.199 79.5795 102.436 79.5795C102.614 79.5795 102.759 79.5704 102.873 79.5522C102.987 79.5294 103.078 79.5112 103.146 79.4975L103.474 80.9454C103.365 80.9863 103.212 81.0273 103.017 81.0683C102.821 81.1138 102.573 81.1366 102.272 81.1366C101.817 81.1366 101.371 81.0387 100.934 80.8429C100.501 80.6471 100.141 80.3489 99.8546 79.9483C99.5723 79.5476 99.4311 79.0422 99.4311 78.4321V67.9967ZM105.707 81V70.5099H107.319V81H105.707ZM106.527 68.7616C106.213 68.7616 105.942 68.6546 105.714 68.4406C105.491 68.2266 105.38 67.9694 105.38 67.6689C105.38 67.3684 105.491 67.1111 105.714 66.8971C105.942 66.6832 106.213 66.5762 106.527 66.5762C106.841 66.5762 107.11 66.6832 107.333 66.8971C107.56 67.1111 107.674 67.3684 107.674 67.6689C107.674 67.9694 107.56 68.2266 107.333 68.4406C107.11 68.6546 106.841 68.7616 106.527 68.7616ZM114.533 81.2185C113.586 81.2185 112.755 80.9932 112.04 80.5424C111.33 80.0917 110.774 79.4611 110.374 78.6507C109.978 77.8402 109.779 76.8932 109.779 75.8096C109.779 74.7169 109.978 73.763 110.374 72.9481C110.774 72.1331 111.33 71.5002 112.04 71.0495C112.755 70.5987 113.586 70.3733 114.533 70.3733C115.48 70.3733 116.308 70.5987 117.019 71.0495C117.734 71.5002 118.289 72.1331 118.685 72.9481C119.086 73.763 119.286 74.7169 119.286 75.8096C119.286 76.8932 119.086 77.8402 118.685 78.6507C118.289 79.4611 117.734 80.0917 117.019 80.5424C116.308 80.9932 115.48 81.2185 114.533 81.2185ZM114.533 79.7707C115.252 79.7707 115.844 79.5863 116.308 79.2175C116.773 78.8487 117.117 78.3638 117.34 77.7628C117.563 77.1618 117.674 76.5108 117.674 75.8096C117.674 75.1084 117.563 74.4551 117.34 73.8495C117.117 73.244 116.773 72.7546 116.308 72.3812C115.844 72.0079 115.252 71.8212 114.533 71.8212C113.813 71.8212 113.222 72.0079 112.757 72.3812C112.293 72.7546 111.949 73.244 111.726 73.8495C111.503 74.4551 111.391 75.1084 111.391 75.8096C111.391 76.5108 111.503 77.1618 111.726 77.7628C111.949 78.3638 112.293 78.8487 112.757 79.2175C113.222 79.5863 113.813 79.7707 114.533 79.7707ZM123.358 74.6896V81H121.746V70.5099H123.304V72.149H123.44C123.686 71.6163 124.059 71.1883 124.56 70.8651C125.061 70.5373 125.708 70.3733 126.5 70.3733C127.21 70.3733 127.831 70.519 128.364 70.8104C128.897 71.0973 129.311 71.5344 129.607 72.1217C129.903 72.7045 130.051 73.4421 130.051 74.3344V81H128.439V74.4437C128.439 73.6196 128.225 72.9776 127.797 72.5178C127.369 72.0534 126.782 71.8212 126.035 71.8212C125.521 71.8212 125.061 71.9327 124.656 72.1558C124.255 72.3789 123.939 72.7045 123.706 73.1324C123.474 73.5604 123.358 74.0795 123.358 74.6896Z" fill="#FE7747"/>
<rect x="27.9727" y="120" width="150.358" height="5.24503" fill="#F7F3F0"/>
<rect x="27.9727" y="146.245" width="150.358" height="5.24503" fill="#F7F3F0"/>
<rect x="27.9727" y="172.49" width="150.358" height="5.24503" fill="#F7F3F0"/>
<rect x="27.9727" y="198.735" width="150.358" height="5.24503" fill="#F7F3F0"/>
<rect x="27.9727" y="224.98" width="150.358" height="5.24503" fill="#F7F3F0"/>
<rect x="27.9727" y="251.226" width="109.272" height="5.24503" fill="#F7F3F0"/>
</svg>
