<svg width="319" height="450" viewBox="0 0 319 450" fill="none" xmlns="http://www.w3.org/2000/svg">
<rect width="230" height="450" rx="8" fill="white"/>
<rect x="14.9092" y="21" width="200" height="34" rx="17" fill="white"/>
<path opacity="0.8" d="M133.804 38.866H134.742V40H133.678C132.922 40 132.32 39.7667 131.872 39.3C131.434 39.748 130.813 39.9813 130.01 40H128.176C127.262 40 126.804 40.4667 126.804 41.4V43.766L125.6 44.41V41.358C125.6 40.5833 125.824 39.972 126.272 39.524C126.674 39.1133 127.206 38.894 127.868 38.866C127.532 38.3247 127.364 37.662 127.364 36.878C127.364 35.8607 127.63 35.0673 128.162 34.498C128.638 33.994 129.264 33.742 130.038 33.742C130.832 33.742 131.443 33.9893 131.872 34.484C132.255 34.9227 132.446 35.4967 132.446 36.206V37.466C132.446 38.3993 132.899 38.866 133.804 38.866ZM131.242 37.564V36.262C131.242 35.3287 130.841 34.862 130.038 34.862C129.572 34.862 129.208 35.0393 128.946 35.394C128.694 35.7393 128.568 36.2247 128.568 36.85C128.568 37.4847 128.69 37.9793 128.932 38.334C129.175 38.6887 129.516 38.866 129.954 38.866C130.813 38.866 131.242 38.432 131.242 37.564ZM133.896 40V38.866H135.156C136.062 38.866 136.514 38.3993 136.514 37.466V35.506L137.718 34.862V37.466C137.718 38.3993 138.176 38.866 139.09 38.866H139.734C140.649 38.866 141.106 38.3993 141.106 37.466V35.03L142.31 34.4V37.466C142.31 38.3993 142.763 38.866 143.668 38.866H144.326C145.241 38.866 145.698 38.3993 145.698 37.466V34.568L146.902 33.924V37.508C146.902 38.3013 146.664 38.922 146.188 39.37C145.768 39.7807 145.208 39.9907 144.508 40H143.542C142.721 40 142.11 39.7247 141.708 39.174C141.307 39.7153 140.71 39.9907 139.916 40H138.95C138.148 40 137.536 39.7247 137.116 39.174C136.715 39.7247 136.104 40 135.282 40H133.896ZM151.862 40C151.05 40 150.425 39.7387 149.986 39.216C149.613 38.768 149.426 38.1987 149.426 37.508V31.614L150.63 30.97V37.466C150.63 38.3993 151.087 38.866 152.002 38.866H152.926V40H151.862ZM152.08 40V38.866H153.998C155.893 38.866 157.391 38.2407 158.492 36.99C157.717 35.562 156.775 34.848 155.664 34.848C154.908 34.848 154.129 35.2493 153.326 36.052V34.932C154.11 34.1387 154.941 33.742 155.818 33.742C156.537 33.742 157.232 34.0033 157.904 34.526C158.576 35.0393 159.169 35.7767 159.682 36.738V37.354C158.31 39.118 156.411 40 153.984 40H152.08ZM164.085 40C163.273 40 162.647 39.7387 162.209 39.216C161.835 38.768 161.649 38.1987 161.649 37.508V31.614L162.853 30.97V37.466C162.853 38.3993 163.31 38.866 164.225 38.866H165.149V40H164.085ZM165.381 32.23C164.923 32.23 164.695 31.9967 164.695 31.53C164.695 31.0727 164.923 30.844 165.381 30.844C165.829 30.844 166.053 31.0727 166.053 31.53C166.053 31.9967 165.829 32.23 165.381 32.23ZM167.159 32.23C166.701 32.23 166.473 31.9967 166.473 31.53C166.473 31.0727 166.701 30.844 167.159 30.844C167.607 30.844 167.831 31.0727 167.831 31.53C167.831 31.9967 167.607 32.23 167.159 32.23ZM164.303 40V38.866H165.227C166.141 38.866 166.599 38.3993 166.599 37.466V34.568L167.803 33.924V37.508C167.803 38.3013 167.565 38.9267 167.089 39.384C166.65 39.7947 166.076 40 165.367 40H164.303ZM181.354 38.866H182.278V40H181.214C180.412 40 179.791 39.7433 179.352 39.23C178.886 39.7433 178.242 40 177.42 40H172.604L173.192 38.866H175.236V33.434L176.44 32.79V38.866H177.322C178.293 38.866 178.778 38.3573 178.778 37.34V31.614L179.996 30.97V37.354C179.996 37.8953 180.099 38.2827 180.304 38.516C180.519 38.7493 180.869 38.866 181.354 38.866ZM188.35 38.866H192.046V40H188.238C187.734 40 187.234 39.902 186.74 39.706C186.245 39.902 185.741 40 185.228 40H181.434V38.866H185.13H185.326C184.654 38.3153 183.963 37.508 183.254 36.444V35.828C183.702 35.184 184.234 34.6753 184.85 34.302C185.475 33.9287 186.1 33.742 186.726 33.742C187.351 33.742 187.976 33.9333 188.602 34.316C189.227 34.6893 189.768 35.2027 190.226 35.856V36.444C189.516 37.508 188.821 38.3153 188.14 38.866H188.35ZM184.374 36.15C185.232 37.326 186.021 38.1007 186.74 38.474C187.458 38.0913 188.247 37.312 189.106 36.136C188.406 35.2867 187.612 34.8573 186.726 34.848C185.839 34.848 185.055 35.282 184.374 36.15ZM200.225 38.866H201.163V40H200.099C199.324 40 198.713 39.7527 198.265 39.258C197.789 39.9393 197.094 40.28 196.179 40.28C195.264 40.28 194.574 39.944 194.107 39.272C193.668 39.7573 193.057 40 192.273 40H191.209V38.866H192.133C193.048 38.866 193.505 38.3993 193.505 37.466V37.004C193.505 35.9213 193.771 35.0907 194.303 34.512C194.77 33.9987 195.395 33.742 196.179 33.742C197.075 33.742 197.766 34.0733 198.251 34.736C198.662 35.3053 198.867 36.0613 198.867 37.004V37.466C198.867 38.3993 199.32 38.866 200.225 38.866ZM196.179 39.146C196.636 39.146 196.996 38.9547 197.257 38.572C197.528 38.1893 197.663 37.662 197.663 36.99C197.663 35.5713 197.168 34.862 196.179 34.862C195.199 34.862 194.709 35.5713 194.709 36.99C194.709 38.4273 195.199 39.146 196.179 39.146ZM200.328 40V38.866H201.07C202.041 38.866 202.526 38.3573 202.526 37.34V31.614L203.744 30.97V37.354C203.744 38.1847 203.497 38.8427 203.002 39.328C202.535 39.776 201.924 40 201.168 40H200.328Z" fill="#2D2D2D" fill-opacity="0.9"/>
<g opacity="0.7">
<path d="M101.703 42.2812C104.784 42.2812 107.281 39.7838 107.281 36.7031C107.281 33.6224 104.784 31.125 101.703 31.125C98.6224 31.125 96.125 33.6224 96.125 36.7031C96.125 39.7838 98.6224 42.2812 101.703 42.2812Z" stroke="#777777" stroke-width="1.5" stroke-linecap="round" stroke-linejoin="round"/>
<path d="M105.648 40.6475L108.876 43.8748" stroke="#777777" stroke-width="1.5" stroke-linecap="round" stroke-linejoin="round"/>
</g>
<rect x="113" y="75" width="92" height="8" rx="4" fill="#D6CFDD"/>
<rect x="70" y="193" width="135" height="8" rx="4" fill="#D6CFDD"/>
<rect x="70" y="281" width="135" height="8" rx="4" fill="#D6CFDD"/>
<rect x="70" y="369" width="135" height="8" rx="4" fill="#D6CFDD"/>
<rect x="105" y="230" width="100" height="8" rx="4" fill="#D6CFDD"/>
<rect x="105" y="318" width="100" height="8" rx="4" fill="#D6CFDD"/>
<rect x="105" y="406" width="100" height="8" rx="4" fill="#D6CFDD"/>
<rect x="157" y="89" width="48" height="6" rx="3" fill="#CCC5D3"/>
<rect x="135" y="207" width="70" height="6" rx="3" fill="#CCC5D3"/>
<rect x="135" y="295" width="70" height="6" rx="3" fill="#CCC5D3"/>
<rect x="135" y="383" width="70" height="6" rx="3" fill="#CCC5D3"/>
<rect x="135" y="244" width="70" height="6" rx="3" fill="#CCC5D3"/>
<rect x="135" y="332" width="70" height="6" rx="3" fill="#CCC5D3"/>
<rect x="135" y="420" width="70" height="6" rx="3" fill="#CCC5D3"/>
<g filter="url(#filter0_d_187_767)">
<rect x="31.9092" y="111.723" width="255.091" height="64.5536" rx="10" fill="white"/>
</g>
<path d="M94.1583 136.352C94.1583 137.28 93.8423 138.016 93.2103 138.56C92.6423 139.04 91.9183 139.28 91.0383 139.28C89.9983 139.28 89.1983 138.924 88.6383 138.212C88.1983 137.66 87.9783 137 87.9783 136.232C87.9783 135.536 88.1543 134.948 88.5063 134.468L89.2983 134.288C88.9063 134.864 88.7103 135.496 88.7103 136.184C88.7103 136.888 88.9383 137.464 89.3943 137.912C89.8263 138.336 90.3743 138.548 91.0383 138.548C91.8063 138.548 92.4023 138.316 92.8263 137.852C93.1863 137.468 93.3663 136.968 93.3663 136.352V129.68L94.1583 129.26V136.352ZM95.4759 137L95.8599 136.256H98.1159C98.4839 136.256 98.7399 136.164 98.8839 135.98C99.0359 135.796 99.1119 135.476 99.1119 135.02C99.1119 133.844 98.5959 132.968 97.5639 132.392L97.9599 131.732C99.2319 132.468 99.8799 133.504 99.9039 134.84C99.9119 135.784 100.372 136.256 101.284 136.256H101.656V137H101.2C100.504 137 99.9719 136.768 99.6039 136.304C99.3319 136.768 98.8799 137 98.2479 137H95.4759ZM105.396 136.256H105.816V137H105.3C104.58 137 104.04 136.756 103.68 136.268C103.304 136.756 102.76 137 102.048 137H101.532V136.256H101.952C102.832 136.256 103.272 135.8 103.272 134.888V132.284L104.076 131.864V134.888C104.076 135.8 104.516 136.256 105.396 136.256ZM102.672 138.26C102.992 138.26 103.152 138.424 103.152 138.752C103.152 139.08 102.992 139.244 102.672 139.244C102.352 139.244 102.192 139.08 102.192 138.752C102.192 138.424 102.352 138.26 102.672 138.26ZM104.04 138.26C104.36 138.26 104.52 138.424 104.52 138.752C104.52 139.08 104.36 139.244 104.04 139.244C103.72 139.244 103.56 139.08 103.56 138.752C103.56 138.424 103.72 138.26 104.04 138.26ZM106.907 133.484C107.075 132.82 107.391 132.296 107.855 131.912C108.327 131.52 108.879 131.324 109.511 131.324C110.319 131.324 110.991 131.608 111.527 132.176C112.031 132.72 112.283 133.412 112.283 134.252V134.936C112.283 135.616 112.075 136.144 111.659 136.52C111.307 136.84 110.839 137 110.255 137H109.067C108.787 137 108.527 136.96 108.287 136.88C108.047 136.96 107.795 137 107.531 137H105.695V136.256H107.231C106.799 135.824 106.583 135.292 106.583 134.66C106.583 134.196 106.691 133.804 106.907 133.484ZM111.491 134.84V134.252C111.491 133.532 111.259 132.964 110.795 132.548C110.419 132.22 109.979 132.056 109.475 132.056C108.803 132.056 108.291 132.316 107.939 132.836C108.059 132.812 108.179 132.8 108.299 132.8C108.811 132.8 109.223 132.972 109.535 133.316C109.847 133.652 110.003 134.1 110.003 134.66C110.003 135.292 109.787 135.824 109.355 136.256H110.195C111.059 136.256 111.491 135.784 111.491 134.84ZM108.299 136.148C109.027 135.908 109.391 135.404 109.391 134.636C109.391 134.26 109.291 133.96 109.091 133.736C108.899 133.504 108.635 133.388 108.299 133.388C107.963 133.388 107.695 133.5 107.495 133.724C107.295 133.948 107.195 134.252 107.195 134.636C107.195 135.404 107.563 135.908 108.299 136.148ZM114.362 137V129.68L115.166 129.26V137H114.362ZM126.606 136.256H127.014V137H126.498C125.786 137 125.25 136.76 124.89 136.28C124.522 136.752 123.978 136.992 123.258 137H121.734C120.854 137 120.414 137.456 120.414 138.368V140.36L119.61 140.78V138.344C119.61 137.68 119.806 137.16 120.198 136.784C120.55 136.44 121.018 136.264 121.602 136.256C121.226 135.776 121.038 135.144 121.038 134.36C121.038 133.496 121.262 132.828 121.71 132.356C122.102 131.932 122.622 131.72 123.27 131.72C123.934 131.72 124.446 131.928 124.806 132.344C125.118 132.704 125.274 133.184 125.274 133.784V134.888C125.274 135.8 125.718 136.256 126.606 136.256ZM124.47 134.936V133.856C124.47 132.92 124.07 132.452 123.27 132.452C122.814 132.452 122.458 132.62 122.202 132.956C121.954 133.292 121.83 133.756 121.83 134.348C121.83 134.948 121.95 135.416 122.19 135.752C122.43 136.088 122.762 136.256 123.186 136.256C124.042 136.256 124.47 135.816 124.47 134.936ZM126.893 137V136.256H127.625C128.513 136.256 128.957 135.8 128.957 134.888V133.16L129.761 132.74V134.888C129.761 135.8 130.201 136.256 131.081 136.256H131.525C132.405 136.256 132.845 135.8 132.845 134.888V132.728L133.649 132.296V134.888C133.649 135.8 134.093 136.256 134.981 136.256H135.413C136.301 136.256 136.745 135.8 136.745 134.888V132.284L137.549 131.864V134.912C137.549 135.576 137.353 136.096 136.961 136.472C136.609 136.816 136.133 136.992 135.533 137H134.873C134.129 137 133.589 136.736 133.253 136.208C132.909 136.736 132.373 137 131.645 137H130.985C130.241 137 129.697 136.736 129.353 136.208C129.017 136.736 128.477 137 127.733 137H126.893ZM141.855 137C141.175 137 140.651 136.78 140.283 136.34C139.979 135.964 139.827 135.488 139.827 134.912V129.68L140.631 129.26V134.888C140.631 135.8 141.071 136.256 141.951 136.256H142.371V137H141.855ZM142.251 137V136.256H143.595C145.339 136.256 146.699 135.664 147.675 134.48C146.963 133.12 146.103 132.44 145.095 132.44C144.407 132.44 143.735 132.788 143.079 133.484V132.692C143.735 132.044 144.419 131.72 145.131 131.72H145.155C146.411 131.72 147.499 132.568 148.419 134.264V134.756C147.251 136.252 145.639 137 143.583 137H142.251ZM152.243 137C151.563 137 151.039 136.78 150.671 136.34C150.367 135.964 150.215 135.488 150.215 134.912V129.68L151.019 129.26V134.888C151.019 135.8 151.459 136.256 152.339 136.256H152.759V137H152.243ZM153.359 130.28C153.031 130.28 152.867 130.112 152.867 129.776C152.867 129.456 153.031 129.296 153.359 129.296C153.671 129.296 153.827 129.456 153.827 129.776C153.827 130.112 153.671 130.28 153.359 130.28ZM154.727 130.28C154.399 130.28 154.235 130.112 154.235 129.776C154.235 129.456 154.399 129.296 154.727 129.296C155.039 129.296 155.195 129.456 155.195 129.776C155.195 130.112 155.039 130.28 154.727 130.28ZM152.639 137V136.256H153.059C153.939 136.256 154.379 135.8 154.379 134.888V132.284L155.183 131.864V134.912C155.183 135.584 154.987 136.108 154.595 136.484C154.235 136.828 153.755 137 153.155 137H152.639ZM163.142 136.7C163.062 136.748 162.93 136.824 162.746 136.928L162.722 136.94C162.066 137.308 161.626 137.624 161.402 137.888C161.186 138.152 161.078 138.504 161.078 138.944C161.078 139.472 161.258 139.904 161.618 140.24C161.986 140.584 162.458 140.756 163.034 140.756H163.058C163.97 140.756 164.702 140.552 165.254 140.144V140.876C164.598 141.292 163.858 141.5 163.034 141.5C162.17 141.5 161.482 141.216 160.97 140.648C160.546 140.168 160.334 139.592 160.334 138.92C160.334 138.352 160.474 137.896 160.754 137.552C161.034 137.208 161.598 136.8 162.446 136.328C161.75 135.856 161.014 135.068 160.238 133.964V133.472C161.07 132.304 162.05 131.72 163.178 131.72C163.706 131.72 164.23 131.876 164.75 132.188C165.27 132.5 165.73 132.936 166.13 133.496V133.964C165.578 134.724 164.838 135.464 163.91 136.184C164.118 136.232 164.334 136.256 164.558 136.256H167.462V137H164.51C164.038 137 163.582 136.9 163.142 136.7ZM160.934 133.736C161.774 134.84 162.514 135.56 163.154 135.896C163.978 135.32 164.738 134.592 165.434 133.712C164.794 132.872 164.042 132.452 163.178 132.452H163.142C162.318 132.452 161.582 132.88 160.934 133.736ZM174.891 136.256H175.299V137H174.783C174.055 137 173.511 136.748 173.151 136.244C172.751 136.908 172.143 137.24 171.327 137.24C170.503 137.24 169.895 136.912 169.503 136.256C169.135 136.752 168.587 137 167.859 137H167.343V136.256H167.763C168.643 136.256 169.083 135.8 169.083 134.888V134.48C169.083 133.56 169.307 132.856 169.755 132.368C170.147 131.936 170.671 131.72 171.327 131.72C172.079 131.72 172.651 132 173.043 132.56C173.387 133.04 173.559 133.68 173.559 134.48V134.888C173.559 135.8 174.003 136.256 174.891 136.256ZM171.327 136.496C171.767 136.496 172.115 136.316 172.371 135.956C172.627 135.588 172.755 135.092 172.755 134.468C172.755 133.124 172.279 132.452 171.327 132.452C170.367 132.452 169.887 133.124 169.887 134.468C169.887 135.82 170.367 136.496 171.327 136.496ZM175.174 137V136.256H175.51C176.422 136.256 176.878 135.784 176.878 134.84V129.68L177.682 129.26V134.852C177.682 135.532 177.482 136.068 177.082 136.46C176.706 136.82 176.21 137 175.594 137H175.174ZM189.121 136.256H189.529V137H189.013C188.301 137 187.765 136.76 187.405 136.28C187.037 136.752 186.493 136.992 185.773 137H184.249C183.369 137 182.929 137.456 182.929 138.368V140.36L182.125 140.78V138.344C182.125 137.68 182.321 137.16 182.713 136.784C183.065 136.44 183.533 136.264 184.117 136.256C183.741 135.776 183.553 135.144 183.553 134.36C183.553 133.496 183.777 132.828 184.225 132.356C184.617 131.932 185.137 131.72 185.785 131.72C186.449 131.72 186.961 131.928 187.321 132.344C187.633 132.704 187.789 133.184 187.789 133.784V134.888C187.789 135.8 188.233 136.256 189.121 136.256ZM186.985 134.936V133.856C186.985 132.92 186.585 132.452 185.785 132.452C185.329 132.452 184.973 132.62 184.717 132.956C184.469 133.292 184.345 133.756 184.345 134.348C184.345 134.948 184.465 135.416 184.705 135.752C184.945 136.088 185.277 136.256 185.701 136.256C186.557 136.256 186.985 135.816 186.985 134.936ZM192.769 130.28C192.441 130.28 192.277 130.112 192.277 129.776C192.277 129.456 192.441 129.296 192.769 129.296C193.081 129.296 193.237 129.456 193.237 129.776C193.237 130.112 193.081 130.28 192.769 130.28ZM196.993 136.256H197.413V137H196.981C196.317 137 195.785 136.924 195.385 136.772C194.993 136.62 194.629 136.352 194.293 135.968C193.269 136.656 192.085 137 190.741 137H189.409V136.256H190.753C192.497 136.256 193.857 135.664 194.833 134.48C194.121 133.12 193.261 132.44 192.253 132.44C191.565 132.44 190.893 132.788 190.237 133.484V132.692C190.893 132.044 191.577 131.72 192.289 131.72H192.313C193.569 131.72 194.657 132.568 195.577 134.264V134.756C195.329 135.076 195.065 135.352 194.785 135.584C195.041 135.832 195.329 136.008 195.649 136.112C195.977 136.208 196.425 136.256 196.993 136.256ZM198.51 130.316C198.19 130.316 198.03 130.152 198.03 129.824C198.03 129.496 198.19 129.332 198.51 129.332C198.83 129.332 198.99 129.496 198.99 129.824C198.99 130.152 198.83 130.316 198.51 130.316ZM199.878 130.316C199.558 130.316 199.398 130.152 199.398 129.824C199.398 129.496 199.558 129.332 199.878 129.332C200.198 129.332 200.358 129.496 200.358 129.824C200.358 130.152 200.198 130.316 199.878 130.316ZM201.162 136.256H201.582V137H201.066C200.346 137 199.806 136.756 199.446 136.268C199.07 136.756 198.526 137 197.814 137H197.298V136.256H197.718C198.598 136.256 199.038 135.8 199.038 134.888V132.284L199.842 131.864V134.888C199.842 135.8 200.282 136.256 201.162 136.256ZM205.289 136.256H205.709V137H205.193C204.457 137 203.909 136.748 203.549 136.244C203.173 136.748 202.617 137 201.881 137H201.461V136.256H201.797C202.709 136.256 203.165 135.784 203.165 134.84V129.68L203.969 129.26V134.888C203.969 135.8 204.409 136.256 205.289 136.256ZM209.237 130.304C208.909 130.304 208.745 130.136 208.745 129.8C208.745 129.48 208.909 129.32 209.237 129.32C209.549 129.32 209.705 129.48 209.705 129.8C209.705 130.136 209.549 130.304 209.237 130.304ZM205.589 137V136.256H207.629C207.189 135.816 206.969 135.184 206.969 134.36C206.969 133.496 207.193 132.828 207.641 132.356C208.033 131.932 208.553 131.72 209.201 131.72C209.865 131.72 210.377 131.928 210.737 132.344C211.049 132.704 211.205 133.184 211.205 133.784V134.948C211.197 135.596 211.001 136.104 210.617 136.472C210.265 136.824 209.785 137 209.177 137H205.589ZM210.413 133.856C210.413 132.92 210.009 132.452 209.201 132.452C208.753 132.452 208.401 132.62 208.145 132.956C207.897 133.284 207.773 133.748 207.773 134.348C207.773 134.932 207.893 135.396 208.133 135.74C208.381 136.084 208.709 136.256 209.117 136.256C209.981 136.256 210.413 135.808 210.413 134.912V133.856ZM214.614 130.22C214.294 130.22 214.134 130.052 214.134 129.716C214.134 129.396 214.294 129.236 214.614 129.236C214.934 129.236 215.094 129.396 215.094 129.716C215.094 130.052 214.934 130.22 214.614 130.22ZM215.982 130.22C215.662 130.22 215.502 130.052 215.502 129.716C215.502 129.396 215.662 129.236 215.982 129.236C216.302 129.236 216.462 129.396 216.462 129.716C216.462 130.052 216.302 130.22 215.982 130.22ZM215.322 137C214.61 137 214.054 136.764 213.654 136.292C213.318 135.884 213.15 135.356 213.15 134.708C213.15 133.228 213.894 132.232 215.382 131.72C216.87 132.232 217.614 133.228 217.614 134.708C217.614 135.452 217.394 136.032 216.954 136.448C216.57 136.816 216.066 137 215.442 137H215.322ZM215.286 136.256H215.478C215.894 136.256 216.222 136.12 216.462 135.848C216.702 135.568 216.822 135.188 216.822 134.708C216.822 133.644 216.342 132.892 215.382 132.452C214.422 132.892 213.942 133.644 213.942 134.708C213.942 135.18 214.062 135.556 214.302 135.836C214.542 136.116 214.87 136.256 215.286 136.256ZM229.938 136.256H230.358V137H229.842C229.33 137 228.902 136.872 228.558 136.616C228.494 137.464 228.154 138.132 227.538 138.62C226.986 139.06 226.29 139.28 225.45 139.28C224.41 139.28 223.61 138.924 223.05 138.212C222.61 137.66 222.39 137 222.39 136.232C222.39 135.536 222.566 134.948 222.918 134.468L223.71 134.288C223.318 134.864 223.122 135.496 223.122 136.184C223.122 136.888 223.35 137.464 223.806 137.912C224.238 138.336 224.786 138.548 225.45 138.548C226.218 138.548 226.814 138.316 227.238 137.852C227.598 137.468 227.778 136.968 227.778 136.352V129.68L228.57 129.26V134.9V134.924C228.57 135.812 229.026 136.256 229.938 136.256ZM233.725 130.316C233.397 130.316 233.233 130.148 233.233 129.812C233.233 129.492 233.397 129.332 233.725 129.332C234.037 129.332 234.193 129.492 234.193 129.812C234.193 130.148 234.037 130.316 233.725 130.316ZM234.949 136.256H237.145V137H234.433C234.161 137 233.913 136.972 233.689 136.916C233.465 136.972 233.217 137 232.945 137H230.233V136.256H232.441C231.809 135.672 231.493 134.98 231.493 134.18C231.493 133.404 231.709 132.788 232.141 132.332C232.533 131.924 233.049 131.72 233.689 131.72C234.417 131.72 234.981 131.984 235.381 132.512C235.717 132.952 235.885 133.508 235.885 134.18C235.885 134.988 235.573 135.68 234.949 136.256ZM233.737 136.148C234.145 136.004 234.477 135.748 234.733 135.38C234.997 135.004 235.129 134.6 235.129 134.168C235.129 133.64 234.997 133.224 234.733 132.92C234.477 132.608 234.129 132.452 233.689 132.452C233.249 132.452 232.901 132.608 232.645 132.92C232.389 133.224 232.261 133.636 232.261 134.156C232.261 134.596 232.389 135.004 232.645 135.38C232.901 135.748 233.233 136.004 233.641 136.148L233.689 136.16L233.713 136.148H233.737ZM249.021 136.256H249.441V137H248.925C248.205 137 247.665 136.756 247.305 136.268C246.945 136.756 246.401 137 245.673 137H240.789C240.069 137 239.529 136.756 239.169 136.268C238.793 136.756 238.249 137 237.537 137H237.021V136.256H237.441C238.321 136.256 238.761 135.8 238.761 134.888V133.16L239.565 132.74V134.888C239.565 135.64 239.857 136.08 240.441 136.208C240.737 134.976 241.253 133.944 241.989 133.112C242.813 132.184 243.781 131.72 244.893 131.72C245.789 131.72 246.501 132.028 247.029 132.644C247.477 133.172 247.701 133.824 247.701 134.6V134.912C247.701 135.808 248.141 136.256 249.021 136.256ZM245.613 136.256C246.469 136.256 246.897 135.784 246.897 134.84V134.6C246.897 133.928 246.685 133.388 246.261 132.98C245.901 132.628 245.449 132.452 244.905 132.452C243.969 132.452 243.137 132.892 242.409 133.772C241.857 134.444 241.441 135.272 241.161 136.256H245.613ZM253.145 136.256H253.565V137H253.049C252.313 137 251.765 136.748 251.405 136.244C251.029 136.748 250.473 137 249.737 137H249.317V136.256H249.653C250.565 136.256 251.021 135.784 251.021 134.84V129.68L251.825 129.26V134.888C251.825 135.8 252.265 136.256 253.145 136.256ZM254.657 133.484C254.825 132.82 255.141 132.296 255.605 131.912C256.077 131.52 256.629 131.324 257.261 131.324C258.069 131.324 258.741 131.608 259.277 132.176C259.781 132.72 260.033 133.412 260.033 134.252V134.936C260.033 135.616 259.825 136.144 259.409 136.52C259.057 136.84 258.589 137 258.005 137H256.817C256.537 137 256.277 136.96 256.037 136.88C255.797 136.96 255.545 137 255.281 137H253.445V136.256H254.981C254.549 135.824 254.333 135.292 254.333 134.66C254.333 134.196 254.441 133.804 254.657 133.484ZM259.241 134.84V134.252C259.241 133.532 259.009 132.964 258.545 132.548C258.169 132.22 257.729 132.056 257.225 132.056C256.553 132.056 256.041 132.316 255.689 132.836C255.809 132.812 255.929 132.8 256.049 132.8C256.561 132.8 256.973 132.972 257.285 133.316C257.597 133.652 257.753 134.1 257.753 134.66C257.753 135.292 257.537 135.824 257.105 136.256H257.945C258.809 136.256 259.241 135.784 259.241 134.84ZM256.049 136.148C256.777 135.908 257.141 135.404 257.141 134.636C257.141 134.26 257.041 133.96 256.841 133.736C256.649 133.504 256.385 133.388 256.049 133.388C255.713 133.388 255.445 133.5 255.245 133.724C255.045 133.948 254.945 134.252 254.945 134.636C254.945 135.404 255.313 135.908 256.049 136.148ZM262.112 137V129.68L262.916 129.26V137H262.112ZM197.046 152.256H197.454V153H196.938C196.226 153 195.69 152.76 195.33 152.28C194.962 152.752 194.418 152.992 193.698 153H192.174C191.294 153 190.854 153.456 190.854 154.368V156.36L190.05 156.78V154.344C190.05 153.68 190.246 153.16 190.638 152.784C190.99 152.44 191.458 152.264 192.042 152.256C191.666 151.776 191.478 151.144 191.478 150.36C191.478 149.496 191.702 148.828 192.15 148.356C192.542 147.932 193.062 147.72 193.71 147.72C194.374 147.72 194.886 147.928 195.246 148.344C195.558 148.704 195.714 149.184 195.714 149.784V150.888C195.714 151.8 196.158 152.256 197.046 152.256ZM194.91 150.936V149.856C194.91 148.92 194.51 148.452 193.71 148.452C193.254 148.452 192.898 148.62 192.642 148.956C192.394 149.292 192.27 149.756 192.27 150.348C192.27 150.948 192.39 151.416 192.63 151.752C192.87 152.088 193.202 152.256 193.626 152.256C194.482 152.256 194.91 151.816 194.91 150.936ZM203.477 152.256V153H197.333V152.256H199.349C198.845 151.744 198.593 151.064 198.593 150.216C198.593 149.408 198.869 148.768 199.421 148.296C199.861 147.92 200.377 147.728 200.969 147.72C201.793 147.72 202.437 148.044 202.901 148.692V149.484C202.421 148.796 201.805 148.452 201.053 148.452H201.017C200.537 148.452 200.145 148.616 199.841 148.944C199.545 149.272 199.397 149.704 199.397 150.24C199.397 150.856 199.581 151.348 199.949 151.716C200.301 152.076 200.773 152.256 201.365 152.256H203.477ZM204.315 153L204.699 152.256H206.955C207.323 152.256 207.579 152.164 207.723 151.98C207.875 151.796 207.951 151.476 207.951 151.02C207.951 149.844 207.435 148.968 206.403 148.392L206.799 147.732C208.071 148.468 208.719 149.504 208.743 150.84C208.751 151.784 209.211 152.256 210.123 152.256H210.495V153H210.039C209.343 153 208.811 152.768 208.443 152.304C208.171 152.768 207.719 153 207.087 153H204.315ZM210.37 153V152.256H210.706C211.618 152.256 212.074 151.784 212.074 150.84V145.68L212.878 145.26V150.852C212.878 151.532 212.678 152.068 212.278 152.46C211.902 152.82 211.406 153 210.79 153H210.37ZM224.666 152.256H225.086V153H224.57C223.834 153 223.286 152.748 222.926 152.244C222.55 152.748 221.994 153 221.258 153H217.322L217.706 152.256H219.542V147.24L220.334 146.82V152.256H221.174C222.086 152.256 222.542 151.784 222.542 150.84V145.68L223.334 145.26V147.876L223.346 147.864V150.888C223.346 151.8 223.786 152.256 224.666 152.256ZM232.517 152.256H232.925V153H232.409C231.681 153 231.137 152.748 230.777 152.244C230.377 152.908 229.769 153.24 228.953 153.24C228.129 153.24 227.521 152.912 227.129 152.256C226.761 152.752 226.213 153 225.485 153H224.969V152.256H225.389C226.269 152.256 226.709 151.8 226.709 150.888V150.48C226.709 149.56 226.933 148.856 227.381 148.368C227.773 147.936 228.297 147.72 228.953 147.72C229.705 147.72 230.277 148 230.669 148.56C231.013 149.04 231.185 149.68 231.185 150.48V150.888C231.185 151.8 231.629 152.256 232.517 152.256ZM228.953 152.496C229.393 152.496 229.741 152.316 229.997 151.956C230.253 151.588 230.381 151.092 230.381 150.468C230.381 149.124 229.905 148.452 228.953 148.452C227.993 148.452 227.513 149.124 227.513 150.468C227.513 151.82 227.993 152.496 228.953 152.496ZM239.148 145.428C238.86 145.428 238.716 145.276 238.716 144.972C238.716 144.684 238.86 144.54 239.148 144.54C239.436 144.54 239.58 144.684 239.58 144.972C239.58 145.276 239.436 145.428 239.148 145.428ZM238.476 146.676C238.148 146.676 237.984 146.512 237.984 146.184C237.984 145.856 238.148 145.692 238.476 145.692C238.788 145.692 238.944 145.856 238.944 146.184C238.944 146.512 238.788 146.676 238.476 146.676ZM239.844 146.676C239.524 146.676 239.364 146.512 239.364 146.184C239.364 145.856 239.524 145.692 239.844 145.692C240.164 145.692 240.324 145.856 240.324 146.184C240.324 146.512 240.164 146.676 239.844 146.676ZM232.8 153V152.256H233.532C234.42 152.256 234.864 151.8 234.864 150.888V149.16L235.668 148.74V150.888C235.668 151.8 236.108 152.256 236.988 152.256H237.432C238.312 152.256 238.752 151.8 238.752 150.888V148.728L239.556 148.296V150.888C239.556 151.8 240 152.256 240.888 152.256H241.32C242.208 152.256 242.652 151.8 242.652 150.888V148.284L243.456 147.864V150.912C243.456 151.576 243.26 152.096 242.868 152.472C242.516 152.816 242.04 152.992 241.44 153H240.78C240.036 153 239.496 152.736 239.16 152.208C238.816 152.736 238.28 153 237.552 153H236.892C236.148 153 235.604 152.736 235.26 152.208C234.924 152.736 234.384 153 233.64 153H232.8ZM245.733 153V145.68L246.537 145.26V153H245.733ZM252.507 152.256H252.927V153H252.411C251.915 153 251.503 152.88 251.175 152.64C251.111 153.968 250.575 154.808 249.567 155.16C249.311 155.248 249.039 155.292 248.751 155.292C248.287 155.292 247.839 155.18 247.407 154.956V154.248C247.815 154.472 248.231 154.584 248.655 154.584C248.991 154.584 249.287 154.508 249.543 154.356C250.103 154.02 250.383 153.392 250.383 152.472V148.284L251.175 147.864V147.876L251.187 147.864V150.888C251.187 151.8 251.627 152.256 252.507 152.256ZM256.676 152.256H257.096V153H256.58C255.86 153 255.32 152.756 254.96 152.268C254.584 152.756 254.04 153 253.328 153H252.812V152.256H253.232C254.112 152.256 254.552 151.8 254.552 150.888V148.284L255.356 147.864V150.888C255.356 151.8 255.796 152.256 256.676 152.256ZM253.952 154.26C254.272 154.26 254.432 154.424 254.432 154.752C254.432 155.08 254.272 155.244 253.952 155.244C253.632 155.244 253.472 155.08 253.472 154.752C253.472 154.424 253.632 154.26 253.952 154.26ZM255.32 154.26C255.64 154.26 255.8 154.424 255.8 154.752C255.8 155.08 255.64 155.244 255.32 155.244C255 155.244 254.84 155.08 254.84 154.752C254.84 154.424 255 154.26 255.32 154.26ZM263.119 152.256V153H256.975V152.256H258.991C258.487 151.744 258.235 151.064 258.235 150.216C258.235 149.408 258.511 148.768 259.063 148.296C259.503 147.92 260.019 147.728 260.611 147.72C261.435 147.72 262.079 148.044 262.543 148.692V149.484C262.063 148.796 261.447 148.452 260.695 148.452H260.659C260.179 148.452 259.787 148.616 259.483 148.944C259.187 149.272 259.039 149.704 259.039 150.24C259.039 150.856 259.223 151.348 259.591 151.716C259.943 152.076 260.415 152.256 261.007 152.256H263.119ZM265.924 152.52C265.924 152.528 265.924 152.536 265.924 152.544C265.924 152.888 265.76 153.06 265.432 153.06C265.088 153.06 264.916 152.884 264.916 152.532C264.932 152.204 265.104 152.04 265.432 152.04C265.76 152.04 265.924 152.2 265.924 152.52Z" fill="#2D2D2D" fill-opacity="0.7"/>
<defs>
<filter id="filter0_d_187_767" x="9.90918" y="97.7231" width="309.091" height="118.554" filterUnits="userSpaceOnUse" color-interpolation-filters="sRGB">
<feFlood flood-opacity="0" result="BackgroundImageFix"/>
<feColorMatrix in="SourceAlpha" type="matrix" values="0 0 0 0 0 0 0 0 0 0 0 0 0 0 0 0 0 0 127 0" result="hardAlpha"/>
<feMorphology radius="6" operator="erode" in="SourceAlpha" result="effect1_dropShadow_187_767"/>
<feOffset dx="5" dy="13"/>
<feGaussianBlur stdDeviation="16.5"/>
<feComposite in2="hardAlpha" operator="out"/>
<feColorMatrix type="matrix" values="0 0 0 0 0.149816 0 0 0 0 0.128915 0 0 0 0 0.170718 0 0 0 0.11 0"/>
<feBlend mode="normal" in2="BackgroundImageFix" result="effect1_dropShadow_187_767"/>
<feBlend mode="normal" in="SourceGraphic" in2="effect1_dropShadow_187_767" result="shape"/>
</filter>
</defs>
</svg>
