<svg width="360" height="310" viewBox="0 0 360 310" fill="none" xmlns="http://www.w3.org/2000/svg">
<rect width="359.293" height="310" rx="15" fill="white"/>
<path d="M264.368 41.548H265.436V43H264.212C263.668 43 263.204 42.86 262.82 42.58C262.412 42.86 261.892 43 261.26 43H259.592C259.288 43 259.072 43.064 258.944 43.192C258.816 43.328 258.752 43.552 258.752 43.864V45.988L257.24 46.78V43.792C257.24 43.16 257.412 42.644 257.756 42.244C258.108 41.844 258.58 41.616 259.172 41.56C259.012 41.168 258.932 40.724 258.932 40.228C258.932 39.348 259.172 38.652 259.652 38.14C260.076 37.692 260.636 37.468 261.332 37.468C262.044 37.468 262.6 37.696 263 38.152C263.344 38.544 263.516 39.056 263.516 39.688V40.684C263.516 40.996 263.58 41.22 263.708 41.356C263.844 41.484 264.064 41.548 264.368 41.548ZM262.004 40.876V39.664C262.004 39.136 261.78 38.872 261.332 38.872C261.044 38.872 260.816 38.988 260.648 39.22C260.488 39.452 260.408 39.772 260.408 40.18C260.408 41.092 260.708 41.548 261.308 41.548C261.772 41.548 262.004 41.324 262.004 40.876ZM267.774 36.616C267.534 36.616 267.342 36.544 267.198 36.4C267.054 36.256 266.982 36.06 266.982 35.812C266.982 35.292 267.246 35.032 267.774 35.032C268.014 35.032 268.202 35.104 268.338 35.248C268.482 35.384 268.554 35.572 268.554 35.812C268.554 36.348 268.294 36.616 267.774 36.616ZM269.622 36.616C269.382 36.616 269.19 36.544 269.046 36.4C268.902 36.256 268.83 36.06 268.83 35.812C268.83 35.292 269.094 35.032 269.622 35.032C269.862 35.032 270.05 35.104 270.186 35.248C270.33 35.384 270.402 35.572 270.402 35.812C270.402 36.348 270.142 36.616 269.622 36.616ZM264.714 43V41.548H266.634C266.394 41.196 266.274 40.756 266.274 40.228C266.274 39.348 266.514 38.652 266.994 38.14C267.426 37.692 267.99 37.468 268.686 37.468C269.398 37.468 269.95 37.696 270.342 38.152C270.694 38.544 270.87 39.056 270.87 39.688V40.768C270.862 41.456 270.658 42 270.258 42.4C269.866 42.8 269.334 43 268.662 43H264.714ZM269.358 39.664C269.358 39.136 269.134 38.872 268.686 38.872C268.07 38.872 267.762 39.308 267.762 40.18C267.762 41.092 268.058 41.548 268.65 41.548C269.122 41.548 269.358 41.292 269.358 40.78V39.664ZM277.536 36.064L279.048 35.26V40.504C279.048 41.28 278.812 41.9 278.34 42.364C277.9 42.788 277.32 43 276.6 43H272.076L272.832 41.548H274.416V37.624L275.928 36.82V41.548H276.516C276.884 41.548 277.144 41.468 277.296 41.308C277.456 41.148 277.536 40.876 277.536 40.492V36.064ZM283.409 43C282.681 43 282.117 42.768 281.717 42.304C281.373 41.904 281.201 41.388 281.201 40.756V36.052L282.713 35.26V40.684C282.713 40.996 282.777 41.22 282.905 41.356C283.033 41.484 283.249 41.548 283.553 41.548H284.633V43H283.409ZM284.774 36.46C284.534 36.46 284.342 36.388 284.198 36.244C284.054 36.1 283.982 35.904 283.982 35.656C283.982 35.136 284.246 34.876 284.774 34.876C285.014 34.876 285.202 34.948 285.338 35.092C285.482 35.228 285.554 35.416 285.554 35.656C285.554 36.192 285.294 36.46 284.774 36.46ZM286.622 36.46C286.382 36.46 286.19 36.388 286.046 36.244C285.902 36.1 285.83 35.904 285.83 35.656C285.83 35.136 286.094 34.876 286.622 34.876C286.862 34.876 287.05 34.948 287.186 35.092C287.33 35.228 287.402 35.416 287.402 35.656C287.402 36.192 287.142 36.46 286.622 36.46ZM283.91 43V41.548H284.99C285.294 41.548 285.51 41.484 285.638 41.356C285.766 41.22 285.83 40.996 285.83 40.684V38.464L287.342 37.672V40.756C287.342 41.484 287.118 42.052 286.67 42.46C286.278 42.82 285.766 43 285.134 43H283.91Z" fill="#2D2D2D" fill-opacity="0.9"/>
<path fill-rule="evenodd" clip-rule="evenodd" d="M32.8623 192.792C32.8623 190.977 34.3336 189.505 36.1485 189.505H320.954C322.769 189.505 324.24 190.977 324.24 192.792C324.24 194.607 322.769 196.078 320.954 196.078H36.1485C34.3336 196.078 32.8623 194.607 32.8623 192.792Z" fill="#FBF9F7"/>
<path fill-rule="evenodd" clip-rule="evenodd" d="M32.8623 208.127C32.8623 206.312 34.3336 204.841 36.1485 204.841H320.954C322.769 204.841 324.24 206.312 324.24 208.127C324.24 209.942 322.769 211.413 320.954 211.413H36.1485C34.3336 211.413 32.8623 209.942 32.8623 208.127Z" fill="#FBF9F7"/>
<path fill-rule="evenodd" clip-rule="evenodd" d="M32.8623 223.463C32.8623 221.648 34.3336 220.177 36.1485 220.177H320.954C322.769 220.177 324.24 221.648 324.24 223.463C324.24 225.278 322.769 226.749 320.954 226.749H36.1485C34.3336 226.749 32.8623 225.278 32.8623 223.463Z" fill="#FBF9F7"/>
<path fill-rule="evenodd" clip-rule="evenodd" d="M32.8623 238.798C32.8623 236.983 34.3336 235.512 36.1485 235.512H320.954C322.769 235.512 324.24 236.983 324.24 238.798C324.24 240.613 322.769 242.085 320.954 242.085H36.1485C34.3336 242.085 32.8623 240.613 32.8623 238.798Z" fill="#FBF9F7"/>
<path fill-rule="evenodd" clip-rule="evenodd" d="M32.8623 254.134C32.8623 252.319 34.3336 250.848 36.1485 250.848H320.954C322.769 250.848 324.24 252.319 324.24 254.134C324.24 255.949 322.769 257.421 320.954 257.421H36.1485C34.3336 257.421 32.8623 255.949 32.8623 254.134Z" fill="#FBF9F7"/>
<path fill-rule="evenodd" clip-rule="evenodd" d="M32.8623 269.47C32.8623 267.655 34.3336 266.184 36.1485 266.184H320.954C322.769 266.184 324.24 267.655 324.24 269.47C324.24 271.285 322.769 272.756 320.954 272.756H36.1485C34.3336 272.756 32.8623 271.285 32.8623 269.47Z" fill="#FBF9F7"/>
<line x1="32.8623" y1="67.415" x2="325.336" y2="67.415" stroke="#F7F3F0"/>
<path d="M117.93 88.136H115.057V89.8C115.161 89.7567 115.304 89.735 115.486 89.735C116.439 89.735 117.18 89.9733 117.709 90.45C118.212 90.9093 118.463 91.5377 118.463 92.335C118.463 93.1757 118.151 93.8733 117.527 94.428C116.981 94.9133 116.318 95.156 115.538 95.156C114.498 95.156 113.592 94.779 112.821 94.025L113.523 92.946C114.156 93.4227 114.767 93.661 115.356 93.661C116.266 93.661 116.721 93.2537 116.721 92.439C116.721 91.529 116.136 91.074 114.966 91.074C114.559 91.074 114.026 91.1477 113.367 91.295V86.771H117.93V88.136ZM126.722 90.372C127.615 89.462 128.633 89.007 129.777 89.007C130.808 89.007 131.627 89.3623 132.234 90.073C132.754 90.671 133.014 91.412 133.014 92.296V92.608C133.014 93.4227 132.78 94.0423 132.312 94.467C131.922 94.8223 131.402 95 130.752 95H122.341L123.173 93.427H124.941C124.976 93.3057 125.023 93.1713 125.084 93.024V87.486L126.722 86.615V90.372ZM131.389 92.543V92.296C131.389 91.776 131.237 91.3513 130.934 91.022C130.639 90.6927 130.258 90.528 129.79 90.528C129.183 90.528 128.607 90.7533 128.061 91.204C127.524 91.646 127.077 92.2613 126.722 93.05V93.427H130.687C130.973 93.427 131.159 93.3707 131.246 93.258C131.341 93.1453 131.389 92.907 131.389 92.543ZM138.295 93.427H139.465V95H138.139C137.845 95 137.572 94.961 137.32 94.883C137.208 95.715 136.874 96.3737 136.319 96.859C135.817 97.2923 135.214 97.509 134.512 97.509C133.966 97.509 133.433 97.3703 132.913 97.093V95.663C133.364 95.9143 133.806 96.04 134.239 96.04C134.716 96.04 135.084 95.884 135.344 95.572C135.613 95.2687 135.747 94.844 135.747 94.298V90.086L136.813 89.527L137.372 89.228V89.241L137.385 89.228V92.491C137.385 92.829 137.455 93.0717 137.593 93.219C137.732 93.3577 137.966 93.427 138.295 93.427ZM142.005 88.084C141.745 88.084 141.537 88.006 141.381 87.85C141.225 87.694 141.147 87.4817 141.147 87.213C141.147 86.6497 141.433 86.368 142.005 86.368C142.265 86.368 142.469 86.446 142.616 86.602C142.772 86.7493 142.85 86.953 142.85 87.213C142.85 87.7937 142.568 88.084 142.005 88.084ZM144.007 88.084C143.747 88.084 143.539 88.006 143.383 87.85C143.227 87.694 143.149 87.4817 143.149 87.213C143.149 86.6497 143.435 86.368 144.007 86.368C144.267 86.368 144.471 86.446 144.618 86.602C144.774 86.7493 144.852 86.953 144.852 87.213C144.852 87.7937 144.57 88.084 144.007 88.084ZM138.69 95V93.427H140.77C140.51 93.0457 140.38 92.569 140.38 91.997C140.38 91.0437 140.64 90.2897 141.16 89.735C141.628 89.2497 142.239 89.007 142.993 89.007C143.764 89.007 144.362 89.254 144.787 89.748C145.168 90.1727 145.359 90.7273 145.359 91.412V92.582C145.35 93.3273 145.129 93.9167 144.696 94.35C144.271 94.7833 143.695 95 142.967 95H138.69ZM143.721 91.386C143.721 90.814 143.478 90.528 142.993 90.528C142.326 90.528 141.992 91.0003 141.992 91.945C141.992 92.933 142.313 93.427 142.954 93.427C143.465 93.427 143.721 93.1497 143.721 92.595V91.386ZM158.68 93.427H160.032V95H158.524C158.264 95 157.978 94.935 157.666 94.805C157.476 95.663 157.029 96.339 156.327 96.833C155.695 97.2663 154.945 97.483 154.078 97.483C152.848 97.483 151.894 97.0757 151.218 96.261C150.698 95.637 150.438 94.896 150.438 94.038C150.438 93.362 150.594 92.764 150.906 92.244L152.518 91.88C152.163 92.4433 151.985 93.089 151.985 93.817C151.985 94.4583 152.172 94.9653 152.544 95.338C152.926 95.7193 153.437 95.91 154.078 95.91C154.711 95.91 155.214 95.7323 155.586 95.377C155.959 95.0217 156.145 94.5363 156.145 93.921V87.486L157.77 86.615V92.491C157.77 92.829 157.84 93.0717 157.978 93.219C158.117 93.3577 158.351 93.427 158.68 93.427ZM161.336 91.412C161.336 90.632 161.579 90.021 162.064 89.579C162.489 89.1977 163.035 89.007 163.702 89.007C164.56 89.007 165.228 89.3233 165.704 89.956C166.112 90.4847 166.315 91.165 166.315 91.997C166.315 92.959 166.06 93.7173 165.548 94.272C165.089 94.7573 164.504 95 163.793 95C163.1 95 162.532 94.8483 162.09 94.545C161.674 94.8483 161.172 95 160.582 95H159.256V93.427H160.426C160.756 93.427 160.99 93.3577 161.128 93.219C161.267 93.0717 161.336 92.829 161.336 92.491V91.412ZM162.974 92.699C162.974 93.1843 163.23 93.427 163.741 93.427C164.383 93.427 164.703 92.933 164.703 91.945C164.703 91.0003 164.37 90.528 163.702 90.528C163.217 90.528 162.974 90.814 162.974 91.386V92.699ZM171.397 94.623C171.128 94.675 170.851 94.701 170.565 94.701C169.768 94.701 169.131 94.402 168.654 93.804C168.264 93.3013 168.069 92.6947 168.069 91.984C168.069 91.0307 168.329 90.281 168.849 89.735C169.308 89.2497 169.915 89.007 170.669 89.007C171.44 89.007 172.043 89.254 172.476 89.748C172.849 90.1727 173.035 90.7273 173.035 91.412V94.194C173.035 95.2167 172.766 96.0227 172.229 96.612C171.726 97.1667 171.042 97.444 170.175 97.444C169.629 97.444 169.096 97.2967 168.576 97.002V95.585C169.044 95.8537 169.512 95.988 169.98 95.988C170.821 95.988 171.293 95.533 171.397 94.623ZM171.41 91.386C171.41 90.814 171.163 90.528 170.669 90.528C170.357 90.528 170.11 90.6537 169.928 90.905C169.755 91.1563 169.668 91.4987 169.668 91.932C169.668 92.8507 169.997 93.31 170.656 93.31C171.003 93.31 171.254 93.2233 171.41 93.05V91.386ZM177.643 95C176.854 95 176.243 94.7487 175.81 94.246C175.437 93.8127 175.251 93.2537 175.251 92.569V87.473L176.889 86.615V92.491C176.889 92.829 176.958 93.0717 177.097 93.219C177.236 93.3577 177.47 93.427 177.799 93.427H178.969V95H177.643ZM186.661 93.427H187.753V95H186.648C185.964 95 185.413 94.9263 184.997 94.779C184.59 94.623 184.209 94.3543 183.853 93.973C182.77 94.6577 181.522 95 180.109 95H178.185V93.427H180.122C181.648 93.427 182.861 92.972 183.762 92.062C183.173 91.0307 182.458 90.515 181.617 90.515C180.924 90.515 180.166 90.892 179.342 91.646V90.203C180.07 89.4057 180.894 89.007 181.812 89.007C182.488 89.007 183.147 89.254 183.788 89.748C184.43 90.242 184.997 90.944 185.491 91.854V92.504C185.353 92.686 185.171 92.8897 184.945 93.115C185.292 93.323 185.864 93.427 186.661 93.427ZM183.06 96.183C183.32 96.183 183.524 96.2567 183.671 96.404C183.827 96.56 183.905 96.768 183.905 97.028C183.905 97.6087 183.624 97.899 183.06 97.899C182.8 97.899 182.592 97.821 182.436 97.665C182.28 97.509 182.202 97.2967 182.202 97.028C182.202 96.7767 182.28 96.573 182.436 96.417C182.592 96.261 182.8 96.183 183.06 96.183ZM188.504 91.022C188.721 90.294 189.107 89.722 189.661 89.306C190.225 88.89 190.875 88.682 191.611 88.682C192.599 88.682 193.41 89.007 194.042 89.657C194.632 90.2637 194.926 91.048 194.926 92.01V92.582C194.926 93.3707 194.679 93.986 194.185 94.428C193.752 94.8093 193.189 95 192.495 95H190.857C190.563 95 190.285 94.9567 190.025 94.87C189.757 94.9567 189.479 95 189.193 95H186.97V93.427H188.296C188.149 93.1063 188.075 92.7553 188.075 92.374C188.075 91.8367 188.218 91.386 188.504 91.022ZM193.301 92.478V92.01C193.301 91.464 193.141 91.0263 192.82 90.697C192.508 90.3677 192.092 90.203 191.572 90.203C191.217 90.203 190.909 90.281 190.649 90.437C191.057 90.5583 191.377 90.7923 191.611 91.139C191.854 91.4857 191.975 91.8973 191.975 92.374C191.975 92.7553 191.902 93.1063 191.754 93.427H192.469C192.79 93.427 193.007 93.362 193.119 93.232C193.241 93.0933 193.301 92.842 193.301 92.478ZM190.025 93.31C190.58 93.128 190.857 92.7683 190.857 92.231C190.857 91.9623 190.779 91.75 190.623 91.594C190.476 91.4293 190.277 91.347 190.025 91.347C189.774 91.347 189.57 91.4293 189.414 91.594C189.267 91.75 189.193 91.9623 189.193 92.231C189.193 92.7683 189.471 93.128 190.025 93.31ZM198.312 87.655C198.052 87.655 197.844 87.577 197.688 87.421C197.532 87.265 197.454 87.0527 197.454 86.784C197.454 86.2207 197.74 85.939 198.312 85.939C198.572 85.939 198.776 86.017 198.923 86.173C199.079 86.3203 199.157 86.524 199.157 86.784C199.157 87.3647 198.876 87.655 198.312 87.655ZM200.301 87.655C200.041 87.655 199.833 87.577 199.677 87.421C199.521 87.2563 199.443 87.044 199.443 86.784C199.443 86.5327 199.521 86.329 199.677 86.173C199.833 86.017 200.041 85.939 200.301 85.939C200.561 85.939 200.765 86.017 200.912 86.173C201.068 86.3203 201.146 86.524 201.146 86.784C201.146 87.3647 200.865 87.655 200.301 87.655ZM199.313 95C198.49 95 197.844 94.7227 197.376 94.168C196.978 93.6913 196.778 93.0803 196.778 92.335C196.778 91.555 197.004 90.8747 197.454 90.294C197.905 89.7133 198.546 89.2843 199.378 89.007C200.262 89.3017 200.93 89.7653 201.38 90.398C201.788 90.9527 201.991 91.5983 201.991 92.335C201.991 93.193 201.731 93.8647 201.211 94.35C200.761 94.7833 200.171 95 199.443 95H199.313ZM199.3 93.427H199.469C200.076 93.427 200.379 93.0673 200.379 92.348C200.379 91.5247 200.046 90.9223 199.378 90.541C198.72 90.9223 198.39 91.516 198.39 92.322C198.39 93.0587 198.694 93.427 199.3 93.427ZM210.64 88.955C210.38 88.955 210.172 88.877 210.016 88.721C209.86 88.5563 209.782 88.344 209.782 88.084C209.782 87.8327 209.86 87.629 210.016 87.473C210.172 87.317 210.38 87.239 210.64 87.239C210.9 87.239 211.103 87.317 211.251 87.473C211.407 87.6203 211.485 87.824 211.485 88.084C211.485 88.6647 211.203 88.955 210.64 88.955ZM212.642 88.955C212.382 88.955 212.174 88.877 212.018 88.721C211.862 88.565 211.784 88.3527 211.784 88.084C211.784 87.5207 212.07 87.239 212.642 87.239C212.902 87.239 213.105 87.317 213.253 87.473C213.409 87.6203 213.487 87.824 213.487 88.084C213.487 88.6647 213.205 88.955 212.642 88.955ZM217.348 93.427H218.258V95H217.192C216.55 95 216.026 94.831 215.619 94.493C215.203 94.831 214.674 95 214.033 95H209.392C208.655 95 208.079 94.753 207.663 94.259C207.29 93.8257 207.104 93.2667 207.104 92.582V91.256L208.729 90.398V92.478C208.729 92.8247 208.798 93.0717 208.937 93.219C209.084 93.3577 209.322 93.427 209.652 93.427H213.89C214.219 93.427 214.453 93.3533 214.592 93.206C214.73 93.0587 214.8 92.816 214.8 92.478V90.086L216.438 89.228V92.491C216.438 92.829 216.507 93.0717 216.646 93.219C216.784 93.3577 217.018 93.427 217.348 93.427ZM217.477 95V93.427H219.414C220.94 93.427 222.153 92.972 223.054 92.062C222.465 91.0307 221.75 90.515 220.909 90.515C220.216 90.515 219.458 90.892 218.634 91.646V90.203C219.362 89.4057 220.186 89.007 221.104 89.007C221.78 89.007 222.439 89.254 223.08 89.748C223.722 90.242 224.289 90.944 224.783 91.854V92.504C224.159 93.3013 223.379 93.9167 222.443 94.35C221.516 94.7833 220.502 95 219.401 95H217.477ZM225.564 95L226.383 93.427H228.437C228.879 93.427 229.1 93.1713 229.1 92.66C229.1 91.7067 228.64 90.9743 227.722 90.463L228.528 89.072C229.88 89.8607 230.608 90.931 230.712 92.283C230.746 92.7163 230.842 93.0153 230.998 93.18C231.162 93.3447 231.44 93.427 231.83 93.427H232.818V95H231.739C231.097 95 230.556 94.8223 230.114 94.467C229.793 94.8223 229.334 95 228.736 95H225.564ZM232.039 95V93.427H233.209C233.538 93.427 233.772 93.3577 233.911 93.219C234.049 93.0717 234.119 92.829 234.119 92.491V90.086L235.757 89.228V92.569C235.757 93.3577 235.514 93.973 235.029 94.415C234.604 94.805 234.049 95 233.365 95H232.039ZM232.741 97.899C232.481 97.899 232.273 97.821 232.117 97.665C231.961 97.509 231.883 97.2967 231.883 97.028C231.883 96.4647 232.169 96.183 232.741 96.183C233.001 96.183 233.204 96.2567 233.352 96.404C233.508 96.56 233.586 96.768 233.586 97.028C233.586 97.6087 233.304 97.899 232.741 97.899ZM234.743 97.899C234.483 97.899 234.275 97.821 234.119 97.665C233.963 97.509 233.885 97.2967 233.885 97.028C233.885 96.4647 234.171 96.183 234.743 96.183C235.003 96.183 235.206 96.2567 235.354 96.404C235.51 96.56 235.588 96.768 235.588 97.028C235.588 97.6087 235.306 97.899 234.743 97.899ZM240.485 95C239.696 95 239.085 94.7487 238.652 94.246C238.279 93.8127 238.093 93.2537 238.093 92.569V87.473L239.731 86.615V92.491C239.731 92.829 239.8 93.0717 239.939 93.219C240.078 93.3577 240.312 93.427 240.641 93.427H241.811V95H240.485ZM241.963 87.915C241.703 87.915 241.495 87.837 241.339 87.681C241.183 87.525 241.105 87.3127 241.105 87.044C241.105 86.4807 241.391 86.199 241.963 86.199C242.223 86.199 242.427 86.277 242.574 86.433C242.73 86.5803 242.808 86.784 242.808 87.044C242.808 87.6247 242.526 87.915 241.963 87.915ZM243.965 87.915C243.705 87.915 243.497 87.837 243.341 87.681C243.185 87.525 243.107 87.3127 243.107 87.044C243.107 86.4807 243.393 86.199 243.965 86.199C244.225 86.199 244.429 86.277 244.576 86.433C244.732 86.5803 244.81 86.784 244.81 87.044C244.81 87.6247 244.528 87.915 243.965 87.915ZM241.027 95V93.427H242.197C242.526 93.427 242.76 93.3577 242.899 93.219C243.038 93.0717 243.107 92.829 243.107 92.491V90.086L244.745 89.228V92.569C244.745 93.3577 244.502 93.973 244.017 94.415C243.592 94.805 243.038 95 242.353 95H241.027ZM255.209 87.486L256.847 86.615V92.296C256.847 93.1367 256.592 93.8083 256.08 94.311C255.604 94.7703 254.975 95 254.195 95H249.294L250.113 93.427H251.829V89.176L253.467 88.305V93.427H254.104C254.503 93.427 254.785 93.3403 254.949 93.167C255.123 92.9937 255.209 92.699 255.209 92.283V87.486ZM258.686 85.887L259.102 85.133H259.492C259.396 84.9597 259.349 84.782 259.349 84.6C259.349 84.3227 259.448 84.0843 259.648 83.885C259.856 83.6857 260.103 83.586 260.389 83.586C260.649 83.586 260.891 83.677 261.117 83.859V84.613C260.909 84.431 260.701 84.34 260.493 84.34C260.207 84.34 260.064 84.47 260.064 84.73C260.064 84.86 260.12 84.9943 260.233 85.133H261.52L261.104 85.887H258.686ZM261.572 95C260.783 95 260.172 94.7487 259.739 94.246C259.366 93.8127 259.18 93.2537 259.18 92.569V87.473L260.818 86.615V92.491C260.818 92.829 260.887 93.0717 261.026 93.219C261.164 93.3577 261.398 93.427 261.728 93.427H262.898V95H261.572ZM270.382 93.427H271.539V95H270.213C269.589 95 269.078 94.8397 268.679 94.519C268.211 95.013 267.596 95.26 266.833 95.26C266.053 95.26 265.438 95.013 264.987 94.519C264.571 94.8397 264.055 95 263.44 95H262.114V93.427H263.284C263.613 93.427 263.847 93.3577 263.986 93.219C264.125 93.0717 264.194 92.829 264.194 92.491V92.114C264.194 91.1 264.458 90.3113 264.987 89.748C265.446 89.254 266.062 89.007 266.833 89.007C267.708 89.007 268.384 89.3277 268.861 89.969C269.26 90.515 269.459 91.23 269.459 92.114V92.491C269.459 92.829 269.528 93.0717 269.667 93.219C269.814 93.3577 270.053 93.427 270.382 93.427ZM266.833 93.687C267.492 93.687 267.821 93.1497 267.821 92.075C267.821 91.0437 267.492 90.528 266.833 90.528C266.166 90.528 265.832 91.0437 265.832 92.075C265.832 93.1497 266.166 93.687 266.833 93.687ZM273.697 87.915C273.437 87.915 273.229 87.837 273.073 87.681C272.917 87.525 272.839 87.3127 272.839 87.044C272.839 86.7927 272.917 86.589 273.073 86.433C273.229 86.277 273.437 86.199 273.697 86.199C273.957 86.199 274.161 86.277 274.308 86.433C274.464 86.5803 274.542 86.784 274.542 87.044C274.542 87.6247 274.261 87.915 273.697 87.915ZM270.759 95V93.427H271.929C272.259 93.427 272.493 93.3577 272.631 93.219C272.77 93.0717 272.839 92.829 272.839 92.491V90.086L274.477 89.228V92.569C274.477 93.3577 274.235 93.973 273.749 94.415C273.325 94.805 272.77 95 272.085 95H270.759ZM287.49 93.427H288.66V95H287.334C286.658 95 286.107 94.8093 285.683 94.428C285.206 94.8093 284.621 95 283.928 95H279.027L279.846 93.427H281.562V89.176L283.2 88.305V93.427H283.837C284.235 93.427 284.517 93.3403 284.682 93.167C284.855 92.9937 284.942 92.699 284.942 92.283V87.486L286.58 86.615V92.491C286.58 92.829 286.649 93.0717 286.788 93.219C286.926 93.3577 287.16 93.427 287.49 93.427ZM287.885 95V93.427H289.263C289.593 93.427 289.827 93.3577 289.965 93.219C290.113 93.0717 290.186 92.829 290.186 92.491V90.775L291.824 89.917V92.491C291.824 92.829 291.894 93.0717 292.032 93.219C292.171 93.3577 292.405 93.427 292.734 93.427H293.618C293.948 93.427 294.182 93.3577 294.32 93.219C294.459 93.0717 294.528 92.829 294.528 92.491V90.437L296.166 89.566V92.491C296.166 92.829 296.236 93.0717 296.374 93.219C296.522 93.3577 296.76 93.427 297.089 93.427H297.973C298.303 93.427 298.537 93.3577 298.675 93.219C298.814 93.0717 298.883 92.829 298.883 92.491V90.086L300.521 89.228V92.283C300.521 92.699 300.604 92.9937 300.768 93.167C300.942 93.3403 301.228 93.427 301.626 93.427H302.822V95H301.535C300.807 95 300.222 94.792 299.78 94.376C299.39 94.7833 298.866 94.9913 298.207 95H296.92C296.279 95 295.755 94.8093 295.347 94.428C294.975 94.8007 294.481 94.9913 293.865 95H292.578C291.937 95 291.413 94.8093 291.005 94.428C290.598 94.8093 290.074 95 289.432 95H287.885ZM302.041 95V93.427H303.978C305.503 93.427 306.716 92.972 307.618 92.062C307.028 91.0307 306.313 90.515 305.473 90.515C304.779 90.515 304.021 90.892 303.198 91.646V90.203C303.926 89.4057 304.749 89.007 305.668 89.007C306.344 89.007 307.002 89.254 307.644 89.748C308.285 90.242 308.853 90.944 309.347 91.854V92.504C308.723 93.3013 307.943 93.9167 307.007 94.35C306.079 94.7833 305.065 95 303.965 95H302.041ZM313.559 95C312.77 95 312.159 94.7487 311.726 94.246C311.353 93.8127 311.167 93.2537 311.167 92.569V87.473L312.805 86.615V92.491C312.805 92.829 312.874 93.0717 313.013 93.219C313.152 93.3577 313.386 93.427 313.715 93.427H314.885V95H313.559ZM318.729 93.427H319.899V95H318.573C317.941 95 317.416 94.831 317 94.493C316.584 94.831 316.06 95 315.427 95H314.101V93.427H315.271C315.601 93.427 315.835 93.3577 315.973 93.219C316.112 93.0717 316.181 92.829 316.181 92.491V90.086L317.819 89.228V92.491C317.819 92.829 317.889 93.0717 318.027 93.219C318.166 93.3577 318.4 93.427 318.729 93.427ZM317.078 96.183C317.338 96.183 317.542 96.2567 317.689 96.404C317.845 96.56 317.923 96.768 317.923 97.028C317.923 97.6087 317.642 97.899 317.078 97.899C316.818 97.899 316.61 97.821 316.454 97.665C316.298 97.509 316.22 97.2967 316.22 97.028C316.22 96.7767 316.298 96.573 316.454 96.417C316.61 96.261 316.818 96.183 317.078 96.183ZM319.116 95V93.427H320.286C320.615 93.427 320.849 93.3577 320.988 93.219C321.127 93.0717 321.196 92.829 321.196 92.491V90.086L322.834 89.228V92.569C322.834 93.3577 322.591 93.973 322.106 94.415C321.681 94.805 321.127 95 320.442 95H319.116ZM319.818 97.899C319.558 97.899 319.35 97.821 319.194 97.665C319.038 97.509 318.96 97.2967 318.96 97.028C318.96 96.4647 319.246 96.183 319.818 96.183C320.078 96.183 320.282 96.2567 320.429 96.404C320.585 96.56 320.663 96.768 320.663 97.028C320.663 97.6087 320.381 97.899 319.818 97.899ZM321.82 97.899C321.56 97.899 321.352 97.821 321.196 97.665C321.04 97.509 320.962 97.2967 320.962 97.028C320.962 96.4647 321.248 96.183 321.82 96.183C322.08 96.183 322.284 96.2567 322.431 96.404C322.587 96.56 322.665 96.768 322.665 97.028C322.665 97.6087 322.383 97.899 321.82 97.899Z" fill="#2D2D2D" fill-opacity="0.9"/>
<path opacity="0.3" d="M235.304 165.862H236.096V166.834H235.184C234.496 166.834 233.964 166.614 233.588 166.174C233.188 166.614 232.636 166.834 231.932 166.834H227.804L228.308 165.862H230.06V161.206L231.092 160.654V165.862H231.848C232.68 165.862 233.096 165.426 233.096 164.554V159.646L234.14 159.094V164.566C234.14 165.03 234.228 165.362 234.404 165.562C234.588 165.762 234.888 165.862 235.304 165.862ZM236.716 160.258C236.324 160.258 236.128 160.058 236.128 159.658C236.128 159.266 236.324 159.07 236.716 159.07C237.1 159.07 237.292 159.266 237.292 159.658C237.292 160.058 237.1 160.258 236.716 160.258ZM238.252 160.258C237.86 160.258 237.664 160.058 237.664 159.658C237.664 159.266 237.86 159.07 238.252 159.07C238.636 159.07 238.828 159.266 238.828 159.658C238.828 160.058 238.636 160.258 238.252 160.258ZM239.548 165.862H240.34V166.834H239.428C238.764 166.834 238.24 166.622 237.856 166.198C237.472 166.622 236.948 166.834 236.284 166.834H235.372V165.862H236.164C236.948 165.862 237.34 165.462 237.34 164.662V162.178L238.372 161.626V164.662C238.372 165.462 238.764 165.862 239.548 165.862ZM239.615 166.834V165.862H241.259C242.883 165.862 244.167 165.326 245.111 164.254C244.447 163.03 243.639 162.418 242.687 162.418C242.039 162.418 241.371 162.762 240.683 163.45V162.49C241.355 161.81 242.067 161.47 242.819 161.47C243.435 161.47 244.031 161.694 244.607 162.142C245.183 162.582 245.691 163.214 246.131 164.038V164.566C244.955 166.078 243.327 166.834 241.247 166.834H239.615ZM246.856 166.834L247.36 165.862H249.496C249.816 165.862 250.04 165.782 250.168 165.622C250.304 165.462 250.372 165.186 250.372 164.794C250.372 163.73 249.88 162.93 248.896 162.394L249.424 161.506C250.68 162.242 251.336 163.258 251.392 164.554C251.408 165.018 251.512 165.354 251.704 165.562C251.904 165.762 252.22 165.862 252.652 165.862H253.36V166.834H252.568C251.904 166.834 251.384 166.622 251.008 166.198C250.744 166.622 250.3 166.834 249.676 166.834H246.856ZM252.646 166.834V165.862H253.438C254.222 165.862 254.614 165.462 254.614 164.662V162.178L255.646 161.626V164.698C255.646 165.378 255.442 165.914 255.034 166.306C254.658 166.658 254.166 166.834 253.558 166.834H252.646ZM253.282 169.222C252.89 169.222 252.694 169.022 252.694 168.622C252.694 168.23 252.89 168.034 253.282 168.034C253.666 168.034 253.858 168.23 253.858 168.622C253.858 169.022 253.666 169.222 253.282 169.222ZM254.806 169.222C254.414 169.222 254.218 169.022 254.218 168.622C254.218 168.23 254.414 168.034 254.806 168.034C255.19 168.034 255.382 168.23 255.382 168.622C255.382 169.022 255.19 169.222 254.806 169.222ZM265.053 159.646L266.097 159.094V164.566C266.097 165.278 265.885 165.842 265.461 166.258C265.061 166.642 264.537 166.834 263.889 166.834H259.761L260.265 165.862H262.017V161.206L263.049 160.654V165.862H263.805C264.637 165.862 265.053 165.426 265.053 164.554V159.646ZM267.618 158.926L267.894 158.41H268.218C268.138 158.266 268.098 158.118 268.098 157.966C268.098 157.726 268.186 157.522 268.362 157.354C268.538 157.178 268.746 157.09 268.986 157.09C269.186 157.09 269.378 157.154 269.562 157.282V157.81C269.386 157.674 269.218 157.606 269.058 157.606C268.762 157.606 268.614 157.738 268.614 158.002C268.614 158.138 268.67 158.274 268.782 158.41H269.874L269.598 158.926H267.618ZM268.254 166.834V160.126L269.286 159.574V166.834H268.254ZM277.045 165.862V166.834H275.557C275.525 167.522 275.229 168.09 274.669 168.538C274.197 168.906 273.661 169.09 273.061 169.09C272.565 169.09 272.097 168.974 271.657 168.742V167.83C272.081 168.054 272.501 168.166 272.917 168.166C273.341 168.166 273.709 168.034 274.021 167.77C274.341 167.506 274.505 167.19 274.513 166.822C274.097 166.806 273.789 166.79 273.589 166.774C272.725 166.726 272.073 166.434 271.633 165.898C271.265 165.45 271.081 164.87 271.081 164.158C271.081 163.286 271.313 162.606 271.777 162.118C272.193 161.686 272.741 161.47 273.421 161.47C274.133 161.47 274.681 161.682 275.065 162.106C275.393 162.482 275.557 162.974 275.557 163.582V165.862H277.045ZM274.513 163.654C274.513 162.838 274.149 162.43 273.421 162.43C273.005 162.43 272.681 162.582 272.449 162.886C272.217 163.182 272.101 163.598 272.101 164.134C272.101 165.182 272.613 165.738 273.637 165.802C273.829 165.826 274.121 165.846 274.513 165.862V163.654ZM276.329 166.834V165.862H276.965C277.797 165.862 278.213 165.426 278.213 164.554V159.646L279.257 159.094V164.566C279.257 165.278 279.045 165.842 278.621 166.258C278.221 166.642 277.697 166.834 277.049 166.834H276.329ZM281.426 163.378C281.426 163.37 281.426 163.362 281.426 163.354C281.442 162.954 281.654 162.754 282.062 162.754C282.486 162.754 282.698 162.962 282.698 163.378C282.698 163.802 282.486 164.014 282.062 164.014C281.638 164.014 281.426 163.802 281.426 163.378ZM281.426 166.258C281.426 166.25 281.426 166.242 281.426 166.234C281.442 165.834 281.654 165.634 282.062 165.634C282.486 165.634 282.698 165.842 282.698 166.258C282.698 166.682 282.486 166.894 282.062 166.894C281.638 166.894 281.426 166.682 281.426 166.258ZM291.62 159.646L292.664 159.094V164.566C292.664 165.278 292.452 165.842 292.028 166.258C291.628 166.642 291.104 166.834 290.456 166.834H286.328L286.832 165.862H288.584V161.206L289.616 160.654V165.862H290.372C291.204 165.862 291.62 165.426 291.62 164.554V159.646ZM296.908 166.834C296.212 166.834 295.676 166.61 295.3 166.162C294.98 165.778 294.82 165.29 294.82 164.698V159.646L295.852 159.094V164.662C295.852 165.462 296.244 165.862 297.028 165.862H297.82V166.834H296.908ZM298.439 160.258C298.047 160.258 297.851 160.058 297.851 159.658C297.851 159.266 298.047 159.07 298.439 159.07C298.823 159.07 299.015 159.266 299.015 159.658C299.015 160.058 298.823 160.258 298.439 160.258ZM299.975 160.258C299.583 160.258 299.387 160.058 299.387 159.658C299.387 159.266 299.583 159.07 299.975 159.07C300.359 159.07 300.551 159.266 300.551 159.658C300.551 160.058 300.359 160.258 299.975 160.258ZM301.271 165.862H302.063V166.834H301.151C300.487 166.834 299.963 166.622 299.579 166.198C299.195 166.622 298.671 166.834 298.007 166.834H297.095V165.862H297.887C298.671 165.862 299.063 165.462 299.063 164.662V162.178L300.095 161.626V164.662C300.095 165.462 300.487 165.862 301.271 165.862ZM301.337 166.834V165.862H302.417C303.193 165.862 303.581 165.462 303.581 164.662V162.982L304.613 162.43V164.662C304.613 165.462 305.005 165.862 305.789 165.862H306.341C307.125 165.862 307.517 165.462 307.517 164.662V162.574L308.549 162.034V164.662C308.549 165.462 308.937 165.862 309.713 165.862H310.277C311.061 165.862 311.453 165.462 311.453 164.662V162.178L312.485 161.626V164.698C312.485 165.378 312.281 165.91 311.873 166.294C311.513 166.646 311.033 166.826 310.433 166.834H309.605C308.901 166.834 308.377 166.598 308.033 166.126C307.689 166.59 307.177 166.826 306.497 166.834H305.669C304.981 166.834 304.457 166.598 304.097 166.126C303.753 166.598 303.229 166.834 302.525 166.834H301.337ZM316.736 166.834C316.04 166.834 315.504 166.61 315.128 166.162C314.808 165.778 314.648 165.29 314.648 164.698V159.646L315.68 159.094V164.662C315.68 165.462 316.072 165.862 316.856 165.862H317.648V166.834H316.736ZM320.055 160.258C319.663 160.258 319.467 160.058 319.467 159.658C319.467 159.266 319.663 159.07 320.055 159.07C320.439 159.07 320.631 159.266 320.631 159.658C320.631 160.058 320.439 160.258 320.055 160.258ZM321.579 160.258C321.187 160.258 320.991 160.058 320.991 159.658C320.991 159.266 321.187 159.07 321.579 159.07C321.963 159.07 322.155 159.266 322.155 159.658C322.155 160.058 321.963 160.258 321.579 160.258ZM316.923 166.834V165.862H319.083C318.715 165.454 318.531 164.886 318.531 164.158C318.531 163.286 318.759 162.606 319.215 162.118C319.615 161.686 320.147 161.47 320.811 161.47C321.491 161.47 322.019 161.682 322.395 162.106C322.715 162.482 322.875 162.974 322.875 163.582V164.722C322.867 165.386 322.671 165.91 322.287 166.294C321.911 166.654 321.411 166.834 320.787 166.834H316.923ZM321.843 163.63C321.843 162.83 321.499 162.43 320.811 162.43C320.419 162.43 320.111 162.582 319.887 162.886C319.663 163.182 319.551 163.598 319.551 164.134C319.551 164.662 319.659 165.082 319.875 165.394C320.091 165.706 320.379 165.862 320.739 165.862C321.475 165.862 321.843 165.478 321.843 164.71V163.63Z" fill="#2D2D2D" fill-opacity="0.7"/>
<path opacity="0.7" d="M89.2913 114.42C88.9713 114.42 88.8113 114.252 88.8113 113.916C88.8113 113.596 88.9713 113.436 89.2913 113.436C89.6113 113.436 89.7713 113.596 89.7713 113.916C89.7713 114.252 89.6113 114.42 89.2913 114.42ZM90.6713 114.42C90.3433 114.42 90.1793 114.252 90.1793 113.916C90.1793 113.596 90.3433 113.436 90.6713 113.436C90.9833 113.436 91.1393 113.596 91.1393 113.916C91.1393 114.252 90.9833 114.42 90.6713 114.42ZM95.6993 119.256H96.1193V120H95.6033C94.8833 120 94.3433 119.756 93.9833 119.268C93.6073 119.756 93.0593 120 92.3393 120H88.0553C87.4633 120 86.9913 119.816 86.6393 119.448C86.2873 119.072 86.1113 118.568 86.1113 117.936V116.364L86.9153 115.944V117.84C86.9153 118.784 87.3553 119.256 88.2353 119.256H92.2553C93.1353 119.256 93.5753 118.784 93.5753 117.84V115.284L94.3793 114.864V117.888C94.3793 118.8 94.8193 119.256 95.6993 119.256ZM101.778 119.256V120H95.6339V119.256H97.6499C97.1459 118.744 96.8939 118.064 96.8939 117.216C96.8939 116.408 97.1699 115.768 97.7219 115.296C98.1619 114.92 98.6779 114.728 99.2699 114.72C100.094 114.72 100.738 115.044 101.202 115.692V116.484C100.722 115.796 100.106 115.452 99.3539 115.452H99.3179C98.8379 115.452 98.4459 115.616 98.1419 115.944C97.8459 116.272 97.6979 116.704 97.6979 117.24C97.6979 117.856 97.8819 118.348 98.2499 118.716C98.6019 119.076 99.0739 119.256 99.6659 119.256H101.778ZM102.495 120L102.879 119.256H105.135C105.503 119.256 105.759 119.164 105.903 118.98C106.055 118.796 106.131 118.476 106.131 118.02C106.131 116.852 105.619 115.976 104.595 115.392L104.979 114.732C106.283 115.492 106.935 116.592 106.935 118.032C106.935 119.344 106.379 120 105.267 120H102.495ZM114.908 114.42C114.588 114.42 114.428 114.252 114.428 113.916C114.428 113.596 114.588 113.436 114.908 113.436C115.228 113.436 115.388 113.596 115.388 113.916C115.388 114.252 115.228 114.42 114.908 114.42ZM116.288 114.42C115.96 114.42 115.796 114.252 115.796 113.916C115.796 113.596 115.96 113.436 116.288 113.436C116.6 113.436 116.756 113.596 116.756 113.916C116.756 114.252 116.6 114.42 116.288 114.42ZM121.316 119.256H121.736V120H121.22C120.5 120 119.96 119.756 119.6 119.268C119.224 119.756 118.676 120 117.956 120H113.672C113.08 120 112.608 119.816 112.256 119.448C111.904 119.072 111.728 118.568 111.728 117.936V116.364L112.532 115.944V117.84C112.532 118.784 112.972 119.256 113.852 119.256H117.872C118.752 119.256 119.192 118.784 119.192 117.84V115.284L119.996 114.864V117.888C119.996 118.8 120.436 119.256 121.316 119.256ZM121.251 120V119.256H122.595C124.339 119.256 125.699 118.664 126.675 117.48C125.963 116.12 125.103 115.44 124.095 115.44C123.407 115.44 122.735 115.788 122.079 116.484V115.692C122.735 115.044 123.419 114.72 124.131 114.72H124.155C125.411 114.72 126.499 115.568 127.419 117.264V117.756C126.251 119.252 124.639 120 122.583 120H121.251ZM128.136 120L128.52 119.256H130.776C131.144 119.256 131.4 119.164 131.544 118.98C131.696 118.796 131.772 118.476 131.772 118.02C131.772 116.844 131.256 115.968 130.224 115.392L130.62 114.732C131.892 115.468 132.54 116.504 132.564 117.84C132.572 118.784 133.032 119.256 133.944 119.256H134.316V120H133.86C133.164 120 132.632 119.768 132.264 119.304C131.992 119.768 131.54 120 130.908 120H128.136ZM134.071 120V119.256H134.491C135.371 119.256 135.811 118.8 135.811 117.888V115.284L136.615 114.864V117.912C136.615 118.584 136.419 119.108 136.027 119.484C135.667 119.828 135.187 120 134.587 120H134.071ZM134.467 122.244C134.139 122.244 133.975 122.076 133.975 121.74C133.975 121.42 134.139 121.26 134.467 121.26C134.779 121.26 134.935 121.42 134.935 121.74C134.935 122.076 134.779 122.244 134.467 122.244ZM135.835 122.244C135.507 122.244 135.343 122.076 135.343 121.74C135.343 121.42 135.507 121.26 135.835 121.26C136.147 121.26 136.303 121.42 136.303 121.74C136.303 122.076 136.147 122.244 135.835 122.244ZM140.803 120C140.123 120 139.599 119.78 139.231 119.34C138.927 118.964 138.775 118.488 138.775 117.912V112.68L139.579 112.26V117.888C139.579 118.8 140.019 119.256 140.899 119.256H141.319V120H140.803ZM141.799 113.28C141.471 113.28 141.307 113.112 141.307 112.776C141.307 112.456 141.471 112.296 141.799 112.296C142.111 112.296 142.267 112.456 142.267 112.776C142.267 113.112 142.111 113.28 141.799 113.28ZM143.167 113.28C142.839 113.28 142.675 113.112 142.675 112.776C142.675 112.456 142.839 112.296 143.167 112.296C143.479 112.296 143.635 112.456 143.635 112.776C143.635 113.112 143.479 113.28 143.167 113.28ZM141.079 120V119.256H141.499C142.379 119.256 142.819 118.8 142.819 117.888V115.284L143.623 114.864V117.912C143.623 118.584 143.427 119.108 143.035 119.484C142.675 119.828 142.195 120 141.595 120H141.079ZM153.046 112.68L153.838 112.26V117.852C153.838 118.532 153.638 119.068 153.238 119.46C152.87 119.82 152.378 120 151.762 120H147.826L148.21 119.256H150.046V114.24L150.838 113.82V119.256H151.678C152.59 119.256 153.046 118.784 153.046 117.84V112.68ZM151.666 112.56C151.426 112.944 151.162 113.136 150.874 113.136C150.69 113.136 150.474 113.052 150.226 112.884C150.05 112.764 149.914 112.704 149.818 112.704C149.674 112.704 149.51 112.832 149.326 113.088L149.014 112.86C149.262 112.468 149.526 112.272 149.806 112.272C149.966 112.272 150.158 112.348 150.382 112.5C150.574 112.636 150.734 112.704 150.862 112.704C150.99 112.704 151.154 112.58 151.354 112.332L151.666 112.56ZM168.221 112.428C167.925 112.428 167.777 112.276 167.777 111.972C167.777 111.684 167.925 111.54 168.221 111.54C168.509 111.54 168.653 111.684 168.653 111.972C168.653 112.276 168.509 112.428 168.221 112.428ZM167.537 113.676C167.217 113.676 167.057 113.512 167.057 113.184C167.057 112.856 167.217 112.692 167.537 112.692C167.857 112.692 168.017 112.856 168.017 113.184C168.017 113.512 167.857 113.676 167.537 113.676ZM168.425 113.184C168.425 112.856 168.589 112.692 168.917 112.692C169.229 112.692 169.385 112.856 169.385 113.184C169.385 113.512 169.229 113.676 168.917 113.676C168.589 113.676 168.425 113.512 168.425 113.184ZM171.737 115.284L172.541 114.864V117.912C172.541 118.576 172.341 119.1 171.941 119.484C171.581 119.828 171.105 120 170.513 120H169.877C169.149 120 168.605 119.752 168.245 119.256C167.885 119.752 167.341 120 166.613 120H165.977C165.505 120 165.093 119.884 164.741 119.652C164.685 120.492 164.349 121.152 163.733 121.632C163.189 122.064 162.501 122.28 161.669 122.28C160.653 122.28 159.865 121.92 159.305 121.2C158.865 120.648 158.645 119.988 158.645 119.22C158.645 118.532 158.821 117.94 159.173 117.444L159.953 117.288C159.569 117.872 159.377 118.496 159.377 119.16C159.377 119.864 159.605 120.444 160.061 120.9C160.485 121.324 161.021 121.536 161.669 121.536C162.429 121.536 163.017 121.312 163.433 120.864C163.777 120.496 163.949 120.012 163.949 119.412V116.16L164.753 115.74V117.888C164.753 118.8 165.197 119.256 166.085 119.256H166.517C167.405 119.256 167.849 118.8 167.849 117.888V115.728L168.641 115.296V117.888C168.641 118.8 169.085 119.256 169.973 119.256H170.417C171.297 119.256 171.737 118.8 171.737 117.888V115.284ZM176.733 120C176.053 120 175.529 119.78 175.161 119.34C174.857 118.964 174.705 118.488 174.705 117.912V112.68L175.509 112.26V117.888C175.509 118.8 175.949 119.256 176.829 119.256H177.249V120H176.733ZM180.117 112.836L179.889 113.256H178.041L178.269 112.836H178.569C178.497 112.692 178.461 112.548 178.461 112.404C178.461 112.18 178.545 111.984 178.713 111.816C178.881 111.648 179.077 111.564 179.301 111.564C179.485 111.564 179.661 111.62 179.829 111.732V112.176C179.669 112.064 179.513 112.008 179.361 112.008C179.233 112.008 179.121 112.048 179.025 112.128C178.937 112.208 178.893 112.304 178.893 112.416C178.893 112.56 178.953 112.7 179.073 112.836H180.117ZM180.873 119.256H181.293V120H180.777C180.057 120 179.517 119.756 179.157 119.268C178.781 119.756 178.237 120 177.525 120H177.009V119.256H177.429C178.309 119.256 178.749 118.8 178.749 117.888V115.284L179.553 114.864V117.888C179.553 118.8 179.993 119.256 180.873 119.256ZM187.196 119.256V120H181.052V119.256H183.068C182.564 118.744 182.312 118.064 182.312 117.216C182.312 116.408 182.588 115.768 183.14 115.296C183.58 114.92 184.096 114.728 184.688 114.72C185.512 114.72 186.156 115.044 186.62 115.692V116.484C186.14 115.796 185.524 115.452 184.772 115.452H184.736C184.256 115.452 183.864 115.616 183.56 115.944C183.264 116.272 183.116 116.704 183.116 117.24C183.116 117.856 183.3 118.348 183.668 118.716C184.02 119.076 184.492 119.256 185.084 119.256H187.196ZM190.121 113.22C189.801 113.22 189.641 113.052 189.641 112.716C189.641 112.396 189.801 112.236 190.121 112.236C190.441 112.236 190.601 112.396 190.601 112.716C190.601 113.052 190.441 113.22 190.121 113.22ZM191.489 113.22C191.169 113.22 191.009 113.052 191.009 112.716C191.009 112.396 191.169 112.236 191.489 112.236C191.809 112.236 191.969 112.396 191.969 112.716C191.969 113.052 191.809 113.22 191.489 113.22ZM190.829 120C190.117 120 189.561 119.764 189.161 119.292C188.825 118.884 188.657 118.356 188.657 117.708C188.657 116.228 189.401 115.232 190.889 114.72C192.377 115.232 193.121 116.228 193.121 117.708C193.121 118.452 192.901 119.032 192.461 119.448C192.077 119.816 191.573 120 190.949 120H190.829ZM190.793 119.256H190.985C191.401 119.256 191.729 119.12 191.969 118.848C192.209 118.568 192.329 118.188 192.329 117.708C192.329 116.644 191.849 115.892 190.889 115.452C189.929 115.892 189.449 116.644 189.449 117.708C189.449 118.18 189.569 118.556 189.809 118.836C190.049 119.116 190.377 119.256 190.793 119.256ZM205.108 113.316C204.78 113.316 204.616 113.148 204.616 112.812C204.616 112.492 204.78 112.332 205.108 112.332C205.42 112.332 205.576 112.492 205.576 112.812C205.576 113.148 205.42 113.316 205.108 113.316ZM206.296 119.256H208.396V120H205.78C205.508 120 205.26 119.972 205.036 119.916C204.812 119.972 204.564 120 204.292 120H199.84C199.248 120 198.776 119.816 198.424 119.448C198.072 119.072 197.896 118.568 197.896 117.936V116.364L198.7 115.944V117.84C198.7 118.784 199.14 119.256 200.02 119.256H203.776C203.152 118.68 202.84 117.988 202.84 117.18C202.84 116.404 203.056 115.788 203.488 115.332C203.88 114.924 204.396 114.72 205.036 114.72C205.764 114.72 206.328 114.984 206.728 115.512C207.064 115.952 207.232 116.508 207.232 117.18C207.232 117.988 206.92 118.68 206.296 119.256ZM205.084 119.148C205.492 119.004 205.824 118.748 206.08 118.38C206.336 118.012 206.464 117.608 206.464 117.168C206.464 116.64 206.336 116.224 206.08 115.92C205.824 115.608 205.476 115.452 205.036 115.452C204.596 115.452 204.244 115.608 203.98 115.92C203.724 116.224 203.596 116.636 203.596 117.156C203.596 117.596 203.724 118.004 203.98 118.38C204.244 118.748 204.58 119.004 204.988 119.148L205.036 119.16L205.06 119.148H205.084ZM208.157 120V119.256H208.577C209.457 119.256 209.897 118.8 209.897 117.888V115.284L210.701 114.864V117.912C210.701 118.584 210.505 119.108 210.113 119.484C209.753 119.828 209.273 120 208.673 120H208.157ZM208.553 122.244C208.225 122.244 208.061 122.076 208.061 121.74C208.061 121.42 208.225 121.26 208.553 121.26C208.865 121.26 209.021 121.42 209.021 121.74C209.021 122.076 208.865 122.244 208.553 122.244ZM209.921 122.244C209.593 122.244 209.429 122.076 209.429 121.74C209.429 121.42 209.593 121.26 209.921 121.26C210.233 121.26 210.389 121.42 210.389 121.74C210.389 122.076 210.233 122.244 209.921 122.244ZM222.812 119.256H223.232V120H222.8C222.112 120 221.564 119.916 221.156 119.748C220.748 119.58 220.372 119.284 220.028 118.86C219.748 118.964 219.32 119.072 218.744 119.184C217.8 119.368 217.164 119.624 216.836 119.952C216.444 120.344 216.248 120.896 216.248 121.608C216.248 122.296 216.476 122.84 216.932 123.24C217.316 123.584 217.808 123.756 218.408 123.756H218.432C219.344 123.756 220.076 123.552 220.628 123.144V123.876C219.972 124.292 219.228 124.5 218.396 124.5C217.5 124.5 216.78 124.2 216.236 123.6C215.748 123.064 215.504 122.392 215.504 121.584C215.504 120.72 215.768 120.012 216.296 119.46C216.536 119.212 216.812 119.024 217.124 118.896C217.436 118.76 217.912 118.632 218.552 118.512C219.208 118.384 219.688 118.252 219.992 118.116C220.296 117.972 220.56 117.764 220.784 117.492C220.088 116.124 219.228 115.44 218.204 115.44C217.508 115.44 216.836 115.788 216.188 116.484V115.692C216.844 115.044 217.528 114.72 218.24 114.72H218.264C219.52 114.72 220.608 115.568 221.528 117.264V117.756C221.288 118.084 220.984 118.356 220.616 118.572C220.872 118.828 221.16 119.008 221.48 119.112C221.808 119.208 222.252 119.256 222.812 119.256ZM217.976 121.584C217.976 121.28 218.128 121.128 218.432 121.128C218.728 121.128 218.876 121.28 218.876 121.584C218.876 121.896 218.728 122.052 218.432 122.052C218.128 122.052 217.976 121.896 217.976 121.584ZM230.295 119.256H230.703V120H230.187C229.459 120 228.915 119.748 228.555 119.244C228.155 119.908 227.547 120.24 226.731 120.24C225.907 120.24 225.299 119.912 224.907 119.256C224.539 119.752 223.991 120 223.263 120H222.747V119.256H223.167C224.047 119.256 224.487 118.8 224.487 117.888V117.48C224.487 116.56 224.711 115.856 225.159 115.368C225.551 114.936 226.075 114.72 226.731 114.72C227.483 114.72 228.055 115 228.447 115.56C228.791 116.04 228.963 116.68 228.963 117.48V117.888C228.963 118.8 229.407 119.256 230.295 119.256ZM226.731 119.496C227.171 119.496 227.519 119.316 227.775 118.956C228.031 118.588 228.159 118.092 228.159 117.468C228.159 116.124 227.683 115.452 226.731 115.452C225.771 115.452 225.291 116.124 225.291 117.468C225.291 118.82 225.771 119.496 226.731 119.496ZM234.322 119.256H234.742V120H234.226C233.506 120 232.966 119.756 232.606 119.268C232.23 119.756 231.686 120 230.974 120H230.458V119.256H230.878C231.758 119.256 232.198 118.8 232.198 117.888V115.284L233.002 114.864V117.888C233.002 118.8 233.442 119.256 234.322 119.256ZM231.598 121.26C231.918 121.26 232.078 121.424 232.078 121.752C232.078 122.08 231.918 122.244 231.598 122.244C231.278 122.244 231.118 122.08 231.118 121.752C231.118 121.424 231.278 121.26 231.598 121.26ZM232.966 121.26C233.286 121.26 233.446 121.424 233.446 121.752C233.446 122.08 233.286 122.244 232.966 122.244C232.646 122.244 232.486 122.08 232.486 121.752C232.486 121.424 232.646 121.26 232.966 121.26ZM240.645 119.256V120H234.501V119.256H236.517C236.013 118.744 235.761 118.064 235.761 117.216C235.761 116.408 236.037 115.768 236.589 115.296C237.029 114.92 237.545 114.728 238.137 114.72C238.961 114.72 239.605 115.044 240.069 115.692V116.484C239.589 115.796 238.973 115.452 238.221 115.452H238.185C237.705 115.452 237.313 115.616 237.009 115.944C236.713 116.272 236.565 116.704 236.565 117.24C236.565 117.856 236.749 118.348 237.117 118.716C237.469 119.076 237.941 119.256 238.533 119.256H240.645ZM247.233 120C246.553 120 246.029 119.78 245.661 119.34C245.357 118.964 245.205 118.488 245.205 117.912V112.68L246.009 112.26V117.888C246.009 118.8 246.449 119.256 247.329 119.256H247.749V120H247.233ZM245.109 122.832L245.337 122.4H245.649C245.569 122.256 245.529 122.112 245.529 121.968C245.529 121.744 245.613 121.548 245.781 121.38C245.949 121.22 246.149 121.14 246.381 121.14C246.557 121.14 246.729 121.192 246.897 121.296V121.752C246.737 121.632 246.581 121.572 246.429 121.572C246.301 121.572 246.193 121.612 246.105 121.692C246.017 121.78 245.973 121.88 245.973 121.992C245.973 122.128 246.029 122.264 246.141 122.4H247.197L246.969 122.832H245.109ZM247.509 120V119.256H248.241C249.129 119.256 249.573 118.8 249.573 117.888V116.16L250.377 115.74V117.888C250.377 118.8 250.817 119.256 251.697 119.256H252.141C253.021 119.256 253.461 118.8 253.461 117.888V115.728L254.265 115.296V117.888C254.265 118.8 254.709 119.256 255.597 119.256H256.029C256.917 119.256 257.361 118.8 257.361 117.888V115.284L258.165 114.864V117.84C258.165 118.784 258.621 119.256 259.533 119.256H260.229V120H259.449C258.689 120 258.133 119.732 257.781 119.196C257.429 119.732 256.885 120 256.149 120H255.489C254.745 120 254.205 119.736 253.869 119.208C253.525 119.736 252.989 120 252.261 120H251.601C250.857 120 250.313 119.736 249.969 119.208C249.633 119.736 249.093 120 248.349 120H247.509ZM260.709 113.28C260.381 113.28 260.217 113.112 260.217 112.776C260.217 112.456 260.381 112.296 260.709 112.296C261.021 112.296 261.177 112.456 261.177 112.776C261.177 113.112 261.021 113.28 260.709 113.28ZM262.077 113.28C261.749 113.28 261.585 113.112 261.585 112.776C261.585 112.456 261.749 112.296 262.077 112.296C262.389 112.296 262.545 112.456 262.545 112.776C262.545 113.112 262.389 113.28 262.077 113.28ZM259.989 120V119.256H260.409C261.289 119.256 261.729 118.8 261.729 117.888V115.284L262.533 114.864V117.912C262.533 118.584 262.337 119.108 261.945 119.484C261.585 119.828 261.105 120 260.505 120H259.989ZM266.265 119.424C266.265 120.88 265.729 121.792 264.657 122.16C264.401 122.248 264.129 122.292 263.841 122.292C263.377 122.292 262.929 122.18 262.497 121.956V121.248C262.905 121.472 263.321 121.584 263.745 121.584C264.081 121.584 264.377 121.508 264.633 121.356C265.193 121.02 265.473 120.392 265.473 119.472V115.284L266.265 114.864V119.424ZM270.448 120C269.768 120 269.244 119.78 268.876 119.34C268.572 118.964 268.42 118.488 268.42 117.912V112.68L269.224 112.26V117.888C269.224 118.8 269.664 119.256 270.544 119.256H270.964V120H270.448ZM271.936 113.316C271.616 113.316 271.456 113.152 271.456 112.824C271.456 112.496 271.616 112.332 271.936 112.332C272.256 112.332 272.416 112.496 272.416 112.824C272.416 113.152 272.256 113.316 271.936 113.316ZM273.304 113.316C272.984 113.316 272.824 113.152 272.824 112.824C272.824 112.496 272.984 112.332 273.304 112.332C273.624 112.332 273.784 112.496 273.784 112.824C273.784 113.152 273.624 113.316 273.304 113.316ZM274.588 119.256H275.008V120H274.492C273.772 120 273.232 119.756 272.872 119.268C272.496 119.756 271.952 120 271.24 120H270.724V119.256H271.144C272.024 119.256 272.464 118.8 272.464 117.888V115.284L273.268 114.864V117.888C273.268 118.8 273.708 119.256 274.588 119.256ZM278.631 119.256H279.051V120H278.535C277.815 120 277.275 119.756 276.915 119.268C276.539 119.756 275.995 120 275.283 120H274.767V119.256H275.187C276.067 119.256 276.507 118.8 276.507 117.888V115.284L277.311 114.864V117.888C277.311 118.8 277.751 119.256 278.631 119.256ZM275.907 121.26C276.227 121.26 276.387 121.424 276.387 121.752C276.387 122.08 276.227 122.244 275.907 122.244C275.587 122.244 275.427 122.08 275.427 121.752C275.427 121.424 275.587 121.26 275.907 121.26ZM277.275 121.26C277.595 121.26 277.755 121.424 277.755 121.752C277.755 122.08 277.595 122.244 277.275 122.244C276.955 122.244 276.795 122.08 276.795 121.752C276.795 121.424 276.955 121.26 277.275 121.26ZM286.394 119.256H286.814V120H286.382C285.718 120 285.186 119.924 284.786 119.772C284.394 119.62 284.03 119.352 283.694 118.968C282.67 119.656 281.486 120 280.142 120H278.81V119.256H280.154C281.898 119.256 283.258 118.664 284.234 117.48C283.522 116.12 282.662 115.44 281.654 115.44C280.966 115.44 280.294 115.788 279.638 116.484V115.692C280.294 115.044 280.978 114.72 281.69 114.72H281.714C282.97 114.72 284.058 115.568 284.978 117.264V117.756C284.73 118.076 284.466 118.352 284.186 118.584C284.442 118.832 284.73 119.008 285.05 119.112C285.378 119.208 285.826 119.256 286.394 119.256ZM281.978 121.26C282.29 121.26 282.446 121.42 282.446 121.74C282.446 122.076 282.29 122.244 281.978 122.244C281.65 122.244 281.486 122.076 281.486 121.74C281.486 121.42 281.65 121.26 281.978 121.26ZM286.579 120V119.256H286.999C287.879 119.256 288.319 118.8 288.319 117.888V115.284L289.123 114.864V117.912C289.123 118.584 288.927 119.108 288.535 119.484C288.175 119.828 287.695 120 287.095 120H286.579ZM286.975 122.244C286.647 122.244 286.483 122.076 286.483 121.74C286.483 121.42 286.647 121.26 286.975 121.26C287.287 121.26 287.443 121.42 287.443 121.74C287.443 122.076 287.287 122.244 286.975 122.244ZM288.343 122.244C288.015 122.244 287.851 122.076 287.851 121.74C287.851 121.42 288.015 121.26 288.343 121.26C288.655 121.26 288.811 121.42 288.811 121.74C288.811 122.076 288.655 122.244 288.343 122.244ZM293.311 120C292.631 120 292.107 119.78 291.739 119.34C291.435 118.964 291.283 118.488 291.283 117.912V112.68L292.087 112.26V117.888C292.087 118.8 292.527 119.256 293.407 119.256H293.827V120H293.311ZM294.307 113.28C293.979 113.28 293.815 113.112 293.815 112.776C293.815 112.456 293.979 112.296 294.307 112.296C294.619 112.296 294.775 112.456 294.775 112.776C294.775 113.112 294.619 113.28 294.307 113.28ZM295.675 113.28C295.347 113.28 295.183 113.112 295.183 112.776C295.183 112.456 295.347 112.296 295.675 112.296C295.987 112.296 296.143 112.456 296.143 112.776C296.143 113.112 295.987 113.28 295.675 113.28ZM293.587 120V119.256H294.007C294.887 119.256 295.327 118.8 295.327 117.888V115.284L296.131 114.864V117.912C296.131 118.584 295.935 119.108 295.543 119.484C295.183 119.828 294.703 120 294.103 120H293.587ZM303.922 114.504C303.594 114.504 303.43 114.336 303.43 114C303.43 113.68 303.594 113.52 303.922 113.52C304.234 113.52 304.39 113.68 304.39 114C304.39 114.336 304.234 114.504 303.922 114.504ZM308.362 119.256H308.782V120H308.266C307.77 120 307.358 119.884 307.03 119.652C306.974 120.492 306.638 121.152 306.022 121.632C305.478 122.064 304.79 122.28 303.958 122.28C302.942 122.28 302.154 121.92 301.594 121.2C301.154 120.648 300.934 119.988 300.934 119.22C300.934 118.532 301.11 117.94 301.462 117.444L302.242 117.288C301.858 117.872 301.666 118.496 301.666 119.16C301.666 119.864 301.894 120.444 302.35 120.9C302.774 121.324 303.31 121.536 303.958 121.536C304.718 121.536 305.306 121.312 305.722 120.864C306.066 120.496 306.238 120.012 306.238 119.412V115.284L307.042 114.864V117.888C307.042 118.8 307.482 119.256 308.362 119.256ZM314.888 112.428C314.6 112.428 314.456 112.276 314.456 111.972C314.456 111.684 314.6 111.54 314.888 111.54C315.176 111.54 315.32 111.684 315.32 111.972C315.32 112.276 315.176 112.428 314.888 112.428ZM314.216 113.676C313.888 113.676 313.724 113.512 313.724 113.184C313.724 112.856 313.888 112.692 314.216 112.692C314.528 112.692 314.684 112.856 314.684 113.184C314.684 113.512 314.528 113.676 314.216 113.676ZM315.584 113.676C315.264 113.676 315.104 113.512 315.104 113.184C315.104 112.856 315.264 112.692 315.584 112.692C315.904 112.692 316.064 112.856 316.064 113.184C316.064 113.512 315.904 113.676 315.584 113.676ZM308.54 120V119.256H309.272C310.16 119.256 310.604 118.8 310.604 117.888V116.16L311.408 115.74V117.888C311.408 118.8 311.848 119.256 312.728 119.256H313.172C314.052 119.256 314.492 118.8 314.492 117.888V115.728L315.296 115.296V117.888C315.296 118.8 315.74 119.256 316.628 119.256H317.06C317.948 119.256 318.392 118.8 318.392 117.888V115.284L319.196 114.864V117.912C319.196 118.576 319 119.096 318.608 119.472C318.256 119.816 317.78 119.992 317.18 120H316.52C315.776 120 315.236 119.736 314.9 119.208C314.556 119.736 314.02 120 313.292 120H312.632C311.888 120 311.344 119.736 311 119.208C310.664 119.736 310.124 120 309.38 120H308.54ZM322.925 119.424C322.925 120.88 322.389 121.792 321.317 122.16C321.061 122.248 320.789 122.292 320.501 122.292C320.037 122.292 319.589 122.18 319.157 121.956V121.248C319.565 121.472 319.981 121.584 320.405 121.584C320.741 121.584 321.037 121.508 321.293 121.356C321.853 121.02 322.133 120.392 322.133 119.472V115.284L322.925 114.864V119.424ZM288.26 133.256H288.68V134H288.164C287.428 134 286.88 133.748 286.52 133.244C286.144 133.748 285.588 134 284.852 134H280.916L281.3 133.256H283.136V128.24L283.928 127.82V133.256H284.768C285.68 133.256 286.136 132.784 286.136 131.84V126.68L286.928 126.26V128.876L286.94 128.864V131.888C286.94 132.8 287.38 133.256 288.26 133.256ZM288.442 134V133.256H289.175C290.063 133.256 290.507 132.8 290.507 131.888V130.16L291.311 129.74V131.888C291.311 132.8 291.751 133.256 292.631 133.256H293.075C293.955 133.256 294.395 132.8 294.395 131.888V129.728L295.199 129.296V131.888C295.199 132.8 295.643 133.256 296.531 133.256H296.963C297.851 133.256 298.295 132.8 298.295 131.888V129.284L299.099 128.864V131.84C299.099 132.784 299.555 133.256 300.467 133.256H301.163V134H300.383C299.623 134 299.067 133.732 298.715 133.196C298.363 133.732 297.819 134 297.083 134H296.423C295.679 134 295.139 133.736 294.803 133.208C294.459 133.736 293.923 134 293.195 134H292.535C291.791 134 291.247 133.736 290.903 133.208C290.567 133.736 290.027 134 289.283 134H288.442ZM300.923 134V133.256H302.267C304.011 133.256 305.371 132.664 306.347 131.48C305.635 130.12 304.775 129.44 303.767 129.44C303.079 129.44 302.407 129.788 301.751 130.484V129.692C302.407 129.044 303.091 128.72 303.803 128.72H303.827C305.083 128.72 306.171 129.568 307.091 131.264V131.756C305.923 133.252 304.311 134 302.255 134H300.923ZM310.796 134C310.116 134 309.592 133.78 309.224 133.34C308.92 132.964 308.768 132.488 308.768 131.912V126.68L309.572 126.26V131.888C309.572 132.8 310.012 133.256 310.892 133.256H311.312V134H310.796ZM311.071 134V133.256H311.491C312.371 133.256 312.811 132.8 312.811 131.888V129.284L313.615 128.864V131.912C313.615 132.584 313.419 133.108 313.027 133.484C312.667 133.828 312.187 134 311.587 134H311.071ZM312.667 136.244C312.339 136.244 312.175 136.076 312.175 135.74C312.175 135.42 312.339 135.26 312.667 135.26C312.979 135.26 313.135 135.42 313.135 135.74C313.135 136.076 312.979 136.244 312.667 136.244ZM317.023 127.22C316.703 127.22 316.543 127.052 316.543 126.716C316.543 126.396 316.703 126.236 317.023 126.236C317.343 126.236 317.503 126.396 317.503 126.716C317.503 127.052 317.343 127.22 317.023 127.22ZM318.391 127.22C318.071 127.22 317.911 127.052 317.911 126.716C317.911 126.396 318.071 126.236 318.391 126.236C318.711 126.236 318.871 126.396 318.871 126.716C318.871 127.052 318.711 127.22 318.391 127.22ZM317.731 134C317.019 134 316.463 133.764 316.063 133.292C315.727 132.884 315.559 132.356 315.559 131.708C315.559 130.228 316.303 129.232 317.791 128.72C319.279 129.232 320.023 130.228 320.023 131.708C320.023 132.452 319.803 133.032 319.363 133.448C318.979 133.816 318.475 134 317.851 134H317.731ZM317.695 133.256H317.887C318.303 133.256 318.631 133.12 318.871 132.848C319.111 132.568 319.231 132.188 319.231 131.708C319.231 130.644 318.751 129.892 317.791 129.452C316.831 129.892 316.351 130.644 316.351 131.708C316.351 132.18 316.471 132.556 316.711 132.836C316.951 133.116 317.279 133.256 317.695 133.256ZM322.924 133.52C322.924 133.528 322.924 133.536 322.924 133.544C322.924 133.888 322.76 134.06 322.432 134.06C322.088 134.06 321.916 133.884 321.916 133.532C321.932 133.204 322.104 133.04 322.432 133.04C322.76 133.04 322.924 133.2 322.924 133.52Z" fill="#2D2D2D" fill-opacity="0.7"/>
<path d="M296.834 38.7799H310.892V41.3358H296.834V38.7799ZM296.834 36.2239H310.892V33.668H296.834V36.2239ZM296.834 46.4477H305.78V43.8918H296.834V46.4477ZM316.016 42.4476L316.924 41.5403C317.042 41.4218 317.182 41.3278 317.337 41.2637C317.492 41.1996 317.657 41.1666 317.825 41.1666C317.992 41.1666 318.158 41.1996 318.312 41.2637C318.467 41.3278 318.607 41.4218 318.726 41.5403L319.633 42.4476C320.131 42.9461 320.131 43.7512 319.633 44.2496L318.726 45.157L316.016 42.4476ZM315.109 43.355L308.336 50.1283V52.8376H311.045L317.818 46.0643L315.109 43.355Z" fill="#F3B545"/>
<g filter="url(#filter0_d_303_649)">
<rect x="52.5796" y="214.7" width="251.943" height="50.3887" rx="6" fill="white"/>
</g>
<rect opacity="0.5" x="66" y="225" width="140.212" height="30.6714" rx="14" fill="#FCF0DB"/>
<path d="M126.084 245C125.504 245 125.058 244.813 124.744 244.44C124.478 244.12 124.344 243.713 124.344 243.22V239.01L125.204 238.55V243.19C125.204 243.857 125.531 244.19 126.184 244.19H126.844V245H126.084ZM128.14 239.45C127.814 239.45 127.65 239.283 127.65 238.95C127.65 238.623 127.814 238.46 128.14 238.46C128.46 238.46 128.62 238.623 128.62 238.95C128.62 239.283 128.46 239.45 128.14 239.45ZM129.72 244.19H130.38V245H129.62C129.067 245 128.63 244.823 128.31 244.47C127.99 244.823 127.554 245 127 245H126.24V244.19H126.9C127.554 244.19 127.88 243.857 127.88 243.19V241.12L128.74 240.66V243.19C128.74 243.857 129.067 244.19 129.72 244.19ZM135.275 238.53C134.982 238.53 134.835 238.38 134.835 238.08C134.835 237.787 134.982 237.64 135.275 237.64C135.569 237.64 135.715 237.787 135.715 238.08C135.715 238.38 135.569 238.53 135.275 238.53ZM134.645 239.72C134.319 239.72 134.155 239.553 134.155 239.22C134.155 238.893 134.319 238.73 134.645 238.73C134.965 238.73 135.125 238.893 135.125 239.22C135.125 239.553 134.965 239.72 134.645 239.72ZM135.915 239.72C135.589 239.72 135.425 239.553 135.425 239.22C135.425 238.893 135.589 238.73 135.915 238.73C136.235 238.73 136.395 238.893 136.395 239.22C136.395 239.553 136.235 239.72 135.915 239.72ZM129.775 245V244.19H130.675C131.322 244.19 131.645 243.857 131.645 243.19V241.79L132.505 241.33V243.19C132.505 243.857 132.832 244.19 133.485 244.19H133.945C134.599 244.19 134.925 243.857 134.925 243.19V241.45L135.785 241V243.19C135.785 243.857 136.109 244.19 136.755 244.19H137.225C137.879 244.19 138.205 243.857 138.205 243.19V241.12L139.065 240.66V243.22C139.065 243.787 138.895 244.23 138.555 244.55C138.255 244.843 137.855 244.993 137.355 245H136.665C136.079 245 135.642 244.803 135.355 244.41C135.069 244.797 134.642 244.993 134.075 245H133.385C132.812 245 132.375 244.803 132.075 244.41C131.789 244.803 131.352 245 130.765 245H129.775ZM140.868 245V239.01L141.728 238.55V245H140.868ZM142.974 245.58V244.75C143.214 244.57 143.544 244.44 143.964 244.36C143.664 243.907 143.514 243.427 143.514 242.92C143.514 242.287 143.698 241.777 144.064 241.39C144.398 241.03 144.831 240.85 145.364 240.85C145.944 240.85 146.424 241.083 146.804 241.55V242.38C146.378 241.887 145.911 241.64 145.404 241.64C145.091 241.64 144.841 241.753 144.654 241.98C144.468 242.2 144.374 242.5 144.374 242.88C144.374 243.427 144.564 243.88 144.944 244.24C145.118 244.227 145.241 244.22 145.314 244.22C146.168 244.193 146.844 243.997 147.344 243.63V244.43C146.778 244.81 146.038 245 145.124 245C144.231 245 143.514 245.193 142.974 245.58Z" fill="#F3B545"/>
<path d="M262.749 230.768C263.357 229.872 264.112 229.424 265.013 229.424C265.616 229.424 266.098 229.635 266.461 230.056C266.77 230.413 266.925 230.853 266.925 231.376V231.632C266.925 232.069 266.818 232.408 266.605 232.648C266.392 232.883 266.088 233 265.693 233H260.621L260.965 232.352H262.037L262.061 232.264V228.208L262.749 227.84V230.768ZM266.229 231.6V231.376C266.229 230.96 266.101 230.629 265.845 230.384C265.626 230.171 265.352 230.064 265.021 230.064C264.472 230.064 263.976 230.312 263.533 230.808C263.202 231.181 262.941 231.648 262.749 232.208V232.352H265.637C265.866 232.352 266.021 232.299 266.101 232.192C266.186 232.085 266.229 231.888 266.229 231.6ZM271.94 232.352V233H270.948C270.927 233.459 270.73 233.837 270.356 234.136C270.042 234.381 269.684 234.504 269.284 234.504C268.954 234.504 268.642 234.427 268.348 234.272V233.664C268.631 233.813 268.911 233.888 269.188 233.888C269.471 233.888 269.716 233.8 269.924 233.624C270.138 233.448 270.247 233.237 270.252 232.992C269.975 232.981 269.77 232.971 269.636 232.96C269.06 232.928 268.626 232.733 268.332 232.376C268.087 232.077 267.964 231.691 267.964 231.216C267.964 230.635 268.119 230.181 268.428 229.856C268.706 229.568 269.071 229.424 269.524 229.424C269.999 229.424 270.364 229.565 270.62 229.848C270.839 230.099 270.948 230.427 270.948 230.832V232.352H271.94ZM270.252 230.88C270.252 230.336 270.01 230.064 269.524 230.064C269.247 230.064 269.031 230.165 268.876 230.368C268.722 230.565 268.644 230.843 268.644 231.2C268.644 231.899 268.986 232.269 269.668 232.312C269.796 232.328 269.991 232.341 270.252 232.352V230.88ZM271.463 233V232.352H271.887C272.442 232.352 272.719 232.061 272.719 231.48V228.208L273.415 227.84V231.488C273.415 231.963 273.274 232.339 272.991 232.616C272.724 232.872 272.375 233 271.943 233H271.463ZM281.16 232.352H281.688V233H281.08C280.621 233 280.267 232.853 280.016 232.56C279.749 232.853 279.381 233 278.912 233H276.16L276.496 232.352H277.664V229.248L278.352 228.88V232.352H278.856C279.411 232.352 279.688 232.061 279.688 231.48V228.208L280.384 227.84V231.488C280.384 231.797 280.443 232.019 280.56 232.152C280.683 232.285 280.883 232.352 281.16 232.352ZM282.725 228.56C282.464 228.56 282.333 228.427 282.333 228.16C282.333 227.899 282.464 227.768 282.725 227.768C282.981 227.768 283.109 227.899 283.109 228.16C283.109 228.427 282.981 228.56 282.725 228.56ZM283.989 232.352H284.517V233H283.909C283.467 233 283.117 232.859 282.861 232.576C282.605 232.859 282.256 233 281.813 233H281.205V232.352H281.733C282.256 232.352 282.517 232.085 282.517 231.552V229.896L283.205 229.528V231.552C283.205 232.085 283.467 232.352 283.989 232.352ZM286.553 232.328C286.767 231.523 287.119 230.851 287.609 230.312C288.159 229.72 288.799 229.424 289.529 229.424C290.137 229.424 290.623 229.635 290.985 230.056C291.289 230.413 291.441 230.853 291.441 231.376V231.584C291.441 232.048 291.3 232.408 291.017 232.664C290.772 232.888 290.449 233 290.049 233H286.737C286.295 233 285.945 232.859 285.689 232.576C285.433 232.859 285.084 233 284.641 233H284.033V232.352H284.561C285.084 232.352 285.345 232.085 285.345 231.552V230.432L286.033 230.064V231.552C286.033 232 286.207 232.259 286.553 232.328ZM290.753 231.52V231.376C290.753 230.96 290.625 230.629 290.369 230.384C290.145 230.171 289.868 230.064 289.537 230.064C288.972 230.064 288.463 230.325 288.009 230.848C287.663 231.248 287.396 231.749 287.209 232.352H290.009C290.505 232.352 290.753 232.075 290.753 231.52Z" fill="#2D2D2D" fill-opacity="0.9"/>
<rect x="234.25" y="239.048" width="57.5565" height="17.0265" rx="1.75" fill="white" stroke="#F6EAE0" stroke-width="0.5"/>
<path opacity="0.8" d="M259.308 248.504H259.58V249H259.236C258.762 249 258.404 248.84 258.164 248.52C257.919 248.835 257.556 248.995 257.076 249H256.06C255.474 249 255.18 249.304 255.18 249.912V251.24L254.644 251.52V249.896C254.644 249.453 254.775 249.107 255.036 248.856C255.271 248.627 255.583 248.509 255.972 248.504C255.722 248.184 255.596 247.763 255.596 247.24C255.596 246.664 255.746 246.219 256.044 245.904C256.306 245.621 256.652 245.48 257.084 245.48C257.527 245.48 257.868 245.619 258.108 245.896C258.316 246.136 258.42 246.456 258.42 246.856V247.592C258.42 248.2 258.716 248.504 259.308 248.504ZM257.884 247.624V246.904C257.884 246.28 257.618 245.968 257.084 245.968C256.78 245.968 256.543 246.08 256.372 246.304C256.207 246.528 256.124 246.837 256.124 247.232C256.124 247.632 256.204 247.944 256.364 248.168C256.524 248.392 256.746 248.504 257.028 248.504C257.599 248.504 257.884 248.211 257.884 247.624ZM259.9 244.52C259.681 244.52 259.572 244.408 259.572 244.184C259.572 243.971 259.681 243.864 259.9 243.864C260.108 243.864 260.212 243.971 260.212 244.184C260.212 244.408 260.108 244.52 259.9 244.52ZM260.812 244.52C260.593 244.52 260.484 244.408 260.484 244.184C260.484 243.971 260.593 243.864 260.812 243.864C261.02 243.864 261.124 243.971 261.124 244.184C261.124 244.408 261.02 244.52 260.812 244.52ZM259.42 249V248.504H259.7C260.287 248.504 260.58 248.2 260.58 247.592V245.856L261.116 245.576V247.608C261.116 248.056 260.985 248.405 260.724 248.656C260.484 248.885 260.164 249 259.764 249H259.42ZM266.068 248.504V249H265.22C265.215 249.352 265.1 249.661 264.876 249.928C264.657 250.2 264.372 250.379 264.02 250.464C263.892 250.501 263.753 250.52 263.604 250.52C263.295 250.52 262.993 250.445 262.7 250.296V249.824C262.977 249.973 263.252 250.048 263.524 250.048C263.743 250.048 263.935 250 264.1 249.904C264.265 249.819 264.404 249.688 264.516 249.512C264.628 249.341 264.684 249.171 264.684 249L264.004 248.976C263.412 248.949 262.969 248.763 262.676 248.416C262.436 248.123 262.316 247.731 262.316 247.24C262.316 246.664 262.465 246.219 262.764 245.904C263.031 245.621 263.388 245.48 263.836 245.48C264.3 245.48 264.655 245.619 264.9 245.896C265.113 246.136 265.22 246.456 265.22 246.856V248.504H266.068ZM264.684 246.912C264.684 246.283 264.401 245.968 263.836 245.968C263.521 245.968 263.276 246.08 263.1 246.304C262.929 246.523 262.844 246.832 262.844 247.232C262.844 248.027 263.236 248.443 264.02 248.48C264.255 248.496 264.476 248.504 264.684 248.504V246.912ZM265.904 249V248.504H266.392C266.984 248.504 267.28 248.2 267.28 247.592V246.44L267.816 246.16V247.592C267.816 248.2 268.11 248.504 268.696 248.504H268.992C269.579 248.504 269.872 248.2 269.872 247.592V246.152L270.408 245.864V247.592C270.408 248.2 270.704 248.504 271.296 248.504H271.584C272.176 248.504 272.472 248.2 272.472 247.592V245.856L273.008 245.576V247.56C273.008 248.189 273.312 248.504 273.92 248.504H274.384V249H273.864C273.358 249 272.987 248.821 272.752 248.464C272.518 248.821 272.155 249 271.664 249H271.224C270.728 249 270.368 248.824 270.144 248.472C269.915 248.824 269.558 249 269.072 249H268.632C268.136 249 267.774 248.824 267.544 248.472C267.32 248.824 266.96 249 266.464 249H265.904ZM276.073 247.2C276.697 246.053 277.523 245.48 278.553 245.48C279.15 245.48 279.625 245.685 279.977 246.096C280.275 246.448 280.425 246.883 280.425 247.4V247.68C280.425 248.56 280.041 249 279.273 249H274.225V248.504H275.577V244.12L276.073 243.84V247.2ZM279.889 247.4C279.889 246.952 279.747 246.592 279.465 246.32C279.225 246.085 278.923 245.968 278.561 245.968C277.937 245.968 277.382 246.269 276.897 246.872C276.529 247.325 276.257 247.869 276.081 248.504H279.217C279.473 248.504 279.649 248.445 279.745 248.328C279.841 248.205 279.889 247.984 279.889 247.664V247.4Z" fill="#2D2D2D" fill-opacity="0.9"/>
<path opacity="0.8" d="M241.668 244.275L243.859 246.466H239.477L241.668 244.275Z" fill="#41474B"/>
<path opacity="0.8" d="M241.668 249.752L239.477 247.562H243.859L241.668 249.752Z" fill="#41474B"/>
<defs>
<filter id="filter0_d_303_649" x="37.5796" y="211.7" width="281.943" height="80.3887" filterUnits="userSpaceOnUse" color-interpolation-filters="sRGB">
<feFlood flood-opacity="0" result="BackgroundImageFix"/>
<feColorMatrix in="SourceAlpha" type="matrix" values="0 0 0 0 0 0 0 0 0 0 0 0 0 0 0 0 0 0 127 0" result="hardAlpha"/>
<feMorphology radius="5" operator="erode" in="SourceAlpha" result="effect1_dropShadow_303_649"/>
<feOffset dy="12"/>
<feGaussianBlur stdDeviation="10"/>
<feComposite in2="hardAlpha" operator="out"/>
<feColorMatrix type="matrix" values="0 0 0 0 0.516551 0 0 0 0 0.370377 0 0 0 0 0.114572 0 0 0 0.2 0"/>
<feBlend mode="normal" in2="BackgroundImageFix" result="effect1_dropShadow_303_649"/>
<feBlend mode="normal" in="SourceGraphic" in2="effect1_dropShadow_303_649" result="shape"/>
</filter>
</defs>
</svg>
