<svg width="236" height="246" viewBox="0 0 236 246" fill="none" xmlns="http://www.w3.org/2000/svg">
<rect opacity="0.8" x="0.250977" y="0.862305" width="235.512" height="244.276" rx="15" fill="white"/>
<rect x="19.9683" y="43.583" width="154.452" height="32.8622" rx="6" fill="#F7F3F0"/>
<path d="M32.6647 62.3703C32.0283 62.3703 31.4616 62.2609 30.9644 62.0422C30.4701 61.8206 30.0795 61.5166 29.7925 61.1302C29.5084 60.741 29.3621 60.2922 29.3536 59.7836H31.2116C31.2229 59.9967 31.2925 60.1842 31.4204 60.3461C31.551 60.5052 31.7243 60.6288 31.9403 60.7169C32.1562 60.805 32.3991 60.849 32.6689 60.849C32.9502 60.849 33.1988 60.7993 33.4147 60.6998C33.6306 60.6004 33.7996 60.4626 33.9218 60.2865C34.0439 60.1104 34.105 59.9072 34.105 59.6771C34.105 59.4442 34.0397 59.2382 33.909 59.0592C33.7812 58.8774 33.5965 58.7354 33.355 58.6331C33.1164 58.5308 32.8323 58.4797 32.5028 58.4797H31.6888V57.1246H32.5028C32.7812 57.1246 33.0269 57.0763 33.24 56.9797C33.4559 56.8831 33.6235 56.7496 33.7428 56.5791C33.8621 56.4058 33.9218 56.2041 33.9218 55.974C33.9218 55.7552 33.8692 55.5635 33.7641 55.3987C33.6618 55.2311 33.517 55.1004 33.3295 55.0067C33.1448 54.9129 32.9289 54.866 32.6817 54.866C32.4317 54.866 32.203 54.9115 31.9957 55.0024C31.7883 55.0905 31.6221 55.2169 31.4971 55.3817C31.3721 55.5464 31.3053 55.7396 31.2968 55.9612H29.5283C29.5368 55.4584 29.6803 55.0152 29.9587 54.6317C30.2371 54.2481 30.6121 53.9484 31.0837 53.7325C31.5581 53.5138 32.0937 53.4044 32.6903 53.4044C33.2925 53.4044 33.8195 53.5138 34.2712 53.7325C34.7229 53.9513 35.0738 54.2467 35.3238 54.6189C35.5766 54.9882 35.7016 55.403 35.6988 55.8632C35.7016 56.3518 35.5496 56.7595 35.2428 57.0862C34.9388 57.4129 34.5425 57.6203 34.0539 57.7084V57.7765C34.6959 57.8589 35.1846 58.0819 35.5198 58.4456C35.8579 58.8064 36.0255 59.2581 36.0226 59.8007C36.0255 60.2979 35.882 60.7396 35.5922 61.126C35.3053 61.5123 34.909 61.8163 34.4033 62.0379C33.8976 62.2595 33.3181 62.3703 32.6647 62.3703ZM37.2169 60.7169V59.2638L40.8604 53.5237H42.1132V55.5351H41.3717L39.0748 59.17V59.2382H44.2524V60.7169H37.2169ZM41.4058 62.251V60.2737L41.4399 59.6302V53.5237H43.17V62.251H41.4058Z" fill="#2D2D2D" fill-opacity="0.9"/>
<path d="M65.0406 53.0601H64.1599C64.1078 52.8067 64.0167 52.5842 63.8865 52.3924C63.7586 52.2007 63.6024 52.0397 63.4177 51.9095C63.2354 51.7769 63.033 51.6775 62.8105 51.6112C62.5879 51.5449 62.3559 51.5118 62.1144 51.5118C61.6741 51.5118 61.2752 51.623 60.9177 51.8456C60.5626 52.0681 60.2797 52.396 60.069 52.8292C59.8606 53.2625 59.7565 53.794 59.7565 54.4237C59.7565 55.0534 59.8606 55.5849 60.069 56.0182C60.2797 56.4514 60.5626 56.7793 60.9177 57.0018C61.2752 57.2244 61.6741 57.3356 62.1144 57.3356C62.3559 57.3356 62.5879 57.3025 62.8105 57.2362C63.033 57.1699 63.2354 57.0717 63.4177 56.9415C63.6024 56.8089 63.7586 56.6467 63.8865 56.4549C64.0167 56.2608 64.1078 56.0383 64.1599 55.7873H65.0406C64.9743 56.159 64.8535 56.4916 64.6784 56.7852C64.5032 57.0788 64.2854 57.3285 64.0249 57.5345C63.7645 57.7381 63.4722 57.8932 63.1478 57.9997C62.8258 58.1062 62.4814 58.1595 62.1144 58.1595C61.4942 58.1595 60.9426 58.008 60.4596 57.7049C59.9767 57.4019 59.5967 56.971 59.3197 56.4123C59.0427 55.8536 58.9042 55.1907 58.9042 54.4237C58.9042 53.6566 59.0427 52.9938 59.3197 52.4351C59.5967 51.8763 59.9767 51.4455 60.4596 51.1424C60.9426 50.8394 61.4942 50.6879 62.1144 50.6879C62.4814 50.6879 62.8258 50.7412 63.1478 50.8477C63.4722 50.9542 63.7645 51.1105 64.0249 51.3165C64.2854 51.52 64.5032 51.7686 64.6784 52.0622C64.8535 52.3534 64.9743 52.686 65.0406 53.0601ZM68.566 58.1737C68.0735 58.1737 67.6415 58.0565 67.2698 57.8221C66.9005 57.5878 66.6117 57.2599 66.4033 56.8385C66.1974 56.4171 66.0944 55.9246 66.0944 55.3612C66.0944 54.793 66.1974 54.297 66.4033 53.8733C66.6117 53.4495 66.9005 53.1204 67.2698 52.8861C67.6415 52.6517 68.0735 52.5345 68.566 52.5345C69.0584 52.5345 69.4893 52.6517 69.8586 52.8861C70.2303 53.1204 70.5191 53.4495 70.7251 53.8733C70.9334 54.297 71.0376 54.793 71.0376 55.3612C71.0376 55.9246 70.9334 56.4171 70.7251 56.8385C70.5191 57.2599 70.2303 57.5878 69.8586 57.8221C69.4893 58.0565 69.0584 58.1737 68.566 58.1737ZM68.566 57.4209C68.94 57.4209 69.2478 57.325 69.4893 57.1332C69.7307 56.9415 69.9095 56.6893 70.0255 56.3768C70.1415 56.0643 70.1995 55.7258 70.1995 55.3612C70.1995 54.9966 70.1415 54.6569 70.0255 54.342C69.9095 54.0272 69.7307 53.7727 69.4893 53.5785C69.2478 53.3844 68.94 53.2873 68.566 53.2873C68.1919 53.2873 67.8841 53.3844 67.6427 53.5785C67.4012 53.7727 67.2224 54.0272 67.1064 54.342C66.9904 54.6569 66.9324 54.9966 66.9324 55.3612C66.9324 55.7258 66.9904 56.0643 67.1064 56.3768C67.2224 56.6893 67.4012 56.9415 67.6427 57.1332C67.8841 57.325 68.1919 57.4209 68.566 57.4209ZM72.3169 58.0601V52.6055H73.1265V53.4578H73.1975C73.3112 53.1666 73.4946 52.9405 73.748 52.7795C74.0013 52.6162 74.3055 52.5345 74.6606 52.5345C75.0204 52.5345 75.3199 52.6162 75.559 52.7795C75.8005 52.9405 75.9887 53.1666 76.1237 53.4578H76.1805C76.3202 53.1761 76.5297 52.9523 76.809 52.7866C77.0884 52.6185 77.4234 52.5345 77.814 52.5345C78.3017 52.5345 78.7006 52.6872 79.0107 52.9926C79.3209 53.2956 79.4759 53.7679 79.4759 54.4095V58.0601H78.6379V54.4095C78.6379 54.007 78.5278 53.7194 78.3076 53.5466C78.0874 53.3737 77.8282 53.2873 77.5299 53.2873C77.1464 53.2873 76.8493 53.4033 76.6386 53.6353C76.4279 53.865 76.3225 54.1562 76.3225 54.5089V58.0601H75.4703V54.3243C75.4703 54.0141 75.3696 53.7644 75.1684 53.575C74.9672 53.3832 74.7079 53.2873 74.3907 53.2873C74.1729 53.2873 73.9693 53.3453 73.7799 53.4613C73.5929 53.5773 73.4414 53.7383 73.3254 53.9443C73.2117 54.1479 73.1549 54.3834 73.1549 54.651V58.0601H72.3169ZM81.0083 60.1055V52.6055H81.8179V53.472H81.9173C81.9789 53.3773 82.0641 53.2566 82.173 53.1098C82.2843 52.9606 82.4429 52.8281 82.6489 52.712C82.8572 52.5937 83.1389 52.5345 83.4941 52.5345C83.9533 52.5345 84.3582 52.6493 84.7085 52.879C85.0589 53.1086 85.3324 53.4341 85.5289 53.8555C85.7253 54.2769 85.8236 54.7741 85.8236 55.347C85.8236 55.9246 85.7253 56.4254 85.5289 56.8491C85.3324 57.2705 85.0601 57.5972 84.7121 57.8292C84.3641 58.0589 83.9628 58.1737 83.5083 58.1737C83.1579 58.1737 82.8773 58.1157 82.6666 57.9997C82.4559 57.8813 82.2938 57.7476 82.1801 57.5984C82.0665 57.4469 81.9789 57.3214 81.9173 57.222H81.8463V60.1055H81.0083ZM81.8321 55.3328C81.8321 55.7447 81.8925 56.1081 82.0132 56.423C82.134 56.7355 82.3103 56.9805 82.5423 57.1581C82.7744 57.3333 83.0584 57.4209 83.3946 57.4209C83.745 57.4209 84.0374 57.3285 84.2718 57.1439C84.5085 56.9568 84.686 56.7059 84.8044 56.391C84.9252 56.0738 84.9855 55.721 84.9855 55.3328C84.9855 54.9493 84.9263 54.6036 84.808 54.2959C84.692 53.9857 84.5156 53.7407 84.2789 53.5608C84.0445 53.3785 83.7497 53.2873 83.3946 53.2873C83.0537 53.2873 82.7673 53.3737 82.5352 53.5466C82.3032 53.717 82.128 53.9561 82.0097 54.2639C81.8913 54.5693 81.8321 54.9256 81.8321 55.3328ZM87.9401 50.7873V58.0601H87.102V50.7873H87.9401ZM91.762 58.1737C91.2364 58.1737 90.7831 58.0577 90.4019 57.8257C90.0231 57.5913 89.7307 57.2646 89.5248 56.8456C89.3212 56.4242 89.2194 55.9341 89.2194 55.3754C89.2194 54.8167 89.3212 54.3243 89.5248 53.8981C89.7307 53.4696 90.0172 53.1358 90.3841 52.8967C90.7535 52.6552 91.1843 52.5345 91.6768 52.5345C91.9608 52.5345 92.2414 52.5818 92.5184 52.6765C92.7954 52.7712 93.0475 52.9251 93.2748 53.1382C93.502 53.3489 93.6832 53.6282 93.8181 53.9763C93.953 54.3243 94.0205 54.7528 94.0205 55.2618V55.6169H89.816V54.8924H93.1682C93.1682 54.5847 93.1067 54.3101 92.9836 54.0686C92.8628 53.8271 92.69 53.6365 92.4651 53.4968C92.2426 53.3572 91.9798 53.2873 91.6768 53.2873C91.343 53.2873 91.0541 53.3702 90.8103 53.5359C90.5688 53.6993 90.383 53.9123 90.2528 54.1751C90.1225 54.4379 90.0574 54.7196 90.0574 55.0203V55.5032C90.0574 55.9152 90.1285 56.2644 90.2705 56.5508C90.4149 56.8349 90.615 57.0515 90.8706 57.2007C91.1263 57.3475 91.4234 57.4209 91.762 57.4209C91.9822 57.4209 92.181 57.3901 92.3586 57.3285C92.5385 57.2646 92.6936 57.1699 92.8238 57.0444C92.954 56.9166 93.0546 56.758 93.1256 56.5686L93.9353 56.7959C93.8501 57.0705 93.7068 57.312 93.5056 57.5203C93.3044 57.7263 93.0558 57.8872 92.7599 58.0032C92.4639 58.1169 92.1313 58.1737 91.762 58.1737ZM97.6675 52.6055V53.3157H94.8408V52.6055H97.6675ZM95.6647 51.2987H96.5028V56.4976C96.5028 56.7343 96.5371 56.9119 96.6057 57.0302C96.6768 57.1462 96.7667 57.2244 96.8756 57.2646C96.9869 57.3025 97.1041 57.3214 97.2272 57.3214C97.3195 57.3214 97.3953 57.3167 97.4545 57.3072C97.5136 57.2954 97.561 57.2859 97.5965 57.2788L97.767 58.0316C97.7101 58.053 97.6308 58.0743 97.529 58.0956C97.4272 58.1192 97.2982 58.1311 97.142 58.1311C96.9052 58.1311 96.6732 58.0802 96.4459 57.9784C96.221 57.8766 96.034 57.7215 95.8849 57.5132C95.7381 57.3049 95.6647 57.0421 95.6647 56.7248V51.2987ZM101.157 58.1737C100.631 58.1737 100.178 58.0577 99.7964 57.8257C99.4176 57.5913 99.1253 57.2646 98.9193 56.8456C98.7157 56.4242 98.6139 55.9341 98.6139 55.3754C98.6139 54.8167 98.7157 54.3243 98.9193 53.8981C99.1253 53.4696 99.4117 53.1358 99.7787 52.8967C100.148 52.6552 100.579 52.5345 101.071 52.5345C101.355 52.5345 101.636 52.5818 101.913 52.6765C102.19 52.7712 102.442 52.9251 102.669 53.1382C102.897 53.3489 103.078 53.6282 103.213 53.9763C103.348 54.3243 103.415 54.7528 103.415 55.2618V55.6169H99.2105V54.8924H102.563C102.563 54.5847 102.501 54.3101 102.378 54.0686C102.257 53.8271 102.085 53.6365 101.86 53.4968C101.637 53.3572 101.374 53.2873 101.071 53.2873C100.737 53.2873 100.449 53.3702 100.205 53.5359C99.9633 53.6993 99.7775 53.9123 99.6473 54.1751C99.5171 54.4379 99.452 54.7196 99.452 55.0203V55.5032C99.452 55.9152 99.523 56.2644 99.665 56.5508C99.8095 56.8349 100.009 57.0515 100.265 57.2007C100.521 57.3475 100.818 57.4209 101.157 57.4209C101.377 57.4209 101.576 57.3901 101.753 57.3285C101.933 57.2646 102.088 57.1699 102.218 57.0444C102.349 56.9166 102.449 56.758 102.52 56.5686L103.33 56.7959C103.245 57.0705 103.101 57.312 102.9 57.5203C102.699 57.7263 102.45 57.8872 102.154 58.0032C101.858 58.1169 101.526 58.1737 101.157 58.1737ZM106.75 58.1737C106.295 58.1737 105.894 58.0589 105.546 57.8292C105.198 57.5972 104.925 57.2705 104.729 56.8491C104.532 56.4254 104.434 55.9246 104.434 55.347C104.434 54.7741 104.532 54.2769 104.729 53.8555C104.925 53.4341 105.199 53.1086 105.549 52.879C105.9 52.6493 106.304 52.5345 106.764 52.5345C107.119 52.5345 107.399 52.5937 107.605 52.712C107.814 52.8281 107.972 52.9606 108.081 53.1098C108.193 53.2566 108.279 53.3773 108.34 53.472H108.411V50.7873H109.25V58.0601H108.44V57.222H108.34C108.279 57.3214 108.191 57.4469 108.078 57.5984C107.964 57.7476 107.802 57.8813 107.591 57.9997C107.38 58.1157 107.1 58.1737 106.75 58.1737ZM106.863 57.4209C107.199 57.4209 107.483 57.3333 107.715 57.1581C107.947 56.9805 108.124 56.7355 108.245 56.423C108.365 56.1081 108.426 55.7447 108.426 55.3328C108.426 54.9256 108.367 54.5693 108.248 54.2639C108.13 53.9561 107.955 53.717 107.723 53.5466C107.491 53.3737 107.204 53.2873 106.863 53.2873C106.508 53.2873 106.212 53.3785 105.975 53.5608C105.741 53.7407 105.565 53.9857 105.446 54.2959C105.33 54.6036 105.272 54.9493 105.272 55.3328C105.272 55.721 105.331 56.0738 105.45 56.391C105.571 56.7059 105.748 56.9568 105.983 57.1439C106.219 57.3285 106.513 57.4209 106.863 57.4209ZM59.0747 70.1055V62.6055H59.8843V63.472H59.9838C60.0453 63.3773 60.1305 63.2566 60.2394 63.1098C60.3507 62.9606 60.5093 62.8281 60.7153 62.712C60.9236 62.5937 61.2053 62.5345 61.5605 62.5345C62.0197 62.5345 62.4246 62.6493 62.7749 62.879C63.1253 63.1086 63.3988 63.4341 63.5953 63.8555C63.7918 64.2769 63.89 64.7741 63.89 65.347C63.89 65.9246 63.7918 66.4254 63.5953 66.8491C63.3988 67.2705 63.1265 67.5972 62.7785 67.8292C62.4305 68.0589 62.0292 68.1737 61.5747 68.1737C61.2243 68.1737 60.9437 68.1157 60.733 67.9997C60.5223 67.8813 60.3602 67.7476 60.2465 67.5984C60.1329 67.4469 60.0453 67.3214 59.9838 67.222H59.9127V70.1055H59.0747ZM59.8985 65.3328C59.8985 65.7447 59.9589 66.1081 60.0796 66.423C60.2004 66.7355 60.3767 66.9805 60.6088 67.1581C60.8408 67.3333 61.1249 67.4209 61.461 67.4209C61.8114 67.4209 62.1038 67.3285 62.3382 67.1439C62.5749 66.9568 62.7525 66.7059 62.8708 66.391C62.9916 66.0738 63.0519 65.721 63.0519 65.3328C63.0519 64.9493 62.9927 64.6036 62.8744 64.2959C62.7584 63.9857 62.582 63.7407 62.3453 63.5608C62.1109 63.3785 61.8161 63.2873 61.461 63.2873C61.1201 63.2873 60.8337 63.3737 60.6017 63.5466C60.3696 63.717 60.1945 63.9561 60.0761 64.2639C59.9577 64.5693 59.8985 64.9256 59.8985 65.3328ZM65.1684 68.0601V62.6055H65.9781V63.4294H66.0349C66.1343 63.1595 66.3142 62.9405 66.5747 62.7724C66.8351 62.6043 67.1286 62.5203 67.4553 62.5203C67.5169 62.5203 67.5938 62.5215 67.6862 62.5238C67.7785 62.5262 67.8483 62.5298 67.8957 62.5345V63.3868C67.8673 63.3797 67.8022 63.369 67.7004 63.3548C67.6009 63.3382 67.4956 63.3299 67.3843 63.3299C67.1192 63.3299 66.8824 63.3856 66.6741 63.4968C66.4681 63.6057 66.3048 63.7573 66.184 63.9514C66.0657 64.1432 66.0065 64.3621 66.0065 64.6084V68.0601H65.1684ZM70.939 68.1737C70.4466 68.1737 70.0145 68.0565 69.6428 67.8221C69.2735 67.5878 68.9847 67.2599 68.7764 66.8385C68.5704 66.4171 68.4674 65.9246 68.4674 65.3612C68.4674 64.793 68.5704 64.297 68.7764 63.8733C68.9847 63.4495 69.2735 63.1204 69.6428 62.8861C70.0145 62.6517 70.4466 62.5345 70.939 62.5345C71.4314 62.5345 71.8623 62.6517 72.2316 62.8861C72.6033 63.1204 72.8921 63.4495 73.0981 63.8733C73.3064 64.297 73.4106 64.793 73.4106 65.3612C73.4106 65.9246 73.3064 66.4171 73.0981 66.8385C72.8921 67.2599 72.6033 67.5878 72.2316 67.8221C71.8623 68.0565 71.4314 68.1737 70.939 68.1737ZM70.939 67.4209C71.3131 67.4209 71.6208 67.325 71.8623 67.1332C72.1038 66.9415 72.2825 66.6893 72.3985 66.3768C72.5145 66.0643 72.5725 65.7258 72.5725 65.3612C72.5725 64.9966 72.5145 64.6569 72.3985 64.342C72.2825 64.0272 72.1038 63.7727 71.8623 63.5785C71.6208 63.3844 71.3131 63.2873 70.939 63.2873C70.565 63.2873 70.2572 63.3844 70.0157 63.5785C69.7742 63.7727 69.5955 64.0272 69.4795 64.342C69.3635 64.6569 69.3055 64.9966 69.3055 65.3612C69.3055 65.7258 69.3635 66.0643 69.4795 66.3768C69.5955 66.6893 69.7742 66.9415 70.0157 67.1332C70.2572 67.325 70.565 67.4209 70.939 67.4209ZM74.6899 62.6055H75.528V68.4578C75.528 68.794 75.47 69.0852 75.354 69.3314C75.2403 69.5776 75.0675 69.7682 74.8355 69.9031C74.6059 70.038 74.3158 70.1055 73.9655 70.1055C73.9371 70.1055 73.9086 70.1055 73.8802 70.1055C73.8518 70.1055 73.8234 70.1055 73.795 70.1055V69.3243C73.8234 69.3243 73.8495 69.3243 73.8731 69.3243C73.8968 69.3243 73.9229 69.3243 73.9513 69.3243C74.2069 69.3243 74.394 69.2485 74.5123 69.097C74.6307 68.9478 74.6899 68.7348 74.6899 68.4578V62.6055ZM75.1018 61.6964C74.9385 61.6964 74.7976 61.6408 74.6792 61.5295C74.5632 61.4182 74.5052 61.2845 74.5052 61.1282C74.5052 60.972 74.5632 60.8382 74.6792 60.727C74.7976 60.6157 74.9385 60.5601 75.1018 60.5601C75.2652 60.5601 75.4049 60.6157 75.5209 60.727C75.6392 60.8382 75.6984 60.972 75.6984 61.1282C75.6984 61.2845 75.6392 61.4182 75.5209 61.5295C75.4049 61.6408 75.2652 61.6964 75.1018 61.6964ZM79.3499 68.1737C78.8243 68.1737 78.3709 68.0577 77.9898 67.8257C77.611 67.5913 77.3186 67.2646 77.1127 66.8456C76.9091 66.4242 76.8073 65.9341 76.8073 65.3754C76.8073 64.8167 76.9091 64.3243 77.1127 63.8981C77.3186 63.4696 77.6051 63.1358 77.972 62.8967C78.3414 62.6552 78.7722 62.5345 79.2646 62.5345C79.5487 62.5345 79.8293 62.5818 80.1063 62.6765C80.3833 62.7712 80.6354 62.9251 80.8627 63.1382C81.0899 63.3489 81.271 63.6282 81.406 63.9763C81.5409 64.3243 81.6084 64.7528 81.6084 65.2618V65.6169H77.4039V64.8924H80.7561C80.7561 64.5847 80.6946 64.3101 80.5715 64.0686C80.4507 63.8271 80.2779 63.6365 80.053 63.4968C79.8305 63.3572 79.5677 63.2873 79.2646 63.2873C78.9308 63.2873 78.642 63.3702 78.3982 63.5359C78.1567 63.6993 77.9709 63.9123 77.8406 64.1751C77.7104 64.4379 77.6453 64.7196 77.6453 65.0203V65.5032C77.6453 65.9152 77.7164 66.2644 77.8584 66.5508C78.0028 66.8349 78.2029 67.0515 78.4585 67.2007C78.7142 67.3475 79.0113 67.4209 79.3499 67.4209C79.57 67.4209 79.7689 67.3901 79.9465 67.3285C80.1264 67.2646 80.2815 67.1699 80.4117 67.0444C80.5419 66.9166 80.6425 66.758 80.7135 66.5686L81.5232 66.7959C81.4379 67.0705 81.2947 67.312 81.0935 67.5203C80.8923 67.7263 80.6437 67.8872 80.3477 68.0032C80.0518 68.1169 79.7192 68.1737 79.3499 68.1737ZM85.0992 68.1737C84.5878 68.1737 84.1475 68.053 83.7781 67.8115C83.4088 67.57 83.1247 67.2374 82.9259 66.8136C82.727 66.3898 82.6276 65.9057 82.6276 65.3612C82.6276 64.8072 82.7294 64.3183 82.933 63.8946C83.1389 63.4684 83.4254 63.1358 83.7923 62.8967C84.1617 62.6552 84.5925 62.5345 85.085 62.5345C85.4685 62.5345 85.8141 62.6055 86.1219 62.7476C86.4297 62.8896 86.6818 63.0885 86.8783 63.3441C87.0748 63.5998 87.1967 63.8981 87.2441 64.239H86.406C86.3421 63.9905 86.2 63.7703 85.9798 63.5785C85.762 63.3844 85.4685 63.2873 85.0992 63.2873C84.7725 63.2873 84.486 63.3726 84.2398 63.543C83.9959 63.7111 83.8054 63.949 83.6681 64.2568C83.5331 64.5622 83.4656 64.9209 83.4656 65.3328C83.4656 65.7542 83.5319 66.1211 83.6645 66.4336C83.7994 66.7461 83.9888 66.9888 84.2327 67.1616C84.4789 67.3344 84.7677 67.4209 85.0992 67.4209C85.317 67.4209 85.5146 67.383 85.6922 67.3072C85.8698 67.2315 86.0201 67.1226 86.1432 66.9805C86.2663 66.8385 86.3539 66.668 86.406 66.4691H87.2441C87.1967 66.7911 87.0795 67.0811 86.8925 67.3392C86.7078 67.5949 86.4628 67.7985 86.1574 67.95C85.8544 68.0991 85.5016 68.1737 85.0992 68.1737ZM90.8414 62.6055V63.3157H88.0146V62.6055H90.8414ZM88.8385 61.2987H89.6766V66.4976C89.6766 66.7343 89.7109 66.9119 89.7796 67.0302C89.8506 67.1462 89.9405 67.2244 90.0494 67.2646C90.1607 67.3025 90.2779 67.3214 90.401 67.3214C90.4933 67.3214 90.5691 67.3167 90.6283 67.3072C90.6875 67.2954 90.7348 67.2859 90.7703 67.2788L90.9408 68.0316C90.884 68.053 90.8047 68.0743 90.7029 68.0956C90.6011 68.1192 90.472 68.1311 90.3158 68.1311C90.079 68.1311 89.847 68.0802 89.6198 67.9784C89.3949 67.8766 89.2078 67.7215 89.0587 67.5132C88.9119 67.3049 88.8385 67.0421 88.8385 66.7248V61.2987Z" fill="#2D2D2D" fill-opacity="0.7"/>
<circle cx="157.441" cy="58.371" r="3.83392" fill="#F7DCC9"/>
<circle cx="156.346" cy="59.4662" r="3.83392" fill="white"/>
<rect x="60.498" y="98.3535" width="155.548" height="30.6714" rx="6" fill="#F7F3F0"/>
<path d="M74.4862 117.213C73.7532 117.21 73.1226 117.03 72.5941 116.672C72.0686 116.314 71.6638 115.796 71.3797 115.117C71.0984 114.438 70.9592 113.621 70.962 112.666C70.962 111.715 71.1027 110.904 71.3839 110.233C71.668 109.563 72.0728 109.053 72.5984 108.703C73.1268 108.351 73.7561 108.175 74.4862 108.175C75.2163 108.175 75.8441 108.351 76.3697 108.703C76.8981 109.056 77.3044 109.567 77.5885 110.237C77.8726 110.905 78.0132 111.715 78.0103 112.666C78.0103 113.624 77.8683 114.442 77.5842 115.121C77.303 115.8 76.8995 116.318 76.374 116.676C75.8484 117.034 75.2191 117.213 74.4862 117.213ZM74.4862 115.683C74.9862 115.683 75.3853 115.432 75.6836 114.929C75.9819 114.426 76.1297 113.672 76.1268 112.666C76.1268 112.004 76.0586 111.453 75.9223 111.013C75.7888 110.573 75.5984 110.242 75.3513 110.02C75.1069 109.798 74.8186 109.688 74.4862 109.688C73.989 109.688 73.5913 109.936 73.293 110.433C72.9947 110.931 72.8441 111.675 72.8413 112.666C72.8413 113.337 72.9081 113.896 73.0416 114.345C73.178 114.791 73.3697 115.127 73.6169 115.351C73.864 115.573 74.1538 115.683 74.4862 115.683ZM79.326 117.021V115.692L82.4326 112.816C82.6968 112.56 82.9184 112.33 83.0973 112.125C83.2792 111.921 83.4169 111.72 83.5107 111.524C83.6044 111.325 83.6513 111.111 83.6513 110.881C83.6513 110.625 83.5931 110.405 83.4766 110.22C83.3601 110.033 83.201 109.889 82.9993 109.79C82.7976 109.688 82.5689 109.637 82.3133 109.637C82.0462 109.637 81.8133 109.691 81.6144 109.798C81.4155 109.906 81.2621 110.061 81.1542 110.263C81.0462 110.465 80.9922 110.705 80.9922 110.983H79.2408C79.2408 110.412 79.3701 109.916 79.6286 109.496C79.8871 109.075 80.2493 108.75 80.7152 108.52C81.1812 108.29 81.7181 108.175 82.326 108.175C82.951 108.175 83.4951 108.286 83.9581 108.507C84.4241 108.726 84.7863 109.03 85.0448 109.419C85.3033 109.808 85.4326 110.254 85.4326 110.757C85.4326 111.087 85.3672 111.412 85.2366 111.733C85.1087 112.054 84.88 112.411 84.5505 112.803C84.2209 113.192 83.7564 113.659 83.157 114.205L81.8829 115.453V115.513H85.5476V117.021H79.326Z" fill="#2D2D2D" fill-opacity="0.9"/>
<path d="M103.004 111.735V104.463H107.365V105.244H103.885V107.701H107.038V108.483H103.885V111.735H103.004ZM110.365 111.863C110.019 111.863 109.706 111.798 109.424 111.668C109.142 111.535 108.918 111.345 108.753 111.096C108.587 110.845 108.504 110.542 108.504 110.187C108.504 109.875 108.566 109.621 108.689 109.427C108.812 109.231 108.976 109.077 109.182 108.965C109.388 108.854 109.616 108.771 109.864 108.717C110.115 108.66 110.367 108.615 110.621 108.582C110.952 108.539 111.221 108.507 111.427 108.486C111.635 108.462 111.786 108.423 111.881 108.369C111.978 108.314 112.027 108.22 112.027 108.085V108.056C112.027 107.706 111.931 107.434 111.739 107.24C111.55 107.045 111.262 106.948 110.876 106.948C110.476 106.948 110.162 107.036 109.935 107.211C109.708 107.386 109.548 107.573 109.456 107.772L108.66 107.488C108.802 107.157 108.992 106.899 109.228 106.714C109.468 106.527 109.728 106.397 110.01 106.323C110.294 106.248 110.573 106.21 110.848 106.21C111.023 106.21 111.224 106.231 111.451 106.274C111.681 106.314 111.902 106.398 112.116 106.526C112.331 106.654 112.51 106.847 112.652 107.105C112.794 107.363 112.865 107.708 112.865 108.142V111.735H112.027V110.997H111.984C111.927 111.115 111.833 111.242 111.7 111.377C111.567 111.512 111.391 111.626 111.171 111.721C110.951 111.816 110.682 111.863 110.365 111.863ZM110.493 111.11C110.824 111.11 111.103 111.045 111.331 110.915C111.56 110.785 111.733 110.617 111.849 110.411C111.968 110.205 112.027 109.988 112.027 109.761V108.994C111.991 109.036 111.913 109.076 111.792 109.111C111.674 109.144 111.537 109.174 111.38 109.2C111.227 109.224 111.076 109.245 110.929 109.264C110.785 109.28 110.668 109.295 110.578 109.306C110.36 109.335 110.157 109.381 109.967 109.445C109.78 109.506 109.629 109.6 109.513 109.725C109.399 109.849 109.342 110.017 109.342 110.23C109.342 110.521 109.45 110.741 109.665 110.89C109.883 111.037 110.159 111.11 110.493 111.11ZM116.61 111.849C116.099 111.849 115.659 111.728 115.289 111.487C114.92 111.245 114.636 110.913 114.437 110.489C114.238 110.065 114.139 109.581 114.139 109.036C114.139 108.483 114.241 107.994 114.444 107.57C114.65 107.144 114.937 106.811 115.304 106.572C115.673 106.331 116.104 106.21 116.596 106.21C116.98 106.21 117.325 106.281 117.633 106.423C117.941 106.565 118.193 106.764 118.39 107.019C118.586 107.275 118.708 107.573 118.755 107.914H117.917C117.853 107.666 117.711 107.446 117.491 107.254C117.273 107.06 116.98 106.963 116.61 106.963C116.284 106.963 115.997 107.048 115.751 107.218C115.507 107.386 115.317 107.624 115.179 107.932C115.044 108.237 114.977 108.596 114.977 109.008C114.977 109.429 115.043 109.796 115.176 110.109C115.311 110.421 115.5 110.664 115.744 110.837C115.99 111.01 116.279 111.096 116.61 111.096C116.828 111.096 117.026 111.058 117.203 110.983C117.381 110.907 117.531 110.798 117.654 110.656C117.778 110.514 117.865 110.343 117.917 110.144H118.755C118.708 110.466 118.591 110.756 118.404 111.014C118.219 111.27 117.974 111.474 117.669 111.625C117.366 111.774 117.013 111.849 116.61 111.849ZM122.267 111.849C121.742 111.849 121.288 111.733 120.907 111.501C120.528 111.267 120.236 110.94 120.03 110.521C119.827 110.099 119.725 109.609 119.725 109.051C119.725 108.492 119.827 108 120.03 107.573C120.236 107.145 120.523 106.811 120.89 106.572C121.259 106.331 121.69 106.21 122.182 106.21C122.466 106.21 122.747 106.257 123.024 106.352C123.301 106.447 123.553 106.6 123.78 106.813C124.007 107.024 124.189 107.304 124.323 107.652C124.458 108 124.526 108.428 124.526 108.937V109.292H120.321V108.568H123.674C123.674 108.26 123.612 107.985 123.489 107.744C123.368 107.502 123.195 107.312 122.97 107.172C122.748 107.032 122.485 106.963 122.182 106.963C121.848 106.963 121.559 107.045 121.316 107.211C121.074 107.375 120.888 107.588 120.758 107.85C120.628 108.113 120.563 108.395 120.563 108.696V109.179C120.563 109.59 120.634 109.94 120.776 110.226C120.92 110.51 121.12 110.727 121.376 110.876C121.632 111.023 121.929 111.096 122.267 111.096C122.488 111.096 122.686 111.065 122.864 111.004C123.044 110.94 123.199 110.845 123.329 110.72C123.459 110.592 123.56 110.433 123.631 110.244L124.441 110.471C124.355 110.746 124.212 110.987 124.011 111.196C123.81 111.402 123.561 111.563 123.265 111.679C122.969 111.792 122.637 111.849 122.267 111.849ZM125.914 111.735V104.463H126.752V107.147H126.823C126.885 107.053 126.97 106.932 127.079 106.785C127.19 106.636 127.349 106.503 127.555 106.387C127.763 106.269 128.045 106.21 128.4 106.21C128.859 106.21 129.264 106.325 129.615 106.554C129.965 106.784 130.238 107.109 130.435 107.531C130.631 107.952 130.73 108.449 130.73 109.022C130.73 109.6 130.631 110.101 130.435 110.524C130.238 110.946 129.966 111.273 129.618 111.505C129.27 111.734 128.869 111.849 128.414 111.849C128.064 111.849 127.783 111.791 127.573 111.675C127.362 111.557 127.2 111.423 127.086 111.274C126.973 111.122 126.885 110.997 126.823 110.897H126.724V111.735H125.914ZM126.738 109.008C126.738 109.42 126.799 109.783 126.919 110.098C127.04 110.411 127.216 110.656 127.448 110.833C127.68 111.009 127.965 111.096 128.301 111.096C128.651 111.096 128.943 111.004 129.178 110.819C129.415 110.632 129.592 110.381 129.711 110.066C129.831 109.749 129.892 109.396 129.892 109.008C129.892 108.625 129.832 108.279 129.714 107.971C129.598 107.661 129.422 107.416 129.185 107.236C128.951 107.054 128.656 106.963 128.301 106.963C127.96 106.963 127.673 107.049 127.441 107.222C127.209 107.392 127.034 107.631 126.916 107.939C126.797 108.245 126.738 108.601 126.738 109.008ZM134.228 111.849C133.735 111.849 133.303 111.732 132.931 111.497C132.562 111.263 132.273 110.935 132.065 110.514C131.859 110.092 131.756 109.6 131.756 109.036C131.756 108.468 131.859 107.972 132.065 107.549C132.273 107.125 132.562 106.796 132.931 106.561C133.303 106.327 133.735 106.21 134.228 106.21C134.72 106.21 135.151 106.327 135.52 106.561C135.892 106.796 136.181 107.125 136.387 107.549C136.595 107.972 136.699 108.468 136.699 109.036C136.699 109.6 136.595 110.092 136.387 110.514C136.181 110.935 135.892 111.263 135.52 111.497C135.151 111.732 134.72 111.849 134.228 111.849ZM134.228 111.096C134.602 111.096 134.909 111 135.151 110.809C135.392 110.617 135.571 110.365 135.687 110.052C135.803 109.74 135.861 109.401 135.861 109.036C135.861 108.672 135.803 108.332 135.687 108.017C135.571 107.702 135.392 107.448 135.151 107.254C134.909 107.06 134.602 106.963 134.228 106.963C133.854 106.963 133.546 107.06 133.304 107.254C133.063 107.448 132.884 107.702 132.768 108.017C132.652 108.332 132.594 108.672 132.594 109.036C132.594 109.401 132.652 109.74 132.768 110.052C132.884 110.365 133.063 110.617 133.304 110.809C133.546 111 133.854 111.096 134.228 111.096ZM140.194 111.849C139.702 111.849 139.27 111.732 138.898 111.497C138.529 111.263 138.24 110.935 138.032 110.514C137.826 110.092 137.723 109.6 137.723 109.036C137.723 108.468 137.826 107.972 138.032 107.549C138.24 107.125 138.529 106.796 138.898 106.561C139.27 106.327 139.702 106.21 140.194 106.21C140.687 106.21 141.118 106.327 141.487 106.561C141.859 106.796 142.148 107.125 142.353 107.549C142.562 107.972 142.666 108.468 142.666 109.036C142.666 109.6 142.562 110.092 142.353 110.514C142.148 110.935 141.859 111.263 141.487 111.497C141.118 111.732 140.687 111.849 140.194 111.849ZM140.194 111.096C140.568 111.096 140.876 111 141.118 110.809C141.359 110.617 141.538 110.365 141.654 110.052C141.77 109.74 141.828 109.401 141.828 109.036C141.828 108.672 141.77 108.332 141.654 108.017C141.538 107.702 141.359 107.448 141.118 107.254C140.876 107.06 140.568 106.963 140.194 106.963C139.82 106.963 139.513 107.06 139.271 107.254C139.03 107.448 138.851 107.702 138.735 108.017C138.619 108.332 138.561 108.672 138.561 109.036C138.561 109.401 138.619 109.74 138.735 110.052C138.851 110.365 139.03 110.617 139.271 110.809C139.513 111 139.82 111.096 140.194 111.096ZM144.727 109.747L144.712 108.71H144.883L147.269 106.281H148.306L145.763 108.852H145.692L144.727 109.747ZM143.945 111.735V104.463H144.783V111.735H143.945ZM147.411 111.735L145.28 109.036L145.877 108.454L148.477 111.735H147.411ZM153.802 111.863C153.457 111.863 153.143 111.798 152.861 111.668C152.58 111.535 152.356 111.345 152.19 111.096C152.024 110.845 151.942 110.542 151.942 110.187C151.942 109.875 152.003 109.621 152.126 109.427C152.249 109.231 152.414 109.077 152.62 108.965C152.826 108.854 153.053 108.771 153.302 108.717C153.553 108.66 153.805 108.615 154.058 108.582C154.389 108.539 154.658 108.507 154.864 108.486C155.072 108.462 155.224 108.423 155.319 108.369C155.416 108.314 155.464 108.22 155.464 108.085V108.056C155.464 107.706 155.368 107.434 155.177 107.24C154.987 107.045 154.7 106.948 154.314 106.948C153.914 106.948 153.6 107.036 153.373 107.211C153.145 107.386 152.986 107.573 152.893 107.772L152.098 107.488C152.24 107.157 152.429 106.899 152.666 106.714C152.905 106.527 153.165 106.397 153.447 106.323C153.731 106.248 154.011 106.21 154.285 106.21C154.46 106.21 154.662 106.231 154.889 106.274C155.119 106.314 155.34 106.398 155.553 106.526C155.768 106.654 155.947 106.847 156.089 107.105C156.231 107.363 156.302 107.708 156.302 108.142V111.735H155.464V110.997H155.422C155.365 111.115 155.27 111.242 155.138 111.377C155.005 111.512 154.829 111.626 154.608 111.721C154.388 111.816 154.12 111.863 153.802 111.863ZM153.93 111.11C154.262 111.11 154.541 111.045 154.768 110.915C154.998 110.785 155.171 110.617 155.287 110.411C155.405 110.205 155.464 109.988 155.464 109.761V108.994C155.429 109.036 155.351 109.076 155.23 109.111C155.112 109.144 154.974 109.174 154.818 109.2C154.664 109.224 154.514 109.245 154.367 109.264C154.223 109.28 154.105 109.295 154.015 109.306C153.798 109.335 153.594 109.381 153.405 109.445C153.218 109.506 153.066 109.6 152.95 109.725C152.836 109.849 152.78 110.017 152.78 110.23C152.78 110.521 152.887 110.741 153.103 110.89C153.321 111.037 153.596 111.11 153.93 111.11ZM159.892 111.849C159.437 111.849 159.036 111.734 158.688 111.505C158.34 111.273 158.068 110.946 157.871 110.524C157.675 110.101 157.576 109.6 157.576 109.022C157.576 108.449 157.675 107.952 157.871 107.531C158.068 107.109 158.341 106.784 158.691 106.554C159.042 106.325 159.447 106.21 159.906 106.21C160.261 106.21 160.542 106.269 160.747 106.387C160.956 106.503 161.114 106.636 161.223 106.785C161.335 106.932 161.421 107.053 161.483 107.147H161.554V104.463H162.392V111.735H161.582V110.897H161.483C161.421 110.997 161.333 111.122 161.22 111.274C161.106 111.423 160.944 111.557 160.733 111.675C160.523 111.791 160.242 111.849 159.892 111.849ZM160.005 111.096C160.341 111.096 160.626 111.009 160.858 110.833C161.09 110.656 161.266 110.411 161.387 110.098C161.507 109.783 161.568 109.42 161.568 109.008C161.568 108.601 161.509 108.245 161.39 107.939C161.272 107.631 161.097 107.392 160.865 107.222C160.633 107.049 160.346 106.963 160.005 106.963C159.65 106.963 159.354 107.054 159.117 107.236C158.883 107.416 158.707 107.661 158.588 107.971C158.472 108.279 158.414 108.625 158.414 109.008C158.414 109.396 158.474 109.749 158.592 110.066C158.713 110.381 158.89 110.632 159.125 110.819C159.361 111.004 159.655 111.096 160.005 111.096ZM166.103 111.849C165.648 111.849 165.247 111.734 164.899 111.505C164.551 111.273 164.278 110.946 164.082 110.524C163.885 110.101 163.787 109.6 163.787 109.022C163.787 108.449 163.885 107.952 164.082 107.531C164.278 107.109 164.552 106.784 164.902 106.554C165.253 106.325 165.658 106.21 166.117 106.21C166.472 106.21 166.752 106.269 166.958 106.387C167.167 106.503 167.325 106.636 167.434 106.785C167.546 106.932 167.632 107.053 167.693 107.147H167.765V104.463H168.603V111.735H167.793V110.897H167.693C167.632 110.997 167.544 111.122 167.431 111.274C167.317 111.423 167.155 111.557 166.944 111.675C166.734 111.791 166.453 111.849 166.103 111.849ZM166.216 111.096C166.552 111.096 166.836 111.009 167.068 110.833C167.301 110.656 167.477 110.411 167.598 110.098C167.718 109.783 167.779 109.42 167.779 109.008C167.779 108.601 167.72 108.245 167.601 107.939C167.483 107.631 167.308 107.392 167.076 107.222C166.844 107.049 166.557 106.963 166.216 106.963C165.861 106.963 165.565 107.054 165.328 107.236C165.094 107.416 164.918 107.661 164.799 107.971C164.683 108.279 164.625 108.625 164.625 109.008C164.625 109.396 164.684 109.749 164.803 110.066C164.924 110.381 165.101 110.632 165.336 110.819C165.572 111.004 165.866 111.096 166.216 111.096ZM103.729 118.454V121.735H102.891V114.463H103.729V117.133H103.8C103.928 116.851 104.119 116.628 104.375 116.462C104.633 116.294 104.976 116.21 105.405 116.21C105.776 116.21 106.102 116.284 106.381 116.434C106.661 116.58 106.877 116.806 107.031 117.112C107.187 117.415 107.266 117.801 107.266 118.269V121.735H106.428V118.326C106.428 117.893 106.315 117.558 106.09 117.321C105.868 117.082 105.559 116.963 105.163 116.963C104.889 116.963 104.642 117.021 104.425 117.137C104.209 117.253 104.039 117.422 103.913 117.644C103.79 117.867 103.729 118.137 103.729 118.454ZM111.086 121.849C110.56 121.849 110.107 121.733 109.726 121.501C109.347 121.267 109.054 120.94 108.848 120.521C108.645 120.099 108.543 119.609 108.543 119.051C108.543 118.492 108.645 118 108.848 117.573C109.054 117.145 109.341 116.811 109.708 116.572C110.077 116.331 110.508 116.21 111 116.21C111.285 116.21 111.565 116.257 111.842 116.352C112.119 116.447 112.371 116.6 112.598 116.813C112.826 117.024 113.007 117.304 113.142 117.652C113.277 118 113.344 118.428 113.344 118.937V119.292H109.14V118.568H112.492C112.492 118.26 112.43 117.985 112.307 117.744C112.187 117.502 112.014 117.312 111.789 117.172C111.566 117.032 111.304 116.963 111 116.963C110.667 116.963 110.378 117.045 110.134 117.211C109.893 117.375 109.707 117.588 109.576 117.85C109.446 118.113 109.381 118.395 109.381 118.696V119.179C109.381 119.59 109.452 119.94 109.594 120.226C109.739 120.51 109.939 120.727 110.194 120.876C110.45 121.023 110.747 121.096 111.086 121.096C111.306 121.096 111.505 121.065 111.682 121.004C111.862 120.94 112.017 120.845 112.148 120.72C112.278 120.592 112.378 120.433 112.449 120.244L113.259 120.471C113.174 120.746 113.031 120.987 112.829 121.196C112.628 121.402 112.38 121.563 112.084 121.679C111.788 121.792 111.455 121.849 111.086 121.849ZM116.224 121.863C115.879 121.863 115.565 121.798 115.283 121.668C115.001 121.535 114.778 121.345 114.612 121.096C114.446 120.845 114.363 120.542 114.363 120.187C114.363 119.875 114.425 119.621 114.548 119.427C114.671 119.231 114.836 119.077 115.042 118.965C115.248 118.854 115.475 118.771 115.723 118.717C115.974 118.66 116.227 118.615 116.48 118.582C116.811 118.539 117.08 118.507 117.286 118.486C117.494 118.462 117.646 118.423 117.741 118.369C117.838 118.314 117.886 118.22 117.886 118.085V118.056C117.886 117.706 117.79 117.434 117.598 117.24C117.409 117.045 117.121 116.948 116.736 116.948C116.335 116.948 116.022 117.036 115.795 117.211C115.567 117.386 115.407 117.573 115.315 117.772L114.52 117.488C114.662 117.157 114.851 116.899 115.088 116.714C115.327 116.527 115.587 116.397 115.869 116.323C116.153 116.248 116.433 116.21 116.707 116.21C116.882 116.21 117.084 116.231 117.311 116.274C117.54 116.314 117.762 116.398 117.975 116.526C118.19 116.654 118.369 116.847 118.511 117.105C118.653 117.363 118.724 117.708 118.724 118.142V121.735H117.886V120.997H117.844C117.787 121.115 117.692 121.242 117.559 121.377C117.427 121.512 117.25 121.626 117.03 121.721C116.81 121.816 116.541 121.863 116.224 121.863ZM116.352 121.11C116.683 121.11 116.963 121.045 117.19 120.915C117.42 120.785 117.593 120.617 117.709 120.411C117.827 120.205 117.886 119.988 117.886 119.761V118.994C117.851 119.036 117.773 119.076 117.652 119.111C117.533 119.144 117.396 119.174 117.24 119.2C117.086 119.224 116.936 119.245 116.789 119.264C116.644 119.28 116.527 119.295 116.437 119.306C116.219 119.335 116.016 119.381 115.826 119.445C115.639 119.506 115.488 119.6 115.372 119.725C115.258 119.849 115.201 120.017 115.201 120.23C115.201 120.521 115.309 120.741 115.525 120.89C115.742 121.037 116.018 121.11 116.352 121.11ZM122.314 121.849C121.859 121.849 121.458 121.734 121.11 121.505C120.762 121.273 120.489 120.946 120.293 120.524C120.096 120.101 119.998 119.6 119.998 119.022C119.998 118.449 120.096 117.952 120.293 117.531C120.489 117.109 120.763 116.784 121.113 116.554C121.464 116.325 121.868 116.21 122.328 116.21C122.683 116.21 122.963 116.269 123.169 116.387C123.378 116.503 123.536 116.636 123.645 116.785C123.756 116.932 123.843 117.053 123.904 117.147H123.975V114.463H124.814V121.735H124.004V120.897H123.904C123.843 120.997 123.755 121.122 123.642 121.274C123.528 121.423 123.366 121.557 123.155 121.675C122.944 121.791 122.664 121.849 122.314 121.849ZM122.427 121.096C122.763 121.096 123.047 121.009 123.279 120.833C123.511 120.656 123.688 120.411 123.809 120.098C123.929 119.783 123.99 119.42 123.99 119.008C123.99 118.601 123.93 118.245 123.812 117.939C123.694 117.631 123.519 117.392 123.287 117.222C123.055 117.049 122.768 116.963 122.427 116.963C122.072 116.963 121.776 117.054 121.539 117.236C121.305 117.416 121.129 117.661 121.01 117.971C120.894 118.279 120.836 118.625 120.836 119.008C120.836 119.396 120.895 119.749 121.014 120.066C121.135 120.381 121.312 120.632 121.546 120.819C121.783 121.004 122.077 121.096 122.427 121.096ZM127.303 114.463V121.735H126.465V114.463H127.303ZM128.838 121.735V116.281H129.676V121.735H128.838ZM129.264 115.372C129.101 115.372 128.96 115.316 128.841 115.205C128.725 115.094 128.667 114.96 128.667 114.804C128.667 114.647 128.725 114.514 128.841 114.402C128.96 114.291 129.101 114.235 129.264 114.235C129.427 114.235 129.567 114.291 129.683 114.402C129.801 114.514 129.861 114.647 129.861 114.804C129.861 114.96 129.801 115.094 129.683 115.205C129.567 115.316 129.427 115.372 129.264 115.372ZM132.049 118.454V121.735H131.211V116.281H132.021V117.133H132.092C132.219 116.856 132.414 116.634 132.674 116.465C132.934 116.295 133.271 116.21 133.682 116.21C134.052 116.21 134.375 116.286 134.652 116.437C134.929 116.586 135.144 116.813 135.298 117.119C135.452 117.422 135.529 117.805 135.529 118.269V121.735H134.691V118.326C134.691 117.898 134.58 117.564 134.357 117.325C134.135 117.083 133.829 116.963 133.441 116.963C133.173 116.963 132.934 117.021 132.724 117.137C132.515 117.253 132.351 117.422 132.23 117.644C132.109 117.867 132.049 118.137 132.049 118.454ZM139.347 121.849C138.822 121.849 138.369 121.733 137.987 121.501C137.609 121.267 137.316 120.94 137.11 120.521C136.907 120.099 136.805 119.609 136.805 119.051C136.805 118.492 136.907 118 137.11 117.573C137.316 117.145 137.603 116.811 137.97 116.572C138.339 116.331 138.77 116.21 139.262 116.21C139.546 116.21 139.827 116.257 140.104 116.352C140.381 116.447 140.633 116.6 140.86 116.813C141.087 117.024 141.269 117.304 141.404 117.652C141.538 118 141.606 118.428 141.606 118.937V119.292H137.401V118.568H140.754C140.754 118.26 140.692 117.985 140.569 117.744C140.448 117.502 140.275 117.312 140.051 117.172C139.828 117.032 139.565 116.963 139.262 116.963C138.928 116.963 138.64 117.045 138.396 117.211C138.154 117.375 137.968 117.588 137.838 117.85C137.708 118.113 137.643 118.395 137.643 118.696V119.179C137.643 119.59 137.714 119.94 137.856 120.226C138 120.51 138.2 120.727 138.456 120.876C138.712 121.023 139.009 121.096 139.347 121.096C139.568 121.096 139.766 121.065 139.944 121.004C140.124 120.94 140.279 120.845 140.409 120.72C140.539 120.592 140.64 120.433 140.711 120.244L141.521 120.471C141.436 120.746 141.292 120.987 141.091 121.196C140.89 121.402 140.641 121.563 140.345 121.679C140.049 121.792 139.717 121.849 139.347 121.849Z" fill="#2D2D2D" fill-opacity="0.7"/>
<circle cx="199.066" cy="113.142" r="3.83392" fill="#F7DCC9"/>
<circle cx="197.972" cy="114.237" r="3.83392" fill="white"/>
<rect x="19.9683" y="147.647" width="151.166" height="30.6714" rx="6" fill="#F7F3F0"/>
<path d="M34.3314 157.588V166.315H32.4862V159.339H32.4351L30.4365 160.592V158.956L32.597 157.588H34.3314ZM39.6613 166.434C39.0051 166.434 38.4213 166.328 37.9099 166.115C37.4014 165.899 37.0022 165.605 36.7124 165.233C36.4227 164.86 36.2778 164.439 36.2778 163.967C36.2778 163.603 36.3602 163.269 36.5249 162.966C36.6926 162.659 36.9198 162.404 37.2068 162.203C37.4937 161.998 37.8147 161.867 38.1698 161.811V161.751C37.7039 161.657 37.3261 161.431 37.0363 161.073C36.7465 160.713 36.6017 160.294 36.6017 159.816C36.6017 159.365 36.7338 158.963 36.998 158.61C37.2622 158.255 37.6244 157.977 38.0846 157.775C38.5477 157.571 39.0732 157.468 39.6613 157.468C40.2494 157.468 40.7735 157.571 41.2338 157.775C41.6968 157.98 42.0605 158.26 42.3247 158.615C42.5889 158.967 42.7224 159.367 42.7252 159.816C42.7224 160.296 42.5747 160.716 42.282 161.073C41.9894 161.431 41.6144 161.657 41.157 161.751V161.811C41.5065 161.867 41.8232 161.998 42.1073 162.203C42.3943 162.404 42.6215 162.659 42.7892 162.966C42.9596 163.269 43.0463 163.603 43.0491 163.967C43.0463 164.439 42.8999 164.86 42.6102 165.233C42.3204 165.605 41.9198 165.899 41.4085 166.115C40.8999 166.328 40.3176 166.434 39.6613 166.434ZM39.6613 165.079C39.9539 165.079 40.2096 165.027 40.4284 164.921C40.6471 164.814 40.8176 164.666 40.9397 164.478C41.0647 164.288 41.1272 164.069 41.1272 163.822C41.1272 163.569 41.0633 163.346 40.9355 163.153C40.8076 162.957 40.6343 162.804 40.4156 162.693C40.1968 162.579 39.9454 162.522 39.6613 162.522C39.3801 162.522 39.1286 162.579 38.907 162.693C38.6855 162.804 38.5107 162.957 38.3829 163.153C38.2579 163.346 38.1954 163.569 38.1954 163.822C38.1954 164.069 38.2565 164.288 38.3786 164.478C38.5008 164.666 38.6727 164.814 38.8943 164.921C39.1159 165.027 39.3715 165.079 39.6613 165.079ZM39.6613 161.18C39.9056 161.18 40.123 161.13 40.3133 161.031C40.5036 160.931 40.6528 160.794 40.7607 160.617C40.8687 160.441 40.9227 160.238 40.9227 160.008C40.9227 159.781 40.8687 159.582 40.7607 159.412C40.6528 159.238 40.5051 159.103 40.3176 159.007C40.1301 158.907 39.9113 158.858 39.6613 158.858C39.4142 158.858 39.1954 158.907 39.0051 159.007C38.8147 159.103 38.6656 159.238 38.5576 159.412C38.4525 159.582 38.3999 159.781 38.3999 160.008C38.3999 160.238 38.4539 160.441 38.5619 160.617C38.6698 160.794 38.819 160.931 39.0093 161.031C39.1997 161.13 39.417 161.18 39.6613 161.18Z" fill="#2D2D2D" fill-opacity="0.9"/>
<path d="M55.1048 158.838H54.1815L56.8519 151.565H57.761L60.4315 158.838H59.5082L57.3349 152.716H57.2781L55.1048 158.838ZM55.4457 155.997H59.1673V156.778H55.4457V155.997ZM63.6665 158.952C63.1552 158.952 62.7148 158.831 62.3455 158.589C61.9762 158.348 61.6921 158.015 61.4933 157.591C61.2944 157.168 61.195 156.684 61.195 156.139C61.195 155.585 61.2968 155.096 61.5004 154.672C61.7063 154.246 61.9928 153.914 62.3597 153.675C62.729 153.433 63.1599 153.312 63.6523 153.312C64.0359 153.312 64.3815 153.383 64.6893 153.525C64.997 153.667 65.2492 153.866 65.4457 154.122C65.6422 154.378 65.7641 154.676 65.8114 155.017H64.9734C64.9094 154.768 64.7674 154.548 64.5472 154.356C64.3294 154.162 64.0359 154.065 63.6665 154.065C63.3398 154.065 63.0534 154.15 62.8072 154.321C62.5633 154.489 62.3728 154.727 62.2354 155.035C62.1005 155.34 62.033 155.699 62.033 156.111C62.033 156.532 62.0993 156.899 62.2319 157.211C62.3668 157.524 62.5562 157.767 62.8001 157.939C63.0463 158.112 63.3351 158.199 63.6665 158.199C63.8844 158.199 64.082 158.161 64.2596 158.085C64.4371 158.009 64.5875 157.9 64.7106 157.758C64.8337 157.616 64.9213 157.446 64.9734 157.247H65.8114C65.7641 157.569 65.6469 157.859 65.4599 158.117C65.2752 158.373 65.0302 158.576 64.7248 158.728C64.4218 158.877 64.069 158.952 63.6665 158.952ZM69.4087 153.383V154.094H66.582V153.383H69.4087ZM67.4059 152.077H68.244V157.275C68.244 157.512 68.2783 157.69 68.3469 157.808C68.418 157.924 68.5079 158.002 68.6168 158.042C68.7281 158.08 68.8453 158.099 68.9684 158.099C69.0607 158.099 69.1365 158.095 69.1957 158.085C69.2549 158.073 69.3022 158.064 69.3377 158.057L69.5082 158.809C69.4513 158.831 69.372 158.852 69.2702 158.873C69.1684 158.897 69.0394 158.909 68.8832 158.909C68.6464 158.909 68.4144 158.858 68.1871 158.756C67.9622 158.654 67.7752 158.499 67.6261 158.291C67.4793 158.083 67.4059 157.82 67.4059 157.503V152.077ZM70.6694 158.838V153.383H71.5075V158.838H70.6694ZM71.0955 152.474C70.9322 152.474 70.7913 152.419 70.6729 152.307C70.5569 152.196 70.4989 152.062 70.4989 151.906C70.4989 151.75 70.5569 151.616 70.6729 151.505C70.7913 151.394 70.9322 151.338 71.0955 151.338C71.2589 151.338 71.3986 151.394 71.5146 151.505C71.6329 151.616 71.6921 151.75 71.6921 151.906C71.6921 152.062 71.6329 152.196 71.5146 152.307C71.3986 152.419 71.2589 152.474 71.0955 152.474ZM77.5027 153.383L75.4856 158.838H74.6333L72.6163 153.383H73.5254L75.0311 157.73H75.0879L76.5936 153.383H77.5027ZM80.7005 158.952C80.1749 158.952 79.7215 158.836 79.3404 158.604C78.9616 158.369 78.6692 158.042 78.4632 157.623C78.2596 157.202 78.1578 156.712 78.1578 156.153C78.1578 155.595 78.2596 155.102 78.4632 154.676C78.6692 154.247 78.9557 153.914 79.3226 153.675C79.6919 153.433 80.1228 153.312 80.6152 153.312C80.8993 153.312 81.1799 153.36 81.4569 153.454C81.7338 153.549 81.986 153.703 82.2132 153.916C82.4405 154.127 82.6216 154.406 82.7566 154.754C82.8915 155.102 82.959 155.531 82.959 156.04V156.395H78.7544V155.67H82.1067C82.1067 155.363 82.0452 155.088 81.9221 154.846C81.8013 154.605 81.6285 154.414 81.4036 154.275C81.181 154.135 80.9183 154.065 80.6152 154.065C80.2814 154.065 79.9926 154.148 79.7488 154.314C79.5073 154.477 79.3214 154.69 79.1912 154.953C79.061 155.216 78.9959 155.497 78.9959 155.798V156.281C78.9959 156.693 79.0669 157.042 79.209 157.329C79.3534 157.613 79.5534 157.829 79.8091 157.979C80.0648 158.125 80.3619 158.199 80.7005 158.199C80.9206 158.199 81.1195 158.168 81.2971 158.106C81.477 158.042 81.632 157.948 81.7623 157.822C81.8925 157.694 81.9931 157.536 82.0641 157.346L82.8738 157.574C82.7885 157.848 82.6453 158.09 82.4441 158.298C82.2428 158.504 81.9943 158.665 81.6983 158.781C81.4024 158.895 81.0698 158.952 80.7005 158.952ZM54.6928 170.883V163.383H55.5025V164.25H55.6019C55.6635 164.155 55.7487 164.034 55.8576 163.888C55.9689 163.738 56.1275 163.606 56.3335 163.49C56.5418 163.372 56.8235 163.312 57.1786 163.312C57.6379 163.312 58.0427 163.427 58.3931 163.657C58.7435 163.886 59.0169 164.212 59.2134 164.633C59.4099 165.055 59.5082 165.552 59.5082 166.125C59.5082 166.702 59.4099 167.203 59.2134 167.627C59.0169 168.048 58.7447 168.375 58.3967 168.607C58.0487 168.837 57.6474 168.952 57.1928 168.952C56.8424 168.952 56.5619 168.894 56.3512 168.778C56.1405 168.659 55.9783 168.525 55.8647 168.376C55.7511 168.225 55.6635 168.099 55.6019 168H55.5309V170.883H54.6928ZM55.5167 166.111C55.5167 166.523 55.5771 166.886 55.6978 167.201C55.8185 167.513 55.9949 167.758 56.2269 167.936C56.4589 168.111 56.743 168.199 57.0792 168.199C57.4296 168.199 57.7219 168.106 57.9563 167.922C58.1931 167.735 58.3706 167.484 58.489 167.169C58.6097 166.852 58.6701 166.499 58.6701 166.111C58.6701 165.727 58.6109 165.381 58.4925 165.074C58.3765 164.764 58.2002 164.519 57.9634 164.339C57.729 164.156 57.4343 164.065 57.0792 164.065C56.7383 164.065 56.4518 164.152 56.2198 164.324C55.9878 164.495 55.8126 164.734 55.6942 165.042C55.5759 165.347 55.5167 165.703 55.5167 166.111ZM60.7866 168.838V163.383H61.5962V164.207H61.6531C61.7525 163.937 61.9324 163.718 62.1928 163.55C62.4532 163.382 62.7468 163.298 63.0735 163.298C63.1351 163.298 63.212 163.299 63.3043 163.302C63.3967 163.304 63.4665 163.308 63.5138 163.312V164.165C63.4854 164.157 63.4203 164.147 63.3185 164.133C63.2191 164.116 63.1138 164.108 63.0025 164.108C62.7373 164.108 62.5006 164.163 62.2923 164.275C62.0863 164.384 61.9229 164.535 61.8022 164.729C61.6838 164.921 61.6246 165.14 61.6246 165.386V168.838H60.7866ZM66.5572 168.952C66.0647 168.952 65.6327 168.834 65.261 168.6C64.8917 168.366 64.6029 168.038 64.3945 167.616C64.1886 167.195 64.0856 166.702 64.0856 166.139C64.0856 165.571 64.1886 165.075 64.3945 164.651C64.6029 164.227 64.8917 163.898 65.261 163.664C65.6327 163.43 66.0647 163.312 66.5572 163.312C67.0496 163.312 67.4805 163.43 67.8498 163.664C68.2215 163.898 68.5103 164.227 68.7163 164.651C68.9246 165.075 69.0288 165.571 69.0288 166.139C69.0288 166.702 68.9246 167.195 68.7163 167.616C68.5103 168.038 68.2215 168.366 67.8498 168.6C67.4805 168.834 67.0496 168.952 66.5572 168.952ZM66.5572 168.199C66.9312 168.199 67.239 168.103 67.4805 167.911C67.7219 167.719 67.9007 167.467 68.0167 167.155C68.1327 166.842 68.1907 166.504 68.1907 166.139C68.1907 165.774 68.1327 165.435 68.0167 165.12C67.9007 164.805 67.7219 164.55 67.4805 164.356C67.239 164.162 66.9312 164.065 66.5572 164.065C66.1831 164.065 65.8754 164.162 65.6339 164.356C65.3924 164.55 65.2137 164.805 65.0977 165.12C64.9817 165.435 64.9237 165.774 64.9237 166.139C64.9237 166.504 64.9817 166.842 65.0977 167.155C65.2137 167.467 65.3924 167.719 65.6339 167.911C65.8754 168.103 66.1831 168.199 66.5572 168.199ZM70.3081 163.383H71.1461V169.236C71.1461 169.572 71.0881 169.863 70.9721 170.109C70.8585 170.355 70.6857 170.546 70.4537 170.681C70.224 170.816 69.934 170.883 69.5836 170.883C69.5552 170.883 69.5268 170.883 69.4984 170.883C69.47 170.883 69.4416 170.883 69.4132 170.883V170.102C69.4416 170.102 69.4676 170.102 69.4913 170.102C69.515 170.102 69.541 170.102 69.5694 170.102C69.8251 170.102 70.0121 170.026 70.1305 169.875C70.2489 169.726 70.3081 169.513 70.3081 169.236V163.383ZM70.72 162.474C70.5566 162.474 70.4158 162.419 70.2974 162.307C70.1814 162.196 70.1234 162.062 70.1234 161.906C70.1234 161.75 70.1814 161.616 70.2974 161.505C70.4158 161.394 70.5566 161.338 70.72 161.338C70.8833 161.338 71.023 161.394 71.139 161.505C71.2574 161.616 71.3166 161.75 71.3166 161.906C71.3166 162.062 71.2574 162.196 71.139 162.307C71.023 162.419 70.8833 162.474 70.72 162.474ZM74.968 168.952C74.4425 168.952 73.9891 168.836 73.608 168.604C73.2292 168.369 72.9368 168.042 72.7308 167.623C72.5272 167.202 72.4254 166.712 72.4254 166.153C72.4254 165.595 72.5272 165.102 72.7308 164.676C72.9368 164.247 73.2232 163.914 73.5902 163.675C73.9595 163.433 74.3904 163.312 74.8828 163.312C75.1669 163.312 75.4474 163.36 75.7244 163.454C76.0014 163.549 76.2536 163.703 76.4808 163.916C76.7081 164.127 76.8892 164.406 77.0241 164.754C77.1591 165.102 77.2266 165.531 77.2266 166.04V166.395H73.022V165.67H76.3743C76.3743 165.363 76.3127 165.088 76.1896 164.846C76.0689 164.605 75.8961 164.414 75.6712 164.275C75.4486 164.135 75.1858 164.065 74.8828 164.065C74.549 164.065 74.2602 164.148 74.0163 164.314C73.7749 164.477 73.589 164.69 73.4588 164.953C73.3286 165.216 73.2635 165.497 73.2635 165.798V166.281C73.2635 166.693 73.3345 167.042 73.4766 167.329C73.621 167.613 73.821 167.829 74.0767 167.979C74.3324 168.125 74.6295 168.199 74.968 168.199C75.1882 168.199 75.3871 168.168 75.5646 168.106C75.7446 168.042 75.8996 167.948 76.0298 167.822C76.16 167.694 76.2607 167.536 76.3317 167.346L77.1413 167.574C77.0561 167.848 76.9129 168.09 76.7116 168.298C76.5104 168.504 76.2618 168.665 75.9659 168.781C75.67 168.895 75.3374 168.952 74.968 168.952ZM80.7173 168.952C80.206 168.952 79.7656 168.831 79.3963 168.589C79.027 168.348 78.7429 168.015 78.544 167.591C78.3452 167.168 78.2457 166.684 78.2457 166.139C78.2457 165.585 78.3475 165.096 78.5511 164.672C78.7571 164.246 79.0436 163.914 79.4105 163.675C79.7798 163.433 80.2107 163.312 80.7031 163.312C81.0866 163.312 81.4323 163.383 81.7401 163.525C82.0478 163.667 82.3 163.866 82.4964 164.122C82.6929 164.378 82.8149 164.676 82.8622 165.017H82.0241C81.9602 164.768 81.8182 164.548 81.598 164.356C81.3802 164.162 81.0866 164.065 80.7173 164.065C80.3906 164.065 80.1042 164.15 79.858 164.321C79.6141 164.489 79.4235 164.727 79.2862 165.035C79.1513 165.34 79.0838 165.699 79.0838 166.111C79.0838 166.532 79.1501 166.899 79.2827 167.211C79.4176 167.524 79.607 167.767 79.8509 167.939C80.0971 168.112 80.3859 168.199 80.7173 168.199C80.9351 168.199 81.1328 168.161 81.3104 168.085C81.4879 168.009 81.6383 167.9 81.7614 167.758C81.8845 167.616 81.9721 167.446 82.0241 167.247H82.8622C82.8149 167.569 82.6977 167.859 82.5107 168.117C82.326 168.373 82.081 168.576 81.7756 168.728C81.4725 168.877 81.1198 168.952 80.7173 168.952ZM86.4595 163.383V164.094H83.6328V163.383H86.4595ZM84.4567 162.077H85.2947V167.275C85.2947 167.512 85.3291 167.69 85.3977 167.808C85.4688 167.924 85.5587 168.002 85.6676 168.042C85.7789 168.08 85.8961 168.099 86.0192 168.099C86.1115 168.099 86.1873 168.095 86.2464 168.085C86.3056 168.073 86.353 168.064 86.3885 168.057L86.5589 168.809C86.5021 168.831 86.4228 168.852 86.321 168.873C86.2192 168.897 86.0902 168.909 85.9339 168.909C85.6972 168.909 85.4652 168.858 85.2379 168.756C85.013 168.654 84.826 168.499 84.6768 168.291C84.5301 168.083 84.4567 167.82 84.4567 167.503V162.077ZM91.4862 164.605L90.7333 164.818C90.686 164.693 90.6161 164.571 90.5238 164.452C90.4338 164.331 90.3107 164.232 90.1545 164.154C89.9982 164.076 89.7982 164.037 89.5543 164.037C89.2205 164.037 88.9424 164.114 88.7198 164.268C88.4996 164.419 88.3896 164.612 88.3896 164.846C88.3896 165.055 88.4653 165.219 88.6168 165.34C88.7683 165.461 89.0051 165.561 89.3271 165.642L90.1367 165.841C90.6244 165.959 90.9878 166.14 91.2269 166.384C91.466 166.626 91.5856 166.937 91.5856 167.318C91.5856 167.631 91.4956 167.91 91.3157 168.156C91.1381 168.402 90.8896 168.596 90.57 168.738C90.2504 168.881 89.8787 168.952 89.4549 168.952C88.8986 168.952 88.4381 168.831 88.0735 168.589C87.7089 168.348 87.4781 167.995 87.381 167.531L88.1765 167.332C88.2522 167.626 88.3955 167.846 88.6062 167.993C88.8192 168.14 89.0974 168.213 89.4407 168.213C89.8313 168.213 90.1415 168.13 90.3711 167.964C90.6031 167.796 90.7191 167.595 90.7191 167.361C90.7191 167.171 90.6528 167.013 90.5202 166.885C90.3877 166.755 90.1841 166.657 89.9094 166.594L89.0004 166.381C88.5008 166.262 88.1339 166.079 87.8995 165.83C87.6675 165.579 87.5515 165.265 87.5515 164.889C87.5515 164.581 87.6379 164.309 87.8107 164.072C87.9859 163.836 88.2238 163.65 88.5245 163.515C88.8275 163.38 89.1708 163.312 89.5543 163.312C90.0941 163.312 90.5179 163.431 90.8256 163.667C91.1358 163.904 91.3559 164.217 91.4862 164.605Z" fill="#2D2D2D" fill-opacity="0.7"/>
<circle cx="156.346" cy="162.435" r="3.83392" fill="#F7DCC9"/>
<circle cx="155.251" cy="163.53" r="3.83392" fill="white"/>
<circle cx="199.615" cy="60.0141" r="16.4311" fill="#D6EADE"/>
<circle cx="199.616" cy="60.0141" r="7.0419" fill="#FCFCFA"/>
<path d="M201.85 58.8032L198.256 62.3975L196.459 60.6004" stroke="#051B2A" stroke-linecap="round" stroke-linejoin="round"/>
<circle cx="35.8517" cy="114.237" r="15.8834" fill="#F3B545"/>
<path d="M35.8535 107.785C36.9742 107.785 38.0755 108.076 39.0491 108.631C40.0227 109.186 40.8351 109.985 41.4061 110.949C41.9771 111.914 42.2872 113.01 42.3058 114.13C42.3243 115.251 42.0508 116.357 41.512 117.34L42.0394 119.195C42.089 119.365 42.0921 119.546 42.0485 119.719C42.0049 119.891 41.916 120.048 41.7912 120.175C41.6663 120.3 41.5099 120.39 41.3384 120.433C41.1669 120.477 40.9867 120.474 40.8171 120.423L38.9557 119.896C38.0932 120.369 37.1339 120.638 36.1513 120.683C35.1686 120.728 34.1887 120.548 33.2863 120.157C32.3839 119.765 31.5829 119.173 30.9447 118.424C30.3064 117.676 29.8477 116.791 29.6036 115.838C29.3595 114.886 29.3365 113.889 29.5364 112.926C29.7362 111.963 30.1536 111.058 30.7567 110.281C31.3598 109.504 32.1325 108.875 33.0159 108.443C33.8993 108.01 34.8699 107.785 35.8535 107.785ZM33.8681 115.726H37.8389C37.9706 115.726 38.0968 115.674 38.1899 115.581C38.283 115.488 38.3353 115.362 38.3353 115.23C38.3353 115.098 38.283 114.972 38.1899 114.879C38.0968 114.786 37.9706 114.734 37.8389 114.734H33.8681C33.7365 114.734 33.6102 114.786 33.5171 114.879C33.424 114.972 33.3717 115.098 33.3717 115.23C33.3717 115.362 33.424 115.488 33.5171 115.581C33.6102 115.674 33.7365 115.726 33.8681 115.726ZM33.8681 113.741H37.8389C37.9706 113.741 38.0968 113.689 38.1899 113.596C38.283 113.502 38.3353 113.376 38.3353 113.245C38.3353 113.113 38.283 112.987 38.1899 112.894C38.0968 112.801 37.9706 112.748 37.8389 112.748H33.8681C33.7365 112.748 33.6102 112.801 33.5171 112.894C33.424 112.987 33.3717 113.113 33.3717 113.245C33.3717 113.376 33.424 113.502 33.5171 113.596C33.6102 113.689 33.7365 113.741 33.8681 113.741Z" fill="#9B7301"/>
<circle cx="200.711" cy="164.078" r="15.3357" fill="#F7DCC9"/>
<g opacity="0.5">
<path d="M205.971 163.491C205.954 163.414 205.917 163.342 205.865 163.282C205.812 163.223 205.746 163.177 205.672 163.149L202.221 161.855L203.096 157.464C203.116 157.363 203.103 157.257 203.059 157.163C203.015 157.07 202.942 156.992 202.85 156.943C202.758 156.894 202.652 156.877 202.55 156.894C202.447 156.912 202.352 156.962 202.281 157.039L195.572 164.228C195.517 164.285 195.477 164.355 195.456 164.431C195.435 164.507 195.434 164.588 195.452 164.665C195.471 164.742 195.508 164.813 195.56 164.872C195.612 164.932 195.678 164.978 195.752 165.006L199.202 166.3L198.328 170.691C198.307 170.793 198.32 170.899 198.365 170.992C198.409 171.086 198.482 171.163 198.573 171.213C198.642 171.247 198.718 171.266 198.795 171.266C198.86 171.267 198.924 171.254 198.984 171.228C199.044 171.202 199.098 171.164 199.142 171.117L205.852 163.928C205.907 163.871 205.946 163.801 205.967 163.725C205.988 163.648 205.99 163.568 205.971 163.491Z" fill="#051B2A"/>
</g>
</svg>
