<svg width="388" height="310" viewBox="0 0 388 310" fill="none" xmlns="http://www.w3.org/2000/svg">
<rect x="47.9092" width="292" height="310" rx="10" fill="white"/>
<path d="M158.682 205C158.059 205 157.579 204.798 157.241 204.395C156.963 204.05 156.823 203.614 156.823 203.086V198.29L157.56 197.905V203.064C157.56 203.9 157.964 204.318 158.77 204.318H159.155V205H158.682ZM156.735 207.596L156.944 207.2H157.23C157.157 207.068 157.12 206.936 157.12 206.804C157.12 206.599 157.197 206.419 157.351 206.265C157.505 206.118 157.689 206.045 157.901 206.045C158.063 206.045 158.22 206.093 158.374 206.188V206.606C158.228 206.496 158.085 206.441 157.945 206.441C157.828 206.441 157.729 206.478 157.648 206.551C157.568 206.632 157.527 206.723 157.527 206.826C157.527 206.951 157.579 207.075 157.681 207.2H158.649L158.44 207.596H156.735ZM160.882 198.84C160.582 198.84 160.431 198.686 160.431 198.378C160.431 198.085 160.582 197.938 160.882 197.938C161.168 197.938 161.311 198.085 161.311 198.378C161.311 198.686 161.168 198.84 160.882 198.84ZM162.587 204.318H162.972V205H162.499C161.839 205 161.344 204.776 161.014 204.329C160.67 204.776 160.171 205 159.518 205H159.045V204.318H159.43C160.237 204.318 160.64 203.9 160.64 203.064V200.677L161.377 200.292V203.064C161.377 203.9 161.781 204.318 162.587 204.318ZM168.68 198.059C168.416 198.059 168.284 197.92 168.284 197.641C168.284 197.377 168.416 197.245 168.68 197.245C168.944 197.245 169.076 197.377 169.076 197.641C169.076 197.92 168.944 198.059 168.68 198.059ZM168.064 199.203C167.764 199.203 167.613 199.053 167.613 198.752C167.613 198.451 167.764 198.301 168.064 198.301C168.35 198.301 168.493 198.451 168.493 198.752C168.493 199.053 168.35 199.203 168.064 199.203ZM169.318 199.203C169.025 199.203 168.878 199.053 168.878 198.752C168.878 198.451 169.025 198.301 169.318 198.301C169.612 198.301 169.758 198.451 169.758 198.752C169.758 199.053 169.612 199.203 169.318 199.203ZM162.861 205V204.318H163.532C164.346 204.318 164.753 203.9 164.753 203.064V201.48L165.49 201.095V203.064C165.49 203.9 165.894 204.318 166.7 204.318H167.107C167.914 204.318 168.317 203.9 168.317 203.064V201.084L169.054 200.688V203.064C169.054 203.9 169.461 204.318 170.275 204.318H170.671C171.485 204.318 171.892 203.9 171.892 203.064V200.677L172.629 200.292V203.086C172.629 203.695 172.45 204.171 172.09 204.516C171.768 204.831 171.331 204.993 170.781 205H170.176C169.494 205 168.999 204.758 168.691 204.274C168.376 204.758 167.885 205 167.217 205H166.612C165.93 205 165.432 204.758 165.116 204.274C164.808 204.758 164.313 205 163.631 205H162.861ZM174.717 205V198.29L175.454 197.905V205H174.717ZM176.94 205.594V204.89C177.211 204.685 177.596 204.542 178.095 204.461C177.721 203.948 177.534 203.383 177.534 202.767C177.534 202.173 177.677 201.682 177.963 201.293C178.256 200.897 178.652 200.655 179.151 200.567C179.261 200.545 179.371 200.534 179.481 200.534C180.119 200.534 180.643 200.794 181.054 201.315V202.052C180.599 201.487 180.086 201.205 179.514 201.205C179.426 201.205 179.341 201.212 179.261 201.227C178.601 201.359 178.271 201.858 178.271 202.723C178.271 203.398 178.502 203.94 178.964 204.351C179.059 204.344 179.191 204.34 179.36 204.34C180.32 204.325 181.083 204.116 181.648 203.713V204.395C181.032 204.798 180.229 205 179.239 205C178.271 205 177.504 205.198 176.94 205.594ZM188.566 199.962C188.265 199.962 188.115 199.808 188.115 199.5C188.115 199.207 188.265 199.06 188.566 199.06C188.852 199.06 188.995 199.207 188.995 199.5C188.995 199.808 188.852 199.962 188.566 199.962ZM192.636 204.318H193.021V205H192.548C192.093 205 191.716 204.894 191.415 204.681C191.364 205.451 191.056 206.056 190.491 206.496C189.992 206.892 189.362 207.09 188.599 207.09C187.668 207.09 186.945 206.76 186.432 206.1C186.029 205.594 185.827 204.989 185.827 204.285C185.827 203.654 185.988 203.112 186.311 202.657L187.026 202.514C186.674 203.049 186.498 203.621 186.498 204.23C186.498 204.875 186.707 205.407 187.125 205.825C187.514 206.214 188.005 206.408 188.599 206.408C189.296 206.408 189.835 206.203 190.216 205.792C190.531 205.455 190.689 205.011 190.689 204.461V200.677L191.426 200.292V203.064C191.426 203.9 191.829 204.318 192.636 204.318ZM192.909 205V204.318H193.58C194.394 204.318 194.801 203.9 194.801 203.064V201.48L195.538 201.095V203.064C195.538 203.9 195.942 204.318 196.748 204.318H197.155C197.962 204.318 198.365 203.9 198.365 203.064V201.084L199.102 200.688V203.064C199.102 203.9 199.509 204.318 200.323 204.318H200.719C201.533 204.318 201.94 203.9 201.94 203.064V200.677L202.677 200.292V203.02C202.677 203.885 203.095 204.318 203.931 204.318H204.569V205H203.854C203.158 205 202.648 204.754 202.325 204.263C202.003 204.754 201.504 205 200.829 205H200.224C199.542 205 199.047 204.758 198.739 204.274C198.424 204.758 197.933 205 197.265 205H196.66C195.978 205 195.48 204.758 195.164 204.274C194.856 204.758 194.361 205 193.679 205H192.909ZM207.54 198.84C207.239 198.84 207.089 198.686 207.089 198.378C207.089 198.085 207.239 197.938 207.54 197.938C207.826 197.938 207.969 198.085 207.969 198.378C207.969 198.686 207.826 198.84 207.54 198.84ZM204.46 205V204.318H205.692C207.291 204.318 208.537 203.775 209.432 202.69C208.779 201.443 207.991 200.82 207.067 200.82C206.436 200.82 205.82 201.139 205.219 201.777V201.051C205.82 200.457 206.447 200.16 207.1 200.16H207.122C208.273 200.16 209.271 200.937 210.114 202.492V202.943C209.043 204.314 207.566 205 205.681 205H204.46ZM212.905 198.785C212.611 198.785 212.465 198.631 212.465 198.323C212.465 198.03 212.611 197.883 212.905 197.883C213.198 197.883 213.345 198.03 213.345 198.323C213.345 198.631 213.198 198.785 212.905 198.785ZM214.159 198.785C213.865 198.785 213.719 198.631 213.719 198.323C213.719 198.03 213.865 197.883 214.159 197.883C214.452 197.883 214.599 198.03 214.599 198.323C214.599 198.631 214.452 198.785 214.159 198.785ZM213.554 205C212.901 205 212.391 204.784 212.025 204.351C211.717 203.977 211.563 203.493 211.563 202.899C211.563 201.542 212.245 200.629 213.609 200.16C214.973 200.629 215.655 201.542 215.655 202.899C215.655 203.581 215.453 204.113 215.05 204.494C214.698 204.831 214.236 205 213.664 205H213.554ZM213.521 204.318H213.697C214.078 204.318 214.379 204.193 214.599 203.944C214.819 203.687 214.929 203.339 214.929 202.899C214.929 201.924 214.489 201.234 213.609 200.831C212.729 201.234 212.289 201.924 212.289 202.899C212.289 203.332 212.399 203.676 212.619 203.933C212.839 204.19 213.139 204.318 213.521 204.318ZM222.111 205C221.488 205 221.008 204.798 220.67 204.395C220.392 204.05 220.252 203.614 220.252 203.086V198.29L220.989 197.905V203.064C220.989 203.9 221.393 204.318 222.199 204.318H222.584V205H222.111ZM220.164 207.596L220.373 207.2H220.659C220.586 207.068 220.549 206.936 220.549 206.804C220.549 206.599 220.626 206.419 220.78 206.265C220.934 206.118 221.118 206.045 221.33 206.045C221.492 206.045 221.649 206.093 221.803 206.188V206.606C221.657 206.496 221.514 206.441 221.374 206.441C221.257 206.441 221.158 206.478 221.077 206.551C220.997 206.632 220.956 206.723 220.956 206.826C220.956 206.951 221.008 207.075 221.11 207.2H222.078L221.869 207.596H220.164ZM230.328 205H227.611C227.215 205 226.812 204.916 226.401 204.747C225.983 204.916 225.576 205 225.18 205H222.474V204.318H225.136C225.283 204.318 225.433 204.307 225.587 204.285C225.008 203.867 224.377 203.178 223.695 202.217V201.766C224.458 200.695 225.356 200.16 226.39 200.16C227.417 200.16 228.319 200.703 229.096 201.788V202.217C228.414 203.178 227.787 203.867 227.215 204.285C227.362 204.307 227.508 204.318 227.655 204.318H230.317L230.328 205ZM224.333 201.997C225.103 203.024 225.789 203.691 226.39 203.999C226.984 203.691 227.673 203.02 228.458 201.986C227.871 201.216 227.182 200.831 226.39 200.831H226.357C225.609 200.831 224.934 201.22 224.333 201.997ZM230.222 205V204.318H230.53C231.366 204.318 231.784 203.885 231.784 203.02V198.29L232.521 197.905V203.031C232.521 203.654 232.337 204.146 231.971 204.505C231.626 204.835 231.171 205 230.607 205H230.222ZM236.47 205C235.847 205 235.367 204.798 235.029 204.395C234.751 204.05 234.611 203.614 234.611 203.086V198.29L235.348 197.905V203.064C235.348 203.9 235.752 204.318 236.558 204.318H236.943V205H236.47ZM238.67 198.84C238.37 198.84 238.219 198.686 238.219 198.378C238.219 198.085 238.37 197.938 238.67 197.938C238.956 197.938 239.099 198.085 239.099 198.378C239.099 198.686 238.956 198.84 238.67 198.84ZM240.375 204.318H240.76V205H240.287C239.627 205 239.132 204.776 238.802 204.329C238.458 204.776 237.959 205 237.306 205H236.833V204.318H237.218C238.025 204.318 238.428 203.9 238.428 203.064V200.677L239.165 200.292V203.064C239.165 203.9 239.569 204.318 240.375 204.318ZM240.649 205V204.318H241.034C241.841 204.318 242.244 203.9 242.244 203.064V200.677L242.981 200.292V203.086C242.981 203.702 242.802 204.182 242.442 204.527C242.112 204.842 241.672 205 241.122 205H240.649ZM241.012 207.057C240.712 207.057 240.561 206.903 240.561 206.595C240.561 206.302 240.712 206.155 241.012 206.155C241.298 206.155 241.441 206.302 241.441 206.595C241.441 206.903 241.298 207.057 241.012 207.057ZM242.266 207.057C241.966 207.057 241.815 206.903 241.815 206.595C241.815 206.302 241.966 206.155 242.266 206.155C242.552 206.155 242.695 206.302 242.695 206.595C242.695 206.903 242.552 207.057 242.266 207.057ZM246.215 198.785C245.922 198.785 245.775 198.631 245.775 198.323C245.775 198.03 245.922 197.883 246.215 197.883C246.509 197.883 246.655 198.03 246.655 198.323C246.655 198.631 246.509 198.785 246.215 198.785ZM247.469 198.785C247.176 198.785 247.029 198.631 247.029 198.323C247.029 198.03 247.176 197.883 247.469 197.883C247.763 197.883 247.909 198.03 247.909 198.323C247.909 198.631 247.763 198.785 247.469 198.785ZM246.864 205C246.212 205 245.702 204.784 245.335 204.351C245.027 203.977 244.873 203.493 244.873 202.899C244.873 201.542 245.555 200.629 246.919 200.16C248.283 200.629 248.965 201.542 248.965 202.899C248.965 203.581 248.764 204.113 248.36 204.494C248.008 204.831 247.546 205 246.974 205H246.864ZM246.831 204.318H247.007C247.389 204.318 247.689 204.193 247.909 203.944C248.129 203.687 248.239 203.339 248.239 202.899C248.239 201.924 247.799 201.234 246.919 200.831C246.039 201.234 245.599 201.924 245.599 202.899C245.599 203.332 245.709 203.676 245.929 203.933C246.149 204.19 246.45 204.318 246.831 204.318ZM260.174 198.873C259.873 198.873 259.723 198.719 259.723 198.411C259.723 198.118 259.873 197.971 260.174 197.971C260.46 197.971 260.603 198.118 260.603 198.411C260.603 198.719 260.46 198.873 260.174 198.873ZM261.263 204.318H263.188V205H260.79C260.541 205 260.313 204.974 260.108 204.923C259.903 204.974 259.675 205 259.426 205H255.345C254.802 205 254.37 204.831 254.047 204.494C253.724 204.149 253.563 203.687 253.563 203.108V201.667L254.3 201.282V203.02C254.3 203.885 254.703 204.318 255.51 204.318H258.953C258.381 203.79 258.095 203.156 258.095 202.415C258.095 201.704 258.293 201.139 258.689 200.721C259.048 200.347 259.521 200.16 260.108 200.16C260.775 200.16 261.292 200.402 261.659 200.886C261.967 201.289 262.121 201.799 262.121 202.415C262.121 203.156 261.835 203.79 261.263 204.318ZM260.152 204.219C260.526 204.087 260.83 203.852 261.065 203.515C261.3 203.178 261.417 202.807 261.417 202.404C261.417 201.92 261.3 201.539 261.065 201.26C260.83 200.974 260.511 200.831 260.108 200.831C259.705 200.831 259.382 200.974 259.14 201.26C258.905 201.539 258.788 201.916 258.788 202.393C258.788 202.796 258.905 203.17 259.14 203.515C259.382 203.852 259.69 204.087 260.064 204.219L260.108 204.23L260.13 204.219H260.152ZM268.711 204.318V205H263.079V204.318H264.927C264.465 203.849 264.234 203.225 264.234 202.448C264.234 201.707 264.487 201.121 264.993 200.688C265.396 200.343 265.869 200.167 266.412 200.16C267.167 200.16 267.757 200.457 268.183 201.051V201.777C267.743 201.146 267.178 200.831 266.489 200.831H266.456C266.016 200.831 265.656 200.981 265.378 201.282C265.106 201.583 264.971 201.979 264.971 202.47C264.971 203.035 265.139 203.486 265.477 203.823C265.799 204.153 266.232 204.318 266.775 204.318H268.711ZM274.373 198.29L275.099 197.905V203.031C275.099 203.654 274.916 204.146 274.549 204.505C274.212 204.835 273.761 205 273.196 205H269.588L269.94 204.318H271.623V199.72L272.349 199.335V204.318H273.119C273.955 204.318 274.373 203.885 274.373 203.02V198.29ZM278.337 198.785C278.043 198.785 277.897 198.631 277.897 198.323C277.897 198.03 278.043 197.883 278.337 197.883C278.63 197.883 278.777 198.03 278.777 198.323C278.777 198.631 278.63 198.785 278.337 198.785ZM279.591 198.785C279.297 198.785 279.151 198.631 279.151 198.323C279.151 198.03 279.297 197.883 279.591 197.883C279.884 197.883 280.031 198.03 280.031 198.323C280.031 198.631 279.884 198.785 279.591 198.785ZM278.986 205C278.333 205 277.823 204.784 277.457 204.351C277.149 203.977 276.995 203.493 276.995 202.899C276.995 201.542 277.677 200.629 279.041 200.16C280.405 200.629 281.087 201.542 281.087 202.899C281.087 203.581 280.885 204.113 280.482 204.494C280.13 204.831 279.668 205 279.096 205H278.986ZM278.953 204.318H279.129C279.51 204.318 279.811 204.193 280.031 203.944C280.251 203.687 280.361 203.339 280.361 202.899C280.361 201.924 279.921 201.234 279.041 200.831C278.161 201.234 277.721 201.924 277.721 202.899C277.721 203.332 277.831 203.676 278.051 203.933C278.271 204.19 278.571 204.318 278.953 204.318ZM292.383 204.318H292.768V205H292.295C291.826 205 291.433 204.883 291.118 204.648C291.059 205.425 290.748 206.038 290.183 206.485C289.677 206.888 289.039 207.09 288.269 207.09C287.316 207.09 286.582 206.764 286.069 206.111C285.666 205.605 285.464 205 285.464 204.296C285.464 203.658 285.625 203.119 285.948 202.679L286.674 202.514C286.315 203.042 286.135 203.621 286.135 204.252C286.135 204.897 286.344 205.425 286.762 205.836C287.158 206.225 287.66 206.419 288.269 206.419C288.973 206.419 289.519 206.206 289.908 205.781C290.238 205.429 290.403 204.971 290.403 204.406V198.29L291.129 197.905V203.075V203.097C291.129 203.911 291.547 204.318 292.383 204.318ZM296.163 204.318H296.548V205H296.075C295.4 205 294.898 204.769 294.568 204.307C294.223 204.769 293.714 205 293.039 205H292.654V204.318H292.962C293.798 204.318 294.216 203.885 294.216 203.02V198.29L294.953 197.905V203.064C294.953 203.9 295.356 204.318 296.163 204.318ZM299.738 198.84C299.437 198.84 299.287 198.686 299.287 198.378C299.287 198.085 299.437 197.938 299.738 197.938C300.024 197.938 300.167 198.085 300.167 198.378C300.167 198.686 300.024 198.84 299.738 198.84ZM302.07 204.318V205H296.438V204.318H298.286C297.824 203.849 297.593 203.225 297.593 202.448C297.593 201.707 297.846 201.121 298.352 200.688C298.755 200.343 299.228 200.167 299.771 200.16C300.526 200.16 301.117 200.457 301.542 201.051V201.777C301.102 201.146 300.537 200.831 299.848 200.831H299.815C299.375 200.831 299.016 200.981 298.737 201.282C298.466 201.583 298.33 201.979 298.33 202.47C298.33 203.035 298.499 203.486 298.836 203.823C299.159 204.153 299.591 204.318 300.134 204.318H302.07ZM305.576 205C304.953 205 304.473 204.798 304.135 204.395C303.857 204.05 303.717 203.614 303.717 203.086V198.29L304.454 197.905V203.064C304.454 203.9 304.858 204.318 305.664 204.318H306.049V205H305.576ZM305.939 205V204.318H306.324C307.131 204.318 307.534 203.9 307.534 203.064V200.677L308.271 200.292V203.086C308.271 203.702 308.092 204.182 307.732 204.527C307.402 204.842 306.962 205 306.412 205H305.939ZM306.302 207.057C306.002 207.057 305.851 206.903 305.851 206.595C305.851 206.302 306.002 206.155 306.302 206.155C306.588 206.155 306.731 206.302 306.731 206.595C306.731 206.903 306.588 207.057 306.302 207.057ZM307.556 207.057C307.256 207.057 307.105 206.903 307.105 206.595C307.105 206.302 307.256 206.155 307.556 206.155C307.842 206.155 307.985 206.302 307.985 206.595C307.985 206.903 307.842 207.057 307.556 207.057ZM311.505 198.785C311.212 198.785 311.065 198.631 311.065 198.323C311.065 198.03 311.212 197.883 311.505 197.883C311.798 197.883 311.945 198.03 311.945 198.323C311.945 198.631 311.798 198.785 311.505 198.785ZM312.759 198.785C312.466 198.785 312.319 198.631 312.319 198.323C312.319 198.03 312.466 197.883 312.759 197.883C313.052 197.883 313.199 198.03 313.199 198.323C313.199 198.631 313.052 198.785 312.759 198.785ZM312.154 205C311.501 205 310.992 204.784 310.625 204.351C310.317 203.977 310.163 203.493 310.163 202.899C310.163 201.542 310.845 200.629 312.209 200.16C313.573 200.629 314.255 201.542 314.255 202.899C314.255 203.581 314.053 204.113 313.65 204.494C313.298 204.831 312.836 205 312.264 205H312.154ZM312.121 204.318H312.297C312.678 204.318 312.979 204.193 313.199 203.944C313.419 203.687 313.529 203.339 313.529 202.899C313.529 201.924 313.089 201.234 312.209 200.831C311.329 201.234 310.889 201.924 310.889 202.899C310.889 203.332 310.999 203.676 311.219 203.933C311.439 204.19 311.74 204.318 312.121 204.318Z" fill="#2D2D2D" fill-opacity="0.7"/>
<path d="M115.873 236.318H116.258V237H115.785C115.11 237 114.608 236.769 114.278 236.307C113.933 236.769 113.424 237 112.749 237H109.141L109.493 236.318H111.176V231.72L111.902 231.335V236.318H112.672C113.508 236.318 113.926 235.885 113.926 235.02V230.29L114.652 229.905V232.303L114.663 232.292V235.064C114.663 235.9 115.066 236.318 115.873 236.318ZM124.005 237H121.288C120.892 237 120.488 236.916 120.078 236.747C119.66 236.916 119.253 237 118.857 237H116.151V236.318H118.813C118.959 236.318 119.11 236.307 119.264 236.285C118.684 235.867 118.054 235.178 117.372 234.217V233.766C118.134 232.695 119.033 232.16 120.067 232.16C121.093 232.16 121.995 232.703 122.773 233.788V234.217C122.091 235.178 121.464 235.867 120.892 236.285C121.038 236.307 121.185 236.318 121.332 236.318H123.994L124.005 237ZM118.01 233.997C118.78 235.024 119.465 235.691 120.067 235.999C120.661 235.691 121.35 235.02 122.135 233.986C121.548 233.216 120.859 232.831 120.067 232.831H120.034C119.286 232.831 118.611 233.22 118.01 233.997ZM125.812 230.84C125.512 230.84 125.361 230.686 125.361 230.378C125.361 230.085 125.512 229.938 125.812 229.938C126.098 229.938 126.241 230.085 126.241 230.378C126.241 230.686 126.098 230.84 125.812 230.84ZM123.898 237V236.318H124.283C125.09 236.318 125.493 235.9 125.493 235.064V232.677L126.23 232.292V235.086C126.23 235.702 126.051 236.182 125.691 236.527C125.361 236.842 124.921 237 124.371 237H123.898ZM128.32 237V230.29L129.057 229.905V237H128.32ZM135.977 236.318V237H134.811C134.804 237.484 134.646 237.909 134.338 238.276C134.037 238.65 133.645 238.896 133.161 239.013C132.985 239.064 132.794 239.09 132.589 239.09C132.164 239.09 131.749 238.987 131.346 238.782V238.133C131.727 238.338 132.105 238.441 132.479 238.441C132.78 238.441 133.044 238.375 133.271 238.243C133.498 238.126 133.689 237.946 133.843 237.704C133.997 237.469 134.074 237.235 134.074 237L133.139 236.967C132.325 236.93 131.716 236.674 131.313 236.197C130.983 235.794 130.818 235.255 130.818 234.58C130.818 233.788 131.023 233.176 131.434 232.743C131.801 232.354 132.292 232.16 132.908 232.16C133.546 232.16 134.034 232.351 134.371 232.732C134.664 233.062 134.811 233.502 134.811 234.052V236.318H135.977ZM134.074 234.129C134.074 233.264 133.685 232.831 132.908 232.831C132.475 232.831 132.138 232.985 131.896 233.293C131.661 233.594 131.544 234.019 131.544 234.569C131.544 235.662 132.083 236.234 133.161 236.285C133.484 236.307 133.788 236.318 134.074 236.318V234.129ZM139.404 236.318H139.789V237H139.316C138.656 237 138.161 236.776 137.831 236.329C137.486 236.776 136.988 237 136.335 237H135.862V236.318H136.247C137.054 236.318 137.457 235.9 137.457 235.064V232.677L138.194 232.292V235.064C138.194 235.9 138.597 236.318 139.404 236.318ZM136.907 238.155C137.2 238.155 137.347 238.305 137.347 238.606C137.347 238.907 137.2 239.057 136.907 239.057C136.614 239.057 136.467 238.907 136.467 238.606C136.467 238.305 136.614 238.155 136.907 238.155ZM138.161 238.155C138.454 238.155 138.601 238.305 138.601 238.606C138.601 238.907 138.454 239.057 138.161 239.057C137.868 239.057 137.721 238.907 137.721 238.606C137.721 238.305 137.868 238.155 138.161 238.155ZM141.592 230.84C141.291 230.84 141.141 230.686 141.141 230.378C141.141 230.085 141.291 229.938 141.592 229.938C141.878 229.938 142.021 230.085 142.021 230.378C142.021 230.686 141.878 230.84 141.592 230.84ZM139.678 237V236.318H140.063C140.87 236.318 141.273 235.9 141.273 235.064V232.677L142.01 232.292V235.086C142.01 235.702 141.83 236.182 141.471 236.527C141.141 236.842 140.701 237 140.151 237H139.678Z" fill="#2D2D2D" fill-opacity="0.7"/>
<path d="M266.704 230.29L267.43 229.905V235.031C267.43 235.654 267.247 236.146 266.88 236.505C266.543 236.835 266.092 237 265.527 237H261.919L262.271 236.318H263.954V231.72L264.68 231.335V236.318H265.45C266.286 236.318 266.704 235.885 266.704 235.02V230.29ZM268.919 229.751L269.128 229.366H269.403C269.329 229.241 269.293 229.109 269.293 228.97C269.293 228.765 269.37 228.585 269.524 228.431C269.685 228.277 269.868 228.2 270.074 228.2C270.235 228.2 270.393 228.251 270.547 228.354V228.761C270.407 228.658 270.268 228.607 270.129 228.607C270.011 228.607 269.909 228.644 269.821 228.717C269.74 228.79 269.7 228.878 269.7 228.981C269.7 229.113 269.755 229.241 269.865 229.366H270.822L270.613 229.751H268.919ZM269.524 237V230.73L270.261 230.345V237H269.524ZM277.18 236.318V237H276.014C276.007 237.484 275.849 237.909 275.541 238.276C275.241 238.65 274.848 238.896 274.364 239.013C274.188 239.064 273.998 239.09 273.792 239.09C273.367 239.09 272.953 238.987 272.549 238.782V238.133C272.931 238.338 273.308 238.441 273.682 238.441C273.983 238.441 274.247 238.375 274.474 238.243C274.702 238.126 274.892 237.946 275.046 237.704C275.2 237.469 275.277 237.235 275.277 237L274.342 236.967C273.528 236.93 272.92 236.674 272.516 236.197C272.186 235.794 272.021 235.255 272.021 234.58C272.021 233.788 272.227 233.176 272.637 232.743C273.004 232.354 273.495 232.16 274.111 232.16C274.749 232.16 275.237 232.351 275.574 232.732C275.868 233.062 276.014 233.502 276.014 234.052V236.318H277.18ZM275.277 234.129C275.277 233.264 274.889 232.831 274.111 232.831C273.679 232.831 273.341 232.985 273.099 233.293C272.865 233.594 272.747 234.019 272.747 234.569C272.747 235.662 273.286 236.234 274.364 236.285C274.687 236.307 274.991 236.318 275.277 236.318V234.129ZM280.201 236.274C280.472 235.145 280.945 234.199 281.62 233.436C282.375 232.585 283.262 232.16 284.282 232.16C285.103 232.16 285.756 232.442 286.24 233.007C286.65 233.491 286.856 234.089 286.856 234.8V235.108C286.856 235.731 286.665 236.215 286.284 236.56C285.961 236.853 285.532 237 284.997 237H280.52C279.86 237 279.365 236.776 279.035 236.329C278.69 236.776 278.191 237 277.539 237H277.066V236.318H277.451C278.257 236.318 278.661 235.9 278.661 235.064V233.48L279.398 233.095V235.064C279.398 235.753 279.665 236.157 280.201 236.274ZM286.119 235.02V234.8C286.119 234.184 285.924 233.689 285.536 233.315C285.206 232.992 284.791 232.831 284.293 232.831C283.435 232.831 282.672 233.234 282.005 234.041C281.499 234.657 281.117 235.416 280.861 236.318H284.942C285.726 236.318 286.119 235.885 286.119 235.02ZM290.608 237C289.985 237 289.504 236.798 289.167 236.395C288.888 236.05 288.749 235.614 288.749 235.086V230.29L289.486 229.905V235.064C289.486 235.9 289.889 236.318 290.696 236.318H291.081V237H290.608ZM294.315 230.862C294.014 230.862 293.864 230.708 293.864 230.4C293.864 230.107 294.014 229.96 294.315 229.96C294.601 229.96 294.744 230.107 294.744 230.4C294.744 230.708 294.601 230.862 294.315 230.862ZM290.971 237V236.318H292.841C292.438 235.915 292.236 235.335 292.236 234.58C292.236 233.788 292.441 233.176 292.852 232.743C293.211 232.354 293.688 232.16 294.282 232.16C294.891 232.16 295.36 232.351 295.69 232.732C295.976 233.062 296.119 233.502 296.119 234.052V235.119C296.112 235.713 295.932 236.179 295.58 236.516C295.257 236.839 294.817 237 294.26 237H290.971ZM295.393 234.118C295.393 233.26 295.023 232.831 294.282 232.831C293.871 232.831 293.549 232.985 293.314 233.293C293.087 233.594 292.973 234.019 292.973 234.569C292.973 235.104 293.083 235.53 293.303 235.845C293.53 236.16 293.831 236.318 294.205 236.318C294.997 236.318 295.393 235.907 295.393 235.086V234.118Z" fill="#2D2D2D" fill-opacity="0.7"/>
<path d="M80.8514 265.318H81.2364V266H80.7634C80.0887 266 79.5864 265.769 79.2564 265.307C78.9117 265.769 78.402 266 77.7274 266H74.1194L74.4714 265.318H76.1544V260.72L76.8804 260.335V265.318H77.6504C78.4864 265.318 78.9044 264.885 78.9044 264.02V259.29L79.6304 258.905V261.303L79.6414 261.292V264.064C79.6414 264.9 80.0447 265.318 80.8514 265.318ZM82.9659 259.84C82.6652 259.84 82.5149 259.686 82.5149 259.378C82.5149 259.085 82.6652 258.938 82.9659 258.938C83.2519 258.938 83.3949 259.085 83.3949 259.378C83.3949 259.686 83.2519 259.84 82.9659 259.84ZM84.6709 265.318H85.0559V266H84.5829C83.9229 266 83.4279 265.776 83.0979 265.329C82.7532 265.776 82.2545 266 81.6019 266H81.1289V265.318H81.5139C82.3205 265.318 82.7239 264.9 82.7239 264.064V261.677L83.4609 261.292V264.064C83.4609 264.9 83.8642 265.318 84.6709 265.318ZM88.0799 265.274C88.3513 264.145 88.8243 263.199 89.4989 262.436C90.2543 261.585 91.1416 261.16 92.1609 261.16C92.9823 261.16 93.6349 261.442 94.1189 262.007C94.5296 262.491 94.7349 263.089 94.7349 263.8V264.108C94.7349 264.731 94.5443 265.215 94.1629 265.56C93.8403 265.853 93.4113 266 92.8759 266H88.3989C87.7389 266 87.2439 265.776 86.9139 265.329C86.5693 265.776 86.0706 266 85.4179 266H84.9449V265.318H85.3299C86.1366 265.318 86.5399 264.9 86.5399 264.064V262.48L87.2769 262.095V264.064C87.2769 264.753 87.5446 265.157 88.0799 265.274ZM93.9979 264.02V263.8C93.9979 263.184 93.8036 262.689 93.4149 262.315C93.0849 261.992 92.6706 261.831 92.1719 261.831C91.3139 261.831 90.5513 262.234 89.8839 263.041C89.3779 263.657 88.9966 264.416 88.7399 265.318H92.8209C93.6056 265.318 93.9979 264.885 93.9979 264.02ZM101.458 265.318V266H100.292C100.284 266.484 100.127 266.909 99.8186 267.276C99.5179 267.65 99.1256 267.896 98.6416 268.013C98.4656 268.064 98.2749 268.09 98.0696 268.09C97.6442 268.09 97.2299 267.987 96.8266 267.782V267.133C97.2079 267.338 97.5856 267.441 97.9596 267.441C98.2602 267.441 98.5242 267.375 98.7516 267.243C98.9789 267.126 99.1696 266.946 99.3236 266.704C99.4776 266.469 99.5546 266.235 99.5546 266L98.6196 265.967C97.8056 265.93 97.1969 265.674 96.7936 265.197C96.4636 264.794 96.2986 264.255 96.2986 263.58C96.2986 262.788 96.5039 262.176 96.9146 261.743C97.2812 261.354 97.7726 261.16 98.3886 261.16C99.0266 261.16 99.5142 261.351 99.8516 261.732C100.145 262.062 100.292 262.502 100.292 263.052V265.318H101.458ZM99.5546 263.129C99.5546 262.264 99.1659 261.831 98.3886 261.831C97.9559 261.831 97.6186 261.985 97.3766 262.293C97.1419 262.594 97.0246 263.019 97.0246 263.569C97.0246 264.662 97.5636 265.234 98.6416 265.285C98.9642 265.307 99.2686 265.318 99.5546 265.318V263.129ZM104.478 265.274C104.749 264.145 105.222 263.199 105.897 262.436C106.652 261.585 107.539 261.16 108.559 261.16C109.38 261.16 110.033 261.442 110.517 262.007C110.927 262.491 111.133 263.089 111.133 263.8V264.108C111.133 264.731 110.942 265.215 110.561 265.56C110.238 265.853 109.809 266 109.274 266H104.797C104.137 266 103.642 265.776 103.312 265.329C102.967 265.776 102.468 266 101.816 266H101.343V265.318H101.728C102.534 265.318 102.938 264.9 102.938 264.064V262.48L103.675 262.095V264.064C103.675 264.753 103.942 265.157 104.478 265.274ZM110.396 264.02V263.8C110.396 263.184 110.201 262.689 109.813 262.315C109.483 261.992 109.068 261.831 108.57 261.831C107.712 261.831 106.949 262.234 106.282 263.041C105.776 263.657 105.394 264.416 105.138 265.318H109.219C110.003 265.318 110.396 264.885 110.396 264.02ZM119.794 259.29L120.52 258.905V264.031C120.52 264.654 120.337 265.146 119.97 265.505C119.633 265.835 119.182 266 118.617 266H115.009L115.361 265.318H117.044V260.72L117.77 260.335V265.318H118.54C119.376 265.318 119.794 264.885 119.794 264.02V259.29ZM122.008 258.751L122.217 258.366H122.492C122.419 258.241 122.382 258.109 122.382 257.97C122.382 257.765 122.459 257.585 122.613 257.431C122.775 257.277 122.958 257.2 123.163 257.2C123.325 257.2 123.482 257.251 123.636 257.354V257.761C123.497 257.658 123.358 257.607 123.218 257.607C123.101 257.607 122.998 257.644 122.91 257.717C122.83 257.79 122.789 257.878 122.789 257.981C122.789 258.113 122.844 258.241 122.954 258.366H123.911L123.702 258.751H122.008ZM122.613 266V259.73L123.35 259.345V266H122.613ZM130.27 265.318V266H129.104C129.097 266.484 128.939 266.909 128.631 267.276C128.331 267.65 127.938 267.896 127.454 268.013C127.278 268.064 127.088 268.09 126.882 268.09C126.457 268.09 126.043 267.987 125.639 267.782V267.133C126.021 267.338 126.398 267.441 126.772 267.441C127.073 267.441 127.337 267.375 127.564 267.243C127.792 267.126 127.982 266.946 128.136 266.704C128.29 266.469 128.367 266.235 128.367 266L127.432 265.967C126.618 265.93 126.01 265.674 125.606 265.197C125.276 264.794 125.111 264.255 125.111 263.58C125.111 262.788 125.317 262.176 125.727 261.743C126.094 261.354 126.585 261.16 127.201 261.16C127.839 261.16 128.327 261.351 128.664 261.732C128.958 262.062 129.104 262.502 129.104 263.052V265.318H130.27ZM128.367 263.129C128.367 262.264 127.979 261.831 127.201 261.831C126.769 261.831 126.431 261.985 126.189 262.293C125.955 262.594 125.837 263.019 125.837 263.569C125.837 264.662 126.376 265.234 127.454 265.285C127.777 265.307 128.081 265.318 128.367 265.318V263.129ZM133.664 265.318H134.049V266H133.576C132.902 266 132.399 265.769 132.069 265.307C131.725 265.769 131.215 266 130.54 266H130.155V265.318H130.463C131.299 265.318 131.717 264.885 131.717 264.02V259.29L132.454 258.905V264.064C132.454 264.9 132.858 265.318 133.664 265.318ZM133.939 266V265.318H134.324C135.131 265.318 135.534 264.9 135.534 264.064V261.677L136.271 261.292V264.086C136.271 264.702 136.092 265.182 135.732 265.527C135.402 265.842 134.962 266 134.412 266H133.939ZM134.302 268.057C134.002 268.057 133.851 267.903 133.851 267.595C133.851 267.302 134.002 267.155 134.302 267.155C134.588 267.155 134.731 267.302 134.731 267.595C134.731 267.903 134.588 268.057 134.302 268.057ZM135.556 268.057C135.256 268.057 135.105 267.903 135.105 267.595C135.105 267.302 135.256 267.155 135.556 267.155C135.842 267.155 135.985 267.302 135.985 267.595C135.985 267.903 135.842 268.057 135.556 268.057ZM139.505 259.785C139.212 259.785 139.065 259.631 139.065 259.323C139.065 259.03 139.212 258.883 139.505 258.883C139.798 258.883 139.945 259.03 139.945 259.323C139.945 259.631 139.798 259.785 139.505 259.785ZM140.759 259.785C140.466 259.785 140.319 259.631 140.319 259.323C140.319 259.03 140.466 258.883 140.759 258.883C141.052 258.883 141.199 259.03 141.199 259.323C141.199 259.631 141.052 259.785 140.759 259.785ZM140.154 266C139.501 266 138.992 265.784 138.625 265.351C138.317 264.977 138.163 264.493 138.163 263.899C138.163 262.542 138.845 261.629 140.209 261.16C141.573 261.629 142.255 262.542 142.255 263.899C142.255 264.581 142.053 265.113 141.65 265.494C141.298 265.831 140.836 266 140.264 266H140.154ZM140.121 265.318H140.297C140.678 265.318 140.979 265.193 141.199 264.944C141.419 264.687 141.529 264.339 141.529 263.899C141.529 262.924 141.089 262.234 140.209 261.831C139.329 262.234 138.889 262.924 138.889 263.899C138.889 264.332 138.999 264.676 139.219 264.933C139.439 265.19 139.74 265.318 140.121 265.318Z" fill="#2D2D2D" fill-opacity="0.7"/>
<path d="M212.764 259.885C212.471 259.885 212.324 259.731 212.324 259.423C212.324 259.13 212.471 258.983 212.764 258.983C213.057 258.983 213.204 259.13 213.204 259.423C213.204 259.731 213.057 259.885 212.764 259.885ZM214.029 259.885C213.728 259.885 213.578 259.731 213.578 259.423C213.578 259.13 213.728 258.983 214.029 258.983C214.315 258.983 214.458 259.13 214.458 259.423C214.458 259.731 214.315 259.885 214.029 259.885ZM218.638 264.318H219.023V265H218.55C217.89 265 217.395 264.776 217.065 264.329C216.72 264.776 216.218 265 215.558 265H211.631C211.088 265 210.656 264.831 210.333 264.494C210.01 264.149 209.849 263.687 209.849 263.108V261.667L210.586 261.282V263.02C210.586 263.885 210.989 264.318 211.796 264.318H215.481C216.288 264.318 216.691 263.885 216.691 263.02V260.677L217.428 260.292V263.064C217.428 263.9 217.831 264.318 218.638 264.318ZM218.688 265V264.318H219.359C220.173 264.318 220.58 263.9 220.58 263.064V261.48L221.317 261.095V263.064C221.317 263.9 221.72 264.318 222.527 264.318H222.934C223.741 264.318 224.144 263.9 224.144 263.064V261.084L224.881 260.688V263.064C224.881 263.9 225.288 264.318 226.102 264.318H226.498C227.312 264.318 227.719 263.9 227.719 263.064V260.677L228.456 260.292V263.02C228.456 263.885 228.874 264.318 229.71 264.318H230.348V265H229.633C228.936 265 228.427 264.754 228.104 264.263C227.781 264.754 227.283 265 226.608 265H226.003C225.321 265 224.826 264.758 224.518 264.274C224.203 264.758 223.711 265 223.044 265H222.439C221.757 265 221.258 264.758 220.943 264.274C220.635 264.758 220.14 265 219.458 265H218.688ZM237.158 264.318H237.532V265H237.059C236.391 265 235.893 264.769 235.563 264.307C235.196 264.916 234.639 265.22 233.891 265.22C233.135 265.22 232.578 264.919 232.219 264.318C231.881 264.773 231.379 265 230.712 265H230.239V264.318H230.624C231.43 264.318 231.834 263.9 231.834 263.064V262.69C231.834 261.847 232.039 261.201 232.45 260.754C232.809 260.358 233.289 260.16 233.891 260.16C234.58 260.16 235.104 260.417 235.464 260.93C235.779 261.37 235.937 261.957 235.937 262.69V263.064C235.937 263.9 236.344 264.318 237.158 264.318ZM233.891 264.538C234.294 264.538 234.613 264.373 234.848 264.043C235.082 263.706 235.2 263.251 235.2 262.679C235.2 261.447 234.763 260.831 233.891 260.831C233.011 260.831 232.571 261.447 232.571 262.679C232.571 263.918 233.011 264.538 233.891 264.538ZM237.417 265V264.318H237.802C238.609 264.318 239.012 263.9 239.012 263.064V260.677L239.749 260.292V263.086C239.749 263.702 239.569 264.182 239.21 264.527C238.88 264.842 238.44 265 237.89 265H237.417ZM237.78 267.057C237.479 267.057 237.329 266.903 237.329 266.595C237.329 266.302 237.479 266.155 237.78 266.155C238.066 266.155 238.209 266.302 238.209 266.595C238.209 266.903 238.066 267.057 237.78 267.057ZM239.034 267.057C238.733 267.057 238.583 266.903 238.583 266.595C238.583 266.302 238.733 266.155 239.034 266.155C239.32 266.155 239.463 266.302 239.463 266.595C239.463 266.903 239.32 267.057 239.034 267.057ZM243.698 265C243.075 265 242.594 264.798 242.257 264.395C241.978 264.05 241.839 263.614 241.839 263.086V258.29L242.576 257.905V263.064C242.576 263.9 242.979 264.318 243.786 264.318H244.171V265H243.698ZM244.721 258.84C244.42 258.84 244.27 258.686 244.27 258.378C244.27 258.085 244.42 257.938 244.721 257.938C245.007 257.938 245.15 258.085 245.15 258.378C245.15 258.686 245.007 258.84 244.721 258.84ZM245.975 258.84C245.674 258.84 245.524 258.686 245.524 258.378C245.524 258.085 245.674 257.938 245.975 257.938C246.261 257.938 246.404 258.085 246.404 258.378C246.404 258.686 246.261 258.84 245.975 258.84ZM244.061 265V264.318H244.446C245.252 264.318 245.656 263.9 245.656 263.064V260.677L246.393 260.292V263.086C246.393 263.702 246.213 264.182 245.854 264.527C245.524 264.842 245.084 265 244.534 265H244.061ZM254.15 259.885C253.857 259.885 253.71 259.731 253.71 259.423C253.71 259.13 253.857 258.983 254.15 258.983C254.444 258.983 254.59 259.13 254.59 259.423C254.59 259.731 254.444 259.885 254.15 259.885ZM255.415 259.885C255.115 259.885 254.964 259.731 254.964 259.423C254.964 259.13 255.115 258.983 255.415 258.983C255.701 258.983 255.844 259.13 255.844 259.423C255.844 259.731 255.701 259.885 255.415 259.885ZM253.017 265C252.475 265 252.042 264.831 251.719 264.494C251.397 264.149 251.235 263.687 251.235 263.108V261.667L251.972 261.282V263.02C251.972 263.885 252.376 264.318 253.182 264.318H256.867C257.674 264.318 258.077 263.885 258.077 263.02V260.677L258.814 260.292V263.108C258.814 263.731 258.624 264.215 258.242 264.56C257.912 264.853 257.48 265 256.944 265H253.017ZM265.735 264.318V265H264.569C264.561 265.484 264.404 265.909 264.096 266.276C263.795 266.65 263.403 266.896 262.919 267.013C262.743 267.064 262.552 267.09 262.347 267.09C261.921 267.09 261.507 266.987 261.104 266.782V266.133C261.485 266.338 261.863 266.441 262.237 266.441C262.537 266.441 262.801 266.375 263.029 266.243C263.256 266.126 263.447 265.946 263.601 265.704C263.755 265.469 263.832 265.235 263.832 265L262.897 264.967C262.083 264.93 261.474 264.674 261.071 264.197C260.741 263.794 260.576 263.255 260.576 262.58C260.576 261.788 260.781 261.176 261.192 260.743C261.558 260.354 262.05 260.16 262.666 260.16C263.304 260.16 263.791 260.351 264.129 260.732C264.422 261.062 264.569 261.502 264.569 262.052V264.318H265.735ZM263.832 262.129C263.832 261.264 263.443 260.831 262.666 260.831C262.233 260.831 261.896 260.985 261.654 261.293C261.419 261.594 261.302 262.019 261.302 262.569C261.302 263.662 261.841 264.234 262.919 264.285C263.241 264.307 263.546 264.318 263.832 264.318V262.129ZM273.001 258.84C272.7 258.84 272.55 258.686 272.55 258.378C272.55 258.085 272.7 257.938 273.001 257.938C273.287 257.938 273.43 258.085 273.43 258.378C273.43 258.686 273.287 258.84 273.001 258.84ZM276.62 264.318H277.005V265H276.532C275.872 265 275.377 264.776 275.047 264.329C274.717 264.776 274.218 265 273.551 265H269.074C268.414 265 267.919 264.776 267.589 264.329C267.244 264.776 266.746 265 266.093 265H265.62V264.318H266.005C266.812 264.318 267.215 263.9 267.215 263.064V261.48L267.952 261.095V263.064C267.952 263.753 268.22 264.157 268.755 264.274C269.026 263.145 269.499 262.199 270.174 261.436C270.929 260.585 271.817 260.16 272.836 260.16C273.657 260.16 274.31 260.442 274.794 261.007C275.205 261.491 275.41 262.089 275.41 262.8V263.086C275.41 263.907 275.813 264.318 276.62 264.318ZM273.496 264.318C274.281 264.318 274.673 263.885 274.673 263.02V262.8C274.673 262.184 274.479 261.689 274.09 261.315C273.76 260.992 273.346 260.831 272.847 260.831C271.989 260.831 271.226 261.234 270.559 262.041C270.053 262.657 269.672 263.416 269.415 264.318H273.496ZM280.433 264.318H280.818V265H280.345C279.685 265 279.19 264.776 278.86 264.329C278.515 264.776 278.017 265 277.364 265H276.891V264.318H277.276C278.083 264.318 278.486 263.9 278.486 263.064V260.677L279.223 260.292V263.064C279.223 263.9 279.626 264.318 280.433 264.318ZM277.936 266.155C278.229 266.155 278.376 266.305 278.376 266.606C278.376 266.907 278.229 267.057 277.936 267.057C277.643 267.057 277.496 266.907 277.496 266.606C277.496 266.305 277.643 266.155 277.936 266.155ZM279.19 266.155C279.483 266.155 279.63 266.305 279.63 266.606C279.63 266.907 279.483 267.057 279.19 267.057C278.897 267.057 278.75 266.907 278.75 266.606C278.75 266.305 278.897 266.155 279.19 266.155ZM287.659 264.318H288.044V265H287.648C287.039 265 286.552 264.93 286.185 264.791C285.826 264.652 285.492 264.406 285.184 264.054C284.245 264.685 283.16 265 281.928 265H280.707V264.318H281.939C283.538 264.318 284.784 263.775 285.679 262.69C285.026 261.443 284.238 260.82 283.314 260.82C282.683 260.82 282.067 261.139 281.466 261.777V261.051C282.067 260.457 282.694 260.16 283.347 260.16H283.369C284.52 260.16 285.518 260.937 286.361 262.492V262.943C286.134 263.236 285.892 263.489 285.635 263.702C285.87 263.929 286.134 264.091 286.427 264.186C286.728 264.274 287.138 264.318 287.659 264.318ZM287.939 265V264.318H288.324C289.131 264.318 289.534 263.9 289.534 263.064V260.677L290.271 260.292V263.086C290.271 263.702 290.092 264.182 289.732 264.527C289.402 264.842 288.962 265 288.412 265H287.939ZM288.302 267.057C288.002 267.057 287.851 266.903 287.851 266.595C287.851 266.302 288.002 266.155 288.302 266.155C288.588 266.155 288.731 266.302 288.731 266.595C288.731 266.903 288.588 267.057 288.302 267.057ZM289.556 267.057C289.256 267.057 289.105 266.903 289.105 266.595C289.105 266.302 289.256 266.155 289.556 266.155C289.842 266.155 289.985 266.302 289.985 266.595C289.985 266.903 289.842 267.057 289.556 267.057ZM293.505 258.785C293.212 258.785 293.065 258.631 293.065 258.323C293.065 258.03 293.212 257.883 293.505 257.883C293.798 257.883 293.945 258.03 293.945 258.323C293.945 258.631 293.798 258.785 293.505 258.785ZM294.759 258.785C294.466 258.785 294.319 258.631 294.319 258.323C294.319 258.03 294.466 257.883 294.759 257.883C295.052 257.883 295.199 258.03 295.199 258.323C295.199 258.631 295.052 258.785 294.759 258.785ZM294.154 265C293.501 265 292.992 264.784 292.625 264.351C292.317 263.977 292.163 263.493 292.163 262.899C292.163 261.542 292.845 260.629 294.209 260.16C295.573 260.629 296.255 261.542 296.255 262.899C296.255 263.581 296.053 264.113 295.65 264.494C295.298 264.831 294.836 265 294.264 265H294.154ZM294.121 264.318H294.297C294.678 264.318 294.979 264.193 295.199 263.944C295.419 263.687 295.529 263.339 295.529 262.899C295.529 261.924 295.089 261.234 294.209 260.831C293.329 261.234 292.889 261.924 292.889 262.899C292.889 263.332 292.999 263.676 293.219 263.933C293.439 264.19 293.74 264.318 294.121 264.318Z" fill="#2D2D2D" fill-opacity="0.7"/>
<path d="M154 241.25C156.899 241.25 159.25 238.899 159.25 236C159.25 233.101 156.899 230.75 154 230.75C151.101 230.75 148.75 233.101 148.75 236C148.75 238.899 151.101 241.25 154 241.25Z" stroke="#53BD95" stroke-width="0.8" stroke-linecap="round" stroke-linejoin="round"/>
<path d="M156.406 234.688L153.196 237.75L151.594 236.219" stroke="#53BD95" stroke-width="0.8" stroke-linecap="round" stroke-linejoin="round"/>
<path d="M308 241.25C310.899 241.25 313.25 238.899 313.25 236C313.25 233.101 310.899 230.75 308 230.75C305.101 230.75 302.75 233.101 302.75 236C302.75 238.899 305.101 241.25 308 241.25Z" stroke="#53BD95" stroke-width="0.8" stroke-linecap="round" stroke-linejoin="round"/>
<path d="M310.406 234.688L307.196 237.75L305.594 236.219" stroke="#53BD95" stroke-width="0.8" stroke-linecap="round" stroke-linejoin="round"/>
<path d="M154 269.25C156.899 269.25 159.25 266.899 159.25 264C159.25 261.101 156.899 258.75 154 258.75C151.101 258.75 148.75 261.101 148.75 264C148.75 266.899 151.101 269.25 154 269.25Z" stroke="#53BD95" stroke-width="0.8" stroke-linecap="round" stroke-linejoin="round"/>
<path d="M156.406 262.688L153.196 265.75L151.594 264.219" stroke="#53BD95" stroke-width="0.8" stroke-linecap="round" stroke-linejoin="round"/>
<path d="M308 269.25C310.899 269.25 313.25 266.899 313.25 264C313.25 261.101 310.899 258.75 308 258.75C305.101 258.75 302.75 261.101 302.75 264C302.75 266.899 305.101 269.25 308 269.25Z" stroke="#53BD95" stroke-width="0.8" stroke-linecap="round" stroke-linejoin="round"/>
<path d="M310.406 262.688L307.196 265.75L305.594 264.219" stroke="#53BD95" stroke-width="0.8" stroke-linecap="round" stroke-linejoin="round"/>
<path d="M265.459 44.548H266.527V46H265.303C264.759 46 264.295 45.86 263.911 45.58C263.503 45.86 262.983 46 262.351 46H260.683C260.379 46 260.163 46.064 260.035 46.192C259.907 46.328 259.843 46.552 259.843 46.864V48.988L258.331 49.78V46.792C258.331 46.16 258.503 45.644 258.847 45.244C259.199 44.844 259.671 44.616 260.263 44.56C260.103 44.168 260.023 43.724 260.023 43.228C260.023 42.348 260.263 41.652 260.743 41.14C261.167 40.692 261.727 40.468 262.423 40.468C263.135 40.468 263.691 40.696 264.091 41.152C264.435 41.544 264.607 42.056 264.607 42.688V43.684C264.607 43.996 264.671 44.22 264.799 44.356C264.935 44.484 265.155 44.548 265.459 44.548ZM263.095 43.876V42.664C263.095 42.136 262.871 41.872 262.423 41.872C262.135 41.872 261.907 41.988 261.739 42.22C261.579 42.452 261.499 42.772 261.499 43.18C261.499 44.092 261.799 44.548 262.399 44.548C262.863 44.548 263.095 44.324 263.095 43.876ZM270.077 44.548H271.157V46H269.933C269.349 46 268.865 45.844 268.481 45.532C268.097 45.844 267.613 46 267.029 46H265.805V44.548H266.885C267.189 44.548 267.405 44.484 267.533 44.356C267.661 44.22 267.725 43.996 267.725 43.684V41.464L269.237 40.672V43.684C269.237 43.996 269.301 44.22 269.429 44.356C269.557 44.484 269.773 44.548 270.077 44.548ZM266.969 47.092C267.209 47.092 267.397 47.16 267.533 47.296C267.677 47.44 267.749 47.632 267.749 47.872C267.749 48.408 267.489 48.676 266.969 48.676C266.729 48.676 266.537 48.604 266.393 48.46C266.249 48.316 266.177 48.12 266.177 47.872C266.177 47.352 266.441 47.092 266.969 47.092ZM268.817 47.092C269.057 47.092 269.245 47.16 269.381 47.296C269.525 47.44 269.597 47.632 269.597 47.872C269.597 48.408 269.337 48.676 268.817 48.676C268.577 48.676 268.385 48.604 268.241 48.46C268.097 48.316 268.025 48.12 268.025 47.872C268.025 47.352 268.289 47.092 268.817 47.092ZM270.434 46V44.548H271.19C271.558 44.548 271.818 44.468 271.97 44.308C272.13 44.148 272.21 43.876 272.21 43.492V39.064L273.71 38.26V43.504C273.71 44.28 273.474 44.9 273.002 45.364C272.57 45.788 271.994 46 271.274 46H270.434ZM275.87 46V39.064L277.382 38.26V46H275.87ZM278.578 46L279.334 44.548H281.23C281.638 44.548 281.842 44.312 281.842 43.84C281.842 42.96 281.418 42.284 280.57 41.812L281.314 40.528C282.562 41.256 283.234 42.244 283.33 43.492C283.362 43.892 283.45 44.168 283.594 44.32C283.746 44.472 284.002 44.548 284.362 44.548H285.274V46H284.278C283.686 46 283.186 45.836 282.778 45.508C282.482 45.836 282.058 46 281.506 46H278.578ZM284.555 46V44.548H285.635C285.939 44.548 286.155 44.484 286.283 44.356C286.411 44.22 286.475 43.996 286.475 43.684V41.464L287.987 40.672V43.756C287.987 44.484 287.763 45.052 287.315 45.46C286.923 45.82 286.411 46 285.779 46H284.555ZM285.203 48.676C284.963 48.676 284.771 48.604 284.627 48.46C284.483 48.316 284.411 48.12 284.411 47.872C284.411 47.352 284.675 47.092 285.203 47.092C285.443 47.092 285.631 47.16 285.767 47.296C285.911 47.44 285.983 47.632 285.983 47.872C285.983 48.408 285.723 48.676 285.203 48.676ZM287.051 48.676C286.811 48.676 286.619 48.604 286.475 48.46C286.331 48.316 286.259 48.12 286.259 47.872C286.259 47.352 286.523 47.092 287.051 47.092C287.291 47.092 287.479 47.16 287.615 47.296C287.759 47.44 287.831 47.632 287.831 47.872C287.831 48.408 287.571 48.676 287.051 48.676Z" fill="#2D2D2D" fill-opacity="0.9"/>
<rect x="297.682" y="35.5" width="7" height="7" rx="1.5" stroke="#53BD95"/>
<rect x="297.682" y="45.5" width="7" height="7" rx="1.5" stroke="#53BD95"/>
<rect x="307.682" y="35.5" width="7" height="7" rx="1.5" stroke="#53BD95"/>
<rect x="307.682" y="45.5" width="7" height="7" rx="1.5" stroke="#53BD95"/>
<line opacity="0.3" x1="73" y1="69.5" x2="315" y2="69.5" stroke="#53BD95"/>
<g filter="url(#filter0_d_187_793)">
<rect x="27" y="99.7363" width="333.818" height="60.5275" rx="10" fill="white"/>
</g>
<g clip-path="url(#clip0_187_793)">
<path d="M305.793 130C305.793 137.047 310.21 143.064 316.427 145.431C316.275 144.142 316.114 142.017 316.461 140.526C316.759 139.244 318.388 132.357 318.388 132.357C318.388 132.357 317.897 131.374 317.897 129.917C317.897 127.634 319.22 125.928 320.87 125.928C322.273 125.928 322.95 126.98 322.95 128.242C322.95 129.652 322.051 131.759 321.588 133.714C321.201 135.349 322.409 136.684 324.021 136.684C326.942 136.684 329.188 133.604 329.188 129.158C329.188 125.222 326.36 122.472 322.322 122.472C317.648 122.472 314.904 125.979 314.904 129.603C314.904 131.016 315.447 132.529 316.127 133.353C316.185 133.416 316.226 133.492 316.246 133.574C316.266 133.657 316.264 133.743 316.241 133.825C316.116 134.345 315.838 135.461 315.784 135.689C315.711 135.989 315.546 136.054 315.234 135.908C313.181 134.953 311.899 131.953 311.899 129.543C311.899 124.358 315.664 119.599 322.756 119.599C328.456 119.599 332.887 123.661 332.887 129.089C332.887 134.752 329.318 139.311 324.36 139.311C322.694 139.311 321.13 138.445 320.593 137.423C320.593 137.423 319.769 140.562 319.57 141.329C319.182 142.82 318.106 144.708 317.439 145.779C318.977 146.253 320.608 146.507 322.3 146.507C331.417 146.507 338.808 139.116 338.808 130C338.808 120.883 331.417 113.492 322.3 113.492C313.184 113.492 305.793 120.883 305.793 130Z" fill="#53BD95"/>
</g>
<path d="M258.105 143.756C250.508 143.756 244.349 137.597 244.349 129.999C244.349 122.402 250.508 116.243 258.105 116.243C265.703 116.243 271.862 122.402 271.862 129.999C271.853 137.593 265.699 143.747 258.105 143.756ZM250.962 127.995C250.504 127.995 250.059 128.152 249.703 128.44C249.346 128.727 249.098 129.128 249.001 129.575C248.903 130.023 248.961 130.491 249.166 130.9C249.37 131.31 249.709 131.638 250.125 131.829C250.108 132.03 250.108 132.232 250.125 132.433C250.125 135.514 253.723 138.021 258.144 138.021C262.565 138.021 266.164 135.514 266.164 132.433C266.18 132.232 266.18 132.03 266.164 131.829C266.569 131.632 266.895 131.303 267.088 130.896C267.282 130.489 267.33 130.028 267.226 129.589C267.123 129.151 266.872 128.761 266.517 128.483C266.162 128.206 265.723 128.058 265.272 128.064H265.199C264.707 128.082 264.238 128.281 263.883 128.624C262.318 127.56 260.479 126.972 258.587 126.932L259.481 122.64L262.422 123.259C262.462 123.621 262.643 123.954 262.928 124.182C263.212 124.411 263.575 124.517 263.938 124.478C264.289 124.442 264.613 124.274 264.844 124.006C265.074 123.738 265.192 123.393 265.175 123.04C265.157 122.688 265.004 122.355 264.749 122.112C264.493 121.869 264.153 121.733 263.8 121.733C263.748 121.733 263.696 121.739 263.645 121.746C263.43 121.768 263.223 121.842 263.042 121.959C262.861 122.077 262.71 122.236 262.601 122.422L259.233 121.746C259.123 121.723 259.009 121.744 258.915 121.805C258.82 121.866 258.754 121.962 258.73 122.072L257.701 126.849C255.786 126.876 253.921 127.464 252.336 128.54C251.965 128.189 251.473 127.994 250.962 127.995ZM258.353 136.223H257.888C256.746 136.218 255.637 135.845 254.724 135.159C254.663 135.089 254.63 134.997 254.633 134.904C254.636 134.81 254.675 134.721 254.741 134.655C254.807 134.589 254.896 134.55 254.99 134.546C255.083 134.543 255.175 134.575 255.245 134.637C256.016 135.201 256.948 135.505 257.905 135.502H258.35C259.294 135.503 260.214 135.208 260.98 134.657C261.016 134.621 261.059 134.592 261.106 134.572C261.154 134.552 261.204 134.542 261.256 134.542C261.307 134.542 261.358 134.552 261.405 134.572C261.452 134.592 261.495 134.621 261.531 134.657C261.602 134.731 261.642 134.831 261.641 134.934C261.639 135.037 261.597 135.135 261.524 135.208V135.152C260.611 135.843 259.498 136.218 258.353 136.221V136.223ZM261.279 132.861H261.257L261.268 132.807C260.974 132.787 260.696 132.667 260.48 132.468C260.264 132.268 260.122 132 260.078 131.709C260.035 131.418 260.092 131.121 260.241 130.867C260.389 130.612 260.62 130.417 260.895 130.312C261.17 130.207 261.473 130.199 261.753 130.289C262.033 130.38 262.274 130.563 262.436 130.809C262.597 131.055 262.67 131.349 262.642 131.642C262.613 131.935 262.486 132.21 262.28 132.421C262.158 132.554 262.011 132.661 261.847 132.737C261.683 132.812 261.506 132.854 261.326 132.861H261.278H261.279ZM254.9 132.751C254.535 132.751 254.185 132.606 253.927 132.348C253.669 132.09 253.525 131.74 253.525 131.375C253.525 131.01 253.669 130.66 253.927 130.402C254.185 130.144 254.535 129.999 254.9 129.999C255.265 129.999 255.615 130.144 255.873 130.402C256.131 130.66 256.276 131.01 256.276 131.375C256.276 131.74 256.131 132.09 255.873 132.348C255.615 132.606 255.265 132.751 254.9 132.751Z" fill="#53BD95"/>
<path d="M209.926 120.283C208.777 120.792 207.543 121.136 206.246 121.292C207.585 120.491 208.586 119.23 209.063 117.745C207.806 118.492 206.429 119.018 204.994 119.3C204.029 118.269 202.751 117.586 201.358 117.357C199.964 117.127 198.534 117.364 197.29 118.031C196.045 118.697 195.055 119.756 194.474 121.042C193.892 122.329 193.752 123.772 194.075 125.146C191.526 125.018 189.034 124.356 186.758 123.202C184.483 122.049 182.475 120.429 180.866 118.45C180.316 119.399 179.999 120.499 179.999 121.671C179.999 122.727 180.258 123.765 180.756 124.696C181.253 125.627 181.972 126.42 182.849 127.006C181.832 126.974 180.837 126.699 179.947 126.204V126.287C179.947 127.766 180.459 129.201 181.396 130.346C182.333 131.491 183.637 132.277 185.088 132.571C184.144 132.826 183.154 132.864 182.193 132.681C182.603 133.954 183.4 135.067 184.473 135.865C185.547 136.663 186.843 137.105 188.18 137.129C185.91 138.911 183.107 139.878 180.221 139.874C179.709 139.874 179.199 139.844 178.691 139.784C181.62 141.668 185.03 142.667 188.513 142.663C200.302 142.663 206.747 132.899 206.747 124.431C206.747 124.156 206.74 123.878 206.728 123.603C207.981 122.696 209.063 121.574 209.923 120.288L209.926 120.283Z" fill="#53BD95"/>
<path fill-rule="evenodd" clip-rule="evenodd" d="M114.582 117.397C114.582 116.726 114.848 116.083 115.323 115.609C115.797 115.135 116.44 114.868 117.11 114.868H142.315C142.647 114.868 142.976 114.933 143.283 115.059C143.59 115.186 143.87 115.372 144.105 115.607C144.34 115.842 144.526 116.121 144.653 116.428C144.781 116.735 144.846 117.064 144.846 117.397V142.601C144.846 142.933 144.781 143.262 144.654 143.569C144.527 143.877 144.341 144.156 144.106 144.391C143.871 144.626 143.592 144.812 143.285 144.94C142.978 145.067 142.648 145.132 142.316 145.132H117.11C116.778 145.132 116.449 145.066 116.143 144.939C115.836 144.812 115.557 144.626 115.322 144.391C115.087 144.156 114.901 143.877 114.774 143.57C114.647 143.263 114.582 142.934 114.582 142.602V117.397ZM126.561 126.407H130.659V128.465C131.25 127.282 132.764 126.217 135.038 126.217C139.397 126.217 140.43 128.574 140.43 132.897V140.906H136.018V133.882C136.018 131.42 135.427 130.03 133.925 130.03C131.841 130.03 130.974 131.528 130.974 133.882V140.906H126.561V126.407ZM118.995 140.718H123.408V126.217H118.995V140.716V140.718ZM124.039 121.488C124.048 121.866 123.981 122.241 123.842 122.593C123.703 122.944 123.495 123.264 123.231 123.535C122.967 123.805 122.651 124.019 122.303 124.166C121.954 124.313 121.58 124.388 121.202 124.388C120.824 124.388 120.45 124.313 120.102 124.166C119.753 124.019 119.438 123.805 119.174 123.535C118.909 123.264 118.702 122.944 118.563 122.593C118.424 122.241 118.357 121.866 118.365 121.488C118.381 120.746 118.687 120.04 119.218 119.521C119.748 119.003 120.46 118.712 121.202 118.712C121.944 118.712 122.656 119.003 123.187 119.521C123.717 120.04 124.023 120.746 124.039 121.488Z" fill="#53BD95"/>
<path d="M65.5195 116.246C57.9233 116.246 51.7646 122.405 51.7646 130.001C51.7646 136.865 56.7939 142.555 63.3708 143.591V133.978H59.8767V130.001H63.3708V126.97C63.3708 123.52 65.4246 121.618 68.5651 121.618C70.0701 121.618 71.6465 121.886 71.6465 121.886V125.269H69.9078C68.202 125.269 67.6682 126.331 67.6682 127.419V129.998H71.4801L70.8707 133.975H67.6682V143.588C74.2451 142.558 79.2744 136.867 79.2744 130.001C79.2744 122.405 73.1157 116.246 65.5195 116.246Z" fill="#53BD95"/>
<defs>
<filter id="filter0_d_187_793" x="0" y="85.7363" width="387.818" height="114.527" filterUnits="userSpaceOnUse" color-interpolation-filters="sRGB">
<feFlood flood-opacity="0" result="BackgroundImageFix"/>
<feColorMatrix in="SourceAlpha" type="matrix" values="0 0 0 0 0 0 0 0 0 0 0 0 0 0 0 0 0 0 127 0" result="hardAlpha"/>
<feMorphology radius="6" operator="erode" in="SourceAlpha" result="effect1_dropShadow_187_793"/>
<feOffset dy="13"/>
<feGaussianBlur stdDeviation="16.5"/>
<feComposite in2="hardAlpha" operator="out"/>
<feColorMatrix type="matrix" values="0 0 0 0 0.820718 0 0 0 0 0.623348 0 0 0 0 0.475321 0 0 0 0.25 0"/>
<feBlend mode="normal" in2="BackgroundImageFix" result="effect1_dropShadow_187_793"/>
<feBlend mode="normal" in="SourceGraphic" in2="effect1_dropShadow_187_793" result="shape"/>
</filter>
<clipPath id="clip0_187_793">
<rect width="33.015" height="33.015" fill="white" transform="translate(305.793 113.492)"/>
</clipPath>
</defs>
</svg>
