<svg width="30" height="30" viewBox="0 0 30 30" fill="none" xmlns="http://www.w3.org/2000/svg">
<path fill-rule="evenodd" clip-rule="evenodd" d="M9.7625 2.5H20.2388C24.1 2.5 26.25 4.725 26.25 8.5375V21.45C26.25 25.325 24.1 27.5 20.2388 27.5H9.7625C5.9625 27.5 3.75 25.325 3.75 21.45V8.5375C3.75 4.725 5.9625 2.5 9.7625 2.5ZM10.1 8.325V8.3125H13.8363C14.375 8.3125 14.8125 8.75 14.8125 9.28625C14.8125 9.8375 14.375 10.275 13.8363 10.275H10.1C9.56125 10.275 9.125 9.8375 9.125 9.3C9.125 8.7625 9.56125 8.325 10.1 8.325ZM10.1 15.9249H19.9C20.4375 15.9249 20.875 15.4874 20.875 14.9499C20.875 14.4124 20.4375 13.9736 19.9 13.9736H10.1C9.56125 13.9736 9.125 14.4124 9.125 14.9499C9.125 15.4874 9.56125 15.9249 10.1 15.9249ZM10.0992 21.6375H19.8992C20.398 21.5875 20.7742 21.1613 20.7742 20.6625C20.7742 20.15 20.398 19.725 19.8992 19.675H10.0992C9.72422 19.6375 9.36172 19.8125 9.16172 20.1375C8.96172 20.45 8.96172 20.8625 9.16172 21.1875C9.36172 21.5 9.72422 21.6875 10.0992 21.6375Z" fill="white"/>
</svg>
