<svg width="30" height="30" viewBox="0 0 30 30" fill="none" xmlns="http://www.w3.org/2000/svg">
<path fill-rule="evenodd" clip-rule="evenodd" d="M11.7205 25.0349L22.7035 10.8318C23.3004 10.0659 23.5126 9.18037 23.3136 8.27874C23.1412 7.45907 22.6372 6.67972 21.8811 6.08848L20.0373 4.62383C18.4323 3.3473 16.4426 3.48167 15.3019 4.94632L14.0683 6.54669C13.9091 6.7469 13.9489 7.04252 14.1479 7.20376C14.1479 7.20376 17.265 9.70308 17.3314 9.75683C17.5436 9.95838 17.7028 10.2271 17.7426 10.5496C17.8089 11.1812 17.3712 11.7724 16.7212 11.853C16.4161 11.8933 16.1243 11.7993 15.9121 11.6246L12.6357 9.01778C12.4766 8.89819 12.2378 8.92372 12.1052 9.08497L4.31892 19.1628C3.81487 19.7944 3.64243 20.6141 3.81487 21.4068L4.80971 25.7202C4.86277 25.9486 5.06173 26.1099 5.30049 26.1099L9.67777 26.0561C10.4736 26.0427 11.2164 25.6799 11.7205 25.0349ZM17.8507 23.6917H24.9883C25.6847 23.6917 26.2511 24.2654 26.2511 24.9709C26.2511 25.6777 25.6847 26.2501 24.9883 26.2501H17.8507C17.1543 26.2501 16.5879 25.6777 16.5879 24.9709C16.5879 24.2654 17.1543 23.6917 17.8507 23.6917Z" fill="white"/>
</svg>
