<?xml version="1.0" encoding="utf-8"?>
<!-- Generator: Adobe Illustrator 25.0.0, SVG Export Plug-In . SVG Version: 6.00 Build 0)  -->
<svg version="1.1" id="Layer_1" xmlns="http://www.w3.org/2000/svg" xmlns:xlink="http://www.w3.org/1999/xlink" x="0px" y="0px"
	 viewBox="0 0 50 50" style="enable-background:new 0 0 50 50;" xml:space="preserve">
<style type="text/css">
	.st0{fill:#FFFFFF;}
</style>
<g>
	<path class="st0" d="M25,12.2c-7.1,0-12.8,5.7-12.8,12.8S17.9,37.8,25,37.8S37.8,32.1,37.8,25S32.1,12.2,25,12.2z M25,33.3
		c-4.6,0-8.3-3.7-8.3-8.3s3.7-8.3,8.3-8.3s8.3,3.7,8.3,8.3S29.6,33.3,25,33.3L25,33.3z M41.3,11.7c0,1.7-1.3,3-3,3c-1.7,0-3-1.3-3-3
		s1.3-3,3-3S41.3,10,41.3,11.7z M49.8,14.7c-0.2-4-1.1-7.6-4-10.5c-2.9-2.9-6.5-3.8-10.5-4c-4.1-0.2-16.5-0.2-20.6,0
		c-4,0.2-7.5,1.1-10.5,4s-3.8,6.5-4,10.5c-0.2,4.1-0.2,16.5,0,20.6c0.2,4,1.1,7.6,4,10.5s6.5,3.8,10.5,4c4.1,0.2,16.5,0.2,20.6,0
		c4-0.2,7.6-1.1,10.5-4c2.9-2.9,3.8-6.5,4-10.5C50.1,31.2,50.1,18.8,49.8,14.7L49.8,14.7z M44.5,39.7c-0.9,2.2-2.6,3.9-4.8,4.8
		c-3.3,1.3-11.1,1-14.7,1s-11.5,0.3-14.7-1c-2.2-0.9-3.9-2.6-4.8-4.8c-1.3-3.3-1-11.1-1-14.7s-0.3-11.5,1-14.7
		c0.9-2.2,2.6-3.9,4.8-4.8c3.3-1.3,11.1-1,14.7-1s11.5-0.3,14.7,1c2.2,0.9,3.9,2.6,4.8,4.8c1.3,3.3,1,11.1,1,14.7
		S45.8,36.5,44.5,39.7z"/>
</g>
</svg>
