<?xml version="1.0" encoding="utf-8"?>
<!-- Generator: Adobe Illustrator 25.0.0, SVG Export Plug-In . SVG Version: 6.00 Build 0)  -->
<svg version="1.1" id="Layer_1" xmlns="http://www.w3.org/2000/svg" xmlns:xlink="http://www.w3.org/1999/xlink" x="0px" y="0px"
	 viewBox="0 0 50 50" style="enable-background:new 0 0 50 50;" xml:space="preserve">
<style type="text/css">
	.st0{fill:#FFFFFF;}
</style>
<path class="st0" d="M11.2,50H0.8V16.6h10.4V50z M6,12.1c-3.3,0-6-2.7-6-6.1c0-3.3,2.7-6,6-6c3.3,0,6,2.7,6,6
	C12,9.3,9.3,12.1,6,12.1z M50,50H39.6V33.7c0-3.9-0.1-8.8-5.4-8.8c-5.4,0-6.2,4.2-6.2,8.6V50H17.7V16.6h9.9v4.6h0.1
	c1.4-2.6,4.8-5.4,9.8-5.4c10.5,0,12.4,6.9,12.4,15.9L50,50L50,50z"/>
</svg>
