<svg width="519" height="644" viewBox="0 0 519 644" fill="none" xmlns="http://www.w3.org/2000/svg">
<g filter="url(#filter0_d_73_706)">
<rect x="39.6733" y="63.3315" width="439.71" height="565.668" fill="#FFFEFF"/>
</g>
<rect width="125.959" height="38.9326" transform="matrix(1 0 0 -1 76.3159 212.191)" fill="#FE7747"/>
<path d="M95.7558 196.709V186.528H99.4845C100.207 186.528 100.805 186.647 101.279 186.886C101.753 187.121 102.108 187.441 102.343 187.845C102.578 188.246 102.696 188.699 102.696 189.202C102.696 189.627 102.618 189.985 102.462 190.276C102.307 190.565 102.098 190.797 101.836 190.972C101.578 191.145 101.293 191.271 100.981 191.35V191.45C101.319 191.466 101.649 191.575 101.97 191.778C102.295 191.977 102.564 192.26 102.776 192.628C102.988 192.996 103.094 193.443 103.094 193.97C103.094 194.49 102.971 194.958 102.726 195.372C102.484 195.783 102.11 196.11 101.602 196.352C101.095 196.59 100.447 196.709 99.6585 196.709H95.7558ZM97.292 195.392H99.5094C100.245 195.392 100.772 195.249 101.09 194.964C101.409 194.679 101.568 194.323 101.568 193.896C101.568 193.574 101.486 193.279 101.324 193.011C101.162 192.742 100.93 192.528 100.628 192.369C100.33 192.21 99.975 192.131 99.5641 192.131H97.292V195.392ZM97.292 190.932H99.3503C99.695 190.932 100.005 190.866 100.28 190.734C100.558 190.601 100.779 190.415 100.941 190.177C101.107 189.935 101.19 189.65 101.19 189.322C101.19 188.901 101.042 188.548 100.747 188.263C100.452 187.978 99.9999 187.835 99.39 187.835H97.292V190.932ZM106.283 186.528V196.709H104.797V186.528H106.283ZM111.5 196.864C110.784 196.864 110.159 196.7 109.625 196.371C109.092 196.043 108.677 195.584 108.382 194.994C108.087 194.404 107.94 193.715 107.94 192.926C107.94 192.134 108.087 191.441 108.382 190.848C108.677 190.255 109.092 189.794 109.625 189.466C110.159 189.138 110.784 188.974 111.5 188.974C112.216 188.974 112.84 189.138 113.374 189.466C113.908 189.794 114.322 190.255 114.617 190.848C114.912 191.441 115.059 192.134 115.059 192.926C115.059 193.715 114.912 194.404 114.617 194.994C114.322 195.584 113.908 196.043 113.374 196.371C112.84 196.7 112.216 196.864 111.5 196.864ZM111.505 195.616C111.969 195.616 112.353 195.493 112.658 195.248C112.963 195.003 113.188 194.676 113.334 194.268C113.483 193.861 113.558 193.412 113.558 192.921C113.558 192.434 113.483 191.986 113.334 191.579C113.188 191.168 112.963 190.838 112.658 190.589C112.353 190.341 111.969 190.217 111.505 190.217C111.037 190.217 110.649 190.341 110.341 190.589C110.036 190.838 109.809 191.168 109.66 191.579C109.514 191.986 109.441 192.434 109.441 192.921C109.441 193.412 109.514 193.861 109.66 194.268C109.809 194.676 110.036 195.003 110.341 195.248C110.649 195.493 111.037 195.616 111.505 195.616ZM119.92 199.732C119.314 199.732 118.792 199.653 118.354 199.494C117.92 199.334 117.565 199.124 117.29 198.862C117.015 198.6 116.81 198.314 116.674 198.002L117.951 197.475C118.041 197.621 118.16 197.775 118.309 197.937C118.462 198.103 118.667 198.244 118.926 198.36C119.188 198.476 119.524 198.534 119.935 198.534C120.499 198.534 120.964 198.396 121.332 198.121C121.7 197.85 121.884 197.415 121.884 196.819V195.317H121.79C121.7 195.48 121.571 195.66 121.402 195.859C121.236 196.058 121.007 196.231 120.716 196.376C120.424 196.522 120.045 196.595 119.577 196.595C118.974 196.595 118.43 196.454 117.947 196.173C117.466 195.888 117.085 195.468 116.803 194.915C116.525 194.358 116.385 193.673 116.385 192.861C116.385 192.049 116.523 191.353 116.798 190.773C117.076 190.193 117.458 189.749 117.942 189.441C118.425 189.129 118.974 188.974 119.587 188.974C120.061 188.974 120.444 189.053 120.736 189.212C121.027 189.368 121.254 189.55 121.417 189.759C121.582 189.968 121.71 190.152 121.799 190.311H121.909V189.073H123.366V196.879C123.366 197.535 123.213 198.073 122.908 198.494C122.603 198.915 122.191 199.227 121.67 199.429C121.153 199.631 120.57 199.732 119.92 199.732ZM119.905 195.362C120.333 195.362 120.694 195.263 120.989 195.064C121.287 194.862 121.513 194.573 121.665 194.199C121.821 193.821 121.899 193.369 121.899 192.842C121.899 192.328 121.823 191.875 121.67 191.484C121.518 191.093 121.294 190.788 120.999 190.57C120.704 190.347 120.34 190.236 119.905 190.236C119.458 190.236 119.085 190.352 118.787 190.584C118.488 190.813 118.263 191.125 118.111 191.519C117.961 191.914 117.887 192.354 117.887 192.842C117.887 193.342 117.963 193.781 118.116 194.159C118.268 194.537 118.493 194.832 118.792 195.044C119.093 195.256 119.465 195.362 119.905 195.362ZM129.064 199.573V189.073H130.516V190.311H130.64C130.726 190.152 130.851 189.968 131.013 189.759C131.176 189.55 131.401 189.368 131.689 189.212C131.978 189.053 132.359 188.974 132.833 188.974C133.449 188.974 133.999 189.129 134.483 189.441C134.967 189.753 135.347 190.202 135.622 190.788C135.9 191.375 136.039 192.081 136.039 192.906C136.039 193.731 135.902 194.439 135.627 195.029C135.352 195.616 134.974 196.068 134.493 196.386C134.013 196.701 133.464 196.859 132.848 196.859C132.384 196.859 132.004 196.781 131.709 196.625C131.417 196.469 131.189 196.287 131.023 196.078C130.857 195.869 130.73 195.684 130.64 195.521H130.551V199.573H129.064ZM130.521 192.891C130.521 193.428 130.599 193.899 130.755 194.303C130.91 194.708 131.136 195.024 131.431 195.253C131.726 195.478 132.087 195.591 132.515 195.591C132.959 195.591 133.33 195.473 133.628 195.238C133.926 194.999 134.152 194.676 134.304 194.268C134.46 193.861 134.538 193.402 134.538 192.891C134.538 192.388 134.462 191.935 134.309 191.534C134.16 191.133 133.935 190.816 133.633 190.584C133.335 190.352 132.962 190.236 132.515 190.236C132.084 190.236 131.719 190.347 131.421 190.57C131.126 190.792 130.902 191.102 130.75 191.499C130.597 191.897 130.521 192.361 130.521 192.891ZM137.705 196.709V189.073H139.142V190.286H139.221C139.36 189.875 139.606 189.552 139.957 189.317C140.312 189.078 140.713 188.959 141.16 188.959C141.253 188.959 141.362 188.962 141.488 188.969C141.617 188.975 141.719 188.984 141.792 188.994V190.415C141.732 190.399 141.626 190.381 141.473 190.361C141.321 190.338 141.168 190.326 141.016 190.326C140.665 190.326 140.351 190.401 140.076 190.55C139.805 190.696 139.589 190.899 139.43 191.161C139.271 191.42 139.191 191.715 139.191 192.046V196.709H137.705ZM146.021 196.864C145.305 196.864 144.68 196.7 144.147 196.371C143.613 196.043 143.199 195.584 142.904 194.994C142.609 194.404 142.461 193.715 142.461 192.926C142.461 192.134 142.609 191.441 142.904 190.848C143.199 190.255 143.613 189.794 144.147 189.466C144.68 189.138 145.305 188.974 146.021 188.974C146.737 188.974 147.362 189.138 147.895 189.466C148.429 189.794 148.843 190.255 149.138 190.848C149.433 191.441 149.581 192.134 149.581 192.926C149.581 193.715 149.433 194.404 149.138 194.994C148.843 195.584 148.429 196.043 147.895 196.371C147.362 196.7 146.737 196.864 146.021 196.864ZM146.026 195.616C146.49 195.616 146.875 195.493 147.179 195.248C147.484 195.003 147.71 194.676 147.856 194.268C148.005 193.861 148.079 193.412 148.079 192.921C148.079 192.434 148.005 191.986 147.856 191.579C147.71 191.168 147.484 190.838 147.179 190.589C146.875 190.341 146.49 190.217 146.026 190.217C145.559 190.217 145.171 190.341 144.863 190.589C144.558 190.838 144.331 191.168 144.182 191.579C144.036 191.986 143.963 192.434 143.963 192.921C143.963 193.412 144.036 193.861 144.182 194.268C144.331 194.676 144.558 195.003 144.863 195.248C145.171 195.493 145.559 195.616 146.026 195.616ZM151.24 189.073H152.727V197.207C152.727 197.717 152.634 198.148 152.448 198.499C152.266 198.851 151.994 199.117 151.633 199.3C151.275 199.482 150.832 199.573 150.305 199.573C150.252 199.573 150.203 199.573 150.156 199.573C150.106 199.573 150.055 199.571 150.002 199.568V198.29C150.048 198.29 150.09 198.29 150.126 198.29C150.16 198.29 150.198 198.29 150.241 198.29C150.592 198.29 150.846 198.196 151.001 198.007C151.16 197.821 151.24 197.551 151.24 197.197V189.073ZM151.976 187.895C151.717 187.895 151.495 187.809 151.31 187.636C151.127 187.461 151.036 187.252 151.036 187.01C151.036 186.765 151.127 186.556 151.31 186.383C151.495 186.208 151.717 186.12 151.976 186.12C152.234 186.12 152.455 186.208 152.637 186.383C152.823 186.556 152.915 186.765 152.915 187.01C152.915 187.252 152.823 187.461 152.637 187.636C152.455 187.809 152.234 187.895 151.976 187.895ZM158.018 196.864C157.265 196.864 156.617 196.703 156.074 196.381C155.533 196.057 155.116 195.601 154.821 195.014C154.529 194.424 154.383 193.733 154.383 192.941C154.383 192.159 154.529 191.469 154.821 190.873C155.116 190.276 155.527 189.811 156.054 189.476C156.584 189.141 157.204 188.974 157.913 188.974C158.344 188.974 158.762 189.045 159.166 189.187C159.57 189.33 159.933 189.554 160.255 189.859C160.576 190.164 160.83 190.56 161.015 191.047C161.201 191.531 161.294 192.119 161.294 192.812V193.339H155.223V192.225H159.837C159.837 191.834 159.758 191.488 159.598 191.186C159.439 190.881 159.216 190.641 158.927 190.465C158.642 190.289 158.308 190.202 157.923 190.202C157.505 190.202 157.141 190.304 156.829 190.51C156.521 190.712 156.282 190.977 156.113 191.305C155.948 191.63 155.865 191.983 155.865 192.364V193.234C155.865 193.745 155.954 194.179 156.133 194.537C156.316 194.895 156.569 195.168 156.894 195.357C157.219 195.543 157.598 195.636 158.032 195.636C158.314 195.636 158.571 195.596 158.803 195.516C159.035 195.433 159.236 195.311 159.405 195.148C159.574 194.986 159.703 194.785 159.792 194.547L161.199 194.8C161.087 195.215 160.884 195.578 160.593 195.889C160.304 196.197 159.942 196.438 159.504 196.61C159.07 196.779 158.574 196.864 158.018 196.864ZM166.16 196.864C165.421 196.864 164.784 196.696 164.251 196.361C163.72 196.023 163.313 195.558 163.028 194.964C162.743 194.371 162.6 193.692 162.6 192.926C162.6 192.151 162.746 191.466 163.038 190.873C163.329 190.276 163.74 189.811 164.271 189.476C164.801 189.141 165.426 188.974 166.145 188.974C166.725 188.974 167.242 189.081 167.696 189.297C168.15 189.509 168.516 189.807 168.795 190.192C169.076 190.576 169.244 191.025 169.297 191.539H167.85C167.771 191.181 167.588 190.873 167.303 190.614C167.021 190.356 166.644 190.227 166.17 190.227C165.755 190.227 165.392 190.336 165.081 190.555C164.773 190.77 164.532 191.078 164.36 191.479C164.188 191.877 164.102 192.348 164.102 192.891C164.102 193.448 164.186 193.929 164.355 194.333C164.524 194.737 164.763 195.051 165.071 195.273C165.383 195.495 165.749 195.606 166.17 195.606C166.451 195.606 166.707 195.554 166.935 195.452C167.167 195.346 167.361 195.195 167.517 194.999C167.676 194.804 167.787 194.568 167.85 194.293H169.297C169.244 194.787 169.083 195.228 168.815 195.616C168.546 196.004 168.187 196.308 167.736 196.53C167.288 196.753 166.763 196.864 166.16 196.864ZM174.451 189.073V190.266H170.28V189.073H174.451ZM171.399 187.244H172.885V194.467C172.885 194.756 172.928 194.973 173.014 195.119C173.101 195.261 173.212 195.359 173.347 195.412C173.487 195.462 173.637 195.486 173.8 195.486C173.919 195.486 174.024 195.478 174.113 195.462C174.203 195.445 174.272 195.432 174.322 195.422L174.59 196.65C174.504 196.683 174.382 196.716 174.222 196.749C174.063 196.786 173.864 196.806 173.626 196.809C173.235 196.816 172.87 196.746 172.532 196.6C172.194 196.454 171.921 196.229 171.712 195.924C171.503 195.619 171.399 195.236 171.399 194.776V187.244Z" fill="white"/>
<rect x="76.3159" y="212.191" width="366.425" height="167.181" fill="#F5F5F5"/>
<rect x="76.3159" y="212.191" width="366.425" height="6.87047" fill="#FE7747"/>
<path d="M90.0566 250.118C92.3468 251.228 93.4919 252.893 94.3507 254.559C95.4958 251.783 99.2173 246.509 103.798 245.398" stroke="#F3B545" stroke-width="1.5" stroke-linecap="round" stroke-linejoin="round"/>
<rect x="94.6372" y="308.378" width="251.917" height="13.7409" fill="#E7E9ED"/>
<rect x="94.6372" y="331.279" width="209.549" height="13.7409" fill="#E6E8EC"/>
<path d="M116.109 244.236H118.044L120.635 250.56H120.737L123.328 244.236H125.263V252.963H123.746V246.968H123.665L121.253 252.938H120.119L117.707 246.955H117.626V252.963H116.109V244.236ZM128.8 253.095C128.385 253.095 128.011 253.022 127.679 252.874C127.349 252.723 127.088 252.502 126.895 252.209C126.705 251.917 126.609 251.556 126.609 251.127C126.609 250.757 126.678 250.452 126.814 250.211C126.95 249.969 127.136 249.776 127.372 249.631C127.608 249.486 127.874 249.377 128.169 249.303C128.467 249.226 128.776 249.171 129.094 249.137C129.477 249.097 129.788 249.061 130.027 249.03C130.266 248.996 130.439 248.945 130.547 248.877C130.658 248.806 130.713 248.696 130.713 248.549V248.523C130.713 248.202 130.618 247.953 130.428 247.777C130.237 247.601 129.963 247.513 129.605 247.513C129.227 247.513 128.928 247.595 128.706 247.76C128.487 247.925 128.339 248.12 128.263 248.344L126.822 248.14C126.936 247.742 127.124 247.409 127.385 247.142C127.646 246.872 127.966 246.671 128.344 246.537C128.722 246.401 129.139 246.333 129.597 246.333C129.912 246.333 130.226 246.37 130.538 246.443C130.851 246.517 131.136 246.64 131.395 246.81C131.653 246.978 131.861 247.206 132.017 247.496C132.176 247.786 132.256 248.148 132.256 248.583V252.963H130.773V252.064H130.722C130.628 252.246 130.496 252.417 130.325 252.576C130.158 252.732 129.946 252.858 129.69 252.955C129.437 253.049 129.141 253.095 128.8 253.095ZM129.2 251.962C129.51 251.962 129.778 251.901 130.006 251.779C130.233 251.654 130.408 251.489 130.53 251.284C130.655 251.08 130.717 250.857 130.717 250.615V249.844C130.669 249.884 130.587 249.921 130.47 249.955C130.356 249.989 130.229 250.019 130.087 250.044C129.945 250.07 129.804 250.093 129.665 250.113C129.526 250.132 129.405 250.149 129.303 250.164C129.072 250.195 128.866 250.246 128.685 250.317C128.503 250.388 128.359 250.488 128.254 250.615C128.149 250.74 128.097 250.902 128.097 251.101C128.097 251.385 128.2 251.6 128.408 251.745C128.615 251.89 128.879 251.962 129.2 251.962ZM133.807 252.963V246.418H135.303V247.509H135.371C135.49 247.131 135.695 246.84 135.984 246.635C136.277 246.428 136.611 246.324 136.986 246.324C137.071 246.324 137.166 246.328 137.271 246.337C137.379 246.343 137.469 246.353 137.54 246.367V247.786C137.474 247.763 137.371 247.743 137.229 247.726C137.089 247.706 136.955 247.696 136.824 247.696C136.543 247.696 136.29 247.757 136.065 247.88C135.844 247.999 135.669 248.165 135.541 248.378C135.413 248.591 135.349 248.837 135.349 249.115V252.963H133.807ZM139.971 250.909L139.967 249.047H140.214L142.566 246.418H144.369L141.475 249.64H141.155L139.971 250.909ZM138.565 252.963V244.236H140.107V252.963H138.565ZM142.673 252.963L140.542 249.985L141.582 248.898L144.518 252.963H142.673ZM148.025 253.091C147.369 253.091 146.802 252.955 146.325 252.682C145.85 252.407 145.485 252.017 145.229 251.515C144.974 251.009 144.846 250.414 144.846 249.729C144.846 249.056 144.974 248.465 145.229 247.956C145.488 247.445 145.849 247.047 146.312 246.763C146.775 246.476 147.319 246.333 147.944 246.333C148.347 246.333 148.728 246.398 149.086 246.529C149.447 246.657 149.765 246.855 150.04 247.125C150.319 247.395 150.538 247.739 150.697 248.157C150.856 248.571 150.935 249.066 150.935 249.64V250.113H145.57V249.073H149.457C149.454 248.777 149.39 248.515 149.265 248.284C149.14 248.051 148.965 247.868 148.741 247.735C148.519 247.601 148.261 247.534 147.965 247.534C147.65 247.534 147.373 247.611 147.134 247.765C146.896 247.915 146.709 248.114 146.576 248.361C146.445 248.605 146.379 248.874 146.376 249.167V250.074C146.376 250.455 146.445 250.782 146.584 251.054C146.724 251.324 146.918 251.532 147.168 251.676C147.418 251.818 147.711 251.89 148.046 251.89C148.271 251.89 148.474 251.858 148.655 251.796C148.837 251.73 148.995 251.635 149.129 251.51C149.262 251.385 149.363 251.23 149.431 251.046L150.871 251.208C150.78 251.588 150.607 251.921 150.352 252.205C150.099 252.486 149.775 252.705 149.38 252.861C148.985 253.015 148.533 253.091 148.025 253.091ZM155.509 246.418V247.611H151.746V246.418H155.509ZM152.675 244.85H154.218V250.995C154.218 251.202 154.249 251.361 154.311 251.472C154.377 251.58 154.462 251.654 154.567 251.693C154.672 251.733 154.789 251.753 154.917 251.753C155.013 251.753 155.101 251.746 155.181 251.732C155.263 251.718 155.326 251.705 155.368 251.693L155.628 252.899C155.546 252.928 155.428 252.959 155.274 252.993C155.124 253.027 154.939 253.047 154.72 253.053C154.334 253.064 153.986 253.006 153.676 252.878C153.367 252.747 153.121 252.546 152.939 252.273C152.76 252 152.672 251.659 152.675 251.25V244.85ZM156.799 252.963V246.418H158.342V252.963H156.799ZM157.575 245.489C157.33 245.489 157.12 245.408 156.944 245.246C156.768 245.081 156.68 244.884 156.68 244.654C156.68 244.421 156.768 244.223 156.944 244.061C157.12 243.897 157.33 243.814 157.575 243.814C157.822 243.814 158.032 243.897 158.205 244.061C158.381 244.223 158.469 244.421 158.469 244.654C158.469 244.884 158.381 245.081 158.205 245.246C158.032 245.408 157.822 245.489 157.575 245.489ZM161.47 249.128V252.963H159.928V246.418H161.402V247.53H161.479C161.63 247.164 161.87 246.872 162.199 246.657C162.532 246.441 162.942 246.333 163.431 246.333C163.882 246.333 164.276 246.429 164.611 246.622C164.949 246.816 165.211 247.095 165.395 247.462C165.583 247.828 165.675 248.273 165.672 248.796V252.963H164.13V249.034C164.13 248.597 164.016 248.255 163.789 248.007C163.564 247.76 163.253 247.637 162.855 247.637C162.586 247.637 162.345 247.696 162.135 247.816C161.928 247.932 161.765 248.101 161.645 248.323C161.529 248.544 161.47 248.813 161.47 249.128ZM170.087 255.554C169.533 255.554 169.057 255.479 168.659 255.328C168.262 255.181 167.942 254.982 167.701 254.732C167.459 254.482 167.292 254.205 167.198 253.901L168.587 253.564C168.649 253.692 168.74 253.818 168.86 253.943C168.979 254.071 169.14 254.176 169.341 254.259C169.546 254.344 169.803 254.387 170.113 254.387C170.55 254.387 170.912 254.28 171.199 254.067C171.486 253.857 171.63 253.51 171.63 253.027V251.787H171.553C171.473 251.946 171.357 252.11 171.203 252.277C171.053 252.445 170.853 252.586 170.603 252.699C170.355 252.813 170.044 252.87 169.669 252.87C169.167 252.87 168.711 252.752 168.301 252.516C167.895 252.277 167.571 251.922 167.33 251.451C167.091 250.976 166.972 250.382 166.972 249.669C166.972 248.951 167.091 248.344 167.33 247.85C167.571 247.353 167.897 246.976 168.306 246.72C168.715 246.462 169.171 246.333 169.674 246.333C170.057 246.333 170.372 246.398 170.62 246.529C170.87 246.657 171.068 246.811 171.216 246.993C171.364 247.172 171.476 247.341 171.553 247.5H171.638V246.418H173.159V253.07C173.159 253.63 173.026 254.093 172.759 254.459C172.492 254.826 172.127 255.1 171.664 255.282C171.201 255.463 170.675 255.554 170.087 255.554ZM170.1 251.659C170.426 251.659 170.705 251.58 170.935 251.421C171.165 251.262 171.34 251.033 171.459 250.735C171.578 250.436 171.638 250.078 171.638 249.661C171.638 249.249 171.578 248.888 171.459 248.578C171.343 248.269 171.169 248.029 170.939 247.858C170.712 247.685 170.432 247.598 170.1 247.598C169.756 247.598 169.469 247.688 169.239 247.867C169.009 248.046 168.836 248.292 168.719 248.604C168.603 248.914 168.544 249.266 168.544 249.661C168.544 250.061 168.603 250.412 168.719 250.713C168.838 251.012 169.013 251.245 169.243 251.412C169.476 251.577 169.762 251.659 170.1 251.659ZM177.402 245.561V244.236H184.365V245.561H181.667V252.963H180.099V245.561H177.402ZM187.587 253.091C186.931 253.091 186.364 252.955 185.887 252.682C185.413 252.407 185.048 252.017 184.792 251.515C184.536 251.009 184.408 250.414 184.408 249.729C184.408 249.056 184.536 248.465 184.792 247.956C185.05 247.445 185.411 247.047 185.874 246.763C186.337 246.476 186.881 246.333 187.506 246.333C187.91 246.333 188.29 246.398 188.648 246.529C189.009 246.657 189.327 246.855 189.603 247.125C189.881 247.395 190.1 247.739 190.259 248.157C190.418 248.571 190.498 249.066 190.498 249.64V250.113H185.133V249.073H189.019C189.016 248.777 188.952 248.515 188.827 248.284C188.702 248.051 188.528 247.868 188.303 247.735C188.082 247.601 187.823 247.534 187.528 247.534C187.212 247.534 186.935 247.611 186.697 247.765C186.458 247.915 186.272 248.114 186.138 248.361C186.008 248.605 185.941 248.874 185.938 249.167V250.074C185.938 250.455 186.008 250.782 186.147 251.054C186.286 251.324 186.481 251.532 186.731 251.676C186.981 251.818 187.273 251.89 187.609 251.89C187.833 251.89 188.036 251.858 188.218 251.796C188.4 251.73 188.557 251.635 188.691 251.51C188.825 251.385 188.925 251.23 188.994 251.046L190.434 251.208C190.343 251.588 190.17 251.921 189.914 252.205C189.661 252.486 189.337 252.705 188.942 252.861C188.548 253.015 188.096 253.091 187.587 253.091ZM193.686 253.095C193.272 253.095 192.898 253.022 192.566 252.874C192.236 252.723 191.975 252.502 191.782 252.209C191.591 251.917 191.496 251.556 191.496 251.127C191.496 250.757 191.564 250.452 191.701 250.211C191.837 249.969 192.023 249.776 192.259 249.631C192.495 249.486 192.76 249.377 193.056 249.303C193.354 249.226 193.662 249.171 193.98 249.137C194.364 249.097 194.675 249.061 194.914 249.03C195.152 248.996 195.326 248.945 195.434 248.877C195.544 248.806 195.6 248.696 195.6 248.549V248.523C195.6 248.202 195.505 247.953 195.314 247.777C195.124 247.601 194.85 247.513 194.492 247.513C194.114 247.513 193.814 247.595 193.593 247.76C193.374 247.925 193.226 248.12 193.149 248.344L191.709 248.14C191.823 247.742 192.01 247.409 192.272 247.142C192.533 246.872 192.853 246.671 193.23 246.537C193.608 246.401 194.026 246.333 194.483 246.333C194.799 246.333 195.113 246.37 195.425 246.443C195.738 246.517 196.023 246.64 196.282 246.81C196.54 246.978 196.747 247.206 196.904 247.496C197.063 247.786 197.142 248.148 197.142 248.583V252.963H195.659V252.064H195.608C195.515 252.246 195.382 252.417 195.212 252.576C195.044 252.732 194.833 252.858 194.577 252.955C194.324 253.049 194.027 253.095 193.686 253.095ZM194.087 251.962C194.397 251.962 194.665 251.901 194.892 251.779C195.12 251.654 195.294 251.489 195.417 251.284C195.542 251.08 195.604 250.857 195.604 250.615V249.844C195.556 249.884 195.473 249.921 195.357 249.955C195.243 249.989 195.115 250.019 194.973 250.044C194.831 250.07 194.691 250.093 194.551 250.113C194.412 250.132 194.292 250.149 194.189 250.164C193.959 250.195 193.753 250.246 193.571 250.317C193.39 250.388 193.246 250.488 193.141 250.615C193.036 250.74 192.983 250.902 192.983 251.101C192.983 251.385 193.087 251.6 193.294 251.745C193.502 251.89 193.766 251.962 194.087 251.962ZM198.693 252.963V246.418H200.168V247.53H200.245C200.381 247.155 200.607 246.863 200.922 246.652C201.238 246.439 201.614 246.333 202.051 246.333C202.495 246.333 202.868 246.441 203.172 246.657C203.479 246.87 203.695 247.161 203.82 247.53H203.888C204.033 247.167 204.277 246.877 204.621 246.661C204.968 246.442 205.378 246.333 205.853 246.333C206.455 246.333 206.946 246.523 207.327 246.904C207.708 247.284 207.898 247.84 207.898 248.57V252.963H206.351V248.809C206.351 248.402 206.243 248.105 206.027 247.918C205.811 247.728 205.547 247.632 205.235 247.632C204.863 247.632 204.571 247.749 204.361 247.982C204.154 248.212 204.05 248.512 204.05 248.881V252.963H202.537V248.745C202.537 248.407 202.435 248.137 202.23 247.935C202.029 247.733 201.765 247.632 201.438 247.632C201.216 247.632 201.015 247.689 200.833 247.803C200.651 247.914 200.506 248.071 200.398 248.276C200.29 248.478 200.236 248.713 200.236 248.983V252.963H198.693ZM214.636 248.148L213.23 248.301C213.19 248.159 213.121 248.026 213.021 247.901C212.925 247.776 212.794 247.675 212.629 247.598C212.464 247.522 212.263 247.483 212.024 247.483C211.703 247.483 211.433 247.553 211.214 247.692C210.999 247.831 210.892 248.012 210.895 248.233C210.892 248.424 210.962 248.578 211.104 248.698C211.249 248.817 211.487 248.915 211.82 248.992L212.936 249.23C213.555 249.364 214.016 249.576 214.317 249.865C214.621 250.155 214.774 250.534 214.777 251.003C214.774 251.415 214.653 251.779 214.415 252.094C214.179 252.407 213.851 252.651 213.43 252.827C213.01 253.003 212.527 253.091 211.981 253.091C211.18 253.091 210.535 252.924 210.047 252.588C209.558 252.25 209.267 251.78 209.173 251.178L210.678 251.033C210.746 251.328 210.891 251.551 211.112 251.702C211.334 251.853 211.622 251.928 211.977 251.928C212.344 251.928 212.638 251.853 212.859 251.702C213.084 251.551 213.196 251.365 213.196 251.144C213.196 250.956 213.124 250.801 212.979 250.679C212.837 250.557 212.615 250.463 212.314 250.398L211.197 250.164C210.57 250.033 210.105 249.813 209.804 249.503C209.503 249.191 209.354 248.796 209.356 248.318C209.354 247.915 209.463 247.566 209.685 247.27C209.909 246.972 210.22 246.742 210.618 246.58C211.018 246.415 211.48 246.333 212.003 246.333C212.77 246.333 213.374 246.496 213.814 246.823C214.257 247.149 214.531 247.591 214.636 248.148Z" fill="#FE7747"/>
<path opacity="0.6" d="M101.58 285.932H100.252C100.214 285.714 100.144 285.521 100.042 285.353C99.9402 285.183 99.8136 285.038 99.6621 284.92C99.5105 284.802 99.3377 284.713 99.1436 284.654C98.9518 284.592 98.7447 284.561 98.5222 284.561C98.1268 284.561 97.7764 284.661 97.471 284.86C97.1656 285.056 96.9265 285.345 96.7537 285.726C96.5809 286.105 96.4945 286.568 96.4945 287.115C96.4945 287.671 96.5809 288.14 96.7537 288.521C96.9289 288.9 97.168 289.186 97.471 289.38C97.7764 289.572 98.1256 289.668 98.5186 289.668C98.7364 289.668 98.94 289.639 99.1294 289.583C99.3212 289.523 99.4928 289.437 99.6443 289.323C99.7982 289.21 99.9272 289.07 100.031 288.904C100.138 288.739 100.211 288.549 100.252 288.336L101.58 288.343C101.53 288.689 101.422 289.013 101.257 289.316C101.093 289.619 100.879 289.887 100.614 290.119C100.349 290.349 100.038 290.528 99.6834 290.659C99.3283 290.786 98.9341 290.85 98.5008 290.85C97.8616 290.85 97.2911 290.702 96.7892 290.407C96.2873 290.111 95.8919 289.683 95.6031 289.125C95.3143 288.566 95.1699 287.896 95.1699 287.115C95.1699 286.331 95.3155 285.661 95.6067 285.105C95.8979 284.546 96.2944 284.119 96.7963 283.823C97.2982 283.527 97.8664 283.379 98.5008 283.379C98.9057 283.379 99.2821 283.436 99.6301 283.549C99.9781 283.663 100.288 283.83 100.561 284.05C100.833 284.268 101.056 284.535 101.232 284.853C101.409 285.167 101.525 285.527 101.58 285.932ZM105.109 290.858C104.576 290.858 104.114 290.74 103.724 290.506C103.333 290.272 103.03 289.944 102.815 289.522C102.602 289.101 102.495 288.608 102.495 288.045C102.495 287.482 102.602 286.988 102.815 286.564C103.03 286.14 103.333 285.811 103.724 285.577C104.114 285.343 104.576 285.225 105.109 285.225C105.641 285.225 106.103 285.343 106.494 285.577C106.884 285.811 107.186 286.14 107.399 286.564C107.615 286.988 107.722 287.482 107.722 288.045C107.722 288.608 107.615 289.101 107.399 289.522C107.186 289.944 106.884 290.272 106.494 290.506C106.103 290.74 105.641 290.858 105.109 290.858ZM105.116 289.828C105.405 289.828 105.646 289.748 105.84 289.59C106.034 289.429 106.179 289.213 106.273 288.943C106.37 288.674 106.419 288.373 106.419 288.041C106.419 287.708 106.37 287.406 106.273 287.136C106.179 286.864 106.034 286.647 105.84 286.486C105.646 286.325 105.405 286.245 105.116 286.245C104.82 286.245 104.574 286.325 104.377 286.486C104.183 286.647 104.037 286.864 103.94 287.136C103.846 287.406 103.798 287.708 103.798 288.041C103.798 288.373 103.846 288.674 103.94 288.943C104.037 289.213 104.183 289.429 104.377 289.59C104.574 289.748 104.82 289.828 105.116 289.828ZM110.099 287.555V290.751H108.813V285.296H110.042V286.223H110.106C110.231 285.918 110.431 285.675 110.706 285.495C110.983 285.315 111.325 285.225 111.732 285.225C112.109 285.225 112.437 285.306 112.716 285.467C112.998 285.628 113.216 285.861 113.369 286.166C113.526 286.472 113.603 286.842 113.6 287.278V290.751H112.315V287.477C112.315 287.112 112.22 286.827 112.031 286.621C111.844 286.415 111.584 286.312 111.253 286.312C111.028 286.312 110.828 286.362 110.653 286.461C110.48 286.558 110.344 286.699 110.244 286.884C110.147 287.068 110.099 287.292 110.099 287.555ZM117.631 285.296V286.291H114.495V285.296H117.631ZM115.269 283.99H116.555V289.11C116.555 289.283 116.581 289.416 116.633 289.508C116.687 289.598 116.758 289.66 116.846 289.693C116.934 289.726 117.031 289.742 117.137 289.742C117.218 289.742 117.291 289.737 117.357 289.725C117.426 289.713 117.478 289.702 117.514 289.693L117.73 290.698C117.662 290.721 117.563 290.747 117.436 290.776C117.31 290.804 117.156 290.821 116.974 290.826C116.652 290.835 116.362 290.786 116.104 290.68C115.846 290.571 115.641 290.403 115.489 290.176C115.34 289.948 115.267 289.664 115.269 289.323V283.99ZM121.062 290.858C120.515 290.858 120.043 290.744 119.645 290.517C119.25 290.287 118.946 289.963 118.733 289.544C118.519 289.122 118.413 288.626 118.413 288.056C118.413 287.495 118.519 287.002 118.733 286.578C118.948 286.152 119.249 285.821 119.635 285.584C120.02 285.345 120.474 285.225 120.995 285.225C121.331 285.225 121.648 285.28 121.946 285.389C122.247 285.495 122.512 285.661 122.742 285.886C122.974 286.111 123.156 286.397 123.289 286.745C123.421 287.091 123.488 287.503 123.488 287.981V288.375H119.017V287.509H122.255C122.253 287.263 122.2 287.044 122.095 286.852C121.991 286.658 121.846 286.505 121.659 286.394C121.474 286.282 121.259 286.227 121.012 286.227C120.75 286.227 120.519 286.291 120.32 286.419C120.121 286.544 119.966 286.71 119.855 286.916C119.746 287.119 119.69 287.343 119.688 287.587V288.343C119.688 288.661 119.746 288.933 119.862 289.16C119.978 289.385 120.14 289.558 120.348 289.679C120.557 289.797 120.801 289.856 121.08 289.856C121.267 289.856 121.436 289.83 121.588 289.778C121.739 289.724 121.871 289.644 121.982 289.54C122.093 289.436 122.177 289.307 122.234 289.153L123.434 289.288C123.359 289.605 123.214 289.882 123.001 290.119C122.79 290.353 122.52 290.536 122.191 290.666C121.862 290.794 121.486 290.858 121.062 290.858ZM125.861 287.555V290.751H124.575V285.296H125.804V286.223H125.868C125.993 285.918 126.193 285.675 126.468 285.495C126.745 285.315 127.087 285.225 127.494 285.225C127.871 285.225 128.198 285.306 128.478 285.467C128.759 285.628 128.977 285.861 129.131 286.166C129.287 286.472 129.364 286.842 129.362 287.278V290.751H128.076V287.477C128.076 287.112 127.982 286.827 127.792 286.621C127.605 286.415 127.346 286.312 127.015 286.312C126.79 286.312 126.59 286.362 126.415 286.461C126.242 286.558 126.106 286.699 126.006 286.884C125.909 287.068 125.861 287.292 125.861 287.555ZM133.393 285.296V286.291H130.257V285.296H133.393ZM131.031 283.99H132.317V289.11C132.317 289.283 132.343 289.416 132.395 289.508C132.449 289.598 132.52 289.66 132.608 289.693C132.695 289.726 132.792 289.742 132.899 289.742C132.979 289.742 133.053 289.737 133.119 289.725C133.188 289.713 133.24 289.702 133.275 289.693L133.492 290.698C133.423 290.721 133.325 290.747 133.197 290.776C133.072 290.804 132.918 290.821 132.736 290.826C132.414 290.835 132.124 290.786 131.866 290.68C131.607 290.571 131.403 290.403 131.251 290.176C131.102 289.948 131.029 289.664 131.031 289.323V283.99ZM143.23 285.932H141.902C141.864 285.714 141.794 285.521 141.692 285.353C141.591 285.183 141.464 285.038 141.312 284.92C141.161 284.802 140.988 284.713 140.794 284.654C140.602 284.592 140.395 284.561 140.173 284.561C139.777 284.561 139.427 284.661 139.121 284.86C138.816 285.056 138.577 285.345 138.404 285.726C138.231 286.105 138.145 286.568 138.145 287.115C138.145 287.671 138.231 288.14 138.404 288.521C138.579 288.9 138.818 289.186 139.121 289.38C139.427 289.572 139.776 289.668 140.169 289.668C140.387 289.668 140.59 289.639 140.78 289.583C140.972 289.523 141.143 289.437 141.295 289.323C141.449 289.21 141.578 289.07 141.682 288.904C141.788 288.739 141.862 288.549 141.902 288.336L143.23 288.343C143.18 288.689 143.073 289.013 142.907 289.316C142.744 289.619 142.529 289.887 142.264 290.119C141.999 290.349 141.689 290.528 141.334 290.659C140.979 290.786 140.584 290.85 140.151 290.85C139.512 290.85 138.941 290.702 138.44 290.407C137.938 290.111 137.542 289.683 137.254 289.125C136.965 288.566 136.82 287.896 136.82 287.115C136.82 286.331 136.966 285.661 137.257 285.105C137.548 284.546 137.945 284.119 138.447 283.823C138.949 283.527 139.517 283.379 140.151 283.379C140.556 283.379 140.932 283.436 141.28 283.549C141.629 283.663 141.939 283.83 142.211 284.05C142.483 284.268 142.707 284.535 142.882 284.853C143.06 285.167 143.176 285.527 143.23 285.932ZM144.38 290.751V285.296H145.626V286.206H145.683C145.782 285.891 145.953 285.648 146.194 285.478C146.438 285.305 146.716 285.218 147.029 285.218C147.1 285.218 147.179 285.222 147.267 285.229C147.357 285.234 147.431 285.242 147.491 285.254V286.436C147.436 286.417 147.35 286.401 147.231 286.387C147.115 286.37 147.003 286.362 146.894 286.362C146.66 286.362 146.449 286.413 146.262 286.514C146.077 286.614 145.932 286.752 145.825 286.93C145.719 287.108 145.665 287.312 145.665 287.544V290.751H144.38ZM150.535 290.858C149.988 290.858 149.516 290.744 149.118 290.517C148.722 290.287 148.418 289.963 148.205 289.544C147.992 289.122 147.886 288.626 147.886 288.056C147.886 287.495 147.992 287.002 148.205 286.578C148.421 286.152 148.721 285.821 149.107 285.584C149.493 285.345 149.946 285.225 150.467 285.225C150.803 285.225 151.121 285.28 151.419 285.389C151.72 285.495 151.985 285.661 152.214 285.886C152.446 286.111 152.629 286.397 152.761 286.745C152.894 287.091 152.96 287.503 152.96 287.981V288.375H148.489V287.509H151.728C151.726 287.263 151.672 287.044 151.568 286.852C151.464 286.658 151.318 286.505 151.131 286.394C150.947 286.282 150.731 286.227 150.485 286.227C150.222 286.227 149.991 286.291 149.793 286.419C149.594 286.544 149.439 286.71 149.327 286.916C149.218 287.119 149.163 287.343 149.16 287.587V288.343C149.16 288.661 149.218 288.933 149.334 289.16C149.45 289.385 149.613 289.558 149.821 289.679C150.029 289.797 150.273 289.856 150.553 289.856C150.74 289.856 150.909 289.83 151.06 289.778C151.212 289.724 151.343 289.644 151.455 289.54C151.566 289.436 151.65 289.307 151.707 289.153L152.907 289.288C152.831 289.605 152.687 289.882 152.474 290.119C152.263 290.353 151.993 290.536 151.664 290.666C151.335 290.794 150.959 290.858 150.535 290.858ZM155.617 290.861C155.272 290.861 154.96 290.8 154.683 290.676C154.409 290.551 154.191 290.366 154.03 290.122C153.871 289.879 153.792 289.578 153.792 289.22C153.792 288.913 153.849 288.658 153.962 288.457C154.076 288.256 154.231 288.095 154.428 287.974C154.624 287.853 154.846 287.762 155.092 287.701C155.34 287.637 155.597 287.59 155.862 287.562C156.182 287.529 156.441 287.499 156.64 287.473C156.839 287.445 156.983 287.402 157.073 287.345C157.166 287.286 157.212 287.195 157.212 287.072V287.051C157.212 286.783 157.132 286.576 156.974 286.429C156.815 286.282 156.587 286.209 156.288 286.209C155.974 286.209 155.724 286.278 155.539 286.415C155.357 286.552 155.234 286.715 155.17 286.902L153.97 286.731C154.064 286.4 154.221 286.123 154.438 285.9C154.656 285.675 154.922 285.507 155.237 285.396C155.552 285.282 155.9 285.225 156.281 285.225C156.544 285.225 156.806 285.256 157.066 285.318C157.327 285.379 157.565 285.481 157.78 285.623C157.995 285.763 158.168 285.953 158.298 286.195C158.431 286.436 158.497 286.738 158.497 287.1V290.751H157.261V290.002H157.219C157.141 290.153 157.031 290.295 156.889 290.428C156.749 290.558 156.573 290.663 156.36 290.744C156.149 290.822 155.901 290.861 155.617 290.861ZM155.951 289.916C156.209 289.916 156.433 289.866 156.622 289.764C156.812 289.66 156.957 289.522 157.059 289.352C157.163 289.181 157.215 288.996 157.215 288.794V288.152C157.175 288.185 157.106 288.215 157.009 288.244C156.915 288.272 156.808 288.297 156.69 288.318C156.571 288.34 156.454 288.359 156.338 288.375C156.222 288.392 156.122 288.406 156.036 288.418C155.845 288.444 155.673 288.487 155.521 288.546C155.37 288.605 155.25 288.688 155.163 288.794C155.075 288.898 155.031 289.033 155.031 289.199C155.031 289.436 155.118 289.615 155.291 289.735C155.463 289.856 155.684 289.916 155.951 289.916ZM162.514 285.296V286.291H159.378V285.296H162.514ZM160.152 283.99H161.438V289.11C161.438 289.283 161.464 289.416 161.516 289.508C161.57 289.598 161.641 289.66 161.729 289.693C161.816 289.726 161.913 289.742 162.02 289.742C162.101 289.742 162.174 289.737 162.24 289.725C162.309 289.713 162.361 289.702 162.396 289.693L162.613 290.698C162.544 290.721 162.446 290.747 162.318 290.776C162.193 290.804 162.039 290.821 161.857 290.826C161.535 290.835 161.245 290.786 160.987 290.68C160.729 290.571 160.524 290.403 160.372 290.176C160.223 289.948 160.15 289.664 160.152 289.323V283.99ZM165.909 290.858C165.377 290.858 164.915 290.74 164.524 290.506C164.134 290.272 163.831 289.944 163.615 289.522C163.402 289.101 163.296 288.608 163.296 288.045C163.296 287.482 163.402 286.988 163.615 286.564C163.831 286.14 164.134 285.811 164.524 285.577C164.915 285.343 165.377 285.225 165.909 285.225C166.442 285.225 166.904 285.343 167.294 285.577C167.685 285.811 167.987 286.14 168.2 286.564C168.415 286.988 168.523 287.482 168.523 288.045C168.523 288.608 168.415 289.101 168.2 289.522C167.987 289.944 167.685 290.272 167.294 290.506C166.904 290.74 166.442 290.858 165.909 290.858ZM165.917 289.828C166.205 289.828 166.447 289.748 166.641 289.59C166.835 289.429 166.979 289.213 167.074 288.943C167.171 288.674 167.22 288.373 167.22 288.041C167.22 287.708 167.171 287.406 167.074 287.136C166.979 286.864 166.835 286.647 166.641 286.486C166.447 286.325 166.205 286.245 165.917 286.245C165.621 286.245 165.374 286.325 165.178 286.486C164.984 286.647 164.838 286.864 164.741 287.136C164.646 287.406 164.599 287.708 164.599 288.041C164.599 288.373 164.646 288.674 164.741 288.943C164.838 289.213 164.984 289.429 165.178 289.59C165.374 289.748 165.621 289.828 165.917 289.828ZM169.614 290.751V285.296H170.861V286.206H170.917C171.017 285.891 171.187 285.648 171.429 285.478C171.673 285.305 171.951 285.218 172.263 285.218C172.334 285.218 172.414 285.222 172.501 285.229C172.591 285.234 172.666 285.242 172.725 285.254V286.436C172.67 286.417 172.584 286.401 172.466 286.387C172.35 286.37 172.237 286.362 172.128 286.362C171.894 286.362 171.683 286.413 171.496 286.514C171.312 286.614 171.166 286.752 171.059 286.93C170.953 287.108 170.9 287.312 170.9 287.544V290.751H169.614ZM177.89 286.738L176.718 286.866C176.685 286.748 176.627 286.636 176.544 286.532C176.464 286.428 176.355 286.344 176.217 286.28C176.08 286.216 175.912 286.184 175.713 286.184C175.446 286.184 175.221 286.242 175.038 286.358C174.859 286.474 174.77 286.625 174.772 286.809C174.77 286.968 174.828 287.097 174.946 287.196C175.067 287.296 175.266 287.377 175.543 287.441L176.473 287.64C176.989 287.751 177.373 287.928 177.624 288.169C177.877 288.411 178.005 288.727 178.007 289.117C178.005 289.461 177.904 289.764 177.705 290.027C177.509 290.287 177.235 290.491 176.885 290.637C176.535 290.784 176.132 290.858 175.678 290.858C175.01 290.858 174.473 290.718 174.065 290.438C173.658 290.157 173.416 289.765 173.337 289.263L174.591 289.142C174.648 289.389 174.769 289.574 174.953 289.7C175.138 289.825 175.378 289.888 175.674 289.888C175.98 289.888 176.225 289.825 176.409 289.7C176.596 289.574 176.69 289.419 176.69 289.235C176.69 289.078 176.629 288.949 176.509 288.848C176.39 288.746 176.206 288.668 175.955 288.613L175.024 288.418C174.501 288.309 174.114 288.126 173.863 287.867C173.612 287.607 173.488 287.278 173.49 286.88C173.488 286.544 173.579 286.253 173.764 286.007C173.951 285.758 174.21 285.566 174.541 285.431C174.875 285.294 175.26 285.225 175.695 285.225C176.335 285.225 176.838 285.362 177.205 285.634C177.574 285.906 177.802 286.274 177.89 286.738Z" fill="#222A2F"/>
<rect x="76.3159" y="461.819" width="366.425" height="167.181" fill="#F5F5F5"/>
<rect x="76.3159" y="461.819" width="366.425" height="6.87047" fill="#FE7747"/>
<path d="M90.0566 499.745C92.3468 500.855 93.4919 502.521 94.3507 504.187C95.4958 501.411 99.2173 496.136 103.798 495.026" stroke="#FE7747" stroke-width="1.5" stroke-linecap="round" stroke-linejoin="round"/>
<rect x="94.6372" y="558.005" width="251.917" height="13.7409" fill="#E7E9ED"/>
<rect x="94.6372" y="580.907" width="209.549" height="13.7409" fill="#E6E8EC"/>
<path d="M116.245 503.591V495.131H119.833C120.737 495.131 121.429 495.351 121.909 495.791C122.397 496.223 122.641 496.823 122.641 497.591C122.641 498.359 122.397 498.963 121.909 499.403C121.429 499.843 120.737 500.063 119.833 500.063H117.493V503.591H116.245ZM117.493 499.067H119.701C120.269 499.067 120.697 498.939 120.985 498.683C121.273 498.427 121.417 498.063 121.417 497.591C121.417 497.127 121.273 496.767 120.985 496.511C120.697 496.255 120.269 496.127 119.701 496.127H117.493V499.067ZM123.894 503.591V499.043C123.894 498.795 123.886 498.547 123.87 498.299C123.862 498.043 123.846 497.791 123.822 497.543H124.998L125.13 499.103H124.938C125.018 498.727 125.154 498.415 125.346 498.167C125.538 497.919 125.77 497.735 126.042 497.615C126.322 497.495 126.614 497.435 126.918 497.435C127.046 497.435 127.154 497.443 127.242 497.459C127.33 497.467 127.418 497.483 127.506 497.507L127.494 498.587C127.358 498.531 127.238 498.499 127.134 498.491C127.038 498.475 126.918 498.467 126.774 498.467C126.422 498.467 126.122 498.547 125.874 498.707C125.626 498.859 125.438 499.067 125.31 499.331C125.182 499.595 125.118 499.879 125.118 500.183V503.591H123.894ZM130.951 503.699C130.351 503.699 129.831 503.575 129.391 503.327C128.951 503.071 128.611 502.711 128.371 502.247C128.131 501.775 128.011 501.215 128.011 500.567C128.011 499.919 128.131 499.363 128.371 498.899C128.611 498.427 128.951 498.067 129.391 497.819C129.831 497.563 130.351 497.435 130.951 497.435C131.551 497.435 132.071 497.563 132.511 497.819C132.959 498.067 133.303 498.427 133.543 498.899C133.791 499.363 133.915 499.919 133.915 500.567C133.915 501.215 133.791 501.775 133.543 502.247C133.303 502.711 132.959 503.071 132.511 503.327C132.071 503.575 131.551 503.699 130.951 503.699ZM130.951 502.751C131.479 502.751 131.899 502.567 132.211 502.199C132.523 501.831 132.679 501.287 132.679 500.567C132.679 499.847 132.523 499.307 132.211 498.947C131.899 498.579 131.479 498.395 130.951 498.395C130.431 498.395 130.015 498.579 129.703 498.947C129.391 499.307 129.235 499.847 129.235 500.567C129.235 501.287 129.387 501.831 129.691 502.199C130.003 502.567 130.423 502.751 130.951 502.751ZM137.648 503.699C137.12 503.699 136.652 503.575 136.244 503.327C135.844 503.079 135.532 502.719 135.308 502.247C135.092 501.775 134.984 501.215 134.984 500.567C134.984 499.911 135.092 499.351 135.308 498.887C135.532 498.423 135.844 498.067 136.244 497.819C136.652 497.563 137.12 497.435 137.648 497.435C138.168 497.435 138.624 497.567 139.016 497.831C139.416 498.087 139.68 498.439 139.808 498.887H139.664V494.759H140.876V503.591H139.676V502.223H139.82C139.684 502.679 139.42 503.039 139.028 503.303C138.636 503.567 138.176 503.699 137.648 503.699ZM137.948 502.751C138.468 502.751 138.888 502.567 139.208 502.199C139.528 501.831 139.688 501.287 139.688 500.567C139.688 499.847 139.528 499.307 139.208 498.947C138.888 498.579 138.468 498.395 137.948 498.395C137.42 498.395 136.996 498.579 136.676 498.947C136.364 499.307 136.208 499.847 136.208 500.567C136.208 501.287 136.364 501.831 136.676 502.199C136.996 502.567 137.42 502.751 137.948 502.751ZM144.792 503.699C144.064 503.699 143.516 503.503 143.148 503.111C142.788 502.711 142.608 502.099 142.608 501.275V497.543H143.82V501.251C143.82 501.755 143.924 502.127 144.132 502.367C144.34 502.607 144.656 502.727 145.08 502.727C145.56 502.727 145.948 502.567 146.244 502.247C146.54 501.927 146.688 501.503 146.688 500.975V497.543H147.9V503.591H146.724V502.295H146.88C146.712 502.743 146.444 503.091 146.076 503.339C145.708 503.579 145.28 503.699 144.792 503.699ZM152.328 503.699C151.72 503.699 151.188 503.575 150.732 503.327C150.284 503.071 149.936 502.707 149.688 502.235C149.448 501.755 149.328 501.187 149.328 500.531C149.328 499.883 149.452 499.327 149.7 498.863C149.948 498.399 150.296 498.047 150.744 497.807C151.192 497.559 151.72 497.435 152.328 497.435C152.72 497.435 153.1 497.503 153.468 497.639C153.836 497.767 154.14 497.951 154.38 498.191L153.984 499.043C153.76 498.827 153.508 498.667 153.228 498.563C152.948 498.451 152.676 498.395 152.412 498.395C151.836 498.395 151.384 498.579 151.056 498.947C150.728 499.315 150.564 499.847 150.564 500.543C150.564 501.247 150.728 501.787 151.056 502.163C151.384 502.539 151.836 502.727 152.412 502.727C152.668 502.727 152.936 502.679 153.216 502.583C153.496 502.479 153.752 502.315 153.984 502.091L154.38 502.943C154.132 503.183 153.82 503.371 153.444 503.507C153.076 503.635 152.704 503.699 152.328 503.699ZM158.028 503.699C157.372 503.699 156.876 503.523 156.54 503.171C156.204 502.811 156.036 502.275 156.036 501.563V498.479H154.86V497.543H156.036V495.947L157.248 495.623V497.543H158.928V498.479H157.248V501.455C157.248 501.903 157.328 502.223 157.488 502.415C157.648 502.607 157.88 502.703 158.184 502.703C158.336 502.703 158.468 502.691 158.58 502.667C158.7 502.635 158.808 502.599 158.904 502.559V503.543C158.784 503.591 158.644 503.627 158.484 503.651C158.324 503.683 158.172 503.699 158.028 503.699ZM163.354 503.591V495.131H164.446L167.71 502.487H167.35L170.614 495.131H171.694V503.591H170.566V496.823H170.962L167.914 503.591H167.134L164.086 496.823H164.494V503.591H163.354ZM175.921 503.699C175.385 503.699 174.917 503.575 174.517 503.327C174.117 503.079 173.805 502.719 173.581 502.247C173.365 501.775 173.257 501.215 173.257 500.567C173.257 499.911 173.365 499.351 173.581 498.887C173.805 498.423 174.117 498.067 174.517 497.819C174.917 497.563 175.385 497.435 175.921 497.435C176.449 497.435 176.909 497.567 177.301 497.831C177.693 498.095 177.953 498.455 178.081 498.911H177.949L178.069 497.543H179.245C179.221 497.791 179.197 498.039 179.173 498.287C179.157 498.527 179.149 498.763 179.149 498.995V503.591H177.937V502.247H178.069C177.941 502.695 177.677 503.051 177.277 503.315C176.885 503.571 176.433 503.699 175.921 503.699ZM176.221 502.751C176.741 502.751 177.157 502.567 177.469 502.199C177.789 501.831 177.949 501.287 177.949 500.567C177.949 499.847 177.789 499.307 177.469 498.947C177.157 498.579 176.741 498.395 176.221 498.395C175.693 498.395 175.269 498.579 174.949 498.947C174.637 499.307 174.481 499.847 174.481 500.567C174.481 501.287 174.637 501.831 174.949 502.199C175.261 502.567 175.685 502.751 176.221 502.751ZM180.918 503.591V498.995C180.918 498.763 180.906 498.527 180.882 498.287C180.866 498.039 180.846 497.791 180.822 497.543H181.998L182.106 498.815H181.962C182.146 498.367 182.43 498.027 182.814 497.795C183.198 497.555 183.642 497.435 184.146 497.435C184.858 497.435 185.394 497.631 185.754 498.023C186.122 498.415 186.306 499.023 186.306 499.847V503.591H185.094V499.919C185.094 499.383 184.986 498.999 184.77 498.767C184.562 498.527 184.242 498.407 183.81 498.407C183.298 498.407 182.89 498.567 182.586 498.887C182.282 499.199 182.13 499.623 182.13 500.159V503.591H180.918ZM190.347 503.699C189.811 503.699 189.343 503.575 188.943 503.327C188.543 503.079 188.231 502.719 188.007 502.247C187.791 501.775 187.683 501.215 187.683 500.567C187.683 499.911 187.791 499.351 188.007 498.887C188.231 498.423 188.543 498.067 188.943 497.819C189.343 497.563 189.811 497.435 190.347 497.435C190.875 497.435 191.335 497.567 191.727 497.831C192.119 498.095 192.379 498.455 192.507 498.911H192.375L192.495 497.543H193.671C193.647 497.791 193.623 498.039 193.599 498.287C193.583 498.527 193.575 498.763 193.575 498.995V503.591H192.363V502.247H192.495C192.367 502.695 192.103 503.051 191.703 503.315C191.311 503.571 190.859 503.699 190.347 503.699ZM190.647 502.751C191.167 502.751 191.583 502.567 191.895 502.199C192.215 501.831 192.375 501.287 192.375 500.567C192.375 499.847 192.215 499.307 191.895 498.947C191.583 498.579 191.167 498.395 190.647 498.395C190.119 498.395 189.695 498.579 189.375 498.947C189.063 499.307 188.907 499.847 188.907 500.567C188.907 501.287 189.063 501.831 189.375 502.199C189.687 502.567 190.111 502.751 190.647 502.751ZM198.068 506.279C197.524 506.279 197.028 506.215 196.58 506.087C196.14 505.959 195.744 505.767 195.392 505.511L195.692 504.623C195.94 504.791 196.184 504.923 196.424 505.019C196.664 505.123 196.916 505.199 197.18 505.247C197.444 505.295 197.716 505.319 197.996 505.319C198.572 505.319 199.004 505.171 199.292 504.875C199.588 504.587 199.736 504.167 199.736 503.615V501.995H199.856C199.728 502.443 199.464 502.799 199.064 503.063C198.672 503.319 198.216 503.447 197.696 503.447C197.144 503.447 196.664 503.327 196.256 503.087C195.856 502.839 195.544 502.491 195.32 502.043C195.104 501.587 194.996 501.051 194.996 500.435C194.996 499.819 195.104 499.287 195.32 498.839C195.544 498.391 195.856 498.047 196.256 497.807C196.664 497.559 197.144 497.435 197.696 497.435C198.224 497.435 198.68 497.567 199.064 497.831C199.456 498.087 199.716 498.439 199.844 498.887L199.736 498.791L199.844 497.543H201.02C200.988 497.791 200.964 498.039 200.948 498.287C200.932 498.527 200.924 498.763 200.924 498.995V503.471C200.924 504.383 200.68 505.079 200.192 505.559C199.712 506.039 199.004 506.279 198.068 506.279ZM197.984 502.499C198.512 502.499 198.932 502.319 199.244 501.959C199.564 501.599 199.724 501.091 199.724 500.435C199.724 499.779 199.564 499.275 199.244 498.923C198.932 498.571 198.512 498.395 197.984 498.395C197.44 498.395 197.008 498.571 196.688 498.923C196.376 499.275 196.22 499.779 196.22 500.435C196.22 501.091 196.376 501.599 196.688 501.959C197.008 502.319 197.44 502.499 197.984 502.499ZM205.487 503.699C204.511 503.699 203.743 503.423 203.183 502.871C202.623 502.319 202.343 501.555 202.343 500.579C202.343 499.947 202.463 499.395 202.703 498.923C202.951 498.451 203.291 498.087 203.723 497.831C204.163 497.567 204.671 497.435 205.247 497.435C205.815 497.435 206.291 497.555 206.675 497.795C207.059 498.035 207.351 498.375 207.551 498.815C207.751 499.247 207.851 499.759 207.851 500.351V500.735H203.291V500.039H207.023L206.819 500.195C206.819 499.595 206.683 499.131 206.411 498.803C206.147 498.467 205.763 498.299 205.259 498.299C204.699 498.299 204.267 498.495 203.963 498.887C203.659 499.271 203.507 499.803 203.507 500.483V500.603C203.507 501.315 203.679 501.851 204.023 502.211C204.375 502.571 204.871 502.751 205.511 502.751C205.863 502.751 206.191 502.703 206.495 502.607C206.807 502.503 207.103 502.335 207.383 502.103L207.779 502.931C207.499 503.179 207.159 503.371 206.759 503.507C206.359 503.635 205.935 503.699 205.487 503.699ZM209.218 503.591V499.043C209.218 498.795 209.21 498.547 209.194 498.299C209.186 498.043 209.17 497.791 209.146 497.543H210.322L210.454 499.103H210.262C210.342 498.727 210.478 498.415 210.67 498.167C210.862 497.919 211.094 497.735 211.366 497.615C211.646 497.495 211.938 497.435 212.242 497.435C212.37 497.435 212.478 497.443 212.566 497.459C212.654 497.467 212.742 497.483 212.83 497.507L212.818 498.587C212.682 498.531 212.562 498.499 212.458 498.491C212.362 498.475 212.242 498.467 212.098 498.467C211.746 498.467 211.446 498.547 211.198 498.707C210.95 498.859 210.762 499.067 210.634 499.331C210.506 499.595 210.442 499.879 210.442 500.183V503.591H209.218ZM215.783 503.699C215.279 503.699 214.815 503.635 214.391 503.507C213.967 503.379 213.615 503.199 213.335 502.967L213.707 502.139C214.003 502.363 214.331 502.531 214.691 502.643C215.051 502.755 215.419 502.811 215.795 502.811C216.235 502.811 216.567 502.735 216.791 502.583C217.015 502.423 217.127 502.207 217.127 501.935C217.127 501.727 217.055 501.559 216.911 501.431C216.775 501.303 216.547 501.207 216.227 501.143L215.075 500.915C214.563 500.803 214.175 500.611 213.911 500.339C213.647 500.067 213.515 499.719 213.515 499.295C213.515 498.935 213.611 498.615 213.803 498.335C214.003 498.055 214.283 497.835 214.643 497.675C215.011 497.515 215.439 497.435 215.927 497.435C216.375 497.435 216.791 497.499 217.175 497.627C217.559 497.755 217.879 497.939 218.135 498.179L217.751 498.983C217.503 498.775 217.223 498.615 216.911 498.503C216.599 498.383 216.283 498.323 215.963 498.323C215.515 498.323 215.183 498.407 214.967 498.575C214.751 498.743 214.643 498.963 214.643 499.235C214.643 499.443 214.707 499.615 214.835 499.751C214.971 499.879 215.183 499.979 215.471 500.051L216.623 500.279C217.167 500.391 217.575 500.575 217.847 500.831C218.119 501.087 218.255 501.431 218.255 501.863C218.255 502.239 218.151 502.567 217.943 502.847C217.735 503.127 217.447 503.339 217.079 503.483C216.711 503.627 216.279 503.699 215.783 503.699Z" fill="#FE7747"/>
<path opacity="0.6" d="M101.58 535.56H100.252C100.214 535.342 100.144 535.149 100.042 534.981C99.9402 534.81 99.8136 534.666 99.6621 534.547C99.5105 534.429 99.3377 534.34 99.1436 534.281C98.9518 534.22 98.7447 534.189 98.5222 534.189C98.1268 534.189 97.7764 534.288 97.471 534.487C97.1656 534.684 96.9265 534.972 96.7537 535.354C96.5809 535.732 96.4945 536.195 96.4945 536.742C96.4945 537.298 96.5809 537.767 96.7537 538.148C96.9289 538.527 97.168 538.814 97.471 539.008C97.7764 539.199 98.1256 539.295 98.5186 539.295C98.7364 539.295 98.94 539.267 99.1294 539.21C99.3212 539.151 99.4928 539.064 99.6443 538.951C99.7982 538.837 99.9272 538.698 100.031 538.532C100.138 538.366 100.211 538.177 100.252 537.964L101.58 537.971C101.53 538.316 101.422 538.641 101.257 538.944C101.093 539.247 100.879 539.514 100.614 539.746C100.349 539.976 100.038 540.156 99.6834 540.286C99.3283 540.414 98.9341 540.478 98.5008 540.478C97.8616 540.478 97.2911 540.33 96.7892 540.034C96.2873 539.738 95.8919 539.311 95.6031 538.752C95.3143 538.193 95.1699 537.523 95.1699 536.742C95.1699 535.958 95.3155 535.288 95.6067 534.732C95.8979 534.173 96.2944 533.746 96.7963 533.45C97.2982 533.154 97.8664 533.006 98.5008 533.006C98.9057 533.006 99.2821 533.063 99.6301 533.177C99.9781 533.29 100.288 533.457 100.561 533.677C100.833 533.895 101.056 534.163 101.232 534.48C101.409 534.795 101.525 535.155 101.58 535.56ZM105.109 540.485C104.576 540.485 104.114 540.368 103.724 540.133C103.333 539.899 103.03 539.571 102.815 539.15C102.602 538.728 102.495 538.236 102.495 537.672C102.495 537.109 102.602 536.615 102.815 536.192C103.03 535.768 103.333 535.439 103.724 535.204C104.114 534.97 104.576 534.853 105.109 534.853C105.641 534.853 106.103 534.97 106.494 535.204C106.884 535.439 107.186 535.768 107.399 536.192C107.615 536.615 107.722 537.109 107.722 537.672C107.722 538.236 107.615 538.728 107.399 539.15C107.186 539.571 106.884 539.899 106.494 540.133C106.103 540.368 105.641 540.485 105.109 540.485ZM105.116 539.455C105.405 539.455 105.646 539.376 105.84 539.217C106.034 539.056 106.179 538.841 106.273 538.571C106.37 538.301 106.419 538 106.419 537.669C106.419 537.335 106.37 537.033 106.273 536.763C106.179 536.491 106.034 536.274 105.84 536.114C105.646 535.953 105.405 535.872 105.116 535.872C104.82 535.872 104.574 535.953 104.377 536.114C104.183 536.274 104.037 536.491 103.94 536.763C103.846 537.033 103.798 537.335 103.798 537.669C103.798 538 103.846 538.301 103.94 538.571C104.037 538.841 104.183 539.056 104.377 539.217C104.574 539.376 104.82 539.455 105.116 539.455ZM110.099 537.182V540.378H108.813V534.924H110.042V535.851H110.106C110.231 535.545 110.431 535.303 110.706 535.123C110.983 534.943 111.325 534.853 111.732 534.853C112.109 534.853 112.437 534.933 112.716 535.094C112.998 535.255 113.216 535.489 113.369 535.794C113.526 536.099 113.603 536.47 113.6 536.905V540.378H112.315V537.104C112.315 536.74 112.22 536.454 112.031 536.248C111.844 536.042 111.584 535.939 111.253 535.939C111.028 535.939 110.828 535.989 110.653 536.089C110.48 536.186 110.344 536.327 110.244 536.511C110.147 536.696 110.099 536.92 110.099 537.182ZM117.631 534.924V535.918H114.495V534.924H117.631ZM115.269 533.617H116.555V538.738C116.555 538.911 116.581 539.043 116.633 539.136C116.687 539.225 116.758 539.287 116.846 539.32C116.934 539.353 117.031 539.37 117.137 539.37C117.218 539.37 117.291 539.364 117.357 539.352C117.426 539.34 117.478 539.33 117.514 539.32L117.73 540.325C117.662 540.349 117.563 540.375 117.436 540.403C117.31 540.432 117.156 540.448 116.974 540.453C116.652 540.462 116.362 540.414 116.104 540.307C115.846 540.198 115.641 540.03 115.489 539.803C115.34 539.576 115.267 539.292 115.269 538.951V533.617ZM121.062 540.485C120.515 540.485 120.043 540.371 119.645 540.144C119.25 539.914 118.946 539.59 118.733 539.171C118.519 538.75 118.413 538.254 118.413 537.683C118.413 537.122 118.519 536.63 118.733 536.206C118.948 535.78 119.249 535.448 119.635 535.212C120.02 534.972 120.474 534.853 120.995 534.853C121.331 534.853 121.648 534.907 121.946 535.016C122.247 535.123 122.512 535.288 122.742 535.513C122.974 535.738 123.156 536.025 123.289 536.373C123.421 536.718 123.488 537.13 123.488 537.609V538.003H119.017V537.136H122.255C122.253 536.89 122.2 536.671 122.095 536.479C121.991 536.285 121.846 536.132 121.659 536.021C121.474 535.91 121.259 535.854 121.012 535.854C120.75 535.854 120.519 535.918 120.32 536.046C120.121 536.172 119.966 536.337 119.855 536.543C119.746 536.747 119.69 536.971 119.688 537.214V537.971C119.688 538.288 119.746 538.56 119.862 538.788C119.978 539.012 120.14 539.185 120.348 539.306C120.557 539.424 120.801 539.484 121.08 539.484C121.267 539.484 121.436 539.457 121.588 539.405C121.739 539.351 121.871 539.272 121.982 539.167C122.093 539.063 122.177 538.934 122.234 538.78L123.434 538.915C123.359 539.233 123.214 539.51 123.001 539.746C122.79 539.981 122.52 540.163 122.191 540.293C121.862 540.421 121.486 540.485 121.062 540.485ZM125.861 537.182V540.378H124.575V534.924H125.804V535.851H125.868C125.993 535.545 126.193 535.303 126.468 535.123C126.745 534.943 127.087 534.853 127.494 534.853C127.871 534.853 128.198 534.933 128.478 535.094C128.759 535.255 128.977 535.489 129.131 535.794C129.287 536.099 129.364 536.47 129.362 536.905V540.378H128.076V537.104C128.076 536.74 127.982 536.454 127.792 536.248C127.605 536.042 127.346 535.939 127.015 535.939C126.79 535.939 126.59 535.989 126.415 536.089C126.242 536.186 126.106 536.327 126.006 536.511C125.909 536.696 125.861 536.92 125.861 537.182ZM133.393 534.924V535.918H130.257V534.924H133.393ZM131.031 533.617H132.317V538.738C132.317 538.911 132.343 539.043 132.395 539.136C132.449 539.225 132.52 539.287 132.608 539.32C132.695 539.353 132.792 539.37 132.899 539.37C132.979 539.37 133.053 539.364 133.119 539.352C133.188 539.34 133.24 539.33 133.275 539.32L133.492 540.325C133.423 540.349 133.325 540.375 133.197 540.403C133.072 540.432 132.918 540.448 132.736 540.453C132.414 540.462 132.124 540.414 131.866 540.307C131.607 540.198 131.403 540.03 131.251 539.803C131.102 539.576 131.029 539.292 131.031 538.951V533.617ZM143.23 535.56H141.902C141.864 535.342 141.794 535.149 141.692 534.981C141.591 534.81 141.464 534.666 141.312 534.547C141.161 534.429 140.988 534.34 140.794 534.281C140.602 534.22 140.395 534.189 140.173 534.189C139.777 534.189 139.427 534.288 139.121 534.487C138.816 534.684 138.577 534.972 138.404 535.354C138.231 535.732 138.145 536.195 138.145 536.742C138.145 537.298 138.231 537.767 138.404 538.148C138.579 538.527 138.818 538.814 139.121 539.008C139.427 539.199 139.776 539.295 140.169 539.295C140.387 539.295 140.59 539.267 140.78 539.21C140.972 539.151 141.143 539.064 141.295 538.951C141.449 538.837 141.578 538.698 141.682 538.532C141.788 538.366 141.862 538.177 141.902 537.964L143.23 537.971C143.18 538.316 143.073 538.641 142.907 538.944C142.744 539.247 142.529 539.514 142.264 539.746C141.999 539.976 141.689 540.156 141.334 540.286C140.979 540.414 140.584 540.478 140.151 540.478C139.512 540.478 138.941 540.33 138.44 540.034C137.938 539.738 137.542 539.311 137.254 538.752C136.965 538.193 136.82 537.523 136.82 536.742C136.82 535.958 136.966 535.288 137.257 534.732C137.548 534.173 137.945 533.746 138.447 533.45C138.949 533.154 139.517 533.006 140.151 533.006C140.556 533.006 140.932 533.063 141.28 533.177C141.629 533.29 141.939 533.457 142.211 533.677C142.483 533.895 142.707 534.163 142.882 534.48C143.06 534.795 143.176 535.155 143.23 535.56ZM144.38 540.378V534.924H145.626V535.833H145.683C145.782 535.518 145.953 535.275 146.194 535.105C146.438 534.932 146.716 534.846 147.029 534.846C147.1 534.846 147.179 534.849 147.267 534.856C147.357 534.861 147.431 534.869 147.491 534.881V536.064C147.436 536.045 147.35 536.028 147.231 536.014C147.115 535.997 147.003 535.989 146.894 535.989C146.66 535.989 146.449 536.04 146.262 536.142C146.077 536.241 145.932 536.38 145.825 536.557C145.719 536.735 145.665 536.94 145.665 537.172V540.378H144.38ZM150.535 540.485C149.988 540.485 149.516 540.371 149.118 540.144C148.722 539.914 148.418 539.59 148.205 539.171C147.992 538.75 147.886 538.254 147.886 537.683C147.886 537.122 147.992 536.63 148.205 536.206C148.421 535.78 148.721 535.448 149.107 535.212C149.493 534.972 149.946 534.853 150.467 534.853C150.803 534.853 151.121 534.907 151.419 535.016C151.72 535.123 151.985 535.288 152.214 535.513C152.446 535.738 152.629 536.025 152.761 536.373C152.894 536.718 152.96 537.13 152.96 537.609V538.003H148.489V537.136H151.728C151.726 536.89 151.672 536.671 151.568 536.479C151.464 536.285 151.318 536.132 151.131 536.021C150.947 535.91 150.731 535.854 150.485 535.854C150.222 535.854 149.991 535.918 149.793 536.046C149.594 536.172 149.439 536.337 149.327 536.543C149.218 536.747 149.163 536.971 149.16 537.214V537.971C149.16 538.288 149.218 538.56 149.334 538.788C149.45 539.012 149.613 539.185 149.821 539.306C150.029 539.424 150.273 539.484 150.553 539.484C150.74 539.484 150.909 539.457 151.06 539.405C151.212 539.351 151.343 539.272 151.455 539.167C151.566 539.063 151.65 538.934 151.707 538.78L152.907 538.915C152.831 539.233 152.687 539.51 152.474 539.746C152.263 539.981 151.993 540.163 151.664 540.293C151.335 540.421 150.959 540.485 150.535 540.485ZM155.617 540.489C155.272 540.489 154.96 540.427 154.683 540.304C154.409 540.178 154.191 539.994 154.03 539.75C153.871 539.506 153.792 539.205 153.792 538.848C153.792 538.54 153.849 538.286 153.962 538.084C154.076 537.883 154.231 537.722 154.428 537.601C154.624 537.481 154.846 537.39 155.092 537.328C155.34 537.264 155.597 537.218 155.862 537.189C156.182 537.156 156.441 537.127 156.64 537.101C156.839 537.072 156.983 537.03 157.073 536.973C157.166 536.914 157.212 536.823 157.212 536.699V536.678C157.212 536.411 157.132 536.203 156.974 536.057C156.815 535.91 156.587 535.837 156.288 535.837C155.974 535.837 155.724 535.905 155.539 536.042C155.357 536.18 155.234 536.342 155.17 536.529L153.97 536.359C154.064 536.027 154.221 535.75 154.438 535.528C154.656 535.303 154.922 535.135 155.237 535.023C155.552 534.91 155.9 534.853 156.281 534.853C156.544 534.853 156.806 534.884 157.066 534.945C157.327 535.007 157.565 535.109 157.78 535.251C157.995 535.39 158.168 535.581 158.298 535.822C158.431 536.064 158.497 536.366 158.497 536.728V540.378H157.261V539.629H157.219C157.141 539.781 157.031 539.923 156.889 540.055C156.749 540.185 156.573 540.291 156.36 540.371C156.149 540.449 155.901 540.489 155.617 540.489ZM155.951 539.544C156.209 539.544 156.433 539.493 156.622 539.391C156.812 539.287 156.957 539.15 157.059 538.979C157.163 538.809 157.215 538.623 157.215 538.422V537.779C157.175 537.812 157.106 537.843 157.009 537.871C156.915 537.9 156.808 537.925 156.69 537.946C156.571 537.967 156.454 537.986 156.338 538.003C156.222 538.019 156.122 538.033 156.036 538.045C155.845 538.071 155.673 538.114 155.521 538.173C155.37 538.232 155.25 538.315 155.163 538.422C155.075 538.526 155.031 538.661 155.031 538.827C155.031 539.063 155.118 539.242 155.291 539.363C155.463 539.484 155.684 539.544 155.951 539.544ZM162.514 534.924V535.918H159.378V534.924H162.514ZM160.152 533.617H161.438V538.738C161.438 538.911 161.464 539.043 161.516 539.136C161.57 539.225 161.641 539.287 161.729 539.32C161.816 539.353 161.913 539.37 162.02 539.37C162.101 539.37 162.174 539.364 162.24 539.352C162.309 539.34 162.361 539.33 162.396 539.32L162.613 540.325C162.544 540.349 162.446 540.375 162.318 540.403C162.193 540.432 162.039 540.448 161.857 540.453C161.535 540.462 161.245 540.414 160.987 540.307C160.729 540.198 160.524 540.03 160.372 539.803C160.223 539.576 160.15 539.292 160.152 538.951V533.617ZM165.909 540.485C165.377 540.485 164.915 540.368 164.524 540.133C164.134 539.899 163.831 539.571 163.615 539.15C163.402 538.728 163.296 538.236 163.296 537.672C163.296 537.109 163.402 536.615 163.615 536.192C163.831 535.768 164.134 535.439 164.524 535.204C164.915 534.97 165.377 534.853 165.909 534.853C166.442 534.853 166.904 534.97 167.294 535.204C167.685 535.439 167.987 535.768 168.2 536.192C168.415 536.615 168.523 537.109 168.523 537.672C168.523 538.236 168.415 538.728 168.2 539.15C167.987 539.571 167.685 539.899 167.294 540.133C166.904 540.368 166.442 540.485 165.909 540.485ZM165.917 539.455C166.205 539.455 166.447 539.376 166.641 539.217C166.835 539.056 166.979 538.841 167.074 538.571C167.171 538.301 167.22 538 167.22 537.669C167.22 537.335 167.171 537.033 167.074 536.763C166.979 536.491 166.835 536.274 166.641 536.114C166.447 535.953 166.205 535.872 165.917 535.872C165.621 535.872 165.374 535.953 165.178 536.114C164.984 536.274 164.838 536.491 164.741 536.763C164.646 537.033 164.599 537.335 164.599 537.669C164.599 538 164.646 538.301 164.741 538.571C164.838 538.841 164.984 539.056 165.178 539.217C165.374 539.376 165.621 539.455 165.917 539.455ZM169.614 540.378V534.924H170.861V535.833H170.917C171.017 535.518 171.187 535.275 171.429 535.105C171.673 534.932 171.951 534.846 172.263 534.846C172.334 534.846 172.414 534.849 172.501 534.856C172.591 534.861 172.666 534.869 172.725 534.881V536.064C172.67 536.045 172.584 536.028 172.466 536.014C172.35 535.997 172.237 535.989 172.128 535.989C171.894 535.989 171.683 536.04 171.496 536.142C171.312 536.241 171.166 536.38 171.059 536.557C170.953 536.735 170.9 536.94 170.9 537.172V540.378H169.614ZM177.89 536.366L176.718 536.493C176.685 536.375 176.627 536.264 176.544 536.16C176.464 536.056 176.355 535.971 176.217 535.908C176.08 535.844 175.912 535.812 175.713 535.812C175.446 535.812 175.221 535.87 175.038 535.986C174.859 536.102 174.77 536.252 174.772 536.437C174.77 536.595 174.828 536.724 174.946 536.824C175.067 536.923 175.266 537.005 175.543 537.069L176.473 537.268C176.989 537.379 177.373 537.555 177.624 537.797C177.877 538.038 178.005 538.354 178.007 538.745C178.005 539.088 177.904 539.391 177.705 539.654C177.509 539.914 177.235 540.118 176.885 540.265C176.535 540.412 176.132 540.485 175.678 540.485C175.01 540.485 174.473 540.345 174.065 540.066C173.658 539.784 173.416 539.392 173.337 538.89L174.591 538.77C174.648 539.016 174.769 539.202 174.953 539.327C175.138 539.453 175.378 539.515 175.674 539.515C175.98 539.515 176.225 539.453 176.409 539.327C176.596 539.202 176.69 539.047 176.69 538.862C176.69 538.706 176.629 538.577 176.509 538.475C176.39 538.373 176.206 538.295 175.955 538.241L175.024 538.045C174.501 537.936 174.114 537.753 173.863 537.495C173.612 537.234 173.488 536.905 173.49 536.508C173.488 536.172 173.579 535.88 173.764 535.634C173.951 535.386 174.21 535.194 174.541 535.059C174.875 534.922 175.26 534.853 175.695 534.853C176.335 534.853 176.838 534.989 177.205 535.261C177.574 535.533 177.802 535.902 177.89 536.366Z" fill="#222A2F"/>
<rect width="163.746" height="38.9326" transform="matrix(1 0 0 -1 76.3159 461.818)" fill="#FE7747"/>
<path d="M104.212 439.466H102.661C102.602 439.134 102.491 438.843 102.328 438.591C102.166 438.339 101.967 438.125 101.732 437.949C101.496 437.774 101.233 437.641 100.941 437.552C100.653 437.462 100.346 437.417 100.021 437.417C99.4348 437.417 98.9095 437.565 98.4454 437.86C97.9847 438.155 97.6202 438.587 97.3517 439.157C97.0865 439.728 96.954 440.424 96.954 441.246C96.954 442.074 97.0865 442.773 97.3517 443.344C97.6202 443.914 97.9864 444.344 98.4504 444.636C98.9144 444.928 99.4364 445.074 100.016 445.074C100.338 445.074 100.643 445.031 100.931 444.944C101.223 444.855 101.486 444.724 101.722 444.552C101.957 444.379 102.156 444.169 102.318 443.92C102.484 443.668 102.598 443.38 102.661 443.055L104.212 443.06C104.13 443.561 103.969 444.021 103.73 444.442C103.495 444.86 103.192 445.221 102.82 445.526C102.453 445.828 102.032 446.061 101.558 446.227C101.084 446.393 100.567 446.476 100.007 446.476C99.1249 446.476 98.3394 446.267 97.65 445.849C96.9606 445.428 96.417 444.827 96.0193 444.045C95.6249 443.262 95.4277 442.329 95.4277 441.246C95.4277 440.158 95.6266 439.225 96.0243 438.447C96.422 437.664 96.9656 437.064 97.655 436.647C98.3444 436.226 99.1282 436.015 100.007 436.015C100.547 436.015 101.051 436.093 101.518 436.249C101.989 436.402 102.411 436.627 102.786 436.925C103.16 437.22 103.47 437.581 103.715 438.009C103.961 438.433 104.126 438.919 104.212 439.466ZM109.148 446.491C108.432 446.491 107.807 446.326 107.274 445.998C106.74 445.67 106.326 445.211 106.031 444.621C105.736 444.031 105.588 443.342 105.588 442.553C105.588 441.761 105.736 441.068 106.031 440.475C106.326 439.882 106.74 439.421 107.274 439.093C107.807 438.765 108.432 438.601 109.148 438.601C109.864 438.601 110.489 438.765 111.022 439.093C111.556 439.421 111.97 439.882 112.265 440.475C112.56 441.068 112.708 441.761 112.708 442.553C112.708 443.342 112.56 444.031 112.265 444.621C111.97 445.211 111.556 445.67 111.022 445.998C110.489 446.326 109.864 446.491 109.148 446.491ZM109.153 445.243C109.617 445.243 110.001 445.12 110.306 444.875C110.611 444.63 110.837 444.303 110.983 443.895C111.132 443.488 111.206 443.039 111.206 442.548C111.206 442.061 111.132 441.613 110.983 441.206C110.837 440.795 110.611 440.465 110.306 440.216C110.001 439.968 109.617 439.844 109.153 439.844C108.686 439.844 108.298 439.968 107.99 440.216C107.685 440.465 107.458 440.795 107.309 441.206C107.163 441.613 107.09 442.061 107.09 442.548C107.09 443.039 107.163 443.488 107.309 443.895C107.458 444.303 107.685 444.63 107.99 444.875C108.298 445.12 108.686 445.243 109.153 445.243ZM115.853 441.802V446.336H114.367V438.7H115.794V439.943H115.888C116.064 439.539 116.339 439.214 116.714 438.969C117.091 438.723 117.567 438.601 118.14 438.601C118.661 438.601 119.116 438.71 119.508 438.929C119.899 439.144 120.202 439.466 120.417 439.893C120.633 440.321 120.741 440.849 120.741 441.479V446.336H119.254V441.658C119.254 441.105 119.11 440.672 118.822 440.361C118.533 440.046 118.137 439.888 117.633 439.888C117.289 439.888 116.982 439.963 116.714 440.112C116.448 440.261 116.238 440.48 116.082 440.768C115.93 441.053 115.853 441.398 115.853 441.802ZM126.299 438.7V439.893H122.128V438.7H126.299ZM123.246 436.871H124.733V444.094C124.733 444.383 124.776 444.6 124.862 444.746C124.948 444.888 125.059 444.986 125.195 445.039C125.334 445.089 125.485 445.113 125.648 445.113C125.767 445.113 125.871 445.105 125.961 445.089C126.05 445.072 126.12 445.059 126.17 445.049L126.438 446.277C126.352 446.31 126.229 446.343 126.07 446.376C125.911 446.413 125.712 446.433 125.473 446.436C125.082 446.442 124.718 446.373 124.38 446.227C124.042 446.081 123.768 445.856 123.559 445.551C123.351 445.246 123.246 444.863 123.246 444.402V436.871ZM131.152 446.491C130.4 446.491 129.752 446.33 129.208 446.008C128.668 445.683 128.251 445.228 127.956 444.641C127.664 444.051 127.518 443.36 127.518 442.568C127.518 441.786 127.664 441.096 127.956 440.5C128.251 439.903 128.662 439.438 129.189 439.103C129.719 438.768 130.339 438.601 131.048 438.601C131.479 438.601 131.896 438.672 132.301 438.814C132.705 438.957 133.068 439.181 133.39 439.486C133.711 439.79 133.965 440.187 134.15 440.674C134.336 441.158 134.429 441.746 134.429 442.439V442.966H128.358V441.852H132.972C132.972 441.461 132.892 441.115 132.733 440.813C132.574 440.508 132.35 440.268 132.062 440.092C131.777 439.916 131.442 439.829 131.058 439.829C130.64 439.829 130.276 439.931 129.964 440.137C129.656 440.339 129.417 440.604 129.248 440.932C129.082 441.257 129 441.61 129 441.991V442.861C129 443.372 129.089 443.806 129.268 444.164C129.45 444.522 129.704 444.795 130.029 444.984C130.354 445.17 130.733 445.263 131.167 445.263C131.449 445.263 131.706 445.223 131.938 445.143C132.17 445.06 132.37 444.938 132.539 444.775C132.708 444.613 132.838 444.412 132.927 444.174L134.334 444.427C134.221 444.842 134.019 445.205 133.728 445.516C133.439 445.824 133.076 446.065 132.639 446.237C132.205 446.406 131.709 446.491 131.152 446.491ZM137.564 441.802V446.336H136.078V438.7H137.505V439.943H137.599C137.775 439.539 138.05 439.214 138.424 438.969C138.802 438.723 139.278 438.601 139.851 438.601C140.372 438.601 140.827 438.71 141.219 438.929C141.61 439.144 141.913 439.466 142.128 439.893C142.344 440.321 142.451 440.849 142.451 441.479V446.336H140.965V441.658C140.965 441.105 140.821 440.672 140.532 440.361C140.244 440.046 139.848 439.888 139.344 439.888C139 439.888 138.693 439.963 138.424 440.112C138.159 440.261 137.949 440.48 137.793 440.768C137.641 441.053 137.564 441.398 137.564 441.802ZM148.01 438.7V439.893H143.839V438.7H148.01ZM144.957 436.871H146.444V444.094C146.444 444.383 146.487 444.6 146.573 444.746C146.659 444.888 146.77 444.986 146.906 445.039C147.045 445.089 147.196 445.113 147.358 445.113C147.478 445.113 147.582 445.105 147.672 445.089C147.761 445.072 147.831 445.059 147.88 445.049L148.149 446.277C148.063 446.31 147.94 446.343 147.781 446.376C147.622 446.413 147.423 446.433 147.184 446.436C146.793 446.442 146.429 446.373 146.091 446.227C145.753 446.081 145.479 445.856 145.27 445.551C145.062 445.246 144.957 444.863 144.957 444.402V436.871ZM161.935 439.466H160.384C160.324 439.134 160.213 438.843 160.051 438.591C159.889 438.339 159.69 438.125 159.454 437.949C159.219 437.774 158.956 437.641 158.664 437.552C158.375 437.462 158.069 437.417 157.744 437.417C157.157 437.417 156.632 437.565 156.168 437.86C155.707 438.155 155.343 438.587 155.074 439.157C154.809 439.728 154.677 440.424 154.677 441.246C154.677 442.074 154.809 442.773 155.074 443.344C155.343 443.914 155.709 444.344 156.173 444.636C156.637 444.928 157.159 445.074 157.739 445.074C158.061 445.074 158.366 445.031 158.654 444.944C158.946 444.855 159.209 444.724 159.444 444.552C159.68 444.379 159.879 444.169 160.041 443.92C160.207 443.668 160.321 443.38 160.384 443.055L161.935 443.06C161.852 443.561 161.692 444.021 161.453 444.442C161.218 444.86 160.914 445.221 160.543 445.526C160.175 445.828 159.754 446.061 159.28 446.227C158.806 446.393 158.289 446.476 157.729 446.476C156.848 446.476 156.062 446.267 155.373 445.849C154.683 445.428 154.14 444.827 153.742 444.045C153.348 443.262 153.15 442.329 153.15 441.246C153.15 440.158 153.349 439.225 153.747 438.447C154.145 437.664 154.688 437.064 155.378 436.647C156.067 436.226 156.851 436.015 157.729 436.015C158.269 436.015 158.773 436.093 159.241 436.249C159.711 436.402 160.134 436.627 160.508 436.925C160.883 437.22 161.193 437.581 161.438 438.009C161.683 438.433 161.849 438.919 161.935 439.466ZM163.654 446.336V438.7H165.091V439.913H165.17C165.31 439.502 165.555 439.179 165.906 438.944C166.261 438.705 166.662 438.586 167.109 438.586C167.202 438.586 167.312 438.589 167.437 438.596C167.567 438.602 167.668 438.611 167.741 438.621V440.042C167.681 440.026 167.575 440.008 167.423 439.988C167.27 439.965 167.118 439.953 166.965 439.953C166.614 439.953 166.301 440.027 166.026 440.177C165.754 440.322 165.538 440.526 165.379 440.788C165.22 441.047 165.141 441.342 165.141 441.673V446.336H163.654ZM172.045 446.491C171.293 446.491 170.645 446.33 170.101 446.008C169.561 445.683 169.143 445.228 168.848 444.641C168.556 444.051 168.411 443.36 168.411 442.568C168.411 441.786 168.556 441.096 168.848 440.5C169.143 439.903 169.554 439.438 170.081 439.103C170.611 438.768 171.231 438.601 171.94 438.601C172.371 438.601 172.789 438.672 173.193 438.814C173.598 438.957 173.961 439.181 174.282 439.486C174.604 439.79 174.857 440.187 175.043 440.674C175.228 441.158 175.321 441.746 175.321 442.439V442.966H169.251V441.852H173.864C173.864 441.461 173.785 441.115 173.626 440.813C173.467 440.508 173.243 440.268 172.955 440.092C172.67 439.916 172.335 439.829 171.95 439.829C171.533 439.829 171.168 439.931 170.857 440.137C170.548 440.339 170.31 440.604 170.141 440.932C169.975 441.257 169.892 441.61 169.892 441.991V442.861C169.892 443.372 169.982 443.806 170.161 444.164C170.343 444.522 170.596 444.795 170.921 444.984C171.246 445.17 171.626 445.263 172.06 445.263C172.342 445.263 172.598 445.223 172.83 445.143C173.062 445.06 173.263 444.938 173.432 444.775C173.601 444.613 173.73 444.412 173.82 444.174L175.227 444.427C175.114 444.842 174.912 445.205 174.62 445.516C174.332 445.824 173.969 446.065 173.531 446.237C173.097 446.406 172.602 446.491 172.045 446.491ZM179.193 446.505C178.709 446.505 178.271 446.416 177.88 446.237C177.489 446.055 177.179 445.791 176.951 445.447C176.725 445.102 176.613 444.679 176.613 444.179C176.613 443.748 176.695 443.393 176.861 443.115C177.027 442.836 177.251 442.616 177.532 442.454C177.814 442.291 178.129 442.169 178.477 442.086C178.825 442.003 179.18 441.94 179.541 441.897C179.998 441.844 180.369 441.801 180.654 441.768C180.939 441.731 181.147 441.673 181.276 441.594C181.405 441.514 181.47 441.385 181.47 441.206V441.171C181.47 440.737 181.347 440.4 181.102 440.162C180.86 439.923 180.499 439.804 180.018 439.804C179.518 439.804 179.123 439.915 178.835 440.137C178.55 440.356 178.353 440.599 178.243 440.868L176.846 440.549C177.012 440.085 177.254 439.711 177.572 439.426C177.894 439.138 178.263 438.929 178.681 438.799C179.098 438.667 179.537 438.601 179.998 438.601C180.303 438.601 180.626 438.637 180.968 438.71C181.312 438.78 181.634 438.909 181.932 439.098C182.234 439.287 182.481 439.557 182.673 439.908C182.865 440.256 182.961 440.709 182.961 441.265V446.336H181.51V445.292H181.45C181.354 445.485 181.21 445.674 181.017 445.859C180.825 446.045 180.578 446.199 180.277 446.322C179.975 446.444 179.614 446.505 179.193 446.505ZM179.516 445.312C179.927 445.312 180.278 445.231 180.57 445.069C180.865 444.906 181.089 444.694 181.241 444.432C181.397 444.167 181.475 443.884 181.475 443.582V442.598C181.422 442.651 181.319 442.701 181.167 442.747C181.017 442.79 180.847 442.828 180.654 442.861C180.462 442.891 180.275 442.919 180.093 442.946C179.91 442.969 179.758 442.989 179.635 443.005C179.347 443.042 179.083 443.103 178.845 443.189C178.609 443.276 178.421 443.4 178.278 443.562C178.139 443.721 178.069 443.933 178.069 444.199C178.069 444.567 178.205 444.845 178.477 445.034C178.749 445.219 179.095 445.312 179.516 445.312ZM188.506 438.7V439.893H184.335V438.7H188.506ZM185.453 436.871H186.94V444.094C186.94 444.383 186.983 444.6 187.069 444.746C187.155 444.888 187.266 444.986 187.402 445.039C187.541 445.089 187.692 445.113 187.855 445.113C187.974 445.113 188.078 445.105 188.168 445.089C188.257 445.072 188.327 445.059 188.377 445.049L188.645 446.277C188.559 446.31 188.436 446.343 188.277 446.376C188.118 446.413 187.919 446.433 187.681 446.436C187.289 446.442 186.925 446.373 186.587 446.227C186.249 446.081 185.975 445.856 185.766 445.551C185.558 445.246 185.453 444.863 185.453 444.402V436.871ZM193.285 446.491C192.569 446.491 191.944 446.326 191.41 445.998C190.877 445.67 190.463 445.211 190.168 444.621C189.873 444.031 189.725 443.342 189.725 442.553C189.725 441.761 189.873 441.068 190.168 440.475C190.463 439.882 190.877 439.421 191.41 439.093C191.944 438.765 192.569 438.601 193.285 438.601C194.001 438.601 194.625 438.765 195.159 439.093C195.693 439.421 196.107 439.882 196.402 440.475C196.697 441.068 196.844 441.761 196.844 442.553C196.844 443.342 196.697 444.031 196.402 444.621C196.107 445.211 195.693 445.67 195.159 445.998C194.625 446.326 194.001 446.491 193.285 446.491ZM193.29 445.243C193.754 445.243 194.138 445.12 194.443 444.875C194.748 444.63 194.973 444.303 195.119 443.895C195.268 443.488 195.343 443.039 195.343 442.548C195.343 442.061 195.268 441.613 195.119 441.206C194.973 440.795 194.748 440.465 194.443 440.216C194.138 439.968 193.754 439.844 193.29 439.844C192.822 439.844 192.435 439.968 192.126 440.216C191.821 440.465 191.594 440.795 191.445 441.206C191.299 441.613 191.227 442.061 191.227 442.548C191.227 443.039 191.299 443.488 191.445 443.895C191.594 444.303 191.821 444.63 192.126 444.875C192.435 445.12 192.822 445.243 193.29 445.243ZM198.504 446.336V438.7H199.94V439.913H200.02C200.159 439.502 200.404 439.179 200.756 438.944C201.11 438.705 201.511 438.586 201.959 438.586C202.052 438.586 202.161 438.589 202.287 438.596C202.416 438.602 202.517 438.611 202.59 438.621V440.042C202.531 440.026 202.425 440.008 202.272 439.988C202.12 439.965 201.967 439.953 201.815 439.953C201.463 439.953 201.15 440.027 200.875 440.177C200.603 440.322 200.388 440.526 200.229 440.788C200.07 441.047 199.99 441.342 199.99 441.673V446.336H198.504ZM209.599 440.564L208.252 440.803C208.195 440.631 208.106 440.467 207.983 440.311C207.864 440.155 207.702 440.027 207.496 439.928C207.291 439.829 207.034 439.779 206.725 439.779C206.305 439.779 205.953 439.873 205.671 440.062C205.39 440.248 205.249 440.488 205.249 440.783C205.249 441.038 205.343 441.244 205.532 441.4C205.721 441.555 206.026 441.683 206.447 441.782L207.66 442.061C208.363 442.223 208.886 442.473 209.231 442.812C209.576 443.15 209.748 443.589 209.748 444.129C209.748 444.586 209.616 444.994 209.35 445.352C209.089 445.707 208.722 445.985 208.252 446.187C207.784 446.389 207.242 446.491 206.626 446.491C205.771 446.491 205.073 446.308 204.533 445.944C203.993 445.576 203.661 445.054 203.539 444.378L204.975 444.159C205.065 444.533 205.249 444.817 205.527 445.009C205.806 445.198 206.169 445.292 206.616 445.292C207.103 445.292 207.493 445.191 207.784 444.989C208.076 444.784 208.222 444.533 208.222 444.238C208.222 444 208.132 443.799 207.953 443.637C207.778 443.474 207.508 443.352 207.143 443.269L205.85 442.986C205.138 442.823 204.611 442.565 204.269 442.21C203.931 441.855 203.762 441.406 203.762 440.863C203.762 440.412 203.888 440.018 204.14 439.679C204.392 439.341 204.74 439.078 205.184 438.889C205.628 438.697 206.137 438.601 206.711 438.601C207.536 438.601 208.185 438.78 208.659 439.138C209.133 439.492 209.447 439.968 209.599 440.564Z" fill="white"/>
<rect x="39.6733" y="63.3315" width="439.71" height="82.4456" fill="#FE7747"/>
<path d="M78.2534 94.8135H80.5659L86.0034 108.095H86.1909L91.6284 94.8135H93.9409V110.813H92.1284V98.6572H91.9722L86.9722 110.813H85.2222L80.2222 98.6572H80.0659V110.813H78.2534V94.8135ZM102.607 111.063C101.451 111.063 100.453 110.808 99.6147 110.298C98.7814 109.782 98.1382 109.063 97.6851 108.142C97.2371 107.215 97.0132 106.136 97.0132 104.907C97.0132 103.678 97.2371 102.595 97.6851 101.657C98.1382 100.715 98.7684 99.9801 99.5757 99.4541C100.388 98.9229 101.336 98.6572 102.419 98.6572C103.044 98.6572 103.662 98.7614 104.271 98.9697C104.88 99.1781 105.435 99.5166 105.935 99.9854C106.435 100.449 106.833 101.063 107.13 101.829C107.427 102.595 107.576 103.537 107.576 104.657V105.438H98.3257V103.845H105.701C105.701 103.168 105.565 102.563 105.294 102.032C105.029 101.501 104.649 101.082 104.154 100.774C103.664 100.467 103.086 100.313 102.419 100.313C101.685 100.313 101.05 100.496 100.513 100.86C99.9819 101.22 99.5731 101.688 99.2866 102.267C99.0002 102.845 98.8569 103.465 98.8569 104.126V105.188C98.8569 106.095 99.0132 106.863 99.3257 107.493C99.6434 108.118 100.083 108.595 100.646 108.923C101.208 109.246 101.862 109.407 102.607 109.407C103.091 109.407 103.529 109.34 103.919 109.204C104.315 109.063 104.656 108.855 104.943 108.579C105.229 108.298 105.451 107.949 105.607 107.532L107.388 108.032C107.201 108.636 106.886 109.168 106.443 109.626C106 110.079 105.453 110.433 104.802 110.688C104.151 110.938 103.419 111.063 102.607 111.063ZM115.599 98.8135V100.376H109.38V98.8135H115.599ZM111.193 95.9385H113.037V107.376C113.037 107.897 113.112 108.287 113.263 108.548C113.419 108.803 113.617 108.975 113.857 109.063C114.102 109.147 114.36 109.188 114.63 109.188C114.833 109.188 115 109.178 115.13 109.157C115.261 109.131 115.365 109.11 115.443 109.095L115.818 110.751C115.693 110.798 115.518 110.845 115.294 110.892C115.07 110.944 114.787 110.97 114.443 110.97C113.922 110.97 113.412 110.858 112.912 110.634C112.417 110.41 112.005 110.069 111.677 109.61C111.354 109.152 111.193 108.574 111.193 107.876V95.9385ZM120.474 103.595V110.813H118.63V94.8135H120.474V100.688H120.63C120.912 100.069 121.333 99.5765 121.896 99.2119C122.464 98.8421 123.219 98.6572 124.162 98.6572C124.979 98.6572 125.695 98.8213 126.31 99.1494C126.925 99.4723 127.401 99.9697 127.74 100.642C128.083 101.308 128.255 102.157 128.255 103.188V110.813H126.412V103.313C126.412 102.36 126.164 101.623 125.669 101.103C125.18 100.576 124.5 100.313 123.63 100.313C123.026 100.313 122.485 100.441 122.005 100.696C121.531 100.951 121.156 101.324 120.88 101.813C120.61 102.303 120.474 102.897 120.474 103.595ZM136.503 111.063C135.42 111.063 134.47 110.806 133.652 110.29C132.839 109.774 132.204 109.053 131.746 108.126C131.292 107.199 131.066 106.116 131.066 104.876C131.066 103.626 131.292 102.535 131.746 101.603C132.204 100.67 132.839 99.9463 133.652 99.4307C134.47 98.915 135.42 98.6572 136.503 98.6572C137.587 98.6572 138.535 98.915 139.347 99.4307C140.165 99.9463 140.8 100.67 141.253 101.603C141.712 102.535 141.941 103.626 141.941 104.876C141.941 106.116 141.712 107.199 141.253 108.126C140.8 109.053 140.165 109.774 139.347 110.29C138.535 110.806 137.587 111.063 136.503 111.063ZM136.503 109.407C137.326 109.407 138.003 109.196 138.535 108.774C139.066 108.353 139.459 107.798 139.714 107.11C139.97 106.423 140.097 105.678 140.097 104.876C140.097 104.074 139.97 103.326 139.714 102.634C139.459 101.941 139.066 101.381 138.535 100.954C138.003 100.527 137.326 100.313 136.503 100.313C135.681 100.313 135.003 100.527 134.472 100.954C133.941 101.381 133.548 101.941 133.292 102.634C133.037 103.326 132.91 104.074 132.91 104.876C132.91 105.678 133.037 106.423 133.292 107.11C133.548 107.798 133.941 108.353 134.472 108.774C135.003 109.196 135.681 109.407 136.503 109.407ZM149.287 111.063C148.287 111.063 147.404 110.811 146.638 110.306C145.873 109.795 145.274 109.076 144.841 108.149C144.409 107.217 144.193 106.116 144.193 104.845C144.193 103.584 144.409 102.491 144.841 101.563C145.274 100.636 145.875 99.9202 146.646 99.415C147.417 98.9098 148.307 98.6572 149.318 98.6572C150.099 98.6572 150.716 98.7874 151.169 99.0479C151.628 99.3031 151.977 99.5947 152.216 99.9229C152.461 100.246 152.651 100.511 152.787 100.72H152.943V94.8135H154.787V110.813H153.005V108.97H152.787C152.651 109.188 152.458 109.465 152.208 109.798C151.958 110.126 151.602 110.42 151.138 110.681C150.675 110.936 150.057 111.063 149.287 111.063ZM149.537 109.407C150.276 109.407 150.901 109.215 151.412 108.829C151.922 108.438 152.31 107.899 152.576 107.212C152.841 106.519 152.974 105.72 152.974 104.813C152.974 103.918 152.844 103.134 152.583 102.462C152.323 101.785 151.938 101.259 151.427 100.884C150.917 100.504 150.287 100.313 149.537 100.313C148.755 100.313 148.104 100.514 147.583 100.915C147.068 101.311 146.68 101.85 146.419 102.532C146.164 103.209 146.037 103.97 146.037 104.813C146.037 105.668 146.167 106.444 146.427 107.142C146.693 107.834 147.083 108.386 147.599 108.798C148.12 109.204 148.766 109.407 149.537 109.407ZM166.919 101.501L165.263 101.97C165.159 101.694 165.005 101.425 164.802 101.165C164.604 100.899 164.333 100.681 163.99 100.509C163.646 100.337 163.206 100.251 162.669 100.251C161.935 100.251 161.323 100.42 160.833 100.759C160.349 101.092 160.107 101.517 160.107 102.032C160.107 102.491 160.274 102.853 160.607 103.118C160.94 103.384 161.461 103.605 162.169 103.782L163.951 104.22C165.024 104.48 165.823 104.879 166.349 105.415C166.875 105.946 167.138 106.631 167.138 107.47C167.138 108.157 166.94 108.772 166.544 109.313C166.154 109.855 165.607 110.282 164.904 110.595C164.201 110.907 163.383 111.063 162.451 111.063C161.227 111.063 160.214 110.798 159.412 110.267C158.61 109.735 158.102 108.959 157.888 107.938L159.638 107.501C159.805 108.147 160.12 108.631 160.583 108.954C161.052 109.277 161.664 109.438 162.419 109.438C163.279 109.438 163.961 109.256 164.466 108.892C164.977 108.522 165.232 108.079 165.232 107.563C165.232 107.147 165.086 106.798 164.794 106.517C164.503 106.23 164.055 106.017 163.451 105.876L161.451 105.407C160.352 105.147 159.544 104.743 159.029 104.196C158.518 103.644 158.263 102.954 158.263 102.126C158.263 101.449 158.453 100.85 158.833 100.329C159.219 99.8083 159.742 99.3994 160.404 99.1025C161.07 98.8057 161.826 98.6572 162.669 98.6572C163.857 98.6572 164.789 98.9176 165.466 99.4385C166.149 99.9593 166.633 100.647 166.919 101.501Z" fill="white"/>
<path d="M437.731 98.1133L424.849 110.995" stroke="white" stroke-width="2" stroke-linecap="round" stroke-linejoin="round"/>
<path d="M437.731 110.995L424.849 98.1133" stroke="white" stroke-width="2" stroke-linecap="round" stroke-linejoin="round"/>
<defs>
<filter id="filter0_d_73_706" x="0.67334" y="0.331543" width="517.71" height="643.668" filterUnits="userSpaceOnUse" color-interpolation-filters="sRGB">
<feFlood flood-opacity="0" result="BackgroundImageFix"/>
<feColorMatrix in="SourceAlpha" type="matrix" values="0 0 0 0 0 0 0 0 0 0 0 0 0 0 0 0 0 0 127 0" result="hardAlpha"/>
<feMorphology radius="4" operator="erode" in="SourceAlpha" result="effect1_dropShadow_73_706"/>
<feOffset dy="-24"/>
<feGaussianBlur stdDeviation="21.5"/>
<feComposite in2="hardAlpha" operator="out"/>
<feColorMatrix type="matrix" values="0 0 0 0 0.0156863 0 0 0 0 0.105882 0 0 0 0 0.160784 0 0 0 0.09 0"/>
<feBlend mode="normal" in2="BackgroundImageFix" result="effect1_dropShadow_73_706"/>
<feBlend mode="normal" in="SourceGraphic" in2="effect1_dropShadow_73_706" result="shape"/>
</filter>
</defs>
</svg>
