<svg width="441" height="566" viewBox="0 0 441 566" fill="none" xmlns="http://www.w3.org/2000/svg">
<rect x="0.67334" y="0.331543" width="439.71" height="565.668" fill="#FFFEFF"/>
<rect width="125.959" height="38.9326" transform="matrix(1 0 0 -1 37.3159 149.191)" fill="#FE7747"/>
<path d="M56.7558 133.709V123.528H60.4845C61.207 123.528 61.8053 123.647 62.2793 123.886C62.7532 124.121 63.1079 124.441 63.3432 124.845C63.5785 125.246 63.6962 125.699 63.6962 126.202C63.6962 126.627 63.6183 126.985 63.4625 127.276C63.3067 127.565 63.0979 127.797 62.8361 127.972C62.5775 128.145 62.2925 128.271 61.981 128.35V128.45C62.319 128.466 62.6488 128.575 62.9703 128.778C63.2951 128.977 63.5636 129.26 63.7757 129.628C63.9878 129.996 64.0939 130.443 64.0939 130.97C64.0939 131.49 63.9713 131.958 63.726 132.372C63.484 132.783 63.1095 133.11 62.6024 133.352C62.0953 133.59 61.4473 133.709 60.6585 133.709H56.7558ZM58.292 132.392H60.5094C61.2452 132.392 61.7722 132.249 62.0903 131.964C62.4085 131.679 62.5676 131.323 62.5676 130.896C62.5676 130.574 62.4864 130.279 62.324 130.011C62.1616 129.742 61.9296 129.528 61.628 129.369C61.3297 129.21 60.975 129.131 60.5641 129.131H58.292V132.392ZM58.292 127.932H60.3503C60.695 127.932 61.0049 127.866 61.28 127.734C61.5584 127.601 61.7788 127.415 61.9412 127.177C62.1069 126.935 62.1898 126.65 62.1898 126.322C62.1898 125.901 62.0423 125.548 61.7473 125.263C61.4523 124.978 60.9999 124.835 60.39 124.835H58.292V127.932ZM67.2832 123.528V133.709H65.7967V123.528H67.2832ZM72.4996 133.864C71.7837 133.864 71.1589 133.7 70.6253 133.371C70.0917 133.043 69.6774 132.584 69.3824 131.994C69.0874 131.404 68.9399 130.715 68.9399 129.926C68.9399 129.134 69.0874 128.441 69.3824 127.848C69.6774 127.255 70.0917 126.794 70.6253 126.466C71.1589 126.138 71.7837 125.974 72.4996 125.974C73.2155 125.974 73.8403 126.138 74.3739 126.466C74.9075 126.794 75.3218 127.255 75.6168 127.848C75.9118 128.441 76.0593 129.134 76.0593 129.926C76.0593 130.715 75.9118 131.404 75.6168 131.994C75.3218 132.584 74.9075 133.043 74.3739 133.371C73.8403 133.7 73.2155 133.864 72.4996 133.864ZM72.5046 132.616C72.9686 132.616 73.3531 132.493 73.658 132.248C73.9629 132.003 74.1883 131.676 74.3341 131.268C74.4833 130.861 74.5578 130.412 74.5578 129.921C74.5578 129.434 74.4833 128.986 74.3341 128.579C74.1883 128.168 73.9629 127.838 73.658 127.589C73.3531 127.341 72.9686 127.217 72.5046 127.217C72.0372 127.217 71.6495 127.341 71.3412 127.589C71.0363 127.838 70.8093 128.168 70.6601 128.579C70.5143 128.986 70.4414 129.434 70.4414 129.921C70.4414 130.412 70.5143 130.861 70.6601 131.268C70.8093 131.676 71.0363 132.003 71.3412 132.248C71.6495 132.493 72.0372 132.616 72.5046 132.616ZM80.9202 136.732C80.3137 136.732 79.7917 136.653 79.3542 136.494C78.92 136.334 78.5654 136.124 78.2903 135.862C78.0152 135.6 77.8097 135.314 77.6738 135.002L78.9515 134.475C79.041 134.621 79.1603 134.775 79.3094 134.937C79.4619 135.103 79.6674 135.244 79.9259 135.36C80.1878 135.476 80.5242 135.534 80.9351 135.534C81.4986 135.534 81.9643 135.396 82.3322 135.121C82.7001 134.85 82.884 134.415 82.884 133.819V132.317H82.7896C82.7001 132.48 82.5708 132.66 82.4018 132.859C82.236 133.058 82.0074 133.231 81.7157 133.376C81.424 133.522 81.0445 133.595 80.5772 133.595C79.974 133.595 79.4304 133.454 78.9465 133.173C78.4659 132.888 78.0848 132.468 77.803 131.915C77.5246 131.358 77.3854 130.673 77.3854 129.861C77.3854 129.049 77.523 128.353 77.7981 127.773C78.0765 127.193 78.4576 126.749 78.9415 126.441C79.4254 126.129 79.974 125.974 80.5871 125.974C81.0611 125.974 81.4439 126.053 81.7356 126.212C82.0272 126.368 82.2543 126.55 82.4167 126.759C82.5824 126.968 82.71 127.152 82.7995 127.311H82.9089V126.073H84.3655V133.879C84.3655 134.535 84.2131 135.073 83.9082 135.494C83.6032 135.915 83.1906 136.227 82.6702 136.429C82.1532 136.631 81.5699 136.732 80.9202 136.732ZM80.9053 132.362C81.3329 132.362 81.6941 132.263 81.9891 132.064C82.2874 131.862 82.5128 131.573 82.6653 131.199C82.821 130.821 82.8989 130.369 82.8989 129.842C82.8989 129.328 82.8227 128.875 82.6702 128.484C82.5178 128.093 82.294 127.788 81.9991 127.57C81.7041 127.347 81.3395 127.236 80.9053 127.236C80.4579 127.236 80.085 127.352 79.7867 127.584C79.4884 127.813 79.263 128.125 79.1106 128.519C78.9614 128.914 78.8869 129.354 78.8869 129.842C78.8869 130.342 78.9631 130.781 79.1155 131.159C79.268 131.537 79.4934 131.832 79.7917 132.044C80.0933 132.256 80.4645 132.362 80.9053 132.362ZM90.0642 136.573V126.073H91.5159V127.311H91.6402C91.7264 127.152 91.8507 126.968 92.0131 126.759C92.1755 126.55 92.4009 126.368 92.6892 126.212C92.9776 126.053 93.3587 125.974 93.8327 125.974C94.4492 125.974 94.9994 126.129 95.4833 126.441C95.9672 126.753 96.3467 127.202 96.6218 127.788C96.9002 128.375 97.0394 129.081 97.0394 129.906C97.0394 130.731 96.9018 131.439 96.6267 132.029C96.3516 132.616 95.9738 133.068 95.4932 133.386C95.0126 133.701 94.4641 133.859 93.8476 133.859C93.3836 133.859 93.0041 133.781 92.7091 133.625C92.4175 133.469 92.1888 133.287 92.023 133.078C91.8573 132.869 91.7297 132.684 91.6402 132.521H91.5507V136.573H90.0642ZM91.5209 129.891C91.5209 130.428 91.5988 130.899 91.7546 131.303C91.9103 131.708 92.1357 132.024 92.4307 132.253C92.7257 132.478 93.087 132.591 93.5145 132.591C93.9586 132.591 94.3299 132.473 94.6282 132.238C94.9264 131.999 95.1518 131.676 95.3043 131.268C95.4601 130.861 95.538 130.402 95.538 129.891C95.538 129.388 95.4617 128.935 95.3093 128.534C95.1601 128.133 94.9347 127.816 94.6331 127.584C94.3348 127.352 93.962 127.236 93.5145 127.236C93.0836 127.236 92.7191 127.347 92.4208 127.57C92.1258 127.792 91.9021 128.102 91.7496 128.499C91.5971 128.897 91.5209 129.361 91.5209 129.891ZM98.7049 133.709V126.073H100.142V127.286H100.221C100.36 126.875 100.606 126.552 100.957 126.317C101.312 126.078 101.713 125.959 102.16 125.959C102.253 125.959 102.362 125.962 102.488 125.969C102.617 125.975 102.719 125.984 102.792 125.994V127.415C102.732 127.399 102.626 127.381 102.473 127.361C102.321 127.338 102.168 127.326 102.016 127.326C101.665 127.326 101.351 127.401 101.076 127.55C100.805 127.696 100.589 127.899 100.43 128.161C100.271 128.42 100.191 128.715 100.191 129.046V133.709H98.7049ZM107.021 133.864C106.305 133.864 105.68 133.7 105.147 133.371C104.613 133.043 104.199 132.584 103.904 131.994C103.609 131.404 103.461 130.715 103.461 129.926C103.461 129.134 103.609 128.441 103.904 127.848C104.199 127.255 104.613 126.794 105.147 126.466C105.68 126.138 106.305 125.974 107.021 125.974C107.737 125.974 108.362 126.138 108.895 126.466C109.429 126.794 109.843 127.255 110.138 127.848C110.433 128.441 110.581 129.134 110.581 129.926C110.581 130.715 110.433 131.404 110.138 131.994C109.843 132.584 109.429 133.043 108.895 133.371C108.362 133.7 107.737 133.864 107.021 133.864ZM107.026 132.616C107.49 132.616 107.875 132.493 108.179 132.248C108.484 132.003 108.71 131.676 108.856 131.268C109.005 130.861 109.079 130.412 109.079 129.921C109.079 129.434 109.005 128.986 108.856 128.579C108.71 128.168 108.484 127.838 108.179 127.589C107.875 127.341 107.49 127.217 107.026 127.217C106.559 127.217 106.171 127.341 105.863 127.589C105.558 127.838 105.331 128.168 105.182 128.579C105.036 128.986 104.963 129.434 104.963 129.921C104.963 130.412 105.036 130.861 105.182 131.268C105.331 131.676 105.558 132.003 105.863 132.248C106.171 132.493 106.559 132.616 107.026 132.616ZM112.24 126.073H113.727V134.207C113.727 134.717 113.634 135.148 113.448 135.499C113.266 135.851 112.994 136.117 112.633 136.3C112.275 136.482 111.832 136.573 111.305 136.573C111.252 136.573 111.203 136.573 111.156 136.573C111.106 136.573 111.055 136.571 111.002 136.568V135.29C111.048 135.29 111.09 135.29 111.126 135.29C111.16 135.29 111.198 135.29 111.241 135.29C111.592 135.29 111.846 135.196 112.001 135.007C112.16 134.821 112.24 134.551 112.24 134.197V126.073ZM112.976 124.895C112.717 124.895 112.495 124.809 112.31 124.636C112.127 124.461 112.036 124.252 112.036 124.01C112.036 123.765 112.127 123.556 112.31 123.383C112.495 123.208 112.717 123.12 112.976 123.12C113.234 123.12 113.455 123.208 113.637 123.383C113.823 123.556 113.915 123.765 113.915 124.01C113.915 124.252 113.823 124.461 113.637 124.636C113.455 124.809 113.234 124.895 112.976 124.895ZM119.018 133.864C118.265 133.864 117.617 133.703 117.074 133.381C116.533 133.057 116.116 132.601 115.821 132.014C115.529 131.424 115.383 130.733 115.383 129.941C115.383 129.159 115.529 128.469 115.821 127.873C116.116 127.276 116.527 126.811 117.054 126.476C117.584 126.141 118.204 125.974 118.913 125.974C119.344 125.974 119.762 126.045 120.166 126.187C120.57 126.33 120.933 126.554 121.255 126.859C121.576 127.164 121.83 127.56 122.015 128.047C122.201 128.531 122.294 129.119 122.294 129.812V130.339H116.223V129.225H120.837C120.837 128.834 120.758 128.488 120.598 128.186C120.439 127.881 120.216 127.641 119.927 127.465C119.642 127.289 119.308 127.202 118.923 127.202C118.505 127.202 118.141 127.304 117.829 127.51C117.521 127.712 117.282 127.977 117.113 128.305C116.948 128.63 116.865 128.983 116.865 129.364V130.234C116.865 130.745 116.954 131.179 117.133 131.537C117.316 131.895 117.569 132.168 117.894 132.357C118.219 132.543 118.598 132.636 119.032 132.636C119.314 132.636 119.571 132.596 119.803 132.516C120.035 132.433 120.236 132.311 120.405 132.148C120.574 131.986 120.703 131.785 120.792 131.547L122.199 131.8C122.087 132.215 121.884 132.578 121.593 132.889C121.304 133.197 120.942 133.438 120.504 133.61C120.07 133.779 119.574 133.864 119.018 133.864ZM127.16 133.864C126.421 133.864 125.784 133.696 125.251 133.361C124.72 133.023 124.313 132.558 124.028 131.964C123.743 131.371 123.6 130.692 123.6 129.926C123.6 129.151 123.746 128.466 124.038 127.873C124.329 127.276 124.74 126.811 125.271 126.476C125.801 126.141 126.426 125.974 127.145 125.974C127.725 125.974 128.242 126.081 128.696 126.297C129.15 126.509 129.516 126.807 129.795 127.192C130.076 127.576 130.244 128.025 130.297 128.539H128.85C128.771 128.181 128.588 127.873 128.303 127.614C128.021 127.356 127.644 127.227 127.17 127.227C126.755 127.227 126.392 127.336 126.081 127.555C125.773 127.77 125.532 128.078 125.36 128.479C125.188 128.877 125.102 129.348 125.102 129.891C125.102 130.448 125.186 130.929 125.355 131.333C125.524 131.737 125.763 132.051 126.071 132.273C126.383 132.495 126.749 132.606 127.17 132.606C127.451 132.606 127.707 132.554 127.935 132.452C128.167 132.346 128.361 132.195 128.517 131.999C128.676 131.804 128.787 131.568 128.85 131.293H130.297C130.244 131.787 130.083 132.228 129.815 132.616C129.546 133.004 129.187 133.308 128.736 133.53C128.288 133.753 127.763 133.864 127.16 133.864ZM135.451 126.073V127.266H131.28V126.073H135.451ZM132.399 124.244H133.885V131.467C133.885 131.756 133.928 131.973 134.014 132.119C134.101 132.261 134.212 132.359 134.347 132.412C134.487 132.462 134.637 132.486 134.8 132.486C134.919 132.486 135.024 132.478 135.113 132.462C135.203 132.445 135.272 132.432 135.322 132.422L135.59 133.65C135.504 133.683 135.382 133.716 135.222 133.749C135.063 133.786 134.864 133.806 134.626 133.809C134.235 133.816 133.87 133.746 133.532 133.6C133.194 133.454 132.921 133.229 132.712 132.924C132.503 132.619 132.399 132.236 132.399 131.776V124.244Z" fill="white"/>
<rect x="37.3159" y="149.191" width="366.425" height="167.181" fill="#F5F5F5"/>
<rect x="37.3159" y="149.191" width="366.425" height="6.87047" fill="#FE7747"/>
<path d="M51.0566 187.118C53.3468 188.228 54.4919 189.893 55.3507 191.559C56.4958 188.783 60.2173 183.509 64.7976 182.398" stroke="#F3B545" stroke-width="1.5" stroke-linecap="round" stroke-linejoin="round"/>
<rect x="55.6372" y="245.378" width="251.917" height="13.7409" fill="#E7E9ED"/>
<rect x="55.6372" y="268.279" width="209.549" height="13.7409" fill="#E6E8EC"/>
<path d="M77.1093 181.236H79.044L81.6349 187.56H81.7372L84.3281 181.236H86.2627V189.963H84.7457V183.968H84.6647L82.2528 189.938H81.1193L78.7073 183.955H78.6264V189.963H77.1093V181.236ZM89.7997 190.095C89.3849 190.095 89.0113 190.022 88.6789 189.874C88.3494 189.723 88.088 189.502 87.8948 189.209C87.7045 188.917 87.6093 188.556 87.6093 188.127C87.6093 187.757 87.6775 187.452 87.8139 187.211C87.9502 186.969 88.1363 186.776 88.3721 186.631C88.6079 186.486 88.8735 186.377 89.169 186.303C89.4673 186.226 89.7755 186.171 90.0937 186.137C90.4772 186.097 90.7883 186.061 91.0269 186.03C91.2656 185.996 91.4389 185.945 91.5468 185.877C91.6576 185.806 91.713 185.696 91.713 185.549V185.523C91.713 185.202 91.6179 184.953 91.4275 184.777C91.2372 184.601 90.963 184.513 90.6051 184.513C90.2272 184.513 89.9275 184.595 89.7059 184.76C89.4872 184.925 89.3394 185.12 89.2627 185.344L87.8224 185.14C87.936 184.742 88.1235 184.409 88.3849 184.142C88.6463 183.872 88.9659 183.671 89.3437 183.537C89.7215 183.401 90.1392 183.333 90.5965 183.333C90.9119 183.333 91.2258 183.37 91.5383 183.443C91.8508 183.517 92.1363 183.64 92.3948 183.81C92.6534 183.978 92.8608 184.206 93.017 184.496C93.1761 184.786 93.2556 185.148 93.2556 185.583V189.963H91.7727V189.064H91.7215C91.6278 189.246 91.4957 189.417 91.3252 189.576C91.1576 189.732 90.946 189.858 90.6903 189.955C90.4375 190.049 90.1406 190.095 89.7997 190.095ZM90.2002 188.962C90.5099 188.962 90.7784 188.901 91.0056 188.779C91.2329 188.654 91.4076 188.489 91.5298 188.284C91.6548 188.08 91.7173 187.857 91.7173 187.615V186.844C91.669 186.884 91.5866 186.921 91.4701 186.955C91.3565 186.989 91.2286 187.019 91.0866 187.044C90.9446 187.07 90.8039 187.093 90.6647 187.113C90.5255 187.132 90.4048 187.149 90.3025 187.164C90.0724 187.195 89.8664 187.246 89.6846 187.317C89.5028 187.388 89.3593 187.488 89.2542 187.615C89.1491 187.74 89.0965 187.902 89.0965 188.101C89.0965 188.385 89.2002 188.6 89.4076 188.745C89.615 188.89 89.8792 188.962 90.2002 188.962ZM94.8068 189.963V183.418H96.3025V184.509H96.3707C96.49 184.131 96.6946 183.84 96.9843 183.635C97.2769 183.428 97.6108 183.324 97.9858 183.324C98.071 183.324 98.1661 183.328 98.2713 183.337C98.3792 183.343 98.4687 183.353 98.5397 183.367V184.786C98.4744 184.763 98.3707 184.743 98.2286 184.726C98.0894 184.706 97.9545 184.696 97.8238 184.696C97.5426 184.696 97.2897 184.757 97.0653 184.88C96.8437 184.999 96.669 185.165 96.5411 185.378C96.4133 185.591 96.3494 185.837 96.3494 186.115V189.963H94.8068ZM100.971 187.909L100.967 186.047H101.214L103.566 183.418H105.369L102.475 186.64H102.155L100.971 187.909ZM99.5646 189.963V181.236H101.107V189.963H99.5646ZM103.673 189.963L101.542 186.985L102.582 185.898L105.518 189.963H103.673ZM109.025 190.091C108.369 190.091 107.802 189.955 107.325 189.682C106.85 189.407 106.485 189.017 106.229 188.515C105.974 188.009 105.846 187.414 105.846 186.729C105.846 186.056 105.974 185.465 106.229 184.956C106.488 184.445 106.849 184.047 107.312 183.763C107.775 183.476 108.319 183.333 108.944 183.333C109.347 183.333 109.728 183.398 110.086 183.529C110.447 183.657 110.765 183.855 111.04 184.125C111.319 184.395 111.538 184.739 111.697 185.157C111.856 185.571 111.935 186.066 111.935 186.64V187.113H106.57V186.073H110.457C110.454 185.777 110.39 185.515 110.265 185.284C110.14 185.051 109.965 184.868 109.741 184.735C109.519 184.601 109.261 184.534 108.965 184.534C108.65 184.534 108.373 184.611 108.134 184.765C107.896 184.915 107.709 185.114 107.576 185.361C107.445 185.605 107.379 185.874 107.376 186.167V187.074C107.376 187.455 107.445 187.782 107.584 188.054C107.724 188.324 107.918 188.532 108.168 188.676C108.418 188.818 108.711 188.89 109.046 188.89C109.271 188.89 109.474 188.858 109.655 188.796C109.837 188.73 109.995 188.635 110.129 188.51C110.262 188.385 110.363 188.23 110.431 188.046L111.871 188.208C111.78 188.588 111.607 188.921 111.352 189.205C111.099 189.486 110.775 189.705 110.38 189.861C109.985 190.015 109.533 190.091 109.025 190.091ZM116.509 183.418V184.611H112.746V183.418H116.509ZM113.675 181.85H115.218V187.995C115.218 188.202 115.249 188.361 115.311 188.472C115.377 188.58 115.462 188.654 115.567 188.693C115.672 188.733 115.789 188.753 115.917 188.753C116.013 188.753 116.101 188.746 116.181 188.732C116.263 188.718 116.326 188.705 116.368 188.693L116.628 189.899C116.546 189.928 116.428 189.959 116.274 189.993C116.124 190.027 115.939 190.047 115.72 190.053C115.334 190.064 114.986 190.006 114.676 189.878C114.367 189.747 114.121 189.546 113.939 189.273C113.76 189 113.672 188.659 113.675 188.25V181.85ZM117.799 189.963V183.418H119.342V189.963H117.799ZM118.575 182.489C118.33 182.489 118.12 182.408 117.944 182.246C117.768 182.081 117.68 181.884 117.68 181.654C117.68 181.421 117.768 181.223 117.944 181.061C118.12 180.897 118.33 180.814 118.575 180.814C118.822 180.814 119.032 180.897 119.205 181.061C119.381 181.223 119.469 181.421 119.469 181.654C119.469 181.884 119.381 182.081 119.205 182.246C119.032 182.408 118.822 182.489 118.575 182.489ZM122.47 186.128V189.963H120.928V183.418H122.402V184.53H122.479C122.63 184.164 122.87 183.872 123.199 183.657C123.532 183.441 123.942 183.333 124.431 183.333C124.882 183.333 125.276 183.429 125.611 183.622C125.949 183.816 126.211 184.095 126.395 184.462C126.583 184.828 126.675 185.273 126.672 185.796V189.963H125.13V186.034C125.13 185.597 125.016 185.255 124.789 185.007C124.564 184.76 124.253 184.637 123.855 184.637C123.586 184.637 123.345 184.696 123.135 184.816C122.928 184.932 122.765 185.101 122.645 185.323C122.529 185.544 122.47 185.813 122.47 186.128ZM131.087 192.554C130.533 192.554 130.057 192.479 129.659 192.328C129.262 192.181 128.942 191.982 128.701 191.732C128.459 191.482 128.292 191.205 128.198 190.901L129.587 190.564C129.649 190.692 129.74 190.818 129.86 190.943C129.979 191.071 130.14 191.176 130.341 191.259C130.546 191.344 130.803 191.387 131.113 191.387C131.55 191.387 131.912 191.28 132.199 191.067C132.486 190.857 132.63 190.51 132.63 190.027V188.787H132.553C132.473 188.946 132.357 189.11 132.203 189.277C132.053 189.445 131.853 189.586 131.603 189.699C131.355 189.813 131.044 189.87 130.669 189.87C130.167 189.87 129.711 189.752 129.301 189.516C128.895 189.277 128.571 188.922 128.33 188.451C128.091 187.976 127.972 187.382 127.972 186.669C127.972 185.951 128.091 185.344 128.33 184.85C128.571 184.353 128.897 183.976 129.306 183.72C129.715 183.462 130.171 183.333 130.674 183.333C131.057 183.333 131.372 183.398 131.62 183.529C131.87 183.657 132.068 183.811 132.216 183.993C132.364 184.172 132.476 184.341 132.553 184.5H132.638V183.418H134.159V190.07C134.159 190.63 134.026 191.093 133.759 191.459C133.492 191.826 133.127 192.1 132.664 192.282C132.201 192.463 131.675 192.554 131.087 192.554ZM131.1 188.659C131.426 188.659 131.705 188.58 131.935 188.421C132.165 188.262 132.34 188.033 132.459 187.735C132.578 187.436 132.638 187.078 132.638 186.661C132.638 186.249 132.578 185.888 132.459 185.578C132.343 185.269 132.169 185.029 131.939 184.858C131.712 184.685 131.432 184.598 131.1 184.598C130.756 184.598 130.469 184.688 130.239 184.867C130.009 185.046 129.836 185.292 129.719 185.604C129.603 185.914 129.544 186.266 129.544 186.661C129.544 187.061 129.603 187.412 129.719 187.713C129.838 188.012 130.013 188.245 130.243 188.412C130.476 188.577 130.762 188.659 131.1 188.659ZM138.402 182.561V181.236H145.365V182.561H142.667V189.963H141.099V182.561H138.402ZM148.587 190.091C147.931 190.091 147.364 189.955 146.887 189.682C146.413 189.407 146.048 189.017 145.792 188.515C145.536 188.009 145.408 187.414 145.408 186.729C145.408 186.056 145.536 185.465 145.792 184.956C146.05 184.445 146.411 184.047 146.874 183.763C147.337 183.476 147.881 183.333 148.506 183.333C148.91 183.333 149.29 183.398 149.648 183.529C150.009 183.657 150.327 183.855 150.603 184.125C150.881 184.395 151.1 184.739 151.259 185.157C151.418 185.571 151.498 186.066 151.498 186.64V187.113H146.133V186.073H150.019C150.016 185.777 149.952 185.515 149.827 185.284C149.702 185.051 149.528 184.868 149.303 184.735C149.082 184.601 148.823 184.534 148.528 184.534C148.212 184.534 147.935 184.611 147.697 184.765C147.458 184.915 147.272 185.114 147.138 185.361C147.008 185.605 146.941 185.874 146.938 186.167V187.074C146.938 187.455 147.008 187.782 147.147 188.054C147.286 188.324 147.481 188.532 147.731 188.676C147.981 188.818 148.273 188.89 148.609 188.89C148.833 188.89 149.036 188.858 149.218 188.796C149.4 188.73 149.557 188.635 149.691 188.51C149.825 188.385 149.925 188.23 149.994 188.046L151.434 188.208C151.343 188.588 151.17 188.921 150.914 189.205C150.661 189.486 150.337 189.705 149.942 189.861C149.548 190.015 149.096 190.091 148.587 190.091ZM154.686 190.095C154.272 190.095 153.898 190.022 153.566 189.874C153.236 189.723 152.975 189.502 152.782 189.209C152.591 188.917 152.496 188.556 152.496 188.127C152.496 187.757 152.564 187.452 152.701 187.211C152.837 186.969 153.023 186.776 153.259 186.631C153.495 186.486 153.76 186.377 154.056 186.303C154.354 186.226 154.662 186.171 154.98 186.137C155.364 186.097 155.675 186.061 155.914 186.03C156.152 185.996 156.326 185.945 156.434 185.877C156.544 185.806 156.6 185.696 156.6 185.549V185.523C156.6 185.202 156.505 184.953 156.314 184.777C156.124 184.601 155.85 184.513 155.492 184.513C155.114 184.513 154.814 184.595 154.593 184.76C154.374 184.925 154.226 185.12 154.149 185.344L152.709 185.14C152.823 184.742 153.01 184.409 153.272 184.142C153.533 183.872 153.853 183.671 154.23 183.537C154.608 183.401 155.026 183.333 155.483 183.333C155.799 183.333 156.113 183.37 156.425 183.443C156.738 183.517 157.023 183.64 157.282 183.81C157.54 183.978 157.747 184.206 157.904 184.496C158.063 184.786 158.142 185.148 158.142 185.583V189.963H156.659V189.064H156.608C156.515 189.246 156.382 189.417 156.212 189.576C156.044 189.732 155.833 189.858 155.577 189.955C155.324 190.049 155.027 190.095 154.686 190.095ZM155.087 188.962C155.397 188.962 155.665 188.901 155.892 188.779C156.12 188.654 156.294 188.489 156.417 188.284C156.542 188.08 156.604 187.857 156.604 187.615V186.844C156.556 186.884 156.473 186.921 156.357 186.955C156.243 186.989 156.115 187.019 155.973 187.044C155.831 187.07 155.691 187.093 155.551 187.113C155.412 187.132 155.292 187.149 155.189 187.164C154.959 187.195 154.753 187.246 154.571 187.317C154.39 187.388 154.246 187.488 154.141 187.615C154.036 187.74 153.983 187.902 153.983 188.101C153.983 188.385 154.087 188.6 154.294 188.745C154.502 188.89 154.766 188.962 155.087 188.962ZM159.693 189.963V183.418H161.168V184.53H161.245C161.381 184.155 161.607 183.863 161.922 183.652C162.238 183.439 162.614 183.333 163.051 183.333C163.495 183.333 163.868 183.441 164.172 183.657C164.479 183.87 164.695 184.161 164.82 184.53H164.888C165.033 184.167 165.277 183.877 165.621 183.661C165.968 183.442 166.378 183.333 166.853 183.333C167.455 183.333 167.946 183.523 168.327 183.904C168.708 184.284 168.898 184.84 168.898 185.57V189.963H167.351V185.809C167.351 185.402 167.243 185.105 167.027 184.918C166.811 184.728 166.547 184.632 166.235 184.632C165.863 184.632 165.571 184.749 165.361 184.982C165.154 185.212 165.05 185.512 165.05 185.881V189.963H163.537V185.745C163.537 185.407 163.435 185.137 163.23 184.935C163.029 184.733 162.765 184.632 162.438 184.632C162.216 184.632 162.015 184.689 161.833 184.803C161.651 184.914 161.506 185.071 161.398 185.276C161.29 185.478 161.236 185.713 161.236 185.983V189.963H159.693ZM175.636 185.148L174.23 185.301C174.19 185.159 174.121 185.026 174.021 184.901C173.925 184.776 173.794 184.675 173.629 184.598C173.464 184.522 173.263 184.483 173.024 184.483C172.703 184.483 172.433 184.553 172.214 184.692C171.999 184.831 171.892 185.012 171.895 185.233C171.892 185.424 171.962 185.578 172.104 185.698C172.249 185.817 172.487 185.915 172.82 185.992L173.936 186.23C174.555 186.364 175.016 186.576 175.317 186.865C175.621 187.155 175.774 187.534 175.777 188.003C175.774 188.415 175.653 188.779 175.415 189.094C175.179 189.407 174.851 189.651 174.43 189.827C174.01 190.003 173.527 190.091 172.981 190.091C172.18 190.091 171.535 189.924 171.047 189.588C170.558 189.25 170.267 188.78 170.173 188.178L171.678 188.033C171.746 188.328 171.891 188.551 172.112 188.702C172.334 188.853 172.622 188.928 172.977 188.928C173.344 188.928 173.638 188.853 173.859 188.702C174.084 188.551 174.196 188.365 174.196 188.144C174.196 187.956 174.124 187.801 173.979 187.679C173.837 187.557 173.615 187.463 173.314 187.398L172.197 187.164C171.57 187.033 171.105 186.813 170.804 186.503C170.503 186.191 170.354 185.796 170.356 185.318C170.354 184.915 170.463 184.566 170.685 184.27C170.909 183.972 171.22 183.742 171.618 183.58C172.018 183.415 172.48 183.333 173.003 183.333C173.77 183.333 174.374 183.496 174.814 183.823C175.257 184.149 175.531 184.591 175.636 185.148Z" fill="#FE7747"/>
<path opacity="0.6" d="M62.5797 222.932H61.2516C61.2137 222.714 61.1438 222.521 61.042 222.353C60.9402 222.183 60.8136 222.038 60.6621 221.92C60.5105 221.802 60.3377 221.713 60.1436 221.654C59.9518 221.592 59.7447 221.561 59.5222 221.561C59.1268 221.561 58.7764 221.661 58.471 221.86C58.1656 222.056 57.9265 222.345 57.7537 222.726C57.5809 223.105 57.4945 223.568 57.4945 224.115C57.4945 224.671 57.5809 225.14 57.7537 225.521C57.9289 225.9 58.168 226.186 58.471 226.38C58.7764 226.572 59.1256 226.668 59.5186 226.668C59.7364 226.668 59.94 226.639 60.1294 226.583C60.3212 226.523 60.4928 226.437 60.6443 226.323C60.7982 226.21 60.9272 226.07 61.0314 225.904C61.1379 225.739 61.2113 225.549 61.2516 225.336L62.5797 225.343C62.53 225.689 62.4222 226.013 62.2565 226.316C62.0932 226.619 61.8789 226.887 61.6138 227.119C61.3486 227.349 61.0385 227.528 60.6834 227.659C60.3283 227.786 59.9341 227.85 59.5008 227.85C58.8616 227.85 58.2911 227.702 57.7892 227.407C57.2873 227.111 56.8919 226.683 56.6031 226.125C56.3143 225.566 56.1699 224.896 56.1699 224.115C56.1699 223.331 56.3155 222.661 56.6067 222.105C56.8979 221.546 57.2944 221.119 57.7963 220.823C58.2982 220.527 58.8664 220.379 59.5008 220.379C59.9057 220.379 60.2821 220.436 60.6301 220.549C60.9781 220.663 61.2882 220.83 61.5605 221.05C61.8328 221.268 62.0565 221.535 62.2317 221.853C62.4092 222.167 62.5252 222.527 62.5797 222.932ZM66.1086 227.858C65.576 227.858 65.1143 227.74 64.7237 227.506C64.3331 227.272 64.03 226.944 63.8146 226.522C63.6015 226.101 63.495 225.608 63.495 225.045C63.495 224.482 63.6015 223.988 63.8146 223.564C64.03 223.14 64.3331 222.811 64.7237 222.577C65.1143 222.343 65.576 222.225 66.1086 222.225C66.6413 222.225 67.1029 222.343 67.4936 222.577C67.8842 222.811 68.186 223.14 68.3991 223.564C68.6145 223.988 68.7223 224.482 68.7223 225.045C68.7223 225.608 68.6145 226.101 68.3991 226.522C68.186 226.944 67.8842 227.272 67.4936 227.506C67.1029 227.74 66.6413 227.858 66.1086 227.858ZM66.1157 226.828C66.4045 226.828 66.646 226.748 66.8402 226.59C67.0343 226.429 67.1787 226.213 67.2734 225.943C67.3705 225.674 67.419 225.373 67.419 225.041C67.419 224.708 67.3705 224.406 67.2734 224.136C67.1787 223.864 67.0343 223.647 66.8402 223.486C66.646 223.325 66.4045 223.245 66.1157 223.245C65.8198 223.245 65.5736 223.325 65.3771 223.486C65.183 223.647 65.0374 223.864 64.9403 224.136C64.8456 224.406 64.7983 224.708 64.7983 225.041C64.7983 225.373 64.8456 225.674 64.9403 225.943C65.0374 226.213 65.183 226.429 65.3771 226.59C65.5736 226.748 65.8198 226.828 66.1157 226.828ZM71.0989 224.555V227.751H69.8133V222.296H71.042V223.223H71.106C71.2314 222.918 71.4315 222.675 71.7061 222.495C71.9831 222.315 72.3252 222.225 72.7324 222.225C73.1088 222.225 73.4367 222.306 73.716 222.467C73.9978 222.628 74.2156 222.861 74.3695 223.166C74.5257 223.472 74.6026 223.842 74.6003 224.278V227.751H73.3148V224.477C73.3148 224.112 73.2201 223.827 73.0307 223.621C72.8436 223.415 72.5844 223.312 72.253 223.312C72.0281 223.312 71.828 223.362 71.6528 223.461C71.48 223.558 71.3439 223.699 71.2445 223.884C71.1474 224.068 71.0989 224.292 71.0989 224.555ZM78.6308 222.296V223.291H75.4952V222.296H78.6308ZM76.2693 220.99H77.5548V226.11C77.5548 226.283 77.5809 226.416 77.6329 226.508C77.6874 226.598 77.7584 226.66 77.846 226.693C77.9336 226.726 78.0307 226.742 78.1372 226.742C78.2177 226.742 78.2911 226.737 78.3574 226.725C78.426 226.713 78.4781 226.702 78.5136 226.693L78.7302 227.698C78.6616 227.721 78.5633 227.747 78.4355 227.776C78.31 227.804 78.1561 227.821 77.9739 227.826C77.6519 227.835 77.3619 227.786 77.1038 227.68C76.8458 227.571 76.641 227.403 76.4895 227.176C76.3403 226.948 76.2669 226.664 76.2693 226.323V220.99ZM82.0621 227.858C81.5152 227.858 81.0429 227.744 80.6452 227.517C80.2498 227.287 79.9456 226.963 79.7326 226.544C79.5195 226.122 79.413 225.626 79.413 225.056C79.413 224.495 79.5195 224.002 79.7326 223.578C79.948 223.152 80.2487 222.821 80.6345 222.584C81.0204 222.345 81.4738 222.225 81.9946 222.225C82.3308 222.225 82.648 222.28 82.9463 222.389C83.247 222.495 83.5121 222.661 83.7418 222.886C83.9738 223.111 84.1561 223.397 84.2887 223.745C84.4212 224.091 84.4875 224.503 84.4875 224.981V225.375H80.0166V224.509H83.2553C83.2529 224.263 83.1996 224.044 83.0955 223.852C82.9913 223.658 82.8457 223.505 82.6587 223.394C82.474 223.282 82.2586 223.227 82.0124 223.227C81.7496 223.227 81.5188 223.291 81.3199 223.419C81.121 223.544 80.966 223.71 80.8547 223.916C80.7458 224.119 80.6902 224.343 80.6878 224.587V225.343C80.6878 225.661 80.7458 225.933 80.8618 226.16C80.9778 226.385 81.14 226.558 81.3483 226.679C81.5567 226.797 81.8005 226.856 82.0799 226.856C82.2669 226.856 82.4362 226.83 82.5877 226.778C82.7392 226.724 82.8706 226.644 82.9818 226.54C83.0931 226.436 83.1772 226.307 83.234 226.153L84.4343 226.288C84.3585 226.605 84.2141 226.882 84.001 227.119C83.7903 227.353 83.5204 227.536 83.1914 227.666C82.8623 227.794 82.4859 227.858 82.0621 227.858ZM86.8606 224.555V227.751H85.5751V222.296H86.8038V223.223H86.8677C86.9931 222.918 87.1932 222.675 87.4678 222.495C87.7448 222.315 88.0869 222.225 88.4941 222.225C88.8705 222.225 89.1984 222.306 89.4778 222.467C89.7595 222.628 89.9773 222.861 90.1312 223.166C90.2874 223.472 90.3644 223.842 90.362 224.278V227.751H89.0765V224.477C89.0765 224.112 88.9818 223.827 88.7924 223.621C88.6054 223.415 88.3461 223.312 88.0147 223.312C87.7898 223.312 87.5897 223.362 87.4146 223.461C87.2417 223.558 87.1056 223.699 87.0062 223.884C86.9091 224.068 86.8606 224.292 86.8606 224.555ZM94.3925 222.296V223.291H91.2569V222.296H94.3925ZM92.031 220.99H93.3165V226.11C93.3165 226.283 93.3426 226.416 93.3947 226.508C93.4491 226.598 93.5201 226.66 93.6077 226.693C93.6953 226.726 93.7924 226.742 93.8989 226.742C93.9794 226.742 94.0528 226.737 94.1191 226.725C94.1878 226.713 94.2398 226.702 94.2753 226.693L94.492 227.698C94.4233 227.721 94.3251 227.747 94.1972 227.776C94.0717 227.804 93.9179 227.821 93.7356 227.826C93.4136 227.835 93.1236 227.786 92.8655 227.68C92.6075 227.571 92.4027 227.403 92.2512 227.176C92.1021 226.948 92.0287 226.664 92.031 226.323V220.99ZM104.23 222.932H102.902C102.864 222.714 102.794 222.521 102.692 222.353C102.591 222.183 102.464 222.038 102.312 221.92C102.161 221.802 101.988 221.713 101.794 221.654C101.602 221.592 101.395 221.561 101.173 221.561C100.777 221.561 100.427 221.661 100.121 221.86C99.816 222.056 99.5769 222.345 99.4041 222.726C99.2313 223.105 99.1448 223.568 99.1448 224.115C99.1448 224.671 99.2313 225.14 99.4041 225.521C99.5793 225.9 99.8184 226.186 100.121 226.38C100.427 226.572 100.776 226.668 101.169 226.668C101.387 226.668 101.59 226.639 101.78 226.583C101.972 226.523 102.143 226.437 102.295 226.323C102.449 226.21 102.578 226.07 102.682 225.904C102.788 225.739 102.862 225.549 102.902 225.336L104.23 225.343C104.18 225.689 104.073 226.013 103.907 226.316C103.744 226.619 103.529 226.887 103.264 227.119C102.999 227.349 102.689 227.528 102.334 227.659C101.979 227.786 101.584 227.85 101.151 227.85C100.512 227.85 99.9415 227.702 99.4396 227.407C98.9377 227.111 98.5423 226.683 98.2535 226.125C97.9647 225.566 97.8203 224.896 97.8203 224.115C97.8203 223.331 97.9659 222.661 98.2571 222.105C98.5483 221.546 98.9448 221.119 99.4467 220.823C99.9486 220.527 100.517 220.379 101.151 220.379C101.556 220.379 101.932 220.436 102.28 220.549C102.629 220.663 102.939 220.83 103.211 221.05C103.483 221.268 103.707 221.535 103.882 221.853C104.06 222.167 104.176 222.527 104.23 222.932ZM105.38 227.751V222.296H106.626V223.206H106.683C106.782 222.891 106.953 222.648 107.194 222.478C107.438 222.305 107.716 222.218 108.029 222.218C108.1 222.218 108.179 222.222 108.267 222.229C108.357 222.234 108.431 222.242 108.491 222.254V223.436C108.436 223.417 108.35 223.401 108.231 223.387C108.115 223.37 108.003 223.362 107.894 223.362C107.66 223.362 107.449 223.413 107.262 223.514C107.077 223.614 106.932 223.752 106.825 223.93C106.719 224.108 106.665 224.312 106.665 224.544V227.751H105.38ZM111.535 227.858C110.988 227.858 110.516 227.744 110.118 227.517C109.722 227.287 109.418 226.963 109.205 226.544C108.992 226.122 108.886 225.626 108.886 225.056C108.886 224.495 108.992 224.002 109.205 223.578C109.421 223.152 109.721 222.821 110.107 222.584C110.493 222.345 110.946 222.225 111.467 222.225C111.803 222.225 112.121 222.28 112.419 222.389C112.72 222.495 112.985 222.661 113.214 222.886C113.446 223.111 113.629 223.397 113.761 223.745C113.894 224.091 113.96 224.503 113.96 224.981V225.375H109.489V224.509H112.728C112.726 224.263 112.672 224.044 112.568 223.852C112.464 223.658 112.318 223.505 112.131 223.394C111.947 223.282 111.731 223.227 111.485 223.227C111.222 223.227 110.991 223.291 110.793 223.419C110.594 223.544 110.439 223.71 110.327 223.916C110.218 224.119 110.163 224.343 110.16 224.587V225.343C110.16 225.661 110.218 225.933 110.334 226.16C110.45 226.385 110.613 226.558 110.821 226.679C111.029 226.797 111.273 226.856 111.553 226.856C111.74 226.856 111.909 226.83 112.06 226.778C112.212 226.724 112.343 226.644 112.455 226.54C112.566 226.436 112.65 226.307 112.707 226.153L113.907 226.288C113.831 226.605 113.687 226.882 113.474 227.119C113.263 227.353 112.993 227.536 112.664 227.666C112.335 227.794 111.959 227.858 111.535 227.858ZM116.617 227.861C116.272 227.861 115.96 227.8 115.683 227.676C115.409 227.551 115.191 227.366 115.03 227.122C114.871 226.879 114.792 226.578 114.792 226.22C114.792 225.913 114.849 225.658 114.962 225.457C115.076 225.256 115.231 225.095 115.428 224.974C115.624 224.853 115.846 224.762 116.092 224.701C116.34 224.637 116.597 224.59 116.862 224.562C117.182 224.529 117.441 224.499 117.64 224.473C117.839 224.445 117.983 224.402 118.073 224.345C118.166 224.286 118.212 224.195 118.212 224.072V224.051C118.212 223.783 118.132 223.576 117.974 223.429C117.815 223.282 117.587 223.209 117.288 223.209C116.974 223.209 116.724 223.278 116.539 223.415C116.357 223.552 116.234 223.715 116.17 223.902L114.97 223.731C115.064 223.4 115.221 223.123 115.438 222.9C115.656 222.675 115.922 222.507 116.237 222.396C116.552 222.282 116.9 222.225 117.281 222.225C117.544 222.225 117.806 222.256 118.066 222.318C118.327 222.379 118.565 222.481 118.78 222.623C118.995 222.763 119.168 222.953 119.298 223.195C119.431 223.436 119.497 223.738 119.497 224.1V227.751H118.261V227.002H118.219C118.141 227.153 118.031 227.295 117.889 227.428C117.749 227.558 117.573 227.663 117.36 227.744C117.149 227.822 116.901 227.861 116.617 227.861ZM116.951 226.916C117.209 226.916 117.433 226.866 117.622 226.764C117.812 226.66 117.957 226.522 118.059 226.352C118.163 226.181 118.215 225.996 118.215 225.794V225.152C118.175 225.185 118.106 225.215 118.009 225.244C117.915 225.272 117.808 225.297 117.69 225.318C117.571 225.34 117.454 225.359 117.338 225.375C117.222 225.392 117.122 225.406 117.036 225.418C116.845 225.444 116.673 225.487 116.521 225.546C116.37 225.605 116.25 225.688 116.163 225.794C116.075 225.898 116.031 226.033 116.031 226.199C116.031 226.436 116.118 226.615 116.291 226.735C116.463 226.856 116.684 226.916 116.951 226.916ZM123.514 222.296V223.291H120.378V222.296H123.514ZM121.152 220.99H122.438V226.11C122.438 226.283 122.464 226.416 122.516 226.508C122.57 226.598 122.641 226.66 122.729 226.693C122.816 226.726 122.913 226.742 123.02 226.742C123.101 226.742 123.174 226.737 123.24 226.725C123.309 226.713 123.361 226.702 123.396 226.693L123.613 227.698C123.544 227.721 123.446 227.747 123.318 227.776C123.193 227.804 123.039 227.821 122.857 227.826C122.535 227.835 122.245 227.786 121.987 227.68C121.729 227.571 121.524 227.403 121.372 227.176C121.223 226.948 121.15 226.664 121.152 226.323V220.99ZM126.909 227.858C126.377 227.858 125.915 227.74 125.524 227.506C125.134 227.272 124.831 226.944 124.615 226.522C124.402 226.101 124.296 225.608 124.296 225.045C124.296 224.482 124.402 223.988 124.615 223.564C124.831 223.14 125.134 222.811 125.524 222.577C125.915 222.343 126.377 222.225 126.909 222.225C127.442 222.225 127.904 222.343 128.294 222.577C128.685 222.811 128.987 223.14 129.2 223.564C129.415 223.988 129.523 224.482 129.523 225.045C129.523 225.608 129.415 226.101 129.2 226.522C128.987 226.944 128.685 227.272 128.294 227.506C127.904 227.74 127.442 227.858 126.909 227.858ZM126.917 226.828C127.205 226.828 127.447 226.748 127.641 226.59C127.835 226.429 127.979 226.213 128.074 225.943C128.171 225.674 128.22 225.373 128.22 225.041C128.22 224.708 128.171 224.406 128.074 224.136C127.979 223.864 127.835 223.647 127.641 223.486C127.447 223.325 127.205 223.245 126.917 223.245C126.621 223.245 126.374 223.325 126.178 223.486C125.984 223.647 125.838 223.864 125.741 224.136C125.646 224.406 125.599 224.708 125.599 225.041C125.599 225.373 125.646 225.674 125.741 225.943C125.838 226.213 125.984 226.429 126.178 226.59C126.374 226.748 126.621 226.828 126.917 226.828ZM130.614 227.751V222.296H131.861V223.206H131.917C132.017 222.891 132.187 222.648 132.429 222.478C132.673 222.305 132.951 222.218 133.263 222.218C133.334 222.218 133.414 222.222 133.501 222.229C133.591 222.234 133.666 222.242 133.725 222.254V223.436C133.67 223.417 133.584 223.401 133.466 223.387C133.35 223.37 133.237 223.362 133.128 223.362C132.894 223.362 132.683 223.413 132.496 223.514C132.312 223.614 132.166 223.752 132.059 223.93C131.953 224.108 131.9 224.312 131.9 224.544V227.751H130.614ZM138.89 223.738L137.718 223.866C137.685 223.748 137.627 223.636 137.544 223.532C137.464 223.428 137.355 223.344 137.217 223.28C137.08 223.216 136.912 223.184 136.713 223.184C136.446 223.184 136.221 223.242 136.038 223.358C135.859 223.474 135.77 223.625 135.772 223.809C135.77 223.968 135.828 224.097 135.946 224.196C136.067 224.296 136.266 224.377 136.543 224.441L137.473 224.64C137.989 224.751 138.373 224.928 138.624 225.169C138.877 225.411 139.005 225.727 139.007 226.117C139.005 226.461 138.904 226.764 138.705 227.027C138.509 227.287 138.235 227.491 137.885 227.637C137.535 227.784 137.132 227.858 136.678 227.858C136.01 227.858 135.473 227.718 135.065 227.438C134.658 227.157 134.416 226.765 134.337 226.263L135.591 226.142C135.648 226.389 135.769 226.574 135.953 226.7C136.138 226.825 136.378 226.888 136.674 226.888C136.98 226.888 137.225 226.825 137.409 226.7C137.596 226.574 137.69 226.419 137.69 226.235C137.69 226.078 137.629 225.949 137.509 225.848C137.39 225.746 137.206 225.668 136.955 225.613L136.024 225.418C135.501 225.309 135.114 225.126 134.863 224.867C134.612 224.607 134.488 224.278 134.49 223.88C134.488 223.544 134.579 223.253 134.764 223.007C134.951 222.758 135.21 222.566 135.541 222.431C135.875 222.294 136.26 222.225 136.695 222.225C137.335 222.225 137.838 222.362 138.205 222.634C138.574 222.906 138.802 223.274 138.89 223.738Z" fill="#222A2F"/>
<rect x="37.3159" y="398.819" width="366.425" height="167.181" fill="#F5F5F5"/>
<rect x="37.3159" y="398.819" width="366.425" height="6.87047" fill="#FE7747"/>
<path d="M51.0566 436.745C53.3468 437.855 54.4919 439.521 55.3507 441.187C56.4958 438.411 60.2173 433.136 64.7976 432.026" stroke="#FE7747" stroke-width="1.5" stroke-linecap="round" stroke-linejoin="round"/>
<rect x="55.6372" y="495.005" width="251.917" height="13.7409" fill="#E7E9ED"/>
<rect x="55.6372" y="517.907" width="209.549" height="13.7409" fill="#E6E8EC"/>
<path d="M77.2445 440.591V432.131H80.8325C81.7365 432.131 82.4285 432.351 82.9085 432.791C83.3965 433.223 83.6405 433.823 83.6405 434.591C83.6405 435.359 83.3965 435.963 82.9085 436.403C82.4285 436.843 81.7365 437.063 80.8325 437.063H78.4925V440.591H77.2445ZM78.4925 436.067H80.7005C81.2685 436.067 81.6965 435.939 81.9845 435.683C82.2725 435.427 82.4165 435.063 82.4165 434.591C82.4165 434.127 82.2725 433.767 81.9845 433.511C81.6965 433.255 81.2685 433.127 80.7005 433.127H78.4925V436.067ZM84.8938 440.591V436.043C84.8938 435.795 84.8858 435.547 84.8698 435.299C84.8618 435.043 84.8458 434.791 84.8218 434.543H85.9978L86.1298 436.103H85.9378C86.0178 435.727 86.1538 435.415 86.3458 435.167C86.5378 434.919 86.7698 434.735 87.0418 434.615C87.3218 434.495 87.6138 434.435 87.9178 434.435C88.0458 434.435 88.1538 434.443 88.2418 434.459C88.3298 434.467 88.4178 434.483 88.5058 434.507L88.4938 435.587C88.3578 435.531 88.2378 435.499 88.1338 435.491C88.0378 435.475 87.9178 435.467 87.7738 435.467C87.4218 435.467 87.1218 435.547 86.8738 435.707C86.6258 435.859 86.4378 436.067 86.3098 436.331C86.1818 436.595 86.1178 436.879 86.1178 437.183V440.591H84.8938ZM91.9512 440.699C91.3512 440.699 90.8312 440.575 90.3912 440.327C89.9512 440.071 89.6112 439.711 89.3712 439.247C89.1312 438.775 89.0112 438.215 89.0112 437.567C89.0112 436.919 89.1312 436.363 89.3712 435.899C89.6112 435.427 89.9512 435.067 90.3912 434.819C90.8312 434.563 91.3512 434.435 91.9512 434.435C92.5512 434.435 93.0712 434.563 93.5112 434.819C93.9592 435.067 94.3032 435.427 94.5432 435.899C94.7912 436.363 94.9152 436.919 94.9152 437.567C94.9152 438.215 94.7912 438.775 94.5432 439.247C94.3032 439.711 93.9592 440.071 93.5112 440.327C93.0712 440.575 92.5512 440.699 91.9512 440.699ZM91.9512 439.751C92.4792 439.751 92.8992 439.567 93.2112 439.199C93.5232 438.831 93.6792 438.287 93.6792 437.567C93.6792 436.847 93.5232 436.307 93.2112 435.947C92.8992 435.579 92.4792 435.395 91.9512 435.395C91.4312 435.395 91.0152 435.579 90.7032 435.947C90.3912 436.307 90.2352 436.847 90.2352 437.567C90.2352 438.287 90.3872 438.831 90.6912 439.199C91.0032 439.567 91.4232 439.751 91.9512 439.751ZM98.6478 440.699C98.1198 440.699 97.6518 440.575 97.2438 440.327C96.8438 440.079 96.5318 439.719 96.3078 439.247C96.0918 438.775 95.9838 438.215 95.9838 437.567C95.9838 436.911 96.0918 436.351 96.3078 435.887C96.5318 435.423 96.8438 435.067 97.2438 434.819C97.6518 434.563 98.1198 434.435 98.6478 434.435C99.1678 434.435 99.6238 434.567 100.016 434.831C100.416 435.087 100.68 435.439 100.808 435.887H100.664V431.759H101.876V440.591H100.676V439.223H100.82C100.684 439.679 100.42 440.039 100.028 440.303C99.6358 440.567 99.1758 440.699 98.6478 440.699ZM98.9478 439.751C99.4678 439.751 99.8878 439.567 100.208 439.199C100.528 438.831 100.688 438.287 100.688 437.567C100.688 436.847 100.528 436.307 100.208 435.947C99.8878 435.579 99.4678 435.395 98.9478 435.395C98.4198 435.395 97.9958 435.579 97.6758 435.947C97.3638 436.307 97.2078 436.847 97.2078 437.567C97.2078 438.287 97.3638 438.831 97.6758 439.199C97.9958 439.567 98.4198 439.751 98.9478 439.751ZM105.792 440.699C105.064 440.699 104.516 440.503 104.148 440.111C103.788 439.711 103.608 439.099 103.608 438.275V434.543H104.82V438.251C104.82 438.755 104.924 439.127 105.132 439.367C105.34 439.607 105.656 439.727 106.08 439.727C106.56 439.727 106.948 439.567 107.244 439.247C107.54 438.927 107.688 438.503 107.688 437.975V434.543H108.9V440.591H107.724V439.295H107.88C107.712 439.743 107.444 440.091 107.076 440.339C106.708 440.579 106.28 440.699 105.792 440.699ZM113.328 440.699C112.72 440.699 112.188 440.575 111.732 440.327C111.284 440.071 110.936 439.707 110.688 439.235C110.448 438.755 110.328 438.187 110.328 437.531C110.328 436.883 110.452 436.327 110.7 435.863C110.948 435.399 111.296 435.047 111.744 434.807C112.192 434.559 112.72 434.435 113.328 434.435C113.72 434.435 114.1 434.503 114.468 434.639C114.836 434.767 115.14 434.951 115.38 435.191L114.984 436.043C114.76 435.827 114.508 435.667 114.228 435.563C113.948 435.451 113.676 435.395 113.412 435.395C112.836 435.395 112.384 435.579 112.056 435.947C111.728 436.315 111.564 436.847 111.564 437.543C111.564 438.247 111.728 438.787 112.056 439.163C112.384 439.539 112.836 439.727 113.412 439.727C113.668 439.727 113.936 439.679 114.216 439.583C114.496 439.479 114.752 439.315 114.984 439.091L115.38 439.943C115.132 440.183 114.82 440.371 114.444 440.507C114.076 440.635 113.704 440.699 113.328 440.699ZM119.028 440.699C118.372 440.699 117.876 440.523 117.54 440.171C117.204 439.811 117.036 439.275 117.036 438.563V435.479H115.86V434.543H117.036V432.947L118.248 432.623V434.543H119.928V435.479H118.248V438.455C118.248 438.903 118.328 439.223 118.488 439.415C118.648 439.607 118.88 439.703 119.184 439.703C119.336 439.703 119.468 439.691 119.58 439.667C119.7 439.635 119.808 439.599 119.904 439.559V440.543C119.784 440.591 119.644 440.627 119.484 440.651C119.324 440.683 119.172 440.699 119.028 440.699ZM124.354 440.591V432.131H125.446L128.71 439.487H128.35L131.614 432.131H132.694V440.591H131.566V433.823H131.962L128.914 440.591H128.134L125.086 433.823H125.494V440.591H124.354ZM136.921 440.699C136.385 440.699 135.917 440.575 135.517 440.327C135.117 440.079 134.805 439.719 134.581 439.247C134.365 438.775 134.257 438.215 134.257 437.567C134.257 436.911 134.365 436.351 134.581 435.887C134.805 435.423 135.117 435.067 135.517 434.819C135.917 434.563 136.385 434.435 136.921 434.435C137.449 434.435 137.909 434.567 138.301 434.831C138.693 435.095 138.953 435.455 139.081 435.911H138.949L139.069 434.543H140.245C140.221 434.791 140.197 435.039 140.173 435.287C140.157 435.527 140.149 435.763 140.149 435.995V440.591H138.937V439.247H139.069C138.941 439.695 138.677 440.051 138.277 440.315C137.885 440.571 137.433 440.699 136.921 440.699ZM137.221 439.751C137.741 439.751 138.157 439.567 138.469 439.199C138.789 438.831 138.949 438.287 138.949 437.567C138.949 436.847 138.789 436.307 138.469 435.947C138.157 435.579 137.741 435.395 137.221 435.395C136.693 435.395 136.269 435.579 135.949 435.947C135.637 436.307 135.481 436.847 135.481 437.567C135.481 438.287 135.637 438.831 135.949 439.199C136.261 439.567 136.685 439.751 137.221 439.751ZM141.918 440.591V435.995C141.918 435.763 141.906 435.527 141.882 435.287C141.866 435.039 141.846 434.791 141.822 434.543H142.998L143.106 435.815H142.962C143.146 435.367 143.43 435.027 143.814 434.795C144.198 434.555 144.642 434.435 145.146 434.435C145.858 434.435 146.394 434.631 146.754 435.023C147.122 435.415 147.306 436.023 147.306 436.847V440.591H146.094V436.919C146.094 436.383 145.986 435.999 145.77 435.767C145.562 435.527 145.242 435.407 144.81 435.407C144.298 435.407 143.89 435.567 143.586 435.887C143.282 436.199 143.13 436.623 143.13 437.159V440.591H141.918ZM151.347 440.699C150.811 440.699 150.343 440.575 149.943 440.327C149.543 440.079 149.231 439.719 149.007 439.247C148.791 438.775 148.683 438.215 148.683 437.567C148.683 436.911 148.791 436.351 149.007 435.887C149.231 435.423 149.543 435.067 149.943 434.819C150.343 434.563 150.811 434.435 151.347 434.435C151.875 434.435 152.335 434.567 152.727 434.831C153.119 435.095 153.379 435.455 153.507 435.911H153.375L153.495 434.543H154.671C154.647 434.791 154.623 435.039 154.599 435.287C154.583 435.527 154.575 435.763 154.575 435.995V440.591H153.363V439.247H153.495C153.367 439.695 153.103 440.051 152.703 440.315C152.311 440.571 151.859 440.699 151.347 440.699ZM151.647 439.751C152.167 439.751 152.583 439.567 152.895 439.199C153.215 438.831 153.375 438.287 153.375 437.567C153.375 436.847 153.215 436.307 152.895 435.947C152.583 435.579 152.167 435.395 151.647 435.395C151.119 435.395 150.695 435.579 150.375 435.947C150.063 436.307 149.907 436.847 149.907 437.567C149.907 438.287 150.063 438.831 150.375 439.199C150.687 439.567 151.111 439.751 151.647 439.751ZM159.068 443.279C158.524 443.279 158.028 443.215 157.58 443.087C157.14 442.959 156.744 442.767 156.392 442.511L156.692 441.623C156.94 441.791 157.184 441.923 157.424 442.019C157.664 442.123 157.916 442.199 158.18 442.247C158.444 442.295 158.716 442.319 158.996 442.319C159.572 442.319 160.004 442.171 160.292 441.875C160.588 441.587 160.736 441.167 160.736 440.615V438.995H160.856C160.728 439.443 160.464 439.799 160.064 440.063C159.672 440.319 159.216 440.447 158.696 440.447C158.144 440.447 157.664 440.327 157.256 440.087C156.856 439.839 156.544 439.491 156.32 439.043C156.104 438.587 155.996 438.051 155.996 437.435C155.996 436.819 156.104 436.287 156.32 435.839C156.544 435.391 156.856 435.047 157.256 434.807C157.664 434.559 158.144 434.435 158.696 434.435C159.224 434.435 159.68 434.567 160.064 434.831C160.456 435.087 160.716 435.439 160.844 435.887L160.736 435.791L160.844 434.543H162.02C161.988 434.791 161.964 435.039 161.948 435.287C161.932 435.527 161.924 435.763 161.924 435.995V440.471C161.924 441.383 161.68 442.079 161.192 442.559C160.712 443.039 160.004 443.279 159.068 443.279ZM158.984 439.499C159.512 439.499 159.932 439.319 160.244 438.959C160.564 438.599 160.724 438.091 160.724 437.435C160.724 436.779 160.564 436.275 160.244 435.923C159.932 435.571 159.512 435.395 158.984 435.395C158.44 435.395 158.008 435.571 157.688 435.923C157.376 436.275 157.22 436.779 157.22 437.435C157.22 438.091 157.376 438.599 157.688 438.959C158.008 439.319 158.44 439.499 158.984 439.499ZM166.487 440.699C165.511 440.699 164.743 440.423 164.183 439.871C163.623 439.319 163.343 438.555 163.343 437.579C163.343 436.947 163.463 436.395 163.703 435.923C163.951 435.451 164.291 435.087 164.723 434.831C165.163 434.567 165.671 434.435 166.247 434.435C166.815 434.435 167.291 434.555 167.675 434.795C168.059 435.035 168.351 435.375 168.551 435.815C168.751 436.247 168.851 436.759 168.851 437.351V437.735H164.291V437.039H168.023L167.819 437.195C167.819 436.595 167.683 436.131 167.411 435.803C167.147 435.467 166.763 435.299 166.259 435.299C165.699 435.299 165.267 435.495 164.963 435.887C164.659 436.271 164.507 436.803 164.507 437.483V437.603C164.507 438.315 164.679 438.851 165.023 439.211C165.375 439.571 165.871 439.751 166.511 439.751C166.863 439.751 167.191 439.703 167.495 439.607C167.807 439.503 168.103 439.335 168.383 439.103L168.779 439.931C168.499 440.179 168.159 440.371 167.759 440.507C167.359 440.635 166.935 440.699 166.487 440.699ZM170.218 440.591V436.043C170.218 435.795 170.21 435.547 170.194 435.299C170.186 435.043 170.17 434.791 170.146 434.543H171.322L171.454 436.103H171.262C171.342 435.727 171.478 435.415 171.67 435.167C171.862 434.919 172.094 434.735 172.366 434.615C172.646 434.495 172.938 434.435 173.242 434.435C173.37 434.435 173.478 434.443 173.566 434.459C173.654 434.467 173.742 434.483 173.83 434.507L173.818 435.587C173.682 435.531 173.562 435.499 173.458 435.491C173.362 435.475 173.242 435.467 173.098 435.467C172.746 435.467 172.446 435.547 172.198 435.707C171.95 435.859 171.762 436.067 171.634 436.331C171.506 436.595 171.442 436.879 171.442 437.183V440.591H170.218ZM176.783 440.699C176.279 440.699 175.815 440.635 175.391 440.507C174.967 440.379 174.615 440.199 174.335 439.967L174.707 439.139C175.003 439.363 175.331 439.531 175.691 439.643C176.051 439.755 176.419 439.811 176.795 439.811C177.235 439.811 177.567 439.735 177.791 439.583C178.015 439.423 178.127 439.207 178.127 438.935C178.127 438.727 178.055 438.559 177.911 438.431C177.775 438.303 177.547 438.207 177.227 438.143L176.075 437.915C175.563 437.803 175.175 437.611 174.911 437.339C174.647 437.067 174.515 436.719 174.515 436.295C174.515 435.935 174.611 435.615 174.803 435.335C175.003 435.055 175.283 434.835 175.643 434.675C176.011 434.515 176.439 434.435 176.927 434.435C177.375 434.435 177.791 434.499 178.175 434.627C178.559 434.755 178.879 434.939 179.135 435.179L178.751 435.983C178.503 435.775 178.223 435.615 177.911 435.503C177.599 435.383 177.283 435.323 176.963 435.323C176.515 435.323 176.183 435.407 175.967 435.575C175.751 435.743 175.643 435.963 175.643 436.235C175.643 436.443 175.707 436.615 175.835 436.751C175.971 436.879 176.183 436.979 176.471 437.051L177.623 437.279C178.167 437.391 178.575 437.575 178.847 437.831C179.119 438.087 179.255 438.431 179.255 438.863C179.255 439.239 179.151 439.567 178.943 439.847C178.735 440.127 178.447 440.339 178.079 440.483C177.711 440.627 177.279 440.699 176.783 440.699Z" fill="#FE7747"/>
<path opacity="0.6" d="M62.5797 472.56H61.2516C61.2137 472.342 61.1438 472.149 61.042 471.981C60.9402 471.81 60.8136 471.666 60.6621 471.547C60.5105 471.429 60.3377 471.34 60.1436 471.281C59.9518 471.22 59.7447 471.189 59.5222 471.189C59.1268 471.189 58.7764 471.288 58.471 471.487C58.1656 471.684 57.9265 471.972 57.7537 472.354C57.5809 472.732 57.4945 473.195 57.4945 473.742C57.4945 474.298 57.5809 474.767 57.7537 475.148C57.9289 475.527 58.168 475.814 58.471 476.008C58.7764 476.199 59.1256 476.295 59.5186 476.295C59.7364 476.295 59.94 476.267 60.1294 476.21C60.3212 476.151 60.4928 476.064 60.6443 475.951C60.7982 475.837 60.9272 475.698 61.0314 475.532C61.1379 475.366 61.2113 475.177 61.2516 474.964L62.5797 474.971C62.53 475.316 62.4222 475.641 62.2565 475.944C62.0932 476.247 61.8789 476.514 61.6138 476.746C61.3486 476.976 61.0385 477.156 60.6834 477.286C60.3283 477.414 59.9341 477.478 59.5008 477.478C58.8616 477.478 58.2911 477.33 57.7892 477.034C57.2873 476.738 56.8919 476.311 56.6031 475.752C56.3143 475.193 56.1699 474.523 56.1699 473.742C56.1699 472.958 56.3155 472.288 56.6067 471.732C56.8979 471.173 57.2944 470.746 57.7963 470.45C58.2982 470.154 58.8664 470.006 59.5008 470.006C59.9057 470.006 60.2821 470.063 60.6301 470.177C60.9781 470.29 61.2882 470.457 61.5605 470.677C61.8328 470.895 62.0565 471.163 62.2317 471.48C62.4092 471.795 62.5252 472.155 62.5797 472.56ZM66.1086 477.485C65.576 477.485 65.1143 477.368 64.7237 477.133C64.3331 476.899 64.03 476.571 63.8146 476.15C63.6015 475.728 63.495 475.236 63.495 474.672C63.495 474.109 63.6015 473.615 63.8146 473.192C64.03 472.768 64.3331 472.439 64.7237 472.204C65.1143 471.97 65.576 471.853 66.1086 471.853C66.6413 471.853 67.1029 471.97 67.4936 472.204C67.8842 472.439 68.186 472.768 68.3991 473.192C68.6145 473.615 68.7223 474.109 68.7223 474.672C68.7223 475.236 68.6145 475.728 68.3991 476.15C68.186 476.571 67.8842 476.899 67.4936 477.133C67.1029 477.368 66.6413 477.485 66.1086 477.485ZM66.1157 476.455C66.4045 476.455 66.646 476.376 66.8402 476.217C67.0343 476.056 67.1787 475.841 67.2734 475.571C67.3705 475.301 67.419 475 67.419 474.669C67.419 474.335 67.3705 474.033 67.2734 473.763C67.1787 473.491 67.0343 473.274 66.8402 473.114C66.646 472.953 66.4045 472.872 66.1157 472.872C65.8198 472.872 65.5736 472.953 65.3771 473.114C65.183 473.274 65.0374 473.491 64.9403 473.763C64.8456 474.033 64.7983 474.335 64.7983 474.669C64.7983 475 64.8456 475.301 64.9403 475.571C65.0374 475.841 65.183 476.056 65.3771 476.217C65.5736 476.376 65.8198 476.455 66.1157 476.455ZM71.0989 474.182V477.378H69.8133V471.924H71.042V472.851H71.106C71.2314 472.545 71.4315 472.303 71.7061 472.123C71.9831 471.943 72.3252 471.853 72.7324 471.853C73.1088 471.853 73.4367 471.933 73.716 472.094C73.9978 472.255 74.2156 472.489 74.3695 472.794C74.5257 473.099 74.6026 473.47 74.6003 473.905V477.378H73.3148V474.104C73.3148 473.74 73.2201 473.454 73.0307 473.248C72.8436 473.042 72.5844 472.939 72.253 472.939C72.0281 472.939 71.828 472.989 71.6528 473.089C71.48 473.186 71.3439 473.327 71.2445 473.511C71.1474 473.696 71.0989 473.92 71.0989 474.182ZM78.6308 471.924V472.918H75.4952V471.924H78.6308ZM76.2693 470.617H77.5548V475.738C77.5548 475.911 77.5809 476.043 77.6329 476.136C77.6874 476.225 77.7584 476.287 77.846 476.32C77.9336 476.353 78.0307 476.37 78.1372 476.37C78.2177 476.37 78.2911 476.364 78.3574 476.352C78.426 476.34 78.4781 476.33 78.5136 476.32L78.7302 477.325C78.6616 477.349 78.5633 477.375 78.4355 477.403C78.31 477.432 78.1561 477.448 77.9739 477.453C77.6519 477.462 77.3619 477.414 77.1038 477.307C76.8458 477.198 76.641 477.03 76.4895 476.803C76.3403 476.576 76.2669 476.292 76.2693 475.951V470.617ZM82.0621 477.485C81.5152 477.485 81.0429 477.371 80.6452 477.144C80.2498 476.914 79.9456 476.59 79.7326 476.171C79.5195 475.75 79.413 475.254 79.413 474.683C79.413 474.122 79.5195 473.63 79.7326 473.206C79.948 472.78 80.2487 472.448 80.6345 472.212C81.0204 471.972 81.4738 471.853 81.9946 471.853C82.3308 471.853 82.648 471.907 82.9463 472.016C83.247 472.123 83.5121 472.288 83.7418 472.513C83.9738 472.738 84.1561 473.025 84.2887 473.373C84.4212 473.718 84.4875 474.13 84.4875 474.609V475.003H80.0166V474.136H83.2553C83.2529 473.89 83.1996 473.671 83.0955 473.479C82.9913 473.285 82.8457 473.132 82.6587 473.021C82.474 472.91 82.2586 472.854 82.0124 472.854C81.7496 472.854 81.5188 472.918 81.3199 473.046C81.121 473.172 80.966 473.337 80.8547 473.543C80.7458 473.747 80.6902 473.971 80.6878 474.214V474.971C80.6878 475.288 80.7458 475.56 80.8618 475.788C80.9778 476.012 81.14 476.185 81.3483 476.306C81.5567 476.424 81.8005 476.484 82.0799 476.484C82.2669 476.484 82.4362 476.457 82.5877 476.405C82.7392 476.351 82.8706 476.272 82.9818 476.167C83.0931 476.063 83.1772 475.934 83.234 475.78L84.4343 475.915C84.3585 476.233 84.2141 476.51 84.001 476.746C83.7903 476.981 83.5204 477.163 83.1914 477.293C82.8623 477.421 82.4859 477.485 82.0621 477.485ZM86.8606 474.182V477.378H85.5751V471.924H86.8038V472.851H86.8677C86.9931 472.545 87.1932 472.303 87.4678 472.123C87.7448 471.943 88.0869 471.853 88.4941 471.853C88.8705 471.853 89.1984 471.933 89.4778 472.094C89.7595 472.255 89.9773 472.489 90.1312 472.794C90.2874 473.099 90.3644 473.47 90.362 473.905V477.378H89.0765V474.104C89.0765 473.74 88.9818 473.454 88.7924 473.248C88.6054 473.042 88.3461 472.939 88.0147 472.939C87.7898 472.939 87.5897 472.989 87.4146 473.089C87.2417 473.186 87.1056 473.327 87.0062 473.511C86.9091 473.696 86.8606 473.92 86.8606 474.182ZM94.3925 471.924V472.918H91.2569V471.924H94.3925ZM92.031 470.617H93.3165V475.738C93.3165 475.911 93.3426 476.043 93.3947 476.136C93.4491 476.225 93.5201 476.287 93.6077 476.32C93.6953 476.353 93.7924 476.37 93.8989 476.37C93.9794 476.37 94.0528 476.364 94.1191 476.352C94.1878 476.34 94.2398 476.33 94.2753 476.32L94.492 477.325C94.4233 477.349 94.3251 477.375 94.1972 477.403C94.0717 477.432 93.9179 477.448 93.7356 477.453C93.4136 477.462 93.1236 477.414 92.8655 477.307C92.6075 477.198 92.4027 477.03 92.2512 476.803C92.1021 476.576 92.0287 476.292 92.031 475.951V470.617ZM104.23 472.56H102.902C102.864 472.342 102.794 472.149 102.692 471.981C102.591 471.81 102.464 471.666 102.312 471.547C102.161 471.429 101.988 471.34 101.794 471.281C101.602 471.22 101.395 471.189 101.173 471.189C100.777 471.189 100.427 471.288 100.121 471.487C99.816 471.684 99.5769 471.972 99.4041 472.354C99.2313 472.732 99.1448 473.195 99.1448 473.742C99.1448 474.298 99.2313 474.767 99.4041 475.148C99.5793 475.527 99.8184 475.814 100.121 476.008C100.427 476.199 100.776 476.295 101.169 476.295C101.387 476.295 101.59 476.267 101.78 476.21C101.972 476.151 102.143 476.064 102.295 475.951C102.449 475.837 102.578 475.698 102.682 475.532C102.788 475.366 102.862 475.177 102.902 474.964L104.23 474.971C104.18 475.316 104.073 475.641 103.907 475.944C103.744 476.247 103.529 476.514 103.264 476.746C102.999 476.976 102.689 477.156 102.334 477.286C101.979 477.414 101.584 477.478 101.151 477.478C100.512 477.478 99.9415 477.33 99.4396 477.034C98.9377 476.738 98.5423 476.311 98.2535 475.752C97.9647 475.193 97.8203 474.523 97.8203 473.742C97.8203 472.958 97.9659 472.288 98.2571 471.732C98.5483 471.173 98.9448 470.746 99.4467 470.45C99.9486 470.154 100.517 470.006 101.151 470.006C101.556 470.006 101.932 470.063 102.28 470.177C102.629 470.29 102.939 470.457 103.211 470.677C103.483 470.895 103.707 471.163 103.882 471.48C104.06 471.795 104.176 472.155 104.23 472.56ZM105.38 477.378V471.924H106.626V472.833H106.683C106.782 472.518 106.953 472.275 107.194 472.105C107.438 471.932 107.716 471.846 108.029 471.846C108.1 471.846 108.179 471.849 108.267 471.856C108.357 471.861 108.431 471.869 108.491 471.881V473.064C108.436 473.045 108.35 473.028 108.231 473.014C108.115 472.997 108.003 472.989 107.894 472.989C107.66 472.989 107.449 473.04 107.262 473.142C107.077 473.241 106.932 473.38 106.825 473.557C106.719 473.735 106.665 473.94 106.665 474.172V477.378H105.38ZM111.535 477.485C110.988 477.485 110.516 477.371 110.118 477.144C109.722 476.914 109.418 476.59 109.205 476.171C108.992 475.75 108.886 475.254 108.886 474.683C108.886 474.122 108.992 473.63 109.205 473.206C109.421 472.78 109.721 472.448 110.107 472.212C110.493 471.972 110.946 471.853 111.467 471.853C111.803 471.853 112.121 471.907 112.419 472.016C112.72 472.123 112.985 472.288 113.214 472.513C113.446 472.738 113.629 473.025 113.761 473.373C113.894 473.718 113.96 474.13 113.96 474.609V475.003H109.489V474.136H112.728C112.726 473.89 112.672 473.671 112.568 473.479C112.464 473.285 112.318 473.132 112.131 473.021C111.947 472.91 111.731 472.854 111.485 472.854C111.222 472.854 110.991 472.918 110.793 473.046C110.594 473.172 110.439 473.337 110.327 473.543C110.218 473.747 110.163 473.971 110.16 474.214V474.971C110.16 475.288 110.218 475.56 110.334 475.788C110.45 476.012 110.613 476.185 110.821 476.306C111.029 476.424 111.273 476.484 111.553 476.484C111.74 476.484 111.909 476.457 112.06 476.405C112.212 476.351 112.343 476.272 112.455 476.167C112.566 476.063 112.65 475.934 112.707 475.78L113.907 475.915C113.831 476.233 113.687 476.51 113.474 476.746C113.263 476.981 112.993 477.163 112.664 477.293C112.335 477.421 111.959 477.485 111.535 477.485ZM116.617 477.489C116.272 477.489 115.96 477.427 115.683 477.304C115.409 477.178 115.191 476.994 115.03 476.75C114.871 476.506 114.792 476.205 114.792 475.848C114.792 475.54 114.849 475.286 114.962 475.084C115.076 474.883 115.231 474.722 115.428 474.601C115.624 474.481 115.846 474.39 116.092 474.328C116.34 474.264 116.597 474.218 116.862 474.189C117.182 474.156 117.441 474.127 117.64 474.101C117.839 474.072 117.983 474.03 118.073 473.973C118.166 473.914 118.212 473.823 118.212 473.699V473.678C118.212 473.411 118.132 473.203 117.974 473.057C117.815 472.91 117.587 472.837 117.288 472.837C116.974 472.837 116.724 472.905 116.539 473.042C116.357 473.18 116.234 473.342 116.17 473.529L114.97 473.359C115.064 473.027 115.221 472.75 115.438 472.528C115.656 472.303 115.922 472.135 116.237 472.023C116.552 471.91 116.9 471.853 117.281 471.853C117.544 471.853 117.806 471.884 118.066 471.945C118.327 472.007 118.565 472.109 118.78 472.251C118.995 472.39 119.168 472.581 119.298 472.822C119.431 473.064 119.497 473.366 119.497 473.728V477.378H118.261V476.629H118.219C118.141 476.781 118.031 476.923 117.889 477.055C117.749 477.185 117.573 477.291 117.36 477.371C117.149 477.449 116.901 477.489 116.617 477.489ZM116.951 476.544C117.209 476.544 117.433 476.493 117.622 476.391C117.812 476.287 117.957 476.15 118.059 475.979C118.163 475.809 118.215 475.623 118.215 475.422V474.779C118.175 474.812 118.106 474.843 118.009 474.871C117.915 474.9 117.808 474.925 117.69 474.946C117.571 474.967 117.454 474.986 117.338 475.003C117.222 475.019 117.122 475.033 117.036 475.045C116.845 475.071 116.673 475.114 116.521 475.173C116.37 475.232 116.25 475.315 116.163 475.422C116.075 475.526 116.031 475.661 116.031 475.827C116.031 476.063 116.118 476.242 116.291 476.363C116.463 476.484 116.684 476.544 116.951 476.544ZM123.514 471.924V472.918H120.378V471.924H123.514ZM121.152 470.617H122.438V475.738C122.438 475.911 122.464 476.043 122.516 476.136C122.57 476.225 122.641 476.287 122.729 476.32C122.816 476.353 122.913 476.37 123.02 476.37C123.101 476.37 123.174 476.364 123.24 476.352C123.309 476.34 123.361 476.33 123.396 476.32L123.613 477.325C123.544 477.349 123.446 477.375 123.318 477.403C123.193 477.432 123.039 477.448 122.857 477.453C122.535 477.462 122.245 477.414 121.987 477.307C121.729 477.198 121.524 477.03 121.372 476.803C121.223 476.576 121.15 476.292 121.152 475.951V470.617ZM126.909 477.485C126.377 477.485 125.915 477.368 125.524 477.133C125.134 476.899 124.831 476.571 124.615 476.15C124.402 475.728 124.296 475.236 124.296 474.672C124.296 474.109 124.402 473.615 124.615 473.192C124.831 472.768 125.134 472.439 125.524 472.204C125.915 471.97 126.377 471.853 126.909 471.853C127.442 471.853 127.904 471.97 128.294 472.204C128.685 472.439 128.987 472.768 129.2 473.192C129.415 473.615 129.523 474.109 129.523 474.672C129.523 475.236 129.415 475.728 129.2 476.15C128.987 476.571 128.685 476.899 128.294 477.133C127.904 477.368 127.442 477.485 126.909 477.485ZM126.917 476.455C127.205 476.455 127.447 476.376 127.641 476.217C127.835 476.056 127.979 475.841 128.074 475.571C128.171 475.301 128.22 475 128.22 474.669C128.22 474.335 128.171 474.033 128.074 473.763C127.979 473.491 127.835 473.274 127.641 473.114C127.447 472.953 127.205 472.872 126.917 472.872C126.621 472.872 126.374 472.953 126.178 473.114C125.984 473.274 125.838 473.491 125.741 473.763C125.646 474.033 125.599 474.335 125.599 474.669C125.599 475 125.646 475.301 125.741 475.571C125.838 475.841 125.984 476.056 126.178 476.217C126.374 476.376 126.621 476.455 126.917 476.455ZM130.614 477.378V471.924H131.861V472.833H131.917C132.017 472.518 132.187 472.275 132.429 472.105C132.673 471.932 132.951 471.846 133.263 471.846C133.334 471.846 133.414 471.849 133.501 471.856C133.591 471.861 133.666 471.869 133.725 471.881V473.064C133.67 473.045 133.584 473.028 133.466 473.014C133.35 472.997 133.237 472.989 133.128 472.989C132.894 472.989 132.683 473.04 132.496 473.142C132.312 473.241 132.166 473.38 132.059 473.557C131.953 473.735 131.9 473.94 131.9 474.172V477.378H130.614ZM138.89 473.366L137.718 473.493C137.685 473.375 137.627 473.264 137.544 473.16C137.464 473.056 137.355 472.971 137.217 472.908C137.08 472.844 136.912 472.812 136.713 472.812C136.446 472.812 136.221 472.87 136.038 472.986C135.859 473.102 135.77 473.252 135.772 473.437C135.77 473.595 135.828 473.724 135.946 473.824C136.067 473.923 136.266 474.005 136.543 474.069L137.473 474.268C137.989 474.379 138.373 474.555 138.624 474.797C138.877 475.038 139.005 475.354 139.007 475.745C139.005 476.088 138.904 476.391 138.705 476.654C138.509 476.914 138.235 477.118 137.885 477.265C137.535 477.412 137.132 477.485 136.678 477.485C136.01 477.485 135.473 477.345 135.065 477.066C134.658 476.784 134.416 476.392 134.337 475.89L135.591 475.77C135.648 476.016 135.769 476.202 135.953 476.327C136.138 476.453 136.378 476.515 136.674 476.515C136.98 476.515 137.225 476.453 137.409 476.327C137.596 476.202 137.69 476.047 137.69 475.862C137.69 475.706 137.629 475.577 137.509 475.475C137.39 475.373 137.206 475.295 136.955 475.241L136.024 475.045C135.501 474.936 135.114 474.753 134.863 474.495C134.612 474.234 134.488 473.905 134.49 473.508C134.488 473.172 134.579 472.88 134.764 472.634C134.951 472.386 135.21 472.194 135.541 472.059C135.875 471.922 136.26 471.853 136.695 471.853C137.335 471.853 137.838 471.989 138.205 472.261C138.574 472.533 138.802 472.902 138.89 473.366Z" fill="#222A2F"/>
<rect width="163.746" height="38.9326" transform="matrix(1 0 0 -1 37.3159 398.818)" fill="#FE7747"/>
<path d="M65.2125 376.466H63.6614C63.6017 376.134 63.4907 375.843 63.3283 375.591C63.1659 375.339 62.967 375.125 62.7317 374.949C62.4963 374.774 62.2329 374.641 61.9412 374.552C61.6528 374.462 61.3463 374.417 61.0214 374.417C60.4348 374.417 59.9095 374.565 59.4454 374.86C58.9847 375.155 58.6202 375.587 58.3517 376.157C58.0865 376.728 57.954 377.424 57.954 378.246C57.954 379.074 58.0865 379.773 58.3517 380.344C58.6202 380.914 58.9864 381.344 59.4504 381.636C59.9144 381.928 60.4364 382.074 61.0165 382.074C61.338 382.074 61.6429 382.031 61.9312 381.944C62.2229 381.855 62.4864 381.724 62.7217 381.552C62.957 381.379 63.1559 381.169 63.3183 380.92C63.484 380.668 63.5984 380.38 63.6614 380.055L65.2125 380.06C65.1296 380.561 64.9689 381.021 64.7302 381.442C64.4949 381.86 64.1917 382.221 63.8204 382.526C63.4525 382.828 63.0316 383.061 62.5577 383.227C62.0837 383.393 61.5667 383.476 61.0065 383.476C60.1249 383.476 59.3394 383.267 58.65 382.849C57.9606 382.428 57.417 381.827 57.0193 381.045C56.6249 380.262 56.4277 379.329 56.4277 378.246C56.4277 377.158 56.6266 376.225 57.0243 375.447C57.422 374.664 57.9656 374.064 58.655 373.647C59.3444 373.226 60.1282 373.015 61.0065 373.015C61.5468 373.015 62.0506 373.093 62.5179 373.249C62.9885 373.402 63.4111 373.627 63.7856 373.925C64.1602 374.22 64.4701 374.581 64.7153 375.009C64.9606 375.433 65.1263 375.919 65.2125 376.466ZM70.148 383.491C69.4321 383.491 68.8074 383.326 68.2737 382.998C67.7401 382.67 67.3258 382.211 67.0309 381.621C66.7359 381.031 66.5884 380.342 66.5884 379.553C66.5884 378.761 66.7359 378.068 67.0309 377.475C67.3258 376.882 67.7401 376.421 68.2737 376.093C68.8074 375.765 69.4321 375.601 70.148 375.601C70.8639 375.601 71.4887 375.765 72.0223 376.093C72.5559 376.421 72.9702 376.882 73.2652 377.475C73.5602 378.068 73.7077 378.761 73.7077 379.553C73.7077 380.342 73.5602 381.031 73.2652 381.621C72.9702 382.211 72.5559 382.67 72.0223 382.998C71.4887 383.326 70.8639 383.491 70.148 383.491ZM70.153 382.243C70.617 382.243 71.0015 382.12 71.3064 381.875C71.6113 381.63 71.8367 381.303 71.9826 380.895C72.1317 380.488 72.2063 380.039 72.2063 379.548C72.2063 379.061 72.1317 378.613 71.9826 378.206C71.8367 377.795 71.6113 377.465 71.3064 377.216C71.0015 376.968 70.617 376.844 70.153 376.844C69.6857 376.844 69.2979 376.968 68.9897 377.216C68.6847 377.465 68.4577 377.795 68.3085 378.206C68.1627 378.613 68.0898 379.061 68.0898 379.548C68.0898 380.039 68.1627 380.488 68.3085 380.895C68.4577 381.303 68.6847 381.63 68.9897 381.875C69.2979 382.12 69.6857 382.243 70.153 382.243ZM76.8535 378.802V383.336H75.367V375.7H76.7938V376.943H76.8883C77.0639 376.539 77.339 376.214 77.7136 375.969C78.0914 375.723 78.567 375.601 79.1404 375.601C79.6608 375.601 80.1165 375.71 80.5076 375.929C80.8987 376.144 81.202 376.466 81.4174 376.893C81.6328 377.321 81.7405 377.849 81.7405 378.479V383.336H80.254V378.658C80.254 378.105 80.1099 377.672 79.8215 377.361C79.5332 377.046 79.1371 376.888 78.6333 376.888C78.2886 376.888 77.982 376.963 77.7136 377.112C77.4484 377.261 77.2379 377.48 77.0822 377.768C76.9297 378.053 76.8535 378.398 76.8535 378.802ZM87.2988 375.7V376.893H83.1276V375.7H87.2988ZM84.2462 373.871H85.7327V381.094C85.7327 381.383 85.7758 381.6 85.862 381.746C85.9482 381.888 86.0592 381.986 86.1951 382.039C86.3343 382.089 86.4851 382.113 86.6475 382.113C86.7668 382.113 86.8712 382.105 86.9607 382.089C87.0502 382.072 87.1198 382.059 87.1695 382.049L87.438 383.277C87.3518 383.31 87.2292 383.343 87.0701 383.376C86.911 383.413 86.7121 383.433 86.4735 383.436C86.0824 383.442 85.7178 383.373 85.3797 383.227C85.0417 383.081 84.7682 382.856 84.5594 382.551C84.3506 382.246 84.2462 381.863 84.2462 381.402V373.871ZM92.1523 383.491C91.3999 383.491 90.752 383.33 90.2084 383.008C89.6682 382.683 89.2505 382.228 88.9556 381.641C88.6639 381.051 88.5181 380.36 88.5181 379.568C88.5181 378.786 88.6639 378.096 88.9556 377.5C89.2505 376.903 89.6615 376.438 90.1885 376.103C90.7188 375.768 91.3386 375.601 92.0479 375.601C92.4788 375.601 92.8964 375.672 93.3007 375.814C93.7051 375.957 94.068 376.181 94.3895 376.486C94.711 376.79 94.9646 377.187 95.1502 377.674C95.3358 378.158 95.4286 378.746 95.4286 379.439V379.966H89.3583V378.852H93.9719C93.9719 378.461 93.8924 378.115 93.7333 377.813C93.5742 377.508 93.3505 377.268 93.0621 377.092C92.7771 376.916 92.4423 376.829 92.0578 376.829C91.6402 376.829 91.2756 376.931 90.9641 377.137C90.6559 377.339 90.4172 377.604 90.2482 377.932C90.0825 378.257 89.9996 378.61 89.9996 378.991V379.861C89.9996 380.372 90.0891 380.806 90.2681 381.164C90.4504 381.522 90.7039 381.795 91.0287 381.984C91.3535 382.17 91.733 382.263 92.1672 382.263C92.4489 382.263 92.7058 382.223 92.9378 382.143C93.1698 382.06 93.3703 381.938 93.5394 381.775C93.7084 381.613 93.8377 381.412 93.9272 381.174L95.3341 381.427C95.2214 381.842 95.0193 382.205 94.7276 382.516C94.4392 382.824 94.0763 383.065 93.6388 383.237C93.2046 383.406 92.7091 383.491 92.1523 383.491ZM98.5644 378.802V383.336H97.0779V375.7H98.5047V376.943H98.5992C98.7749 376.539 99.05 376.214 99.4245 375.969C99.8023 375.723 100.278 375.601 100.851 375.601C101.372 375.601 101.827 375.71 102.219 375.929C102.61 376.144 102.913 376.466 103.128 376.893C103.344 377.321 103.451 377.849 103.451 378.479V383.336H101.965V378.658C101.965 378.105 101.821 377.672 101.532 377.361C101.244 377.046 100.848 376.888 100.344 376.888C99.9995 376.888 99.693 376.963 99.4245 377.112C99.1593 377.261 98.9489 377.48 98.7931 377.768C98.6406 378.053 98.5644 378.398 98.5644 378.802ZM109.01 375.7V376.893H104.839V375.7H109.01ZM105.957 373.871H107.444V381.094C107.444 381.383 107.487 381.6 107.573 381.746C107.659 381.888 107.77 381.986 107.906 382.039C108.045 382.089 108.196 382.113 108.358 382.113C108.478 382.113 108.582 382.105 108.672 382.089C108.761 382.072 108.831 382.059 108.88 382.049L109.149 383.277C109.063 383.31 108.94 383.343 108.781 383.376C108.622 383.413 108.423 383.433 108.184 383.436C107.793 383.442 107.429 383.373 107.091 383.227C106.753 383.081 106.479 382.856 106.27 382.551C106.062 382.246 105.957 381.863 105.957 381.402V373.871ZM122.935 376.466H121.384C121.324 376.134 121.213 375.843 121.051 375.591C120.889 375.339 120.69 375.125 120.454 374.949C120.219 374.774 119.956 374.641 119.664 374.552C119.375 374.462 119.069 374.417 118.744 374.417C118.157 374.417 117.632 374.565 117.168 374.86C116.707 375.155 116.343 375.587 116.074 376.157C115.809 376.728 115.677 377.424 115.677 378.246C115.677 379.074 115.809 379.773 116.074 380.344C116.343 380.914 116.709 381.344 117.173 381.636C117.637 381.928 118.159 382.074 118.739 382.074C119.061 382.074 119.366 382.031 119.654 381.944C119.946 381.855 120.209 381.724 120.444 381.552C120.68 381.379 120.879 381.169 121.041 380.92C121.207 380.668 121.321 380.38 121.384 380.055L122.935 380.06C122.852 380.561 122.692 381.021 122.453 381.442C122.218 381.86 121.914 382.221 121.543 382.526C121.175 382.828 120.754 383.061 120.28 383.227C119.806 383.393 119.289 383.476 118.729 383.476C117.848 383.476 117.062 383.267 116.373 382.849C115.683 382.428 115.14 381.827 114.742 381.045C114.348 380.262 114.15 379.329 114.15 378.246C114.15 377.158 114.349 376.225 114.747 375.447C115.145 374.664 115.688 374.064 116.378 373.647C117.067 373.226 117.851 373.015 118.729 373.015C119.269 373.015 119.773 373.093 120.241 373.249C120.711 373.402 121.134 373.627 121.508 373.925C121.883 374.22 122.193 374.581 122.438 375.009C122.683 375.433 122.849 375.919 122.935 376.466ZM124.654 383.336V375.7H126.091V376.913H126.17C126.31 376.502 126.555 376.179 126.906 375.944C127.261 375.705 127.662 375.586 128.109 375.586C128.202 375.586 128.312 375.589 128.437 375.596C128.567 375.602 128.668 375.611 128.741 375.621V377.042C128.681 377.026 128.575 377.008 128.423 376.988C128.27 376.965 128.118 376.953 127.965 376.953C127.614 376.953 127.301 377.027 127.026 377.177C126.754 377.322 126.538 377.526 126.379 377.788C126.22 378.047 126.141 378.342 126.141 378.673V383.336H124.654ZM133.045 383.491C132.293 383.491 131.645 383.33 131.101 383.008C130.561 382.683 130.143 382.228 129.848 381.641C129.556 381.051 129.411 380.36 129.411 379.568C129.411 378.786 129.556 378.096 129.848 377.5C130.143 376.903 130.554 376.438 131.081 376.103C131.611 375.768 132.231 375.601 132.94 375.601C133.371 375.601 133.789 375.672 134.193 375.814C134.598 375.957 134.961 376.181 135.282 376.486C135.604 376.79 135.857 377.187 136.043 377.674C136.228 378.158 136.321 378.746 136.321 379.439V379.966H130.251V378.852H134.864C134.864 378.461 134.785 378.115 134.626 377.813C134.467 377.508 134.243 377.268 133.955 377.092C133.67 376.916 133.335 376.829 132.95 376.829C132.533 376.829 132.168 376.931 131.857 377.137C131.548 377.339 131.31 377.604 131.141 377.932C130.975 378.257 130.892 378.61 130.892 378.991V379.861C130.892 380.372 130.982 380.806 131.161 381.164C131.343 381.522 131.596 381.795 131.921 381.984C132.246 382.17 132.626 382.263 133.06 382.263C133.342 382.263 133.598 382.223 133.83 382.143C134.062 382.06 134.263 381.938 134.432 381.775C134.601 381.613 134.73 381.412 134.82 381.174L136.227 381.427C136.114 381.842 135.912 382.205 135.62 382.516C135.332 382.824 134.969 383.065 134.531 383.237C134.097 383.406 133.602 383.491 133.045 383.491ZM140.193 383.505C139.709 383.505 139.271 383.416 138.88 383.237C138.489 383.055 138.179 382.791 137.951 382.447C137.725 382.102 137.613 381.679 137.613 381.179C137.613 380.748 137.695 380.393 137.861 380.115C138.027 379.836 138.251 379.616 138.532 379.454C138.814 379.291 139.129 379.169 139.477 379.086C139.825 379.003 140.18 378.94 140.541 378.897C140.998 378.844 141.369 378.801 141.654 378.768C141.939 378.731 142.147 378.673 142.276 378.594C142.405 378.514 142.47 378.385 142.47 378.206V378.171C142.47 377.737 142.347 377.4 142.102 377.162C141.86 376.923 141.499 376.804 141.018 376.804C140.518 376.804 140.123 376.915 139.835 377.137C139.55 377.356 139.353 377.599 139.243 377.868L137.846 377.549C138.012 377.085 138.254 376.711 138.572 376.426C138.894 376.138 139.263 375.929 139.681 375.799C140.098 375.667 140.537 375.601 140.998 375.601C141.303 375.601 141.626 375.637 141.968 375.71C142.312 375.78 142.634 375.909 142.932 376.098C143.234 376.287 143.481 376.557 143.673 376.908C143.865 377.256 143.961 377.709 143.961 378.265V383.336H142.51V382.292H142.45C142.354 382.485 142.21 382.674 142.017 382.859C141.825 383.045 141.578 383.199 141.277 383.322C140.975 383.444 140.614 383.505 140.193 383.505ZM140.516 382.312C140.927 382.312 141.278 382.231 141.57 382.069C141.865 381.906 142.089 381.694 142.241 381.432C142.397 381.167 142.475 380.884 142.475 380.582V379.598C142.422 379.651 142.319 379.701 142.167 379.747C142.017 379.79 141.847 379.828 141.654 379.861C141.462 379.891 141.275 379.919 141.093 379.946C140.91 379.969 140.758 379.989 140.635 380.005C140.347 380.042 140.083 380.103 139.845 380.189C139.609 380.276 139.421 380.4 139.278 380.562C139.139 380.721 139.069 380.933 139.069 381.199C139.069 381.567 139.205 381.845 139.477 382.034C139.749 382.219 140.095 382.312 140.516 382.312ZM149.506 375.7V376.893H145.335V375.7H149.506ZM146.453 373.871H147.94V381.094C147.94 381.383 147.983 381.6 148.069 381.746C148.155 381.888 148.266 381.986 148.402 382.039C148.541 382.089 148.692 382.113 148.855 382.113C148.974 382.113 149.078 382.105 149.168 382.089C149.257 382.072 149.327 382.059 149.377 382.049L149.645 383.277C149.559 383.31 149.436 383.343 149.277 383.376C149.118 383.413 148.919 383.433 148.681 383.436C148.289 383.442 147.925 383.373 147.587 383.227C147.249 383.081 146.975 382.856 146.766 382.551C146.558 382.246 146.453 381.863 146.453 381.402V373.871ZM154.285 383.491C153.569 383.491 152.944 383.326 152.41 382.998C151.877 382.67 151.463 382.211 151.168 381.621C150.873 381.031 150.725 380.342 150.725 379.553C150.725 378.761 150.873 378.068 151.168 377.475C151.463 376.882 151.877 376.421 152.41 376.093C152.944 375.765 153.569 375.601 154.285 375.601C155.001 375.601 155.625 375.765 156.159 376.093C156.693 376.421 157.107 376.882 157.402 377.475C157.697 378.068 157.844 378.761 157.844 379.553C157.844 380.342 157.697 381.031 157.402 381.621C157.107 382.211 156.693 382.67 156.159 382.998C155.625 383.326 155.001 383.491 154.285 383.491ZM154.29 382.243C154.754 382.243 155.138 382.12 155.443 381.875C155.748 381.63 155.973 381.303 156.119 380.895C156.268 380.488 156.343 380.039 156.343 379.548C156.343 379.061 156.268 378.613 156.119 378.206C155.973 377.795 155.748 377.465 155.443 377.216C155.138 376.968 154.754 376.844 154.29 376.844C153.822 376.844 153.435 376.968 153.126 377.216C152.821 377.465 152.594 377.795 152.445 378.206C152.299 378.613 152.227 379.061 152.227 379.548C152.227 380.039 152.299 380.488 152.445 380.895C152.594 381.303 152.821 381.63 153.126 381.875C153.435 382.12 153.822 382.243 154.29 382.243ZM159.504 383.336V375.7H160.94V376.913H161.02C161.159 376.502 161.404 376.179 161.756 375.944C162.11 375.705 162.511 375.586 162.959 375.586C163.052 375.586 163.161 375.589 163.287 375.596C163.416 375.602 163.517 375.611 163.59 375.621V377.042C163.531 377.026 163.425 377.008 163.272 376.988C163.12 376.965 162.967 376.953 162.815 376.953C162.463 376.953 162.15 377.027 161.875 377.177C161.603 377.322 161.388 377.526 161.229 377.788C161.07 378.047 160.99 378.342 160.99 378.673V383.336H159.504ZM170.599 377.564L169.252 377.803C169.195 377.631 169.106 377.467 168.983 377.311C168.864 377.155 168.702 377.027 168.496 376.928C168.291 376.829 168.034 376.779 167.725 376.779C167.305 376.779 166.953 376.873 166.671 377.062C166.39 377.248 166.249 377.488 166.249 377.783C166.249 378.038 166.343 378.244 166.532 378.4C166.721 378.555 167.026 378.683 167.447 378.782L168.66 379.061C169.363 379.223 169.886 379.473 170.231 379.812C170.576 380.15 170.748 380.589 170.748 381.129C170.748 381.586 170.616 381.994 170.35 382.352C170.089 382.707 169.722 382.985 169.252 383.187C168.784 383.389 168.242 383.491 167.626 383.491C166.771 383.491 166.073 383.308 165.533 382.944C164.993 382.576 164.661 382.054 164.539 381.378L165.975 381.159C166.065 381.533 166.249 381.817 166.527 382.009C166.806 382.198 167.169 382.292 167.616 382.292C168.103 382.292 168.493 382.191 168.784 381.989C169.076 381.784 169.222 381.533 169.222 381.238C169.222 381 169.132 380.799 168.953 380.637C168.778 380.474 168.508 380.352 168.143 380.269L166.85 379.986C166.138 379.823 165.611 379.565 165.269 379.21C164.931 378.855 164.762 378.406 164.762 377.863C164.762 377.412 164.888 377.018 165.14 376.679C165.392 376.341 165.74 376.078 166.184 375.889C166.628 375.697 167.137 375.601 167.711 375.601C168.536 375.601 169.185 375.78 169.659 376.138C170.133 376.492 170.447 376.968 170.599 377.564Z" fill="white"/>
<rect x="0.67334" y="0.331543" width="439.71" height="82.4456" fill="#FE7747"/>
<path d="M39.2534 31.8135H41.5659L47.0034 45.0947H47.1909L52.6284 31.8135H54.9409V47.8135H53.1284V35.6572H52.9722L47.9722 47.8135H46.2222L41.2222 35.6572H41.0659V47.8135H39.2534V31.8135ZM63.6069 48.0635C62.4507 48.0635 61.4533 47.8083 60.6147 47.2979C59.7814 46.7822 59.1382 46.0635 58.6851 45.1416C58.2371 44.2145 58.0132 43.1364 58.0132 41.9072C58.0132 40.6781 58.2371 39.5947 58.6851 38.6572C59.1382 37.7145 59.7684 36.9801 60.5757 36.4541C61.3882 35.9229 62.3361 35.6572 63.4194 35.6572C64.0444 35.6572 64.6616 35.7614 65.271 35.9697C65.8804 36.1781 66.4351 36.5166 66.9351 36.9854C67.4351 37.4489 67.8335 38.0635 68.1304 38.8291C68.4272 39.5947 68.5757 40.5374 68.5757 41.6572V42.4385H59.3257V40.8447H66.7007C66.7007 40.1676 66.5653 39.5635 66.2944 39.0322C66.0288 38.501 65.6486 38.0817 65.1538 37.7744C64.6642 37.4671 64.0861 37.3135 63.4194 37.3135C62.6851 37.3135 62.0496 37.4958 61.5132 37.8604C60.9819 38.2197 60.5731 38.6885 60.2866 39.2666C60.0002 39.8447 59.8569 40.4645 59.8569 41.126V42.1885C59.8569 43.0947 60.0132 43.863 60.3257 44.4932C60.6434 45.1182 61.0835 45.5947 61.646 45.9229C62.2085 46.2458 62.8621 46.4072 63.6069 46.4072C64.0913 46.4072 64.5288 46.3395 64.9194 46.2041C65.3153 46.0635 65.6564 45.8551 65.9429 45.5791C66.2293 45.2979 66.4507 44.9489 66.6069 44.5322L68.3882 45.0322C68.2007 45.6364 67.8856 46.1676 67.4429 46.626C67.0002 47.0791 66.4533 47.4333 65.8022 47.6885C65.1512 47.9385 64.4194 48.0635 63.6069 48.0635ZM76.5991 35.8135V37.376H70.3804V35.8135H76.5991ZM72.1929 32.9385H74.0366V44.376C74.0366 44.8968 74.1121 45.2874 74.2632 45.5479C74.4194 45.8031 74.6174 45.9749 74.8569 46.0635C75.1017 46.1468 75.3595 46.1885 75.6304 46.1885C75.8335 46.1885 76.0002 46.1781 76.1304 46.1572C76.2606 46.1312 76.3647 46.1104 76.4429 46.0947L76.8179 47.751C76.6929 47.7979 76.5184 47.8447 76.2944 47.8916C76.0705 47.9437 75.7866 47.9697 75.4429 47.9697C74.922 47.9697 74.4116 47.8577 73.9116 47.6338C73.4168 47.4098 73.0054 47.0687 72.6772 46.6104C72.3543 46.152 72.1929 45.5739 72.1929 44.876V32.9385ZM81.4741 40.5947V47.8135H79.6304V31.8135H81.4741V37.6885H81.6304C81.9116 37.0687 82.3335 36.5765 82.896 36.2119C83.4637 35.8421 84.2189 35.6572 85.1616 35.6572C85.9793 35.6572 86.6955 35.8213 87.3101 36.1494C87.9246 36.4723 88.4012 36.9697 88.7397 37.6416C89.0835 38.3083 89.2554 39.1572 89.2554 40.1885V47.8135H87.4116V40.3135C87.4116 39.3604 87.1642 38.6234 86.6694 38.1025C86.1799 37.5765 85.5002 37.3135 84.6304 37.3135C84.0262 37.3135 83.4845 37.4411 83.0054 37.6963C82.5314 37.9515 82.1564 38.3239 81.8804 38.8135C81.6095 39.3031 81.4741 39.8968 81.4741 40.5947ZM97.5034 48.0635C96.4201 48.0635 95.4696 47.8057 94.6519 47.29C93.8394 46.7744 93.2039 46.0531 92.7456 45.126C92.2925 44.1989 92.0659 43.1156 92.0659 41.876C92.0659 40.626 92.2925 39.5348 92.7456 38.6025C93.2039 37.6702 93.8394 36.9463 94.6519 36.4307C95.4696 35.915 96.4201 35.6572 97.5034 35.6572C98.5868 35.6572 99.5347 35.915 100.347 36.4307C101.165 36.9463 101.8 37.6702 102.253 38.6025C102.712 39.5348 102.941 40.626 102.941 41.876C102.941 43.1156 102.712 44.1989 102.253 45.126C101.8 46.0531 101.165 46.7744 100.347 47.29C99.5347 47.8057 98.5868 48.0635 97.5034 48.0635ZM97.5034 46.4072C98.3263 46.4072 99.0034 46.1963 99.5347 45.7744C100.066 45.3525 100.459 44.7979 100.714 44.1104C100.97 43.4229 101.097 42.6781 101.097 41.876C101.097 41.0739 100.97 40.3265 100.714 39.6338C100.459 38.9411 100.066 38.3812 99.5347 37.9541C99.0034 37.527 98.3263 37.3135 97.5034 37.3135C96.6805 37.3135 96.0034 37.527 95.4722 37.9541C94.9409 38.3812 94.5477 38.9411 94.2925 39.6338C94.0373 40.3265 93.9097 41.0739 93.9097 41.876C93.9097 42.6781 94.0373 43.4229 94.2925 44.1104C94.5477 44.7979 94.9409 45.3525 95.4722 45.7744C96.0034 46.1963 96.6805 46.4072 97.5034 46.4072ZM110.287 48.0635C109.287 48.0635 108.404 47.8109 107.638 47.3057C106.873 46.7952 106.274 46.0765 105.841 45.1494C105.409 44.2171 105.193 43.1156 105.193 41.8447C105.193 40.5843 105.409 39.4906 105.841 38.5635C106.274 37.6364 106.875 36.9202 107.646 36.415C108.417 35.9098 109.307 35.6572 110.318 35.6572C111.099 35.6572 111.716 35.7874 112.169 36.0479C112.628 36.3031 112.977 36.5947 113.216 36.9229C113.461 37.2458 113.651 37.5114 113.787 37.7197H113.943V31.8135H115.787V47.8135H114.005V45.9697H113.787C113.651 46.1885 113.458 46.4645 113.208 46.7979C112.958 47.126 112.602 47.4202 112.138 47.6807C111.675 47.9359 111.057 48.0635 110.287 48.0635ZM110.537 46.4072C111.276 46.4072 111.901 46.2145 112.412 45.8291C112.922 45.4385 113.31 44.8994 113.576 44.2119C113.841 43.5192 113.974 42.7197 113.974 41.8135C113.974 40.9176 113.844 40.1338 113.583 39.4619C113.323 38.7848 112.938 38.2588 112.427 37.8838C111.917 37.5036 111.287 37.3135 110.537 37.3135C109.755 37.3135 109.104 37.514 108.583 37.915C108.068 38.3109 107.68 38.8499 107.419 39.5322C107.164 40.2093 107.037 40.9697 107.037 41.8135C107.037 42.6676 107.167 43.4437 107.427 44.1416C107.693 44.8343 108.083 45.3864 108.599 45.7979C109.12 46.2041 109.766 46.4072 110.537 46.4072ZM127.919 38.501L126.263 38.9697C126.159 38.6937 126.005 38.4255 125.802 38.165C125.604 37.8994 125.333 37.6807 124.99 37.5088C124.646 37.3369 124.206 37.251 123.669 37.251C122.935 37.251 122.323 37.4202 121.833 37.7588C121.349 38.0921 121.107 38.5166 121.107 39.0322C121.107 39.4906 121.274 39.8525 121.607 40.1182C121.94 40.3838 122.461 40.6051 123.169 40.7822L124.951 41.2197C126.024 41.4801 126.823 41.8786 127.349 42.415C127.875 42.9463 128.138 43.6312 128.138 44.4697C128.138 45.1572 127.94 45.7718 127.544 46.3135C127.154 46.8551 126.607 47.2822 125.904 47.5947C125.201 47.9072 124.383 48.0635 123.451 48.0635C122.227 48.0635 121.214 47.7979 120.412 47.2666C119.61 46.7354 119.102 45.9593 118.888 44.9385L120.638 44.501C120.805 45.1468 121.12 45.6312 121.583 45.9541C122.052 46.277 122.664 46.4385 123.419 46.4385C124.279 46.4385 124.961 46.2562 125.466 45.8916C125.977 45.5218 126.232 45.0791 126.232 44.5635C126.232 44.1468 126.086 43.7979 125.794 43.5166C125.503 43.2301 125.055 43.0166 124.451 42.876L122.451 42.4072C121.352 42.1468 120.544 41.7432 120.029 41.1963C119.518 40.6442 119.263 39.9541 119.263 39.126C119.263 38.4489 119.453 37.8499 119.833 37.3291C120.219 36.8083 120.742 36.3994 121.404 36.1025C122.07 35.8057 122.826 35.6572 123.669 35.6572C124.857 35.6572 125.789 35.9176 126.466 36.4385C127.149 36.9593 127.633 37.6468 127.919 38.501Z" fill="white"/>
<path d="M398.731 35.1133L385.849 47.9954" stroke="white" stroke-width="2" stroke-linecap="round" stroke-linejoin="round"/>
<path d="M398.731 47.9954L385.849 35.1133" stroke="white" stroke-width="2" stroke-linecap="round" stroke-linejoin="round"/>
</svg>
