<svg width="519" height="644" viewBox="0 0 519 644" fill="none" xmlns="http://www.w3.org/2000/svg">
<g filter="url(#filter0_d_194_649)">
<rect x="39.6733" y="63.3315" width="439.71" height="565.668" fill="#FFFEFF"/>
</g>
<rect width="125.959" height="38.9326" transform="matrix(1 0 0 -1 317 212.191)" fill="#FE7747"/>
<path d="M348.343 192.575H349.281V193.709H348.217C347.461 193.709 346.859 193.476 346.411 193.009C345.973 193.457 345.352 193.691 344.549 193.709H342.715C341.801 193.709 341.343 194.176 341.343 195.109V197.475L340.139 198.119V195.067C340.139 194.293 340.363 193.681 340.811 193.233C341.213 192.823 341.745 192.603 342.407 192.575C342.071 192.034 341.903 191.371 341.903 190.587C341.903 189.57 342.169 188.777 342.701 188.207C343.177 187.703 343.803 187.451 344.577 187.451C345.371 187.451 345.982 187.699 346.411 188.193C346.794 188.632 346.985 189.206 346.985 189.915V191.175C346.985 192.109 347.438 192.575 348.343 192.575ZM345.781 191.273V189.971C345.781 189.038 345.38 188.571 344.577 188.571C344.111 188.571 343.747 188.749 343.485 189.103C343.233 189.449 343.107 189.934 343.107 190.559C343.107 191.194 343.229 191.689 343.471 192.043C343.714 192.398 344.055 192.575 344.493 192.575C345.352 192.575 345.781 192.141 345.781 191.273ZM356.135 184.651C355.725 184.651 355.519 184.441 355.519 184.021C355.519 183.611 355.725 183.405 356.135 183.405C356.546 183.405 356.751 183.611 356.751 184.021C356.751 184.441 356.546 184.651 356.135 184.651ZM355.253 186.317C354.796 186.317 354.567 186.084 354.567 185.617C354.567 185.16 354.796 184.931 355.253 184.931C355.701 184.931 355.925 185.16 355.925 185.617C355.925 186.084 355.701 186.317 355.253 186.317ZM357.031 186.317C356.574 186.317 356.345 186.084 356.345 185.617C356.345 185.16 356.574 184.931 357.031 184.931C357.479 184.931 357.703 185.16 357.703 185.617C357.703 186.084 357.479 186.317 357.031 186.317ZM348.435 193.709V192.575H349.695C350.601 192.575 351.053 192.109 351.053 191.175V189.215L352.257 188.571V191.175C352.257 192.109 352.715 192.575 353.629 192.575H354.273C355.188 192.575 355.645 192.109 355.645 191.175V188.739L356.849 188.109V191.175C356.849 192.109 357.302 192.575 358.207 192.575H358.865C359.78 192.575 360.237 192.109 360.237 191.175V188.277L361.441 187.633V191.217C361.441 192.011 361.203 192.631 360.727 193.079C360.307 193.49 359.747 193.7 359.047 193.709H358.081C357.26 193.709 356.649 193.434 356.247 192.883C355.846 193.425 355.249 193.7 354.455 193.709H353.489C352.687 193.709 352.075 193.434 351.655 192.883C351.254 193.434 350.643 193.709 349.821 193.709H348.435ZM366.037 192.967C366.037 194.013 365.762 194.853 365.211 195.487C364.688 196.094 363.993 196.397 363.125 196.397C362.565 196.397 362.019 196.257 361.487 195.977V194.927C361.963 195.189 362.439 195.319 362.915 195.319C363.512 195.319 363.979 195.119 364.315 194.717C364.651 194.316 364.819 193.761 364.819 193.051V188.277L366.037 187.633V192.967ZM375.097 192.575V193.709H373.361C373.323 194.512 372.978 195.175 372.325 195.697C371.774 196.127 371.149 196.341 370.449 196.341C369.87 196.341 369.324 196.206 368.811 195.935V194.871C369.305 195.133 369.795 195.263 370.281 195.263C370.775 195.263 371.205 195.109 371.569 194.801C371.942 194.493 372.133 194.125 372.143 193.695C371.657 193.677 371.298 193.658 371.065 193.639C370.057 193.583 369.296 193.243 368.783 192.617C368.353 192.095 368.139 191.418 368.139 190.587C368.139 189.57 368.409 188.777 368.951 188.207C369.436 187.703 370.075 187.451 370.869 187.451C371.699 187.451 372.339 187.699 372.787 188.193C373.169 188.632 373.361 189.206 373.361 189.915V192.575H375.097ZM372.143 189.999C372.143 189.047 371.718 188.571 370.869 188.571C370.383 188.571 370.005 188.749 369.735 189.103C369.464 189.449 369.329 189.934 369.329 190.559C369.329 191.782 369.926 192.431 371.121 192.505C371.345 192.533 371.685 192.557 372.143 192.575V189.999ZM381.807 192.575V193.709H374.261V192.575H376.683C376.226 191.987 375.997 191.264 375.997 190.405C375.997 189.453 376.324 188.697 376.977 188.137C377.509 187.689 378.125 187.461 378.825 187.451C379.815 187.451 380.585 187.848 381.135 188.641V189.775C380.538 188.973 379.815 188.571 378.965 188.571C378.433 188.571 378.004 188.744 377.677 189.089C377.36 189.425 377.201 189.878 377.201 190.447C377.201 191.091 377.393 191.609 377.775 192.001C378.167 192.384 378.685 192.575 379.329 192.575H381.807ZM386.049 198.119V195.067C386.049 194.274 386.278 193.658 386.735 193.219C387.146 192.818 387.715 192.603 388.443 192.575C388.023 192.099 387.813 191.437 387.813 190.587C387.813 189.57 388.079 188.777 388.611 188.207C389.087 187.703 389.713 187.451 390.487 187.451C391.281 187.451 391.892 187.699 392.321 188.193C392.704 188.632 392.895 189.206 392.895 189.915V191.427C392.886 192.127 392.667 192.678 392.237 193.079C391.808 193.481 391.215 193.691 390.459 193.709H388.625C387.711 193.709 387.253 194.176 387.253 195.109V197.475L386.049 198.119ZM391.691 189.971C391.691 189.038 391.29 188.571 390.487 188.571C390.021 188.571 389.657 188.749 389.395 189.103C389.143 189.449 389.017 189.934 389.017 190.559C389.017 191.194 389.139 191.689 389.381 192.043C389.624 192.398 389.965 192.575 390.403 192.575C391.262 192.575 391.691 192.141 391.691 191.273V189.971ZM394.154 193.709L394.742 192.575H397.234C397.607 192.575 397.868 192.482 398.018 192.295C398.176 192.109 398.256 191.787 398.256 191.329C398.256 190.079 397.691 189.131 396.562 188.487L397.15 187.493C398.69 188.371 399.46 189.654 399.46 191.343C399.46 192.921 398.788 193.709 397.444 193.709H394.154ZM408.237 192.575V193.709H406.501C406.464 194.512 406.119 195.175 405.465 195.697C404.915 196.127 404.289 196.341 403.589 196.341C403.011 196.341 402.465 196.206 401.951 195.935V194.871C402.446 195.133 402.936 195.263 403.421 195.263C403.916 195.263 404.345 195.109 404.709 194.801C405.083 194.493 405.274 194.125 405.283 193.695C404.798 193.677 404.439 193.658 404.205 193.639C403.197 193.583 402.437 193.243 401.923 192.617C401.494 192.095 401.279 191.418 401.279 190.587C401.279 189.57 401.55 188.777 402.091 188.207C402.577 187.703 403.216 187.451 404.009 187.451C404.84 187.451 405.479 187.699 405.927 188.193C406.31 188.632 406.501 189.206 406.501 189.915V192.575H408.237ZM405.283 189.999C405.283 189.047 404.859 188.571 404.009 188.571C403.524 188.571 403.146 188.749 402.875 189.103C402.605 189.449 402.469 189.934 402.469 190.559C402.469 191.782 403.067 192.431 404.261 192.505C404.485 192.533 404.826 192.557 405.283 192.575V189.999ZM410.258 185.939C409.801 185.939 409.572 185.706 409.572 185.239C409.572 184.782 409.801 184.553 410.258 184.553C410.706 184.553 410.93 184.782 410.93 185.239C410.93 185.706 410.706 185.939 410.258 185.939ZM407.402 193.709V192.575H408.326C409.241 192.575 409.698 192.109 409.698 191.175V188.277L410.902 187.633V191.217C410.902 192.011 410.664 192.636 410.188 193.093C409.749 193.504 409.175 193.709 408.466 193.709H407.402ZM414.872 185.799C414.415 185.799 414.186 185.566 414.186 185.099C414.186 184.642 414.415 184.413 414.872 184.413C415.32 184.413 415.544 184.642 415.544 185.099C415.544 185.566 415.32 185.799 414.872 185.799ZM416.664 185.799C416.207 185.799 415.978 185.566 415.978 185.099C415.978 184.642 416.207 184.413 416.664 184.413C417.112 184.413 417.336 184.642 417.336 185.099C417.336 185.566 417.112 185.799 416.664 185.799ZM415.782 193.709C414.933 193.709 414.27 193.425 413.794 192.855C413.383 192.361 413.178 191.731 413.178 190.965C413.178 190.135 413.407 189.416 413.864 188.809C414.331 188.193 414.993 187.741 415.852 187.451C416.757 187.759 417.439 188.245 417.896 188.907C418.307 189.495 418.512 190.181 418.512 190.965C418.512 191.852 418.251 192.547 417.728 193.051C417.261 193.49 416.659 193.709 415.922 193.709H415.782ZM415.74 192.575H415.95C416.37 192.575 416.701 192.431 416.944 192.141C417.196 191.852 417.322 191.465 417.322 190.979C417.322 189.859 416.832 189.057 415.852 188.571C414.872 189.057 414.382 189.855 414.382 190.965C414.382 191.46 414.503 191.852 414.746 192.141C414.989 192.431 415.32 192.575 415.74 192.575Z" fill="white"/>
<rect x="76.3159" y="212.191" width="366.425" height="167.181" fill="#F5F5F5"/>
<rect x="76.3159" y="212.191" width="366.425" height="6.87047" fill="#FE7747"/>
<rect x="172" y="308.378" width="251.917" height="13.7409" fill="#E7E9ED"/>
<rect x="214" y="331.279" width="209.549" height="13.7409" fill="#E6E8EC"/>
<path d="M325 250.118C327.29 251.228 328.435 252.893 329.294 254.559C330.439 251.783 334.161 246.509 338.741 245.398" stroke="#F3B545" stroke-width="1.5" stroke-linecap="round" stroke-linejoin="round"/>
<path d="M362.847 244.616C362.607 244.616 362.415 244.544 362.271 244.4C362.127 244.256 362.055 244.06 362.055 243.812C362.055 243.58 362.127 243.392 362.271 243.248C362.415 243.104 362.607 243.032 362.847 243.032C363.087 243.032 363.275 243.104 363.411 243.248C363.555 243.384 363.627 243.572 363.627 243.812C363.627 244.348 363.367 244.616 362.847 244.616ZM357.543 251C356.791 251 356.195 250.744 355.755 250.232C355.379 249.784 355.191 249.216 355.191 248.528V247.316L356.703 246.512V248.432C356.703 248.84 356.779 249.128 356.931 249.296C357.083 249.464 357.343 249.548 357.711 249.548H360.687C360.447 249.212 360.327 248.772 360.327 248.228C360.327 247.348 360.567 246.652 361.047 246.14C361.471 245.692 362.031 245.468 362.727 245.468C363.439 245.468 363.995 245.696 364.395 246.152C364.739 246.544 364.911 247.056 364.911 247.688V248.768C364.911 249.456 364.707 250.004 364.299 250.412C363.899 250.804 363.367 251 362.703 251H357.543ZM363.399 247.664C363.399 247.136 363.175 246.872 362.727 246.872C362.439 246.872 362.211 246.988 362.043 247.22C361.883 247.452 361.803 247.772 361.803 248.18C361.803 249.092 362.099 249.548 362.691 249.548C363.163 249.548 363.399 249.288 363.399 248.768V247.664ZM369.969 249.548H371.049V251H369.825C369.553 251 369.301 250.964 369.069 250.892C368.965 251.66 368.657 252.268 368.145 252.716C367.681 253.116 367.125 253.316 366.477 253.316C365.973 253.316 365.481 253.188 365.001 252.932V251.612C365.417 251.844 365.825 251.96 366.225 251.96C366.665 251.96 367.005 251.816 367.245 251.528C367.493 251.248 367.617 250.856 367.617 250.352V246.464L368.601 245.948L369.117 245.672V245.684L369.129 245.672V248.684C369.129 248.996 369.193 249.22 369.321 249.356C369.449 249.484 369.665 249.548 369.969 249.548ZM373.393 244.616C373.153 244.616 372.961 244.544 372.817 244.4C372.673 244.256 372.601 244.06 372.601 243.812C372.601 243.292 372.865 243.032 373.393 243.032C373.633 243.032 373.821 243.104 373.957 243.248C374.101 243.384 374.173 243.572 374.173 243.812C374.173 244.348 373.913 244.616 373.393 244.616ZM375.241 244.616C375.001 244.616 374.809 244.544 374.665 244.4C374.521 244.256 374.449 244.06 374.449 243.812C374.449 243.292 374.713 243.032 375.241 243.032C375.481 243.032 375.669 243.104 375.805 243.248C375.949 243.384 376.021 243.572 376.021 243.812C376.021 244.348 375.761 244.616 375.241 244.616ZM370.333 251V249.548H372.253C372.013 249.196 371.893 248.756 371.893 248.228C371.893 247.348 372.133 246.652 372.613 246.14C373.045 245.692 373.609 245.468 374.305 245.468C375.017 245.468 375.569 245.696 375.961 246.152C376.313 246.544 376.489 247.056 376.489 247.688V248.768C376.481 249.456 376.277 250 375.877 250.4C375.485 250.8 374.953 251 374.281 251H370.333ZM374.977 247.664C374.977 247.136 374.753 246.872 374.305 246.872C373.689 246.872 373.381 247.308 373.381 248.18C373.381 249.092 373.677 249.548 374.269 249.548C374.741 249.548 374.977 249.292 374.977 248.78V247.664ZM388.39 249.548H389.47V251H388.246C387.622 251 387.114 250.824 386.722 250.472C386.282 250.824 385.742 251 385.102 251H380.578L381.334 249.548H382.918V245.624L384.43 244.82V249.548H385.018C385.386 249.548 385.646 249.468 385.798 249.308C385.958 249.148 386.038 248.876 386.038 248.492V244.064L387.55 243.26V248.684C387.55 248.996 387.614 249.22 387.742 249.356C387.87 249.484 388.086 249.548 388.39 249.548ZM389.895 244.616C389.655 244.616 389.463 244.544 389.319 244.4C389.175 244.256 389.103 244.06 389.103 243.812C389.103 243.58 389.175 243.392 389.319 243.248C389.463 243.104 389.655 243.032 389.895 243.032C390.135 243.032 390.323 243.104 390.459 243.248C390.603 243.384 390.675 243.572 390.675 243.812C390.675 244.348 390.415 244.616 389.895 244.616ZM391.731 244.616C391.491 244.616 391.299 244.544 391.155 244.4C391.011 244.248 390.939 244.052 390.939 243.812C390.939 243.58 391.011 243.392 391.155 243.248C391.307 243.104 391.499 243.032 391.731 243.032C391.971 243.032 392.159 243.104 392.295 243.248C392.439 243.384 392.511 243.572 392.511 243.812C392.511 244.348 392.251 244.616 391.731 244.616ZM393.027 249.548H394.107V251H392.883C392.299 251 391.815 250.844 391.431 250.532C391.047 250.844 390.563 251 389.979 251H388.755V249.548H389.835C390.139 249.548 390.355 249.484 390.483 249.356C390.611 249.22 390.675 248.996 390.675 248.684V246.464L392.187 245.672V248.684C392.187 248.996 392.251 249.22 392.379 249.356C392.507 249.484 392.723 249.548 393.027 249.548ZM393.384 251V249.548H394.656C394.96 249.548 395.176 249.484 395.304 249.356C395.44 249.22 395.508 248.996 395.508 248.684V247.1L397.02 246.308V248.684C397.02 248.996 397.084 249.22 397.212 249.356C397.34 249.484 397.556 249.548 397.86 249.548H398.676C398.98 249.548 399.196 249.484 399.324 249.356C399.452 249.22 399.516 248.996 399.516 248.684V246.788L401.028 245.984V248.684C401.028 248.996 401.092 249.22 401.22 249.356C401.356 249.484 401.576 249.548 401.88 249.548H402.696C403 249.548 403.216 249.484 403.344 249.356C403.472 249.22 403.536 248.996 403.536 248.684V246.464L405.048 245.672V248.756C405.048 249.468 404.832 250.028 404.4 250.436C404.024 250.796 403.528 250.984 402.912 251H401.724C401.132 251 400.648 250.824 400.272 250.472C399.928 250.816 399.472 250.992 398.904 251H397.716C397.124 251 396.64 250.824 396.264 250.472C395.888 250.824 395.404 251 394.812 251H393.384ZM412.911 249.548V251H411.435C411.379 251.72 411.059 252.296 410.475 252.728C409.995 253.08 409.435 253.256 408.795 253.256C408.291 253.256 407.799 253.12 407.319 252.848V251.54C407.751 251.788 408.183 251.912 408.615 251.912C408.951 251.912 409.247 251.82 409.503 251.636C409.767 251.452 409.911 251.232 409.935 250.976C409.871 250.968 409.771 250.96 409.635 250.952C409.499 250.936 409.395 250.924 409.323 250.916C408.499 250.828 407.863 250.504 407.415 249.944C407.039 249.472 406.851 248.9 406.851 248.228C406.851 247.348 407.091 246.652 407.571 246.14C407.995 245.692 408.555 245.468 409.251 245.468C409.963 245.468 410.519 245.696 410.919 246.152C411.263 246.544 411.435 247.056 411.435 247.688V249.548H412.911ZM409.935 247.664C409.935 247.136 409.707 246.872 409.251 246.872C408.643 246.872 408.339 247.308 408.339 248.18C408.339 248.956 408.691 249.388 409.395 249.476C409.507 249.5 409.687 249.52 409.935 249.536V247.664ZM416.465 249.548H417.545V251H416.321C415.737 251 415.253 250.844 414.869 250.532C414.485 250.844 414.001 251 413.417 251H412.193V249.548H413.273C413.577 249.548 413.793 249.484 413.921 249.356C414.049 249.22 414.113 248.996 414.113 248.684V246.464L415.625 245.672V248.684C415.625 248.996 415.689 249.22 415.817 249.356C415.945 249.484 416.161 249.548 416.465 249.548ZM413.357 252.092C413.597 252.092 413.785 252.16 413.921 252.296C414.065 252.44 414.137 252.632 414.137 252.872C414.137 253.408 413.877 253.676 413.357 253.676C413.117 253.676 412.925 253.604 412.781 253.46C412.637 253.316 412.565 253.12 412.565 252.872C412.565 252.352 412.829 252.092 413.357 252.092ZM415.205 252.092C415.445 252.092 415.633 252.16 415.769 252.296C415.913 252.44 415.985 252.632 415.985 252.872C415.985 253.408 415.725 253.676 415.205 253.676C414.965 253.676 414.773 253.604 414.629 253.46C414.485 253.316 414.413 253.12 414.413 252.872C414.413 252.352 414.677 252.092 415.205 252.092ZM419.882 244.616C419.642 244.616 419.45 244.544 419.306 244.4C419.162 244.256 419.09 244.06 419.09 243.812C419.09 243.292 419.354 243.032 419.882 243.032C420.122 243.032 420.31 243.104 420.446 243.248C420.59 243.384 420.662 243.572 420.662 243.812C420.662 244.348 420.402 244.616 419.882 244.616ZM421.73 244.616C421.49 244.616 421.298 244.544 421.154 244.4C421.01 244.256 420.938 244.06 420.938 243.812C420.938 243.292 421.202 243.032 421.73 243.032C421.97 243.032 422.158 243.104 422.294 243.248C422.438 243.384 422.51 243.572 422.51 243.812C422.51 244.348 422.25 244.616 421.73 244.616ZM416.822 251V249.548H418.742C418.502 249.196 418.382 248.756 418.382 248.228C418.382 247.348 418.622 246.652 419.102 246.14C419.534 245.692 420.098 245.468 420.794 245.468C421.506 245.468 422.058 245.696 422.45 246.152C422.802 246.544 422.978 247.056 422.978 247.688V248.768C422.97 249.456 422.766 250 422.366 250.4C421.974 250.8 421.442 251 420.77 251H416.822ZM421.466 247.664C421.466 247.136 421.242 246.872 420.794 246.872C420.178 246.872 419.87 247.308 419.87 248.18C419.87 249.092 420.166 249.548 420.758 249.548C421.23 249.548 421.466 249.292 421.466 248.78V247.664Z" fill="#FE7747"/>
<path opacity="0.6" d="M363.487 286.531C363.801 285.564 364.267 284.774 364.887 284.161C365.567 283.481 366.347 283.141 367.227 283.141C368.014 283.141 368.644 283.414 369.117 283.961C369.517 284.421 369.717 284.991 369.717 285.671V285.891C369.717 286.498 369.527 286.971 369.147 287.311C368.821 287.604 368.397 287.751 367.877 287.751H363.557C363.331 287.751 363.121 287.721 362.927 287.661C362.801 288.301 362.477 288.804 361.957 289.171C361.491 289.491 360.924 289.651 360.257 289.651C359.357 289.651 358.661 289.334 358.167 288.701C357.781 288.208 357.587 287.628 357.587 286.961C357.587 286.434 357.711 285.974 357.957 285.581L359.157 285.331C358.891 285.784 358.757 286.261 358.757 286.761C358.757 287.268 358.901 287.678 359.187 287.991C359.461 288.291 359.817 288.441 360.257 288.441C360.717 288.441 361.074 288.324 361.327 288.091C361.587 287.858 361.717 287.531 361.717 287.111V284.501L362.977 283.841V285.821C362.977 286.248 363.147 286.484 363.487 286.531ZM368.457 285.811V285.671C368.457 285.271 368.344 284.944 368.117 284.691C367.891 284.438 367.597 284.311 367.237 284.311C366.717 284.311 366.231 284.511 365.777 284.911C365.331 285.311 364.977 285.854 364.717 286.541H367.827C368.067 286.541 368.231 286.491 368.317 286.391C368.411 286.284 368.457 286.091 368.457 285.811ZM373.104 287.751C372.497 287.751 372.027 287.558 371.694 287.171C371.407 286.838 371.264 286.408 371.264 285.881V281.961L372.524 281.301V285.821C372.524 286.081 372.577 286.268 372.684 286.381C372.791 286.488 372.971 286.541 373.224 286.541H374.124V287.751H373.104ZM375.481 282.301C375.281 282.301 375.121 282.241 375.001 282.121C374.881 282.001 374.821 281.838 374.821 281.631C374.821 281.438 374.881 281.281 375.001 281.161C375.121 281.041 375.281 280.981 375.481 280.981C375.681 280.981 375.838 281.041 375.951 281.161C376.071 281.274 376.131 281.431 376.131 281.631C376.131 282.078 375.914 282.301 375.481 282.301ZM377.081 286.541H377.981V287.751H376.961C376.474 287.751 376.071 287.621 375.751 287.361C375.431 287.621 375.028 287.751 374.541 287.751H373.521V286.541H374.421C374.674 286.541 374.854 286.488 374.961 286.381C375.068 286.268 375.121 286.081 375.121 285.821V283.971L376.381 283.311V285.821C376.381 286.081 376.434 286.268 376.541 286.381C376.648 286.488 376.828 286.541 377.081 286.541ZM382.288 286.541H385.038L385.058 287.751H382.168C381.828 287.751 381.508 287.668 381.208 287.501C380.895 287.668 380.575 287.751 380.248 287.751H377.378V286.541H380.098C379.798 286.334 379.548 286.138 379.348 285.951C379.235 285.851 379.062 285.664 378.828 285.391C378.755 285.304 378.695 285.234 378.648 285.181V284.611C378.942 284.164 379.318 283.808 379.778 283.541C380.245 283.274 380.722 283.141 381.208 283.141C381.688 283.141 382.162 283.278 382.628 283.551C383.095 283.818 383.482 284.178 383.788 284.631V285.181C383.342 285.721 382.842 286.174 382.288 286.541ZM381.198 286.061C381.698 285.668 382.068 285.271 382.308 284.871C381.908 284.498 381.532 284.311 381.178 284.311C380.838 284.311 380.485 284.498 380.118 284.871C380.378 285.331 380.738 285.728 381.198 286.061ZM384.459 287.751V286.541H385.359C385.612 286.541 385.792 286.488 385.899 286.381C386.005 286.268 386.059 286.081 386.059 285.821V283.971L387.319 283.311V285.881C387.319 286.488 387.132 286.961 386.759 287.301C386.432 287.601 386.005 287.751 385.479 287.751H384.459ZM384.999 289.981C384.799 289.981 384.639 289.921 384.519 289.801C384.399 289.681 384.339 289.518 384.339 289.311C384.339 288.878 384.559 288.661 384.999 288.661C385.199 288.661 385.355 288.718 385.469 288.831C385.589 288.951 385.649 289.111 385.649 289.311C385.649 289.758 385.432 289.981 384.999 289.981ZM386.539 289.981C386.339 289.981 386.179 289.921 386.059 289.801C385.939 289.681 385.879 289.518 385.879 289.311C385.879 288.878 386.099 288.661 386.539 288.661C386.739 288.661 386.895 288.718 387.009 288.831C387.129 288.951 387.189 289.111 387.189 289.311C387.189 289.758 386.972 289.981 386.539 289.981ZM397.328 286.541H398.228V287.751H397.208C396.688 287.751 396.265 287.604 395.938 287.311C395.571 287.604 395.121 287.751 394.588 287.751H390.818L391.448 286.541H392.768V283.271L394.028 282.601V286.541H394.518C394.825 286.541 395.041 286.474 395.168 286.341C395.301 286.208 395.368 285.981 395.368 285.661V281.971L396.628 281.301V285.821C396.628 286.081 396.681 286.268 396.788 286.381C396.895 286.488 397.075 286.541 397.328 286.541ZM403.992 286.541H404.882V287.751H403.862C403.382 287.751 402.989 287.628 402.682 287.381C402.322 287.761 401.849 287.951 401.262 287.951C400.662 287.951 400.189 287.761 399.842 287.381C399.522 287.628 399.126 287.751 398.652 287.751H397.632V286.541H398.532C398.786 286.541 398.966 286.488 399.072 286.381C399.179 286.268 399.232 286.081 399.232 285.821V285.531C399.232 284.751 399.436 284.144 399.842 283.711C400.196 283.331 400.669 283.141 401.262 283.141C401.936 283.141 402.456 283.388 402.822 283.881C403.129 284.301 403.282 284.851 403.282 285.531V285.821C403.282 286.081 403.336 286.268 403.442 286.381C403.556 286.488 403.739 286.541 403.992 286.541ZM401.262 286.741C401.769 286.741 402.022 286.328 402.022 285.501C402.022 284.708 401.769 284.311 401.262 284.311C400.749 284.311 400.492 284.708 400.492 285.501C400.492 286.328 400.749 286.741 401.262 286.741ZM410.803 286.541H411.643V287.751H410.793C410.266 287.751 409.843 287.694 409.523 287.581C409.209 287.461 408.916 287.254 408.643 286.961C407.809 287.488 406.849 287.751 405.763 287.751H404.283V286.541H405.773C406.946 286.541 407.879 286.191 408.573 285.491C408.119 284.698 407.569 284.301 406.923 284.301C406.389 284.301 405.806 284.591 405.173 285.171V284.061C405.733 283.448 406.366 283.141 407.073 283.141C407.593 283.141 408.099 283.331 408.593 283.711C409.086 284.091 409.523 284.631 409.903 285.331V285.831C409.796 285.971 409.656 286.128 409.483 286.301C409.749 286.461 410.189 286.541 410.803 286.541ZM411.761 282.301C411.561 282.301 411.401 282.241 411.281 282.121C411.161 282.001 411.101 281.838 411.101 281.631C411.101 281.198 411.321 280.981 411.761 280.981C411.961 280.981 412.117 281.041 412.231 281.161C412.351 281.274 412.411 281.431 412.411 281.631C412.411 282.078 412.194 282.301 411.761 282.301ZM413.301 282.301C413.101 282.301 412.941 282.241 412.821 282.121C412.701 282.001 412.641 281.838 412.641 281.631C412.641 281.198 412.861 280.981 413.301 280.981C413.501 280.981 413.657 281.041 413.771 281.161C413.891 281.274 413.951 281.431 413.951 281.631C413.951 282.078 413.734 282.301 413.301 282.301ZM411.041 287.751V286.541H411.941C412.194 286.541 412.374 286.488 412.481 286.381C412.587 286.268 412.641 286.081 412.641 285.821V283.971L413.901 283.311V285.881C413.901 286.488 413.714 286.961 413.341 287.301C413.014 287.601 412.587 287.751 412.061 287.751H411.041ZM420.448 286.541V287.751H419.218C419.171 288.351 418.904 288.831 418.418 289.191C418.018 289.484 417.551 289.631 417.018 289.631C416.598 289.631 416.188 289.518 415.788 289.291V288.201C416.148 288.408 416.508 288.511 416.868 288.511C417.148 288.511 417.394 288.434 417.608 288.281C417.828 288.128 417.948 287.944 417.968 287.731C417.914 287.724 417.831 287.718 417.718 287.711C417.604 287.698 417.518 287.688 417.458 287.681C416.771 287.608 416.241 287.338 415.868 286.871C415.554 286.478 415.398 286.001 415.398 285.441C415.398 284.708 415.598 284.128 415.998 283.701C416.351 283.328 416.818 283.141 417.398 283.141C417.991 283.141 418.454 283.331 418.788 283.711C419.074 284.038 419.218 284.464 419.218 284.991V286.541H420.448ZM417.968 284.971C417.968 284.531 417.778 284.311 417.398 284.311C416.891 284.311 416.638 284.674 416.638 285.401C416.638 286.048 416.931 286.408 417.518 286.481C417.611 286.501 417.761 286.518 417.968 286.531V284.971ZM419.849 287.751V286.541H420.749C421.003 286.541 421.183 286.488 421.289 286.381C421.396 286.268 421.449 286.081 421.449 285.821V283.971L422.709 283.311V285.881C422.709 286.488 422.523 286.961 422.149 287.301C421.823 287.601 421.396 287.751 420.869 287.751H419.849Z" fill="#222A2F"/>
<rect x="76.3159" y="461.819" width="366.425" height="167.181" fill="#F5F5F5"/>
<rect x="76.3159" y="461.819" width="366.425" height="6.87047" fill="#FE7747"/>
<path d="M325 499.745C327.29 500.855 328.435 502.521 329.294 504.187C330.439 501.411 334.161 496.136 338.741 495.026" stroke="#FE7747" stroke-width="1.5" stroke-linecap="round" stroke-linejoin="round"/>
<path d="M350.543 504.78V501.792C350.543 501.112 350.743 500.568 351.143 500.16C351.495 499.808 351.967 499.608 352.559 499.56C352.343 499.224 352.235 498.78 352.235 498.228C352.235 497.348 352.475 496.652 352.955 496.14C353.379 495.692 353.939 495.468 354.635 495.468C355.347 495.468 355.903 495.696 356.303 496.152C356.647 496.544 356.819 497.056 356.819 497.688V499.116C356.811 499.708 356.611 500.168 356.219 500.496C355.827 500.824 355.275 500.992 354.563 501H352.895C352.591 501 352.375 501.064 352.247 501.192C352.119 501.328 352.055 501.552 352.055 501.864V503.988L350.543 504.78ZM355.307 497.664C355.307 497.136 355.083 496.872 354.635 496.872C354.347 496.872 354.119 496.988 353.951 497.22C353.791 497.452 353.711 497.772 353.711 498.18C353.711 499.092 354.011 499.548 354.611 499.548C355.075 499.548 355.307 499.324 355.307 498.876V497.664ZM357.899 501L358.655 499.548H360.551C360.959 499.548 361.163 499.312 361.163 498.84C361.163 497.96 360.739 497.284 359.891 496.812L360.635 495.528C361.883 496.256 362.555 497.244 362.651 498.492C362.683 498.892 362.771 499.168 362.915 499.32C363.067 499.472 363.323 499.548 363.683 499.548H364.595V501H363.599C363.007 501 362.507 500.836 362.099 500.508C361.803 500.836 361.379 501 360.827 501H357.899ZM363.876 501V499.548H364.956C365.26 499.548 365.476 499.484 365.604 499.356C365.732 499.22 365.796 498.996 365.796 498.684V496.464L367.308 495.672V498.756C367.308 499.484 367.084 500.052 366.636 500.46C366.244 500.82 365.732 501 365.1 501H363.876ZM364.524 503.676C364.284 503.676 364.092 503.604 363.948 503.46C363.804 503.316 363.732 503.12 363.732 502.872C363.732 502.352 363.996 502.092 364.524 502.092C364.764 502.092 364.952 502.16 365.088 502.296C365.232 502.44 365.304 502.632 365.304 502.872C365.304 503.408 365.044 503.676 364.524 503.676ZM366.372 503.676C366.132 503.676 365.94 503.604 365.796 503.46C365.652 503.316 365.58 503.12 365.58 502.872C365.58 502.352 365.844 502.092 366.372 502.092C366.612 502.092 366.8 502.16 366.936 502.296C367.08 502.44 367.152 502.632 367.152 502.872C367.152 503.408 366.892 503.676 366.372 503.676ZM372.41 500.256C372.41 501.184 372.154 501.936 371.642 502.512C371.17 503.048 370.546 503.316 369.77 503.316C369.266 503.316 368.774 503.188 368.294 502.932V501.612C368.71 501.844 369.118 501.96 369.518 501.96C369.958 501.96 370.298 501.816 370.538 501.528C370.786 501.248 370.91 500.856 370.91 500.352V496.476L372.41 495.672V500.256ZM377.286 500.652C377.038 500.7 376.782 500.724 376.518 500.724C375.782 500.724 375.194 500.448 374.754 499.896C374.394 499.432 374.214 498.872 374.214 498.216C374.214 497.336 374.454 496.644 374.934 496.14C375.358 495.692 375.918 495.468 376.614 495.468C377.326 495.468 377.882 495.696 378.282 496.152C378.626 496.544 378.798 497.056 378.798 497.688V500.256C378.798 501.2 378.55 501.944 378.054 502.488C377.59 503 376.958 503.256 376.158 503.256C375.654 503.256 375.162 503.12 374.682 502.848V501.54C375.114 501.788 375.546 501.912 375.978 501.912C376.754 501.912 377.19 501.492 377.286 500.652ZM377.298 497.664C377.298 497.136 377.07 496.872 376.614 496.872C376.326 496.872 376.098 496.988 375.93 497.22C375.77 497.452 375.69 497.768 375.69 498.168C375.69 499.016 375.994 499.44 376.602 499.44C376.922 499.44 377.154 499.36 377.298 499.2V497.664ZM390.698 499.548H391.778V501H390.554C389.93 501 389.422 500.824 389.03 500.472C388.59 500.824 388.05 501 387.41 501H382.886L383.642 499.548H385.226V495.624L386.738 494.82V499.548H387.326C387.694 499.548 387.954 499.468 388.106 499.308C388.266 499.148 388.346 498.876 388.346 498.492V494.064L389.858 493.26V498.684C389.858 498.996 389.922 499.22 390.05 499.356C390.178 499.484 390.394 499.548 390.698 499.548ZM398.696 499.548H399.764V501H398.54C397.964 501 397.492 500.852 397.124 500.556C396.692 501.012 396.124 501.24 395.42 501.24C394.7 501.24 394.132 501.012 393.716 500.556C393.332 500.852 392.856 501 392.288 501H391.064V499.548H392.144C392.448 499.548 392.664 499.484 392.792 499.356C392.92 499.22 392.984 498.996 392.984 498.684V498.336C392.984 497.4 393.228 496.672 393.716 496.152C394.14 495.696 394.708 495.468 395.42 495.468C396.228 495.468 396.852 495.764 397.292 496.356C397.66 496.86 397.844 497.52 397.844 498.336V498.684C397.844 498.996 397.908 499.22 398.036 499.356C398.172 499.484 398.392 499.548 398.696 499.548ZM395.42 499.788C396.028 499.788 396.332 499.292 396.332 498.3C396.332 497.348 396.028 496.872 395.42 496.872C394.804 496.872 394.496 497.348 394.496 498.3C394.496 499.292 394.804 499.788 395.42 499.788ZM401.396 494.46C401.156 494.46 400.964 494.388 400.82 494.244C400.676 494.1 400.604 493.904 400.604 493.656C400.604 493.424 400.676 493.236 400.82 493.092C400.964 492.948 401.156 492.876 401.396 492.876C401.636 492.876 401.824 492.948 401.96 493.092C402.104 493.228 402.176 493.416 402.176 493.656C402.176 494.192 401.916 494.46 401.396 494.46ZM403.316 499.548H404.396V501H403.172C402.588 501 402.104 500.844 401.72 500.532C401.336 500.844 400.852 501 400.268 501H399.044V499.548H400.124C400.428 499.548 400.644 499.484 400.772 499.356C400.9 499.22 400.964 498.996 400.964 498.684V496.464L402.476 495.672V498.684C402.476 498.996 402.54 499.22 402.668 499.356C402.796 499.484 403.012 499.548 403.316 499.548ZM404.813 494.616C404.573 494.616 404.381 494.544 404.237 494.4C404.093 494.256 404.021 494.06 404.021 493.812C404.021 493.58 404.093 493.392 404.237 493.248C404.381 493.104 404.573 493.032 404.813 493.032C405.053 493.032 405.241 493.104 405.377 493.248C405.521 493.384 405.593 493.572 405.593 493.812C405.593 494.348 405.333 494.616 404.813 494.616ZM406.649 494.616C406.409 494.616 406.217 494.544 406.073 494.4C405.929 494.248 405.857 494.052 405.857 493.812C405.857 493.58 405.929 493.392 406.073 493.248C406.225 493.104 406.417 493.032 406.649 493.032C406.889 493.032 407.077 493.104 407.213 493.248C407.357 493.384 407.429 493.572 407.429 493.812C407.429 494.348 407.169 494.616 406.649 494.616ZM407.945 499.548H409.025V501H407.801C407.217 501 406.733 500.844 406.349 500.532C405.965 500.844 405.481 501 404.897 501H403.673V499.548H404.753C405.057 499.548 405.273 499.484 405.401 499.356C405.529 499.22 405.593 498.996 405.593 498.684V496.464L407.105 495.672V498.684C407.105 498.996 407.169 499.22 407.297 499.356C407.425 499.484 407.641 499.548 407.945 499.548ZM408.302 501V499.548H410.09C411.498 499.548 412.618 499.128 413.45 498.288C412.906 497.336 412.246 496.86 411.47 496.86C410.83 496.86 410.13 497.208 409.37 497.904V496.572C410.042 495.836 410.802 495.468 411.65 495.468C412.274 495.468 412.882 495.696 413.474 496.152C414.066 496.608 414.59 497.256 415.046 498.096V498.696C414.47 499.432 413.75 500 412.886 500.4C412.03 500.8 411.094 501 410.078 501H408.302ZM412.022 503.676C411.782 503.676 411.59 503.604 411.446 503.46C411.302 503.316 411.23 503.12 411.23 502.872C411.23 502.64 411.302 502.452 411.446 502.308C411.59 502.164 411.782 502.092 412.022 502.092C412.262 502.092 412.45 502.16 412.586 502.296C412.73 502.44 412.802 502.632 412.802 502.872C412.802 503.408 412.542 503.676 412.022 503.676ZM418.934 501C418.206 501 417.642 500.768 417.242 500.304C416.898 499.904 416.726 499.388 416.726 498.756V494.052L418.238 493.26V498.684C418.238 498.996 418.302 499.22 418.43 499.356C418.558 499.484 418.774 499.548 419.078 499.548H420.158V501H418.934ZM420.299 494.46C420.059 494.46 419.867 494.388 419.723 494.244C419.579 494.1 419.507 493.904 419.507 493.656C419.507 493.136 419.771 492.876 420.299 492.876C420.539 492.876 420.727 492.948 420.863 493.092C421.007 493.228 421.079 493.416 421.079 493.656C421.079 494.192 420.819 494.46 420.299 494.46ZM422.147 494.46C421.907 494.46 421.715 494.388 421.571 494.244C421.427 494.1 421.355 493.904 421.355 493.656C421.355 493.136 421.619 492.876 422.147 492.876C422.387 492.876 422.575 492.948 422.711 493.092C422.855 493.228 422.927 493.416 422.927 493.656C422.927 494.192 422.667 494.46 422.147 494.46ZM419.435 501V499.548H420.515C420.819 499.548 421.035 499.484 421.163 499.356C421.291 499.22 421.355 498.996 421.355 498.684V496.464L422.867 495.672V498.756C422.867 499.484 422.643 500.052 422.195 500.46C421.803 500.82 421.291 501 420.659 501H419.435Z" fill="#FE7747"/>
<rect x="172" y="558.005" width="251.917" height="13.7409" fill="#E7E9ED"/>
<rect x="214" y="580.907" width="209.549" height="13.7409" fill="#E6E8EC"/>
<path opacity="0.6" d="M281.487 536.158C281.801 535.192 282.267 534.402 282.887 533.788C283.567 533.108 284.347 532.768 285.227 532.768C286.014 532.768 286.644 533.042 287.117 533.588C287.517 534.048 287.717 534.618 287.717 535.298V535.518C287.717 536.125 287.527 536.598 287.147 536.938C286.821 537.232 286.397 537.378 285.877 537.378H281.557C281.331 537.378 281.121 537.348 280.927 537.288C280.801 537.928 280.477 538.432 279.957 538.798C279.491 539.118 278.924 539.278 278.257 539.278C277.357 539.278 276.661 538.962 276.167 538.328C275.781 537.835 275.587 537.255 275.587 536.588C275.587 536.062 275.711 535.602 275.957 535.208L277.157 534.958C276.891 535.412 276.757 535.888 276.757 536.388C276.757 536.895 276.901 537.305 277.187 537.618C277.461 537.918 277.817 538.068 278.257 538.068C278.717 538.068 279.074 537.952 279.327 537.718C279.587 537.485 279.717 537.158 279.717 536.738V534.128L280.977 533.468V535.448C280.977 535.875 281.147 536.112 281.487 536.158ZM286.457 535.438V535.298C286.457 534.898 286.344 534.572 286.117 534.318C285.891 534.065 285.597 533.938 285.237 533.938C284.717 533.938 284.231 534.138 283.777 534.538C283.331 534.938 282.977 535.482 282.717 536.168H285.827C286.067 536.168 286.231 536.118 286.317 536.018C286.411 535.912 286.457 535.718 286.457 535.438ZM291.104 537.378C290.497 537.378 290.027 537.185 289.694 536.798C289.407 536.465 289.264 536.035 289.264 535.508V531.588L290.524 530.928V535.448C290.524 535.708 290.577 535.895 290.684 536.008C290.791 536.115 290.971 536.168 291.224 536.168H292.124V537.378H291.104ZM293.481 531.928C293.281 531.928 293.121 531.868 293.001 531.748C292.881 531.628 292.821 531.465 292.821 531.258C292.821 531.065 292.881 530.908 293.001 530.788C293.121 530.668 293.281 530.608 293.481 530.608C293.681 530.608 293.838 530.668 293.951 530.788C294.071 530.902 294.131 531.058 294.131 531.258C294.131 531.705 293.914 531.928 293.481 531.928ZM295.081 536.168H295.981V537.378H294.961C294.474 537.378 294.071 537.248 293.751 536.988C293.431 537.248 293.028 537.378 292.541 537.378H291.521V536.168H292.421C292.674 536.168 292.854 536.115 292.961 536.008C293.068 535.895 293.121 535.708 293.121 535.448V533.598L294.381 532.938V535.448C294.381 535.708 294.434 535.895 294.541 536.008C294.648 536.115 294.828 536.168 295.081 536.168ZM300.288 536.168H303.038L303.058 537.378H300.168C299.828 537.378 299.508 537.295 299.208 537.128C298.895 537.295 298.575 537.378 298.248 537.378H295.378V536.168H298.098C297.798 535.962 297.548 535.765 297.348 535.578C297.235 535.478 297.062 535.292 296.828 535.018C296.755 534.932 296.695 534.862 296.648 534.808V534.238C296.942 533.792 297.318 533.435 297.778 533.168C298.245 532.902 298.722 532.768 299.208 532.768C299.688 532.768 300.162 532.905 300.628 533.178C301.095 533.445 301.482 533.805 301.788 534.258V534.808C301.342 535.348 300.842 535.802 300.288 536.168ZM299.198 535.688C299.698 535.295 300.068 534.898 300.308 534.498C299.908 534.125 299.532 533.938 299.178 533.938C298.838 533.938 298.485 534.125 298.118 534.498C298.378 534.958 298.738 535.355 299.198 535.688ZM302.459 537.378V536.168H303.359C303.612 536.168 303.792 536.115 303.899 536.008C304.005 535.895 304.059 535.708 304.059 535.448V533.598L305.319 532.938V535.508C305.319 536.115 305.132 536.588 304.759 536.928C304.432 537.228 304.005 537.378 303.479 537.378H302.459ZM302.999 539.608C302.799 539.608 302.639 539.548 302.519 539.428C302.399 539.308 302.339 539.145 302.339 538.938C302.339 538.505 302.559 538.288 302.999 538.288C303.199 538.288 303.355 538.345 303.469 538.458C303.589 538.578 303.649 538.738 303.649 538.938C303.649 539.385 303.432 539.608 302.999 539.608ZM304.539 539.608C304.339 539.608 304.179 539.548 304.059 539.428C303.939 539.308 303.879 539.145 303.879 538.938C303.879 538.505 304.099 538.288 304.539 538.288C304.739 538.288 304.895 538.345 305.009 538.458C305.129 538.578 305.189 538.738 305.189 538.938C305.189 539.385 304.972 539.608 304.539 539.608ZM315.328 536.168H316.228V537.378H315.208C314.688 537.378 314.265 537.232 313.938 536.938C313.571 537.232 313.121 537.378 312.588 537.378H308.818L309.448 536.168H310.768V532.898L312.028 532.228V536.168H312.518C312.825 536.168 313.041 536.102 313.168 535.968C313.301 535.835 313.368 535.608 313.368 535.288V531.598L314.628 530.928V535.448C314.628 535.708 314.681 535.895 314.788 536.008C314.895 536.115 315.075 536.168 315.328 536.168ZM321.992 536.168H322.882V537.378H321.862C321.382 537.378 320.989 537.255 320.682 537.008C320.322 537.388 319.849 537.578 319.262 537.578C318.662 537.578 318.189 537.388 317.842 537.008C317.522 537.255 317.126 537.378 316.652 537.378H315.632V536.168H316.532C316.786 536.168 316.966 536.115 317.072 536.008C317.179 535.895 317.232 535.708 317.232 535.448V535.158C317.232 534.378 317.436 533.772 317.842 533.338C318.196 532.958 318.669 532.768 319.262 532.768C319.936 532.768 320.456 533.015 320.822 533.508C321.129 533.928 321.282 534.478 321.282 535.158V535.448C321.282 535.708 321.336 535.895 321.442 536.008C321.556 536.115 321.739 536.168 321.992 536.168ZM319.262 536.368C319.769 536.368 320.022 535.955 320.022 535.128C320.022 534.335 319.769 533.938 319.262 533.938C318.749 533.938 318.492 534.335 318.492 535.128C318.492 535.955 318.749 536.368 319.262 536.368ZM328.803 536.168H329.643V537.378H328.793C328.266 537.378 327.843 537.322 327.523 537.208C327.209 537.088 326.916 536.882 326.643 536.588C325.809 537.115 324.849 537.378 323.763 537.378H322.283V536.168H323.773C324.946 536.168 325.879 535.818 326.573 535.118C326.119 534.325 325.569 533.928 324.923 533.928C324.389 533.928 323.806 534.218 323.173 534.798V533.688C323.733 533.075 324.366 532.768 325.073 532.768C325.593 532.768 326.099 532.958 326.593 533.338C327.086 533.718 327.523 534.258 327.903 534.958V535.458C327.796 535.598 327.656 535.755 327.483 535.928C327.749 536.088 328.189 536.168 328.803 536.168ZM329.761 531.928C329.561 531.928 329.401 531.868 329.281 531.748C329.161 531.628 329.101 531.465 329.101 531.258C329.101 530.825 329.321 530.608 329.761 530.608C329.961 530.608 330.117 530.668 330.231 530.788C330.351 530.902 330.411 531.058 330.411 531.258C330.411 531.705 330.194 531.928 329.761 531.928ZM331.301 531.928C331.101 531.928 330.941 531.868 330.821 531.748C330.701 531.628 330.641 531.465 330.641 531.258C330.641 530.825 330.861 530.608 331.301 530.608C331.501 530.608 331.657 530.668 331.771 530.788C331.891 530.902 331.951 531.058 331.951 531.258C331.951 531.705 331.734 531.928 331.301 531.928ZM329.041 537.378V536.168H329.941C330.194 536.168 330.374 536.115 330.481 536.008C330.587 535.895 330.641 535.708 330.641 535.448V533.598L331.901 532.938V535.508C331.901 536.115 331.714 536.588 331.341 536.928C331.014 537.228 330.587 537.378 330.061 537.378H329.041ZM338.448 536.168V537.378H337.218C337.171 537.978 336.904 538.458 336.418 538.818C336.018 539.112 335.551 539.258 335.018 539.258C334.598 539.258 334.188 539.145 333.788 538.918V537.828C334.148 538.035 334.508 538.138 334.868 538.138C335.148 538.138 335.394 538.062 335.608 537.908C335.828 537.755 335.948 537.572 335.968 537.358C335.914 537.352 335.831 537.345 335.718 537.338C335.604 537.325 335.518 537.315 335.458 537.308C334.771 537.235 334.241 536.965 333.868 536.498C333.554 536.105 333.398 535.628 333.398 535.068C333.398 534.335 333.598 533.755 333.998 533.328C334.351 532.955 334.818 532.768 335.398 532.768C335.991 532.768 336.454 532.958 336.788 533.338C337.074 533.665 337.218 534.092 337.218 534.618V536.168H338.448ZM335.968 534.598C335.968 534.158 335.778 533.938 335.398 533.938C334.891 533.938 334.638 534.302 334.638 535.028C334.638 535.675 334.931 536.035 335.518 536.108C335.611 536.128 335.761 536.145 335.968 536.158V534.598ZM337.849 537.378V536.168H338.749C339.003 536.168 339.183 536.115 339.289 536.008C339.396 535.895 339.449 535.708 339.449 535.448V533.598L340.709 532.938V535.508C340.709 536.115 340.523 536.588 340.149 536.928C339.823 537.228 339.396 537.378 338.869 537.378H337.849Z" fill="#222A2F"/>
<rect width="163.746" height="38.9326" transform="matrix(1 0 0 -1 279 461.818)" fill="#FE7747"/>
<path d="M325.083 442.16C325.465 440.742 326.081 439.566 326.931 438.632C327.892 437.596 329.012 437.078 330.291 437.078C331.355 437.078 332.204 437.447 332.839 438.184C333.371 438.81 333.637 439.58 333.637 440.494V440.858C333.637 441.67 333.389 442.3 332.895 442.748C332.465 443.14 331.901 443.336 331.201 443.336H325.405C324.919 443.336 324.499 443.238 324.145 443.042C324.033 443.994 323.617 444.736 322.899 445.268C322.255 445.754 321.457 445.996 320.505 445.996C319.291 445.996 318.349 445.567 317.677 444.708C317.163 444.046 316.907 443.262 316.907 442.356C316.907 441.572 317.103 440.9 317.495 440.34L318.657 440.088C318.237 440.751 318.027 441.465 318.027 442.23C318.027 443.014 318.269 443.658 318.755 444.162C319.212 444.629 319.795 444.862 320.505 444.862C321.326 444.862 321.961 444.624 322.409 444.148C322.782 443.747 322.969 443.224 322.969 442.58V438.842L324.173 438.198V440.802C324.173 441.586 324.476 442.039 325.083 442.16ZM332.433 440.746V440.494C332.433 439.766 332.209 439.188 331.761 438.758C331.369 438.385 330.883 438.198 330.305 438.198C329.306 438.198 328.41 438.651 327.617 439.556C327.01 440.266 326.548 441.148 326.231 442.202H331.131C331.999 442.202 332.433 441.717 332.433 440.746ZM338.312 443.336C337.5 443.336 336.875 443.075 336.436 442.552C336.063 442.104 335.876 441.535 335.876 440.844V434.95L337.08 434.306V440.802C337.08 441.736 337.538 442.202 338.452 442.202H339.376V443.336H338.312ZM341.19 435.566C340.733 435.566 340.504 435.333 340.504 434.866C340.504 434.409 340.733 434.18 341.19 434.18C341.638 434.18 341.862 434.409 341.862 434.866C341.862 435.333 341.638 435.566 341.19 435.566ZM343.402 442.202H344.326V443.336H343.262C342.488 443.336 341.876 443.089 341.428 442.594C340.98 443.089 340.369 443.336 339.594 443.336H338.53V442.202H339.454C340.369 442.202 340.826 441.736 340.826 440.802V437.904L342.03 437.26V440.802C342.03 441.736 342.488 442.202 343.402 442.202ZM350.395 442.202H354.091V443.336H350.283C349.779 443.336 349.28 443.238 348.785 443.042C348.291 443.238 347.787 443.336 347.273 443.336H343.479V442.202H347.175H347.371C346.699 441.652 346.009 440.844 345.299 439.78V439.164C345.747 438.52 346.279 438.012 346.895 437.638C347.521 437.265 348.146 437.078 348.771 437.078C349.397 437.078 350.022 437.27 350.647 437.652C351.273 438.026 351.814 438.539 352.271 439.192V439.78C351.562 440.844 350.867 441.652 350.185 442.202H350.395ZM346.419 439.486C347.278 440.662 348.067 441.437 348.785 441.81C349.504 441.428 350.293 440.648 351.151 439.472C350.451 438.623 349.658 438.194 348.771 438.184C347.885 438.184 347.101 438.618 346.419 439.486ZM353.255 443.336V442.202H354.179C355.094 442.202 355.551 441.736 355.551 440.802V437.904L356.755 437.26V440.844C356.755 441.638 356.517 442.263 356.041 442.72C355.602 443.131 355.028 443.336 354.319 443.336H353.255ZM353.997 446.122C353.54 446.122 353.311 445.889 353.311 445.422C353.311 444.965 353.54 444.736 353.997 444.736C354.445 444.736 354.669 444.965 354.669 445.422C354.669 445.889 354.445 446.122 353.997 446.122ZM355.775 446.122C355.318 446.122 355.089 445.889 355.089 445.422C355.089 444.965 355.318 444.736 355.775 444.736C356.223 444.736 356.447 444.965 356.447 445.422C356.447 445.889 356.223 446.122 355.775 446.122ZM370.306 442.202H371.23V443.336H370.166C369.364 443.336 368.743 443.08 368.304 442.566C367.838 443.08 367.194 443.336 366.372 443.336H361.556L362.144 442.202H364.188V436.77L365.392 436.126V442.202H366.274C367.245 442.202 367.73 441.694 367.73 440.676V434.95L368.948 434.306V440.69C368.948 441.232 369.051 441.619 369.256 441.852C369.471 442.086 369.821 442.202 370.306 442.202ZM379.402 442.202H380.34V443.336H379.276C378.501 443.336 377.89 443.089 377.442 442.594C376.966 443.276 376.27 443.616 375.356 443.616C374.441 443.616 373.75 443.28 373.284 442.608C372.845 443.094 372.234 443.336 371.45 443.336H370.386V442.202H371.31C372.224 442.202 372.682 441.736 372.682 440.802V440.34C372.682 439.258 372.948 438.427 373.48 437.848C373.946 437.335 374.572 437.078 375.356 437.078C376.252 437.078 376.942 437.41 377.428 438.072C377.838 438.642 378.044 439.398 378.044 440.34V440.802C378.044 441.736 378.496 442.202 379.402 442.202ZM375.356 442.482C375.813 442.482 376.172 442.291 376.434 441.908C376.704 441.526 376.84 440.998 376.84 440.326C376.84 438.908 376.345 438.198 375.356 438.198C374.376 438.198 373.886 438.908 373.886 440.326C373.886 441.764 374.376 442.482 375.356 442.482ZM388.633 442.202H389.543V443.336H388.619C387.863 443.336 387.256 443.252 386.799 443.084C386.342 442.907 385.917 442.599 385.525 442.16C384.349 442.944 382.977 443.336 381.409 443.336H379.505V442.202H381.423C383.318 442.202 384.816 441.577 385.917 440.326C385.142 438.898 384.2 438.184 383.089 438.184C382.333 438.184 381.554 438.586 380.751 439.388V438.268C381.535 437.475 382.366 437.078 383.243 437.078C383.962 437.078 384.657 437.34 385.329 437.862C386.001 438.376 386.594 439.113 387.107 440.074V440.69C386.818 441.054 386.542 441.348 386.281 441.572C386.785 441.992 387.569 442.202 388.633 442.202ZM389.784 435.566C389.327 435.566 389.098 435.333 389.098 434.866C389.098 434.409 389.327 434.18 389.784 434.18C390.232 434.18 390.456 434.409 390.456 434.866C390.456 435.333 390.232 435.566 389.784 435.566ZM391.562 435.566C391.105 435.566 390.876 435.333 390.876 434.866C390.876 434.409 391.105 434.18 391.562 434.18C392.01 434.18 392.234 434.409 392.234 434.866C392.234 435.333 392.01 435.566 391.562 435.566ZM388.706 443.336V442.202H389.63C390.545 442.202 391.002 441.736 391.002 440.802V437.904L392.206 437.26V440.844C392.206 441.638 391.968 442.263 391.492 442.72C391.053 443.131 390.479 443.336 389.77 443.336H388.706ZM401.258 442.202V443.336H399.522C399.485 444.139 399.139 444.802 398.486 445.324C397.935 445.754 397.31 445.968 396.61 445.968C396.031 445.968 395.485 445.833 394.972 445.562V444.498C395.467 444.76 395.957 444.89 396.442 444.89C396.937 444.89 397.366 444.736 397.73 444.428C398.103 444.12 398.295 443.752 398.304 443.322C397.819 443.304 397.459 443.285 397.226 443.266C396.218 443.21 395.457 442.87 394.944 442.244C394.515 441.722 394.3 441.045 394.3 440.214C394.3 439.197 394.571 438.404 395.112 437.834C395.597 437.33 396.237 437.078 397.03 437.078C397.861 437.078 398.5 437.326 398.948 437.82C399.331 438.259 399.522 438.833 399.522 439.542V442.202H401.258ZM398.304 439.626C398.304 438.674 397.879 438.198 397.03 438.198C396.545 438.198 396.167 438.376 395.896 438.73C395.625 439.076 395.49 439.561 395.49 440.186C395.49 441.409 396.087 442.058 397.282 442.132C397.506 442.16 397.847 442.184 398.304 442.202V439.626ZM400.423 443.336V442.202H401.347C402.262 442.202 402.719 441.736 402.719 440.802V437.904L403.923 437.26V440.844C403.923 441.638 403.685 442.263 403.209 442.72C402.77 443.131 402.196 443.336 401.487 443.336H400.423Z" fill="white"/>
<rect x="39.6733" y="63" width="439.71" height="82.4456" fill="#FE7747"/>
<path d="M409.434 102.05C411.15 98.8967 413.423 97.32 416.254 97.32C417.897 97.32 419.202 97.8847 420.17 99.014C420.991 99.982 421.402 101.177 421.402 102.6V103.37C421.402 105.79 420.346 107 418.234 107H404.44L405.166 105.636H408.07V93.58L409.434 92.81V102.05ZM419.928 102.6C419.928 101.368 419.539 100.378 418.762 99.63C418.102 98.9847 417.273 98.662 416.276 98.662C414.56 98.662 413.035 99.4907 411.7 101.148C410.688 102.395 409.94 103.891 409.456 105.636H418.08C418.784 105.636 419.268 105.475 419.532 105.152C419.796 104.815 419.928 104.206 419.928 103.326V102.6ZM430.296 105.636H431.066V107H430.12C429.211 107 428.456 106.78 427.854 106.34C427.737 108.775 426.754 110.315 424.906 110.96C424.437 111.121 423.938 111.202 423.41 111.202C422.56 111.202 421.738 110.997 420.946 110.586V109.288C421.694 109.699 422.457 109.904 423.234 109.904C423.85 109.904 424.393 109.765 424.862 109.486C425.889 108.87 426.402 107.719 426.402 106.032V98.354L427.854 97.584V97.606L427.876 97.584V103.128C427.876 104.8 428.683 105.636 430.296 105.636ZM436.025 94.746C435.424 94.746 435.123 94.438 435.123 93.822C435.123 93.2353 435.424 92.942 436.025 92.942C436.597 92.942 436.883 93.2353 436.883 93.822C436.883 94.438 436.597 94.746 436.025 94.746ZM438.533 94.746C437.932 94.746 437.631 94.438 437.631 93.822C437.631 93.2353 437.932 92.942 438.533 92.942C439.105 92.942 439.391 93.2353 439.391 93.822C439.391 94.438 439.105 94.746 438.533 94.746ZM430.635 107V105.636H434.375C433.569 104.829 433.165 103.671 433.165 102.16C433.165 100.576 433.576 99.3513 434.397 98.486C435.116 97.7087 436.069 97.32 437.257 97.32C438.475 97.32 439.413 97.7013 440.073 98.464C440.645 99.124 440.931 100.004 440.931 101.104V103.238C440.917 104.426 440.557 105.357 439.853 106.032C439.208 106.677 438.328 107 437.213 107H430.635ZM439.479 101.236C439.479 99.52 438.739 98.662 437.257 98.662C436.436 98.662 435.791 98.97 435.321 99.586C434.867 100.187 434.639 101.038 434.639 102.138C434.639 103.209 434.859 104.059 435.299 104.69C435.754 105.321 436.355 105.636 437.103 105.636C438.687 105.636 439.479 104.815 439.479 103.172V101.236Z" fill="white"/>
<path d="M93.8919 98.0098L81.0098 110.892" stroke="white" stroke-width="2" stroke-linecap="round" stroke-linejoin="round"/>
<path d="M93.8919 110.892L81.0098 98.0098" stroke="white" stroke-width="2" stroke-linecap="round" stroke-linejoin="round"/>
<defs>
<filter id="filter0_d_194_649" x="0.67334" y="0.331543" width="517.71" height="643.668" filterUnits="userSpaceOnUse" color-interpolation-filters="sRGB">
<feFlood flood-opacity="0" result="BackgroundImageFix"/>
<feColorMatrix in="SourceAlpha" type="matrix" values="0 0 0 0 0 0 0 0 0 0 0 0 0 0 0 0 0 0 127 0" result="hardAlpha"/>
<feMorphology radius="4" operator="erode" in="SourceAlpha" result="effect1_dropShadow_194_649"/>
<feOffset dy="-24"/>
<feGaussianBlur stdDeviation="21.5"/>
<feComposite in2="hardAlpha" operator="out"/>
<feColorMatrix type="matrix" values="0 0 0 0 0.0156863 0 0 0 0 0.105882 0 0 0 0 0.160784 0 0 0 0.09 0"/>
<feBlend mode="normal" in2="BackgroundImageFix" result="effect1_dropShadow_194_649"/>
<feBlend mode="normal" in="SourceGraphic" in2="effect1_dropShadow_194_649" result="shape"/>
</filter>
</defs>
</svg>
