<svg width="705" height="728" viewBox="0 0 705 728" fill="none" xmlns="http://www.w3.org/2000/svg">
<rect y="3" width="705" height="662" fill="#F6F3F0"/>
<path d="M252.935 3L249.403 3C240.958 6.65739 232.624 10.5674 224.303 14.7318C192.514 30.6399 160.913 50.2562 124.033 73.6555C119.388 76.6021 114.66 79.6089 109.837 82.6761C78.3079 102.726 42.7194 125.358 0 150.634V152.329C43.285 126.749 79.2708 103.864 111.096 83.6257L111.101 83.6225C115.922 80.5568 120.647 77.5517 125.288 74.6072C162.175 51.2036 193.702 31.6361 225.391 15.7779C234.515 11.2123 243.652 6.95382 252.935 3Z" fill="#FEDCD2" fill-opacity="0.5"/>
<path fill-rule="evenodd" clip-rule="evenodd" d="M0 219.722C76.1616 181.461 135.226 158.168 189.621 142.932C261.597 122.771 325.36 116.73 409.591 108.75L409.598 108.749C416.128 108.131 422.78 107.501 429.569 106.851C476.977 102.317 508.838 111.232 525.036 127.252C526.925 129.12 528.598 131.083 530.055 133.128C573.527 105.643 599.578 73.1358 604.675 44.0409C607.297 29.071 604.375 15.0178 595.447 3H597.534C606.311 15.1404 609.139 29.2488 606.521 44.1964C601.345 73.7473 574.89 106.629 530.89 134.344C541.005 149.647 539.45 169.343 526.575 189.175C511.32 212.674 480.145 236.444 433.34 253.573C452.45 262.969 477.18 271.239 505.31 277.316C511.909 278.741 518.691 280.045 525.626 281.215C535.995 245.801 558.091 208.587 593.559 173.554C627.7 139.834 666.72 113.91 705 95.9167V97.477C667.252 115.357 628.79 141.002 595.082 174.296C559.728 209.215 537.742 246.279 527.436 281.516C582.033 290.5 645.918 291.107 705 276.837V278.205C645.718 292.408 581.723 291.763 527.07 282.781C519.384 309.756 518.548 335.629 523.801 358.611C552.11 352.854 578.64 348.414 602.885 345.305C635.779 341.087 664.493 339.315 687.753 340.039C693.88 340.229 699.638 340.593 705 341.133V342.437C699.642 341.89 693.858 341.52 687.67 341.328C664.597 340.61 636.032 342.366 603.224 346.573C578.982 349.682 552.438 354.127 524.101 359.895C526.773 371.045 530.887 381.5 536.357 391.053C552.209 418.735 579.405 438.795 615.775 446.324C629.355 449.135 644.243 450.205 660.332 449.262C677.922 439.158 692.75 429.771 705 421.097V422.936C693.463 431.032 679.718 439.733 663.623 449.043C676.665 448.066 690.475 445.782 705 442.05V443.424C689.56 447.352 674.893 449.664 661.07 450.513C629.446 468.653 588.995 489.073 538.692 511.803C544.239 512.449 549.818 513.132 555.426 513.852C621.024 522.27 671.452 536.406 705 552.769V554.35C671.75 537.906 621.227 523.608 555.088 515.12C548.815 514.315 542.581 513.557 536.385 512.843C515.147 522.412 492.171 532.388 467.381 542.773C366.198 585.159 270.457 595.952 182.081 585.303C117.113 577.475 56.1688 558.064 0 531.145V529.575C56.2871 556.675 117.342 576.193 182.4 584.032C270.299 594.624 365.589 583.907 466.419 541.669C490.532 531.568 512.922 521.856 533.66 512.532C426.854 500.434 331.513 501.486 247.59 502.412C226.208 502.648 205.567 502.876 185.667 502.876C114.242 502.876 52.2924 499.943 0 483.822L0 482.409C52.0422 498.611 113.896 501.586 185.667 501.586C205.52 501.586 226.126 501.358 247.484 501.122L247.494 501.122C331.953 500.19 428.165 499.127 535.977 511.489C585.955 488.954 626.241 468.696 657.844 450.686C642.553 451.381 628.32 450.267 615.243 447.56C578.195 439.891 550.633 419.478 534.629 391.529C529.133 381.932 524.997 371.441 522.303 360.262C474.418 370.077 421.471 383.648 365.901 400.909C222.797 445.361 113.966 434.19 36.077 402.068C23.2085 396.761 11.1881 390.884 0 384.593V382.929C11.4522 389.432 23.7892 395.5 37.0278 400.959C114.338 432.843 222.525 444.032 365.141 399.732C420.859 382.424 473.963 368.816 522.001 358.979C516.665 335.779 517.502 309.676 525.26 282.48C518.259 281.301 511.414 279.986 504.756 278.547C476.162 272.37 450.936 263.911 431.491 254.244C386.624 270.355 327.646 280.389 254.805 278.415C148.404 275.532 61.8365 285.952 0 304.375V302.971C62.1425 284.578 148.761 274.25 254.878 277.126C326.989 279.08 385.355 269.223 429.805 253.395C414.999 245.85 403.708 237.598 397.054 229.14C389.283 219.261 387.815 209.061 394.559 199.418C401.281 189.808 416.08 180.865 440.479 173.336C474.78 162.751 504.36 149.173 528.62 134.03C527.148 131.921 525.446 129.905 523.512 127.992C507.855 112.506 476.819 103.634 429.824 108.129C423.053 108.777 416.418 109.405 409.908 110.022L409.891 110.024C325.612 118.009 262.071 124.029 190.318 144.128C135.841 159.387 76.6087 182.769 0 221.316V219.722ZM524.879 188.646C509.728 211.984 478.584 235.698 431.65 252.732C416.664 245.179 405.3 236.928 398.687 228.522C391.141 218.93 389.803 209.175 396.233 199.981C402.685 190.756 417.038 181.981 441.236 174.514C475.492 163.943 505.098 150.389 529.44 135.252C539.004 150.079 537.501 169.204 524.879 188.646Z" fill="#FEDCD2" fill-opacity="0.5"/>
<path d="M0 660.764L0 662.11C33.9894 655.046 77.1543 650.291 129.331 648.353C202.794 645.624 294.057 648.483 402.604 658.316C511.252 668.157 593.1 666.43 650.282 657.701C672.019 654.383 690.229 650.046 705 644.933V643.491C690.282 648.661 671.962 653.071 649.882 656.441C592.984 665.127 511.37 666.867 402.845 657.036C294.218 647.196 202.837 644.331 129.231 647.065C77.253 648.995 34.1067 653.719 0 660.764Z" fill="#FEDCD2" fill-opacity="0.5"/>
<path d="M0 33.9977V35.5129C4.24861 33.6969 8.52475 31.8833 12.8078 30.0766C22.9332 25.8054 33.0987 21.5721 43.0266 17.4377C55.0154 12.4451 66.6579 7.59675 77.4654 3H73.9031C63.8521 7.26043 53.1271 11.7267 42.1011 16.3184L42.0931 16.3217C32.1624 20.4572 21.9875 24.6944 11.8411 28.9744C7.88402 30.6437 3.93151 32.3193 0 33.9977Z" fill="#FEDCD2" fill-opacity="0.5"/>
<rect x="82" y="3" width="307" height="194.807" fill="#FFDDD3"/>
<g filter="url(#filter0_d_304_651)">
<rect x="126.012" y="60.4404" width="394.85" height="482.397" rx="10" fill="white"/>
</g>
<rect width="30.1796" height="7.53746" transform="matrix(-1 0 0 1 256.79 90.5903)" fill="#EAECF0"/>
<rect width="52.8144" height="7.53746" transform="matrix(-1 0 0 1 212.778 90.5903)" fill="#EAECF0"/>
<ellipse rx="4.4012" ry="4.39685" transform="matrix(-1 0 0 1 485.024 93.7308)" fill="#EAECF0"/>
<ellipse rx="4.4012" ry="4.39685" transform="matrix(-1 0 0 1 471.191 93.7308)" fill="#EAECF0"/>
<ellipse rx="4.4012" ry="4.39685" transform="matrix(-1 0 0 1 457.359 93.7308)" fill="#EAECF0"/>
<rect width="372.216" height="30.1498" transform="matrix(-1 0 0 1 509.545 118.228)" fill="#EAECF0"/>
<rect opacity="0.2" width="91.7964" height="10.0499" transform="matrix(-1 0 0 1 489.425 128.277)" fill="#010101"/>
<rect opacity="0.2" width="204.97" height="7.53746" transform="matrix(-1 0 0 1 489.425 212.446)" fill="#010101"/>
<rect width="329.461" height="7.53746" transform="matrix(-1 0 0 1 489.425 279.027)" fill="#EAECF0"/>
<rect width="329.461" height="7.53746" transform="matrix(-1 0 0 1 489.425 302.896)" fill="#EAECF0"/>
<rect width="329.461" height="7.53746" transform="matrix(-1 0 0 1 489.425 326.764)" fill="#EAECF0"/>
<rect width="329.461" height="7.53746" transform="matrix(-1 0 0 1 489.425 350.633)" fill="#EAECF0"/>
<rect width="329.461" height="7.53746" transform="matrix(-1 0 0 1 489.425 374.501)" fill="#EAECF0"/>
<rect width="329.461" height="7.53746" transform="matrix(-1 0 0 1 489.425 398.37)" fill="#EAECF0"/>
<rect width="329.461" height="7.53746" transform="matrix(-1 0 0 1 489.425 422.239)" fill="#EAECF0"/>
<rect width="329.461" height="7.53746" transform="matrix(-1 0 0 1 489.425 446.107)" fill="#EAECF0"/>
<rect width="329.461" height="7.53746" transform="matrix(-1 0 0 1 489.425 469.976)" fill="#EAECF0"/>
<rect width="2.51497" height="15.0749" transform="matrix(-1 0 0 1 480.623 501)" fill="#FF7752"/>
<rect width="2.51249" height="15.0898" transform="matrix(4.37546e-08 1 1 -4.36682e-08 471.82 507.281)" fill="#FF7752"/>
<path d="M455.473 513.23C456.02 513.577 456.636 513.75 457.323 513.75C458.123 513.75 458.756 513.5 459.223 513C459.61 512.587 459.803 512.097 459.803 511.53C459.803 511.117 459.696 510.743 459.483 510.41C459.27 510.077 458.98 509.827 458.613 509.66C459.293 509.273 459.633 508.613 459.633 507.68C459.633 507.007 459.403 506.473 458.943 506.08C458.583 505.767 458.153 505.607 457.653 505.6C456.973 505.6 456.436 505.87 456.043 506.41V507.07C456.45 506.497 456.966 506.21 457.593 506.21C458.006 506.21 458.34 506.35 458.593 506.63C458.846 506.903 458.973 507.26 458.973 507.7C458.973 508.213 458.82 508.623 458.513 508.93C458.22 509.23 457.826 509.38 457.333 509.38H455.563V510H457.313C457.96 510 458.45 510.177 458.783 510.53C459.036 510.797 459.163 511.127 459.163 511.52C459.163 512 458.986 512.393 458.633 512.7C458.3 512.987 457.863 513.13 457.323 513.13H457.303C456.543 513.13 455.933 512.96 455.473 512.62V513.23ZM454.876 510L454.556 509.38H452.676C452.369 509.38 452.156 509.303 452.036 509.15C451.909 508.997 451.846 508.73 451.846 508.35C451.846 507.377 452.272 506.647 453.126 506.16L452.806 505.61C451.719 506.243 451.176 507.16 451.176 508.36C451.176 509.453 451.639 510 452.566 510H454.876ZM450.383 510L450.063 509.38H448.183C447.877 509.38 447.663 509.303 447.543 509.15C447.417 508.997 447.353 508.73 447.353 508.35C447.353 507.377 447.78 506.647 448.633 506.16L448.313 505.61C447.227 506.243 446.683 507.16 446.683 508.36C446.683 509.453 447.147 510 448.073 510H450.383ZM440.359 504.4C440.632 504.4 440.769 504.26 440.769 503.98C440.769 503.713 440.632 503.58 440.359 503.58C440.099 503.58 439.969 503.713 439.969 503.98C439.969 504.26 440.099 504.4 440.359 504.4ZM440.459 509.75C440.526 509.79 440.636 509.853 440.789 509.94L440.809 509.95C441.356 510.257 441.722 510.52 441.909 510.74C442.089 510.96 442.179 511.253 442.179 511.62C442.179 512.06 442.029 512.42 441.729 512.7C441.422 512.987 441.029 513.13 440.549 513.13H440.529C439.769 513.13 439.159 512.96 438.699 512.62V513.23C439.246 513.577 439.862 513.75 440.549 513.75C441.269 513.75 441.842 513.513 442.269 513.04C442.622 512.64 442.799 512.16 442.799 511.6C442.799 511.127 442.682 510.747 442.449 510.46C442.216 510.173 441.746 509.833 441.039 509.44C441.619 509.047 442.232 508.39 442.879 507.47V507.06C442.186 506.087 441.369 505.6 440.429 505.6C439.989 505.6 439.552 505.73 439.119 505.99C438.686 506.25 438.302 506.613 437.969 507.08V507.47C438.429 508.103 439.046 508.72 439.819 509.32C439.646 509.36 439.466 509.38 439.279 509.38H436.859V510H439.319C439.712 510 440.092 509.917 440.459 509.75ZM442.299 507.28C441.599 508.2 440.982 508.8 440.449 509.08C439.762 508.6 439.129 507.993 438.549 507.26C439.082 506.56 439.709 506.21 440.429 506.21H440.459C441.146 506.21 441.759 506.567 442.299 507.28ZM437.058 510V509.38H436.708C435.975 509.38 435.608 509 435.608 508.24V506.07L434.938 505.72V508.26C434.938 508.82 435.101 509.257 435.428 509.57C435.728 509.857 436.128 510 436.628 510H437.058ZM436.728 511.87C437.001 511.87 437.138 511.73 437.138 511.45C437.138 511.183 437.001 511.05 436.728 511.05C436.468 511.05 436.338 511.183 436.338 511.45C436.338 511.73 436.468 511.87 436.728 511.87ZM435.588 511.87C435.861 511.87 435.998 511.73 435.998 511.45C435.998 511.183 435.861 511.05 435.588 511.05C435.328 511.05 435.198 511.183 435.198 511.45C435.198 511.73 435.328 511.87 435.588 511.87ZM431.174 509.52C431.174 510.733 431.62 511.493 432.514 511.8C432.727 511.873 432.954 511.91 433.194 511.91C433.58 511.91 433.954 511.817 434.314 511.63V511.04C433.974 511.227 433.627 511.32 433.274 511.32C432.994 511.32 432.747 511.257 432.534 511.13C432.067 510.85 431.834 510.327 431.834 509.56V506.07L431.174 505.72V509.52ZM421.846 509.38H421.506V510H421.936C422.529 510 422.976 509.8 423.276 509.4C423.583 509.793 424.036 509.993 424.636 510H425.906C426.639 510 427.006 510.38 427.006 511.14V512.8L427.676 513.15V511.12C427.676 510.567 427.513 510.133 427.186 509.82C426.893 509.533 426.503 509.387 426.016 509.38C426.329 508.98 426.486 508.453 426.486 507.8C426.486 507.08 426.299 506.523 425.926 506.13C425.599 505.777 425.166 505.6 424.626 505.6C424.073 505.6 423.646 505.773 423.346 506.12C423.086 506.42 422.956 506.82 422.956 507.32V508.24C422.956 509 422.586 509.38 421.846 509.38ZM423.626 508.28V507.38C423.626 506.6 423.959 506.21 424.626 506.21C425.006 506.21 425.303 506.35 425.516 506.63C425.723 506.91 425.826 507.297 425.826 507.79C425.826 508.29 425.726 508.68 425.526 508.96C425.326 509.24 425.049 509.38 424.696 509.38C423.983 509.38 423.626 509.013 423.626 508.28ZM421.706 510V509.38H420.586C419.133 509.38 418 508.887 417.186 507.9C417.78 506.767 418.496 506.2 419.336 506.2C419.91 506.2 420.47 506.49 421.016 507.07V506.41C420.47 505.87 419.9 505.6 419.306 505.6H419.286C418.24 505.6 417.333 506.307 416.566 507.72V508.13C417.54 509.377 418.883 510 420.596 510H421.706ZM415.969 510L415.649 509.38H413.769C413.463 509.38 413.249 509.303 413.129 509.15C413.003 508.997 412.939 508.73 412.939 508.35C412.939 507.377 413.366 506.647 414.219 506.16L413.899 505.61C412.813 506.243 412.269 507.16 412.269 508.36C412.269 509.453 412.733 510 413.659 510H415.969ZM408.117 509.63C408.397 509.79 408.757 509.87 409.197 509.87C409.777 509.87 410.23 509.647 410.557 509.2C410.837 508.82 410.977 508.34 410.977 507.76C410.977 507.06 410.79 506.513 410.417 506.12C410.09 505.773 409.657 505.6 409.117 505.6C408.564 505.6 408.137 505.773 407.837 506.12C407.577 506.42 407.447 506.82 407.447 507.32V509.52C407.447 510.14 407.577 510.65 407.837 511.05C408.097 511.457 408.467 511.717 408.947 511.83C409.107 511.877 409.28 511.9 409.467 511.9C409.854 511.9 410.23 511.807 410.597 511.62V511.03C410.25 511.217 409.907 511.31 409.567 511.31C409.294 511.31 409.054 511.25 408.847 511.13C408.38 510.897 408.137 510.397 408.117 509.63ZM408.117 507.38C408.117 506.6 408.45 506.21 409.117 506.21C409.49 506.21 409.787 506.347 410.007 506.62C410.22 506.893 410.327 507.27 410.327 507.75C410.327 508.217 410.224 508.59 410.017 508.87C409.81 509.143 409.53 509.28 409.177 509.28C408.65 509.28 408.297 509.133 408.117 508.84V507.38ZM406.546 510L406.226 509.38H404.346C404.039 509.38 403.826 509.303 403.706 509.15C403.579 508.997 403.516 508.73 403.516 508.35C403.516 507.377 403.942 506.647 404.796 506.16L404.476 505.61C403.389 506.243 402.846 507.16 402.846 508.36C402.846 509.453 403.309 510 404.236 510H406.546ZM393.721 509.38H393.381V510H393.811C394.404 510 394.851 509.8 395.151 509.4C395.458 509.793 395.911 509.993 396.511 510H397.781C398.514 510 398.881 510.38 398.881 511.14V512.8L399.551 513.15V511.12C399.551 510.567 399.388 510.133 399.061 509.82C398.768 509.533 398.378 509.387 397.891 509.38C398.204 508.98 398.361 508.453 398.361 507.8C398.361 507.08 398.174 506.523 397.801 506.13C397.474 505.777 397.041 505.6 396.501 505.6C395.948 505.6 395.521 505.773 395.221 506.12C394.961 506.42 394.831 506.82 394.831 507.32V508.24C394.831 509 394.461 509.38 393.721 509.38ZM395.501 508.28V507.38C395.501 506.6 395.834 506.21 396.501 506.21C396.881 506.21 397.178 506.35 397.391 506.63C397.598 506.91 397.701 507.297 397.701 507.79C397.701 508.29 397.601 508.68 397.401 508.96C397.201 509.24 396.924 509.38 396.571 509.38C395.858 509.38 395.501 509.013 395.501 508.28ZM391.841 504.4C392.115 504.4 392.251 504.26 392.251 503.98C392.251 503.713 392.115 503.58 391.841 503.58C391.581 503.58 391.451 503.713 391.451 503.98C391.451 504.26 391.581 504.4 391.841 504.4ZM393.581 510V509.38H393.231C392.498 509.38 392.131 509 392.131 508.24V506.07L391.461 505.72V508.26C391.461 508.82 391.625 509.257 391.951 509.57C392.251 509.857 392.651 510 393.151 510H393.581ZM383.609 503.9L382.949 503.55V508.21C382.949 508.777 383.116 509.223 383.449 509.55C383.756 509.85 384.166 510 384.679 510H387.959L387.639 509.38H386.109V505.2L385.449 504.85V509.38H384.749C383.989 509.38 383.609 508.987 383.609 508.2V503.9ZM381.696 503.41L381.506 503.06H381.256C381.323 502.947 381.356 502.827 381.356 502.7C381.356 502.513 381.286 502.35 381.146 502.21C380.999 502.07 380.833 502 380.646 502C380.499 502 380.356 502.047 380.216 502.14V502.51C380.343 502.417 380.469 502.37 380.596 502.37C380.709 502.37 380.803 502.403 380.876 502.47C380.949 502.537 380.986 502.62 380.986 502.72C380.986 502.833 380.939 502.947 380.846 503.06H379.966L380.156 503.41H381.696ZM379.456 510C380.023 510 380.459 509.817 380.766 509.45C381.019 509.137 381.146 508.74 381.146 508.26V504.3L380.476 503.95V508.24C380.476 509 380.109 509.38 379.376 509.38H379.026V510H379.456ZM379.226 510V509.38H378.106C376.653 509.38 375.519 508.887 374.706 507.9C375.299 506.767 376.016 506.2 376.856 506.2C377.429 506.2 377.989 506.49 378.536 507.07V506.41C377.989 505.87 377.419 505.6 376.826 505.6H376.806C375.759 505.6 374.853 506.307 374.086 507.72V508.13C375.059 509.377 376.403 510 378.116 510H379.226ZM369.966 509.38H369.616V510H370.046C370.459 510 370.803 509.9 371.076 509.7C371.129 510.807 371.576 511.507 372.416 511.8C372.629 511.873 372.856 511.91 373.096 511.91C373.483 511.91 373.856 511.817 374.216 511.63V511.04C373.876 511.227 373.529 511.32 373.176 511.32C372.896 511.32 372.649 511.257 372.436 511.13C371.969 510.85 371.736 510.327 371.736 509.56V506.07L371.076 505.72V505.73L371.066 505.72V508.24C371.066 509 370.699 509.38 369.966 509.38ZM366.772 504.42C367.045 504.42 367.182 504.28 367.182 504C367.182 503.733 367.045 503.6 366.772 503.6C366.512 503.6 366.382 503.733 366.382 504C366.382 504.28 366.512 504.42 366.772 504.42ZM369.812 510V509.38H368.112C368.479 509.013 368.662 508.487 368.662 507.8C368.662 507.08 368.475 506.523 368.102 506.13C367.775 505.777 367.342 505.6 366.802 505.6C366.249 505.6 365.822 505.773 365.522 506.12C365.262 506.42 365.132 506.82 365.132 507.32V508.29C365.139 508.83 365.302 509.253 365.622 509.56C365.915 509.853 366.315 510 366.822 510H369.812ZM365.792 507.38C365.792 506.6 366.129 506.21 366.802 506.21C367.175 506.21 367.469 506.35 367.682 506.63C367.889 506.903 367.992 507.29 367.992 507.79C367.992 508.277 367.892 508.663 367.692 508.95C367.485 509.237 367.212 509.38 366.872 509.38C366.152 509.38 365.792 509.007 365.792 508.26V507.38Z" fill="#2D2D2D" fill-opacity="0.7"/>
<path d="M459.905 249.785H460.91V251H459.77C458.96 251 458.315 250.75 457.835 250.25C457.365 250.73 456.7 250.98 455.84 251H453.875C452.895 251 452.405 251.5 452.405 252.5V255.035L451.115 255.725V252.455C451.115 251.625 451.355 250.97 451.835 250.49C452.265 250.05 452.835 249.815 453.545 249.785C453.185 249.205 453.005 248.495 453.005 247.655C453.005 246.565 453.29 245.715 453.86 245.105C454.37 244.565 455.04 244.295 455.87 244.295C456.72 244.295 457.375 244.56 457.835 245.09C458.245 245.56 458.45 246.175 458.45 246.935V248.285C458.45 249.285 458.935 249.785 459.905 249.785ZM457.16 248.39V246.995C457.16 245.995 456.73 245.495 455.87 245.495C455.37 245.495 454.98 245.685 454.7 246.065C454.43 246.435 454.295 246.955 454.295 247.625C454.295 248.305 454.425 248.835 454.685 249.215C454.945 249.595 455.31 249.785 455.78 249.785C456.7 249.785 457.16 249.32 457.16 248.39ZM465.119 249.785H466.109V251H464.969C464.109 251 463.444 250.725 462.974 250.175C462.474 250.725 461.784 251 460.904 251H460.004V249.785H460.799C461.839 249.785 462.359 249.24 462.359 248.15V242.015L463.664 241.325V248.165C463.664 248.745 463.774 249.16 463.994 249.41C464.224 249.66 464.599 249.785 465.119 249.785ZM469.749 242.675C469.259 242.675 469.014 242.425 469.014 241.925C469.014 241.435 469.259 241.19 469.749 241.19C470.229 241.19 470.469 241.435 470.469 241.925C470.469 242.425 470.229 242.675 469.749 242.675ZM474.984 249.785H475.959V251H474.969C474.159 251 473.509 250.91 473.019 250.73C472.529 250.54 472.074 250.21 471.654 249.74C470.394 250.58 468.924 251 467.244 251H465.204V249.785H467.259C469.289 249.785 470.894 249.115 472.074 247.775C471.244 246.245 470.234 245.48 469.044 245.48C468.234 245.48 467.399 245.91 466.539 246.77V245.57C467.379 244.72 468.269 244.295 469.209 244.295C469.979 244.295 470.724 244.575 471.444 245.135C472.164 245.685 472.799 246.475 473.349 247.505V248.165C473.039 248.555 472.744 248.87 472.464 249.11C473.004 249.56 473.844 249.785 474.984 249.785ZM479.788 249.74C480.188 248.23 480.848 246.97 481.768 245.96C482.798 244.85 483.998 244.295 485.368 244.295C486.508 244.295 487.418 244.69 488.098 245.48C488.668 246.15 488.953 246.975 488.953 247.955V248.345C488.953 249.215 488.688 249.89 488.158 250.37C487.698 250.79 487.093 251 486.343 251H480.133C479.303 251 478.648 250.735 478.168 250.205C477.688 250.735 477.033 251 476.203 251H475.063V249.785H476.053C477.033 249.785 477.523 249.285 477.523 248.285V246.185L478.813 245.495V248.285C478.813 249.125 479.138 249.61 479.788 249.74ZM487.663 248.225V247.955C487.663 247.175 487.423 246.555 486.943 246.095C486.523 245.695 486.003 245.495 485.383 245.495C484.323 245.495 483.368 245.985 482.518 246.965C481.868 247.715 481.368 248.655 481.018 249.785H486.268C487.198 249.785 487.663 249.265 487.663 248.225Z" fill="#2D2D2D" fill-opacity="0.9"/>
<path d="M405.308 182C404.438 182 403.768 181.72 403.298 181.16C402.898 180.68 402.698 180.07 402.698 179.33V173.015L403.988 172.325V179.285C403.988 180.285 404.478 180.785 405.458 180.785H406.448V182H405.308ZM402.488 185.735L402.833 185.09H403.238C403.138 184.91 403.088 184.72 403.088 184.52C403.088 184.23 403.198 183.975 403.418 183.755C403.638 183.545 403.898 183.44 404.198 183.44C404.448 183.44 404.688 183.52 404.918 183.68V184.34C404.698 184.17 404.488 184.085 404.288 184.085C403.918 184.085 403.733 184.25 403.733 184.58C403.733 184.75 403.803 184.92 403.943 185.09H405.308L404.963 185.735H402.488ZM405.541 182V180.785H407.596C409.626 180.785 411.231 180.115 412.411 178.775C411.581 177.245 410.571 176.48 409.381 176.48C408.571 176.48 407.736 176.91 406.876 177.77V176.57C407.716 175.72 408.606 175.295 409.546 175.295C410.316 175.295 411.061 175.575 411.781 176.135C412.501 176.685 413.136 177.475 413.686 178.505V179.165C412.216 181.055 410.181 182 407.581 182H405.541ZM418.403 182C417.533 182 416.863 181.72 416.393 181.16C415.993 180.68 415.793 180.07 415.793 179.33V173.015L417.083 172.325V179.285C417.083 180.285 417.573 180.785 418.553 180.785H419.543V182H418.403ZM422.762 177.815C423.902 176.135 425.317 175.295 427.007 175.295C428.137 175.295 429.042 175.69 429.722 176.48C430.302 177.15 430.592 177.975 430.592 178.955V179.435C430.592 180.255 430.392 180.89 429.992 181.34C429.592 181.78 429.022 182 428.282 182H418.637V180.785H421.427L421.472 180.62V173.015L422.762 172.325V177.815ZM429.287 179.375V178.955C429.287 178.175 429.047 177.555 428.567 177.095C428.157 176.695 427.642 176.495 427.022 176.495C425.992 176.495 425.062 176.96 424.232 177.89C423.612 178.59 423.122 179.465 422.762 180.515V180.785H428.177C428.607 180.785 428.897 180.685 429.047 180.485C429.207 180.285 429.287 179.915 429.287 179.375ZM434.551 173.525C434.061 173.525 433.816 173.275 433.816 172.775C433.816 172.285 434.061 172.04 434.551 172.04C435.031 172.04 435.271 172.285 435.271 172.775C435.271 173.275 435.031 173.525 434.551 173.525ZM436.471 173.525C435.981 173.525 435.736 173.275 435.736 172.775C435.736 172.285 435.981 172.04 436.471 172.04C436.951 172.04 437.191 172.285 437.191 172.775C437.191 173.275 436.951 173.525 436.471 173.525ZM435.526 182C434.616 182 433.906 181.695 433.396 181.085C432.956 180.555 432.736 179.88 432.736 179.06C432.736 178.17 432.981 177.4 433.471 176.75C433.971 176.09 434.681 175.605 435.601 175.295C436.571 175.625 437.301 176.145 437.791 176.855C438.231 177.485 438.451 178.22 438.451 179.06C438.451 180.01 438.171 180.755 437.611 181.295C437.111 181.765 436.466 182 435.676 182H435.526ZM435.481 180.785H435.706C436.156 180.785 436.511 180.63 436.771 180.32C437.041 180.01 437.176 179.595 437.176 179.075C437.176 177.875 436.651 177.015 435.601 176.495C434.551 177.015 434.026 177.87 434.026 179.06C434.026 179.59 434.156 180.01 434.416 180.32C434.676 180.63 435.031 180.785 435.481 180.785ZM452.639 180.785H453.629V182H452.489C451.629 182 450.964 181.725 450.494 181.175C449.994 181.725 449.304 182 448.424 182H443.264L443.894 180.785H446.084V174.965L447.374 174.275V180.785H448.319C449.359 180.785 449.879 180.24 449.879 179.15V173.015L451.184 172.325V179.165C451.184 179.745 451.294 180.16 451.514 180.41C451.744 180.66 452.119 180.785 452.639 180.785ZM462.384 180.785H463.389V182H462.249C461.419 182 460.764 181.735 460.284 181.205C459.774 181.935 459.029 182.3 458.049 182.3C457.069 182.3 456.329 181.94 455.829 181.22C455.359 181.74 454.704 182 453.864 182H452.724V180.785H453.714C454.694 180.785 455.184 180.285 455.184 179.285V178.79C455.184 177.63 455.469 176.74 456.039 176.12C456.539 175.57 457.209 175.295 458.049 175.295C459.009 175.295 459.749 175.65 460.269 176.36C460.709 176.97 460.929 177.78 460.929 178.79V179.285C460.929 180.285 461.414 180.785 462.384 180.785ZM458.049 181.085C458.539 181.085 458.924 180.88 459.204 180.47C459.494 180.06 459.639 179.495 459.639 178.775C459.639 177.255 459.109 176.495 458.049 176.495C456.999 176.495 456.474 177.255 456.474 178.775C456.474 180.315 456.999 181.085 458.049 181.085ZM472.274 180.785H473.249V182H472.259C471.449 182 470.799 181.91 470.309 181.73C469.819 181.54 469.364 181.21 468.944 180.74C467.684 181.58 466.214 182 464.534 182H462.494V180.785H464.549C466.579 180.785 468.184 180.115 469.364 178.775C468.534 177.245 467.524 176.48 466.334 176.48C465.524 176.48 464.689 176.91 463.829 177.77V176.57C464.669 175.72 465.559 175.295 466.499 175.295C467.269 175.295 468.014 175.575 468.734 176.135C469.454 176.685 470.089 177.475 470.639 178.505V179.165C470.329 179.555 470.034 179.87 469.754 180.11C470.294 180.56 471.134 180.785 472.274 180.785ZM473.508 173.675C473.018 173.675 472.773 173.425 472.773 172.925C472.773 172.435 473.018 172.19 473.508 172.19C473.988 172.19 474.228 172.435 474.228 172.925C474.228 173.425 473.988 173.675 473.508 173.675ZM475.413 173.675C474.923 173.675 474.678 173.425 474.678 172.925C474.678 172.435 474.923 172.19 475.413 172.19C475.893 172.19 476.133 172.435 476.133 172.925C476.133 173.425 475.893 173.675 475.413 173.675ZM472.353 182V180.785H473.343C474.323 180.785 474.813 180.285 474.813 179.285V176.18L476.103 175.49V179.33C476.103 180.18 475.848 180.85 475.338 181.34C474.868 181.78 474.253 182 473.493 182H472.353ZM485.801 180.785V182H483.941C483.901 182.86 483.531 183.57 482.831 184.13C482.241 184.59 481.571 184.82 480.821 184.82C480.201 184.82 479.616 184.675 479.066 184.385V183.245C479.596 183.525 480.121 183.665 480.641 183.665C481.171 183.665 481.631 183.5 482.021 183.17C482.421 182.84 482.626 182.445 482.636 181.985C482.116 181.965 481.731 181.945 481.481 181.925C480.401 181.865 479.586 181.5 479.036 180.83C478.576 180.27 478.346 179.545 478.346 178.655C478.346 177.565 478.636 176.715 479.216 176.105C479.736 175.565 480.421 175.295 481.271 175.295C482.161 175.295 482.846 175.56 483.326 176.09C483.736 176.56 483.941 177.175 483.941 177.935V180.785H485.801ZM482.636 178.025C482.636 177.005 482.181 176.495 481.271 176.495C480.751 176.495 480.346 176.685 480.056 177.065C479.766 177.435 479.621 177.955 479.621 178.625C479.621 179.935 480.261 180.63 481.541 180.71C481.781 180.74 482.146 180.765 482.636 180.785V178.025ZM484.906 182V180.785H485.896C486.876 180.785 487.366 180.285 487.366 179.285V176.18L488.656 175.49V179.33C488.656 180.18 488.401 180.85 487.891 181.34C487.421 181.78 486.806 182 486.046 182H484.906Z" fill="#2D2D2D" fill-opacity="0.9"/>
<g filter="url(#filter1_d_304_651)">
<rect x="346.072" y="418.47" width="277.904" height="229.893" rx="8" fill="white"/>
</g>
<path d="M346.072 426.47C346.072 422.051 349.653 418.47 354.072 418.47H468.048V648.362H354.072C349.653 648.362 346.072 644.781 346.072 640.362V426.47Z" fill="#FFDDD3"/>
<path d="M384.735 648.362C376.402 646.168 368.221 643.011 360.405 639.029C355.466 636.513 350.67 633.667 346.072 630.525V628.999C350.84 632.304 355.829 635.288 360.976 637.91C370.311 642.665 380.158 646.227 390.148 648.362H384.735Z" fill="#FBD9D0"/>
<path d="M468.048 630.551C458.516 639.192 447.816 645.006 436.528 648.362H431.65C433.017 648.04 434.377 647.682 435.728 647.288C447.318 643.913 458.312 637.911 468.048 628.844V630.551Z" fill="#FBD9D0"/>
<path d="M468.048 422.704V423.965C467.075 423.879 466.07 423.797 465.034 423.719C452.394 422.769 435.156 422.516 416.279 425.606C393.53 429.331 368.407 437.91 346.072 455.987V454.374C368.404 436.573 393.423 428.076 416.075 424.367C435.08 421.255 452.423 421.512 465.129 422.466C466.131 422.541 467.105 422.621 468.048 422.704Z" fill="#FBD9D0"/>
<path d="M346.072 479.101C379.82 460.169 429.144 453.539 464.357 467.902C465.605 468.412 466.836 468.947 468.048 469.51V470.897C466.684 470.252 465.294 469.642 463.881 469.066C428.875 454.787 379.564 461.496 346.072 480.544V479.101Z" fill="#FBD9D0"/>
<path d="M346.072 515.922V517.368C365.312 506.339 389.26 500.015 412.529 498.318C432.822 496.839 452.507 498.884 468.048 504.333V503.003C452.337 497.58 432.623 495.593 412.438 497.065C389.294 498.753 365.413 504.993 346.072 515.922Z" fill="#FBD9D0"/>
<path d="M468.048 560.431C445.66 551.179 419.772 544.194 394.027 540.411C377.686 538.009 361.389 536.896 346.072 537.315V538.572C361.309 538.152 377.543 539.258 393.844 541.654C419.683 545.451 445.657 552.484 468.048 561.791V560.431Z" fill="#FBD9D0"/>
<path d="M468.048 593.777C449.151 610.97 429.986 617.659 412.097 617.212C389.55 616.648 368.892 604.745 353.213 587.948C350.699 585.255 348.314 582.438 346.072 579.523V581.566C348.045 584.06 350.122 586.479 352.293 588.805C368.13 605.77 389.087 617.893 412.065 618.468C430.067 618.918 449.224 612.279 468.048 595.468V593.777Z" fill="#FBD9D0"/>
<ellipse cx="382.794" cy="500.876" rx="5.55491" ry="6.10437" fill="#FF977C"/>
<path d="M385.933 505.913C386.5 504.706 386.806 502.589 386.677 500.201C386.584 498.495 386.286 496.951 385.87 495.793C385.033 495.18 384.036 494.81 382.963 494.775C382.409 495.989 382.112 498.083 382.239 500.441C382.406 503.515 383.242 506.064 384.229 506.775C384.845 506.594 385.42 506.299 385.933 505.913Z" fill="#110502"/>
<ellipse cx="440.565" cy="500.876" rx="5.55491" ry="6.10437" fill="#FF977C"/>
<path d="M437.422 505.913C436.855 504.706 436.548 502.589 436.678 500.201C436.77 498.495 437.069 496.951 437.485 495.793C438.322 495.18 439.318 494.81 440.392 494.775C440.945 495.989 441.243 498.083 441.115 500.441C440.949 503.515 440.113 506.064 439.126 506.775C438.509 506.594 437.935 506.299 437.422 505.913Z" fill="#110502"/>
<rect x="410.567" y="469.244" width="2.22196" height="11.0989" fill="#110502"/>
<path d="M440.565 499.211C440.565 513.64 427.633 516.969 411.68 516.969C395.727 516.969 382.794 513.085 382.794 499.211C382.794 487.565 392.238 474.794 411.68 474.794C431.122 474.794 440.565 487.565 440.565 499.211Z" fill="#FF977C"/>
<ellipse cx="411.68" cy="467.024" rx="3.33295" ry="3.32966" fill="#FF977C"/>
<rect x="398.348" y="514.749" width="27.7745" height="5.54943" rx="2.5" fill="#110502"/>
<path d="M400.014 491.997H420.011" stroke="white" stroke-width="0.5" stroke-linecap="round"/>
<rect x="389.46" y="493.662" width="44.4393" height="12.2087" rx="5.5" fill="#110502"/>
<path d="M451.121 572.464L438.9 542.497L442.233 537.502L455.01 568.579L451.121 572.464Z" fill="#FF977C"/>
<path d="M370.576 531.398L382.796 532.508L384.463 539.167C373.353 537.502 365.576 536.947 364.465 534.173C360.466 525.737 358.355 518.449 357.799 515.859L362.799 514.75L370.576 531.398Z" fill="#FF977C"/>
<ellipse cx="367.242" cy="532.508" rx="5.55491" ry="5.54943" fill="#110502"/>
<ellipse cx="360.576" cy="514.75" rx="4.44393" ry="4.43954" fill="#110502"/>
<ellipse cx="388.35" cy="535.838" rx="6.66589" ry="7.7692" fill="#110502"/>
<ellipse cx="438.344" cy="536.392" rx="5.55491" ry="7.21425" fill="#110502"/>
<ellipse cx="446.677" cy="555.26" rx="4.99942" ry="4.99448" fill="#110502"/>
<ellipse cx="453.897" cy="572.463" rx="4.44393" ry="4.43954" fill="#110502"/>
<path d="M440.566 529.178C440.566 529.178 428.379 533.618 413.346 533.618C398.314 533.618 386.127 529.178 386.127 529.178C386.127 526.113 398.314 521.409 413.346 521.409C428.379 521.409 440.566 526.113 440.566 529.178Z" fill="#EE795B"/>
<path d="M413.346 533.618C428.379 533.618 440.566 529.178 440.566 529.178C440.38 545.456 434.677 578.013 413.346 578.013C392.016 578.013 386.313 545.456 386.127 529.178C386.127 529.178 398.314 533.618 413.346 533.618Z" fill="#FF977C"/>
<ellipse cx="412.792" cy="546.936" rx="8.88786" ry="8.87908" fill="#110502"/>
<ellipse cx="412.792" cy="546.936" rx="5.55491" ry="5.54943" fill="white"/>
<path d="M412.792 543.607L413.429 546.301L416.125 546.936L413.429 547.572L412.792 550.266L412.156 547.572L409.459 546.936L412.156 546.301L412.792 543.607Z" fill="#3D85FF"/>
<rect x="496" y="606" width="100.599" height="22.6124" rx="10" fill="#FE7747"/>
<path d="M537.584 617.433H538.165V618H537.535C537.124 618 536.802 617.872 536.569 617.615C536.349 617.872 536.039 618 535.638 618H535.169C534.777 618 534.473 617.879 534.259 617.636C534.039 617.879 533.734 618 533.342 618H532.88C532.637 618 532.427 617.951 532.25 617.853C532.194 618.329 531.986 618.7 531.627 618.966C531.305 619.209 530.906 619.33 530.43 619.33C529.823 619.33 529.352 619.115 529.016 618.686C528.759 618.355 528.631 617.963 528.631 617.51C528.631 617.118 528.729 616.782 528.925 616.502L529.506 616.376C529.296 616.707 529.191 617.064 529.191 617.447C529.191 617.839 529.312 618.161 529.555 618.413C529.783 618.646 530.075 618.763 530.43 618.763C530.84 618.763 531.158 618.644 531.382 618.406C531.568 618.205 531.662 617.944 531.662 617.622V615.753L532.264 615.431V616.733C532.264 617.2 532.49 617.433 532.943 617.433H533.272C533.724 617.433 533.951 617.2 533.951 616.733V615.515L534.56 615.2V616.733C534.56 617.2 534.786 617.433 535.239 617.433H535.568C536.02 617.433 536.247 617.2 536.247 616.733V615.284L536.856 614.962V616.67C536.856 617.179 537.098 617.433 537.584 617.433ZM542.871 617.433H543.326V618H542.864C542.486 618 542.183 617.958 541.954 617.874C541.725 617.785 541.513 617.631 541.317 617.412C540.729 617.804 540.043 618 539.259 618H538.307V617.433H539.266C540.213 617.433 540.962 617.12 541.513 616.495C541.126 615.781 540.654 615.424 540.099 615.424C539.721 615.424 539.331 615.625 538.93 616.026V615.466C539.322 615.069 539.737 614.871 540.176 614.871C540.535 614.871 540.883 615.002 541.219 615.263C541.555 615.52 541.851 615.888 542.108 616.369V616.677C541.963 616.859 541.826 617.006 541.695 617.118C541.947 617.328 542.339 617.433 542.871 617.433ZM540.582 618.7C540.806 618.7 540.918 618.814 540.918 619.043C540.918 619.276 540.806 619.393 540.582 619.393C540.353 619.393 540.239 619.276 540.239 619.043C540.239 618.814 540.353 618.7 540.582 618.7ZM543.468 618V617.433H543.839C544.324 617.433 544.567 617.179 544.567 616.67V613.807L545.176 613.485V616.677C545.176 617.092 545.052 617.421 544.805 617.664C544.571 617.888 544.266 618 543.888 618H543.468ZM553.072 617.433H553.534V618H553.002C552.601 618 552.291 617.872 552.071 617.615C551.838 617.872 551.516 618 551.105 618H548.697L548.991 617.433H550.013V614.717L550.615 614.395V617.433H551.056C551.542 617.433 551.784 617.179 551.784 616.67V613.807L552.393 613.485V616.677C552.393 616.948 552.445 617.141 552.547 617.258C552.655 617.375 552.83 617.433 553.072 617.433ZM553.672 618V617.433H554.134C554.591 617.433 554.82 617.2 554.82 616.733V615.284L555.422 614.962V616.754C555.422 617.151 555.303 617.463 555.065 617.692C554.846 617.897 554.559 618 554.204 618H553.672ZM554.043 619.393C553.814 619.393 553.7 619.276 553.7 619.043C553.7 618.814 553.814 618.7 554.043 618.7C554.267 618.7 554.379 618.814 554.379 619.043C554.379 619.276 554.267 619.393 554.043 619.393ZM554.932 619.393C554.703 619.393 554.589 619.276 554.589 619.043C554.589 618.814 554.703 618.7 554.932 618.7C555.156 618.7 555.268 618.814 555.268 619.043C555.268 619.276 555.156 619.393 554.932 619.393ZM560.508 617.433V618H559.64C559.621 618.401 559.449 618.733 559.122 618.994C558.847 619.209 558.534 619.316 558.184 619.316C557.895 619.316 557.622 619.248 557.365 619.113V618.581C557.612 618.712 557.857 618.777 558.1 618.777C558.347 618.777 558.562 618.7 558.744 618.546C558.931 618.392 559.026 618.208 559.031 617.993C558.788 617.984 558.609 617.974 558.492 617.965C557.988 617.937 557.608 617.767 557.351 617.454C557.136 617.193 557.029 616.854 557.029 616.439C557.029 615.93 557.164 615.534 557.435 615.249C557.678 614.997 557.997 614.871 558.394 614.871C558.809 614.871 559.129 614.995 559.353 615.242C559.544 615.461 559.64 615.748 559.64 616.103V617.433H560.508ZM559.031 616.145C559.031 615.669 558.819 615.431 558.394 615.431C558.151 615.431 557.962 615.52 557.827 615.697C557.692 615.87 557.624 616.112 557.624 616.425C557.624 617.036 557.923 617.361 558.52 617.398C558.632 617.412 558.802 617.424 559.031 617.433V616.145ZM561.798 616.103C561.798 615.697 561.92 615.382 562.162 615.158C562.377 614.967 562.657 614.871 563.002 614.871C563.446 614.871 563.786 615.034 564.024 615.361C564.23 615.636 564.332 615.996 564.332 616.439C564.332 616.943 564.202 617.337 563.94 617.622C563.712 617.874 563.413 618 563.044 618C562.624 618 562.305 617.883 562.085 617.65C561.861 617.883 561.56 618 561.182 618H560.65V617.433H561.112C561.57 617.433 561.798 617.2 561.798 616.733V616.103ZM562.4 616.782C562.4 617.216 562.613 617.433 563.037 617.433C563.257 617.433 563.427 617.344 563.548 617.167C563.674 616.99 563.737 616.742 563.737 616.425C563.737 616.112 563.672 615.87 563.541 615.697C563.411 615.52 563.231 615.431 563.002 615.431C562.601 615.431 562.4 615.664 562.4 616.131V616.782Z" fill="white"/>
<path fill-rule="evenodd" clip-rule="evenodd" d="M598.802 452.389C603.664 452.389 607.605 448.452 607.605 443.595C607.605 438.738 603.664 434.801 598.802 434.801C593.941 434.801 590 438.738 590 443.595C590 448.452 593.941 452.389 598.802 452.389ZM602.165 445.303C602.434 444.774 602.575 444.189 602.575 443.595H598.802L595.736 441.4C595.39 441.883 595.163 442.44 595.073 443.027C594.983 443.614 595.034 444.214 595.22 444.777C595.407 445.341 595.724 445.853 596.146 446.271C596.568 446.689 597.083 447.001 597.649 447.183C598.214 447.365 598.815 447.41 599.402 447.316C599.989 447.222 600.545 446.99 601.025 446.64C601.505 446.29 601.896 445.832 602.165 445.303Z" fill="#FF7752"/>
<path d="M570.196 465.596L572.464 464.39V472.256C572.464 473.42 572.11 474.35 571.402 475.046C570.742 475.682 569.872 476 568.792 476H562.006L563.14 473.822H565.516V467.936L567.784 466.73V473.822H568.666C569.218 473.822 569.608 473.702 569.836 473.462C570.076 473.222 570.196 472.814 570.196 472.238V465.596ZM578.394 466.19C578.034 466.19 577.746 466.082 577.53 465.866C577.314 465.65 577.206 465.356 577.206 464.984C577.206 464.636 577.314 464.354 577.53 464.138C577.746 463.922 578.034 463.814 578.394 463.814C578.754 463.814 579.036 463.922 579.24 464.138C579.456 464.342 579.564 464.624 579.564 464.984C579.564 465.788 579.174 466.19 578.394 466.19ZM574.254 476L575.388 473.822H578.232C578.844 473.822 579.15 473.468 579.15 472.76C579.15 471.44 578.514 470.426 577.242 469.718L578.358 467.792C580.23 468.884 581.238 470.366 581.382 472.238C581.43 472.838 581.562 473.252 581.778 473.48C582.006 473.708 582.39 473.822 582.93 473.822H584.298V476H582.804C581.916 476 581.166 475.754 580.554 475.262C580.11 475.754 579.474 476 578.646 476H574.254ZM587.45 468.062C588.35 468.134 589.142 468.404 589.826 468.872C591.05 469.7 591.662 470.894 591.662 472.454V472.688C591.662 473.768 591.326 474.614 590.654 475.226C590.066 475.742 589.304 476 588.368 476H583.22V473.822H588.134C588.974 473.822 589.394 473.408 589.394 472.58V472.472C589.394 471.824 589.142 471.296 588.638 470.888C588.146 470.48 587.498 470.276 586.694 470.276C586.094 470.276 585.458 470.396 584.786 470.636V468.458L588.44 464.39H590.726L587.45 468.062ZM594.362 476V465.596L596.63 464.39V476H594.362ZM598.874 477.17V474.992C599.354 474.692 599.876 474.476 600.44 474.344C600.056 473.612 599.864 472.856 599.864 472.076C599.864 470.852 600.218 469.88 600.926 469.16C601.574 468.5 602.414 468.17 603.446 468.17C604.502 468.17 605.39 468.584 606.11 469.412V471.518C605.234 470.654 604.4 470.222 603.608 470.222C603.164 470.222 602.804 470.39 602.528 470.726C602.252 471.05 602.114 471.476 602.114 472.004C602.114 472.808 602.372 473.468 602.888 473.984C602.972 473.984 603.104 473.978 603.284 473.966C603.416 473.966 603.524 473.96 603.608 473.948C604.964 473.864 606.128 473.498 607.1 472.85L607.082 474.902C606.074 475.634 604.706 476 602.978 476C601.334 476 599.966 476.39 598.874 477.17ZM531.191 487.596L533.459 486.39V494.256C533.459 495.42 533.105 496.35 532.397 497.046C531.737 497.682 530.867 498 529.787 498H523.001L524.135 495.822H526.511V489.936L528.779 488.73V495.822H529.661C530.213 495.822 530.603 495.702 530.831 495.462C531.071 495.222 531.191 494.814 531.191 494.238V487.596ZM540 498C538.908 498 538.062 497.652 537.462 496.956C536.946 496.356 536.688 495.582 536.688 494.634V487.578L538.956 486.39V494.526C538.956 494.994 539.052 495.33 539.244 495.534C539.436 495.726 539.76 495.822 540.216 495.822H541.836V498H540ZM559.291 495.822H560.911V498H559.075C558.199 498 557.473 497.766 556.897 497.298C556.321 497.766 555.595 498 554.719 498H546.943C546.067 498 545.341 497.766 544.765 497.298C544.189 497.766 543.463 498 542.587 498H540.751V495.822H542.371C542.827 495.822 543.151 495.726 543.343 495.534C543.535 495.33 543.631 494.994 543.631 494.526V492.15L545.899 490.962V494.526C545.899 495.294 546.205 495.72 546.817 495.804C547.393 494.052 548.233 492.63 549.337 491.538C550.561 490.314 551.965 489.702 553.549 489.702C554.965 489.702 556.099 490.194 556.951 491.178C557.671 492.006 558.031 493.032 558.031 494.256V494.634C558.031 495.426 558.451 495.822 559.291 495.822ZM554.629 495.822C555.061 495.822 555.355 495.732 555.511 495.552C555.679 495.36 555.763 495.012 555.763 494.508V494.256C555.763 493.536 555.559 492.948 555.151 492.492C554.743 492.036 554.215 491.808 553.567 491.808C552.631 491.808 551.755 492.168 550.939 492.888C550.135 493.608 549.499 494.586 549.031 495.822H554.629ZM575.501 495.822H577.121V498H575.285C574.421 498 573.713 497.778 573.161 497.334C572.609 497.778 571.919 498 571.091 498H559.823V495.822H563.045L563.261 495.21V487.596L565.529 486.39V491.574C566.753 490.326 568.157 489.702 569.741 489.702C571.169 489.702 572.303 490.194 573.143 491.178C573.863 492.006 574.223 493.032 574.223 494.256V494.634C574.223 495.426 574.649 495.822 575.501 495.822ZM571.001 495.822C571.397 495.822 571.655 495.744 571.775 495.588C571.907 495.432 571.973 495.102 571.973 494.598V494.256C571.973 493.536 571.763 492.948 571.343 492.492C570.935 492.036 570.407 491.808 569.759 491.808C568.931 491.808 568.139 492.114 567.383 492.726C566.639 493.338 566.021 494.184 565.529 495.264V495.822H571.001ZM580.116 488.19C579.756 488.19 579.468 488.082 579.252 487.866C579.036 487.65 578.928 487.356 578.928 486.984C578.928 486.636 579.036 486.354 579.252 486.138C579.468 485.922 579.756 485.814 580.116 485.814C580.476 485.814 580.758 485.922 580.962 486.138C581.178 486.342 581.286 486.624 581.286 486.984C581.286 487.788 580.896 488.19 580.116 488.19ZM576.048 498V495.822H577.668C578.124 495.822 578.448 495.726 578.64 495.534C578.832 495.33 578.928 494.994 578.928 494.526V491.196L581.196 490.008V494.634C581.196 495.726 580.86 496.578 580.188 497.19C579.6 497.73 578.832 498 577.884 498H576.048ZM587.743 498C586.651 498 585.805 497.652 585.205 496.956C584.689 496.356 584.431 495.582 584.431 494.634V487.578L586.699 486.39V494.526C586.699 494.994 586.795 495.33 586.987 495.534C587.179 495.726 587.503 495.822 587.959 495.822H589.579V498H587.743ZM597.331 495.822H602.281L602.317 498H597.115C596.503 498 595.927 497.85 595.387 497.55C594.823 497.85 594.247 498 593.659 498H588.493V495.822H593.389C592.849 495.45 592.399 495.096 592.039 494.76C591.835 494.58 591.523 494.244 591.103 493.752C590.971 493.596 590.863 493.47 590.779 493.374V492.348C591.307 491.544 591.985 490.902 592.813 490.422C593.653 489.942 594.511 489.702 595.387 489.702C596.251 489.702 597.103 489.948 597.943 490.44C598.783 490.92 599.479 491.568 600.031 492.384V493.374C599.227 494.346 598.327 495.162 597.331 495.822ZM595.369 494.958C596.269 494.25 596.935 493.536 597.367 492.816C596.647 492.144 595.969 491.808 595.333 491.808C594.721 491.808 594.085 492.144 593.425 492.816C593.893 493.644 594.541 494.358 595.369 494.958ZM601.237 498V495.822H602.857C603.313 495.822 603.637 495.726 603.829 495.534C604.021 495.33 604.117 494.994 604.117 494.526V491.196L606.385 490.008V494.634C606.385 495.726 606.049 496.578 605.377 497.19C604.789 497.73 604.021 498 603.073 498H601.237ZM602.209 502.014C601.849 502.014 601.561 501.906 601.345 501.69C601.129 501.474 601.021 501.18 601.021 500.808C601.021 500.028 601.417 499.638 602.209 499.638C602.569 499.638 602.851 499.74 603.055 499.944C603.271 500.16 603.379 500.448 603.379 500.808C603.379 501.612 602.989 502.014 602.209 502.014ZM604.981 502.014C604.621 502.014 604.333 501.906 604.117 501.69C603.901 501.474 603.793 501.18 603.793 500.808C603.793 500.028 604.189 499.638 604.981 499.638C605.341 499.638 605.623 499.74 605.827 499.944C606.043 500.16 606.151 500.448 606.151 500.808C606.151 501.612 605.761 502.014 604.981 502.014ZM493.577 519.478C493.205 519.55 492.821 519.586 492.425 519.586C491.321 519.586 490.439 519.172 489.779 518.344C489.239 517.648 488.969 516.808 488.969 515.824C488.969 514.504 489.329 513.466 490.049 512.71C490.685 512.038 491.525 511.702 492.569 511.702C493.637 511.702 494.471 512.044 495.071 512.728C495.587 513.316 495.845 514.084 495.845 515.032V518.884C495.845 520.3 495.473 521.416 494.729 522.232C494.033 523 493.085 523.384 491.885 523.384C491.129 523.384 490.391 523.18 489.671 522.772V520.81C490.319 521.182 490.967 521.368 491.615 521.368C492.779 521.368 493.433 520.738 493.577 519.478ZM493.595 514.996C493.595 514.204 493.253 513.808 492.569 513.808C492.137 513.808 491.795 513.982 491.543 514.33C491.303 514.678 491.183 515.152 491.183 515.752C491.183 517.024 491.639 517.66 492.551 517.66C493.031 517.66 493.379 517.54 493.595 517.3V514.996ZM502.225 520C501.133 520 500.287 519.652 499.687 518.956C499.171 518.356 498.913 517.582 498.913 516.634V509.578L501.181 508.39V516.526C501.181 516.994 501.277 517.33 501.469 517.534C501.661 517.726 501.985 517.822 502.441 517.822H504.061V520H502.225ZM498.427 524.896L499.003 523.852H499.543C499.411 523.612 499.345 523.366 499.345 523.114C499.345 522.73 499.483 522.4 499.759 522.124C500.047 521.848 500.389 521.71 500.785 521.71C501.145 521.71 501.481 521.836 501.793 522.088V523.132C501.505 522.88 501.217 522.754 500.929 522.754C500.533 522.754 500.335 522.934 500.335 523.294C500.335 523.474 500.413 523.66 500.569 523.852H502.351L501.775 524.896H498.427ZM506.504 510.19C506.144 510.19 505.856 510.082 505.64 509.866C505.424 509.65 505.316 509.356 505.316 508.984C505.316 508.636 505.424 508.354 505.64 508.138C505.856 507.922 506.144 507.814 506.504 507.814C506.864 507.814 507.146 507.922 507.35 508.138C507.566 508.342 507.674 508.624 507.674 508.984C507.674 509.788 507.284 510.19 506.504 510.19ZM509.384 517.822H511.004V520H509.168C508.292 520 507.566 519.766 506.99 519.298C506.414 519.766 505.688 520 504.812 520H502.976V517.822H504.596C505.052 517.822 505.376 517.726 505.568 517.534C505.76 517.33 505.856 516.994 505.856 516.526V513.196L508.124 512.008V516.526C508.124 516.994 508.22 517.33 508.412 517.534C508.604 517.726 508.928 517.822 509.384 517.822ZM520.143 507.778C519.423 507.778 519.063 507.412 519.063 506.68C519.063 505.972 519.423 505.618 520.143 505.618C520.851 505.618 521.205 505.972 521.205 506.68C521.205 507.412 520.851 507.778 520.143 507.778ZM518.775 510.424C518.415 510.424 518.127 510.316 517.911 510.1C517.695 509.884 517.587 509.59 517.587 509.218C517.587 508.87 517.695 508.588 517.911 508.372C518.127 508.156 518.415 508.048 518.775 508.048C519.135 508.048 519.417 508.156 519.621 508.372C519.837 508.576 519.945 508.858 519.945 509.218C519.945 510.022 519.555 510.424 518.775 510.424ZM521.547 510.424C521.187 510.424 520.899 510.316 520.683 510.1C520.467 509.884 520.359 509.59 520.359 509.218C520.359 508.87 520.467 508.588 520.683 508.372C520.899 508.156 521.187 508.048 521.547 508.048C521.907 508.048 522.189 508.156 522.393 508.372C522.609 508.576 522.717 508.858 522.717 509.218C522.717 510.022 522.327 510.424 521.547 510.424ZM509.919 520V517.822H511.827C512.283 517.822 512.607 517.726 512.799 517.534C513.003 517.33 513.105 516.994 513.105 516.526V514.15L515.373 512.962V516.526C515.373 516.994 515.469 517.33 515.661 517.534C515.853 517.726 516.177 517.822 516.633 517.822H517.857C518.313 517.822 518.637 517.726 518.829 517.534C519.021 517.33 519.117 516.994 519.117 516.526V513.682L521.385 512.476V516.526C521.385 516.994 521.481 517.33 521.673 517.534C521.877 517.726 522.207 517.822 522.663 517.822H523.887C524.343 517.822 524.667 517.726 524.859 517.534C525.051 517.33 525.147 516.994 525.147 516.526V513.196L527.415 512.008V516.634C527.415 517.702 527.091 518.542 526.443 519.154C525.879 519.694 525.135 519.976 524.211 520H522.429C521.541 520 520.815 519.736 520.251 519.208C519.735 519.724 519.051 519.988 518.199 520H516.417C515.529 520 514.803 519.736 514.239 519.208C513.675 519.736 512.949 520 512.061 520H509.919ZM530.659 520V509.596L532.927 508.39V520H530.659ZM535.171 521.17V518.992C535.651 518.692 536.173 518.476 536.737 518.344C536.353 517.612 536.161 516.856 536.161 516.076C536.161 514.852 536.515 513.88 537.223 513.16C537.871 512.5 538.711 512.17 539.743 512.17C540.799 512.17 541.687 512.584 542.407 513.412V515.518C541.531 514.654 540.697 514.222 539.905 514.222C539.461 514.222 539.101 514.39 538.825 514.726C538.549 515.05 538.411 515.476 538.411 516.004C538.411 516.808 538.669 517.468 539.185 517.984C539.269 517.984 539.401 517.978 539.581 517.966C539.713 517.966 539.821 517.96 539.905 517.948C541.261 517.864 542.425 517.498 543.397 516.85L543.379 518.902C542.371 519.634 541.003 520 539.275 520C537.631 520 536.263 520.39 535.171 521.17ZM560.699 517.822H562.319V520H560.483C559.547 520 558.785 519.736 558.197 519.208C557.537 519.736 556.727 520 555.767 520H548.981L550.115 517.822H552.491V511.936L554.759 510.73V517.822H555.641C556.193 517.822 556.583 517.702 556.811 517.462C557.051 517.222 557.171 516.814 557.171 516.238V509.596L559.439 508.39V516.526C559.439 516.994 559.535 517.33 559.727 517.534C559.919 517.726 560.243 517.822 560.699 517.822ZM572.695 517.822H574.297V520H572.461C571.597 520 570.889 519.778 570.337 519.334C569.689 520.018 568.837 520.36 567.781 520.36C566.701 520.36 565.849 520.018 565.225 519.334C564.649 519.778 563.935 520 563.083 520H561.247V517.822H562.867C563.323 517.822 563.647 517.726 563.839 517.534C564.031 517.33 564.127 516.994 564.127 516.526V516.004C564.127 514.6 564.493 513.508 565.225 512.728C565.861 512.044 566.713 511.702 567.781 511.702C568.993 511.702 569.929 512.146 570.589 513.034C571.141 513.79 571.417 514.78 571.417 516.004V516.526C571.417 516.994 571.513 517.33 571.705 517.534C571.909 517.726 572.239 517.822 572.695 517.822ZM567.781 518.182C568.693 518.182 569.149 517.438 569.149 515.95C569.149 514.522 568.693 513.808 567.781 513.808C566.857 513.808 566.395 514.522 566.395 515.95C566.395 517.438 566.857 518.182 567.781 518.182ZM584.954 517.822H586.466V520H584.936C583.988 520 583.226 519.898 582.65 519.694C582.086 519.478 581.558 519.106 581.066 518.578C579.566 519.526 577.838 520 575.882 520H573.218V517.822H575.9C578.012 517.822 579.692 517.192 580.94 515.932C580.124 514.504 579.134 513.79 577.97 513.79C577.01 513.79 575.96 514.312 574.82 515.356V513.358C575.828 512.254 576.968 511.702 578.24 511.702C579.176 511.702 580.088 512.044 580.976 512.728C581.864 513.412 582.65 514.384 583.334 515.644V516.544C583.142 516.796 582.89 517.078 582.578 517.39C583.058 517.678 583.85 517.822 584.954 517.822ZM586.678 510.19C586.318 510.19 586.03 510.082 585.814 509.866C585.598 509.65 585.49 509.356 585.49 508.984C585.49 508.204 585.886 507.814 586.678 507.814C587.038 507.814 587.32 507.922 587.524 508.138C587.74 508.342 587.848 508.624 587.848 508.984C587.848 509.788 587.458 510.19 586.678 510.19ZM589.45 510.19C589.09 510.19 588.802 510.082 588.586 509.866C588.37 509.65 588.262 509.356 588.262 508.984C588.262 508.204 588.658 507.814 589.45 507.814C589.81 507.814 590.092 507.922 590.296 508.138C590.512 508.342 590.62 508.624 590.62 508.984C590.62 509.788 590.23 510.19 589.45 510.19ZM585.382 520V517.822H587.002C587.458 517.822 587.782 517.726 587.974 517.534C588.166 517.33 588.262 516.994 588.262 516.526V513.196L590.53 512.008V516.634C590.53 517.726 590.194 518.578 589.522 519.19C588.934 519.73 588.166 520 587.218 520H585.382ZM602.315 517.822V520H600.101C600.017 521.08 599.537 521.944 598.661 522.592C597.941 523.12 597.101 523.384 596.141 523.384C595.385 523.384 594.647 523.18 593.927 522.772V520.81C594.575 521.182 595.223 521.368 595.871 521.368C596.375 521.368 596.819 521.23 597.203 520.954C597.599 520.678 597.815 520.348 597.851 519.964C597.755 519.952 597.605 519.94 597.401 519.928C597.197 519.904 597.041 519.886 596.933 519.874C595.697 519.742 594.743 519.256 594.071 518.416C593.507 517.708 593.225 516.85 593.225 515.842C593.225 514.522 593.585 513.478 594.305 512.71C594.941 512.038 595.781 511.702 596.825 511.702C597.893 511.702 598.727 512.044 599.327 512.728C599.843 513.316 600.101 514.084 600.101 515.032V517.822H602.315ZM597.851 514.996C597.851 514.204 597.509 513.808 596.825 513.808C595.913 513.808 595.457 514.462 595.457 515.77C595.457 516.934 595.985 517.582 597.041 517.714C597.209 517.75 597.479 517.78 597.851 517.804V514.996ZM601.237 520V517.822H602.857C603.313 517.822 603.637 517.726 603.829 517.534C604.021 517.33 604.117 516.994 604.117 516.526V513.196L606.385 512.008V516.634C606.385 517.726 606.049 518.578 605.377 519.19C604.789 519.73 604.021 520 603.073 520H601.237Z" fill="#2D2D2D" fill-opacity="0.9"/>
<path d="M507.282 559C506.887 559 506.572 558.877 506.338 558.632C506.103 558.381 505.986 558.045 505.986 557.624V556.576L506.522 556.296V557.56C506.522 558.189 506.815 558.504 507.402 558.504H510.082C510.668 558.504 510.962 558.189 510.962 557.56V555.856L511.498 555.576V557.624C511.498 558.077 511.359 558.429 511.082 558.68C510.842 558.893 510.527 559 510.138 559H507.282ZM508.586 560.496C508.367 560.496 508.258 560.384 508.258 560.16C508.258 559.947 508.367 559.84 508.586 559.84C508.794 559.84 508.898 559.947 508.898 560.16C508.898 560.384 508.794 560.496 508.586 560.496ZM512.299 559L512.555 558.504H514.059C514.304 558.504 514.475 558.443 514.571 558.32C514.672 558.197 514.723 557.984 514.723 557.68C514.723 556.901 514.381 556.317 513.699 555.928L513.955 555.488C514.824 555.995 515.259 556.728 515.259 557.688C515.259 558.563 514.888 559 514.147 559H512.299ZM516.093 553.728L516.245 553.448H516.445C516.391 553.357 516.365 553.261 516.365 553.16C516.365 553.011 516.421 552.88 516.533 552.768C516.65 552.656 516.783 552.6 516.933 552.6C517.05 552.6 517.165 552.637 517.277 552.712V553.008C517.175 552.933 517.074 552.896 516.973 552.896C516.882 552.896 516.807 552.923 516.749 552.976C516.69 553.029 516.661 553.096 516.661 553.176C516.661 553.267 516.698 553.357 516.773 553.448H517.477L517.325 553.728H516.093ZM517.885 559C517.431 559 517.082 558.853 516.837 558.56C516.634 558.309 516.533 557.992 516.533 557.608V554.44L517.069 554.16V557.592C517.069 558.2 517.362 558.504 517.949 558.504H518.229V559H517.885ZM519.46 554.52C519.242 554.52 519.132 554.408 519.132 554.184C519.132 553.971 519.242 553.864 519.46 553.864C519.668 553.864 519.772 553.971 519.772 554.184C519.772 554.408 519.668 554.52 519.46 554.52ZM518.068 559V558.504H518.348C518.935 558.504 519.228 558.2 519.228 557.592V555.856L519.764 555.576V557.608C519.764 558.056 519.634 558.405 519.372 558.656C519.132 558.885 518.812 559 518.412 559H518.068ZM521.204 559V554.12L521.74 553.84V559H521.204ZM527.223 555.28C527.009 555.28 526.903 555.168 526.903 554.944C526.903 554.731 527.009 554.624 527.223 554.624C527.436 554.624 527.543 554.731 527.543 554.944C527.543 555.168 527.436 555.28 527.223 555.28ZM528.143 555.28C527.924 555.28 527.815 555.168 527.815 554.944C527.815 554.731 527.924 554.624 528.143 554.624C528.351 554.624 528.455 554.731 528.455 554.944C528.455 555.168 528.351 555.28 528.143 555.28ZM531.495 558.504H531.775V559H531.431C530.951 559 530.591 558.837 530.351 558.512C530.1 558.837 529.735 559 529.255 559H526.399C526.004 559 525.689 558.877 525.455 558.632C525.22 558.381 525.103 558.045 525.103 557.624V556.576L525.639 556.296V557.56C525.639 558.189 525.932 558.504 526.519 558.504H529.199C529.785 558.504 530.079 558.189 530.079 557.56V555.856L530.615 555.576V557.592C530.615 558.2 530.908 558.504 531.495 558.504ZM531.451 559V558.504H532.347C533.51 558.504 534.417 558.109 535.067 557.32C534.593 556.413 534.019 555.96 533.347 555.96C532.889 555.96 532.441 556.192 532.003 556.656V556.128C532.441 555.696 532.897 555.48 533.371 555.48H533.387C534.225 555.48 534.95 556.045 535.563 557.176V557.504C534.785 558.501 533.71 559 532.339 559H531.451ZM533.563 560.496C533.345 560.496 533.235 560.384 533.235 560.16C533.235 559.947 533.345 559.84 533.563 559.84C533.771 559.84 533.875 559.947 533.875 560.16C533.875 560.384 533.771 560.496 533.563 560.496ZM536.681 559V554.12L537.217 553.84V559H536.681ZM541.117 558.504H541.397V559H541.053C540.722 559 540.448 558.92 540.229 558.76C540.186 559.645 539.829 560.205 539.157 560.44C538.986 560.499 538.805 560.528 538.613 560.528C538.304 560.528 538.005 560.453 537.717 560.304V559.832C537.989 559.981 538.266 560.056 538.549 560.056C538.773 560.056 538.97 560.005 539.141 559.904C539.514 559.68 539.701 559.261 539.701 558.648V555.856L540.229 555.576V555.584L540.237 555.576V557.592C540.237 558.2 540.53 558.504 541.117 558.504ZM543.816 558.504H544.096V559H543.752C543.272 559 542.912 558.837 542.672 558.512C542.422 558.837 542.059 559 541.584 559H541.24V558.504H541.52C542.107 558.504 542.4 558.2 542.4 557.592V555.856L542.936 555.576V557.592C542.936 558.2 543.23 558.504 543.816 558.504ZM542.584 559.84C542.792 559.84 542.896 559.947 542.896 560.16C542.896 560.384 542.792 560.496 542.584 560.496C542.366 560.496 542.256 560.384 542.256 560.16C542.256 559.947 542.366 559.84 542.584 559.84ZM545.328 554.52C545.109 554.52 545 554.408 545 554.184C545 553.971 545.109 553.864 545.328 553.864C545.536 553.864 545.64 553.971 545.64 554.184C545.64 554.408 545.536 554.52 545.328 554.52ZM543.936 559V558.504H544.216C544.802 558.504 545.096 558.2 545.096 557.592V555.856L545.632 555.576V557.608C545.632 558.056 545.501 558.405 545.24 558.656C545 558.885 544.68 559 544.28 559H543.936ZM547.072 559V554.12L547.608 553.84V559H547.072ZM555.306 558.504H555.586V559H555.242C554.751 559 554.386 558.832 554.146 558.496C553.895 558.832 553.525 559 553.034 559H550.41L550.666 558.504H551.89V555.16L552.418 554.88V558.504H552.978C553.586 558.504 553.89 558.189 553.89 557.56V554.12L554.418 553.84V555.584L554.426 555.576V557.592C554.426 558.2 554.719 558.504 555.306 558.504ZM557.668 554.52C557.449 554.52 557.34 554.408 557.34 554.184C557.34 553.971 557.449 553.864 557.668 553.864C557.876 553.864 557.98 553.971 557.98 554.184C557.98 554.408 557.876 554.52 557.668 554.52ZM555.428 559V558.504H556.324C557.486 558.504 558.393 558.109 559.044 557.32C558.569 556.413 557.996 555.96 557.324 555.96C556.865 555.96 556.417 556.192 555.98 556.656V556.128C556.417 555.696 556.873 555.48 557.348 555.48H557.364C558.201 555.48 558.926 556.045 559.54 557.176V557.504C558.761 558.501 557.686 559 556.316 559H555.428ZM562.01 559C561.556 559 561.207 558.853 560.962 558.56C560.759 558.309 560.658 557.992 560.658 557.608V554.12L561.194 553.84V557.592C561.194 558.2 561.487 558.504 562.074 558.504H562.354V559H562.01ZM564.473 558.472C564.671 557.651 565.015 556.963 565.505 556.408C566.055 555.789 566.7 555.48 567.441 555.48C568.039 555.48 568.513 555.685 568.865 556.096C569.164 556.448 569.313 556.883 569.313 557.4V557.624C569.313 558.077 569.175 558.429 568.897 558.68C568.663 558.893 568.351 559 567.961 559H564.705C564.225 559 563.865 558.837 563.625 558.512C563.375 558.837 563.012 559 562.537 559H562.193V558.504H562.473C563.06 558.504 563.353 558.2 563.353 557.592V556.44L563.889 556.16V557.592C563.889 558.093 564.084 558.387 564.473 558.472ZM568.777 557.56V557.4C568.777 556.952 568.636 556.592 568.353 556.32C568.113 556.085 567.812 555.968 567.449 555.968C566.825 555.968 566.271 556.261 565.785 556.848C565.417 557.296 565.14 557.848 564.953 558.504H567.921C568.492 558.504 568.777 558.189 568.777 557.56ZM571.443 554.48C571.229 554.48 571.123 554.368 571.123 554.144C571.123 553.931 571.229 553.824 571.443 553.824C571.656 553.824 571.763 553.931 571.763 554.144C571.763 554.368 571.656 554.48 571.443 554.48ZM572.355 554.48C572.141 554.48 572.035 554.368 572.035 554.144C572.035 553.931 572.141 553.824 572.355 553.824C572.568 553.824 572.675 553.931 572.675 554.144C572.675 554.368 572.568 554.48 572.355 554.48ZM571.915 559C571.44 559 571.069 558.843 570.803 558.528C570.579 558.256 570.467 557.904 570.467 557.472C570.467 556.485 570.963 555.821 571.955 555.48C572.947 555.821 573.443 556.485 573.443 557.472C573.443 557.968 573.296 558.355 573.003 558.632C572.747 558.877 572.411 559 571.995 559H571.915ZM571.891 558.504H572.019C572.296 558.504 572.515 558.413 572.675 558.232C572.835 558.045 572.915 557.792 572.915 557.472C572.915 556.763 572.595 556.261 571.955 555.968C571.315 556.261 570.995 556.763 570.995 557.472C570.995 557.787 571.075 558.037 571.235 558.224C571.395 558.411 571.613 558.504 571.891 558.504ZM580.73 558.504H581.002V559H580.658C580.184 559 579.826 558.84 579.586 558.52C579.341 558.835 578.978 558.995 578.498 559H577.482C576.896 559 576.602 559.304 576.602 559.912V561.24L576.066 561.52V559.896C576.066 559.453 576.197 559.107 576.458 558.856C576.693 558.627 577.005 558.509 577.394 558.504C577.144 558.184 577.018 557.763 577.018 557.24C577.018 556.664 577.168 556.219 577.466 555.904C577.728 555.621 578.074 555.48 578.506 555.48C578.949 555.48 579.29 555.619 579.53 555.896C579.738 556.136 579.842 556.456 579.842 556.856V557.592C579.842 558.2 580.138 558.504 580.73 558.504ZM579.306 557.624V556.904C579.306 556.28 579.04 555.968 578.506 555.968C578.202 555.968 577.965 556.08 577.794 556.304C577.629 556.528 577.546 556.837 577.546 557.232C577.546 557.632 577.626 557.944 577.786 558.168C577.946 558.392 578.168 558.504 578.45 558.504C579.021 558.504 579.306 558.211 579.306 557.624ZM584.938 558.504V559H580.842V558.504H582.186C581.85 558.163 581.682 557.709 581.682 557.144C581.682 556.605 581.866 556.179 582.234 555.864C582.527 555.613 582.871 555.485 583.266 555.48C583.815 555.48 584.245 555.696 584.554 556.128V556.656C584.234 556.197 583.823 555.968 583.322 555.968H583.298C582.978 555.968 582.717 556.077 582.514 556.296C582.317 556.515 582.218 556.803 582.218 557.16C582.218 557.571 582.341 557.899 582.586 558.144C582.821 558.384 583.135 558.504 583.53 558.504H584.938ZM589.81 555.336C589.591 555.336 589.482 555.224 589.482 555C589.482 554.787 589.591 554.68 589.81 554.68C590.018 554.68 590.122 554.787 590.122 555C590.122 555.224 590.018 555.336 589.81 555.336ZM592.77 558.504H593.05V559H592.706C592.375 559 592.1 558.923 591.882 558.768C591.844 559.328 591.62 559.768 591.21 560.088C590.847 560.376 590.388 560.52 589.834 560.52C589.156 560.52 588.631 560.28 588.258 559.8C587.964 559.432 587.818 558.992 587.818 558.48C587.818 558.021 587.935 557.627 588.17 557.296L588.69 557.192C588.434 557.581 588.306 557.997 588.306 558.44C588.306 558.909 588.458 559.296 588.762 559.6C589.044 559.883 589.402 560.024 589.834 560.024C590.34 560.024 590.732 559.875 591.01 559.576C591.239 559.331 591.354 559.008 591.354 558.608V555.856L591.89 555.576V557.592C591.89 558.2 592.183 558.504 592.77 558.504ZM594.049 556.856C594.049 556.403 594.185 556.051 594.457 555.8C594.691 555.587 595.001 555.48 595.385 555.48C595.881 555.48 596.262 555.661 596.529 556.024C596.758 556.333 596.873 556.739 596.873 557.24C596.873 557.811 596.726 558.256 596.433 558.576C596.177 558.859 595.843 559 595.433 559C594.931 559 594.558 558.84 594.313 558.52C594.073 558.84 593.713 559 593.233 559H592.889V558.504H593.169C593.755 558.504 594.049 558.2 594.049 557.592V556.856ZM594.585 557.624C594.585 558.211 594.873 558.504 595.449 558.504C595.726 558.504 595.945 558.392 596.105 558.168C596.265 557.944 596.345 557.632 596.345 557.232C596.345 556.837 596.259 556.528 596.089 556.304C595.923 556.08 595.689 555.968 595.385 555.968C594.851 555.968 594.585 556.28 594.585 556.904V557.624ZM598.197 559V554.12L598.733 553.84V559H598.197ZM601.221 554.52C601.002 554.52 600.893 554.408 600.893 554.184C600.893 553.971 601.002 553.864 601.221 553.864C601.429 553.864 601.533 553.971 601.533 554.184C601.533 554.408 601.429 554.52 601.221 554.52ZM599.533 559L599.789 558.504H601.293C601.538 558.504 601.709 558.443 601.805 558.32C601.906 558.197 601.957 557.984 601.957 557.68C601.957 556.896 601.613 556.312 600.925 555.928L601.189 555.488C602.037 555.979 602.469 556.669 602.485 557.56C602.49 558.189 602.797 558.504 603.405 558.504H603.653V559H603.349C602.885 559 602.53 558.845 602.285 558.536C602.104 558.845 601.802 559 601.381 559H599.533ZM603.49 559V558.504H604.386C605.549 558.504 606.456 558.109 607.106 557.32C606.632 556.413 606.058 555.96 605.386 555.96C604.928 555.96 604.48 556.192 604.042 556.656V556.128C604.48 555.696 604.936 555.48 605.41 555.48H605.426C606.264 555.48 606.989 556.045 607.602 557.176V557.504C606.824 558.501 605.749 559 604.378 559H603.49ZM605.602 560.496C605.384 560.496 605.274 560.384 605.274 560.16C605.274 559.947 605.384 559.84 605.602 559.84C605.81 559.84 605.914 559.947 605.914 560.16C605.914 560.384 605.81 560.496 605.602 560.496ZM516.012 568.504H516.284V569H515.94C515.465 569 515.107 568.84 514.868 568.52C514.622 568.835 514.26 568.995 513.78 569H512.764C512.177 569 511.884 569.304 511.884 569.912V571.24L511.348 571.52V569.896C511.348 569.453 511.478 569.107 511.74 568.856C511.974 568.627 512.286 568.509 512.676 568.504C512.425 568.184 512.3 567.763 512.3 567.24C512.3 566.664 512.449 566.219 512.748 565.904C513.009 565.621 513.356 565.48 513.788 565.48C514.23 565.48 514.572 565.619 514.812 565.896C515.02 566.136 515.124 566.456 515.124 566.856V567.592C515.124 568.2 515.42 568.504 516.012 568.504ZM514.588 567.624V566.904C514.588 566.28 514.321 565.968 513.788 565.968C513.484 565.968 513.246 566.08 513.076 566.304C512.91 566.528 512.828 566.837 512.828 567.232C512.828 567.632 512.908 567.944 513.068 568.168C513.228 568.392 513.449 568.504 513.732 568.504C514.302 568.504 514.588 568.211 514.588 567.624ZM518.363 564.52C518.144 564.52 518.035 564.408 518.035 564.184C518.035 563.971 518.144 563.864 518.363 563.864C518.571 563.864 518.675 563.971 518.675 564.184C518.675 564.408 518.571 564.52 518.363 564.52ZM521.179 568.504H521.459V569H521.171C520.728 569 520.374 568.949 520.107 568.848C519.846 568.747 519.603 568.568 519.379 568.312C518.696 568.771 517.907 569 517.011 569H516.123V568.504H517.019C518.182 568.504 519.088 568.109 519.739 567.32C519.264 566.413 518.691 565.96 518.019 565.96C517.56 565.96 517.112 566.192 516.675 566.656V566.128C517.112 565.696 517.568 565.48 518.043 565.48H518.059C518.896 565.48 519.622 566.045 520.235 567.176V567.504C520.07 567.717 519.894 567.901 519.707 568.056C519.878 568.221 520.07 568.339 520.283 568.408C520.502 568.472 520.8 568.504 521.179 568.504ZM522.111 564.544C521.897 564.544 521.791 564.435 521.791 564.216C521.791 563.997 521.897 563.888 522.111 563.888C522.324 563.888 522.431 563.997 522.431 564.216C522.431 564.435 522.324 564.544 522.111 564.544ZM523.023 564.544C522.809 564.544 522.703 564.435 522.703 564.216C522.703 563.997 522.809 563.888 523.023 563.888C523.236 563.888 523.343 563.997 523.343 564.216C523.343 564.435 523.236 564.544 523.023 564.544ZM523.879 568.504H524.159V569H523.815C523.335 569 522.975 568.837 522.735 568.512C522.484 568.837 522.121 569 521.647 569H521.303V568.504H521.583C522.169 568.504 522.463 568.2 522.463 567.592V565.856L522.999 565.576V567.592C522.999 568.2 523.292 568.504 523.879 568.504ZM526.55 568.504H526.83V569H526.486C525.995 569 525.63 568.832 525.39 568.496C525.139 568.832 524.769 569 524.278 569H523.998V568.504H524.222C524.83 568.504 525.134 568.189 525.134 567.56V564.12L525.67 563.84V567.592C525.67 568.2 525.963 568.504 526.55 568.504ZM529.102 564.536C528.883 564.536 528.774 564.424 528.774 564.2C528.774 563.987 528.883 563.88 529.102 563.88C529.31 563.88 529.414 563.987 529.414 564.2C529.414 564.424 529.31 564.536 529.102 564.536ZM526.67 569V568.504H528.03C527.737 568.211 527.59 567.789 527.59 567.24C527.59 566.664 527.739 566.219 528.038 565.904C528.299 565.621 528.646 565.48 529.078 565.48C529.521 565.48 529.862 565.619 530.102 565.896C530.31 566.136 530.414 566.456 530.414 566.856V567.632C530.409 568.064 530.278 568.403 530.022 568.648C529.787 568.883 529.467 569 529.062 569H526.67ZM529.886 566.904C529.886 566.28 529.617 565.968 529.078 565.968C528.779 565.968 528.545 566.08 528.374 566.304C528.209 566.523 528.126 566.832 528.126 567.232C528.126 567.621 528.206 567.931 528.366 568.16C528.531 568.389 528.75 568.504 529.022 568.504C529.598 568.504 529.886 568.205 529.886 567.608V566.904ZM532.607 564.48C532.393 564.48 532.287 564.368 532.287 564.144C532.287 563.931 532.393 563.824 532.607 563.824C532.82 563.824 532.927 563.931 532.927 564.144C532.927 564.368 532.82 564.48 532.607 564.48ZM533.519 564.48C533.305 564.48 533.199 564.368 533.199 564.144C533.199 563.931 533.305 563.824 533.519 563.824C533.732 563.824 533.839 563.931 533.839 564.144C533.839 564.368 533.732 564.48 533.519 564.48ZM533.079 569C532.604 569 532.233 568.843 531.967 568.528C531.743 568.256 531.631 567.904 531.631 567.472C531.631 566.485 532.127 565.821 533.119 565.48C534.111 565.821 534.607 566.485 534.607 567.472C534.607 567.968 534.46 568.355 534.167 568.632C533.911 568.877 533.575 569 533.159 569H533.079ZM533.055 568.504H533.183C533.46 568.504 533.679 568.413 533.839 568.232C533.999 568.045 534.079 567.792 534.079 567.472C534.079 566.763 533.759 566.261 533.119 565.968C532.479 566.261 532.159 566.763 532.159 567.472C532.159 567.787 532.239 568.037 532.399 568.224C532.559 568.411 532.777 568.504 533.055 568.504ZM544.182 568.504H544.462V569H544.118C543.638 569 543.278 568.837 543.038 568.512C542.788 568.837 542.422 569 541.942 569H539.086C538.692 569 538.377 568.877 538.142 568.632C537.908 568.381 537.79 568.045 537.79 567.624V566.576L538.326 566.296V567.56C538.326 568.189 538.62 568.504 539.206 568.504H541.886C542.473 568.504 542.766 568.189 542.766 567.56V565.856L543.302 565.576V567.592C543.302 568.2 543.596 568.504 544.182 568.504ZM540.198 569.84C540.406 569.84 540.51 569.947 540.51 570.16C540.51 570.384 540.406 570.496 540.198 570.496C539.98 570.496 539.87 570.384 539.87 570.16C539.87 569.947 539.98 569.84 540.198 569.84ZM548.235 568.504V569H544.139V568.504H545.483C545.147 568.163 544.979 567.709 544.979 567.144C544.979 566.605 545.163 566.179 545.531 565.864C545.824 565.613 546.168 565.485 546.563 565.48C547.112 565.48 547.541 565.696 547.851 566.128V566.656C547.531 566.197 547.12 565.968 546.619 565.968H546.595C546.275 565.968 546.013 566.077 545.811 566.296C545.613 566.515 545.515 566.803 545.515 567.16C545.515 567.571 545.637 567.899 545.883 568.144C546.117 568.384 546.432 568.504 546.827 568.504H548.235ZM548.713 569L548.969 568.504H550.473C550.718 568.504 550.889 568.443 550.985 568.32C551.086 568.197 551.137 567.984 551.137 567.68C551.137 566.901 550.795 566.317 550.113 565.928L550.369 565.488C551.238 565.995 551.673 566.728 551.673 567.688C551.673 568.563 551.302 569 550.561 569H548.713ZM555.916 564.52C555.698 564.52 555.588 564.408 555.588 564.184C555.588 563.971 555.698 563.864 555.916 563.864C556.124 563.864 556.228 563.971 556.228 564.184C556.228 564.408 556.124 564.52 555.916 564.52ZM554.228 569L554.484 568.504H555.988C556.234 568.504 556.404 568.443 556.5 568.32C556.602 568.197 556.652 567.984 556.652 567.68C556.652 566.896 556.308 566.312 555.62 565.928L555.884 565.488C556.732 565.979 557.164 566.669 557.18 567.56C557.186 568.189 557.492 568.504 558.1 568.504H558.348V569H558.044C557.58 569 557.226 568.845 556.98 568.536C556.799 568.845 556.498 569 556.076 569H554.228ZM560.738 568.504H561.018V569H560.674C560.183 569 559.818 568.832 559.578 568.496C559.327 568.832 558.956 569 558.466 569H558.186V568.504H558.41C559.018 568.504 559.322 568.189 559.322 567.56V564.12L559.858 563.84V567.592C559.858 568.2 560.151 568.504 560.738 568.504ZM562.122 565.696C562.175 565.691 562.231 565.688 562.29 565.688C562.77 565.688 563.18 565.805 563.522 566.04C563.991 566.376 564.226 566.856 564.226 567.48V567.632C564.226 568.08 564.087 568.429 563.81 568.68C563.57 568.893 563.258 569 562.874 569H560.857V568.504H562.818C563.399 568.504 563.69 568.192 563.69 567.568V567.488C563.69 567.056 563.535 566.733 563.226 566.52C562.97 566.328 562.644 566.232 562.25 566.232C561.962 566.232 561.676 566.283 561.394 566.384V565.856L563.21 563.84H563.762L562.122 565.696ZM568.641 569C568.246 569 567.932 568.877 567.697 568.632C567.462 568.381 567.345 568.045 567.345 567.624V566.576L567.881 566.296V567.56C567.881 568.189 568.174 568.504 568.761 568.504H571.441C572.028 568.504 572.321 568.189 572.321 567.56V565.856L572.857 565.576V567.624C572.857 568.077 572.718 568.429 572.441 568.68C572.201 568.893 571.886 569 571.497 569H568.641ZM569.945 570.496C569.726 570.496 569.617 570.384 569.617 570.16C569.617 569.947 569.726 569.84 569.945 569.84C570.153 569.84 570.257 569.947 570.257 570.16C570.257 570.384 570.153 570.496 569.945 570.496ZM577.81 568.504V569H576.962C576.957 569.352 576.842 569.661 576.618 569.928C576.399 570.2 576.114 570.379 575.762 570.464C575.634 570.501 575.495 570.52 575.346 570.52C575.037 570.52 574.735 570.445 574.442 570.296V569.824C574.719 569.973 574.994 570.048 575.266 570.048C575.485 570.048 575.677 570 575.842 569.904C576.007 569.819 576.146 569.688 576.258 569.512C576.37 569.341 576.426 569.171 576.426 569L575.746 568.976C575.154 568.949 574.711 568.763 574.418 568.416C574.178 568.123 574.058 567.731 574.058 567.24C574.058 566.664 574.207 566.219 574.506 565.904C574.773 565.621 575.13 565.48 575.578 565.48C576.042 565.48 576.397 565.619 576.642 565.896C576.855 566.136 576.962 566.456 576.962 566.856V568.504H577.81ZM576.426 566.912C576.426 566.283 576.143 565.968 575.578 565.968C575.263 565.968 575.018 566.08 574.842 566.304C574.671 566.523 574.586 566.832 574.586 567.232C574.586 568.027 574.978 568.443 575.762 568.48C575.997 568.496 576.218 568.504 576.426 568.504V566.912ZM579.503 564.544C579.284 564.544 579.175 564.432 579.175 564.208C579.175 563.995 579.284 563.888 579.503 563.888C579.711 563.888 579.815 563.995 579.815 564.208C579.815 564.432 579.711 564.544 579.503 564.544ZM580.415 564.544C580.196 564.544 580.087 564.432 580.087 564.208C580.087 563.995 580.196 563.888 580.415 563.888C580.623 563.888 580.727 563.995 580.727 564.208C580.727 564.432 580.623 564.544 580.415 564.544ZM580.791 568.504H582.255V569H580.447C580.265 569 580.1 568.981 579.951 568.944C579.801 568.981 579.636 569 579.455 569H577.647V568.504H579.119C578.697 568.115 578.487 567.653 578.487 567.12C578.487 566.603 578.631 566.192 578.919 565.888C579.18 565.616 579.524 565.48 579.951 565.48C580.436 565.48 580.812 565.656 581.079 566.008C581.303 566.301 581.415 566.672 581.415 567.12C581.415 567.659 581.207 568.12 580.791 568.504ZM579.983 568.432C580.255 568.336 580.476 568.165 580.647 567.92C580.823 567.669 580.911 567.4 580.911 567.112C580.911 566.76 580.823 566.483 580.647 566.28C580.476 566.072 580.244 565.968 579.951 565.968C579.657 565.968 579.425 566.072 579.255 566.28C579.084 566.483 578.999 566.757 578.999 567.104C578.999 567.397 579.084 567.669 579.255 567.92C579.425 568.165 579.647 568.336 579.919 568.432L579.951 568.44L579.967 568.432H579.983ZM582.572 564.52C582.353 564.52 582.244 564.408 582.244 564.184C582.244 563.971 582.353 563.864 582.572 563.864C582.78 563.864 582.884 563.971 582.884 564.184C582.884 564.408 582.78 564.52 582.572 564.52ZM583.484 564.52C583.265 564.52 583.156 564.408 583.156 564.184C583.156 563.971 583.265 563.864 583.484 563.864C583.692 563.864 583.796 563.971 583.796 564.184C583.796 564.408 583.692 564.52 583.484 564.52ZM582.092 569V568.504H582.372C582.959 568.504 583.252 568.2 583.252 567.592V565.856L583.788 565.576V567.608C583.788 568.056 583.657 568.405 583.396 568.656C583.156 568.885 582.836 569 582.436 569H582.092ZM589.854 564.544C589.635 564.544 589.526 564.432 589.526 564.208C589.526 563.995 589.635 563.888 589.854 563.888C590.062 563.888 590.166 563.995 590.166 564.208C590.166 564.432 590.062 564.544 589.854 564.544ZM590.766 564.544C590.547 564.544 590.438 564.432 590.438 564.208C590.438 563.995 590.547 563.888 590.766 563.888C590.974 563.888 591.078 563.995 591.078 564.208C591.078 564.432 590.974 564.544 590.766 564.544ZM591.646 569C591.518 570.013 590.739 570.52 589.31 570.52C588.488 570.52 587.87 570.28 587.454 569.8C587.144 569.443 586.99 569.003 586.99 568.48C586.99 568.021 587.107 567.627 587.342 567.296L587.862 567.192C587.606 567.581 587.478 567.997 587.478 568.44C587.478 568.925 587.646 569.312 587.982 569.6C588.307 569.883 588.75 570.024 589.31 570.024C590.387 570.024 590.982 569.68 591.094 568.992L590.878 568.976C590.126 568.944 589.59 568.776 589.27 568.472C588.982 568.195 588.838 567.784 588.838 567.24C588.838 566.664 588.987 566.219 589.286 565.904C589.547 565.621 589.894 565.48 590.326 565.48C590.768 565.48 591.11 565.619 591.35 565.896C591.558 566.136 591.662 566.456 591.662 566.856V568.504H592.51V569H591.646ZM591.126 568.504V566.904C591.126 566.28 590.859 565.968 590.326 565.968C590.022 565.968 589.784 566.08 589.614 566.304C589.448 566.528 589.366 566.837 589.366 567.232C589.366 567.675 589.478 567.992 589.702 568.184C589.931 568.371 590.326 568.475 590.886 568.496L591.126 568.504ZM600.35 568.504H600.63V569H600.286C599.806 569 599.446 568.837 599.206 568.512C598.966 568.837 598.603 569 598.118 569H594.862C594.382 569 594.022 568.837 593.782 568.512C593.531 568.837 593.168 569 592.694 569H592.35V568.504H592.63C593.216 568.504 593.51 568.2 593.51 567.592V566.44L594.046 566.16V567.592C594.046 568.093 594.24 568.387 594.63 568.472C594.827 567.651 595.171 566.963 595.662 566.408C596.211 565.789 596.856 565.48 597.598 565.48C598.195 565.48 598.67 565.685 599.022 566.096C599.32 566.448 599.47 566.883 599.47 567.4V567.608C599.47 568.205 599.763 568.504 600.35 568.504ZM598.078 568.504C598.648 568.504 598.934 568.189 598.934 567.56V567.4C598.934 566.952 598.792 566.592 598.51 566.32C598.27 566.085 597.968 565.968 597.606 565.968C596.982 565.968 596.427 566.261 595.942 566.848C595.574 567.296 595.296 567.848 595.11 568.504H598.078ZM600.467 569V568.504H600.747C601.334 568.504 601.627 568.2 601.627 567.592V565.856L602.163 565.576V567.608C602.163 568.056 602.032 568.405 601.771 568.656C601.531 568.885 601.211 569 600.811 569H600.467ZM600.731 570.496C600.512 570.496 600.403 570.384 600.403 570.16C600.403 569.947 600.512 569.84 600.731 569.84C600.939 569.84 601.043 569.947 601.043 570.16C601.043 570.384 600.939 570.496 600.731 570.496ZM601.643 570.496C601.424 570.496 601.315 570.384 601.315 570.16C601.315 569.947 601.424 569.84 601.643 569.84C601.851 569.84 601.955 569.947 601.955 570.16C601.955 570.384 601.851 570.496 601.643 570.496ZM605.174 568.616C605.174 569.587 604.817 570.195 604.102 570.44C603.932 570.499 603.75 570.528 603.558 570.528C603.249 570.528 602.95 570.453 602.662 570.304V569.832C602.934 569.981 603.212 570.056 603.494 570.056C603.718 570.056 603.916 570.005 604.086 569.904C604.46 569.68 604.646 569.261 604.646 568.648V565.856L605.174 565.576V568.616ZM607.283 568.68C607.283 568.685 607.283 568.691 607.283 568.696C607.283 568.925 607.173 569.04 606.955 569.04C606.725 569.04 606.611 568.923 606.611 568.688C606.621 568.469 606.736 568.36 606.955 568.36C607.173 568.36 607.283 568.467 607.283 568.68Z" fill="#2D2D2D" fill-opacity="0.7"/>
<ellipse cx="557.958" cy="447.991" rx="5.65868" ry="5.6531" fill="#53BD95"/>
<ellipse cx="491.311" cy="356.285" rx="5.65868" ry="5.6531" fill="#53BD95"/>
<path d="M493.235 357.035C493.649 357.035 493.985 356.7 493.985 356.285C493.985 355.871 493.649 355.535 493.235 355.535V357.035ZM498.341 355.535C497.927 355.535 497.591 355.871 497.591 356.285C497.591 356.7 497.927 357.035 498.341 357.035V355.535ZM503.447 357.035C503.862 357.035 504.197 356.7 504.197 356.285C504.197 355.871 503.862 355.535 503.447 355.535V357.035ZM508.554 355.535C508.139 355.535 507.804 355.871 507.804 356.285C507.804 356.7 508.139 357.035 508.554 357.035V355.535ZM513.66 357.035C514.074 357.035 514.41 356.7 514.41 356.285C514.41 355.871 514.074 355.535 513.66 355.535V357.035ZM518.766 355.535C518.352 355.535 518.016 355.871 518.016 356.285C518.016 356.7 518.352 357.035 518.766 357.035V355.535ZM523.873 357.035C524.287 357.035 524.623 356.7 524.623 356.285C524.623 355.871 524.287 355.535 523.873 355.535V357.035ZM528.979 355.535C528.565 355.535 528.229 355.871 528.229 356.285C528.229 356.7 528.565 357.035 528.979 357.035V355.535ZM534.085 357.035C534.499 357.035 534.835 356.7 534.835 356.285C534.835 355.871 534.499 355.535 534.085 355.535V357.035ZM539.191 355.535C538.777 355.535 538.441 355.871 538.441 356.285C538.441 356.7 538.777 357.035 539.191 357.035V355.535ZM544.298 357.035C544.712 357.035 545.048 356.7 545.048 356.285C545.048 355.871 544.712 355.535 544.298 355.535V357.035ZM549.404 355.535C548.99 355.535 548.654 355.871 548.654 356.285C548.654 356.7 548.99 357.035 549.404 357.035V355.535ZM553.967 357.433C554.349 357.592 554.788 357.411 554.947 357.028C555.105 356.645 554.924 356.207 554.541 356.048L553.967 357.433ZM558.195 359.701C558.036 359.319 557.597 359.137 557.215 359.296C556.832 359.455 556.65 359.893 556.809 360.276L558.195 359.701ZM557.207 364.666C557.207 365.08 557.543 365.416 557.957 365.416C558.371 365.416 558.707 365.08 558.707 364.666H557.207ZM558.707 369.428C558.707 369.013 558.371 368.678 557.957 368.678C557.543 368.678 557.207 369.013 557.207 369.428H558.707ZM557.207 374.189C557.207 374.603 557.543 374.939 557.957 374.939C558.371 374.939 558.707 374.603 558.707 374.189H557.207ZM558.707 378.95C558.707 378.536 558.371 378.2 557.957 378.2C557.543 378.2 557.207 378.536 557.207 378.95H558.707ZM557.207 383.712C557.207 384.126 557.543 384.462 557.957 384.462C558.371 384.462 558.707 384.126 558.707 383.712H557.207ZM558.707 388.473C558.707 388.059 558.371 387.723 557.957 387.723C557.543 387.723 557.207 388.059 557.207 388.473H558.707ZM557.207 393.235C557.207 393.649 557.543 393.985 557.957 393.985C558.371 393.985 558.707 393.649 558.707 393.235H557.207ZM558.707 397.996C558.707 397.582 558.371 397.246 557.957 397.246C557.543 397.246 557.207 397.582 557.207 397.996H558.707ZM557.207 402.758C557.207 403.172 557.543 403.508 557.957 403.508C558.371 403.508 558.707 403.172 558.707 402.758H557.207ZM558.707 407.519C558.707 407.105 558.371 406.769 557.957 406.769C557.543 406.769 557.207 407.105 557.207 407.519H558.707ZM557.207 412.28C557.207 412.695 557.543 413.03 557.957 413.03C558.371 413.03 558.707 412.695 558.707 412.28H557.207ZM558.707 417.042C558.707 416.628 558.371 416.292 557.957 416.292C557.543 416.292 557.207 416.628 557.207 417.042H558.707ZM557.207 421.803C557.207 422.218 557.543 422.553 557.957 422.553C558.371 422.553 558.707 422.218 558.707 421.803H557.207ZM558.707 426.565C558.707 426.151 558.371 425.815 557.957 425.815C557.543 425.815 557.207 426.151 557.207 426.565H558.707ZM557.207 431.326C557.207 431.74 557.543 432.076 557.957 432.076C558.371 432.076 558.707 431.74 558.707 431.326H557.207ZM558.707 436.088C558.707 435.673 558.371 435.338 557.957 435.338C557.543 435.338 557.207 435.673 557.207 436.088H558.707ZM557.207 440.849C557.207 441.263 557.543 441.599 557.957 441.599C558.371 441.599 558.707 441.263 558.707 440.849H557.207ZM558.707 445.61C558.707 445.196 558.371 444.86 557.957 444.86C557.543 444.86 557.207 445.196 557.207 445.61H558.707ZM490.682 357.035H493.235V355.535H490.682V357.035ZM498.341 357.035H503.447V355.535H498.341V357.035ZM508.554 357.035H513.66V355.535H508.554V357.035ZM518.766 357.035H523.873V355.535H518.766V357.035ZM528.979 357.035H534.085V355.535H528.979V357.035ZM539.191 357.035H544.298V355.535H539.191V357.035ZM549.404 357.035H551.957V355.535H549.404V357.035ZM551.957 357.035C552.67 357.035 553.349 357.177 553.967 357.433L554.541 356.048C553.744 355.717 552.871 355.535 551.957 355.535V357.035ZM556.809 360.276C557.065 360.894 557.207 361.572 557.207 362.285H558.707C558.707 361.372 558.525 360.498 558.195 359.701L556.809 360.276ZM557.207 362.285V364.666H558.707V362.285H557.207ZM557.207 369.428V374.189H558.707V369.428H557.207ZM557.207 378.95V383.712H558.707V378.95H557.207ZM557.207 388.473V393.235H558.707V388.473H557.207ZM557.207 397.996V402.758H558.707V397.996H557.207ZM557.207 407.519V412.28H558.707V407.519H557.207ZM557.207 417.042V421.803H558.707V417.042H557.207ZM557.207 426.565V431.326H558.707V426.565H557.207ZM557.207 436.088V440.849H558.707V436.088H557.207ZM557.207 445.61V447.991H558.707V445.61H557.207Z" fill="#53BD95"/>
<defs>
<filter id="filter0_d_304_651" x="56.0122" y="0.44043" width="554.85" height="642.397" filterUnits="userSpaceOnUse" color-interpolation-filters="sRGB">
<feFlood flood-opacity="0" result="BackgroundImageFix"/>
<feColorMatrix in="SourceAlpha" type="matrix" values="0 0 0 0 0 0 0 0 0 0 0 0 0 0 0 0 0 0 127 0" result="hardAlpha"/>
<feOffset dx="10" dy="20"/>
<feGaussianBlur stdDeviation="40"/>
<feComposite in2="hardAlpha" operator="out"/>
<feColorMatrix type="matrix" values="0 0 0 0 0.324942 0 0 0 0 0.324942 0 0 0 0 0.324942 0 0 0 0.08 0"/>
<feBlend mode="normal" in2="BackgroundImageFix" result="effect1_dropShadow_304_651"/>
<feBlend mode="normal" in="SourceGraphic" in2="effect1_dropShadow_304_651" result="shape"/>
</filter>
<filter id="filter1_d_304_651" x="300.072" y="377.47" width="397.904" height="349.893" filterUnits="userSpaceOnUse" color-interpolation-filters="sRGB">
<feFlood flood-opacity="0" result="BackgroundImageFix"/>
<feColorMatrix in="SourceAlpha" type="matrix" values="0 0 0 0 0 0 0 0 0 0 0 0 0 0 0 0 0 0 127 0" result="hardAlpha"/>
<feOffset dx="14" dy="19"/>
<feGaussianBlur stdDeviation="30"/>
<feComposite in2="hardAlpha" operator="out"/>
<feColorMatrix type="matrix" values="0 0 0 0 0.324942 0 0 0 0 0.324942 0 0 0 0 0.324942 0 0 0 0.07 0"/>
<feBlend mode="normal" in2="BackgroundImageFix" result="effect1_dropShadow_304_651"/>
<feBlend mode="normal" in="SourceGraphic" in2="effect1_dropShadow_304_651" result="shape"/>
</filter>
</defs>
</svg>
