<svg width="230" height="395" viewBox="0 0 230 395" fill="none" xmlns="http://www.w3.org/2000/svg">
<rect width="230" height="395" rx="10" fill="white"/>
<line y1="31.5" x2="230" y2="31.5" stroke="#E9E9EB"/>
<line y1="300.5" x2="230" y2="300.5" stroke="#E9E9EB"/>
<path d="M149.591 11.41L149.821 10.98H150.091C150.024 10.86 149.991 10.7333 149.991 10.6C149.991 10.4067 150.064 10.24 150.211 10.1C150.357 9.95333 150.527 9.88 150.721 9.88C150.887 9.88 151.047 9.93333 151.201 10.04V10.48C151.061 10.3667 150.921 10.31 150.781 10.31C150.534 10.31 150.411 10.4233 150.411 10.65C150.411 10.7567 150.461 10.8667 150.561 10.98H151.471L151.241 11.41H149.591ZM151.861 18C151.281 18 150.834 17.8133 150.521 17.44C150.254 17.12 150.121 16.7133 150.121 16.22V12.41L150.981 11.95V16.19C150.981 16.8567 151.307 17.19 151.961 17.19H152.621V18H151.861ZM155.496 17.19H156.156V18H155.396C154.843 18 154.406 17.8233 154.086 17.47C153.766 17.8233 153.33 18 152.776 18H152.016V17.19H152.676C153.33 17.19 153.656 16.8567 153.656 16.19V14.12L154.516 13.66V16.19C154.516 16.8567 154.843 17.19 155.496 17.19ZM153.106 19C153.426 19 153.586 19.1667 153.586 19.5C153.586 19.8267 153.426 19.99 153.106 19.99C152.78 19.99 152.616 19.8267 152.616 19.5C152.616 19.1667 152.78 19 153.106 19ZM154.376 19C154.696 19 154.856 19.1667 154.856 19.5C154.856 19.8267 154.696 19.99 154.376 19.99C154.05 19.99 153.886 19.8267 153.886 19.5C153.886 19.1667 154.05 19 154.376 19ZM156.752 15.03C156.918 14.4167 157.235 13.9467 157.702 13.62C158.082 13.36 158.512 13.23 158.992 13.23C159.698 13.23 160.282 13.47 160.742 13.95C161.175 14.4033 161.392 14.9867 161.392 15.7V16.23C161.392 16.81 161.212 17.26 160.852 17.58C160.538 17.86 160.132 18 159.632 18H158.552C158.325 18 158.112 17.9667 157.912 17.9C157.705 17.9667 157.492 18 157.272 18H155.552V17.19H156.842C156.588 16.85 156.462 16.4633 156.462 16.03C156.462 15.6367 156.558 15.3033 156.752 15.03ZM160.522 16.15V15.7C160.522 15.1467 160.345 14.7167 159.992 14.41C159.705 14.1567 159.362 14.03 158.962 14.03C158.502 14.03 158.142 14.18 157.882 14.48H157.912C158.352 14.48 158.702 14.6233 158.962 14.91C159.228 15.19 159.362 15.5633 159.362 16.03C159.362 16.4767 159.232 16.8633 158.972 17.19H159.602C159.928 17.19 160.162 17.11 160.302 16.95C160.448 16.7833 160.522 16.5167 160.522 16.15ZM157.912 17.1C158.458 16.9133 158.732 16.54 158.732 15.98C158.732 15.7 158.655 15.4767 158.502 15.31C158.355 15.1367 158.158 15.05 157.912 15.05C157.665 15.05 157.465 15.1367 157.312 15.31C157.165 15.4767 157.092 15.7 157.092 15.98C157.092 16.54 157.365 16.9133 157.912 17.1ZM167.662 17.19V18H166.422C166.395 18.5733 166.148 19.0467 165.682 19.42C165.288 19.7267 164.842 19.88 164.342 19.88C163.928 19.88 163.538 19.7833 163.172 19.59V18.83C163.525 19.0167 163.875 19.11 164.222 19.11C164.575 19.11 164.882 19 165.142 18.78C165.408 18.56 165.545 18.2967 165.552 17.99C165.205 17.9767 164.948 17.9633 164.782 17.95C164.062 17.91 163.518 17.6667 163.152 17.22C162.845 16.8467 162.692 16.3633 162.692 15.77C162.692 15.0433 162.885 14.4767 163.272 14.07C163.618 13.71 164.075 13.53 164.642 13.53C165.235 13.53 165.692 13.7067 166.012 14.06C166.285 14.3733 166.422 14.7833 166.422 15.29V17.19H167.662ZM165.552 15.35C165.552 14.67 165.248 14.33 164.642 14.33C164.295 14.33 164.025 14.4567 163.832 14.71C163.638 14.9567 163.542 15.3033 163.542 15.75C163.542 16.6233 163.968 17.0867 164.822 17.14C164.982 17.16 165.225 17.1767 165.552 17.19V15.35ZM167.835 12.45C167.509 12.45 167.345 12.2833 167.345 11.95C167.345 11.6233 167.509 11.46 167.835 11.46C168.155 11.46 168.315 11.6233 168.315 11.95C168.315 12.2833 168.155 12.45 167.835 12.45ZM169.105 12.45C168.779 12.45 168.615 12.2833 168.615 11.95C168.615 11.6233 168.779 11.46 169.105 11.46C169.425 11.46 169.585 11.6233 169.585 11.95C169.585 12.2833 169.425 12.45 169.105 12.45ZM167.065 18V17.19H167.725C168.379 17.19 168.705 16.8567 168.705 16.19V14.12L169.565 13.66V16.22C169.565 16.7867 169.395 17.2333 169.055 17.56C168.742 17.8533 168.332 18 167.825 18H167.065ZM176.425 11.81C176.192 12.1567 175.945 12.33 175.685 12.33C175.532 12.33 175.342 12.26 175.115 12.12C174.948 12.0133 174.825 11.96 174.745 11.96C174.632 11.96 174.492 12.0667 174.325 12.28L173.995 12.03C174.235 11.69 174.485 11.52 174.745 11.52C174.878 11.52 175.052 11.5867 175.265 11.72C175.438 11.8267 175.575 11.88 175.675 11.88C175.782 11.88 175.928 11.7733 176.115 11.56L176.425 11.81ZM177.405 12.01L178.275 11.55V16.11C178.275 16.7033 178.098 17.1733 177.745 17.52C177.412 17.84 176.975 18 176.435 18H172.995L173.415 17.19H174.875V13.31L175.735 12.85V17.19H176.365C177.058 17.19 177.405 16.8267 177.405 16.1V12.01ZM187.956 17.19H188.616V18H187.856C187.283 18 186.839 17.8167 186.526 17.45C186.193 17.8167 185.733 18 185.146 18H181.706L182.126 17.19H183.586V13.31L184.446 12.85V17.19H185.076C185.769 17.19 186.116 16.8267 186.116 16.1V12.01L186.986 11.55V16.11C186.986 16.4967 187.059 16.7733 187.206 16.94C187.359 17.1067 187.609 17.19 187.956 17.19ZM195.053 12.45C194.726 12.45 194.562 12.2833 194.562 11.95C194.562 11.6233 194.726 11.46 195.053 11.46C195.373 11.46 195.533 11.6233 195.533 11.95C195.533 12.2833 195.373 12.45 195.053 12.45ZM191.163 17.16C191.429 16.1533 191.869 15.3133 192.483 14.64C193.169 13.9 193.969 13.53 194.883 13.53C195.643 13.53 196.249 13.7933 196.703 14.32C197.083 14.7667 197.273 15.3167 197.273 15.97V16.23C197.273 16.81 197.096 17.26 196.743 17.58C196.436 17.86 196.033 18 195.533 18H191.393C190.839 18 190.403 17.8233 190.083 17.47C189.763 17.8233 189.326 18 188.773 18H188.012V17.19H188.673C189.326 17.19 189.653 16.8567 189.653 16.19V14.79L190.513 14.33V16.19C190.513 16.75 190.729 17.0733 191.163 17.16ZM196.413 16.15V15.97C196.413 15.45 196.253 15.0367 195.933 14.73C195.653 14.4633 195.306 14.33 194.893 14.33C194.186 14.33 193.549 14.6567 192.983 15.31C192.549 15.81 192.216 16.4367 191.983 17.19H195.483C196.103 17.19 196.413 16.8433 196.413 16.15ZM201.331 17.68C201.077 17.78 200.767 17.83 200.401 17.83C199.807 17.83 199.341 17.6067 199.001 17.16C198.714 16.78 198.571 16.3033 198.571 15.73C198.571 15.0233 198.761 14.47 199.141 14.07C199.481 13.71 199.927 13.53 200.481 13.53C201.047 13.53 201.484 13.7067 201.791 14.06C202.064 14.3733 202.201 14.7833 202.201 15.29V17.47C202.201 18.2233 202.004 18.82 201.611 19.26C201.237 19.6733 200.741 19.88 200.121 19.88C199.707 19.88 199.317 19.7833 198.951 19.59V18.83C199.304 19.0167 199.654 19.11 200.001 19.11C200.394 19.11 200.707 18.9833 200.941 18.73C201.174 18.4833 201.304 18.1333 201.331 17.68ZM201.331 15.33C201.331 14.6633 201.047 14.33 200.481 14.33C200.147 14.33 199.884 14.4533 199.691 14.7C199.504 14.9467 199.411 15.2833 199.411 15.71C199.411 16.13 199.501 16.4667 199.681 16.72C199.867 16.9667 200.117 17.09 200.431 17.09C200.871 17.09 201.171 16.9667 201.331 16.72V15.33ZM205.64 18C205.06 18 204.613 17.8133 204.3 17.44C204.033 17.12 203.9 16.7133 203.9 16.22V12.01L204.76 11.55V16.19C204.76 16.8567 205.087 17.19 205.74 17.19H206.4V18H205.64ZM209.276 17.19H209.936V18H209.176C208.622 18 208.186 17.8233 207.866 17.47C207.546 17.8233 207.109 18 206.556 18H205.796V17.19H206.456C207.109 17.19 207.436 16.8567 207.436 16.19V14.12L208.296 13.66V16.19C208.296 16.8567 208.622 17.19 209.276 17.19ZM207.806 19C208.126 19 208.286 19.1633 208.286 19.49C208.286 19.8233 208.126 19.99 207.806 19.99C207.479 19.99 207.316 19.8233 207.316 19.49C207.316 19.1633 207.479 19 207.806 19ZM212.081 15.21C212.841 14.09 213.784 13.53 214.911 13.53C215.664 13.53 216.268 13.7933 216.721 14.32C217.108 14.7667 217.301 15.3167 217.301 15.97V16.29C217.301 16.8367 217.168 17.26 216.901 17.56C216.634 17.8533 216.254 18 215.761 18H209.331V17.19H211.191L211.221 17.08V12.01L212.081 11.55V15.21ZM216.431 16.25V15.97C216.431 15.45 216.271 15.0367 215.951 14.73C215.678 14.4633 215.334 14.33 214.921 14.33C214.234 14.33 213.614 14.64 213.061 15.26C212.648 15.7267 212.321 16.31 212.081 17.01V17.19H215.691C215.978 17.19 216.171 17.1233 216.271 16.99C216.378 16.8567 216.431 16.61 216.431 16.25Z" fill="#2D2D2D" fill-opacity="0.9"/>
<path d="M181.93 47.433H182.399V48H181.867C181.489 48 181.188 47.8833 180.964 47.65C180.745 47.874 180.435 47.9907 180.033 48H179.116C178.659 48 178.43 48.2333 178.43 48.7V49.883L177.828 50.205V48.679C177.828 48.2917 177.94 47.986 178.164 47.762C178.365 47.5567 178.631 47.447 178.962 47.433C178.794 47.1623 178.71 46.831 178.71 46.439C178.71 45.9303 178.843 45.5337 179.109 45.249C179.347 44.997 179.66 44.871 180.047 44.871C180.444 44.871 180.75 44.9947 180.964 45.242C181.156 45.4613 181.251 45.7483 181.251 46.103V46.733C181.251 47.1997 181.478 47.433 181.93 47.433ZM180.649 46.782V46.131C180.649 45.6643 180.449 45.431 180.047 45.431C179.814 45.431 179.632 45.5197 179.501 45.697C179.375 45.8697 179.312 46.1123 179.312 46.425C179.312 46.7423 179.373 46.9897 179.494 47.167C179.616 47.3443 179.786 47.433 180.005 47.433C180.435 47.433 180.649 47.216 180.649 46.782ZM186.541 47.433H186.996V48H186.534C186.156 48 185.852 47.958 185.624 47.874C185.395 47.7853 185.183 47.6313 184.987 47.412C184.399 47.804 183.713 48 182.929 48H181.977V47.433H182.936C183.883 47.433 184.632 47.1203 185.183 46.495C184.795 45.781 184.324 45.424 183.769 45.424C183.391 45.424 183.001 45.6247 182.6 46.026V45.466C182.992 45.0693 183.407 44.871 183.846 44.871C184.205 44.871 184.553 45.0017 184.889 45.263C185.225 45.5197 185.521 45.8883 185.778 46.369V46.677C185.633 46.859 185.495 47.006 185.365 47.118C185.617 47.328 186.009 47.433 186.541 47.433ZM187.116 44.115C186.887 44.115 186.773 43.9983 186.773 43.765C186.773 43.5363 186.887 43.422 187.116 43.422C187.34 43.422 187.452 43.5363 187.452 43.765C187.452 43.9983 187.34 44.115 187.116 44.115ZM188.005 44.115C187.776 44.115 187.662 43.9983 187.662 43.765C187.662 43.5363 187.776 43.422 188.005 43.422C188.229 43.422 188.341 43.5363 188.341 43.765C188.341 43.9983 188.229 44.115 188.005 44.115ZM186.577 48V47.433H187.039C187.496 47.433 187.725 47.1997 187.725 46.733V45.284L188.327 44.962V46.754C188.327 47.1507 188.208 47.4633 187.97 47.692C187.751 47.8973 187.464 48 187.109 48H186.577ZM192.853 47.433V48H191.985C191.966 48.4013 191.794 48.7327 191.467 48.994C191.192 49.2087 190.879 49.316 190.529 49.316C190.24 49.316 189.967 49.2483 189.71 49.113V48.581C189.957 48.7117 190.202 48.777 190.445 48.777C190.692 48.777 190.907 48.7 191.089 48.546C191.276 48.392 191.371 48.2077 191.376 47.993C191.133 47.9837 190.954 47.9743 190.837 47.965C190.333 47.937 189.953 47.7667 189.696 47.454C189.481 47.1927 189.374 46.8543 189.374 46.439C189.374 45.9303 189.509 45.5337 189.78 45.249C190.023 44.997 190.342 44.871 190.739 44.871C191.154 44.871 191.474 44.9947 191.698 45.242C191.889 45.4613 191.985 45.7483 191.985 46.103V47.433H192.853ZM191.376 46.145C191.376 45.669 191.164 45.431 190.739 45.431C190.496 45.431 190.307 45.5197 190.172 45.697C190.037 45.8697 189.969 46.1123 189.969 46.425C189.969 47.0363 190.268 47.3607 190.865 47.398C190.977 47.412 191.147 47.4237 191.376 47.433V46.145ZM192.436 48V47.433H192.898C193.355 47.433 193.584 47.1997 193.584 46.733V45.284L194.186 44.962V46.754C194.186 47.1507 194.067 47.4633 193.829 47.692C193.609 47.8973 193.322 48 192.968 48H192.436ZM200.961 47.433H201.423V48H200.891C200.49 48 200.18 47.8717 199.96 47.615C199.727 47.8717 199.405 48 198.994 48H196.586L196.88 47.433H197.902V44.717L198.504 44.395V47.433H198.945C199.431 47.433 199.673 47.1787 199.673 46.67V43.807L200.282 43.485V46.677C200.282 46.9477 200.334 47.1413 200.436 47.258C200.544 47.3747 200.719 47.433 200.961 47.433ZM203.122 44.115C202.893 44.115 202.779 43.9983 202.779 43.765C202.779 43.5363 202.893 43.422 203.122 43.422C203.346 43.422 203.458 43.5363 203.458 43.765C203.458 43.9983 203.346 44.115 203.122 44.115ZM205.565 47.433H206.02V48H205.558C205.18 48 204.877 47.958 204.648 47.874C204.419 47.7853 204.207 47.6313 204.011 47.412C203.423 47.804 202.737 48 201.953 48H201.001V47.433H201.96C202.907 47.433 203.656 47.1203 204.207 46.495C203.82 45.781 203.348 45.424 202.793 45.424C202.415 45.424 202.025 45.6247 201.624 46.026V45.466C202.016 45.0693 202.431 44.871 202.87 44.871C203.229 44.871 203.577 45.0017 203.913 45.263C204.249 45.5197 204.545 45.8883 204.802 46.369V46.677C204.657 46.859 204.52 47.006 204.389 47.118C204.641 47.328 205.033 47.433 205.565 47.433ZM207.989 47.433H208.451V48H207.919C207.517 48 207.207 47.8717 206.988 47.615C206.754 47.8717 206.432 48 206.022 48H205.602V47.433H205.973C206.458 47.433 206.701 47.1787 206.701 46.67V43.807L207.31 43.485V46.677C207.31 46.9477 207.361 47.1413 207.464 47.258C207.571 47.3747 207.746 47.433 207.989 47.433ZM210.219 44.157C209.991 44.157 209.876 44.0403 209.876 43.807C209.876 43.5783 209.991 43.464 210.219 43.464C210.443 43.464 210.555 43.5783 210.555 43.807C210.555 44.0403 210.443 44.157 210.219 44.157ZM211.087 47.433H212.389V48H210.681C210.499 48 210.341 47.9837 210.205 47.951C210.075 47.9837 209.916 48 209.729 48H208.028V47.433H209.33C209.041 47.1017 208.896 46.7353 208.896 46.334C208.896 45.8767 209.025 45.5127 209.281 45.242C209.515 44.9947 209.823 44.871 210.205 44.871C210.644 44.871 210.982 45.0297 211.22 45.347C211.421 45.6083 211.521 45.9373 211.521 46.334C211.521 46.7353 211.377 47.1017 211.087 47.433ZM210.212 47.37C210.427 47.2953 210.602 47.16 210.737 46.964C210.873 46.7633 210.94 46.544 210.94 46.306C210.94 46.0353 210.873 45.823 210.737 45.669C210.607 45.5103 210.429 45.431 210.205 45.431C209.981 45.431 209.802 45.5103 209.666 45.669C209.536 45.8277 209.47 46.04 209.47 46.306C209.47 46.5393 209.54 46.7563 209.68 46.957C209.82 47.1577 209.998 47.2953 210.212 47.37ZM211.973 48V47.433H212.435C212.892 47.433 213.121 47.1997 213.121 46.733V45.284L213.723 44.962V46.754C213.723 47.1507 213.604 47.4633 213.366 47.692C213.146 47.8973 212.859 48 212.505 48H211.973ZM212.344 49.393C212.115 49.393 212.001 49.2763 212.001 49.043C212.001 48.8143 212.115 48.7 212.344 48.7C212.568 48.7 212.68 48.8143 212.68 49.043C212.68 49.2763 212.568 49.393 212.344 49.393ZM213.233 49.393C213.004 49.393 212.89 49.2763 212.89 49.043C212.89 48.8143 213.004 48.7 213.233 48.7C213.457 48.7 213.569 48.8143 213.569 49.043C213.569 49.2763 213.457 49.393 213.233 49.393ZM215.708 44.045C215.479 44.045 215.365 43.9283 215.365 43.695C215.365 43.4663 215.479 43.352 215.708 43.352C215.932 43.352 216.044 43.4663 216.044 43.695C216.044 43.9283 215.932 44.045 215.708 44.045ZM216.604 44.045C216.375 44.045 216.261 43.9283 216.261 43.695C216.261 43.4663 216.375 43.352 216.604 43.352C216.828 43.352 216.94 43.4663 216.94 43.695C216.94 43.9283 216.828 44.045 216.604 44.045ZM216.163 48C215.738 48 215.407 47.8577 215.169 47.573C214.963 47.3257 214.861 47.0107 214.861 46.628C214.861 46.2127 214.975 45.8533 215.204 45.55C215.437 45.242 215.768 45.0157 216.198 44.871C216.65 45.025 216.991 45.2677 217.22 45.599C217.425 45.893 217.528 46.236 217.528 46.628C217.528 47.0713 217.397 47.419 217.136 47.671C216.902 47.8903 216.601 48 216.233 48H216.163ZM216.142 47.433H216.247C216.457 47.433 216.622 47.3607 216.744 47.216C216.87 47.0713 216.933 46.8777 216.933 46.635C216.933 46.075 216.688 45.6737 216.198 45.431C215.708 45.6737 215.463 46.0727 215.463 46.628C215.463 46.8753 215.523 47.0713 215.645 47.216C215.766 47.3607 215.932 47.433 216.142 47.433Z" fill="#2D2D2D" fill-opacity="0.7"/>
<path d="M208.039 187.047C208.571 186.263 209.231 185.871 210.02 185.871C210.547 185.871 210.97 186.055 211.287 186.424C211.558 186.737 211.693 187.122 211.693 187.579V187.803C211.693 188.186 211.6 188.482 211.413 188.692C211.226 188.897 210.96 189 210.615 189H206.177L206.478 188.433H207.416L207.437 188.356V184.807L208.039 184.485V187.047ZM211.084 187.775V187.579C211.084 187.215 210.972 186.926 210.748 186.711C210.557 186.524 210.316 186.431 210.027 186.431C209.546 186.431 209.112 186.648 208.725 187.082C208.436 187.409 208.207 187.817 208.039 188.307V188.433H210.566C210.767 188.433 210.902 188.386 210.972 188.293C211.047 188.2 211.084 188.027 211.084 187.775ZM216.082 188.433V189H215.214C215.195 189.401 215.022 189.733 214.696 189.994C214.42 190.209 214.108 190.316 213.758 190.316C213.468 190.316 213.195 190.248 212.939 190.113V189.581C213.186 189.712 213.431 189.777 213.674 189.777C213.921 189.777 214.136 189.7 214.318 189.546C214.504 189.392 214.6 189.208 214.605 188.993C214.362 188.984 214.182 188.974 214.066 188.965C213.562 188.937 213.181 188.767 212.925 188.454C212.71 188.193 212.603 187.854 212.603 187.439C212.603 186.93 212.738 186.534 213.009 186.249C213.251 185.997 213.571 185.871 213.968 185.871C214.383 185.871 214.703 185.995 214.927 186.242C215.118 186.461 215.214 186.748 215.214 187.103V188.433H216.082ZM214.605 187.145C214.605 186.669 214.392 186.431 213.968 186.431C213.725 186.431 213.536 186.52 213.401 186.697C213.265 186.87 213.198 187.112 213.198 187.425C213.198 188.036 213.496 188.361 214.094 188.398C214.206 188.412 214.376 188.424 214.605 188.433V187.145ZM215.664 189V188.433H216.035C216.52 188.433 216.763 188.179 216.763 187.67V184.807L217.372 184.485V187.677C217.372 188.092 217.248 188.421 217.001 188.664C216.768 188.888 216.462 189 216.084 189H215.664Z" fill="#2D2D2D" fill-opacity="0.9"/>
<path d="M206.224 239C205.818 239 205.505 238.869 205.286 238.608C205.099 238.384 205.006 238.099 205.006 237.754V234.807L205.608 234.485V237.733C205.608 238.2 205.837 238.433 206.294 238.433H206.756V239H206.224ZM204.908 240.743L205.069 240.442H205.258C205.211 240.358 205.188 240.269 205.188 240.176C205.188 240.041 205.239 239.922 205.342 239.819C205.445 239.721 205.566 239.672 205.706 239.672C205.823 239.672 205.935 239.709 206.042 239.784V240.092C205.939 240.013 205.841 239.973 205.748 239.973C205.575 239.973 205.489 240.05 205.489 240.204C205.489 240.283 205.522 240.363 205.587 240.442H206.224L206.063 240.743H204.908ZM206.333 239V238.433H206.795C207.252 238.433 207.481 238.2 207.481 237.733V236.284L208.083 235.962V237.754C208.083 238.151 207.964 238.463 207.726 238.692C207.507 238.897 207.22 239 206.865 239H206.333ZM207.46 240.393C207.231 240.393 207.117 240.276 207.117 240.043C207.117 239.814 207.231 239.7 207.46 239.7C207.684 239.7 207.796 239.814 207.796 240.043C207.796 240.276 207.684 240.393 207.46 240.393ZM208.78 239L209.074 238.433H210.32C210.507 238.433 210.637 238.386 210.712 238.293C210.791 238.2 210.831 238.039 210.831 237.81C210.831 237.185 210.549 236.711 209.984 236.389L210.278 235.892C211.048 236.331 211.433 236.972 211.433 237.817C211.433 238.606 211.097 239 210.425 239H208.78ZM213.771 239C213.365 239 213.052 238.869 212.833 238.608C212.646 238.384 212.553 238.099 212.553 237.754V234.807L213.155 234.485V237.733C213.155 238.2 213.384 238.433 213.841 238.433H214.303V239H213.771ZM217.653 238.433V239H213.88V238.433H215.091C214.862 238.139 214.748 237.777 214.748 237.348C214.748 236.872 214.911 236.494 215.238 236.214C215.504 235.99 215.812 235.876 216.162 235.871C216.657 235.871 217.042 236.069 217.317 236.466V237.033C217.018 236.632 216.657 236.431 216.232 236.431C215.966 236.431 215.751 236.517 215.588 236.69C215.429 236.858 215.35 237.084 215.35 237.369C215.35 237.691 215.446 237.95 215.637 238.146C215.833 238.337 216.092 238.433 216.414 238.433H217.653Z" fill="#2D2D2D" fill-opacity="0.9"/>
<path d="M187.429 218.202V222H186.985V218.676L186.223 219.108L186.001 218.79L186.985 218.202H187.429ZM191.203 220.11C191.203 220.738 191.065 221.232 190.789 221.592C190.549 221.912 190.233 222.072 189.841 222.072C189.389 222.072 189.039 221.866 188.791 221.454C188.583 221.102 188.479 220.654 188.479 220.11C188.479 219.502 188.617 219.012 188.893 218.64C189.141 218.3 189.457 218.13 189.841 218.13C190.277 218.13 190.623 218.346 190.879 218.778C191.095 219.142 191.203 219.586 191.203 220.11ZM189.835 218.514C189.559 218.514 189.343 218.652 189.187 218.928C189.031 219.204 188.953 219.586 188.953 220.074C188.953 220.594 189.037 220.998 189.205 221.286C189.361 221.55 189.571 221.682 189.835 221.682C190.111 221.682 190.329 221.54 190.489 221.256C190.649 220.968 190.729 220.574 190.729 220.074C190.729 219.562 190.641 219.168 190.465 218.892C190.309 218.64 190.099 218.514 189.835 218.514ZM194.634 220.11C194.634 220.738 194.496 221.232 194.22 221.592C193.98 221.912 193.664 222.072 193.272 222.072C192.82 222.072 192.47 221.866 192.222 221.454C192.014 221.102 191.91 220.654 191.91 220.11C191.91 219.502 192.048 219.012 192.324 218.64C192.572 218.3 192.888 218.13 193.272 218.13C193.708 218.13 194.054 218.346 194.31 218.778C194.526 219.142 194.634 219.586 194.634 220.11ZM193.266 218.514C192.99 218.514 192.774 218.652 192.618 218.928C192.462 219.204 192.384 219.586 192.384 220.074C192.384 220.594 192.468 220.998 192.636 221.286C192.792 221.55 193.002 221.682 193.266 221.682C193.542 221.682 193.76 221.54 193.92 221.256C194.08 220.968 194.16 220.574 194.16 220.074C194.16 219.562 194.072 219.168 193.896 218.892C193.74 218.64 193.53 218.514 193.266 218.514ZM197.177 218.202L195.281 222.18H194.903L196.805 218.202H197.177ZM197.645 218.772L197.465 218.508C197.749 218.256 198.089 218.13 198.485 218.13C198.809 218.13 199.077 218.226 199.289 218.418C199.485 218.598 199.583 218.828 199.583 219.108C199.583 219.308 199.523 219.486 199.403 219.642C199.283 219.794 199.125 219.894 198.929 219.942C199.181 220.002 199.379 220.118 199.523 220.29C199.667 220.462 199.739 220.67 199.739 220.914C199.739 221.318 199.587 221.626 199.283 221.838C199.059 221.99 198.795 222.066 198.491 222.066C198.107 222.066 197.749 221.934 197.417 221.67L197.609 221.412C197.861 221.588 198.137 221.676 198.437 221.676C198.685 221.676 198.885 221.606 199.037 221.466C199.189 221.326 199.265 221.14 199.265 220.908C199.265 220.416 198.971 220.17 198.383 220.17H197.891V219.792H198.383C198.607 219.792 198.783 219.734 198.911 219.618C199.043 219.502 199.109 219.342 199.109 219.138C199.109 218.718 198.875 218.508 198.407 218.508C198.163 218.508 197.909 218.596 197.645 218.772ZM203.244 220.11C203.244 220.738 203.106 221.232 202.83 221.592C202.59 221.912 202.274 222.072 201.882 222.072C201.43 222.072 201.08 221.866 200.832 221.454C200.624 221.102 200.52 220.654 200.52 220.11C200.52 219.502 200.658 219.012 200.934 218.64C201.182 218.3 201.498 218.13 201.882 218.13C202.318 218.13 202.664 218.346 202.92 218.778C203.136 219.142 203.244 219.586 203.244 220.11ZM201.876 218.514C201.6 218.514 201.384 218.652 201.228 218.928C201.072 219.204 200.994 219.586 200.994 220.074C200.994 220.594 201.078 220.998 201.246 221.286C201.402 221.55 201.612 221.682 201.876 221.682C202.152 221.682 202.37 221.54 202.53 221.256C202.69 220.968 202.77 220.574 202.77 220.074C202.77 219.562 202.682 219.168 202.506 218.892C202.35 218.64 202.14 218.514 201.876 218.514ZM206.675 220.11C206.675 220.738 206.537 221.232 206.261 221.592C206.021 221.912 205.705 222.072 205.313 222.072C204.861 222.072 204.511 221.866 204.263 221.454C204.055 221.102 203.951 220.654 203.951 220.11C203.951 219.502 204.089 219.012 204.365 218.64C204.613 218.3 204.929 218.13 205.313 218.13C205.749 218.13 206.095 218.346 206.351 218.778C206.567 219.142 206.675 219.586 206.675 220.11ZM205.307 218.514C205.031 218.514 204.815 218.652 204.659 218.928C204.503 219.204 204.425 219.586 204.425 220.074C204.425 220.594 204.509 220.998 204.677 221.286C204.833 221.55 205.043 221.682 205.307 221.682C205.583 221.682 205.801 221.54 205.961 221.256C206.121 220.968 206.201 220.574 206.201 220.074C206.201 219.562 206.113 219.168 205.937 218.892C205.781 218.64 205.571 218.514 205.307 218.514ZM211.637 223.938C211.309 224.146 210.937 224.25 210.521 224.25C210.073 224.25 209.713 224.1 209.441 223.8C209.197 223.532 209.075 223.196 209.075 222.792C209.075 222.36 209.207 222.006 209.471 221.73C209.591 221.606 209.729 221.512 209.885 221.448C210.041 221.38 210.279 221.316 210.599 221.256C210.927 221.192 211.167 221.126 211.319 221.058C211.471 220.986 211.603 220.882 211.715 220.746C211.367 220.062 210.937 219.72 210.425 219.72C210.077 219.72 209.741 219.894 209.417 220.242V219.846C209.745 219.522 210.087 219.36 210.443 219.36H210.455C211.083 219.36 211.627 219.784 212.087 220.632V220.878C211.947 221.074 211.781 221.222 211.589 221.322C211.401 221.418 211.111 221.506 210.719 221.586C210.231 221.682 209.905 221.812 209.741 221.976C209.545 222.172 209.447 222.448 209.447 222.804C209.447 223.148 209.561 223.42 209.789 223.62C209.981 223.792 210.227 223.878 210.527 223.878H210.539C210.995 223.878 211.361 223.776 211.637 223.572V223.938ZM214.499 221.628H214.709V222H214.451C214.203 222 213.997 221.94 213.833 221.82C213.801 222.484 213.533 222.904 213.029 223.08C212.901 223.124 212.765 223.146 212.621 223.146C212.389 223.146 212.165 223.09 211.949 222.978V222.624C212.153 222.736 212.361 222.792 212.573 222.792C212.741 222.792 212.889 222.754 213.017 222.678C213.297 222.51 213.437 222.196 213.437 221.736V219.642L213.833 219.432V219.438L213.839 219.432V220.944C213.839 221.4 214.059 221.628 214.499 221.628ZM216.535 218.652C216.371 218.652 216.289 218.568 216.289 218.4C216.289 218.24 216.371 218.16 216.535 218.16C216.691 218.16 216.769 218.24 216.769 218.4C216.769 218.568 216.691 218.652 216.535 218.652ZM214.711 222V221.628H215.731C215.511 221.408 215.401 221.092 215.401 220.68C215.401 220.248 215.513 219.914 215.737 219.678C215.933 219.466 216.193 219.36 216.517 219.36C216.849 219.36 217.105 219.464 217.285 219.672C217.441 219.852 217.519 220.092 217.519 220.392V220.974C217.515 221.298 217.417 221.552 217.225 221.736C217.049 221.912 216.809 222 216.505 222H214.711ZM217.123 220.428C217.123 219.96 216.921 219.726 216.517 219.726C216.293 219.726 216.117 219.81 215.989 219.978C215.865 220.142 215.803 220.374 215.803 220.674C215.803 220.966 215.863 221.198 215.983 221.37C216.107 221.542 216.271 221.628 216.475 221.628C216.907 221.628 217.123 221.404 217.123 220.956V220.428Z" fill="#2D2D2D" fill-opacity="0.7"/>
<path d="M212.067 268.202V272H211.623V268.676L210.861 269.108L210.639 268.79L211.623 268.202H212.067ZM214.953 268.202L213.057 272.18H212.679L214.581 268.202H214.953ZM217.372 268.58H215.92V269.648C216.04 269.628 216.18 269.618 216.34 269.618C216.744 269.618 217.064 269.73 217.3 269.954C217.52 270.166 217.63 270.452 217.63 270.812C217.63 271.208 217.488 271.528 217.204 271.772C216.972 271.972 216.696 272.072 216.376 272.072C215.956 272.072 215.592 271.94 215.284 271.676L215.458 271.418C215.71 271.59 215.984 271.676 216.28 271.676C216.556 271.676 216.772 271.602 216.928 271.454C217.084 271.302 217.162 271.09 217.162 270.818C217.162 270.55 217.078 270.342 216.91 270.194C216.742 270.046 216.508 269.972 216.208 269.972C216.008 269.972 215.764 269.998 215.476 270.05V268.202H217.372V268.58Z" fill="#2D2D2D" fill-opacity="0.7"/>
<rect x="15.35" y="58.35" width="202.3" height="117.3" rx="1.65" fill="#F2F3F7" stroke="#E9E9EB" stroke-width="0.7"/>
<path d="M37.4203 68.34L37.8223 68.13V70.968C37.8223 71.308 37.7183 71.572 37.5103 71.76C37.3343 71.92 37.1003 72 36.8083 72H34.6663C34.3703 72 34.1343 71.908 33.9583 71.724C33.7823 71.536 33.6943 71.284 33.6943 70.968V70.182L34.0963 69.972V70.92C34.0963 71.392 34.3163 71.628 34.7563 71.628H36.7663C37.2023 71.628 37.4203 71.392 37.4203 70.92V68.34ZM35.7343 69.138C35.8983 69.138 36.0283 69.182 36.1243 69.27C36.2203 69.358 36.2683 69.476 36.2683 69.624C36.2683 69.756 36.2283 69.862 36.1483 69.942C36.0723 70.018 35.9703 70.056 35.8423 70.056H35.0983L35.2123 69.846H35.8243C35.9763 69.846 36.0523 69.77 36.0523 69.618C36.0523 69.434 35.9363 69.342 35.7043 69.342C35.5843 69.342 35.4823 69.366 35.3983 69.414V69.21L35.8903 68.658H36.1423L35.7283 69.138H35.7343ZM39.9173 72C39.5773 72 39.3153 71.89 39.1313 71.67C38.9793 71.482 38.9033 71.244 38.9033 70.956V68.34L39.3053 68.13V70.944C39.3053 71.4 39.5253 71.628 39.9653 71.628H40.1753V72H39.9173ZM40.6612 68.658C40.5012 68.658 40.4212 68.576 40.4212 68.412C40.4212 68.248 40.5012 68.166 40.6612 68.166C40.8212 68.166 40.9012 68.248 40.9012 68.412C40.9012 68.576 40.8212 68.658 40.6612 68.658ZM41.3452 68.658C41.1852 68.658 41.1052 68.576 41.1052 68.412C41.1052 68.248 41.1852 68.166 41.3452 68.166C41.5052 68.166 41.5852 68.248 41.5852 68.412C41.5852 68.576 41.5052 68.658 41.3452 68.658ZM41.9872 71.628H42.1972V72H41.9392C41.5792 72 41.3092 71.878 41.1292 71.634C40.9412 71.878 40.6692 72 40.3132 72H40.0552V71.628H40.2652C40.7052 71.628 40.9252 71.4 40.9252 70.944V69.642L41.3272 69.432V70.944C41.3272 71.4 41.5472 71.628 41.9872 71.628ZM42.0767 72V71.628H42.2867C42.7267 71.628 42.9467 71.4 42.9467 70.944V69.642L43.3487 69.432V70.956C43.3487 71.292 43.2507 71.554 43.0547 71.742C42.8747 71.914 42.6347 72 42.3347 72H42.0767ZM42.8747 73.122C42.7107 73.122 42.6287 73.038 42.6287 72.87C42.6287 72.71 42.7107 72.63 42.8747 72.63C43.0307 72.63 43.1087 72.71 43.1087 72.87C43.1087 73.038 43.0307 73.122 42.8747 73.122ZM46.7821 68.202H47.2441L48.6061 72H48.1501L47.8441 71.112H46.1941L45.8821 72H45.4201L46.7821 68.202ZM47.0101 68.7L46.3141 70.74H47.7121L47.0101 68.7ZM49.6774 68.202V72H49.2334V68.202H49.6774ZM52.3662 71.454C52.5462 71.454 52.6362 71.544 52.6362 71.724V71.73V71.736C52.6362 71.824 52.6082 71.896 52.5522 71.952C52.5002 72.004 52.4322 72.03 52.3482 72.03C52.1482 72.03 52.0482 71.904 52.0482 71.652V71.022L52.2342 70.95V71.454H52.3662ZM58.2041 71.628H58.4141V72H58.1561C57.7881 72 57.5141 71.874 57.3341 71.622C57.1461 71.874 56.8681 72 56.5001 72H54.5321L54.7241 71.628H55.6421V69.12L56.0381 68.91V71.628H56.4581C56.9141 71.628 57.1421 71.392 57.1421 70.92V68.34L57.5381 68.13V69.438L57.5441 69.432V70.944C57.5441 71.4 57.7641 71.628 58.2041 71.628ZM62.0695 71.628H62.2735V72H62.0155C61.6515 72 61.3795 71.874 61.1995 71.622C60.9995 71.954 60.6955 72.12 60.2875 72.12C59.8755 72.12 59.5715 71.956 59.3755 71.628C59.1915 71.876 58.9175 72 58.5535 72H58.2955V71.628H58.5055C58.9455 71.628 59.1655 71.4 59.1655 70.944V70.74C59.1655 70.28 59.2775 69.928 59.5015 69.684C59.6975 69.468 59.9595 69.36 60.2875 69.36C60.6635 69.36 60.9495 69.5 61.1455 69.78C61.3175 70.02 61.4035 70.34 61.4035 70.74V70.944C61.4035 71.4 61.6255 71.628 62.0695 71.628ZM60.2875 71.748C60.5075 71.748 60.6815 71.658 60.8095 71.478C60.9375 71.294 61.0015 71.046 61.0015 70.734C61.0015 70.062 60.7635 69.726 60.2875 69.726C59.8075 69.726 59.5675 70.062 59.5675 70.734C59.5675 71.41 59.8075 71.748 60.2875 71.748ZM65.2229 71.628V72H62.1509V71.628H63.1589C62.9069 71.372 62.7809 71.032 62.7809 70.608C62.7809 70.204 62.9189 69.884 63.1949 69.648C63.4149 69.46 63.6729 69.364 63.9689 69.36C64.3809 69.36 64.7029 69.522 64.9349 69.846V70.242C64.6949 69.898 64.3869 69.726 64.0109 69.726H63.9929C63.7529 69.726 63.5569 69.808 63.4049 69.972C63.2569 70.136 63.1829 70.352 63.1829 70.62C63.1829 70.928 63.2749 71.174 63.4589 71.358C63.6349 71.538 63.8709 71.628 64.1669 71.628H65.2229ZM66.8475 71.712C66.8475 72.44 66.5795 72.896 66.0435 73.08C65.9155 73.124 65.7795 73.146 65.6355 73.146C65.4035 73.146 65.1795 73.09 64.9635 72.978V72.624C65.1675 72.736 65.3755 72.792 65.5875 72.792C65.7555 72.792 65.9035 72.754 66.0315 72.678C66.3115 72.51 66.4515 72.196 66.4515 71.736V69.642L66.8475 69.432V71.712ZM70.5588 71.628V72H69.9228C69.9188 72.264 69.8328 72.496 69.6648 72.696C69.5008 72.9 69.2868 73.034 69.0228 73.098C68.9268 73.126 68.8228 73.14 68.7108 73.14C68.4788 73.14 68.2528 73.084 68.0328 72.972V72.618C68.2408 72.73 68.4468 72.786 68.6508 72.786C68.8148 72.786 68.9588 72.75 69.0828 72.678C69.2068 72.614 69.3108 72.516 69.3948 72.384C69.4788 72.256 69.5208 72.128 69.5208 72L69.0108 71.982C68.5668 71.962 68.2348 71.822 68.0148 71.562C67.8348 71.342 67.7448 71.048 67.7448 70.68C67.7448 70.248 67.8568 69.914 68.0808 69.678C68.2808 69.466 68.5488 69.36 68.8848 69.36C69.2328 69.36 69.4988 69.464 69.6828 69.672C69.8428 69.852 69.9228 70.092 69.9228 70.392V71.628H70.5588ZM69.5208 70.434C69.5208 69.962 69.3088 69.726 68.8848 69.726C68.6488 69.726 68.4648 69.81 68.3328 69.978C68.2048 70.142 68.1408 70.374 68.1408 70.674C68.1408 71.27 68.4348 71.582 69.0228 71.61C69.1988 71.622 69.3648 71.628 69.5208 71.628V70.434ZM72.2601 68.652C72.0961 68.652 72.0141 68.568 72.0141 68.4C72.0141 68.24 72.0961 68.16 72.2601 68.16C72.4161 68.16 72.4941 68.24 72.4941 68.4C72.4941 68.568 72.4161 68.652 72.2601 68.652ZM70.4361 72V71.628H71.4561C71.2361 71.408 71.1261 71.092 71.1261 70.68C71.1261 70.248 71.2381 69.914 71.4621 69.678C71.6581 69.466 71.9181 69.36 72.2421 69.36C72.5741 69.36 72.8301 69.464 73.0101 69.672C73.1661 69.852 73.2441 70.092 73.2441 70.392V70.974C73.2401 71.298 73.1421 71.552 72.9501 71.736C72.7741 71.912 72.5341 72 72.2301 72H70.4361ZM72.8481 70.428C72.8481 69.96 72.6461 69.726 72.2421 69.726C72.0181 69.726 71.8421 69.81 71.7141 69.978C71.5901 70.142 71.5281 70.374 71.5281 70.674C71.5281 70.966 71.5881 71.198 71.7081 71.37C71.8321 71.542 71.9961 71.628 72.2001 71.628C72.6321 71.628 72.8481 71.404 72.8481 70.956V70.428ZM75.376 68.046L75.49 67.836H75.64C75.6 67.768 75.58 67.696 75.58 67.62C75.58 67.508 75.622 67.41 75.706 67.326C75.794 67.242 75.894 67.2 76.006 67.2C76.094 67.2 76.18 67.228 76.264 67.284V67.506C76.188 67.45 76.112 67.422 76.036 67.422C75.968 67.422 75.912 67.442 75.868 67.482C75.824 67.522 75.802 67.572 75.802 67.632C75.802 67.7 75.83 67.768 75.886 67.836H76.414L76.3 68.046H75.376ZM76.72 72C76.38 72 76.118 71.89 75.934 71.67C75.782 71.482 75.706 71.244 75.706 70.956V68.58L76.108 68.37V70.944C76.108 71.4 76.328 71.628 76.768 71.628H76.978V72H76.72ZM78.79 71.628H79V72H78.742C78.382 72 78.112 71.878 77.932 71.634C77.744 71.878 77.472 72 77.116 72H76.858V71.628H77.068C77.508 71.628 77.728 71.4 77.728 70.944V69.642L78.13 69.432V70.944C78.13 71.4 78.35 71.628 78.79 71.628ZM77.428 72.63C77.588 72.63 77.668 72.712 77.668 72.876C77.668 73.04 77.588 73.122 77.428 73.122C77.268 73.122 77.188 73.04 77.188 72.876C77.188 72.712 77.268 72.63 77.428 72.63ZM78.112 72.63C78.272 72.63 78.352 72.712 78.352 72.876C78.352 73.04 78.272 73.122 78.112 73.122C77.952 73.122 77.872 73.04 77.872 72.876C77.872 72.712 77.952 72.63 78.112 72.63ZM82.2343 69.118L82.3723 68.83L83.5063 68.626L83.3683 68.914L82.2343 69.118ZM82.1562 69.61L82.2943 69.322L83.4223 69.112L83.2903 69.4L82.1562 69.61ZM82.9055 68.64C82.7415 68.64 82.6595 68.556 82.6595 68.388C82.6595 68.228 82.7415 68.148 82.9055 68.148C83.0615 68.148 83.1395 68.228 83.1395 68.388C83.1395 68.556 83.0615 68.64 82.9055 68.64ZM80.5895 71.604C80.7375 70.988 80.9955 70.472 81.3635 70.056C81.7755 69.592 82.2595 69.36 82.8155 69.36C83.2635 69.36 83.6195 69.514 83.8835 69.822C84.1075 70.086 84.2195 70.412 84.2195 70.8V70.968C84.2195 71.308 84.1155 71.572 83.9075 71.76C83.7315 71.92 83.4975 72 83.2055 72H80.7635C80.4035 72 80.1335 71.878 79.9535 71.634C79.7655 71.878 79.4935 72 79.1375 72H78.8795V71.628H79.0895C79.5295 71.628 79.7495 71.4 79.7495 70.944V70.08L80.1515 69.87V70.944C80.1515 71.32 80.2975 71.54 80.5895 71.604ZM83.8175 70.92V70.8C83.8175 70.464 83.7115 70.194 83.4995 69.99C83.3195 69.814 83.0935 69.726 82.8215 69.726C82.3535 69.726 81.9375 69.946 81.5735 70.386C81.2975 70.722 81.0895 71.136 80.9495 71.628H83.1755C83.6035 71.628 83.8175 71.392 83.8175 70.92ZM85.1923 72V68.34L85.5943 68.13V72H85.1923ZM89.0882 72C88.7922 72 88.5562 71.908 88.3802 71.724C88.2042 71.536 88.1162 71.284 88.1162 70.968V70.182L88.5182 69.972V70.92C88.5182 71.392 88.7382 71.628 89.1782 71.628H91.1882C91.6282 71.628 91.8482 71.392 91.8482 70.92V69.642L92.2502 69.432V70.968C92.2502 71.308 92.1462 71.572 91.9382 71.76C91.7582 71.92 91.5222 72 91.2302 72H89.0882ZM90.0662 73.122C89.9022 73.122 89.8202 73.038 89.8202 72.87C89.8202 72.71 89.9022 72.63 90.0662 72.63C90.2222 72.63 90.3002 72.71 90.3002 72.87C90.3002 73.038 90.2222 73.122 90.0662 73.122ZM94.345 72C94.005 72 93.743 71.89 93.559 71.67C93.407 71.482 93.331 71.244 93.331 70.956V68.34L93.733 68.13V70.944C93.733 71.4 93.953 71.628 94.393 71.628H94.603V72H94.345ZM94.483 72V71.628H94.849C95.293 71.628 95.515 71.4 95.515 70.944V70.08L95.917 69.87V70.944C95.917 71.4 96.137 71.628 96.577 71.628H96.799C97.239 71.628 97.459 71.4 97.459 70.944V69.864L97.861 69.648V70.944C97.861 71.4 98.083 71.628 98.527 71.628H98.743C99.187 71.628 99.409 71.4 99.409 70.944V69.642L99.811 69.432V70.92C99.811 71.392 100.039 71.628 100.495 71.628H100.843V72H100.453C100.073 72 99.795 71.866 99.619 71.598C99.443 71.866 99.171 72 98.803 72H98.473C98.101 72 97.831 71.868 97.663 71.604C97.491 71.868 97.223 72 96.859 72H96.529C96.157 72 95.885 71.868 95.713 71.604C95.545 71.868 95.275 72 94.903 72H94.483ZM101.593 70.392C101.593 70.052 101.695 69.788 101.899 69.6C102.075 69.44 102.307 69.36 102.595 69.36C102.967 69.36 103.253 69.496 103.453 69.768C103.625 70 103.711 70.304 103.711 70.68C103.711 71.108 103.601 71.442 103.381 71.682C103.189 71.894 102.939 72 102.631 72C102.255 72 101.975 71.88 101.791 71.64C101.611 71.88 101.341 72 100.981 72H100.723V71.628H100.933C101.373 71.628 101.593 71.4 101.593 70.944V70.392ZM101.995 70.968C101.995 71.408 102.211 71.628 102.643 71.628C102.851 71.628 103.015 71.544 103.135 71.376C103.255 71.208 103.315 70.974 103.315 70.674C103.315 70.378 103.251 70.146 103.123 69.978C102.999 69.81 102.823 69.726 102.595 69.726C102.195 69.726 101.995 69.96 101.995 70.428V70.968ZM109.223 71.628H109.427V72H109.169C108.813 72 108.545 71.88 108.365 71.64C108.181 71.876 107.909 71.996 107.549 72H106.787C106.347 72 106.127 72.228 106.127 72.684V73.68L105.725 73.89V72.672C105.725 72.34 105.823 72.08 106.019 71.892C106.195 71.72 106.429 71.632 106.721 71.628C106.533 71.388 106.439 71.072 106.439 70.68C106.439 70.248 106.551 69.914 106.775 69.678C106.971 69.466 107.231 69.36 107.555 69.36C107.887 69.36 108.143 69.464 108.323 69.672C108.479 69.852 108.557 70.092 108.557 70.392V70.944C108.557 71.4 108.779 71.628 109.223 71.628ZM108.155 70.968V70.428C108.155 69.96 107.955 69.726 107.555 69.726C107.327 69.726 107.149 69.81 107.021 69.978C106.897 70.146 106.835 70.378 106.835 70.674C106.835 70.974 106.895 71.208 107.015 71.376C107.135 71.544 107.301 71.628 107.513 71.628C107.941 71.628 108.155 71.408 108.155 70.968ZM109.307 72V71.628H109.979C110.851 71.628 111.531 71.332 112.019 70.74C111.663 70.06 111.233 69.72 110.729 69.72C110.385 69.72 110.049 69.894 109.721 70.242V69.846C110.049 69.522 110.391 69.36 110.747 69.36H110.759C111.387 69.36 111.931 69.784 112.391 70.632V70.878C111.807 71.626 111.001 72 109.973 72H109.307ZM114.197 71.712C114.197 72.44 113.929 72.896 113.393 73.08C113.265 73.124 113.129 73.146 112.985 73.146C112.753 73.146 112.529 73.09 112.313 72.978V72.624C112.517 72.736 112.725 72.792 112.937 72.792C113.105 72.792 113.253 72.754 113.381 72.678C113.661 72.51 113.801 72.196 113.801 71.736V69.642L114.197 69.432V71.712ZM116.453 71.712C116.453 72.44 116.185 72.896 115.649 73.08C115.521 73.124 115.385 73.146 115.241 73.146C115.009 73.146 114.785 73.09 114.569 72.978V72.624C114.773 72.736 114.981 72.792 115.193 72.792C115.361 72.792 115.509 72.754 115.637 72.678C115.917 72.51 116.057 72.196 116.057 71.736V69.642L116.453 69.432V71.712ZM122.05 71.628H122.254V72H121.996C121.64 72 121.372 71.88 121.192 71.64C121.008 71.876 120.736 71.996 120.376 72H119.614C119.174 72 118.954 72.228 118.954 72.684V73.68L118.552 73.89V72.672C118.552 72.34 118.65 72.08 118.846 71.892C119.022 71.72 119.256 71.632 119.548 71.628C119.36 71.388 119.266 71.072 119.266 70.68C119.266 70.248 119.378 69.914 119.602 69.678C119.798 69.466 120.058 69.36 120.382 69.36C120.714 69.36 120.97 69.464 121.15 69.672C121.306 69.852 121.384 70.092 121.384 70.392V70.944C121.384 71.4 121.606 71.628 122.05 71.628ZM120.982 70.968V70.428C120.982 69.96 120.782 69.726 120.382 69.726C120.154 69.726 119.976 69.81 119.848 69.978C119.724 70.146 119.662 70.378 119.662 70.674C119.662 70.974 119.722 71.208 119.842 71.376C119.962 71.544 120.128 71.628 120.34 71.628C120.768 71.628 120.982 71.408 120.982 70.968ZM125.925 71.628H126.135V72H125.919C125.587 72 125.321 71.962 125.121 71.886C124.925 71.81 124.743 71.676 124.575 71.484C124.063 71.828 123.471 72 122.799 72H122.133V71.628H122.805C123.677 71.628 124.357 71.332 124.845 70.74C124.489 70.06 124.059 69.72 123.555 69.72C123.211 69.72 122.875 69.894 122.547 70.242V69.846C122.875 69.522 123.217 69.36 123.573 69.36H123.585C124.213 69.36 124.757 69.784 125.217 70.632V70.878C125.093 71.038 124.961 71.176 124.821 71.292C124.949 71.416 125.093 71.504 125.253 71.556C125.417 71.604 125.641 71.628 125.925 71.628ZM126.378 68.64C126.214 68.64 126.132 68.556 126.132 68.388C126.132 68.228 126.214 68.148 126.378 68.148C126.534 68.148 126.612 68.228 126.612 68.388C126.612 68.556 126.534 68.64 126.378 68.64ZM127.062 68.64C126.898 68.64 126.816 68.556 126.816 68.388C126.816 68.228 126.898 68.148 127.062 68.148C127.218 68.148 127.296 68.228 127.296 68.388C127.296 68.556 127.218 68.64 127.062 68.64ZM126.018 72V71.628H126.228C126.668 71.628 126.888 71.4 126.888 70.944V69.642L127.29 69.432V70.956C127.29 71.292 127.192 71.554 126.996 71.742C126.816 71.914 126.576 72 126.276 72H126.018ZM131.004 71.628V72H130.368C130.364 72.264 130.278 72.496 130.11 72.696C129.946 72.9 129.732 73.034 129.468 73.098C129.372 73.126 129.268 73.14 129.156 73.14C128.924 73.14 128.698 73.084 128.478 72.972V72.618C128.686 72.73 128.892 72.786 129.096 72.786C129.26 72.786 129.404 72.75 129.528 72.678C129.652 72.614 129.756 72.516 129.84 72.384C129.924 72.256 129.966 72.128 129.966 72L129.456 71.982C129.012 71.962 128.68 71.822 128.46 71.562C128.28 71.342 128.19 71.048 128.19 70.68C128.19 70.248 128.302 69.914 128.526 69.678C128.726 69.466 128.994 69.36 129.33 69.36C129.678 69.36 129.944 69.464 130.128 69.672C130.288 69.852 130.368 70.092 130.368 70.392V71.628H131.004ZM129.966 70.434C129.966 69.962 129.754 69.726 129.33 69.726C129.094 69.726 128.91 69.81 128.778 69.978C128.65 70.142 128.586 70.374 128.586 70.674C128.586 71.27 128.88 71.582 129.468 71.61C129.644 71.622 129.81 71.628 129.966 71.628V70.434ZM130.881 72V71.628H131.091C131.531 71.628 131.751 71.4 131.751 70.944V69.642L132.153 69.432V70.956C132.153 71.292 132.055 71.554 131.859 71.742C131.679 71.914 131.439 72 131.139 72H130.881ZM136.865 68.34L137.261 68.13V70.926C137.261 71.266 137.161 71.534 136.961 71.73C136.777 71.91 136.531 72 136.223 72H134.255L134.447 71.628H135.365V69.12L135.761 68.91V71.628H136.181C136.637 71.628 136.865 71.392 136.865 70.92V68.34ZM139.129 68.64C138.965 68.64 138.883 68.556 138.883 68.388C138.883 68.228 138.965 68.148 139.129 68.148C139.285 68.148 139.363 68.228 139.363 68.388C139.363 68.556 139.285 68.64 139.129 68.64ZM137.863 72L138.055 71.628H139.183C139.367 71.628 139.495 71.582 139.567 71.49C139.643 71.398 139.681 71.238 139.681 71.01C139.681 70.422 139.423 69.984 138.907 69.696L139.105 69.366C139.741 69.734 140.065 70.252 140.077 70.92C140.081 71.392 140.311 71.628 140.767 71.628H140.953V72H140.725C140.377 72 140.111 71.884 139.927 71.652C139.791 71.884 139.565 72 139.249 72H137.863ZM141.779 69.522C141.819 69.518 141.861 69.516 141.905 69.516C142.265 69.516 142.573 69.604 142.829 69.78C143.181 70.032 143.357 70.392 143.357 70.86V70.974C143.357 71.31 143.253 71.572 143.045 71.76C142.865 71.92 142.631 72 142.343 72H140.831V71.628H142.301C142.737 71.628 142.955 71.394 142.955 70.926V70.866C142.955 70.542 142.839 70.3 142.607 70.14C142.415 69.996 142.171 69.924 141.875 69.924C141.659 69.924 141.445 69.962 141.233 70.038V69.642L142.595 68.13H143.009L141.779 69.522ZM144.255 72V68.34L144.657 68.13V72H144.255ZM145.407 72.324V71.94C145.555 71.828 145.765 71.75 146.037 71.706C145.833 71.426 145.731 71.118 145.731 70.782C145.731 70.458 145.809 70.19 145.965 69.978C146.125 69.762 146.341 69.63 146.613 69.582C146.673 69.57 146.733 69.564 146.793 69.564C147.141 69.564 147.427 69.706 147.651 69.99V70.392C147.403 70.084 147.123 69.93 146.811 69.93C146.763 69.93 146.717 69.934 146.673 69.942C146.313 70.014 146.133 70.286 146.133 70.758C146.133 71.126 146.259 71.422 146.511 71.646C146.563 71.642 146.635 71.64 146.727 71.64C147.251 71.632 147.667 71.518 147.975 71.298V71.67C147.639 71.89 147.201 72 146.661 72C146.133 72 145.715 72.108 145.407 72.324ZM152.445 68.34L152.841 68.13V70.926C152.841 71.266 152.741 71.534 152.541 71.73C152.357 71.91 152.111 72 151.803 72H149.835L150.027 71.628H150.945V69.12L151.341 68.91V71.628H151.761C152.217 71.628 152.445 71.392 152.445 70.92V68.34ZM154.937 72C154.597 72 154.335 71.89 154.151 71.67C153.999 71.482 153.923 71.244 153.923 70.956V68.34L154.325 68.13V70.944C154.325 71.4 154.545 71.628 154.985 71.628H155.195V72H154.937ZM161.075 71.628H161.285V72H161.027C160.667 72 160.397 71.878 160.217 71.634C160.037 71.878 159.765 72 159.401 72H156.959C156.599 72 156.329 71.878 156.149 71.634C155.961 71.878 155.689 72 155.333 72H155.075V71.628H155.285C155.725 71.628 155.945 71.4 155.945 70.944V70.08L156.347 69.87V70.944C156.347 71.32 156.493 71.54 156.785 71.604C156.933 70.988 157.191 70.472 157.559 70.056C157.971 69.592 158.455 69.36 159.011 69.36C159.459 69.36 159.815 69.514 160.079 69.822C160.303 70.086 160.415 70.412 160.415 70.8V70.956C160.415 71.404 160.635 71.628 161.075 71.628ZM159.371 71.628C159.799 71.628 160.013 71.392 160.013 70.92V70.8C160.013 70.464 159.907 70.194 159.695 69.99C159.515 69.814 159.289 69.726 159.017 69.726C158.549 69.726 158.133 69.946 157.769 70.386C157.493 70.722 157.285 71.136 157.145 71.628H159.371ZM166.683 71.628V72H166.425C166.089 72 165.829 71.892 165.645 71.676C165.501 71.892 165.269 72 164.949 72H161.163V71.628H162.177V68.34L162.549 68.13V70.65C163.017 69.79 163.637 69.36 164.409 69.36C164.857 69.36 165.213 69.514 165.477 69.822C165.701 70.086 165.813 70.412 165.813 70.8V70.956C165.813 71.404 166.035 71.628 166.479 71.628H166.683ZM165.411 70.8C165.411 70.464 165.305 70.194 165.093 69.99C164.913 69.814 164.687 69.726 164.415 69.726C163.947 69.726 163.531 69.952 163.167 70.404C162.891 70.744 162.687 71.152 162.555 71.628H164.907C165.099 71.628 165.231 71.584 165.303 71.496C165.375 71.404 165.411 71.238 165.411 70.998V70.8ZM167.609 68.64C167.445 68.64 167.363 68.556 167.363 68.388C167.363 68.228 167.445 68.148 167.609 68.148C167.765 68.148 167.843 68.228 167.843 68.388C167.843 68.556 167.765 68.64 167.609 68.64ZM166.565 72V71.628H166.775C167.215 71.628 167.435 71.4 167.435 70.944V69.642L167.837 69.432V70.956C167.837 71.292 167.739 71.554 167.543 71.742C167.363 71.914 167.123 72 166.823 72H166.565ZM169.931 72C169.591 72 169.329 71.89 169.145 71.67C168.993 71.482 168.917 71.244 168.917 70.956V68.34L169.319 68.13V70.944C169.319 71.4 169.539 71.628 169.979 71.628H170.189V72H169.931ZM174.353 72H172.871C172.655 72 172.435 71.954 172.211 71.862C171.983 71.954 171.761 72 171.545 72H170.069V71.628H171.521C171.601 71.628 171.683 71.622 171.767 71.61C171.451 71.382 171.107 71.006 170.735 70.482V70.236C171.151 69.652 171.641 69.36 172.205 69.36C172.765 69.36 173.257 69.656 173.681 70.248V70.482C173.309 71.006 172.967 71.382 172.655 71.61C172.735 71.622 172.815 71.628 172.895 71.628H174.347L174.353 72ZM171.083 70.362C171.503 70.922 171.877 71.286 172.205 71.454C172.529 71.286 172.905 70.92 173.333 70.356C173.013 69.936 172.637 69.726 172.205 69.726H172.187C171.779 69.726 171.411 69.938 171.083 70.362ZM174.235 72V71.628H174.445C174.885 71.628 175.105 71.4 175.105 70.944V69.642L175.507 69.432V70.956C175.507 71.292 175.409 71.554 175.213 71.742C175.033 71.914 174.793 72 174.493 72H174.235ZM174.433 73.122C174.269 73.122 174.187 73.038 174.187 72.87C174.187 72.71 174.269 72.63 174.433 72.63C174.589 72.63 174.667 72.71 174.667 72.87C174.667 73.038 174.589 73.122 174.433 73.122ZM175.117 73.122C174.953 73.122 174.871 73.038 174.871 72.87C174.871 72.71 174.953 72.63 175.117 72.63C175.273 72.63 175.351 72.71 175.351 72.87C175.351 73.038 175.273 73.122 175.117 73.122ZM178.994 72C178.638 72 178.36 71.882 178.16 71.646C177.992 71.442 177.908 71.178 177.908 70.854C177.908 70.114 178.28 69.616 179.024 69.36C179.768 69.616 180.14 70.114 180.14 70.854C180.14 71.226 180.03 71.516 179.81 71.724C179.618 71.908 179.366 72 179.054 72H178.994ZM178.976 71.628H179.072C179.28 71.628 179.444 71.56 179.564 71.424C179.684 71.284 179.744 71.094 179.744 70.854C179.744 70.322 179.504 69.946 179.024 69.726C178.544 69.946 178.304 70.322 178.304 70.854C178.304 71.09 178.364 71.278 178.484 71.418C178.604 71.558 178.768 71.628 178.976 71.628ZM182.635 71.778C182.467 71.874 182.251 71.922 181.987 71.922C181.639 71.922 181.367 71.788 181.171 71.52C181.003 71.292 180.919 71.004 180.919 70.656C180.919 70.236 181.031 69.908 181.255 69.672C181.451 69.464 181.711 69.36 182.035 69.36C182.367 69.36 182.623 69.464 182.803 69.672C182.959 69.852 183.037 70.092 183.037 70.392V71.712C183.037 72.084 182.959 72.39 182.803 72.63C182.647 72.874 182.425 73.03 182.137 73.098C182.041 73.126 181.937 73.14 181.825 73.14C181.593 73.14 181.367 73.084 181.147 72.972V72.618C181.355 72.73 181.561 72.786 181.765 72.786C181.929 72.786 182.073 72.75 182.197 72.678C182.477 72.538 182.623 72.238 182.635 71.778ZM182.635 70.428C182.635 69.96 182.435 69.726 182.035 69.726C181.811 69.726 181.633 69.808 181.501 69.972C181.373 70.136 181.309 70.362 181.309 70.65C181.309 70.93 181.371 71.154 181.495 71.322C181.619 71.486 181.787 71.568 181.999 71.568C182.315 71.568 182.527 71.48 182.635 71.304V70.428ZM186.471 72C186.175 72 185.939 71.908 185.763 71.724C185.587 71.536 185.499 71.284 185.499 70.968V70.182L185.901 69.972V70.92C185.901 71.392 186.121 71.628 186.561 71.628H188.571C189.011 71.628 189.231 71.392 189.231 70.92V69.642L189.633 69.432V70.968C189.633 71.308 189.529 71.572 189.321 71.76C189.141 71.92 188.905 72 188.613 72H186.471ZM187.449 73.122C187.285 73.122 187.203 73.038 187.203 72.87C187.203 72.71 187.285 72.63 187.449 72.63C187.605 72.63 187.683 72.71 187.683 72.87C187.683 73.038 187.605 73.122 187.449 73.122ZM192.166 71.628H192.376V72H192.118C191.87 72 191.664 71.94 191.5 71.82C191.468 72.484 191.2 72.904 190.696 73.08C190.568 73.124 190.432 73.146 190.288 73.146C190.056 73.146 189.832 73.09 189.616 72.978V72.624C189.82 72.736 190.028 72.792 190.24 72.792C190.408 72.792 190.556 72.754 190.684 72.678C190.964 72.51 191.104 72.196 191.104 71.736V69.642L191.5 69.432V69.438L191.506 69.432V70.944C191.506 71.4 191.726 71.628 192.166 71.628ZM193.302 68.64C193.138 68.64 193.056 68.556 193.056 68.388C193.056 68.228 193.138 68.148 193.302 68.148C193.458 68.148 193.536 68.228 193.536 68.388C193.536 68.556 193.458 68.64 193.302 68.64ZM192.258 72V71.628H192.468C192.908 71.628 193.128 71.4 193.128 70.944V69.642L193.53 69.432V70.956C193.53 71.292 193.432 71.554 193.236 71.742C193.056 71.914 192.816 72 192.516 72H192.258ZM195.624 72C195.284 72 195.022 71.89 194.838 71.67C194.686 71.482 194.61 71.244 194.61 70.956V68.34L195.012 68.13V70.944C195.012 71.4 195.232 71.628 195.672 71.628H195.882V72H195.624ZM199.536 71.628H199.74V72H199.482C199.118 72 198.846 71.874 198.666 71.622C198.466 71.954 198.162 72.12 197.754 72.12C197.342 72.12 197.038 71.956 196.842 71.628C196.658 71.876 196.384 72 196.02 72H195.762V71.628H195.972C196.412 71.628 196.632 71.4 196.632 70.944V70.74C196.632 70.28 196.744 69.928 196.968 69.684C197.164 69.468 197.426 69.36 197.754 69.36C198.13 69.36 198.416 69.5 198.612 69.78C198.784 70.02 198.87 70.34 198.87 70.74V70.944C198.87 71.4 199.092 71.628 199.536 71.628ZM197.754 71.748C197.974 71.748 198.148 71.658 198.276 71.478C198.404 71.294 198.468 71.046 198.468 70.734C198.468 70.062 198.23 69.726 197.754 69.726C197.274 69.726 197.034 70.062 197.034 70.734C197.034 71.41 197.274 71.748 197.754 71.748ZM199.618 72V71.628H200.29C201.162 71.628 201.842 71.332 202.33 70.74C201.974 70.06 201.544 69.72 201.04 69.72C200.696 69.72 200.36 69.894 200.032 70.242V69.846C200.36 69.522 200.702 69.36 201.058 69.36H201.07C201.698 69.36 202.242 69.784 202.702 70.632V70.878C202.118 71.626 201.312 72 200.284 72H199.618ZM201.202 73.122C201.038 73.122 200.956 73.038 200.956 72.87C200.956 72.71 201.038 72.63 201.202 72.63C201.358 72.63 201.436 72.71 201.436 72.87C201.436 73.038 201.358 73.122 201.202 73.122ZM145.623 82C145.591 82.344 145.411 82.622 145.083 82.834C144.767 83.038 144.361 83.14 143.865 83.14C143.249 83.14 142.785 82.96 142.473 82.6C142.241 82.332 142.125 82.002 142.125 81.61C142.125 81.266 142.213 80.97 142.389 80.722L142.779 80.644C142.587 80.936 142.491 81.248 142.491 81.58C142.491 81.948 142.617 82.242 142.869 82.462C143.109 82.674 143.441 82.78 143.865 82.78C144.301 82.78 144.643 82.688 144.891 82.504C145.075 82.368 145.183 82.2 145.215 82H144.603L144.795 81.628H145.641V82H145.623ZM143.487 84.13C143.323 84.13 143.241 84.048 143.241 83.884C143.241 83.72 143.323 83.638 143.487 83.638C143.643 83.638 143.721 83.72 143.721 83.884C143.721 84.048 143.643 84.13 143.487 84.13ZM144.171 84.13C144.011 84.13 143.931 84.048 143.931 83.884C143.931 83.72 144.011 83.638 144.171 83.638C144.331 83.638 144.411 83.72 144.411 83.884C144.411 84.048 144.331 84.13 144.171 84.13ZM145.442 82V81.628H145.808C146.252 81.628 146.474 81.4 146.474 80.944V80.08L146.876 79.87V80.944C146.876 81.4 147.096 81.628 147.536 81.628H147.758C148.198 81.628 148.418 81.4 148.418 80.944V79.864L148.82 79.648V80.944C148.82 81.4 149.042 81.628 149.486 81.628H149.702C150.146 81.628 150.368 81.4 150.368 80.944V79.642L150.77 79.432V80.956C150.77 81.288 150.672 81.548 150.476 81.736C150.3 81.908 150.062 81.996 149.762 82H149.432C149.06 82 148.79 81.868 148.622 81.604C148.45 81.868 148.182 82 147.818 82H147.488C147.116 82 146.844 81.868 146.672 81.604C146.504 81.868 146.234 82 145.862 82H145.442ZM152.863 82C152.523 82 152.261 81.89 152.077 81.67C151.925 81.482 151.849 81.244 151.849 80.956V78.34L152.251 78.13V80.944C152.251 81.4 152.471 81.628 152.911 81.628H153.121V82H152.863ZM156.073 81.628V82H153.001V81.628H154.009C153.757 81.372 153.631 81.032 153.631 80.608C153.631 80.204 153.769 79.884 154.045 79.648C154.265 79.46 154.523 79.364 154.819 79.36C155.231 79.36 155.553 79.522 155.785 79.846V80.242C155.545 79.898 155.237 79.726 154.861 79.726H154.843C154.603 79.726 154.407 79.808 154.255 79.972C154.107 80.136 154.033 80.352 154.033 80.62C154.033 80.928 154.125 81.174 154.309 81.358C154.485 81.538 154.721 81.628 155.017 81.628H156.073ZM156.431 82L156.623 81.628H157.751C157.935 81.628 158.063 81.582 158.135 81.49C158.211 81.398 158.249 81.238 158.249 81.01C158.249 80.426 157.993 79.988 157.481 79.696L157.673 79.366C158.325 79.746 158.651 80.296 158.651 81.016C158.651 81.672 158.373 82 157.817 82H156.431ZM164.654 78.658C164.49 78.658 164.408 78.574 164.408 78.406C164.408 78.246 164.49 78.166 164.654 78.166C164.81 78.166 164.888 78.246 164.888 78.406C164.888 78.574 164.81 78.658 164.654 78.658ZM165.248 81.628H166.298V82H164.99C164.854 82 164.73 81.986 164.618 81.958C164.506 81.986 164.382 82 164.246 82H162.02C161.724 82 161.488 81.908 161.312 81.724C161.136 81.536 161.048 81.284 161.048 80.968V80.182L161.45 79.972V80.92C161.45 81.392 161.67 81.628 162.11 81.628H163.988C163.676 81.34 163.52 80.994 163.52 80.59C163.52 80.202 163.628 79.894 163.844 79.666C164.04 79.462 164.298 79.36 164.618 79.36C164.982 79.36 165.264 79.492 165.464 79.756C165.632 79.976 165.716 80.254 165.716 80.59C165.716 80.994 165.56 81.34 165.248 81.628ZM164.642 81.574C164.846 81.502 165.012 81.374 165.14 81.19C165.268 81.006 165.332 80.804 165.332 80.584C165.332 80.32 165.268 80.112 165.14 79.96C165.012 79.804 164.838 79.726 164.618 79.726C164.398 79.726 164.222 79.804 164.09 79.96C163.962 80.112 163.898 80.318 163.898 80.578C163.898 80.798 163.962 81.002 164.09 81.19C164.222 81.374 164.39 81.502 164.594 81.574L164.618 81.58L164.63 81.574H164.642ZM166.178 82V81.628H166.388C166.828 81.628 167.048 81.4 167.048 80.944V79.642L167.45 79.432V80.956C167.45 81.292 167.352 81.554 167.156 81.742C166.976 81.914 166.736 82 166.436 82H166.178ZM166.376 83.122C166.212 83.122 166.13 83.038 166.13 82.87C166.13 82.71 166.212 82.63 166.376 82.63C166.532 82.63 166.61 82.71 166.61 82.87C166.61 83.038 166.532 83.122 166.376 83.122ZM167.06 83.122C166.896 83.122 166.814 83.038 166.814 82.87C166.814 82.71 166.896 82.63 167.06 82.63C167.216 82.63 167.294 82.71 167.294 82.87C167.294 83.038 167.216 83.122 167.06 83.122ZM174.766 81.628H174.97V82H174.712C174.352 82 174.082 81.878 173.902 81.634C173.722 81.878 173.45 82 173.086 82H170.944C170.648 82 170.412 81.908 170.236 81.724C170.06 81.536 169.972 81.284 169.972 80.968V80.182L170.374 79.972V80.92C170.374 81.392 170.594 81.628 171.034 81.628H173.044C173.48 81.628 173.698 81.392 173.698 80.92V78.34L174.1 78.13V80.944C174.1 81.4 174.322 81.628 174.766 81.628ZM172.012 79.138C172.176 79.138 172.306 79.182 172.402 79.27C172.498 79.358 172.546 79.476 172.546 79.624C172.546 79.756 172.506 79.862 172.426 79.942C172.35 80.018 172.248 80.056 172.12 80.056H171.376L171.49 79.846H172.102C172.254 79.846 172.33 79.77 172.33 79.618C172.33 79.434 172.214 79.342 171.982 79.342C171.862 79.342 171.76 79.366 171.676 79.414V79.21L172.168 78.658H172.42L172.006 79.138H172.012ZM175.21 78.64C175.046 78.64 174.964 78.556 174.964 78.388C174.964 78.228 175.046 78.148 175.21 78.148C175.366 78.148 175.444 78.228 175.444 78.388C175.444 78.556 175.366 78.64 175.21 78.64ZM175.894 78.64C175.73 78.64 175.648 78.556 175.648 78.388C175.648 78.228 175.73 78.148 175.894 78.148C176.05 78.148 176.128 78.228 176.128 78.388C176.128 78.556 176.05 78.64 175.894 78.64ZM174.85 82V81.628H175.06C175.5 81.628 175.72 81.4 175.72 80.944V79.642L176.122 79.432V80.956C176.122 81.292 176.024 81.554 175.828 81.742C175.648 81.914 175.408 82 175.108 82H174.85ZM178.216 82C177.876 82 177.614 81.89 177.43 81.67C177.278 81.482 177.202 81.244 177.202 80.956V78.34L177.604 78.13V80.944C177.604 81.4 177.824 81.628 178.264 81.628H178.474V82H178.216ZM178.354 82V81.628H178.564C179.004 81.628 179.224 81.4 179.224 80.944V79.642L179.626 79.432V80.956C179.626 81.292 179.528 81.554 179.332 81.742C179.152 81.914 178.912 82 178.612 82H178.354ZM179.152 83.122C178.988 83.122 178.906 83.038 178.906 82.87C178.906 82.71 178.988 82.63 179.152 82.63C179.308 82.63 179.386 82.71 179.386 82.87C179.386 83.038 179.308 83.122 179.152 83.122ZM181.33 78.61C181.17 78.61 181.09 78.526 181.09 78.358C181.09 78.198 181.17 78.118 181.33 78.118C181.49 78.118 181.57 78.198 181.57 78.358C181.57 78.526 181.49 78.61 181.33 78.61ZM182.014 78.61C181.854 78.61 181.774 78.526 181.774 78.358C181.774 78.198 181.854 78.118 182.014 78.118C182.174 78.118 182.254 78.198 182.254 78.358C182.254 78.526 182.174 78.61 182.014 78.61ZM181.684 82C181.328 82 181.05 81.882 180.85 81.646C180.682 81.442 180.598 81.178 180.598 80.854C180.598 80.114 180.97 79.616 181.714 79.36C182.458 79.616 182.83 80.114 182.83 80.854C182.83 81.226 182.72 81.516 182.5 81.724C182.308 81.908 182.056 82 181.744 82H181.684ZM181.666 81.628H181.762C181.97 81.628 182.134 81.56 182.254 81.424C182.374 81.284 182.434 81.094 182.434 80.854C182.434 80.322 182.194 79.946 181.714 79.726C181.234 79.946 180.994 80.322 180.994 80.854C180.994 81.09 181.054 81.278 181.174 81.418C181.294 81.558 181.458 81.628 181.666 81.628ZM187.408 78.34L187.804 78.13V80.926C187.804 81.266 187.704 81.534 187.504 81.73C187.32 81.91 187.074 82 186.766 82H184.798L184.99 81.628H185.908V79.12L186.304 78.91V81.628H186.724C187.18 81.628 187.408 81.392 187.408 80.92V78.34ZM191.52 81.628V82H190.884C190.88 82.264 190.794 82.496 190.626 82.696C190.462 82.9 190.248 83.034 189.984 83.098C189.888 83.126 189.784 83.14 189.672 83.14C189.44 83.14 189.214 83.084 188.994 82.972V82.618C189.202 82.73 189.408 82.786 189.612 82.786C189.776 82.786 189.92 82.75 190.044 82.678C190.168 82.614 190.272 82.516 190.356 82.384C190.44 82.256 190.482 82.128 190.482 82L189.972 81.982C189.528 81.962 189.196 81.822 188.976 81.562C188.796 81.342 188.706 81.048 188.706 80.68C188.706 80.248 188.818 79.914 189.042 79.678C189.242 79.466 189.51 79.36 189.846 79.36C190.194 79.36 190.46 79.464 190.644 79.672C190.804 79.852 190.884 80.092 190.884 80.392V81.628H191.52ZM190.482 80.434C190.482 79.962 190.27 79.726 189.846 79.726C189.61 79.726 189.426 79.81 189.294 79.978C189.166 80.142 189.102 80.374 189.102 80.674C189.102 81.27 189.396 81.582 189.984 81.61C190.16 81.622 190.326 81.628 190.482 81.628V80.434ZM193.329 81.628H193.539V82H193.281C192.921 82 192.651 81.878 192.471 81.634C192.283 81.878 192.011 82 191.655 82H191.397V81.628H191.607C192.047 81.628 192.267 81.4 192.267 80.944V79.642L192.669 79.432V80.944C192.669 81.4 192.889 81.628 193.329 81.628ZM191.967 82.63C192.127 82.63 192.207 82.712 192.207 82.876C192.207 83.04 192.127 83.122 191.967 83.122C191.807 83.122 191.727 83.04 191.727 82.876C191.727 82.712 191.807 82.63 191.967 82.63ZM192.651 82.63C192.811 82.63 192.891 82.712 192.891 82.876C192.891 83.04 192.811 83.122 192.651 83.122C192.491 83.122 192.411 83.04 192.411 82.876C192.411 82.712 192.491 82.63 192.651 82.63ZM193.419 82V81.628H193.629C194.069 81.628 194.289 81.4 194.289 80.944V79.642L194.691 79.432V80.956C194.691 81.292 194.593 81.554 194.397 81.742C194.217 81.914 193.977 82 193.677 82H193.419ZM194.217 83.122C194.053 83.122 193.971 83.038 193.971 82.87C193.971 82.71 194.053 82.63 194.217 82.63C194.373 82.63 194.451 82.71 194.451 82.87C194.451 83.038 194.373 83.122 194.217 83.122ZM197.716 81.76C197.716 81.764 197.716 81.768 197.716 81.772C197.716 81.944 197.634 82.03 197.47 82.03C197.298 82.03 197.212 81.942 197.212 81.766C197.22 81.602 197.306 81.52 197.47 81.52C197.634 81.52 197.716 81.6 197.716 81.76ZM199.298 81.76C199.298 81.764 199.298 81.768 199.298 81.772C199.298 81.944 199.216 82.03 199.052 82.03C198.88 82.03 198.794 81.942 198.794 81.766C198.802 81.602 198.888 81.52 199.052 81.52C199.216 81.52 199.298 81.6 199.298 81.76ZM200.88 81.76C200.88 81.764 200.88 81.768 200.88 81.772C200.88 81.944 200.798 82.03 200.634 82.03C200.462 82.03 200.376 81.942 200.376 81.766C200.384 81.602 200.47 81.52 200.634 81.52C200.798 81.52 200.88 81.6 200.88 81.76ZM202.462 81.76C202.462 81.764 202.462 81.768 202.462 81.772C202.462 81.944 202.38 82.03 202.216 82.03C202.044 82.03 201.958 81.942 201.958 81.766C201.966 81.602 202.052 81.52 202.216 81.52C202.38 81.52 202.462 81.6 202.462 81.76Z" fill="#2D2D2D" fill-opacity="0.7"/>
<rect x="15.35" y="199.35" width="202.3" height="11.3" rx="1.65" fill="#F2F3F7" stroke="#E9E9EB" stroke-width="0.7"/>
<rect x="50" y="199" width="18" height="12" rx="2" fill="#3D85FF"/>
<rect x="15.35" y="249.35" width="202.3" height="11.3" rx="1.65" fill="#F2F3F7" stroke="#E9E9EB" stroke-width="0.7"/>
<rect x="15" y="249" width="18" height="12" rx="2" fill="#3D85FF"/>
<rect x="56" y="331" width="118" height="38" rx="6" fill="#FF7752"/>
<path d="M99.332 351.258C99.332 352.303 99.0567 353.143 98.506 353.778C97.9833 354.385 97.288 354.688 96.42 354.688C95.86 354.688 95.314 354.548 94.782 354.268V353.218C95.258 353.479 95.734 353.61 96.21 353.61C96.8073 353.61 97.274 353.409 97.61 353.008C97.946 352.607 98.114 352.051 98.114 351.342V346.568L99.332 345.924V351.258ZM104.29 352C103.478 352 102.852 351.739 102.414 351.216C102.04 350.768 101.854 350.199 101.854 349.508V343.614L103.058 342.97V349.466C103.058 350.399 103.515 350.866 104.43 350.866H105.354V352H104.29ZM104.508 352V350.866H105.768C106.673 350.866 107.126 350.399 107.126 349.466V347.506L108.33 346.862V349.466C108.33 350.399 108.787 350.866 109.702 350.866H110.346C111.26 350.866 111.718 350.399 111.718 349.466V347.03L112.922 346.4V349.466C112.922 350.399 113.374 350.866 114.28 350.866H114.938C115.852 350.866 116.31 350.399 116.31 349.466V346.568L117.514 345.924V349.34C117.514 350.357 117.999 350.866 118.97 350.866H120.132V352H118.872C118.032 352 117.392 351.715 116.954 351.146C116.562 351.706 115.95 351.991 115.12 352H114.154C113.332 352 112.721 351.725 112.32 351.174C111.918 351.715 111.321 351.991 110.528 352H109.562C108.759 352 108.148 351.725 107.728 351.174C107.326 351.725 106.715 352 105.894 352H104.508ZM124.061 350.866H124.985V352H123.921C123.118 352 122.498 351.743 122.059 351.23C121.592 351.743 120.948 352 120.127 352H119.287V350.866H120.029C121 350.866 121.485 350.357 121.485 349.34V343.614L122.703 342.97V349.354C122.703 349.895 122.806 350.283 123.011 350.516C123.226 350.749 123.576 350.866 124.061 350.866ZM126.801 344.23C126.343 344.23 126.115 343.997 126.115 343.53C126.115 343.073 126.343 342.844 126.801 342.844C127.249 342.844 127.473 343.073 127.473 343.53C127.473 343.997 127.249 344.23 126.801 344.23ZM129.013 350.866H129.937V352H128.873C128.098 352 127.487 351.753 127.039 351.258C126.591 351.753 125.979 352 125.205 352H124.141V350.866H125.065C125.979 350.866 126.437 350.399 126.437 349.466V346.568L127.641 345.924V349.466C127.641 350.399 128.098 350.866 129.013 350.866ZM129.09 352V350.866H130.014C130.928 350.866 131.386 350.399 131.386 349.466V346.568L132.59 345.924V349.508C132.59 350.301 132.352 350.927 131.876 351.384C131.437 351.795 130.863 352 130.154 352H129.09ZM129.832 354.786C129.374 354.786 129.146 354.553 129.146 354.086C129.146 353.629 129.374 353.4 129.832 353.4C130.28 353.4 130.504 353.629 130.504 354.086C130.504 354.553 130.28 354.786 129.832 354.786ZM131.61 354.786C131.152 354.786 130.924 354.553 130.924 354.086C130.924 353.629 131.152 353.4 131.61 353.4C132.058 353.4 132.282 353.629 132.282 354.086C132.282 354.553 132.058 354.786 131.61 354.786Z" fill="white"/>
<path d="M168.229 377.023C168.09 377.023 167.954 376.981 167.84 376.902C167.726 376.823 167.638 376.711 167.59 376.581L161.038 358.902C160.996 358.783 160.989 358.655 161.016 358.531C161.044 358.408 161.105 358.295 161.193 358.205C161.282 358.114 161.393 358.051 161.516 358.02C161.638 357.99 161.767 357.994 161.887 358.032L179.559 364.612C179.691 364.661 179.805 364.751 179.884 364.868C179.963 364.986 180.004 365.125 180 365.266C179.996 365.408 179.948 365.544 179.863 365.657C179.778 365.77 179.66 365.854 179.525 365.896L173.843 367.643L179.484 373.285C179.611 373.412 179.682 373.584 179.682 373.764C179.682 373.943 179.611 374.116 179.484 374.243L177.268 376.459C177.205 376.522 177.13 376.571 177.047 376.605C176.964 376.639 176.875 376.656 176.786 376.656C176.696 376.656 176.608 376.639 176.525 376.605C176.442 376.571 176.367 376.522 176.303 376.459L170.641 370.797L168.874 376.54C168.833 376.677 168.75 376.797 168.636 376.884C168.523 376.97 168.385 377.019 168.242 377.023H168.229ZM170.329 368.867C170.418 368.866 170.507 368.883 170.59 368.917C170.673 368.951 170.748 369.001 170.811 369.064L176.786 375.038L178.03 373.76L172.076 367.806C171.993 367.724 171.933 367.621 171.902 367.508C171.871 367.396 171.869 367.277 171.897 367.164C171.925 367.05 171.982 366.946 172.062 366.861C172.142 366.776 172.243 366.713 172.354 366.678L177.2 365.183L162.805 359.82L168.167 374.229L169.676 369.336C169.71 369.223 169.772 369.122 169.857 369.041C169.941 368.96 170.045 368.902 170.159 368.873L170.329 368.867Z" fill="#222222"/>
<path d="M170.329 368.867C170.418 368.866 170.507 368.883 170.59 368.917C170.673 368.951 170.748 369.001 170.811 369.064L176.786 375.038L178.03 373.76L172.076 367.806C171.993 367.724 171.933 367.621 171.902 367.508C171.871 367.396 171.869 367.277 171.897 367.164C171.925 367.05 171.982 366.946 172.062 366.861C172.142 366.776 172.243 366.713 172.354 366.678L177.2 365.183L162.805 359.82L168.167 374.229L169.676 369.336C169.71 369.224 169.772 369.122 169.857 369.041C169.941 368.96 170.045 368.902 170.159 368.873L170.329 368.867Z" fill="white"/>
</svg>
