<svg width="27" height="27" viewBox="0 0 27 27" fill="none" xmlns="http://www.w3.org/2000/svg">
<path d="M26.4191 11.9696C22.2855 13.7774 18.3755 18.4495 18.8228 24.178C12.3708 23.6675 9.17292 23.7701 1.89719 26.3967L1.51079 26.0103L9.46595 18.0749C10.9371 19.2257 12.9089 19.2715 14.0743 18.109C15.352 16.8345 15.1768 14.5903 13.683 13.0965C12.1892 11.6027 9.94242 11.4249 8.66475 12.6994C7.49929 13.8619 7.54274 15.8313 8.69315 17.3021L0.737993 25.2375L0.351594 24.8511C2.77186 19.3495 3.04131 13.6778 2.59403 7.94929C8.99011 7.74379 11.9645 4.77677 14.8271 0.377617L26.4191 11.9696Z" fill="white"/>
</svg>
