<svg width="1300" height="760" viewBox="0 0 1300 760" fill="none" xmlns="http://www.w3.org/2000/svg">
<rect width="1300" height="760" fill="#FAFBFA"/>
<path d="M466.405 0L459.892 0C444.32 4.19882 428.953 8.68763 413.608 13.4686C354.991 31.7316 296.718 54.2518 228.713 81.115C220.149 84.4979 211.43 87.9498 202.536 91.471C144.398 114.489 78.7733 140.471 0 169.489V171.435C79.8163 142.068 146.173 115.796 204.858 92.5612L204.867 92.5576C213.757 89.038 222.47 85.5881 231.028 82.2077C299.046 55.3395 357.181 32.8753 415.615 14.6695C432.438 9.42805 449.287 4.53912 466.405 0Z" fill="#53BD95" fill-opacity="0.18"/>
<path fill-rule="evenodd" clip-rule="evenodd" d="M0 248.805C140.44 204.88 249.352 178.138 349.656 160.646C482.377 137.501 599.954 130.566 755.274 121.405L755.287 121.404C767.328 120.694 779.595 119.97 792.114 119.225C879.532 114.019 938.283 124.254 968.151 142.646C971.634 144.791 974.719 147.043 977.407 149.391C1057.57 117.838 1105.6 80.5185 1115 47.1164C1119.84 29.9305 1114.45 13.7969 1097.99 0H1101.84C1118.02 13.9377 1123.24 30.1345 1118.41 47.295C1108.86 81.2205 1060.08 118.97 978.947 150.787C997.598 168.356 994.731 190.968 970.99 213.736C942.86 240.714 885.374 268.002 799.066 287.667C834.306 298.454 879.906 307.948 931.777 314.924C943.945 316.561 956.451 318.058 969.24 319.4C988.36 278.745 1029.1 236.021 1094.51 195.803C1157.46 157.091 1229.41 127.329 1300 106.672V108.463C1230.39 128.99 1159.47 158.432 1097.31 196.654C1032.12 236.742 991.581 279.293 972.576 319.746C1073.25 330.06 1191.06 330.758 1300 314.375V315.945C1190.69 332.251 1072.68 331.51 971.903 321.199C957.73 352.167 956.188 381.87 965.874 408.255C1018.08 401.645 1067 396.548 1111.7 392.978C1172.36 388.136 1225.31 386.102 1268.2 386.933C1279.5 387.152 1290.11 387.569 1300 388.189V389.686C1290.12 389.058 1279.46 388.633 1268.04 388.412C1225.5 387.588 1172.82 389.604 1112.33 394.434C1067.63 398.003 1018.68 403.106 966.428 409.728C971.354 422.529 978.941 434.531 989.028 445.498C1018.26 477.278 1068.41 500.309 1135.47 508.952C1160.51 512.179 1187.97 513.408 1217.63 512.325C1250.07 500.726 1277.41 489.949 1300 479.99V482.102C1278.73 491.397 1253.38 501.385 1223.7 512.073C1247.75 510.952 1273.22 508.33 1300 504.045V505.623C1271.53 510.132 1244.48 512.786 1218.99 513.762C1160.68 534.587 1086.09 558.03 993.332 584.124C1003.56 584.866 1013.85 585.65 1024.19 586.476C1145.15 596.141 1238.14 612.369 1300 631.155V632.97C1238.69 614.092 1145.52 597.677 1023.57 587.932C1012 587.008 1000.5 586.138 989.079 585.319C949.917 596.304 907.549 607.757 861.837 619.679C675.258 668.339 498.715 680.731 335.752 668.505C215.952 659.518 103.574 637.233 0 606.329V604.528C103.792 635.639 216.375 658.047 336.34 667.046C498.424 679.206 674.135 666.902 860.063 618.411C904.526 606.815 945.813 595.666 984.054 584.961C787.106 571.072 611.3 572.28 456.549 573.343C417.122 573.614 379.06 573.875 342.365 573.875C210.658 573.875 96.4258 570.509 0 552.001L0 550.379C95.9644 568.979 210.022 572.394 342.365 572.394C378.972 572.394 416.97 572.133 456.354 571.862L456.373 571.862C612.112 570.792 789.523 569.572 988.326 583.764C1080.49 557.893 1154.77 534.635 1213.05 513.96C1184.85 514.758 1158.6 513.479 1134.49 510.371C1066.17 501.567 1015.35 478.132 985.84 446.045C975.707 435.027 968.079 422.984 963.112 410.15C874.813 421.418 777.18 436.998 674.712 456.814C410.832 507.847 210.15 495.022 66.525 458.145C42.7959 452.052 20.6306 445.304 0 438.082V436.172C21.1176 443.637 43.8666 450.604 68.2783 456.872C210.836 493.475 410.329 506.321 673.31 455.463C776.053 435.593 873.974 419.97 962.555 408.676C952.716 382.042 954.259 352.075 968.565 320.853C955.654 319.5 943.033 317.99 930.756 316.338C878.03 309.247 831.513 299.535 795.657 288.437C712.923 306.933 604.169 318.452 469.854 316.186C273.654 312.876 114.025 324.839 0 345.989V344.378C114.589 323.262 274.312 311.405 469.988 314.706C602.958 316.95 710.583 305.633 792.549 287.463C765.247 278.8 744.426 269.327 732.156 259.617C717.826 248.275 715.121 236.566 727.556 225.496C739.95 214.462 767.24 204.195 812.232 195.552C875.481 183.4 930.025 167.812 974.759 150.427C972.047 148.006 968.907 145.691 965.342 143.496C936.47 125.717 879.241 115.531 792.583 120.692C780.097 121.436 767.864 122.157 755.859 122.865L755.828 122.867C600.419 132.035 483.251 138.946 350.941 162.02C250.487 179.538 141.264 206.381 0 250.634V248.805ZM967.862 213.128C939.925 239.921 882.494 267.146 795.95 286.701C768.316 278.03 747.362 268.558 735.167 258.907C721.253 247.895 718.786 236.696 730.643 226.142C742.541 215.55 769.006 205.477 813.626 196.905C876.793 184.769 931.387 169.207 976.272 151.83C993.908 168.852 991.137 190.808 967.862 213.128Z" fill="#53BD95" fill-opacity="0.18"/>
<path d="M0 755.137L0 756.682C62.6755 748.572 142.27 743.113 238.482 740.888C373.946 737.756 542.233 741.038 742.39 752.326C942.734 763.625 1093.66 761.642 1199.1 751.621C1239.18 747.811 1272.76 742.832 1300 736.963V735.306C1272.86 741.242 1239.08 746.305 1198.36 750.174C1093.45 760.146 942.952 762.143 742.834 750.857C542.53 739.561 374.026 736.271 238.299 739.41C142.452 741.626 62.8918 747.049 0 755.137Z" fill="#53BD95" fill-opacity="0.18"/>
<path d="M0 35.5865V37.3259C7.83432 35.2411 15.7194 33.159 23.6172 31.0849C42.2882 26.1814 61.033 21.3214 79.3399 16.575C101.447 10.8433 122.915 5.27724 142.844 0H136.275C117.742 4.89113 97.9649 10.0186 77.6333 15.29L77.6185 15.2938C59.3065 20.0415 40.5443 24.906 21.8347 29.8196C14.5379 31.7359 7.24959 33.6596 0 35.5865Z" fill="#53BD95" fill-opacity="0.18"/>
</svg>
