<?xml version="1.0" encoding="utf-8"?>
<!-- Generator: Adobe Illustrator 25.0.0, SVG Export Plug-In . SVG Version: 6.00 Build 0)  -->
<svg version="1.1" id="Layer_1" xmlns="http://www.w3.org/2000/svg" xmlns:xlink="http://www.w3.org/1999/xlink" x="0px" y="0px"
	 viewBox="0 0 50 50" style="enable-background:new 0 0 50 50;" xml:space="preserve">
<style type="text/css">
	.st0{fill:#FFFFFF;}
</style>
<path class="st0" d="M42.5,7.3C37.8,2.6,31.6,0,25,0C11.3,0,0.2,11.1,0.2,24.8c0,4.4,1.1,8.6,3.3,12.4L0,50l13.1-3.4
	c3.6,2,7.7,3,11.8,3h0c13.6,0,25-11.1,25-24.8C50,18.2,47.2,12,42.5,7.3z M25,45.4c-3.7,0-7.3-1-10.5-2.9l-0.7-0.4l-7.8,2L8,36.5
	l-0.5-0.8c-2.1-3.3-3.1-7.1-3.1-11C4.4,13.4,13.6,4.2,25,4.2c5.5,0,10.7,2.1,14.6,6s6.3,9.1,6.3,14.6C45.8,36.1,36.3,45.4,25,45.4z
	 M36.3,30c-0.6-0.3-3.7-1.8-4.2-2c-0.6-0.2-1-0.3-1.4,0.3c-0.4,0.6-1.6,2-2,2.4c-0.4,0.4-0.7,0.5-1.3,0.2c-3.6-1.8-6-3.2-8.4-7.4
	c-0.6-1.1,0.6-1,1.8-3.4c0.2-0.4,0.1-0.8-0.1-1.1c-0.2-0.3-1.4-3.4-1.9-4.6c-0.5-1.2-1-1-1.4-1.1c-0.4,0-0.8,0-1.2,0
	c-0.4,0-1.1,0.2-1.7,0.8c-0.6,0.6-2.2,2.1-2.2,5.2s2.2,6,2.5,6.4c0.3,0.4,4.4,6.7,10.6,9.4c3.9,1.7,5.5,1.8,7.4,1.6
	c1.2-0.2,3.7-1.5,4.2-2.9c0.5-1.5,0.5-2.7,0.4-2.9C37.3,30.4,36.9,30.3,36.3,30z"/>
</svg>
