<svg width="379" height="553" viewBox="0 0 379 553" fill="none" xmlns="http://www.w3.org/2000/svg">
<rect width="379" height="553" rx="16" fill="#EBF4EF"/>
<path d="M135.975 0L134.076 0C129.536 2.83518 125.056 5.86618 120.583 9.09442C103.493 21.4262 86.5048 36.6326 66.6785 54.7716C64.1819 57.0558 61.64 59.3866 59.0471 61.7643C42.0974 77.3071 22.9654 94.8511 0 114.445V115.759C23.2695 95.9291 42.6151 78.1893 59.724 62.5005L59.7267 62.498C62.3183 60.1215 64.8587 57.792 67.3535 55.5094C87.1834 37.3671 104.132 22.1985 121.168 9.90533C126.072 6.36614 130.985 3.06497 135.975 0Z" fill="#53BD95" fill-opacity="0.3"/>
<path fill-rule="evenodd" clip-rule="evenodd" d="M0 168.001C40.9436 138.342 72.6958 120.285 101.938 108.474C140.632 92.8454 174.91 88.1627 220.191 81.9768L220.195 81.9762C223.706 81.4967 227.282 81.0081 230.932 80.5047C256.417 76.9894 273.546 83.9004 282.253 96.3191C283.269 97.7675 284.168 99.2886 284.952 100.874C308.322 79.568 322.326 54.3688 325.066 31.8146C326.476 20.2101 324.905 9.31612 320.105 0H321.228C325.946 9.41117 327.466 20.3478 326.059 31.9352C323.276 54.8428 309.055 80.3325 285.401 101.817C290.838 113.679 290.002 128.948 283.081 144.322C274.88 162.538 258.12 180.964 232.959 194.243C243.232 201.526 256.526 207.937 271.649 212.648C275.196 213.753 278.842 214.764 282.571 215.67C288.145 188.218 300.023 159.37 319.091 132.213C337.444 106.073 358.421 85.9769 379 72.0284V73.2379C358.707 87.0985 338.03 106.979 319.909 132.787C300.903 159.856 289.084 188.588 283.543 215.903C312.894 222.868 347.238 223.339 379 212.276V213.337C347.131 224.347 312.728 223.847 283.347 216.884C279.215 237.795 278.766 257.852 281.59 275.667C296.808 271.204 311.071 267.762 324.104 265.352C341.787 262.082 357.224 260.709 369.728 261.27C373.022 261.418 376.117 261.7 379 262.118V263.129C376.12 262.705 373.01 262.418 369.684 262.269C357.28 261.713 341.923 263.074 324.286 266.335C311.254 268.745 296.984 272.191 281.751 276.662C283.187 285.305 285.399 293.41 288.34 300.815C296.861 322.274 311.482 337.825 331.034 343.661C338.334 345.841 346.338 346.67 354.987 345.939C364.443 338.107 372.415 330.83 379 324.105V325.531C372.798 331.807 365.409 338.552 356.756 345.769C363.767 345.012 371.192 343.241 379 340.348V341.413C370.699 344.458 362.815 346.25 355.384 346.909C338.383 360.971 316.637 376.8 289.594 394.42C292.577 394.921 295.576 395.45 298.591 396.008C333.855 402.535 360.965 413.492 379 426.177V427.402C361.125 414.655 333.965 403.572 298.409 396.992C295.037 396.368 291.685 395.78 288.355 395.227C276.937 402.645 264.586 410.378 251.259 418.428C196.864 451.285 145.395 459.652 97.8847 451.397C62.9584 445.329 30.1957 430.281 0 409.414V408.197C30.2593 429.205 63.0815 444.335 98.0559 450.412C145.31 458.623 196.536 450.315 250.741 417.572C263.704 409.742 275.741 402.214 286.89 394.986C229.472 385.607 178.218 386.423 133.102 387.141C121.607 387.323 110.511 387.5 99.8125 387.5C61.415 387.5 28.1118 385.227 0 372.73L0 371.634C27.9773 384.194 61.2294 386.5 99.8125 386.5C110.485 386.5 121.563 386.324 133.045 386.141L133.05 386.141C178.454 385.418 230.176 384.594 288.135 394.177C315.003 376.708 336.66 361.004 353.65 347.043C345.429 347.582 337.778 346.718 330.748 344.62C310.831 338.675 296.014 322.851 287.41 301.185C284.456 293.745 282.232 285.613 280.784 276.947C255.042 284.555 226.578 295.075 196.704 308.456C119.773 342.915 61.2667 334.256 19.3946 309.355C12.4766 305.241 6.0146 300.684 0 295.808V294.518C6.1566 299.559 12.7888 304.263 19.9057 308.495C61.4668 333.211 119.627 341.885 196.296 307.544C226.249 294.127 254.797 283.578 280.622 275.952C277.753 257.968 278.203 237.733 282.374 216.651C278.61 215.737 274.93 214.717 271.351 213.602C255.98 208.814 242.418 202.256 231.965 194.762C207.845 207.252 176.139 215.03 136.98 213.5C79.7805 211.264 33.2426 219.342 0 233.624V232.536C33.4071 218.277 79.9724 210.271 137.02 212.5C175.785 214.015 207.162 206.374 231.059 194.104C223.099 188.255 217.029 181.859 213.452 175.302C209.274 167.644 208.485 159.737 212.111 152.262C215.724 144.812 223.68 137.88 236.797 132.043C255.237 123.838 271.138 113.312 284.18 101.573C283.389 99.9388 282.474 98.3757 281.434 96.8932C273.017 84.8884 256.333 78.0106 231.068 81.4953C227.428 81.9974 223.862 82.4846 220.362 82.9628L220.353 82.9641C175.045 89.1541 140.886 93.8211 102.313 109.401C73.0267 121.23 41.184 139.355 0 169.237V168.001ZM282.169 143.911C274.024 162.003 257.281 180.386 232.05 193.59C223.994 187.735 217.885 181.34 214.33 174.823C210.273 167.387 209.554 159.825 213.01 152.699C216.479 145.547 224.195 138.745 237.203 132.957C255.619 124.762 271.535 114.255 284.621 102.52C289.762 114.015 288.954 128.84 282.169 143.911Z" fill="#53BD95" fill-opacity="0.3"/>
<path d="M0 509.894L0 510.937C18.2723 505.461 41.4772 501.775 69.5267 500.273C109.02 498.158 158.082 500.374 216.435 507.996C274.843 515.625 318.844 514.286 349.584 507.52C361.27 504.947 371.059 501.585 379 497.622V496.504C371.088 500.512 361.239 503.93 349.369 506.543C318.781 513.276 274.907 514.625 216.565 507.004C158.168 499.376 109.043 497.155 69.4733 499.274C41.5303 500.771 18.3354 504.433 0 509.894Z" fill="#53BD95" fill-opacity="0.3"/>
<path d="M0 24.0292V25.2037C2.284 23.796 4.58281 22.3901 6.88531 20.9896C12.3286 17.6786 17.7935 14.3969 23.1306 11.192C29.5757 7.32178 35.8345 3.56337 41.6445 0H39.7295C34.3262 3.30265 28.5605 6.76489 22.6331 10.3243L22.6288 10.3269C17.2901 13.5327 11.8202 16.8174 6.36565 20.1352C4.23836 21.4292 2.11353 22.7281 0 24.0292Z" fill="#53BD95" fill-opacity="0.3"/>
</svg>
